# File generated by ImageToStl.com - Free Image and 3D model conversion tools

o obj1
v 0.078105 0.48430201 -0.000223
v 0.077957 0.48571399 -0.000149
v 0.077837 0.484961 0.00047
v 0.077866 0.486287 0.00047
v 0.078846 0.48473799 -0.001626
v 0.078458 0.48359001 -0.000965
v 0.073751 0.480746 -5.5E-05
v 0.076902 0.482216 0.00047
v 0.079141 0.48949999 0.00047
v 0.080817 0.488258 -0.00057
v 0.080911 0.48894501 -0.002335
v 0.078105 0.48430201 0.001123
v 0.077957 0.48571399 0.001049
v 0.080817 0.488258 0.00147
v 0.073751 0.480746 0.000955
v 0.078758 0.48424301 -0.002755
v 0.078404 0.48575801 -0.002657
v 0.077254 0.48096699 -0.00207
v 0.077243 0.48204899 -0.003811
v 0.071709 0.47657901 0.00047
v 0.072001 0.47558799 -0.00067
v 0.072001 0.47558799 0.00157
v 0.071899 0.47591799 -0.002878
v 0.081916 0.49453899 0.000471
v 0.082068 0.494764 -0.000172
v 0.082067 0.494275 -0.00243
v 0.082068 0.494764 0.001072
v 0.080077 0.49175501 -0.003462
v 0.077969 0.48731199 -0.003438
v 0.080293 0.49434301 -0.003146
v 0.078846 0.48473799 0.002526
v 0.078458 0.48359001 0.001865
v 0.080911 0.48894501 0.003235
v 0.082067 0.494275 0.00333
v 0.077254 0.48096699 0.00297
v 0.071899 0.47591799 0.003778
v 0.077905 0.48492801 -0.003979
v 0.071649 0.47715801 -0.003683
v 0.077009 0.481352 -0.005383
v 0.073378 0.478787 -0.004788
v 0.078446 0.48413399 -0.004964
v 0.072938 0.47122699 -0.00237
v 0.073101 0.47057 0.00047
v 0.072938 0.47122699 0.00327
v 0.072288 0.47163299 -0.006073
v 0.080788 0.494849 -0.000937
v 0.080727 0.49463701 -0.002727
v 0.081233 0.49416 0.000471
v 0.080788 0.494849 0.001837
v 0.081061 0.49416101 0.000286
v 0.080727 0.49463701 0.003627
v 0.078387 0.48630399 -0.00464
v 0.079951 0.48913699 -0.004914
v 0.079919 0.49548 -0.004394
v 0.078906 0.491312 -0.003364
v 0.079698 0.49225101 -0.002091
v 0.078332 0.49302801 -0.004345
v 0.078404 0.48575801 0.003557
v 0.078758 0.48424301 0.003655
v 0.077243 0.48204899 0.004711
v 0.080077 0.49175501 0.004362
v 0.077969 0.48731199 0.004338
v 0.080293 0.49434301 0.004046
v 0.071649 0.47715801 0.004583
v 0.072288 0.47163299 0.006973
v 0.071535 0.47615299 -0.005505
v 0.078556 0.48434401 -0.006753
v 0.076741 0.48122099 -0.007148
v 0.071591 0.47611701 -0.006852
v 0.071436 0.47649199 -0.007714
v 0.078538 0.48542801 -0.006487
v 0.073432 0.46810099 -0.003325
v 0.073894 0.46786901 0.00047
v 0.073432 0.46810099 0.004225
v 0.072273 0.468606 -0.007154
v 0.072273 0.468606 0.008054
v 0.070907 0.46925199 -0.010817
v 0.071207 0.472532 -0.009547
v 0.080141 0.49172601 0.00047
v 0.080007 0.491786 -0.0001
v 0.079698 0.49225101 0.002991
v 0.080007 0.491786 0.001
v 0.078906 0.491312 0.004264
v 0.079904 0.48891801 -0.006486
v 0.080395 0.49259099 -0.00592
v 0.079945 0.49595699 -0.005942
v 0.074291 0.48805299 -0.00595
v 0.076599 0.48772499 -0.00396
v 0.076325 0.49149299 -0.00511
v 0.077555 0.49070099 -0.002137
v 0.076079 0.48744401 -0.003242
v 0.078711 0.49164 -0.002211
v 0.07751 0.493646 -0.007368
v 0.076042 0.49186999 -0.006851
v 0.079247 0.49578199 -0.006997
v 0.077905 0.48492801 0.004879
v 0.077009 0.481352 0.006283
v 0.073378 0.478787 0.005688
v 0.078446 0.48413399 0.005864
v 0.078387 0.48630399 0.00554
v 0.079951 0.48913699 0.005814
v 0.079919 0.49548 0.005294
v 0.078332 0.49302801 0.005245
v 0.070907 0.46925199 0.011717
v 0.071207 0.472532 0.010447
v 0.071591 0.47611701 0.007752
v 0.071535 0.47615299 0.006405
v 0.071436 0.47649199 0.008614
v 0.077997 0.48408201 -0.008494
v 0.077959 0.486242 -0.007952
v 0.076211 0.481747 -0.009308
v 0.070836 0.476879 -0.009406
v 0.079169 0.48875901 -0.007977
v 0.073678 0.46581399 -0.00331
v 0.074211 0.46572801 0.000471
v 0.072535 0.46604899 -0.007095
v 0.073678 0.46581399 0.00421
v 0.072535 0.46604899 0.007995
v 0.071047 0.466452 -0.010712
v 0.071047 0.466452 0.011612
v 0.068591 0.47291601 -0.013003
v 0.068142 0.46982801 -0.014517
v 0.068551 0.46733201 -0.013999
v 0.070525 0.47627699 -0.010727
v 0.069938 0.47611701 -0.012443
v 0.075023 0.48662499 -0.001162
v 0.077244 0.48686799 0.00047
v 0.076632 0.48940799 -0.000985
v 0.078122 0.490935 -0.000397
v 0.075023 0.48662499 0.002062
v 0.076632 0.48940799 0.001885
v 0.078122 0.490935 0.001297
v 0.078711 0.49164 0.003111
v 0.077555 0.49070099 0.003037
v 0.074291 0.48805299 0.00685
v 0.076325 0.49149299 0.00601
v 0.076599 0.48772499 0.00486
v 0.076079 0.48744401 0.004142
v 0.079704 0.493141 -0.007612
v 0.0743 0.485643 -0.003814
v 0.073587 0.48625901 -0.005724
v 0.074334 0.48803201 -0.007513
v 0.072686 0.48644099 -0.007641
v 0.073934 0.485286 -0.003563
v 0.073936 0.48528501 -0.001557
v 0.075815 0.491723 -0.008182
v 0.078038 0.494627 -0.008714
v 0.078663 0.49434701 -0.00857
v 0.07461 0.48897099 -0.008399
v 0.078556 0.48434401 0.007653
v 0.076741 0.48122099 0.008048
v 0.078538 0.48542801 0.007387
v 0.079904 0.48891801 0.007386
v 0.080395 0.49259099 0.00682
v 0.079945 0.49595699 0.006842
v 0.07751 0.493646 0.008268
v 0.076042 0.49186999 0.007751
v 0.079247 0.49578199 0.007897
v 0.069583 0.46982801 0.015417
v 0.070032 0.47291601 0.013903
v 0.070836 0.476879 0.010306
v 0.070525 0.47627699 0.011627
v 0.069938 0.47611701 0.013343
v 0.069993 0.46733201 0.014899
v 0.076211 0.481747 0.010208
v 0.077685 0.48477399 -0.009332
v 0.077097 0.48800701 -0.00891
v 0.072029 0.480822 -0.011048
v 0.077168 0.48422799 -0.011758
v 0.077216 0.48446801 -0.010186
v 0.078356 0.49204901 -0.008643
v 0.073282 0.46248299 -0.003931
v 0.073351 0.463512 0.000471
v 0.07256 0.46265301 -0.008211
v 0.073282 0.46248299 0.004831
v 0.070873 0.46218199 -0.011834
v 0.07256 0.46265301 0.009111
v 0.070873 0.46218199 0.012734
v 0.068801 0.46446899 -0.014852
v 0.068801 0.46446899 0.015752
v 0.067178 0.47322199 -0.016508
v 0.066828 0.47204 -0.018303
v 0.066956 0.46874499 -0.017333
v 0.068807 0.47684601 -0.014949
v 0.066484 0.465857 -0.017757
v 0.071539 0.48054701 -0.012346
v 0.070765 0.48067099 -0.013377
v 0.074115 0.48519599 0.000469
v 0.073936 0.48528501 0.002457
v 0.073934 0.485286 0.004463
v 0.072686 0.48644099 0.008541
v 0.074334 0.48803201 0.008413
v 0.073587 0.48625901 0.006624
v 0.0743 0.485643 0.004714
v 0.071087 0.48409 -0.006416
v 0.07188 0.482995 -0.00325
v 0.072244 0.48665899 -0.008036
v 0.072034 0.48194101 0.000468
v 0.074271 0.491927 -0.009575
v 0.072632 0.48860899 -0.009333
v 0.076438 0.49387899 -0.009036
v 0.078133 0.49677101 -0.009744
v 0.079199 0.49434599 -0.010191
v 0.078535 0.49586201 -0.011173
v 0.072133 0.48671401 -0.00914
v 0.077997 0.48408201 0.009394
v 0.077959 0.486242 0.008852
v 0.079169 0.48875901 0.008877
v 0.079704 0.493141 0.008512
v 0.075815 0.491723 0.009082
v 0.07461 0.48897099 0.009299
v 0.078038 0.494627 0.009614
v 0.078663 0.49434701 0.00947
v 0.068619 0.47322199 0.017408
v 0.06827 0.47204 0.019203
v 0.068807 0.47684601 0.015849
v 0.068398 0.46874499 0.018233
v 0.072029 0.480822 0.011948
v 0.071539 0.48054701 0.013246
v 0.070765 0.48067099 0.014277
v 0.067926 0.465857 0.018657
v 0.077168 0.48422799 0.012658
v 0.077216 0.48446801 0.011086
v 0.077685 0.48477399 0.010232
v 0.077044 0.48642999 -0.010088
v 0.079156 0.49047199 -0.010362
v 0.077087 0.48587099 -0.011911
v 0.075673 0.48496699 -0.014481
v 0.075674 0.486031 -0.013997
v 0.072231 0.460159 0.00047
v 0.072562 0.46018401 -0.004106
v 0.071638 0.45955399 -0.008735
v 0.072562 0.46018401 0.005006
v 0.069742 0.45991501 -0.012722
v 0.071638 0.45955399 0.009635
v 0.066973 0.46086201 -0.015816
v 0.069742 0.45991501 0.013622
v 0.066973 0.46086201 0.016716
v 0.064431 0.462257 -0.019001
v 0.064431 0.462257 0.019901
v 0.064971 0.470808 -0.019957
v 0.063986 0.47294101 -0.018804
v 0.065417 0.474498 -0.019304
v 0.067142 0.48065901 -0.018145
v 0.064074 0.467002 -0.020587
v 0.07305 0.482243 -0.014778
v 0.071776 0.48367399 -0.015937
v 0.061909 0.46450999 -0.021842
v 0.07188 0.482995 0.00415
v 0.071087 0.48409 0.007316
v 0.072244 0.48665899 0.008936
v 0.062073 0.470496 -0.004544
v 0.061626 0.47294199 -0.007475
v 0.061163 0.47619799 -0.009998
v 0.069694 0.48519099 -0.009418
v 0.061853 0.46989799 0.000466
v 0.062073 0.470496 0.005444
v 0.072584 0.491956 -0.011419
v 0.071739 0.488787 -0.011251
v 0.073883 0.494537 -0.01233
v 0.070648 0.48717299 -0.010758
v 0.07688 0.497334 -0.012057
v 0.077601 0.49749899 -0.010775
v 0.079201 0.49142101 -0.011442
v 0.077638 0.49650499 -0.01284
v 0.077097 0.48800701 0.00981
v 0.078356 0.49204901 0.009543
v 0.072632 0.48860899 0.010233
v 0.072133 0.48671401 0.01004
v 0.074271 0.491927 0.010475
v 0.076438 0.49387899 0.009936
v 0.078133 0.49677101 0.010644
v 0.079199 0.49434599 0.011091
v 0.078535 0.49586201 0.012073
v 0.065417 0.474498 0.020204
v 0.063986 0.47294101 0.019704
v 0.067142 0.48065901 0.019045
v 0.066412 0.470808 0.020857
v 0.07305 0.482243 0.015678
v 0.071776 0.48367399 0.016837
v 0.064074 0.467002 0.021487
v 0.075673 0.48496699 0.015381
v 0.061909 0.46450999 0.022742
v 0.077044 0.48642999 0.010988
v 0.077087 0.48587099 0.012811
v 0.075674 0.486031 0.014897
v 0.078607 0.48852301 -0.011733
v 0.076743 0.48936 -0.013972
v 0.073707 0.486476 -0.015567
v 0.073133 0.489438 -0.01404
v 0.072773 0.48853999 -0.016056
v 0.070499 0.45821801 -0.004958
v 0.070639 0.458224 0.00047
v 0.069156 0.458235 -0.009765
v 0.070499 0.45821801 0.005858
v 0.067061 0.45866799 -0.014055
v 0.069156 0.458235 0.010665
v 0.064485 0.45998499 -0.017698
v 0.067061 0.45866799 0.014955
v 0.061566 0.461465 -0.02085
v 0.064485 0.45998499 0.018598
v 0.061566 0.461465 0.02175
v 0.058492 0.463175 -0.02351
v 0.058492 0.463175 0.02441
v 0.062927 0.47298601 -0.022335
v 0.062531 0.473961 -0.020556
v 0.061639 0.468283 -0.023377
v 0.064986 0.47712001 -0.020918
v 0.067531 0.48255399 -0.020915
v 0.070481 0.484577 -0.017555
v 0.067638 0.48545399 -0.019688
v 0.059289 0.46625099 -0.024803
v 0.072566 0.487039 -0.016766
v 0.055593 0.46523201 -0.026381
v 0.061626 0.47294199 0.008375
v 0.061163 0.47619799 0.010898
v 0.069694 0.48519099 0.010318
v 0.06203 0.46709299 -0.003638
v 0.061255 0.46843401 -0.007346
v 0.060369 0.470337 -0.01047
v 0.062139 0.46567601 0.000466
v 0.060482 0.47983101 -0.01212
v 0.067766 0.486137 -0.012149
v 0.069557 0.48744801 -0.012644
v 0.059367 0.473423 -0.012791
v 0.06203 0.46709299 0.004538
v 0.061255 0.46843401 0.008246
v 0.070842 0.489757 -0.013796
v 0.073095 0.49416199 -0.013385
v 0.072978 0.49299699 -0.014095
v 0.074506 0.494257 -0.014192
v 0.078044 0.49266899 -0.013504
v 0.074475 0.49257401 -0.014266
v 0.079156 0.49047199 0.011262
v 0.070648 0.48717299 0.011658
v 0.071739 0.488787 0.012151
v 0.072584 0.491956 0.012319
v 0.073883 0.494537 0.01323
v 0.07688 0.497334 0.012957
v 0.077601 0.49749899 0.011675
v 0.079201 0.49142101 0.012342
v 0.077638 0.49650499 0.01374
v 0.064986 0.47712001 0.021818
v 0.062531 0.473961 0.021456
v 0.067531 0.48255399 0.021815
v 0.062927 0.47298601 0.023235
v 0.070481 0.484577 0.018455
v 0.067638 0.48545399 0.020588
v 0.061639 0.468283 0.024277
v 0.072566 0.487039 0.017666
v 0.073707 0.486476 0.016467
v 0.059289 0.46625099 0.025703
v 0.055593 0.46523201 0.027281
v 0.078607 0.48852301 0.012633
v 0.076743 0.48936 0.014872
v 0.073133 0.489438 0.01494
v 0.072773 0.48853999 0.016956
v 0.074314 0.491669 -0.016297
v 0.072249 0.48665801 -0.018097
v 0.072299 0.487973 -0.018047
v 0.073825 0.491649 -0.018264
v 0.069078 0.457683 -0.004734
v 0.069223 0.45779201 0.000469
v 0.067864 0.457865 -0.009569
v 0.069078 0.457683 0.005634
v 0.06556 0.45836601 -0.013724
v 0.067864 0.457865 0.010469
v 0.062606 0.45921901 -0.017077
v 0.06556 0.45836601 0.014624
v 0.059505 0.460489 -0.020063
v 0.062606 0.45921901 0.017977
v 0.056366 0.46251699 -0.022553
v 0.059505 0.460489 0.020963
v 0.056366 0.46251699 0.023453
v 0.052081 0.46518701 -0.024957
v 0.052081 0.46518701 0.025857
v 0.060576 0.47213799 -0.025017
v 0.061603 0.47554401 -0.024438
v 0.059174 0.46913001 -0.026041
v 0.062901 0.478212 -0.023573
v 0.05655 0.467971 -0.027587
v 0.064062 0.48400399 -0.024087
v 0.064327 0.486552 -0.022442
v 0.070206 0.48739299 -0.019198
v 0.069132 0.487923 -0.019737
v 0.067916 0.48772201 -0.020969
v 0.051396 0.46754801 -0.028942
v 0.04812 0.46703199 -0.02709
v 0.060369 0.470337 0.01137
v 0.059367 0.473423 0.013691
v 0.060482 0.47983101 0.01302
v 0.067766 0.486137 0.013049
v 0.069557 0.48744801 0.013544
v 0.065355 0.46004501 -0.004668
v 0.064275 0.46027401 -0.008895
v 0.062046 0.46139401 -0.012042
v 0.065667 0.45929101 0.000468
v 0.059475 0.463117 -0.014553
v 0.065355 0.46004501 0.005568
v 0.065311 0.486871 -0.014469
v 0.060656 0.481572 -0.014703
v 0.068681 0.487881 -0.013215
v 0.066552 0.48866901 -0.015203
v 0.057526 0.47617 -0.014956
v 0.069586 0.48903799 -0.013699
v 0.056842 0.46478701 -0.01689
v 0.064275 0.46027401 0.009795
v 0.062046 0.46139401 0.012942
v 0.07099 0.494867 -0.013141
v 0.071417 0.495644 -0.014487
v 0.071755 0.49549299 -0.015196
v 0.069786 0.49224299 -0.013359
v 0.074356 0.495543 -0.016126
v 0.072098 0.496317 -0.015422
v 0.074711 0.49416599 -0.016224
v 0.070842 0.489757 0.014696
v 0.073095 0.49416199 0.014285
v 0.072978 0.49299699 0.014995
v 0.074506 0.494257 0.015092
v 0.078044 0.49266899 0.014404
v 0.074475 0.49257401 0.015166
v 0.061603 0.47554401 0.025338
v 0.062901 0.478212 0.024473
v 0.064062 0.48400399 0.024987
v 0.060576 0.47213799 0.025917
v 0.064327 0.486552 0.023342
v 0.059174 0.46913001 0.026941
v 0.070206 0.48739299 0.020098
v 0.072249 0.48665801 0.018997
v 0.069132 0.487923 0.020637
v 0.067916 0.48772201 0.021869
v 0.05655 0.467971 0.028487
v 0.072299 0.487973 0.018947
v 0.051396 0.46754801 0.029842
v 0.04812 0.46703199 0.02799
v 0.074314 0.491669 0.017197
v 0.073825 0.491649 0.019164
v 0.074574 0.49374801 -0.017796
v 0.070394 0.488913 -0.018705
v 0.072215 0.49261099 -0.018956
v 0.07214 0.49507999 -0.018607
v 0.067745 0.45794299 0.000469
v 0.067977 0.45726901 -0.004657
v 0.067239 0.45713401 -0.009571
v 0.067977 0.45726901 0.005557
v 0.064343 0.45802301 -0.012851
v 0.067239 0.45713401 0.010471
v 0.061402 0.45919999 -0.015896
v 0.064343 0.45802301 0.013751
v 0.058358 0.46060401 -0.018754
v 0.061402 0.45919999 0.016796
v 0.055719 0.462771 -0.021789
v 0.058358 0.46060401 0.019654
v 0.051631 0.46494001 -0.024448
v 0.055719 0.462771 0.022689
v 0.051631 0.46494001 0.025348
v 0.047798 0.467325 -0.026661
v 0.047798 0.467325 0.027561
v 0.059181 0.47614199 -0.027219
v 0.058275 0.473324 -0.027753
v 0.056748 0.47092801 -0.028605
v 0.060451 0.478892 -0.026367
v 0.052651 0.46971899 -0.03004
v 0.047449 0.470036 -0.030949
v 0.060943 0.48446801 -0.027106
v 0.060941 0.48742199 -0.024969
v 0.057634 0.480012 -0.02861
v 0.063781 0.489764 -0.023592
v 0.064764 0.489553 -0.022811
v 0.066334 0.48824 -0.021677
v 0.068718 0.49054301 -0.0178
v 0.067686 0.48945001 -0.020645
v 0.066496 0.48976299 -0.02141
v 0.044167 0.46959999 -0.02911
v 0.043974 0.46981201 -0.028744
v 0.059475 0.463117 0.015453
v 0.056842 0.46478701 0.01779
v 0.057526 0.47617 0.015856
v 0.060656 0.481572 0.015603
v 0.065311 0.486871 0.015369
v 0.068681 0.487881 0.014115
v 0.066552 0.48866901 0.016103
v 0.069586 0.48903799 0.014599
v 0.062452 0.487562 -0.016249
v 0.05732 0.48109499 -0.016506
v 0.065193 0.489604 -0.015468
v 0.062941 0.489113 -0.016158
v 0.066133 0.48887599 -0.015372
v 0.054094 0.476551 -0.016831
v 0.067531 0.49059099 -0.015663
v 0.053315 0.46693 -0.019253
v 0.068154 0.49345601 -0.015155
v 0.068858 0.49557501 -0.015129
v 0.070232 0.49544701 -0.015494
v 0.071384 0.49687701 -0.017332
v 0.073619 0.49587399 -0.017383
v 0.069786 0.49224299 0.014259
v 0.07099 0.494867 0.014041
v 0.071417 0.495644 0.015387
v 0.071755 0.49549299 0.016096
v 0.074356 0.495543 0.017026
v 0.072098 0.496317 0.016322
v 0.074711 0.49416599 0.017124
v 0.059181 0.47614199 0.028119
v 0.060451 0.478892 0.027267
v 0.058275 0.473324 0.028653
v 0.060943 0.48446801 0.028006
v 0.060941 0.48742199 0.025869
v 0.057634 0.480012 0.02951
v 0.056748 0.47092801 0.029505
v 0.063781 0.489764 0.024492
v 0.064764 0.489553 0.023711
v 0.066334 0.48824 0.022577
v 0.052651 0.46971899 0.03094
v 0.070394 0.488913 0.019605
v 0.068718 0.49054301 0.0187
v 0.067686 0.48945001 0.021545
v 0.066496 0.48976299 0.02231
v 0.047449 0.470036 0.031849
v 0.072215 0.49261099 0.019856
v 0.044167 0.46959999 0.03001
v 0.043974 0.46981201 0.029644
v 0.074574 0.49374801 0.018696
v 0.07214 0.49507999 0.019507
v 0.069724 0.49396899 -0.018194
v 0.069062 0.49548399 -0.017161
v 0.050087 0.46781799 -0.021805
v 0.053315 0.46693 0.020153
v 0.046862 0.46967399 -0.024113
v 0.050087 0.46781799 0.022705
v 0.046862 0.46967399 0.025013
v 0.043615 0.472 -0.026072
v 0.043615 0.472 0.026972
v 0.056744 0.478297 -0.029734
v 0.055991 0.475036 -0.030186
v 0.053636 0.47336501 -0.03141
v 0.048864 0.47173101 -0.032047
v 0.043366 0.472462 -0.032733
v 0.040262 0.47223699 -0.031175
v 0.057078 0.48611301 -0.030222
v 0.057757 0.48872101 -0.027278
v 0.057453 0.48179901 -0.030616
v 0.059434 0.49057201 -0.025804
v 0.061332 0.48963401 -0.025137
v 0.063127 0.48954901 -0.024204
v 0.053719 0.480252 -0.03177
v 0.062553 0.49144599 -0.021163
v 0.064552 0.49099699 -0.021383
v 0.069101 0.49376899 -0.020596
v 0.068888 0.495812 -0.019813
v 0.067579 0.49396399 -0.02178
v 0.06603 0.49441001 -0.022044
v 0.040079 0.47232601 -0.030649
v 0.040365 0.474087 -0.02812
v 0.054094 0.476551 0.017731
v 0.05732 0.48109499 0.017406
v 0.062452 0.487562 0.017149
v 0.065193 0.489604 0.016368
v 0.062941 0.489113 0.017058
v 0.066133 0.48887599 0.016272
v 0.067531 0.49059099 0.016563
v 0.068154 0.49345601 0.016055
v 0.059336 0.48824301 -0.017569
v 0.051308 0.47950399 -0.017446
v 0.060146 0.48995501 -0.017857
v 0.061463 0.48930499 -0.016899
v 0.050719 0.47566199 -0.01869
v 0.066706 0.49180001 -0.016427
v 0.067156 0.49157801 -0.016033
v 0.062034 0.49090001 -0.01756
v 0.063396 0.490228 -0.016158
v 0.068567 0.495226 -0.016234
v 0.068858 0.49557501 0.016029
v 0.070232 0.49544701 0.016394
v 0.071384 0.49687701 0.018232
v 0.073619 0.49587399 0.018283
v 0.056744 0.478297 0.030634
v 0.055991 0.475036 0.031086
v 0.053636 0.47336501 0.03231
v 0.057078 0.48611301 0.031122
v 0.057757 0.48872101 0.028178
v 0.059434 0.49057201 0.026704
v 0.061332 0.48963401 0.026037
v 0.063127 0.48954901 0.025104
v 0.057453 0.48179901 0.031516
v 0.053719 0.480252 0.03267
v 0.048864 0.47173101 0.032947
v 0.064552 0.49099699 0.022283
v 0.062553 0.49144599 0.022063
v 0.043366 0.472462 0.033633
v 0.069724 0.49396899 0.019094
v 0.069101 0.49376899 0.021496
v 0.068888 0.495812 0.020713
v 0.067579 0.49396399 0.02268
v 0.06603 0.49441001 0.022944
v 0.040262 0.47223699 0.032075
v 0.040079 0.47232601 0.031549
v 0.040365 0.474087 0.02902
v 0.069062 0.49548399 0.018061
v 0.06683 0.497464 -0.018632
v 0.068182 0.49734601 -0.019223
v 0.066737 0.496288 -0.017118
v 0.066533 0.49661899 -0.015965
v 0.047563 0.47553501 -0.021061
v 0.050719 0.47566199 0.01959
v 0.044477 0.476511 -0.023392
v 0.047563 0.47553501 0.021961
v 0.044477 0.476511 0.024292
v 0.041392 0.478439 -0.025097
v 0.041392 0.478439 0.025997
v 0.052668 0.477292 -0.032525
v 0.050566 0.47556001 -0.033688
v 0.044947 0.473483 -0.033924
v 0.039266 0.47437599 -0.03484
v 0.03649 0.47449499 -0.033795
v 0.03615 0.47447899 -0.032725
v 0.053306 0.49091899 -0.028974
v 0.053076 0.48889199 -0.032159
v 0.054629 0.483789 -0.032585
v 0.051922 0.486054 -0.034348
v 0.057169 0.49115199 -0.026221
v 0.055485 0.49198401 -0.026685
v 0.053088 0.48207301 -0.033897
v 0.059262 0.49226999 -0.024819
v 0.061404 0.49093801 -0.02487
v 0.057373 0.492127 -0.025752
v 0.062529 0.49092001 -0.023647
v 0.04947 0.47887301 -0.034538
v 0.063969 0.49509501 -0.021364
v 0.063788 0.494937 -0.024258
v 0.063599 0.49647999 -0.0235
v 0.067547 0.496903 -0.020746
v 0.066205 0.49774501 -0.018785
v 0.065396 0.49713001 -0.021187
v 0.063887 0.49707901 -0.021266
v 0.037122 0.47660699 -0.029858
v 0.040363 0.480993 -0.026436
v 0.051308 0.47950399 0.018346
v 0.059336 0.48824301 0.018469
v 0.060146 0.48995501 0.018757
v 0.061463 0.48930499 0.017799
v 0.062034 0.49090001 0.01846
v 0.063396 0.490228 0.017058
v 0.066706 0.49180001 0.017327
v 0.067156 0.49157801 0.016933
v 0.068567 0.495226 0.017134
v 0.056113 0.48885801 -0.018623
v 0.047818 0.47871801 -0.01891
v 0.056102 0.49007499 -0.019231
v 0.057609 0.48986799 -0.018274
v 0.060845 0.49121299 -0.018316
v 0.058756 0.491707 -0.018982
v 0.066848 0.495998 -0.015127
v 0.062715 0.49541801 -0.016752
v 0.064587 0.49432799 -0.015424
v 0.063303 0.49685201 -0.019202
v 0.052668 0.477292 0.033425
v 0.050566 0.47556001 0.034588
v 0.044947 0.473483 0.034824
v 0.053306 0.49091899 0.029874
v 0.053076 0.48889199 0.033059
v 0.057169 0.49115199 0.027121
v 0.055485 0.49198401 0.027585
v 0.054629 0.483789 0.033485
v 0.051922 0.486054 0.035248
v 0.062529 0.49092001 0.024547
v 0.061404 0.49093801 0.02577
v 0.059262 0.49226999 0.025719
v 0.057373 0.492127 0.026652
v 0.053088 0.48207301 0.034797
v 0.04947 0.47887301 0.035438
v 0.039266 0.47437599 0.03574
v 0.063969 0.49509501 0.022264
v 0.063788 0.494937 0.025158
v 0.063599 0.49647999 0.0244
v 0.03649 0.47449499 0.034695
v 0.06683 0.497464 0.019532
v 0.068182 0.49734601 0.020123
v 0.067547 0.496903 0.021646
v 0.066205 0.49774501 0.019685
v 0.065396 0.49713001 0.022087
v 0.063887 0.49707901 0.022166
v 0.03615 0.47447899 0.033625
v 0.037122 0.47660699 0.030758
v 0.040363 0.480993 0.027336
v 0.066737 0.496288 0.018018
v 0.066533 0.49661899 0.016865
v 0.06573 0.49698001 -0.017874
v 0.065276 0.49718401 -0.016253
v 0.044511 0.47963601 -0.020101
v 0.047818 0.47871801 0.01981
v 0.043895 0.482685 -0.020993
v 0.044511 0.47963601 0.021001
v 0.043895 0.482685 0.021893
v 0.040894 0.48515999 -0.022183
v 0.040894 0.48515999 0.023083
v 0.046709 0.47648701 -0.035268
v 0.041115 0.47590801 -0.035415
v 0.035349 0.47689599 -0.036892
v 0.03287 0.47715399 -0.036475
v 0.032268 0.47706801 -0.034593
v 0.033872 0.47909799 -0.031596
v 0.049123 0.493523 -0.033804
v 0.050339 0.49346 -0.029687
v 0.049377 0.48890799 -0.035567
v 0.052805 0.49278 -0.02728
v 0.051708 0.49332201 -0.028044
v 0.053519 0.49269101 -0.027135
v 0.050302 0.484667 -0.035819
v 0.047337 0.48768601 -0.03679
v 0.055448 0.493341 -0.025508
v 0.054647 0.49373701 -0.025411
v 0.04629 0.48081499 -0.036253
v 0.062421 0.494333 -0.025265
v 0.060942 0.49499699 -0.025755
v 0.058266 0.49522001 -0.026372
v 0.056274 0.496115 -0.025902
v 0.043524 0.479206 -0.036523
v 0.062479 0.49747199 -0.024231
v 0.062924 0.497022 -0.022958
v 0.062026 0.497426 -0.023738
v 0.0645 0.49753201 -0.019961
v 0.064134 0.496479 -0.019083
v 0.062925 0.496782 -0.020065
v 0.037607 0.48394799 -0.027688
v 0.038323 0.48803201 -0.023507
v 0.056113 0.48885801 0.019523
v 0.056102 0.49007499 0.020131
v 0.057609 0.48986799 0.019174
v 0.058756 0.491707 0.019882
v 0.060845 0.49121299 0.019216
v 0.063303 0.49685201 0.020102
v 0.062715 0.49541801 0.017652
v 0.064587 0.49432799 0.016324
v 0.066848 0.495998 0.016027
v 0.052837 0.48945999 -0.019469
v 0.054601 0.490816 -0.019938
v 0.056813 0.492403 -0.019206
v 0.055688 0.492421 -0.02043
v 0.05996 0.49397001 -0.017878
v 0.058194 0.49452299 -0.018343
v 0.063885 0.49707901 -0.017235
v 0.061784 0.498272 -0.018764
v 0.060667 0.498285 -0.019989
v 0.046709 0.47648701 0.036168
v 0.041115 0.47590801 0.036315
v 0.035349 0.47689599 0.037792
v 0.049123 0.493523 0.034704
v 0.050339 0.49346 0.030587
v 0.052805 0.49278 0.02818
v 0.051708 0.49332201 0.028944
v 0.053519 0.49269101 0.028035
v 0.049377 0.48890799 0.036467
v 0.055448 0.493341 0.026408
v 0.054647 0.49373701 0.026311
v 0.050302 0.484667 0.036719
v 0.047337 0.48768601 0.03769
v 0.062421 0.494333 0.026165
v 0.060942 0.49499699 0.026655
v 0.058266 0.49522001 0.027272
v 0.056274 0.496115 0.026802
v 0.04629 0.48081499 0.037153
v 0.043524 0.479206 0.037423
v 0.03287 0.47715399 0.037375
v 0.062479 0.49747199 0.025131
v 0.062924 0.497022 0.023858
v 0.062026 0.497426 0.024638
v 0.032268 0.47706801 0.035493
v 0.06573 0.49698001 0.018774
v 0.0645 0.49753201 0.020861
v 0.064134 0.496479 0.019983
v 0.062925 0.496782 0.020965
v 0.033872 0.47909799 0.032496
v 0.037607 0.48394799 0.028588
v 0.038323 0.48803201 0.024407
v 0.065276 0.49718401 0.017153
v 0.049532 0.49011499 -0.020152
v 0.052837 0.48945999 0.020369
v 0.046242 0.490848 -0.020918
v 0.049532 0.49011499 0.021052
v 0.046242 0.490848 0.021818
v 0.043067 0.49178401 -0.021933
v 0.043067 0.49178401 0.022833
v 0.037432 0.478452 -0.037114
v 0.031481 0.47896299 -0.039383
v 0.028822 0.479283 -0.038636
v 0.028485 0.47917101 -0.037036
v 0.030592 0.481507 -0.033398
v 0.033528 0.48736 -0.028691
v 0.045291 0.49783099 -0.031453
v 0.045738 0.498137 -0.034839
v 0.047063 0.49223799 -0.03628
v 0.046537 0.49667701 -0.029391
v 0.048031 0.495401 -0.028925
v 0.049739 0.49455801 -0.028235
v 0.043786 0.489811 -0.037648
v 0.052667 0.49391299 -0.026101
v 0.051548 0.49446601 -0.027083
v 0.049554 0.494385 -0.027105
v 0.05335 0.494652 -0.025022
v 0.044994 0.483044 -0.036942
v 0.041614 0.48527199 -0.038279
v 0.055607 0.496654 -0.025361
v 0.054128 0.496838 -0.024086
v 0.041766 0.48105901 -0.037743
v 0.060752 0.49702901 -0.024745
v 0.059135 0.49750599 -0.025678
v 0.056979 0.49750501 -0.025241
v 0.03386 0.480791 -0.039268
v 0.060237 0.497989 -0.02443
v 0.060764 0.49677399 -0.021634
v 0.058814 0.49691999 -0.022099
v 0.057359 0.49708501 -0.022614
v 0.036243 0.49118 -0.025197
v 0.040178 0.49318999 -0.023222
v 0.054601 0.490816 0.020838
v 0.056813 0.492403 0.020106
v 0.055688 0.492421 0.02133
v 0.058194 0.49452299 0.019243
v 0.05996 0.49397001 0.018778
v 0.061784 0.498272 0.019664
v 0.060667 0.498285 0.020889
v 0.063885 0.49707901 0.018135
v 0.050954 0.492881 -0.020602
v 0.05302 0.49239799 -0.020162
v 0.05462 0.49348599 -0.020727
v 0.056655 0.49570301 -0.019252
v 0.054626 0.497583 -0.020749
v 0.058623 0.49798399 -0.019576
v 0.05667 0.49861199 -0.019791
v 0.037432 0.478452 0.038014
v 0.031481 0.47896299 0.040283
v 0.028822 0.479283 0.039536
v 0.045291 0.49783099 0.032353
v 0.045738 0.498137 0.035739
v 0.046537 0.49667701 0.030291
v 0.048031 0.495401 0.029825
v 0.049739 0.49455801 0.029135
v 0.047063 0.49223799 0.03718
v 0.052667 0.49391299 0.027001
v 0.05335 0.494652 0.025922
v 0.051548 0.49446601 0.027983
v 0.049554 0.494385 0.028005
v 0.043786 0.489811 0.038548
v 0.055607 0.496654 0.026261
v 0.054128 0.496838 0.024986
v 0.044994 0.483044 0.037842
v 0.041614 0.48527199 0.039179
v 0.060752 0.49702901 0.025645
v 0.059135 0.49750599 0.026578
v 0.056979 0.49750501 0.026141
v 0.041766 0.48105901 0.038643
v 0.03386 0.480791 0.040168
v 0.028485 0.47917101 0.037936
v 0.060237 0.497989 0.02533
v 0.060764 0.49677399 0.022534
v 0.058814 0.49691999 0.022999
v 0.057359 0.49708501 0.023514
v 0.030592 0.481507 0.034298
v 0.033528 0.48736 0.029591
v 0.036243 0.49118 0.026097
v 0.040178 0.49318999 0.024122
v 0.048263 0.49340799 -0.020309
v 0.050954 0.492881 0.021502
v 0.05302 0.49239799 0.021062
v 0.043003 0.49546799 -0.022158
v 0.045774 0.493572 -0.021169
v 0.048263 0.49340799 0.021209
v 0.043003 0.49546799 0.023058
v 0.045774 0.493572 0.022069
v 0.027643 0.48103899 -0.041632
v 0.024691 0.480802 -0.040897
v 0.024562 0.481089 -0.039417
v 0.027293 0.48389 -0.035219
v 0.031317 0.49085 -0.030014
v 0.032368 0.49337399 -0.027689
v 0.041091 0.50230998 -0.032631
v 0.043315 0.50255102 -0.03531
v 0.045119 0.49590099 -0.036566
v 0.043704 0.499823 -0.036644
v 0.04269 0.49937901 -0.029789
v 0.040281 0.50164402 -0.031019
v 0.045236 0.497583 -0.029002
v 0.040058 0.491519 -0.038881
v 0.045482 0.49665901 -0.025932
v 0.044768 0.49727601 -0.02785
v 0.047423 0.49516299 -0.027087
v 0.038233 0.48739901 -0.039701
v 0.053635 0.49680999 -0.026053
v 0.052244 0.49670601 -0.027035
v 0.050428 0.497522 -0.026815
v 0.04823 0.49801901 -0.02657
v 0.037984 0.48282599 -0.039302
v 0.032697 0.48492399 -0.040882
v 0.055481 0.49792799 -0.02507
v 0.056989 0.498469 -0.024749
v 0.054585 0.49833 -0.023844
v 0.053154 0.49971101 -0.024535
v 0.030161 0.48282 -0.04139
v 0.058294 0.498622 -0.024654
v 0.023529 0.48324299 -0.043368
v 0.057078 0.498678 -0.020726
v 0.054761 0.49777201 -0.02232
v 0.037385 0.494773 -0.024635
v 0.039017 0.49663401 -0.022596
v 0.040558 0.49614799 -0.022332
v 0.05462 0.49348599 0.021627
v 0.054626 0.497583 0.021649
v 0.056655 0.49570301 0.020152
v 0.05667 0.49861199 0.020691
v 0.058623 0.49798399 0.020476
v 0.051254 0.49461001 -0.019892
v 0.048502 0.49570501 -0.020018
v 0.051988 0.496663 -0.018764
v 0.053207 0.49821901 -0.01857
v 0.053059 0.499015 -0.020754
v 0.027643 0.48103899 0.042532
v 0.024691 0.480802 0.041797
v 0.024562 0.481089 0.040317
v 0.041091 0.50230998 0.033531
v 0.043315 0.50255102 0.03621
v 0.04269 0.49937901 0.030689
v 0.040281 0.50164402 0.031919
v 0.045236 0.497583 0.029902
v 0.045119 0.49590099 0.037466
v 0.043704 0.499823 0.037544
v 0.047423 0.49516299 0.027987
v 0.045482 0.49665901 0.026832
v 0.044768 0.49727601 0.02875
v 0.040058 0.491519 0.039781
v 0.053635 0.49680999 0.026953
v 0.052244 0.49670601 0.027935
v 0.050428 0.497522 0.027715
v 0.04823 0.49801901 0.02747
v 0.038233 0.48739901 0.040601
v 0.055481 0.49792799 0.02597
v 0.056989 0.498469 0.025649
v 0.054585 0.49833 0.024744
v 0.053154 0.49971101 0.025435
v 0.037984 0.48282599 0.040202
v 0.032697 0.48492399 0.041782
v 0.058294 0.498622 0.025554
v 0.030161 0.48282 0.04229
v 0.023529 0.48324299 0.044268
v 0.027293 0.48389 0.036119
v 0.057078 0.498678 0.021626
v 0.054761 0.49777201 0.02322
v 0.031317 0.49085 0.030914
v 0.032368 0.49337399 0.028589
v 0.037385 0.494773 0.025535
v 0.039017 0.49663401 0.023496
v 0.040558 0.49614799 0.023232
v 0.046281 0.49546301 -0.021371
v 0.048502 0.49570501 0.020918
v 0.051254 0.49461001 0.020792
v 0.041127 0.496932 -0.022357
v 0.044536 0.49712601 -0.023133
v 0.046281 0.49546301 0.022271
v 0.041127 0.496932 0.023257
v 0.044536 0.49712601 0.024033
v 0.020415 0.48309499 -0.042339
v 0.020443 0.48356399 -0.040792
v 0.024184 0.48690099 -0.036407
v 0.02872 0.49206299 -0.032744
v 0.029833 0.49509999 -0.030294
v 0.033029 0.49609801 -0.026409
v 0.041081 0.50794703 -0.03553
v 0.037737 0.508259 -0.033842
v 0.042035 0.50808299 -0.037031
v 0.042842 0.50394303 -0.036729
v 0.038407 0.50417298 -0.030725
v 0.037522 0.506751 -0.032536
v 0.037454 0.49472001 -0.040034
v 0.033737 0.49854901 -0.041107
v 0.039107 0.500884 -0.030034
v 0.037586 0.501899 -0.029839
v 0.042309 0.49902901 -0.029765
v 0.033443 0.49013999 -0.040932
v 0.045994 0.49878299 -0.025641
v 0.045391 0.50002301 -0.02709
v 0.042595 0.50127798 -0.028538
v 0.029309 0.487524 -0.04202
v 0.052074 0.49921799 -0.025566
v 0.050884 0.49926299 -0.025444
v 0.048804 0.500925 -0.024481
v 0.046179 0.49991801 -0.024262
v 0.026073 0.484263 -0.043354
v 0.02244 0.48667401 -0.044593
v 0.052707 0.49991199 -0.022914
v 0.051656 0.49989399 -0.023477
v 0.019157 0.48537999 -0.044512
v 0.016732 0.48660299 -0.043331
v 0.051982 0.49853 -0.021786
v 0.03736 0.49718899 -0.023973
v 0.039326 0.49996299 -0.021152
v 0.041817 0.49980801 -0.020292
v 0.051988 0.496663 0.019664
v 0.053207 0.49821901 0.01947
v 0.053059 0.499015 0.021654
v 0.048936 0.49697199 -0.018865
v 0.050323 0.498546 -0.019382
v 0.050118 0.49838901 -0.020486
v 0.020415 0.48309499 0.043239
v 0.020443 0.48356399 0.041692
v 0.024184 0.48690099 0.037307
v 0.041081 0.50794703 0.03643
v 0.037737 0.508259 0.034742
v 0.038407 0.50417298 0.031625
v 0.037522 0.506751 0.033436
v 0.042035 0.50808299 0.037931
v 0.042842 0.50394303 0.037629
v 0.042309 0.49902901 0.030665
v 0.039107 0.500884 0.030934
v 0.037586 0.501899 0.030739
v 0.037454 0.49472001 0.040934
v 0.033737 0.49854901 0.042007
v 0.045994 0.49878299 0.026541
v 0.045391 0.50002301 0.02799
v 0.042595 0.50127798 0.029438
v 0.033443 0.49013999 0.041832
v 0.052074 0.49921799 0.026466
v 0.050884 0.49926299 0.026344
v 0.048804 0.500925 0.025381
v 0.046179 0.49991801 0.025162
v 0.029309 0.487524 0.04292
v 0.052707 0.49991199 0.023814
v 0.051656 0.49989399 0.024377
v 0.026073 0.484263 0.044254
v 0.02244 0.48667401 0.045493
v 0.019157 0.48537999 0.045412
v 0.016732 0.48660299 0.044231
v 0.02872 0.49206299 0.033644
v 0.051982 0.49853 0.022686
v 0.029833 0.49509999 0.031194
v 0.033029 0.49609801 0.027309
v 0.03736 0.49718899 0.024873
v 0.039326 0.49996299 0.022052
v 0.041817 0.49980801 0.021192
v 0.046845 0.498889 -0.019015
v 0.048936 0.49697199 0.019765
v 0.044932 0.49877 -0.022181
v 0.046845 0.498889 0.019915
v 0.044932 0.49877 0.023081
v 0.016973 0.48726299 -0.041534
v 0.021329 0.49056399 -0.036787
v 0.026189 0.49432901 -0.03477
v 0.027802 0.49763501 -0.032469
v 0.031386 0.49778301 -0.028961
v 0.034522 0.50367498 -0.028787
v 0.038741 0.51498902 -0.036121
v 0.040563 0.51596701 -0.036485
v 0.041406 0.51221699 -0.037459
v 0.036756 0.50927103 -0.033253
v 0.036678 0.51172501 -0.034033
v 0.032845 0.50293499 -0.041958
v 0.035666 0.50725901 -0.041544
v 0.034159 0.50059098 -0.027267
v 0.034066 0.506854 -0.031066
v 0.033615 0.50975698 -0.032467
v 0.030967 0.49350199 -0.042027
v 0.029821 0.49768201 -0.043217
v 0.040224 0.50259101 -0.028688
v 0.038225 0.50300002 -0.028468
v 0.026745 0.49109399 -0.042841
v 0.045377 0.50124598 -0.025687
v 0.043071 0.50253099 -0.027183
v 0.04079 0.503555 -0.027584
v 0.020046 0.49133 -0.044645
v 0.050781 0.500287 -0.02404
v 0.048871 0.50089502 -0.02382
v 0.045863 0.50005901 -0.023334
v 0.044685 0.50253499 -0.023992
v 0.044143 0.5018 -0.023751
v 0.016075 0.48974699 -0.044369
v 0.014544 0.49503899 -0.044054
v 0.05016 0.49836999 -0.022058
v 0.014505 0.491611 -0.043457
v 0.014485 0.492035 -0.042025
v 0.037573 0.49922499 -0.023021
v 0.038042 0.501863 -0.021794
v 0.040236 0.501118 -0.021152
v 0.042817 0.50117701 -0.020292
v 0.050323 0.498546 0.020282
v 0.050118 0.49838901 0.021386
v 0.048176 0.50047803 -0.019967
v 0.04869 0.50024801 -0.020927
v 0.048483 0.499612 -0.022272
v 0.016973 0.48726299 0.042434
v 0.021329 0.49056399 0.037687
v 0.026189 0.49432901 0.03567
v 0.038741 0.51498902 0.037021
v 0.040563 0.51596701 0.037385
v 0.036756 0.50927103 0.034153
v 0.036678 0.51172501 0.034933
v 0.041406 0.51221699 0.038359
v 0.034522 0.50367498 0.029687
v 0.034066 0.506854 0.031966
v 0.033615 0.50975698 0.033367
v 0.034159 0.50059098 0.028167
v 0.032845 0.50293499 0.042858
v 0.035666 0.50725901 0.042444
v 0.040224 0.50259101 0.029588
v 0.038225 0.50300002 0.029368
v 0.030967 0.49350199 0.042927
v 0.029821 0.49768201 0.044117
v 0.045377 0.50124598 0.026587
v 0.043071 0.50253099 0.028083
v 0.04079 0.503555 0.028484
v 0.026745 0.49109399 0.043741
v 0.050781 0.500287 0.02494
v 0.048871 0.50089502 0.02472
v 0.045863 0.50005901 0.024234
v 0.044685 0.50253499 0.024892
v 0.044143 0.5018 0.024651
v 0.020046 0.49133 0.045545
v 0.05016 0.49836999 0.022958
v 0.016075 0.48974699 0.045269
v 0.014544 0.49503899 0.044954
v 0.014505 0.491611 0.044357
v 0.014485 0.492035 0.042925
v 0.027802 0.49763501 0.033369
v 0.031386 0.49778301 0.029861
v 0.037573 0.49922499 0.023921
v 0.038042 0.501863 0.022694
v 0.040236 0.501118 0.022052
v 0.042817 0.50117701 0.021192
v 0.042439 0.501836 -0.02179
v 0.042858 0.50042999 -0.023234
v 0.048176 0.50047803 0.020867
v 0.042439 0.501836 0.02269
v 0.042858 0.50042999 0.024134
v 0.04869 0.50024801 0.021827
v 0.048483 0.499612 0.023172
v 0.019754 0.494966 -0.037353
v 0.024664 0.49838001 -0.035286
v 0.026587 0.501405 -0.03388
v 0.030508 0.500848 -0.030747
v 0.031286 0.50427097 -0.032001
v 0.042267 0.52343702 -0.037466
v 0.039469 0.52186501 -0.037029
v 0.041524 0.51642901 -0.037695
v 0.042024 0.52064902 -0.037858
v 0.036344 0.51617301 -0.035611
v 0.037119 0.51900703 -0.03669
v 0.036182 0.514386 -0.03499
v 0.037052 0.51154703 -0.041171
v 0.033538 0.51167202 -0.033498
v 0.033323 0.51392001 -0.034721
v 0.028489 0.50185698 -0.044103
v 0.029897 0.506405 -0.044688
v 0.036091 0.50225103 -0.025153
v 0.030608 0.507541 -0.033522
v 0.030169 0.51078898 -0.035241
v 0.025911 0.49570999 -0.044135
v 0.02504 0.50035101 -0.044871
v 0.03808 0.50428301 -0.026379
v 0.018424 0.49657199 -0.0445
v 0.042043 0.50299197 -0.025271
v 0.040703 0.50408298 -0.026204
v 0.014595 0.50065601 -0.04421
v 0.040724 0.50065899 -0.023457
v 0.013313 0.49709201 -0.043617
v 0.012939 0.50274199 -0.043521
v 0.012804 0.497201 -0.041934
v 0.018915 0.49978101 -0.037566
v 0.038041 0.50259298 -0.02243
v 0.039695 0.50136101 -0.024439
v 0.019754 0.494966 0.038253
v 0.024664 0.49838001 0.036186
v 0.026587 0.501405 0.03478
v 0.042267 0.52343702 0.038366
v 0.039469 0.52186501 0.037929
v 0.036344 0.51617301 0.036511
v 0.037119 0.51900703 0.03759
v 0.036182 0.514386 0.03589
v 0.041524 0.51642901 0.038595
v 0.042024 0.52064902 0.038758
v 0.033538 0.51167202 0.034398
v 0.033323 0.51392001 0.035621
v 0.037052 0.51154703 0.042071
v 0.031286 0.50427097 0.032901
v 0.030508 0.500848 0.031647
v 0.030608 0.507541 0.034422
v 0.030169 0.51078898 0.036141
v 0.036091 0.50225103 0.026053
v 0.028489 0.50185698 0.045003
v 0.029897 0.506405 0.045588
v 0.03808 0.50428301 0.027279
v 0.025911 0.49570999 0.045035
v 0.02504 0.50035101 0.045771
v 0.042043 0.50299197 0.026171
v 0.040703 0.50408298 0.027104
v 0.018424 0.49657199 0.0454
v 0.040724 0.50065899 0.024357
v 0.014595 0.50065601 0.04511
v 0.013313 0.49709201 0.044517
v 0.012939 0.50274199 0.044421
v 0.012804 0.497201 0.042834
v 0.018915 0.49978101 0.038466
v 0.038041 0.50259298 0.02333
v 0.039695 0.50136101 0.025339
v 0.023657 0.50266099 -0.035863
v 0.026161 0.50516403 -0.034555
v 0.025527 0.50934798 -0.035254
v 0.041075 0.527771 -0.037616
v 0.043982 0.53008997 -0.037593
v 0.043586 0.52890003 -0.038339
v 0.042673 0.52481103 -0.038066
v 0.037838 0.52213299 -0.037302
v 0.039523 0.52639502 -0.037745
v 0.038376 0.51586199 -0.040572
v 0.03894 0.52014899 -0.040867
v 0.033342 0.51765501 -0.037033
v 0.033153 0.515607 -0.035752
v 0.03358 0.51915199 -0.038113
v 0.029754 0.51092303 -0.04479
v 0.029835 0.51412803 -0.03683
v 0.025653 0.50501001 -0.045713
v 0.024736 0.50970399 -0.046229
v 0.036591 0.50324398 -0.02471
v 0.02546 0.51321399 -0.036932
v 0.025144 0.51704103 -0.038904
v 0.018822 0.50154901 -0.044983
v 0.021607 0.50644302 -0.045964
v 0.037874 0.50364602 -0.025719
v 0.017267 0.50579798 -0.045123
v 0.039869 0.50371897 -0.025688
v 0.013556 0.50837499 -0.04382
v 0.012562 0.50272697 -0.041674
v 0.013029 0.508268 -0.041673
v 0.018517 0.50432599 -0.03734
v 0.024748 0.50637901 -0.038
v 0.038399 0.50243199 -0.024929
v 0.023657 0.50266099 0.036763
v 0.026161 0.50516403 0.035455
v 0.041075 0.527771 0.038516
v 0.043982 0.53008997 0.038493
v 0.037838 0.52213299 0.038202
v 0.039523 0.52639502 0.038645
v 0.043586 0.52890003 0.039239
v 0.042673 0.52481103 0.038966
v 0.033153 0.515607 0.036652
v 0.033342 0.51765501 0.037933
v 0.03358 0.51915199 0.039013
v 0.038376 0.51586199 0.041472
v 0.03894 0.52014899 0.041767
v 0.029835 0.51412803 0.03773
v 0.029754 0.51092303 0.04569
v 0.025527 0.50934798 0.036154
v 0.02546 0.51321399 0.037832
v 0.025144 0.51704103 0.039804
v 0.036591 0.50324398 0.02561
v 0.025653 0.50501001 0.046613
v 0.024736 0.50970399 0.047129
v 0.037874 0.50364602 0.026619
v 0.018822 0.50154901 0.045883
v 0.021607 0.50644302 0.046864
v 0.039869 0.50371897 0.026588
v 0.017267 0.50579798 0.046023
v 0.013556 0.50837499 0.04472
v 0.012562 0.50272697 0.042574
v 0.013029 0.508268 0.042573
v 0.018517 0.50432599 0.03824
v 0.024748 0.50637901 0.0389
v 0.038399 0.50243199 0.025829
v 0.023379 0.51011801 -0.038991
v 0.042927 0.53382802 -0.03867
v 0.044479 0.53386301 -0.038157
v 0.044765 0.53292 -0.038673
v 0.04098 0.53451502 -0.038894
v 0.038799 0.52461702 -0.041822
v 0.039651 0.52901202 -0.041443
v 0.033725 0.52095801 -0.038942
v 0.034325 0.523341 -0.040022
v 0.029711 0.51541001 -0.04457
v 0.029849 0.51996702 -0.044747
v 0.0293 0.51725203 -0.038631
v 0.028671 0.52010298 -0.040797
v 0.024178 0.514489 -0.04632
v 0.023815 0.52048898 -0.040733
v 0.021697 0.51167399 -0.046573
v 0.020576 0.51676899 -0.046945
v 0.021245 0.513861 -0.039614
v 0.019065 0.517452 -0.040631
v 0.017736 0.51124299 -0.046195
v 0.016081 0.51652998 -0.046569
v 0.013597 0.51395297 -0.044767
v 0.01234 0.51356602 -0.042907
v 0.016573 0.50849402 -0.038424
v 0.014502 0.51247901 -0.040258
v 0.042927 0.53382802 0.03957
v 0.044479 0.53386301 0.039057
v 0.04098 0.53451502 0.039794
v 0.044765 0.53292 0.039573
v 0.033725 0.52095801 0.039842
v 0.034325 0.523341 0.040922
v 0.038799 0.52461702 0.042722
v 0.039651 0.52901202 0.042343
v 0.0293 0.51725203 0.039531
v 0.028671 0.52010298 0.041697
v 0.029711 0.51541001 0.04547
v 0.029849 0.51996702 0.045647
v 0.023815 0.52048898 0.041633
v 0.024178 0.514489 0.04722
v 0.023379 0.51011801 0.039891
v 0.021245 0.513861 0.040514
v 0.019065 0.517452 0.041531
v 0.021697 0.51167399 0.047473
v 0.020576 0.51676899 0.047845
v 0.017736 0.51124299 0.047095
v 0.016081 0.51652998 0.047469
v 0.013597 0.51395297 0.045667
v 0.01234 0.51356602 0.043807
v 0.016573 0.50849402 0.039324
v 0.014502 0.51247901 0.041158
v 0.045447 0.53820598 -0.038744
v 0.045389 0.53715903 -0.039679
v 0.043984 0.53838998 -0.039258
v 0.042239 0.53898799 -0.039506
v 0.042059 0.53478402 -0.041008
v 0.038309 0.53423101 -0.039754
v 0.029836 0.52448201 -0.044442
v 0.035322 0.53302801 -0.044194
v 0.028399 0.523022 -0.042991
v 0.031526 0.52472299 -0.043485
v 0.026679 0.52577698 -0.044519
v 0.024702 0.51936197 -0.046389
v 0.023529 0.52384198 -0.045848
v 0.021284 0.52315599 -0.042536
v 0.019423 0.526591 -0.04401
v 0.018671 0.52160901 -0.047621
v 0.017493 0.52146798 -0.041441
v 0.015015 0.52188802 -0.047615
v 0.014158 0.52724099 -0.04913
v 0.012718 0.51652402 -0.042141
v 0.012149 0.52123398 -0.0428
v 0.012825 0.51947498 -0.045671
v 0.012534 0.524647 -0.047688
v 0.011585 0.51885003 -0.044201
v 0.043984 0.53838998 0.040158
v 0.042239 0.53898799 0.040406
v 0.045447 0.53820598 0.039644
v 0.045389 0.53715903 0.040579
v 0.038309 0.53423101 0.040654
v 0.042059 0.53478402 0.041908
v 0.028399 0.523022 0.043891
v 0.031526 0.52472299 0.044385
v 0.026679 0.52577698 0.045419
v 0.029836 0.52448201 0.045342
v 0.035322 0.53302801 0.045094
v 0.021284 0.52315599 0.043436
v 0.019423 0.526591 0.04491
v 0.024702 0.51936197 0.047289
v 0.023529 0.52384198 0.046748
v 0.017493 0.52146798 0.042341
v 0.018671 0.52160901 0.048521
v 0.012718 0.51652402 0.043041
v 0.012149 0.52123398 0.0437
v 0.015015 0.52188802 0.048515
v 0.014158 0.52724099 0.05003
v 0.012825 0.51947498 0.046571
v 0.012534 0.524647 0.048588
v 0.011585 0.51885003 0.045101
v 0.044966 0.54058498 -0.040613
v 0.044923 0.54140699 -0.039677
v 0.043464 0.541601 -0.04019
v 0.041032 0.53984898 -0.042253
v 0.041694 0.54166198 -0.040907
v 0.029935 0.52925402 -0.045602
v 0.033593 0.53307998 -0.044466
v 0.037309 0.540084 -0.043434
v 0.026356 0.52780402 -0.045969
v 0.023437 0.527906 -0.046119
v 0.017098 0.52996999 -0.044717
v 0.018295 0.52670097 -0.048106
v 0.020256 0.52894902 -0.047542
v 0.015441 0.52529699 -0.041886
v 0.014604 0.529324 -0.040918
v 0.015267 0.53167701 -0.051397
v 0.011727 0.52604902 -0.042133
v 0.012356 0.53004801 -0.04922
v 0.012274 0.53475899 -0.052086
v 0.010396 0.52421999 -0.044622
v 0.008781 0.52939898 -0.044217
v 0.041694 0.54166198 0.041807
v 0.043464 0.541601 0.04109
v 0.044923 0.54140699 0.040577
v 0.044966 0.54058498 0.041513
v 0.041032 0.53984898 0.043153
v 0.029935 0.52925402 0.046502
v 0.033593 0.53307998 0.045366
v 0.037309 0.540084 0.044334
v 0.017098 0.52996999 0.045617
v 0.026356 0.52780402 0.046869
v 0.023437 0.527906 0.047019
v 0.015441 0.52529699 0.042786
v 0.014604 0.529324 0.041818
v 0.018295 0.52670097 0.049006
v 0.020256 0.52894902 0.048442
v 0.011727 0.52604902 0.043033
v 0.015267 0.53167701 0.052297
v 0.010396 0.52421999 0.045522
v 0.008781 0.52939898 0.045117
v 0.012356 0.53004801 0.05012
v 0.012274 0.53475899 0.052986
v 0.043022 0.54288501 -0.042108
v 0.039277 0.54313099 -0.043507
v 0.020176 0.52978998 -0.04705
v 0.015209 0.53760099 -0.045558
v 0.01607 0.53476101 -0.049115
v 0.016399 0.53325897 -0.051446
v 0.011214 0.53046 -0.04031
v 0.014221 0.53433299 -0.038657
v 0.010491 0.53644902 -0.038194
v 0.016426 0.53378397 -0.052994
v 0.007918 0.53422898 -0.041828
v 0.012444 0.53950602 -0.052576
v 0.009826 0.53864598 -0.048994
v 0.00769 0.53783298 -0.043672
v 0.039277 0.54313099 0.044407
v 0.043022 0.54288501 0.043008
v 0.01607 0.53476101 0.050015
v 0.015209 0.53760099 0.046458
v 0.020176 0.52978998 0.04795
v 0.011214 0.53046 0.04121
v 0.014221 0.53433299 0.039557
v 0.010491 0.53644902 0.039094
v 0.016399 0.53325897 0.052346
v 0.007918 0.53422898 0.042728
v 0.016426 0.53378397 0.053894
v 0.012444 0.53950602 0.053476
v 0.009826 0.53864598 0.049894
v 0.00769 0.53783298 0.044572
v 0.015788 0.53999501 -0.046855
v 0.014726 0.53998101 -0.043395
v 0.01322 0.535366 -0.038294
v 0.016607 0.53878897 -0.050121
v 0.007187 0.53700501 -0.040971
v 0.007744 0.53994697 -0.040236
v 0.009961 0.53991699 -0.037997
v 0.012676 0.53857702 -0.037437
v 0.014643 0.54002303 -0.052327
v 0.011058 0.54099101 -0.048801
v 0.013661 0.54184699 -0.048351
v 0.009306 0.541318 -0.04414
v 0.016607 0.53878897 0.051021
v 0.015788 0.53999501 0.047755
v 0.014726 0.53998101 0.044295
v 0.01322 0.535366 0.039194
v 0.007187 0.53700501 0.041871
v 0.007744 0.53994697 0.041136
v 0.009961 0.53991699 0.038897
v 0.012676 0.53857702 0.038337
v 0.014643 0.54002303 0.053227
v 0.011058 0.54099101 0.049701
v 0.013661 0.54184699 0.049251
v 0.009306 0.541318 0.04504
v 0.01171 0.54200798 -0.042787
v 0.01171 0.54200798 0.043687
f 1 2 3
f 4 3 2
f 2 1 5
f 6 5 1
f 7 1 8
f 3 8 1
f 6 1 7
f 9 4 10
f 2 10 4
f 2 5 10
f 11 10 5
f 12 3 13
f 4 13 3
f 9 14 4
f 13 4 14
f 15 8 12
f 12 8 3
f 16 17 6
f 17 5 6
f 18 19 6
f 16 6 19
f 18 6 7
f 17 11 5
f 8 20 7
f 21 7 20
f 8 15 20
f 22 20 15
f 18 7 23
f 21 23 7
f 9 10 24
f 25 24 10
f 25 10 26
f 11 26 10
f 9 24 14
f 27 14 24
f 28 11 29
f 17 29 11
f 30 26 28
f 11 28 26
f 13 31 12
f 32 12 31
f 13 14 31
f 31 14 33
f 15 12 32
f 27 34 14
f 33 14 34
f 35 36 15
f 22 15 36
f 15 32 35
f 16 37 17
f 29 17 37
f 37 16 19
f 19 18 38
f 23 38 18
f 39 19 40
f 40 19 38
f 39 41 19
f 37 19 41
f 42 21 43
f 20 43 21
f 21 42 23
f 44 43 22
f 20 22 43
f 36 44 22
f 42 45 23
f 38 23 45
f 25 46 24
f 26 47 25
f 47 46 25
f 24 46 48
f 24 49 27
f 50 49 24
f 30 47 26
f 27 51 34
f 27 49 51
f 41 52 37
f 29 37 52
f 52 53 29
f 53 28 29
f 53 54 28
f 54 30 28
f 55 56 30
f 47 30 56
f 54 57 30
f 55 30 57
f 32 31 58
f 31 33 58
f 32 58 59
f 35 32 60
f 59 60 32
f 61 62 33
f 58 33 62
f 63 61 34
f 33 34 61
f 34 51 63
f 60 64 35
f 36 35 64
f 44 36 65
f 65 36 64
f 38 45 40
f 40 66 39
f 45 66 40
f 41 39 67
f 67 39 68
f 39 69 68
f 70 68 69
f 66 69 39
f 52 41 71
f 67 71 41
f 72 42 73
f 43 73 42
f 74 73 44
f 44 73 43
f 75 45 72
f 42 72 45
f 76 74 65
f 44 65 74
f 77 78 75
f 45 75 78
f 66 45 69
f 45 78 69
f 70 69 78
f 48 46 50
f 50 46 56
f 46 47 56
f 79 48 80
f 48 50 80
f 81 48 82
f 82 48 50
f 48 49 50
f 81 49 48
f 81 51 49
f 80 50 56
f 82 50 79
f 83 63 81
f 51 81 63
f 71 84 52
f 53 52 84
f 84 85 53
f 53 85 54
f 86 54 85
f 54 86 57
f 87 88 89
f 55 89 88
f 55 57 89
f 55 88 90
f 91 90 88
f 92 55 90
f 56 55 92
f 80 56 92
f 57 93 89
f 94 89 93
f 57 86 93
f 93 86 95
f 59 58 96
f 62 96 58
f 60 59 96
f 97 98 60
f 64 60 98
f 97 60 99
f 96 99 60
f 100 62 101
f 61 101 62
f 61 102 101
f 61 63 102
f 99 96 100
f 96 62 100
f 102 63 103
f 103 63 83
f 98 65 64
f 104 76 105
f 65 105 76
f 106 65 107
f 65 106 105
f 108 105 106
f 98 107 65
f 109 110 67
f 110 71 67
f 111 109 68
f 67 68 109
f 68 70 111
f 112 111 70
f 70 78 112
f 71 110 84
f 113 84 110
f 72 73 114
f 115 114 73
f 75 72 116
f 116 72 114
f 74 117 73
f 115 73 117
f 76 118 74
f 118 117 74
f 77 75 119
f 116 119 75
f 104 120 76
f 118 76 120
f 78 77 121
f 77 122 121
f 119 123 77
f 122 77 123
f 112 78 124
f 78 121 124
f 121 125 124
f 126 127 128
f 79 128 127
f 79 129 128
f 79 80 129
f 130 131 127
f 79 127 131
f 131 132 79
f 132 82 79
f 80 92 129
f 90 129 92
f 133 83 81
f 133 81 82
f 82 132 133
f 134 133 132
f 135 136 137
f 83 137 136
f 136 103 83
f 83 134 137
f 138 137 134
f 134 83 133
f 85 84 139
f 113 139 84
f 85 139 86
f 95 86 139
f 88 87 140
f 140 87 141
f 91 88 140
f 89 94 87
f 94 142 87
f 143 141 142
f 87 142 141
f 126 128 91
f 90 91 128
f 128 129 90
f 91 140 144
f 91 144 126
f 145 126 144
f 93 146 94
f 93 147 146
f 95 148 93
f 147 93 148
f 146 149 94
f 94 149 142
f 148 95 139
f 99 150 97
f 151 97 150
f 97 107 98
f 97 151 106
f 108 106 151
f 97 106 107
f 100 152 99
f 150 99 152
f 152 100 153
f 101 153 100
f 153 101 154
f 101 102 154
f 154 102 155
f 103 155 102
f 103 136 156
f 156 136 157
f 103 156 155
f 158 155 156
f 159 104 160
f 105 160 104
f 161 105 108
f 162 105 161
f 105 162 160
f 163 160 162
f 120 104 164
f 159 164 104
f 151 165 108
f 161 108 165
f 109 166 110
f 166 167 110
f 166 109 111
f 167 113 110
f 168 169 111
f 170 111 169
f 170 166 111
f 111 112 168
f 168 112 124
f 167 171 113
f 139 113 171
f 172 114 173
f 173 114 115
f 174 116 172
f 172 116 114
f 175 173 117
f 115 117 173
f 176 119 174
f 116 174 119
f 177 175 118
f 117 118 175
f 178 177 120
f 118 120 177
f 176 179 119
f 123 119 179
f 178 120 180
f 164 180 120
f 121 122 181
f 182 181 122
f 182 122 183
f 123 183 122
f 181 184 121
f 125 121 184
f 179 185 123
f 183 123 185
f 125 186 124
f 168 124 186
f 184 187 125
f 186 125 187
f 145 188 126
f 127 126 188
f 189 130 188
f 127 188 130
f 138 130 190
f 189 190 130
f 130 138 131
f 131 138 134
f 134 132 131
f 191 192 193
f 192 135 193
f 136 135 157
f 192 157 135
f 137 194 135
f 135 194 193
f 194 137 138
f 190 194 138
f 171 148 139
f 141 195 140
f 195 196 140
f 196 144 140
f 143 195 141
f 149 197 142
f 143 142 197
f 197 195 143
f 144 196 145
f 196 198 145
f 188 145 198
f 146 199 149
f 149 199 200
f 146 201 199
f 146 147 201
f 148 202 147
f 147 202 201
f 203 148 171
f 148 203 202
f 204 202 203
f 149 200 197
f 205 197 200
f 165 151 206
f 150 206 151
f 206 150 207
f 207 150 152
f 152 153 207
f 208 207 153
f 154 209 153
f 209 208 153
f 154 155 209
f 158 209 155
f 210 157 211
f 192 211 157
f 157 210 156
f 210 212 156
f 158 156 213
f 212 213 156
f 209 158 213
f 160 214 159
f 159 214 215
f 214 160 216
f 163 216 160
f 215 217 159
f 159 217 164
f 165 218 161
f 218 162 161
f 163 162 219
f 218 219 162
f 216 163 220
f 219 220 163
f 217 221 164
f 180 164 221
f 218 165 222
f 223 222 165
f 165 224 223
f 165 206 224
f 170 225 166
f 167 166 225
f 171 167 226
f 225 226 167
f 225 170 227
f 169 227 170
f 169 228 227
f 229 227 228
f 169 186 228
f 187 228 186
f 186 169 168
f 203 171 226
f 173 230 172
f 231 172 230
f 232 174 231
f 172 231 174
f 173 175 230
f 233 230 175
f 174 232 176
f 234 176 232
f 235 233 177
f 175 177 233
f 236 179 234
f 176 234 179
f 177 178 235
f 178 237 235
f 238 237 180
f 178 180 237
f 239 185 236
f 179 236 185
f 240 238 221
f 180 221 238
f 183 241 182
f 242 182 241
f 182 242 181
f 242 243 181
f 244 184 243
f 184 181 243
f 241 183 245
f 245 183 185
f 184 244 246
f 246 244 247
f 187 184 246
f 185 239 245
f 248 245 239
f 246 228 187
f 249 189 198
f 188 198 189
f 189 249 190
f 250 194 249
f 249 194 190
f 211 192 251
f 191 251 192
f 191 250 251
f 193 250 191
f 194 250 193
f 252 196 253
f 195 253 196
f 253 195 254
f 255 254 195
f 195 197 255
f 205 255 197
f 256 198 252
f 196 252 198
f 256 257 198
f 249 198 257
f 199 258 200
f 259 200 258
f 201 260 199
f 258 199 260
f 205 200 261
f 200 259 261
f 260 201 262
f 201 202 262
f 262 202 263
f 263 202 204
f 264 203 226
f 204 203 264
f 265 204 264
f 265 262 204
f 262 263 204
f 261 255 205
f 206 207 224
f 266 224 207
f 207 208 266
f 266 208 267
f 209 267 208
f 209 213 267
f 211 251 268
f 269 268 251
f 210 211 270
f 268 270 211
f 270 271 210
f 271 212 210
f 212 272 213
f 271 272 212
f 267 213 273
f 213 272 273
f 274 273 272
f 214 275 276
f 214 276 215
f 277 275 216
f 216 275 214
f 217 215 278
f 276 278 215
f 216 279 277
f 280 277 279
f 279 216 220
f 281 221 278
f 217 278 221
f 218 222 219
f 222 282 219
f 282 220 219
f 220 282 279
f 221 281 240
f 283 240 281
f 223 224 284
f 266 284 224
f 284 285 223
f 222 223 285
f 222 285 282
f 286 282 285
f 227 287 225
f 287 226 225
f 264 226 287
f 287 227 288
f 229 288 227
f 289 229 228
f 228 246 289
f 247 289 246
f 290 288 229
f 229 289 290
f 291 290 289
f 292 231 293
f 293 231 230
f 231 292 232
f 294 232 292
f 295 293 233
f 230 233 293
f 232 294 234
f 296 234 294
f 233 235 295
f 297 295 235
f 234 296 236
f 298 236 296
f 235 237 297
f 299 297 237
f 236 298 239
f 300 239 298
f 237 238 299
f 301 299 238
f 238 240 301
f 302 301 240
f 303 248 300
f 239 300 248
f 304 302 283
f 240 283 302
f 241 305 242
f 242 305 306
f 305 241 307
f 245 307 241
f 308 243 306
f 242 306 243
f 309 244 308
f 308 244 243
f 244 310 247
f 310 244 311
f 309 311 244
f 245 248 307
f 307 248 312
f 310 313 247
f 247 313 289
f 248 303 312
f 312 303 314
f 257 315 249
f 250 249 315
f 315 316 250
f 317 250 316
f 250 317 251
f 269 251 317
f 318 252 319
f 253 319 252
f 319 253 320
f 253 254 320
f 321 256 318
f 252 318 256
f 254 255 322
f 323 322 255
f 255 261 323
f 324 323 261
f 320 254 325
f 254 322 325
f 321 326 256
f 257 256 326
f 326 327 257
f 315 257 327
f 259 258 328
f 258 329 328
f 260 329 258
f 328 324 259
f 261 259 324
f 260 330 329
f 330 260 331
f 262 331 260
f 331 262 265
f 287 288 264
f 332 264 288
f 332 265 264
f 333 265 332
f 333 331 265
f 267 334 266
f 284 266 334
f 334 267 273
f 269 335 268
f 336 268 335
f 269 317 335
f 270 268 337
f 336 337 268
f 271 270 338
f 337 338 270
f 338 339 271
f 271 339 272
f 339 340 272
f 274 272 340
f 334 273 341
f 341 273 274
f 341 274 342
f 274 339 342
f 274 340 339
f 343 344 275
f 276 275 344
f 345 343 277
f 343 275 277
f 278 276 346
f 276 344 346
f 280 347 277
f 347 348 277
f 345 277 348
f 346 349 278
f 281 278 349
f 347 280 350
f 351 350 280
f 282 351 279
f 280 279 351
f 281 349 283
f 349 352 283
f 282 286 351
f 283 352 304
f 304 352 353
f 285 284 354
f 354 284 334
f 354 355 285
f 286 285 355
f 286 355 356
f 286 356 351
f 351 356 357
f 290 333 288
f 333 332 288
f 291 289 313
f 333 290 358
f 291 358 290
f 359 360 313
f 291 313 360
f 360 361 291
f 358 291 361
f 292 293 362
f 363 362 293
f 292 362 294
f 364 294 362
f 295 365 293
f 363 293 365
f 366 296 364
f 294 364 296
f 295 297 365
f 367 365 297
f 368 298 366
f 296 366 298
f 369 367 299
f 297 299 367
f 370 300 368
f 298 368 300
f 371 369 301
f 301 369 299
f 300 370 303
f 372 303 370
f 373 371 302
f 301 302 371
f 302 304 373
f 374 373 304
f 375 314 372
f 314 303 372
f 376 374 353
f 304 353 374
f 377 378 305
f 306 305 378
f 379 377 307
f 307 377 305
f 306 378 308
f 308 378 380
f 307 312 379
f 381 379 312
f 382 309 380
f 308 380 309
f 311 309 383
f 382 383 309
f 311 384 310
f 359 310 384
f 359 313 310
f 385 384 311
f 385 311 386
f 386 311 383
f 312 314 381
f 387 381 314
f 388 387 375
f 314 375 387
f 327 389 315
f 316 315 389
f 389 390 316
f 391 316 390
f 316 391 317
f 392 317 391
f 317 392 335
f 335 392 393
f 394 318 395
f 395 318 319
f 395 319 396
f 396 319 320
f 397 321 394
f 318 394 321
f 396 320 398
f 325 398 320
f 397 399 321
f 326 321 399
f 323 400 322
f 401 322 400
f 323 402 400
f 403 400 402
f 402 323 324
f 325 322 404
f 401 404 322
f 324 405 402
f 324 328 405
f 398 325 406
f 404 406 325
f 399 407 326
f 327 326 407
f 407 408 327
f 389 327 408
f 328 329 409
f 329 410 409
f 329 411 410
f 329 330 411
f 328 412 405
f 328 409 412
f 330 331 413
f 414 330 413
f 330 414 411
f 413 331 333
f 415 333 358
f 333 415 413
f 354 334 341
f 416 336 393
f 335 393 336
f 336 416 337
f 337 416 417
f 337 417 338
f 417 418 338
f 418 419 338
f 339 338 419
f 342 339 419
f 354 341 355
f 420 355 341
f 341 342 420
f 420 342 421
f 342 419 421
f 344 343 422
f 343 423 422
f 424 423 345
f 343 345 423
f 425 346 422
f 344 422 346
f 348 426 345
f 424 345 426
f 427 349 425
f 425 349 346
f 348 347 428
f 429 428 347
f 347 350 429
f 348 428 430
f 431 348 430
f 426 348 431
f 349 427 352
f 432 352 427
f 350 351 357
f 429 350 433
f 357 433 350
f 352 432 353
f 434 353 432
f 435 376 434
f 353 434 376
f 355 421 356
f 355 420 421
f 421 436 356
f 357 356 436
f 433 357 437
f 436 437 357
f 361 438 358
f 358 438 415
f 384 439 359
f 439 360 359
f 360 439 361
f 440 361 439
f 441 438 440
f 361 440 438
f 442 443 363
f 362 363 443
f 362 443 364
f 444 364 443
f 442 363 445
f 365 445 363
f 446 366 444
f 364 444 366
f 365 367 445
f 445 367 447
f 448 368 446
f 446 368 366
f 449 447 369
f 367 369 447
f 370 368 450
f 448 450 368
f 451 449 371
f 369 371 449
f 370 450 372
f 452 372 450
f 373 453 371
f 451 371 453
f 372 452 375
f 452 454 375
f 373 374 453
f 455 453 374
f 374 376 455
f 455 376 456
f 375 454 388
f 457 388 454
f 376 435 456
f 458 456 435
f 378 377 459
f 460 459 377
f 377 379 460
f 461 460 379
f 459 462 378
f 378 462 380
f 379 381 461
f 463 461 381
f 380 462 382
f 464 463 387
f 387 463 381
f 465 466 382
f 383 382 466
f 467 465 462
f 382 462 465
f 466 468 383
f 469 383 468
f 469 470 383
f 470 386 383
f 385 471 384
f 471 439 384
f 472 385 386
f 472 471 385
f 386 470 472
f 473 472 470
f 387 388 464
f 464 388 474
f 388 457 474
f 475 474 457
f 408 476 389
f 390 389 476
f 476 477 390
f 478 390 477
f 390 478 391
f 478 479 391
f 392 391 480
f 479 480 391
f 392 480 481
f 482 481 480
f 393 392 481
f 481 483 393
f 483 416 393
f 444 395 446
f 396 446 395
f 395 444 394
f 394 444 443
f 394 443 397
f 397 443 442
f 446 396 448
f 398 448 396
f 399 397 445
f 397 442 445
f 448 398 450
f 406 450 398
f 407 399 447
f 447 399 445
f 400 484 401
f 484 485 401
f 400 486 484
f 484 486 487
f 486 400 488
f 403 488 400
f 489 404 485
f 401 485 404
f 490 403 405
f 405 403 402
f 490 488 403
f 406 404 491
f 489 491 404
f 405 412 490
f 492 490 412
f 491 452 406
f 450 406 452
f 447 449 407
f 407 449 408
f 449 451 408
f 476 408 451
f 409 492 412
f 409 493 492
f 410 493 409
f 411 494 410
f 493 410 494
f 411 495 494
f 414 495 411
f 438 496 415
f 413 415 496
f 496 414 413
f 495 414 496
f 483 497 416
f 497 498 416
f 498 417 416
f 498 499 417
f 499 500 417
f 500 418 417
f 501 419 418
f 501 418 502
f 500 502 418
f 421 419 501
f 436 421 503
f 501 503 421
f 504 422 505
f 505 422 423
f 424 505 423
f 422 504 425
f 506 425 504
f 507 424 508
f 426 508 424
f 509 505 507
f 505 424 507
f 425 506 427
f 510 427 506
f 508 426 511
f 512 511 426
f 426 513 512
f 426 431 513
f 427 510 432
f 514 432 510
f 429 515 428
f 429 433 515
f 428 516 430
f 428 515 516
f 431 430 517
f 430 516 517
f 431 517 513
f 518 513 517
f 519 434 514
f 514 434 432
f 433 437 515
f 520 515 437
f 434 519 435
f 435 519 521
f 435 521 458
f 522 458 521
f 437 436 523
f 523 436 503
f 524 520 523
f 437 523 520
f 441 496 438
f 471 440 439
f 441 440 525
f 471 525 440
f 441 495 496
f 525 526 441
f 526 495 441
f 451 453 476
f 477 476 453
f 452 491 454
f 527 454 491
f 528 477 455
f 453 455 477
f 454 527 457
f 529 457 527
f 455 456 528
f 530 528 456
f 456 458 530
f 531 530 458
f 457 529 475
f 529 532 475
f 458 522 531
f 531 522 533
f 534 459 535
f 460 535 459
f 460 461 535
f 536 535 461
f 462 459 467
f 534 467 459
f 461 463 536
f 537 536 463
f 463 464 537
f 538 537 464
f 464 474 538
f 474 539 538
f 540 541 465
f 466 465 541
f 465 467 540
f 540 467 542
f 541 543 466
f 544 466 543
f 544 545 466
f 545 468 466
f 546 542 534
f 467 534 542
f 547 548 468
f 548 469 468
f 545 547 468
f 548 473 469
f 470 469 473
f 549 471 472
f 550 471 549
f 550 525 471
f 473 551 472
f 551 549 472
f 473 548 551
f 548 552 551
f 553 539 475
f 474 475 539
f 475 532 553
f 554 553 532
f 477 528 478
f 555 478 528
f 555 556 478
f 479 478 556
f 480 479 557
f 557 479 556
f 480 557 558
f 559 558 557
f 558 560 480
f 482 480 560
f 482 560 561
f 561 483 482
f 483 481 482
f 483 561 497
f 562 497 561
f 484 563 485
f 485 563 564
f 565 563 566
f 566 563 484
f 566 484 487
f 567 489 564
f 485 564 489
f 486 568 487
f 488 490 486
f 569 486 490
f 569 568 486
f 570 566 571
f 487 571 566
f 568 571 487
f 527 491 567
f 567 491 489
f 572 569 492
f 492 569 490
f 493 572 492
f 494 572 493
f 495 526 494
f 572 494 526
f 497 562 498
f 562 573 498
f 498 573 499
f 500 499 574
f 573 574 499
f 574 575 500
f 500 575 502
f 523 503 576
f 501 576 503
f 501 502 576
f 576 502 575
f 505 509 504
f 577 504 509
f 577 578 504
f 506 504 578
f 506 578 510
f 579 510 578
f 580 507 581
f 508 581 507
f 581 508 582
f 583 582 508
f 508 584 583
f 508 511 584
f 507 580 509
f 509 580 585
f 586 577 585
f 509 585 577
f 510 579 514
f 587 514 579
f 588 512 518
f 513 518 512
f 589 511 588
f 512 588 511
f 511 589 584
f 514 587 519
f 590 519 587
f 515 520 516
f 524 591 520
f 516 520 591
f 517 516 592
f 592 516 593
f 516 591 593
f 517 594 518
f 517 592 594
f 518 594 588
f 588 594 595
f 519 590 521
f 590 596 521
f 597 522 596
f 596 522 521
f 522 597 533
f 598 533 597
f 523 576 524
f 576 575 524
f 524 599 591
f 524 575 599
f 525 550 600
f 601 600 550
f 600 526 525
f 602 526 600
f 603 572 602
f 602 572 526
f 529 527 604
f 567 604 527
f 530 605 528
f 605 555 528
f 529 604 532
f 606 532 604
f 531 607 530
f 605 530 607
f 531 533 607
f 608 607 533
f 532 606 554
f 606 609 554
f 533 598 608
f 608 598 610
f 535 611 534
f 611 546 534
f 535 536 611
f 612 611 536
f 536 537 612
f 613 612 537
f 537 538 613
f 613 538 614
f 538 539 614
f 615 614 539
f 615 539 616
f 616 539 553
f 541 540 617
f 618 617 540
f 540 619 618
f 620 618 619
f 542 619 540
f 621 543 541
f 617 622 541
f 621 541 622
f 542 546 619
f 546 623 619
f 624 625 543
f 544 543 625
f 624 543 626
f 621 626 543
f 545 544 627
f 625 627 544
f 627 547 545
f 628 623 611
f 546 611 623
f 552 548 629
f 547 629 548
f 630 547 627
f 547 630 629
f 629 630 631
f 632 550 551
f 549 551 550
f 550 632 601
f 633 601 632
f 634 632 552
f 552 632 551
f 552 629 634
f 634 629 635
f 631 635 629
f 616 553 636
f 554 636 553
f 554 609 636
f 637 636 609
f 605 638 555
f 556 555 638
f 557 556 639
f 639 556 638
f 640 641 639
f 639 641 557
f 559 557 641
f 642 643 641
f 559 641 643
f 559 644 558
f 559 643 644
f 560 558 561
f 645 561 558
f 558 644 645
f 646 562 645
f 645 562 561
f 562 646 573
f 563 647 564
f 648 564 647
f 649 647 650
f 563 650 647
f 650 563 565
f 564 648 567
f 604 567 648
f 566 570 565
f 570 651 565
f 650 565 652
f 651 652 565
f 568 653 571
f 569 653 568
f 569 572 653
f 654 570 655
f 655 570 571
f 653 655 571
f 656 651 654
f 570 654 651
f 572 603 653
f 573 646 574
f 575 574 599
f 646 599 574
f 578 577 657
f 657 577 586
f 578 657 579
f 658 579 657
f 579 658 587
f 659 587 658
f 581 660 580
f 661 580 660
f 581 582 662
f 660 581 663
f 662 663 581
f 580 661 664
f 665 664 661
f 580 664 585
f 584 666 583
f 667 583 666
f 668 582 667
f 583 667 582
f 668 669 582
f 662 582 669
f 584 589 666
f 585 664 586
f 586 664 670
f 671 657 670
f 586 670 657
f 587 659 590
f 659 672 590
f 595 673 588
f 589 588 673
f 666 589 674
f 589 673 674
f 675 674 673
f 590 672 596
f 676 596 672
f 591 677 593
f 678 593 677
f 591 599 677
f 679 594 593
f 592 593 594
f 593 678 679
f 679 678 680
f 681 595 679
f 679 595 594
f 595 681 673
f 681 682 673
f 675 673 682
f 676 683 596
f 597 596 683
f 683 684 597
f 598 597 684
f 598 684 610
f 685 610 684
f 677 599 686
f 687 686 646
f 686 599 646
f 633 600 601
f 602 600 688
f 600 633 688
f 688 689 602
f 603 602 689
f 653 603 655
f 603 689 655
f 606 604 690
f 690 604 648
f 638 605 691
f 607 691 605
f 609 606 692
f 690 692 606
f 608 693 607
f 693 691 607
f 610 694 608
f 693 608 694
f 695 637 692
f 609 692 637
f 696 694 685
f 610 685 694
f 697 628 612
f 611 612 628
f 698 697 613
f 612 613 697
f 613 614 698
f 699 698 614
f 614 615 699
f 700 699 615
f 700 615 701
f 616 701 615
f 701 616 702
f 636 702 616
f 703 704 618
f 618 704 617
f 703 618 705
f 620 705 618
f 617 704 706
f 707 706 704
f 706 708 617
f 708 622 617
f 619 623 620
f 709 620 623
f 710 705 709
f 620 709 705
f 711 626 622
f 626 621 622
f 708 712 622
f 712 711 622
f 713 709 628
f 623 628 709
f 625 624 714
f 715 714 624
f 715 624 716
f 626 716 624
f 625 714 627
f 630 627 714
f 626 711 716
f 717 716 711
f 628 697 713
f 718 713 697
f 714 719 630
f 719 631 630
f 720 635 631
f 631 719 720
f 721 720 719
f 632 634 633
f 722 633 634
f 722 723 633
f 688 633 723
f 634 635 722
f 724 722 635
f 720 724 635
f 702 636 725
f 637 725 636
f 637 695 725
f 726 725 695
f 639 638 727
f 691 727 638
f 728 729 727
f 639 727 729
f 640 639 729
f 729 730 640
f 731 640 730
f 641 640 642
f 731 642 640
f 732 733 731
f 642 731 733
f 733 734 642
f 734 643 642
f 643 735 644
f 643 734 735
f 644 735 645
f 735 646 645
f 735 687 646
f 690 648 736
f 647 736 648
f 736 647 737
f 649 737 647
f 652 738 650
f 738 649 650
f 649 738 737
f 739 737 738
f 651 740 652
f 651 656 740
f 738 652 741
f 740 741 652
f 655 689 654
f 742 656 654
f 689 742 654
f 656 743 740
f 744 743 724
f 656 724 743
f 742 724 656
f 745 658 671
f 657 671 658
f 746 659 745
f 658 745 659
f 659 746 672
f 747 672 746
f 748 661 749
f 749 661 660
f 660 750 749
f 751 749 750
f 660 752 750
f 660 663 752
f 748 753 661
f 665 661 753
f 754 663 669
f 669 663 662
f 663 755 752
f 663 754 755
f 664 665 670
f 756 670 665
f 757 756 753
f 665 753 756
f 667 666 758
f 674 758 666
f 667 758 668
f 759 668 758
f 759 760 668
f 669 668 760
f 669 760 754
f 761 754 760
f 762 671 756
f 670 756 671
f 671 762 745
f 762 763 745
f 672 747 676
f 764 676 747
f 758 674 765
f 675 765 674
f 675 682 766
f 675 766 765
f 767 765 766
f 764 768 676
f 683 676 768
f 678 677 680
f 686 769 677
f 677 769 680
f 679 680 681
f 770 681 680
f 770 680 771
f 769 771 680
f 681 770 682
f 772 682 770
f 682 772 766
f 768 773 683
f 684 683 773
f 773 774 684
f 685 684 774
f 685 774 696
f 775 696 774
f 769 686 776
f 687 776 686
f 734 687 735
f 734 776 687
f 723 742 688
f 689 688 742
f 736 777 690
f 692 690 777
f 693 778 691
f 727 691 778
f 695 692 779
f 777 779 692
f 778 693 780
f 694 780 693
f 696 781 694
f 780 694 781
f 726 695 782
f 779 782 695
f 775 783 696
f 781 696 783
f 697 698 718
f 718 698 784
f 698 699 784
f 785 784 699
f 786 785 700
f 699 700 785
f 701 787 700
f 786 700 787
f 787 701 788
f 702 788 701
f 725 789 702
f 788 702 789
f 704 703 790
f 791 790 703
f 791 703 792
f 792 703 705
f 790 793 704
f 794 704 793
f 794 795 704
f 795 707 704
f 796 792 710
f 705 710 792
f 797 706 798
f 707 798 706
f 707 795 798
f 799 798 795
f 706 797 708
f 800 708 797
f 800 712 708
f 710 709 801
f 713 801 709
f 801 802 710
f 796 710 802
f 712 717 711
f 712 803 717
f 800 804 712
f 804 803 712
f 805 801 718
f 713 718 801
f 719 714 806
f 715 806 714
f 716 807 715
f 806 715 807
f 807 716 808
f 808 716 717
f 803 808 717
f 718 784 805
f 809 805 784
f 810 721 806
f 719 806 721
f 811 724 720
f 720 721 811
f 812 811 721
f 721 810 812
f 813 812 810
f 724 723 722
f 723 724 742
f 724 811 744
f 725 726 789
f 789 726 814
f 814 726 815
f 782 815 726
f 778 816 727
f 816 728 727
f 728 816 817
f 818 817 816
f 730 729 817
f 729 728 817
f 817 819 730
f 820 730 819
f 730 820 731
f 820 732 731
f 820 821 732
f 822 772 821
f 732 821 772
f 733 732 823
f 732 772 823
f 733 776 734
f 733 823 776
f 777 736 824
f 825 824 736
f 825 736 737
f 737 739 825
f 826 825 739
f 741 827 738
f 739 738 827
f 828 826 827
f 739 827 826
f 743 829 740
f 741 740 829
f 741 830 827
f 741 829 830
f 744 829 743
f 829 744 812
f 811 812 744
f 745 763 746
f 831 746 763
f 746 831 747
f 832 747 831
f 833 764 832
f 832 764 747
f 749 834 748
f 835 748 834
f 834 749 836
f 837 836 749
f 749 838 837
f 749 751 838
f 839 748 835
f 753 748 839
f 750 752 840
f 841 840 752
f 840 842 750
f 751 750 842
f 751 842 838
f 843 838 842
f 752 755 841
f 844 757 839
f 753 839 757
f 754 761 755
f 761 845 755
f 755 846 841
f 755 845 846
f 757 847 756
f 847 762 756
f 847 757 848
f 844 848 757
f 765 849 758
f 759 758 849
f 760 759 850
f 849 850 759
f 850 851 760
f 760 851 761
f 761 851 845
f 852 763 847
f 762 847 763
f 763 852 831
f 853 831 852
f 768 764 854
f 833 854 764
f 855 849 767
f 765 767 849
f 766 772 856
f 766 856 767
f 857 767 856
f 767 857 855
f 858 855 857
f 854 859 768
f 773 768 859
f 771 769 823
f 776 823 769
f 770 771 772
f 823 772 771
f 822 856 772
f 774 773 860
f 859 860 773
f 774 860 775
f 860 861 775
f 861 862 775
f 775 862 783
f 779 777 863
f 824 863 777
f 780 864 778
f 865 778 864
f 816 778 865
f 866 782 867
f 779 867 782
f 867 779 863
f 781 868 780
f 864 780 868
f 869 870 783
f 781 783 870
f 868 781 870
f 815 782 866
f 869 783 862
f 784 785 809
f 809 785 871
f 872 871 786
f 785 786 871
f 787 873 786
f 872 786 873
f 873 787 874
f 788 874 787
f 874 788 875
f 789 875 788
f 814 876 789
f 875 789 876
f 877 790 878
f 791 878 790
f 879 791 792
f 879 880 791
f 878 791 880
f 790 877 881
f 882 881 877
f 881 883 790
f 883 793 790
f 884 879 796
f 796 879 792
f 793 885 794
f 885 793 886
f 883 886 793
f 887 799 794
f 799 795 794
f 885 887 794
f 802 888 796
f 884 796 888
f 889 797 890
f 798 890 797
f 799 891 798
f 890 798 891
f 804 800 889
f 797 889 800
f 799 887 891
f 891 887 892
f 893 802 805
f 802 801 805
f 802 893 888
f 893 894 888
f 803 895 808
f 896 808 895
f 804 897 803
f 897 895 803
f 898 804 889
f 898 897 804
f 899 893 809
f 805 809 893
f 900 810 807
f 806 807 810
f 807 808 900
f 896 900 808
f 809 871 899
f 901 899 871
f 900 813 810
f 829 812 902
f 902 812 813
f 903 813 896
f 900 896 813
f 813 903 902
f 815 904 814
f 904 876 814
f 904 815 905
f 906 905 815
f 815 866 906
f 816 865 818
f 907 818 865
f 908 909 907
f 818 907 909
f 819 817 909
f 818 909 817
f 909 910 819
f 910 911 819
f 821 820 911
f 819 911 820
f 821 911 822
f 911 857 822
f 856 822 857
f 824 825 912
f 826 912 825
f 913 863 912
f 824 912 863
f 826 914 912
f 826 828 914
f 830 828 827
f 828 915 914
f 828 916 915
f 828 903 916
f 902 828 830
f 902 903 828
f 829 902 830
f 831 853 832
f 917 832 853
f 918 833 917
f 832 917 833
f 854 833 919
f 918 919 833
f 920 921 834
f 835 834 921
f 834 922 920
f 923 920 922
f 834 924 922
f 834 836 924
f 839 835 925
f 925 835 926
f 921 926 835
f 927 837 843
f 843 837 838
f 837 928 836
f 837 927 928
f 928 929 836
f 924 836 929
f 930 844 925
f 925 844 839
f 846 931 841
f 840 841 931
f 931 932 840
f 840 932 842
f 843 842 933
f 932 933 842
f 843 933 927
f 934 927 933
f 848 844 935
f 930 935 844
f 845 851 936
f 937 936 851
f 845 938 846
f 845 936 938
f 931 846 939
f 846 938 939
f 940 852 848
f 848 852 847
f 848 935 940
f 940 935 941
f 942 850 855
f 849 855 850
f 850 942 851
f 937 851 942
f 943 853 940
f 852 940 853
f 853 943 917
f 944 917 943
f 919 945 854
f 859 854 945
f 855 858 942
f 911 946 857
f 857 946 858
f 947 937 858
f 942 858 937
f 946 947 858
f 945 948 859
f 859 948 860
f 861 860 949
f 948 949 860
f 862 861 950
f 950 861 949
f 950 951 862
f 952 862 951
f 952 869 862
f 913 953 863
f 867 863 953
f 954 955 868
f 864 868 955
f 864 955 865
f 907 865 955
f 953 866 867
f 866 956 906
f 866 957 956
f 953 957 866
f 954 868 958
f 870 958 868
f 952 959 869
f 959 960 869
f 870 869 958
f 869 960 958
f 961 901 872
f 871 872 901
f 961 872 962
f 873 962 872
f 962 873 963
f 874 963 873
f 963 874 964
f 875 964 874
f 964 875 965
f 875 876 965
f 965 876 966
f 904 966 876
f 878 967 877
f 968 877 967
f 969 967 970
f 878 970 967
f 970 878 880
f 882 877 971
f 877 968 971
f 972 971 968
f 884 973 879
f 880 879 973
f 974 970 973
f 880 973 970
f 882 975 881
f 971 976 882
f 976 975 882
f 881 977 883
f 975 977 881
f 977 886 883
f 978 973 888
f 884 888 973
f 887 885 892
f 979 892 885
f 980 979 886
f 885 886 979
f 886 977 980
f 981 980 977
f 888 894 978
f 894 982 978
f 890 983 889
f 889 983 898
f 890 891 983
f 984 983 891
f 985 984 892
f 891 892 984
f 985 892 986
f 979 986 892
f 987 894 899
f 893 899 894
f 894 987 982
f 988 982 987
f 895 903 896
f 897 903 895
f 989 897 898
f 989 903 897
f 983 990 898
f 989 898 990
f 991 987 901
f 901 987 899
f 901 961 991
f 991 961 992
f 903 989 916
f 993 916 989
f 994 904 905
f 904 994 966
f 956 905 906
f 905 995 994
f 996 995 956
f 905 956 995
f 955 997 907
f 997 908 907
f 997 998 908
f 998 999 908
f 999 947 908
f 909 908 910
f 910 908 946
f 908 947 946
f 910 946 911
f 914 1000 912
f 913 912 1000
f 913 1000 953
f 914 915 1000
f 915 1001 1000
f 915 916 1001
f 916 993 1001
f 1002 1001 993
f 1003 918 944
f 917 944 918
f 1003 1004 918
f 919 918 1004
f 1004 1005 919
f 945 919 1005
f 921 920 1006
f 1007 1006 920
f 923 1008 920
f 920 1008 1007
f 1009 1007 1008
f 1010 1011 1006
f 921 1006 1011
f 926 921 1011
f 924 1012 922
f 922 1013 923
f 922 1012 1013
f 923 1014 1008
f 923 1013 1014
f 924 929 1012
f 930 925 1015
f 926 1015 925
f 1016 1015 1011
f 926 1011 1015
f 927 934 928
f 1017 928 934
f 1018 929 1017
f 928 1017 929
f 929 1018 1012
f 1019 1012 1018
f 1020 935 1015
f 930 1015 935
f 932 931 1021
f 1021 931 939
f 932 1021 933
f 933 1021 1022
f 1023 934 1022
f 933 1022 934
f 1023 1024 934
f 1017 934 1024
f 935 1020 941
f 941 1020 1025
f 937 947 936
f 936 947 938
f 939 938 1026
f 938 947 1026
f 1021 939 1027
f 1026 1027 939
f 1028 943 941
f 940 941 943
f 941 1025 1028
f 1029 1028 1025
f 1030 944 1028
f 943 1028 944
f 944 1030 1003
f 1030 1031 1003
f 1005 1032 945
f 948 945 1032
f 947 999 1026
f 1033 1026 999
f 1032 1034 948
f 949 948 1034
f 1034 1035 949
f 950 949 1035
f 951 950 1036
f 1035 1036 950
f 1036 1037 951
f 952 951 959
f 1038 959 1037
f 951 1037 959
f 1039 957 953
f 1000 1039 953
f 958 1040 954
f 997 955 1040
f 954 1040 955
f 957 996 956
f 957 1041 996
f 1039 1041 957
f 958 960 1042
f 958 1042 1040
f 959 1038 960
f 1038 1043 960
f 960 1043 1042
f 1044 992 962
f 961 962 992
f 1044 962 1045
f 963 1045 962
f 1045 963 1046
f 964 1046 963
f 1046 964 1047
f 964 965 1047
f 1047 965 1048
f 966 1048 965
f 1049 1048 994
f 966 994 1048
f 968 967 1050
f 1051 1050 967
f 969 1052 967
f 1051 967 1052
f 1053 972 968
f 1050 1054 968
f 1053 968 1054
f 974 1055 970
f 969 970 1055
f 1052 969 1056
f 1055 1056 969
f 1049 1057 971
f 1057 976 971
f 1049 971 1058
f 972 1058 971
f 1059 1058 1053
f 1053 1058 972
f 974 973 1060
f 978 1060 973
f 1060 1061 974
f 1055 974 1061
f 977 975 981
f 981 975 1062
f 1062 975 1063
f 1063 975 976
f 1057 1063 976
f 1064 1060 982
f 982 1060 978
f 980 1065 979
f 986 979 1065
f 981 1066 980
f 1065 980 1066
f 1066 981 1067
f 981 1062 1067
f 1068 1064 988
f 982 988 1064
f 983 984 990
f 1069 990 984
f 984 985 1069
f 1070 1069 985
f 1071 1070 986
f 985 986 1070
f 1072 986 1065
f 1073 986 1072
f 1073 1071 986
f 1074 988 991
f 991 988 987
f 1075 1068 1074
f 988 1074 1068
f 1076 993 990
f 989 990 993
f 1069 1076 990
f 991 992 1074
f 1074 992 1077
f 992 1044 1077
f 1078 1077 1044
f 993 1076 1002
f 995 1079 994
f 994 1079 1049
f 995 1080 1079
f 995 1081 1080
f 1082 1081 996
f 995 996 1081
f 1041 1082 996
f 1040 998 997
f 1040 1083 998
f 1083 999 998
f 999 1083 1033
f 1084 1033 1083
f 1000 1001 1039
f 1001 1085 1039
f 1001 1002 1085
f 1002 1086 1085
f 1002 1076 1086
f 1087 1086 1076
f 1088 1004 1031
f 1003 1031 1004
f 1088 1089 1004
f 1005 1004 1089
f 1089 1090 1005
f 1005 1090 1032
f 1007 1091 1006
f 1092 1006 1091
f 1007 1009 1093
f 1091 1007 1094
f 1093 1094 1007
f 1010 1006 1095
f 1092 1095 1006
f 1096 1097 1008
f 1009 1008 1097
f 1098 1093 1097
f 1097 1093 1009
f 1008 1099 1096
f 1008 1014 1099
f 1016 1011 1100
f 1010 1100 1011
f 1095 1101 1010
f 1100 1010 1101
f 1012 1019 1013
f 1013 1019 1102
f 1102 1103 1013
f 1013 1103 1014
f 1014 1103 1099
f 1016 1104 1015
f 1020 1015 1104
f 1104 1016 1105
f 1100 1105 1016
f 1018 1017 1106
f 1024 1106 1017
f 1019 1018 1107
f 1106 1107 1018
f 1107 1108 1019
f 1019 1108 1102
f 1109 1025 1104
f 1104 1025 1020
f 1021 1027 1022
f 1110 1022 1027
f 1022 1110 1023
f 1111 1023 1110
f 1112 1024 1111
f 1023 1111 1024
f 1106 1024 1113
f 1113 1024 1114
f 1024 1112 1114
f 1115 1029 1109
f 1025 1109 1029
f 1116 1027 1033
f 1026 1033 1027
f 1027 1116 1110
f 1117 1030 1029
f 1030 1028 1029
f 1118 1117 1115
f 1029 1115 1117
f 1030 1117 1031
f 1031 1117 1119
f 1031 1119 1088
f 1120 1088 1119
f 1090 1121 1032
f 1034 1032 1121
f 1084 1116 1033
f 1121 1122 1034
f 1035 1034 1122
f 1096 1036 1122
f 1035 1122 1036
f 1036 1123 1037
f 1096 1123 1036
f 1123 1124 1037
f 1124 1125 1037
f 1126 1038 1125
f 1037 1125 1038
f 1038 1126 1043
f 1085 1041 1039
f 1042 1083 1040
f 1041 1127 1082
f 1071 1128 1041
f 1127 1041 1128
f 1086 1041 1085
f 1041 1086 1071
f 1087 1071 1086
f 1042 1043 1129
f 1042 1129 1083
f 1126 1130 1043
f 1112 1043 1131
f 1130 1131 1043
f 1129 1043 1132
f 1043 1112 1132
f 1133 1132 1112
f 1044 1045 1078
f 1134 1078 1045
f 1045 1046 1134
f 1135 1134 1046
f 1046 1047 1135
f 1136 1135 1047
f 1136 1047 1137
f 1048 1137 1047
f 1137 1048 1049
f 1079 1057 1049
f 1058 1138 1049
f 1137 1049 1138
f 1139 1140 1051
f 1050 1051 1140
f 1141 1142 1051
f 1139 1051 1142
f 1141 1051 1052
f 1143 1050 1144
f 1140 1144 1050
f 1143 1145 1050
f 1145 1054 1050
f 1141 1052 1146
f 1056 1146 1052
f 1053 1054 1059
f 1147 1059 1054
f 1054 1145 1147
f 1148 1147 1145
f 1061 1149 1055
f 1056 1055 1149
f 1149 1150 1056
f 1146 1056 1150
f 1057 1151 1063
f 1079 1080 1057
f 1080 1151 1057
f 1138 1058 1152
f 1059 1152 1058
f 1152 1059 1153
f 1147 1153 1059
f 1064 1154 1060
f 1061 1060 1154
f 1154 1155 1061
f 1061 1155 1149
f 1156 1067 1063
f 1062 1063 1067
f 1151 1156 1063
f 1157 1154 1068
f 1064 1068 1154
f 1065 1066 1072
f 1158 1072 1066
f 1066 1067 1158
f 1158 1067 1159
f 1156 1159 1067
f 1160 1157 1075
f 1068 1075 1157
f 1076 1069 1087
f 1070 1087 1069
f 1071 1087 1070
f 1128 1071 1073
f 1161 1073 1158
f 1072 1158 1073
f 1161 1128 1073
f 1074 1077 1075
f 1162 1075 1077
f 1163 1160 1162
f 1075 1162 1160
f 1164 1162 1078
f 1077 1078 1162
f 1078 1134 1164
f 1165 1164 1134
f 1080 1166 1151
f 1081 1166 1080
f 1166 1081 1167
f 1161 1167 1081
f 1127 1081 1082
f 1127 1161 1081
f 1129 1084 1083
f 1129 1132 1084
f 1084 1132 1116
f 1116 1132 1133
f 1088 1120 1089
f 1168 1089 1120
f 1089 1168 1090
f 1169 1090 1168
f 1090 1169 1121
f 1170 1121 1169
f 1171 1092 1172
f 1172 1092 1091
f 1173 1174 1091
f 1172 1091 1174
f 1091 1175 1173
f 1091 1094 1175
f 1176 1092 1177
f 1171 1177 1092
f 1095 1092 1176
f 1093 1098 1094
f 1178 1094 1098
f 1094 1178 1175
f 1179 1175 1178
f 1176 1180 1095
f 1101 1095 1180
f 1096 1099 1123
f 1097 1096 1181
f 1182 1181 1096
f 1096 1122 1182
f 1181 1183 1097
f 1098 1097 1183
f 1183 1184 1098
f 1178 1098 1184
f 1103 1185 1099
f 1099 1124 1123
f 1099 1185 1124
f 1105 1100 1186
f 1101 1186 1100
f 1186 1101 1187
f 1180 1187 1101
f 1188 1103 1108
f 1102 1108 1103
f 1103 1188 1185
f 1109 1104 1189
f 1105 1189 1104
f 1189 1105 1190
f 1105 1186 1190
f 1106 1113 1107
f 1191 1107 1113
f 1107 1191 1108
f 1191 1192 1108
f 1108 1192 1188
f 1193 1115 1189
f 1109 1189 1115
f 1116 1133 1110
f 1111 1110 1133
f 1111 1133 1112
f 1114 1112 1131
f 1194 1191 1114
f 1113 1114 1191
f 1114 1131 1194
f 1195 1118 1193
f 1118 1115 1193
f 1117 1118 1119
f 1196 1119 1118
f 1197 1196 1195
f 1195 1196 1118
f 1198 1120 1196
f 1119 1196 1120
f 1120 1198 1168
f 1199 1168 1198
f 1170 1182 1121
f 1122 1121 1182
f 1185 1200 1124
f 1124 1200 1125
f 1200 1201 1125
f 1194 1125 1201
f 1126 1125 1130
f 1125 1194 1130
f 1128 1161 1127
f 1130 1194 1131
f 1134 1135 1165
f 1202 1165 1135
f 1203 1202 1136
f 1135 1136 1202
f 1203 1136 1138
f 1137 1138 1136
f 1204 1203 1152
f 1138 1152 1203
f 1140 1139 1205
f 1206 1205 1139
f 1207 1206 1208
f 1139 1208 1206
f 1208 1139 1142
f 1209 1140 1210
f 1205 1210 1140
f 1209 1144 1140
f 1142 1141 1211
f 1146 1211 1141
f 1211 1212 1142
f 1208 1142 1212
f 1144 1213 1143
f 1214 1143 1213
f 1209 1215 1144
f 1213 1144 1215
f 1148 1145 1214
f 1143 1214 1145
f 1150 1216 1146
f 1211 1146 1216
f 1148 1153 1147
f 1153 1148 1217
f 1214 1217 1148
f 1150 1149 1218
f 1218 1149 1155
f 1216 1150 1219
f 1218 1219 1150
f 1151 1220 1156
f 1166 1220 1151
f 1221 1204 1153
f 1152 1153 1204
f 1222 1221 1217
f 1153 1217 1221
f 1223 1155 1157
f 1154 1157 1155
f 1223 1224 1155
f 1218 1155 1224
f 1156 1225 1159
f 1220 1225 1156
f 1157 1160 1223
f 1226 1223 1160
f 1167 1158 1227
f 1159 1227 1158
f 1167 1161 1158
f 1225 1227 1159
f 1228 1226 1163
f 1160 1163 1226
f 1229 1163 1164
f 1163 1162 1164
f 1228 1163 1230
f 1229 1230 1163
f 1164 1165 1229
f 1231 1229 1165
f 1165 1202 1231
f 1231 1202 1232
f 1166 1167 1220
f 1233 1167 1227
f 1167 1233 1220
f 1168 1199 1169
f 1234 1169 1199
f 1235 1170 1234
f 1169 1234 1170
f 1235 1181 1170
f 1182 1170 1181
f 1172 1236 1171
f 1237 1171 1236
f 1238 1239 1172
f 1236 1172 1239
f 1172 1174 1238
f 1240 1241 1237
f 1171 1237 1241
f 1177 1171 1241
f 1179 1242 1175
f 1173 1175 1242
f 1174 1173 1243
f 1242 1243 1173
f 1238 1174 1244
f 1243 1244 1174
f 1177 1245 1176
f 1180 1176 1245
f 1245 1177 1246
f 1241 1246 1177
f 1178 1184 1179
f 1184 1247 1179
f 1242 1179 1247
f 1187 1180 1248
f 1245 1248 1180
f 1249 1183 1235
f 1181 1235 1183
f 1250 1184 1249
f 1183 1249 1184
f 1251 1247 1250
f 1184 1250 1247
f 1188 1252 1185
f 1185 1252 1200
f 1187 1253 1186
f 1253 1190 1186
f 1248 1254 1187
f 1253 1187 1254
f 1192 1255 1188
f 1188 1255 1252
f 1256 1193 1190
f 1189 1190 1193
f 1256 1190 1257
f 1253 1257 1190
f 1201 1258 1191
f 1192 1191 1258
f 1191 1194 1201
f 1192 1258 1255
f 1193 1256 1195
f 1256 1259 1195
f 1260 1197 1259
f 1259 1197 1195
f 1261 1198 1197
f 1197 1198 1196
f 1260 1262 1197
f 1261 1197 1262
f 1198 1261 1199
f 1263 1199 1261
f 1199 1263 1234
f 1234 1263 1264
f 1252 1201 1200
f 1258 1201 1265
f 1252 1265 1201
f 1204 1232 1203
f 1232 1202 1203
f 1221 1266 1204
f 1204 1266 1232
f 1205 1206 1267
f 1206 1268 1267
f 1207 1269 1206
f 1268 1206 1269
f 1267 1270 1205
f 1210 1205 1270
f 1212 1271 1208
f 1271 1207 1208
f 1269 1207 1272
f 1271 1272 1207
f 1215 1209 1273
f 1210 1273 1209
f 1270 1274 1210
f 1273 1210 1274
f 1216 1275 1211
f 1212 1211 1275
f 1271 1212 1276
f 1212 1275 1276
f 1215 1277 1213
f 1277 1217 1213
f 1214 1213 1217
f 1278 1277 1273
f 1273 1277 1215
f 1219 1279 1216
f 1275 1216 1279
f 1217 1277 1222
f 1280 1222 1277
f 1218 1224 1219
f 1281 1219 1224
f 1219 1281 1279
f 1282 1279 1281
f 1220 1233 1225
f 1222 1283 1221
f 1283 1266 1221
f 1280 1284 1222
f 1283 1222 1284
f 1223 1226 1224
f 1285 1224 1226
f 1224 1285 1281
f 1286 1281 1285
f 1225 1233 1227
f 1287 1285 1228
f 1226 1228 1285
f 1287 1228 1288
f 1288 1228 1230
f 1229 1231 1230
f 1289 1230 1231
f 1289 1290 1230
f 1288 1230 1290
f 1289 1231 1266
f 1266 1231 1232
f 1249 1235 1264
f 1264 1235 1234
f 1236 1291 1237
f 1237 1291 1292
f 1291 1236 1293
f 1239 1293 1236
f 1240 1237 1294
f 1292 1294 1237
f 1244 1295 1238
f 1239 1238 1295
f 1293 1239 1296
f 1295 1296 1239
f 1246 1241 1297
f 1297 1241 1240
f 1294 1298 1240
f 1297 1240 1298
f 1299 1243 1247
f 1242 1247 1243
f 1243 1299 1244
f 1300 1295 1299
f 1244 1299 1295
f 1248 1245 1301
f 1246 1301 1245
f 1297 1302 1246
f 1246 1302 1301
f 1247 1251 1299
f 1303 1299 1251
f 1254 1248 1304
f 1301 1304 1248
f 1250 1249 1305
f 1264 1305 1249
f 1251 1250 1306
f 1306 1250 1305
f 1303 1251 1307
f 1306 1307 1251
f 1255 1265 1252
f 1253 1254 1257
f 1308 1257 1254
f 1254 1304 1308
f 1309 1308 1304
f 1258 1265 1255
f 1256 1257 1259
f 1310 1259 1257
f 1257 1308 1310
f 1311 1310 1308
f 1312 1260 1310
f 1259 1310 1260
f 1312 1313 1260
f 1313 1262 1260
f 1261 1262 1263
f 1314 1263 1262
f 1314 1262 1315
f 1313 1315 1262
f 1314 1305 1263
f 1263 1305 1264
f 1290 1289 1283
f 1266 1283 1289
f 1316 1268 1317
f 1269 1317 1268
f 1267 1268 1318
f 1316 1318 1268
f 1267 1318 1270
f 1319 1270 1318
f 1317 1269 1320
f 1272 1320 1269
f 1274 1270 1321
f 1270 1319 1321
f 1276 1322 1271
f 1272 1271 1322
f 1320 1272 1323
f 1272 1322 1323
f 1324 1278 1274
f 1273 1274 1278
f 1325 1274 1321
f 1326 1324 1325
f 1325 1324 1274
f 1279 1327 1275
f 1276 1275 1327
f 1328 1322 1327
f 1276 1327 1322
f 1277 1278 1280
f 1329 1280 1278
f 1278 1324 1329
f 1330 1329 1324
f 1279 1282 1327
f 1331 1327 1282
f 1284 1280 1332
f 1329 1332 1280
f 1333 1282 1286
f 1281 1286 1282
f 1334 1331 1333
f 1282 1333 1331
f 1335 1290 1284
f 1283 1284 1290
f 1336 1335 1332
f 1284 1332 1335
f 1285 1287 1286
f 1337 1286 1287
f 1286 1337 1333
f 1338 1333 1337
f 1288 1339 1287
f 1337 1287 1339
f 1290 1335 1288
f 1339 1288 1335
f 1291 1293 1340
f 1341 1340 1293
f 1291 1340 1292
f 1342 1292 1340
f 1342 1343 1292
f 1294 1292 1343
f 1344 1293 1296
f 1344 1341 1293
f 1343 1345 1294
f 1298 1294 1345
f 1346 1296 1300
f 1295 1300 1296
f 1344 1296 1347
f 1348 1347 1346
f 1346 1347 1296
f 1302 1297 1349
f 1298 1349 1297
f 1350 1298 1345
f 1350 1349 1298
f 1299 1303 1300
f 1351 1300 1303
f 1300 1351 1346
f 1352 1346 1351
f 1304 1301 1353
f 1302 1353 1301
f 1354 1353 1349
f 1302 1349 1353
f 1307 1355 1303
f 1351 1303 1355
f 1304 1353 1309
f 1356 1309 1353
f 1315 1306 1314
f 1305 1314 1306
f 1357 1307 1315
f 1306 1315 1307
f 1358 1355 1357
f 1355 1307 1357
f 1359 1311 1309
f 1308 1309 1311
f 1360 1359 1356
f 1309 1356 1359
f 1310 1311 1312
f 1361 1312 1311
f 1311 1359 1361
f 1362 1361 1359
f 1313 1312 1363
f 1361 1363 1312
f 1315 1313 1357
f 1363 1357 1313
f 1317 1364 1316
f 1316 1364 1365
f 1316 1365 1318
f 1366 1318 1365
f 1320 1367 1317
f 1364 1317 1367
f 1368 1319 1366
f 1318 1366 1319
f 1319 1368 1321
f 1367 1320 1323
f 1369 1326 1321
f 1326 1325 1321
f 1370 1369 1321
f 1370 1321 1371
f 1321 1368 1371
f 1322 1369 1323
f 1370 1323 1369
f 1322 1328 1372
f 1373 1372 1328
f 1322 1372 1369
f 1371 1367 1323
f 1371 1323 1370
f 1324 1326 1330
f 1374 1330 1326
f 1369 1372 1326
f 1372 1373 1326
f 1374 1326 1373
f 1375 1328 1331
f 1327 1331 1328
f 1328 1375 1373
f 1375 1376 1373
f 1377 1332 1330
f 1329 1330 1332
f 1330 1374 1377
f 1378 1377 1374
f 1379 1375 1334
f 1331 1334 1375
f 1332 1377 1336
f 1336 1377 1380
f 1333 1338 1334
f 1381 1334 1338
f 1382 1379 1381
f 1381 1379 1334
f 1335 1336 1339
f 1383 1339 1336
f 1336 1380 1383
f 1383 1380 1384
f 1338 1337 1383
f 1339 1383 1337
f 1381 1338 1384
f 1383 1384 1338
f 1344 1385 1341
f 1385 1386 1341
f 1340 1341 1386
f 1342 1340 1387
f 1386 1387 1340
f 1343 1342 1388
f 1342 1387 1388
f 1345 1343 1389
f 1388 1389 1343
f 1344 1348 1390
f 1344 1347 1348
f 1344 1390 1391
f 1391 1392 1344
f 1344 1392 1385
f 1350 1345 1389
f 1346 1352 1348
f 1393 1348 1352
f 1348 1394 1390
f 1348 1395 1394
f 1395 1348 1393
f 1349 1350 1390
f 1391 1390 1350
f 1349 1394 1354
f 1395 1354 1394
f 1390 1394 1349
f 1350 1389 1392
f 1391 1350 1392
f 1396 1352 1355
f 1352 1351 1355
f 1352 1396 1393
f 1396 1397 1393
f 1398 1356 1354
f 1353 1354 1356
f 1354 1395 1398
f 1398 1395 1399
f 1355 1358 1396
f 1400 1396 1358
f 1401 1360 1398
f 1356 1398 1360
f 1357 1363 1358
f 1402 1358 1363
f 1358 1402 1400
f 1403 1400 1402
f 1359 1360 1362
f 1404 1362 1360
f 1405 1404 1401
f 1401 1404 1360
f 1362 1402 1361
f 1363 1361 1402
f 1404 1403 1362
f 1402 1362 1403
f 1364 1406 1365
f 1406 1366 1365
f 1406 1364 1367
f 1366 1406 1368
f 1371 1407 1367
f 1406 1367 1407
f 1371 1368 1407
f 1406 1407 1368
f 1373 1376 1408
f 1373 1408 1374
f 1409 1374 1410
f 1374 1408 1410
f 1409 1378 1374
f 1375 1379 1411
f 1411 1376 1375
f 1408 1376 1410
f 1376 1411 1410
f 1377 1378 1380
f 1412 1380 1378
f 1409 1413 1378
f 1378 1413 1412
f 1414 1412 1413
f 1411 1379 1415
f 1415 1379 1382
f 1380 1412 1384
f 1416 1384 1412
f 1416 1382 1384
f 1381 1384 1382
f 1382 1417 1415
f 1417 1382 1418
f 1382 1416 1418
f 1419 1418 1416
f 1392 1420 1385
f 1421 1385 1420
f 1385 1421 1386
f 1387 1386 1421
f 1387 1421 1388
f 1389 1388 1421
f 1392 1389 1420
f 1421 1420 1389
f 1422 1393 1423
f 1422 1424 1393
f 1393 1424 1395
f 1393 1397 1423
f 1424 1399 1395
f 1396 1400 1397
f 1425 1397 1400
f 1397 1426 1423
f 1397 1425 1426
f 1427 1426 1425
f 1428 1401 1398
f 1398 1399 1428
f 1422 1399 1424
f 1422 1428 1399
f 1400 1403 1425
f 1429 1425 1403
f 1430 1401 1428
f 1405 1401 1430
f 1429 1403 1405
f 1405 1403 1404
f 1430 1431 1405
f 1432 1405 1431
f 1405 1432 1429
f 1433 1429 1432
f 1434 1409 1410
f 1434 1435 1409
f 1435 1436 1409
f 1436 1413 1409
f 1411 1415 1410
f 1415 1437 1410
f 1437 1434 1410
f 1416 1412 1414
f 1414 1413 1436
f 1416 1414 1438
f 1414 1439 1438
f 1439 1414 1440
f 1441 1440 1414
f 1441 1414 1436
f 1437 1415 1442
f 1442 1415 1417
f 1419 1416 1438
f 1443 1444 1417
f 1442 1417 1444
f 1443 1417 1418
f 1419 1445 1418
f 1418 1445 1443
f 1445 1419 1438
f 1422 1430 1428
f 1422 1446 1430
f 1422 1447 1446
f 1422 1423 1447
f 1423 1448 1447
f 1423 1449 1448
f 1423 1426 1449
f 1427 1425 1429
f 1449 1426 1427
f 1450 1427 1429
f 1450 1451 1427
f 1452 1427 1451
f 1427 1452 1453
f 1449 1427 1453
f 1450 1429 1433
f 1454 1430 1446
f 1431 1430 1454
f 1455 1431 1456
f 1454 1456 1431
f 1432 1431 1455
f 1433 1432 1457
f 1432 1455 1457
f 1450 1433 1457
f 1458 1435 1444
f 1434 1444 1435
f 1442 1444 1437
f 1437 1444 1434
f 1441 1436 1435
f 1435 1458 1441
f 1440 1441 1458
f 1439 1445 1438
f 1440 1458 1439
f 1439 1458 1445
f 1458 1444 1445
f 1444 1443 1445
f 1454 1446 1456
f 1446 1447 1456
f 1459 1456 1448
f 1447 1448 1456
f 1448 1449 1453
f 1448 1453 1459
f 1452 1459 1453
f 1450 1457 1451
f 1452 1451 1459
f 1451 1457 1459
f 1459 1457 1456
f 1456 1457 1455
# Vertices: 1459, normals: 0, texture coordinates: 0, faces: 2916

