# File generated by ImageToStl.com - Free Image and 3D model conversion tools

o obj1
v 0.02386547 0.00803325 0.00302334
v 0.02021569 0.00901111 0.00826952
v 0.0208689 0.00413581 0.00905483
v 0.02538998 0.00402103 0.00167335
v 0.02390631 0.00728133 -0.0041483
v 0.02214259 0.01119724 0.00011841
v 0.01836343 0.01343248 0.00591979
v 0.01877851 0.00581566 -0.01397458
v 0.01985183 0.0114465 -0.00827137
v 0.0234207 0.00237538 -0.00603291
v 0.01550261 0.01183497 -0.01720482
v 0.01563904 0.01515854 -0.0113418
v 0.01131394 0.00279815 -0.02321436
v 0.00976047 0.00895286 -0.02376534
v 0.0121156 0.01529084 -0.01844209
v 0.00730572 0.0143891 -0.02230595
v 0.01073786 0.0180165 -0.01419476
v 0.00466172 0.01826436 -0.01747738
v 0.01215243 -0.28944156 0.02989165
v 0.01398563 -0.28894144 0.02743625
v 0.01145766 -0.28376874 0.02779239
v 0.01005504 -0.286441 0.03090152
v 0.01117051 -0.29329228 0.0307188
v 0.01370311 -0.2949281 0.02798331
v 0.00839132 -0.29021025 0.03237469
v -0.00022359 0.023031 0.00817183
v 0.00240969 0.02372215 0.00391563
v -0.00330949 0.02409583 0.00179816
v -0.00464023 0.02278094 0.0080541
v -0.00434993 0.02026748 0.01276944
v 0.00146008 0.02100367 0.01127085
v 0.00666542 0.02146536 0.00677717
v 0.00717728 -0.27631986 0.02476965
v 0.00379033 -0.27250102 0.0295377
v 0.00436806 -0.27608627 0.0339323
v 0.0079443 -0.27945617 0.03010765
v 0.00597339 -0.2708624 0.02136534
v 0.00351807 -0.26857576 0.02553748
v 0.01146798 -0.28255275 0.02326599
v 0.00491897 -0.27792004 0.01825419
v 0.0053022 -0.27315515 0.01652372
v 0.01019197 -0.28282496 0.01781668
v 0.01292497 -0.29154336 -0.01485974
v 0.01451467 -0.29073113 -0.01091102
v 0.0135022 -0.29602641 -0.01026691
v 0.0111087 -0.29589468 -0.01452511
v 0.00780918 -0.29326966 -0.0168946
v 0.01090677 -0.28828576 -0.01628181
v 0.01277194 -0.28583729 -0.01192896
v 0.01088256 -0.29942125 -0.00943919
v 0.0129183 -0.29544705 -0.00503081
v 0.00955801 -0.29944119 -0.00519527
v 0.00491043 -0.30093011 -0.00628446
v 0.00778504 -0.29972032 -0.01205485
v -0.00881661 0.01940666 0.01225159
v -0.01000773 0.02109873 0.00766372
v -0.01470553 0.01776076 0.00797048
v -0.01073837 0.01663444 0.01397655
v -0.00428197 0.01671083 0.0161829
v 0.00428016 -0.2748864 0.01263482
v 0.00558139 -0.27310225 0.00900989
v 0.00611747 -0.26970086 0.0132378
v 0.00447564 -0.27869216 0.01224412
v 0.00715591 -0.27818727 0.00536617
v 0.01004041 -0.28292137 0.01174537
v 0.01089285 -0.28343609 0.00593657
v 0.0111606 -0.28516281 0.00068788
v 0.00847062 -0.28101739 -0.00086403
v 0.00629951 -0.2780478 -0.00415651
v 0.00586423 -0.2750003 0.00071156
v 0.00570998 -0.27068046 0.00478138
v 0.00080944 -0.28667736 0.04207252
v 0.00103304 -0.28325084 0.04244715
v -0.00275512 -0.28343916 0.04325632
v -0.00157114 -0.28768691 0.04237252
v -8.549E-05 -0.29066953 0.03907076
v 0.00242085 -0.28846624 0.03934437
v 0.00384842 -0.28465891 0.03895088
v 0.00445703 -0.26267126 0.00516282
v 0.00581329 -0.26656294 0.00947907
v 0.0038115 -0.26867613 0.00030964
v 0.00522968 -0.25932592 0.01229579
v 0.00561676 -0.26324999 0.01474795
v 0.00137167 -0.26223329 -0.00185138
v 0.00117606 -0.25650993 0.00011021
v 0.0038429 -0.25615019 0.0055808
v 0.00487051 -0.25464424 0.01123301
v 0.00138111 -0.26766613 -0.00509851
v 0.00735878 -0.2795586 -0.00793105
v 0.00954157 -0.2819784 -0.00682936
v 0.00961219 -0.28203821 -0.01288947
v 0.00663713 -0.27902627 -0.01229724
v 0.00469162 -0.27638462 -0.00888135
v 0.0011948 -0.2996763 0.02971561
v -0.00024795 -0.29650274 0.03047594
v -0.00244042 -0.29680046 0.02826693
v 0.00032322 -0.30139735 0.02795645
v 0.00437336 -0.3001394 0.03054001
v 0.00288666 -0.29628941 0.03208922
v 0.00519825 -0.30345562 0.02820154
v -0.00367041 -0.28818047 0.0406407
v -0.0051659 -0.28533828 0.04007669
v -0.00276397 -0.29027349 0.03743996
v -0.00470798 -0.28810504 0.03537659
v -0.01357875 0.00906135 -0.01941824
v -0.01614083 0.0109061 -0.01486254
v -0.01137198 0.01583687 -0.014587
v -0.00899054 0.01194597 -0.02030458
v -0.0076657 0.00754426 -0.02487896
v -0.01389472 0.00500305 -0.02128136
v -0.01829048 0.00541867 -0.01522284
v -0.0046077 -0.28082809 0.02309535
v -0.00604082 -0.27473113 0.02996289
v -0.00607494 -0.27045265 0.02667043
v -0.00493969 -0.27454004 0.02196816
v -0.00226323 -0.27675962 0.01562061
v -0.00187185 -0.28241012 0.01483403
v -0.00275803 -0.28784308 0.01204219
v -0.00418973 -0.28815645 0.018165
v -0.0055444 -0.28939381 0.02337827
v -0.00602984 -0.28349838 0.02846218
v -0.00622043 -0.27820659 0.03394781
v -0.00184162 -0.29815188 -4.324E-05
v -2.029E-05 -0.29684094 0.00635679
v -0.0025687 -0.29280081 0.00863506
v -0.00396451 -0.29247868 0.00416824
v 0.00367696 -0.30030414 0.00014417
v 0.00450524 -0.29856706 0.00563584
v -0.00622738 -0.28944862 0.00072646
v -0.00542032 -0.29279441 -0.00461
v 0.0004361 -0.29881218 -0.00831183
v -0.00293169 -0.29325283 -0.01194044
v -0.00497567 -0.28641751 0.00346962
v -0.00504697 -0.28251481 0.00301509
v -0.00782429 -0.28443497 -0.00138609
v -0.00334698 -0.28743657 0.00681229
v -0.00217353 -0.28246373 0.00804483
v -0.00232894 -0.27727404 0.00880243
v -0.00563662 -0.2777701 0.00317364
v -0.00413803 -0.27247512 0.00931065
v -0.00662313 -0.27291292 0.00389377
v -0.00863765 -0.27311873 -0.00170687
v -0.00856859 -0.27870566 -0.00210253
v -0.0089209 -0.27403858 -0.00765593
v -0.00865699 -0.28003132 -0.00824401
v -0.00745066 -0.28648847 -0.00711615
v -0.00659935 -0.28035817 -0.01442141
v -0.00498334 -0.2867099 -0.01416238
v -0.00369099 -0.27918324 -0.01850248
v -0.00177517 -0.28559667 -0.01940735
v 0.00049684 -0.29220214 -0.01761265
v 0.00196756 -0.28318492 -0.02039117
v 0.00467964 -0.28926423 -0.01910745
v 0.00384559 -0.29722759 -0.01454316
v 0.00488805 -0.28018254 -0.01731763
v 0.0078771 -0.28457573 -0.01743697
v -0.00013804 -0.27722076 -0.01859279
v 0.00272209 -0.27610466 -0.0143301
v -0.00128846 -0.27202404 -0.01487041
v 0.00166221 -0.27200839 -0.00986722
v 0.00389626 -0.27315265 -0.00404726
v -0.00160876 -0.2672337 -0.01044795
v -0.00470331 -0.2678487 -0.01309953
v -0.00445342 -0.26177174 -0.01049028
v -0.00170008 -0.26183027 -0.00712638
v -0.00477389 -0.27343833 -0.0160671
v -0.00756719 -0.27438545 -0.01311693
v -0.00746203 -0.26852781 -0.01107545
v -0.00874879 -0.26825193 -0.00671529
v -0.00841162 -0.26226366 -0.00599569
v -0.00721689 -0.26210544 -0.00972866
v -0.00828712 -0.25634003 -0.00504128
v -0.00694825 -0.25586814 -0.00823402
v -0.00416253 -0.25576288 -0.00805674
v -0.00669727 -0.24996838 -0.00680404
v -0.00390295 -0.25001478 -0.0060096
v -0.0014181 -0.25045854 -0.00256814
v -0.00153971 -0.2561895 -0.00456676
v 0.00101394 -0.25070187 0.00149783
v -0.00169246 -0.2447864 -0.00115982
v 0.00075524 -0.24498889 0.00242153
v 0.00321765 -0.24486901 0.00620226
v 0.00346677 -0.25044745 0.00595584
v 0.00425881 -0.24428117 0.01049947
v 0.00455404 -0.24952343 0.01075363
v 0.00257714 -0.24336624 0.01454344
v 0.00283996 -0.24820402 0.01512327
v 0.00308354 -0.25276163 0.01600884
v -0.00027734 -0.24713296 0.01825193
v -0.00022134 -0.25145262 0.01929251
v -0.00011148 -0.25548121 0.02072205
v 0.00316873 -0.25696602 0.01731212
v -6.964E-05 -0.25937438 0.02259493
v 0.00320901 -0.26086101 0.01932598
v -1.32E-05 -0.26317906 0.02515979
v 0.00328926 -0.26467395 0.02210121
v 0.00574368 -0.26687238 0.01792648
v 3.652E-05 -0.26686168 0.02845477
v -0.00364263 -0.26320326 0.02618662
v -0.00386388 -0.26712468 0.02913592
v -0.00397215 -0.27073556 0.03296698
v 8.674E-05 -0.27031219 0.03254726
v -0.00385336 -0.27429631 0.0374786
v 0.00043888 -0.27390879 0.03719479
v -0.00343049 -0.27852902 0.04160485
v 0.00097557 -0.27831036 0.04115313
v 0.00452535 -0.28014547 0.03739104
v 0.00722575 -0.28291327 0.03332423
v 0.00593516 -0.28702345 0.03505959
v 0.00406797 -0.29077128 0.03564637
v 0.00610193 -0.29413497 0.03282687
v 0.00135316 -0.29302856 0.03502203
v 0.00853923 -0.29803127 0.0311036
v 0.0105575 -0.30081081 0.02850653
v 0.0054958 -0.30333853 0.02362307
v 0.01088271 -0.30058199 0.023668
v 0.01402077 -0.29474327 0.0229497
v 0.00990542 -0.29786226 0.01736769
v 0.0126838 -0.29303795 0.0168892
v 0.01300975 -0.28766215 0.01685789
v 0.01428813 -0.28841582 0.02255952
v 0.01186018 -0.29196757 0.01060597
v 0.0124344 -0.28721261 0.01097034
v 0.01227197 -0.29296383 0.00531033
v 0.01276685 -0.28795689 0.00565893
v 0.01205575 -0.29444903 0.00039631
v 0.01279596 -0.28963676 0.00073546
v 0.01382601 -0.29044399 -0.00500678
v 0.01227517 -0.28576231 -0.0055184
v 0.00914971 -0.29704329 0.00535168
v 0.00869248 -0.29846478 0.00025049
v 0.00911751 -0.29598486 0.0108214
v 0.00490663 -0.2976985 0.01122977
v 0.00526136 -0.30025116 0.01764124
v -1.582E-05 -0.29901284 0.01778512
v 0.00041023 -0.29653186 0.01196336
v -0.00407261 -0.29491258 0.01929611
v -0.00294866 -0.2932274 0.01410015
v -0.00424902 -0.29667896 0.02415533
v -0.00515437 -0.29080126 0.02753146
v -0.00035602 -0.30155829 0.0233081
v -0.00353659 -0.29184029 0.03088032
v -0.00576784 -0.28577682 0.03252807
v -0.00601401 -0.28150621 0.03790202
v -0.00146771 -0.29284585 0.03319588
v -0.00619206 -0.26575777 0.02407605
v -0.00365398 -0.25908887 0.02407863
v -0.0062581 -0.26109305 0.0221236
v -0.00676158 -0.26393506 0.01847178
v -0.00587123 -0.26921675 0.02016877
v -0.00618788 -0.26630467 0.01412272
v -0.00411983 -0.27158776 0.01510386
v -0.00625308 -0.26747701 0.00933635
v -0.0074941 -0.26077342 0.01345798
v -0.00749682 -0.26197925 0.00905268
v -0.008238 -0.26238438 0.00427437
v -0.00753027 -0.26776373 0.0042507
v -0.00871333 -0.26230764 -0.00096615
v -0.00876758 -0.26773307 -0.00134912
v -0.00832187 -0.25678578 0.00424445
v -0.00848655 -0.25671208 -0.00052646
v -0.00892424 -0.25117713 0.00435239
v -0.00863822 -0.25101969 1.518E-05
v -0.00814248 -0.25049543 -0.00404826
v -0.00903457 -0.24531834 0.00038749
v -0.00839742 -0.24481364 -0.00335051
v -0.00663865 -0.24436954 -0.00577601
v -0.00873874 -0.23932232 -0.00305104
v -0.00684036 -0.23894419 -0.00514044
v -0.00416711 -0.23903742 -0.00361374
v -0.00389796 -0.24444464 -0.00452946
v -0.00206155 -0.23934355 -0.00032747
v -0.00457553 -0.23380102 -0.00304272
v -0.0022196 -0.2340606 -3.971E-05
v 0.00040063 -0.23423095 0.00286482
v 0.0004824 -0.23950075 0.00285508
v 0.00284576 -0.23425752 0.00603281
v 0.00301752 -0.23948665 0.00625211
v 0.003854 -0.23400605 0.00984478
v 0.00396361 -0.23911005 0.01026271
v 0.00204724 -0.2334713 0.01346919
v 0.00223576 -0.23842067 0.01401875
v -0.00081554 -0.23295586 0.01625951
v -0.00064648 -0.23780222 0.01687987
v -0.00043504 -0.24256317 0.01746866
v -0.00388498 -0.23744577 0.01870663
v -0.00378267 -0.24211188 0.01929885
v -0.00370521 -0.24655262 0.02013741
v -0.00701709 -0.24243034 0.01871956
v -0.00685157 -0.2471157 0.01935027
v -0.0067093 -0.25176209 0.02010896
v -0.00370443 -0.25082546 0.02123125
v -0.00647916 -0.25642636 0.02094502
v -0.00369835 -0.25497594 0.02251664
v -0.00784864 -0.25353754 0.01699163
v -0.00736224 -0.25867328 0.01753565
v -0.00821104 -0.25525269 0.01306739
v -0.00831286 -0.24844569 0.01650965
v -0.00884616 -0.24985394 0.01276405
v -0.00885508 -0.25079316 0.00863572
v -0.00821529 -0.25636312 0.00880661
v -0.00947689 -0.24448375 0.01250651
v -0.00948831 -0.24525893 0.0084825
v -0.00931644 -0.2455174 0.00440098
v -0.00996678 -0.23977378 0.0082496
v -0.00982689 -0.23996462 0.00429149
v -0.00957607 -0.239769 0.00046393
v -0.01035354 -0.23451948 0.00401524
v -0.0101208 -0.23434933 0.00031988
v -0.00926383 -0.2339838 -0.00298439
v -0.01056267 -0.22901067 -0.00010654
v -0.00964275 -0.22870812 -0.0032981
v -0.0074714 -0.22852208 -0.00463084
v -0.00715383 -0.23368929 -0.00469378
v -0.00491588 -0.22865473 -0.00292638
v -0.00774679 -0.22332844 -0.00477939
v -0.0051843 -0.22353682 -0.00307211
v -0.00256885 -0.2238465 -0.00046715
v -0.00242681 -0.22890688 -0.00010851
v 0.00021853 -0.22408453 0.00205225
v 0.00031168 -0.22910635 0.00254801
v 0.00273066 -0.22415879 0.00496931
v 0.00275001 -0.22916207 0.00557728
v 0.00361268 -0.22398335 0.00865219
v 0.00376761 -0.22895882 0.0092785
v 0.00165271 -0.22358474 0.01205248
v 0.00181333 -0.22853678 0.01277076
v -0.00116578 -0.22313708 0.01473945
v -0.00107377 -0.22806814 0.01543453
v -0.00425592 -0.2227827 0.01643739
v -0.00412176 -0.22770108 0.01723397
v -0.00399327 -0.23260054 0.01803416
v -0.00736226 -0.22774336 0.01688515
v -0.00721873 -0.23270474 0.01761777
v -0.00712104 -0.23761936 0.01822792
v -0.00931674 -0.23323876 0.01517527
v -0.00908657 -0.23830433 0.01568386
v -0.00859611 -0.24338982 0.01603669
v -0.0097868 -0.23914003 0.01219724
v -0.01021637 -0.23388672 0.01177598
v -0.0105582 -0.23438129 0.00786583
v -0.0107212 -0.22867864 0.0112341
v -0.01104648 -0.22907031 0.00734077
v -0.01087056 -0.22917333 0.00348773
v -0.0114337 -0.22384125 0.00671851
v -0.01138906 -0.2239264 0.00282895
v -0.01098081 -0.22374593 -0.00071043
v -0.01180294 -0.21870516 0.00217991
v -0.01143172 -0.21852921 -0.00129116
v -0.01032934 -0.21826637 -0.00413247
v -0.01000281 -0.22346461 -0.00374389
v -0.00798617 -0.21819714 -0.00490127
v -0.01062133 -0.21315503 -0.00452874
v -0.00814943 -0.21316087 -0.00506106
v -0.00536295 -0.21346761 -0.00368701
v -0.00538043 -0.21846724 -0.00326979
v -0.00258918 -0.21386862 -0.00155421
v -0.00265436 -0.21884274 -0.00094746
v 0.00036854 -0.21421449 0.00082877
v 0.00019565 -0.219134 0.00147659
v 0.00280161 -0.21432027 0.00377698
v 0.00266643 -0.21922101 0.00440559
v 0.00354337 -0.2141234 0.00738999
v 0.00351778 -0.21905261 0.00803802
v 0.00163222 -0.213679 0.01070506
v 0.00160806 -0.21864037 0.0113832
v -0.00125191 -0.21321642 0.01321428
v -0.00122119 -0.21818559 0.01401996
v -0.00430458 -0.21280475 0.01487805
v -0.00431645 -0.21782041 0.01566471
v -0.00748945 -0.21263807 0.01448377
v -0.00752228 -0.21769789 0.01529993
v -0.00750674 -0.2227371 0.01610241
v -0.00990039 -0.21793097 0.01302997
v -0.00976922 -0.22304939 0.0138169
v -0.00948572 -0.22815047 0.01451258
v -0.01097924 -0.22349636 0.01056267
v -0.01125449 -0.21833806 0.00977205
v -0.01180642 -0.21864292 0.00600451
v -0.01137696 -0.21318445 0.00897945
v -0.01231719 -0.21345414 0.00528471
v -0.0124301 -0.21349776 0.00151757
v -0.01259902 -0.20824094 0.00464518
v -0.01282541 -0.20828809 0.00089095
v -0.01227428 -0.2081714 -0.00242563
v -0.01196673 -0.2133514 -0.00188553
v -0.01083712 -0.20805436 -0.005022
v -0.01244988 -0.20300588 -0.00276893
v -0.01090375 -0.20292577 -0.00535141
v -0.00809368 -0.20311055 -0.00579376
v -0.0081512 -0.20814633 -0.00556282
v -0.00507532 -0.20352679 -0.00453151
v -0.00529051 -0.2084839 -0.0041537
v -0.00214134 -0.20396043 -0.0024071
v -0.0024161 -0.20890778 -0.00208391
v 0.00097493 -0.20432632 -0.00024123
v 0.00067243 -0.20928489 0.00018704
v 0.00331122 -0.20443188 0.00268362
v 0.0029383 -0.20937718 0.00321835
v 0.00366992 -0.20413701 0.00625853
v 0.00356646 -0.2091559 0.00678112
v 0.00179598 -0.20362934 0.00948035
v 0.00169482 -0.20869143 0.01006382
v -0.00103568 -0.20312701 0.01182013
v -0.00117195 -0.20820151 0.01251245
v -0.00398382 -0.20268823 0.01359461
v -0.00418689 -0.20776041 0.01421203
v -0.00716487 -0.20246169 0.01318135
v -0.00737685 -0.20756026 0.01380334
v -0.00985782 -0.20255728 0.01095004
v -0.00995711 -0.20769879 0.01152996
v -0.00996006 -0.21281898 0.01223321
v -0.01158043 -0.20800942 0.00829739
v -0.01163074 -0.20280766 0.00775862
v -0.01277595 -0.20301329 0.00417931
v -0.01146618 -0.19756067 0.00743924
v -0.01277796 -0.19773988 0.00395795
v -0.01319668 -0.19783822 0.00036453
v -0.01302018 -0.20308059 0.00053349
v -0.01254284 -0.19782628 -0.00294161
v -0.01314765 -0.1925796 0.00040543
v -0.01247058 -0.1926109 -0.00292016
v -0.01061252 -0.1926748 -0.00537111
v -0.01080082 -0.19781747 -0.00544103
v -0.00751653 -0.19302131 -0.00583752
v -0.00786196 -0.19808355 -0.00590226
v -0.0042841 -0.19354635 -0.00480094
v -0.00477175 -0.19854517 -0.00468705
v -0.00096074 -0.19404556 -0.00314398
v -0.00157809 -0.19901405 -0.00284612
v 0.00207072 -0.19432467 -0.00088673
v 0.00149911 -0.19936273 -0.00066787
v 0.00417876 -0.19427146 0.00206187
v 0.00366961 -0.19939795 0.00232801
v 0.00386227 -0.1937822 0.00552584
v 0.00379412 -0.19901828 0.00581323
v 0.00208867 -0.19321954 0.0088052
v 0.00192852 -0.19846767 0.00902268
v -0.00052855 -0.19276455 0.01126407
v -0.0007659 -0.19799338 0.01142565
v -0.0034178 -0.1924004 0.0130383
v -0.00372073 -0.19759741 0.01317486
v -0.00653969 -0.19213125 0.01267454
v -0.00689846 -0.1973488 0.01277329
v -0.00927033 -0.19209062 0.01055955
v -0.00962777 -0.19736154 0.01058806
v -0.01120603 -0.19225644 0.00746667
v -0.00884395 -0.1867868 0.01070879
v -0.01089083 -0.18693712 0.00769398
v -0.01229108 -0.187132 0.00424188
v -0.0125815 -0.19244665 0.00399533
v -0.01308173 -0.18727696 0.00066176
v -0.01221915 -0.18183297 0.00447102
v -0.0130047 -0.18199377 0.00083968
v -0.01230677 -0.18211059 -0.00252699
v -0.01237919 -0.18735805 -0.00269636
v -0.00996033 -0.18233518 -0.00481156
v -0.01030151 -0.1875041 -0.00506938
v -0.00662747 -0.18279871 -0.00539013
v -0.00707322 -0.1879169 -0.00569083
v -0.00310827 -0.1834041 -0.00471174
v -0.00369013 -0.18850575 -0.0047979
v 0.00026606 -0.18389095 -0.00327727
v -0.00039449 -0.18898046 -0.00313423
v 0.00334744 -0.18409714 -0.00118629
v 0.00266685 -0.18920037 -0.0009723
v 0.00497606 -0.18381338 0.00198262
v 0.00461129 -0.18903433 0.00205746
v 0.00430023 -0.18321167 0.00546685
v 0.00410442 -0.18849202 0.00554392
v 0.00241738 -0.18259433 0.0085923
v 0.00222065 -0.18790486 0.00872144
v -2.133E-05 -0.18208979 0.01118422
v -0.00027241 -0.18744668 0.01127515
v -0.00275612 -0.1816882 0.01299495
v -0.00306103 -0.18708606 0.01309463
v -0.00577115 -0.18148533 0.012709
v -0.00611745 -0.18683432 0.01272302
v -0.00852545 -0.18148571 0.01079485
v -0.00552475 -0.17613728 0.01257136
v -0.00831346 -0.17620219 0.01065713
v -0.01048145 -0.17636845 0.00784742
v -0.01060225 -0.18165222 0.00783253
v -0.01214262 -0.17657399 0.00449174
v -0.01050796 -0.17110372 0.00769976
v -0.01219337 -0.17129822 0.00441267
v -0.01259584 -0.17149626 0.00077388
v -0.01281763 -0.17674966 0.00085992
v -0.01185247 -0.1716736 -0.00254158
v -0.01201819 -0.17688979 -0.00246196
v -0.00921505 -0.17203432 -0.00466158
v -0.00960058 -0.17718007 -0.00469313
v -0.00567923 -0.17259941 -0.005175
v -0.00616685 -0.17768674 -0.00517474
v -0.00201908 -0.173199 -0.00479799
v -0.00257454 -0.17827937 -0.00457605
v 0.00153519 -0.17367381 -0.00383308
v 0.00085304 -0.17876291 -0.00341326
v 0.00454314 -0.1738257 -0.00185169
v 0.0039146 -0.17897153 -0.0014229
v 0.00579878 -0.17338759 0.00138053
v 0.00533904 -0.17860804 0.00178885
v 0.00485036 -0.17268111 0.00478444
v 0.0045092 -0.17795204 0.00519533
v 0.0029431 -0.17200039 0.0078926
v 0.00263545 -0.17728844 0.00828901
v 0.00050967 -0.17142493 0.01051276
v 0.00018831 -0.17674012 0.0108155
v -0.00221459 -0.17098367 0.01245593
v -0.00247055 -0.17630874 0.01274607
v -0.00537508 -0.17082113 0.01234544
v -0.00202511 -0.16572537 0.01201236
v -0.00518241 -0.1655591 0.0119754
v -0.00803483 -0.16567272 0.0100752
v -0.00808823 -0.17092775 0.0103239
v -0.01041837 -0.16586459 0.00737237
v -0.00798866 -0.16043001 0.00979024
v -0.01046244 -0.16062146 0.00711465
v -0.01220991 -0.16079679 0.00388033
v -0.01219211 -0.16604057 0.00415564
v -0.01248045 -0.16100913 0.00025551
v -0.01262439 -0.16622122 0.00058188
v -0.0112519 -0.16132799 -0.0030614
v -0.01156355 -0.16647369 -0.00274639
v -0.00831814 -0.1618126 -0.00516155
v -0.00878061 -0.16691409 -0.00483874
v -0.00471567 -0.16243987 -0.00605561
v -0.00519191 -0.1675332 -0.00546528
v -0.00106179 -0.16296691 -0.00580706
v -0.00149901 -0.1681142 -0.00519121
v 0.00252031 -0.16336685 -0.00498845
v 0.00210178 -0.16856155 -0.00442643
v 0.0054457 -0.16334009 -0.00294296
v 0.00503623 -0.1685791 -0.00236339
v 0.00657581 -0.16285202 0.00032681
v 0.00617314 -0.16810943 0.00086673
v 0.00564263 -0.16217966 0.00378606
v 0.00518479 -0.16741818 0.00425418
v 0.00360904 -0.16151682 0.00691474
v 0.00326856 -0.16675338 0.00741578
v 0.00100994 -0.16093686 0.00954171
v 0.00076807 -0.16618149 0.0100403
v -0.00179082 -0.16048896 0.01163513
v 0.00125809 -0.15574661 0.00902831
v -0.00155798 -0.15526405 0.01122556
v -0.00489203 -0.15507413 0.0113532
v -0.00499195 -0.1603132 0.01162941
v -0.00793394 -0.15519911 0.0094945
v -0.00475501 -0.14986707 0.01099072
v -0.00779976 -0.14999673 0.00906245
v -0.01031831 -0.15018962 0.00641004
v -0.01038262 -0.15540275 0.00676107
v -0.01187386 -0.15042911 0.00320961
v -0.01209594 -0.15559988 0.00356031
v -0.01218982 -0.15074323 -0.0004496
v -0.01233875 -0.1558741 -8.887E-05
v -0.01067877 -0.15112512 -0.00372874
v -0.01092413 -0.15622666 -0.00338993
v -0.00753253 -0.15156743 -0.00577245
v -0.00787499 -0.15668291 -0.00541309
v -0.00383536 -0.15205158 -0.00680985
v -0.00424956 -0.15724707 -0.00649112
v -6.642E-05 -0.15251453 -0.00716055
v -0.000535 -0.15774952 -0.0064963
v 0.0035119 -0.15282486 -0.00642935
v 0.00297076 -0.15810864 -0.00559158
v 0.00634968 -0.15275814 -0.00427622
v 0.0059079 -0.15810649 -0.00362472
v 0.00721617 -0.1523013 -0.0008962
v 0.00693839 -0.15760547 -0.00028206
v 0.00624365 -0.15170842 0.00265367
v 0.00594122 -0.15694046 0.00321462
v 0.00421373 -0.15111224 0.00589665
v 0.0038744 -0.15630686 0.00636637
v 0.00153696 -0.1505421 0.00858618
v 0.00449824 -0.14593491 0.00544321
v 0.00175836 -0.1453722 0.00809372
v -0.00111835 -0.14489152 0.0104089
v -0.00131834 -0.15007049 0.01082586
v -0.0045876 -0.14468485 0.01057435
v -0.00094839 -0.13973998 0.00992905
v -0.00446787 -0.13950802 0.01014271
v -0.00770627 -0.13958837 0.00837516
v -0.00774028 -0.14478421 0.0087355
v -0.01027891 -0.13978793 0.00566211
v -0.01027346 -0.14499103 0.0060439
v -0.01174185 -0.14005263 0.00227311
v -0.01177156 -0.14524592 0.00278543
v -0.01203715 -0.1404108 -0.00138768
v -0.01209888 -0.14559245 -0.00088073
v -0.01029764 -0.14085053 -0.00457504
v -0.01043549 -0.14600779 -0.00409723
v -0.00706063 -0.14129521 -0.00661942
v -0.00725091 -0.14645374 -0.00615884
v -0.00339212 -0.14166278 -0.0078678
v -0.00354649 -0.14687082 -0.00729337
v 0.00041879 -0.1418892 -0.00834467
v 0.00024457 -0.14722 -0.0078167
v 0.00404827 -0.14192957 -0.00753814
v 0.00383448 -0.14738646 -0.00705043
v 0.00693766 -0.14189447 -0.00534643
v 0.00667404 -0.14732532 -0.00485431
v 0.00792369 -0.1416612 -0.00187371
v 0.00762809 -0.14697403 -0.00141494
v 0.00694302 -0.1412717 0.00177143
v 0.0066056 -0.14648435 0.00219132
v 0.00482116 -0.14077166 0.0050389
v 0.00733157 -0.13605581 0.00140223
v 0.00522971 -0.13562542 0.00471562
v 0.0023661 -0.13512449 0.00737382
v 0.00196886 -0.14024772 0.00767988
v -0.00072642 -0.13463885 0.00951787
v 0.00272792 -0.12998977 0.00710188
v -0.00042919 -0.12954241 0.0091835
v -0.0041152 -0.12926912 0.00938623
v -0.00431085 -0.13437499 0.0097348
v -0.00743929 -0.12925133 0.00750112
v -0.00759227 -0.13440876 0.0079215
v -0.01017419 -0.12933607 0.00483072
v -0.01028606 -0.13456067 0.00527202
v -0.01167278 -0.1295507 0.00128085
v -0.01167374 -0.13481978 0.00177858
v -0.01191964 -0.1298945 -0.00247457
v -0.01199918 -0.13517447 -0.00190489
v -0.0100693 -0.13039541 -0.0057572
v -0.01019278 -0.13564226 -0.00510945
v -0.00685588 -0.13086908 -0.00801768
v -0.00695112 -0.13609742 -0.00723319
v -0.00316685 -0.13116319 -0.00938118
v -0.00330422 -0.13644192 -0.00868001
v 0.0007326 -0.13123986 -0.00948194
v 0.00055149 -0.13656682 -0.00895135
v 0.00445789 -0.13120101 -0.00851236
v 0.00422058 -0.13654064 -0.00798493
v 0.00745853 -0.13114811 -0.00615251
v 0.00720112 -0.13650097 -0.00575876
v 0.00868012 -0.13107766 -0.00262255
v 0.00830039 -0.13636173 -0.0022706
v 0.0077737 -0.13084468 0.00109219
v 0.00906713 -0.12581392 -0.00291392
v 0.00825109 -0.12562533 0.00085479
v 0.00606821 -0.1253006 0.00419481
v 0.00566941 -0.1304694 0.0044424
v 0.00313652 -0.12488256 0.00689865
v 0.00646396 -0.120123 0.00402358
v 0.00350769 -0.11976042 0.00676782
v 0.00015475 -0.11935928 0.00873586
v -0.0001134 -0.1244585 0.00894885
v -0.00365358 -0.1190818 0.00884488
v -0.00389369 -0.1241801 0.00909309
v -0.00712729 -0.11898521 0.00702184
v -0.00735354 -0.12409721 0.00733463
v -0.00986931 -0.11899883 0.00409862
v -0.00999844 -0.12414614 0.00441674
v -0.01148893 -0.11911698 0.00042762
v -0.01150798 -0.12431728 0.00081027
v -0.01158191 -0.11936995 -0.00352868
v -0.01174811 -0.12462739 -0.00304936
v -0.00973297 -0.1197495 -0.00699386
v -0.0099006 -0.12511419 -0.00644425
v -0.00662576 -0.12014502 -0.0094228
v -0.00675729 -0.12556888 -0.00883838
v -0.00284754 -0.12040489 -0.01057689
v -0.00300509 -0.12581989 -0.01006151
v 0.00115327 -0.12050758 -0.01052818
v 0.00093984 -0.12587281 -0.00996163
v 0.00493562 -0.12052857 -0.0093187
v 0.00466961 -0.12584056 -0.00885689
v 0.0079915 -0.1205771 -0.00675994
v 0.00771444 -0.12584366 -0.00648568
v 0.00940649 -0.12055856 -0.00317879
v 0.0083741 -0.11533161 -0.00706133
v 0.00980588 -0.11532521 -0.00341713
v 0.00900528 -0.11518029 0.00043324
v 0.00858152 -0.12038999 0.00059612
v 0.00685113 -0.11494742 0.00388524
v 0.00938192 -0.10996246 0.00023145
v 0.0071843 -0.10975958 0.00365637
v 0.00423973 -0.10946574 0.0064604
v 0.0038661 -0.11461593 0.00663355
v 0.00077306 -0.10912213 0.00830606
v 0.00044821 -0.11424322 0.00844586
v -0.00316182 -0.10889449 0.00838622
v -0.00340803 -0.11398282 0.00859534
v -0.0067338 -0.10879236 0.00658255
v -0.0069455 -0.11389062 0.00678943
v -0.00945523 -0.10871878 0.00361946
v -0.00964682 -0.11387535 0.00380933
v -0.01098005 -0.10868096 -0.00012788
v -0.01123454 -0.11391993 0.00010387
v -0.01109459 -0.10875786 -0.004115
v -0.0113923 -0.1140705 -0.00385622
v -0.00915957 -0.10899568 -0.00761217
v -0.00949104 -0.1143465 -0.00733744
v -0.00600333 -0.1093187 -0.01019581
v -0.00636694 -0.11470364 -0.00987394
v -0.00217628 -0.10960229 -0.01141218
v -0.0025379 -0.11499523 -0.01108759
v 0.00183451 -0.10976559 -0.01130855
v 0.00143134 -0.11512542 -0.01087429
v 0.00566966 -0.10991552 -0.009899
v 0.00525986 -0.11522064 -0.00961989
v 0.00873426 -0.11005536 -0.0072611
v 0.00607414 -0.10459029 -0.01008398
v 0.00913648 -0.10474754 -0.00747433
v 0.01058097 -0.10479154 -0.0038675
v 0.01020295 -0.110076 -0.00363959
v 0.00984453 -0.10473005 5.645E-05
v 0.01105949 -0.09948326 -0.00407701
v 0.01030744 -0.09947617 -0.0001149
v 0.00811316 -0.09937934 0.00336881
v 0.00764338 -0.10457037 0.0035101
v 0.00506807 -0.09917437 0.0061114
v 0.0046169 -0.10431521 0.00623095
v 0.0014811 -0.09892254 0.00797188
v 0.00109262 -0.10402421 0.00813452
v -0.00254554 -0.09869446 0.00805051
v -0.00289346 -0.10380697 0.00820501
v -0.00607389 -0.09850962 0.00619534
v -0.00641899 -0.10366515 0.00634671
v -0.00879461 -0.0983383 0.0032456
v -0.00919101 -0.10352089 0.003455
v -0.01031634 -0.09822539 -0.00055591
v -0.01073186 -0.10342383 -0.00031829
v -0.01015323 -0.09826744 -0.00462632
v -0.01067498 -0.10348219 -0.00435145
v -0.00840213 -0.09845378 -0.00822685
v -0.00876325 -0.10370731 -0.00788236
v -0.00519554 -0.09868638 -0.01075189
v -0.00559805 -0.10398736 -0.01046691
v -0.0013624 -0.09889556 -0.01208324
v -0.00177202 -0.10423657 -0.01178823
v 0.00265694 -0.09907847 -0.01166675
v 0.00224773 -0.10441303 -0.01156852
v 0.00652989 -0.09925426 -0.010321
v 0.00308041 -0.0937729 -0.01198588
v 0.00691851 -0.09391931 -0.01053423
v 0.00996765 -0.0940387 -0.00787193
v 0.00955063 -0.09939613 -0.00769068
v 0.01144867 -0.09416264 -0.00422482
v 0.01044568 -0.0887185 -0.0080619
v 0.01187502 -0.08880558 -0.00436167
v 0.01116746 -0.08883004 -0.00039336
v 0.01066071 -0.0941801 -0.00028741
v 0.00901467 -0.08882227 0.00313501
v 0.0086347 -0.0941276 0.00330823
v 0.00596068 -0.0887787 0.00597216
v 0.005583 -0.09399804 0.00609446
v 0.00223605 -0.08867297 0.00770298
v 0.00187766 -0.09380996 0.00783285
v -0.00179209 -0.08846327 0.00762676
v -0.00215497 -0.09357703 0.00784231
v -0.0054222 -0.08824685 0.00585757
v -0.00572048 -0.09336501 0.006027
v -0.00804911 -0.08809018 0.00272595
v -0.00829552 -0.09320889 0.00293587
v -0.00947651 -0.08795185 -0.00109028
v -0.00980039 -0.09308606 -0.00085453
v -0.00932968 -0.08788454 -0.00516303
v -0.00971127 -0.09308338 -0.0049138
v -0.00751042 -0.08796304 -0.00859996
v -0.00796487 -0.09321216 -0.00845566
v -0.00451028 -0.08810396 -0.01136501
v -0.00482913 -0.0933902 -0.01105321
v -0.00063414 -0.08829416 -0.01265547
v -0.00098271 -0.09357872 -0.01239781
v 0.00346534 -0.08848749 -0.01225078
v -0.00025716 -0.08304981 -0.01278115
v 0.00383068 -0.08325547 -0.01254799
v 0.00766274 -0.08336081 -0.01094515
v 0.00735903 -0.08861633 -0.0107952
v 0.0108244 -0.08338221 -0.00827919
v 0.00798518 -0.07812379 -0.01133244
v 0.0110462 -0.07806038 -0.00853843
v 0.01230852 -0.07797135 -0.00476676
v 0.01219506 -0.08339385 -0.00456176
v 0.01153229 -0.07807497 -0.00078582
v 0.0114264 -0.08344736 -0.00059888
v 0.00936461 -0.07823133 0.00272084
v 0.0092932 -0.08351907 0.00297776
v 0.00630635 -0.07832091 0.00548382
v 0.00619523 -0.08354323 0.00578402
v 0.00268274 -0.07830272 0.00725932
v 0.00246236 -0.08349491 0.00743003
v -0.00126416 -0.07818253 0.00715551
v -0.00148456 -0.08333756 0.0073548
v -0.00490103 -0.07804353 0.00544906
v -0.00514256 -0.08315489 0.00564038
v -0.00746295 -0.0778509 0.00226052
v -0.00776093 -0.08297526 0.00249228
v -0.00893774 -0.07762889 -0.00154208
v -0.00921268 -0.08279553 -0.00132066
v -0.00864896 -0.0774679 -0.00558576
v -0.00900204 -0.08268122 -0.00537318
v -0.00689268 -0.07743044 -0.0091919
v -0.007178 -0.0826889 -0.00890483
v -0.00380961 -0.07756948 -0.01188588
v -0.00416565 -0.08283295 -0.01162775
v 5.758E-05 -0.07780387 -0.01319967
v -0.00348406 -0.07228247 -0.01222071
v 0.00037798 -0.07252292 -0.0134874
v 0.0044521 -0.07277688 -0.01322861
v 0.00415392 -0.07802203 -0.01294678
v 0.00826614 -0.07289451 -0.01168859
v 0.0048407 -0.067511 -0.0136245
v 0.00867808 -0.06763747 -0.01218157
v 0.01155187 -0.06751666 -0.00926006
v 0.01127341 -0.07278394 -0.00886497
v 0.01247786 -0.06733187 -0.00526633
v 0.01233758 -0.07261954 -0.00500218
v 0.01178235 -0.06735689 -0.00111889
v 0.01162496 -0.07271603 -0.00094158
v 0.00992031 -0.06761166 0.0026345
v 0.00966547 -0.07295403 0.00268998
v 0.00699518 -0.06788833 0.00552664
v 0.00662108 -0.07311957 0.00546985
v 0.00331595 -0.06795484 0.00717378
v 0.00295705 -0.07313061 0.00720911
v -0.00072231 -0.06786335 0.00693729
v -0.00101832 -0.07301772 0.00702829
v -0.00442382 -0.06778996 0.00523759
v -0.00467373 -0.07290827 0.00530805
v -0.00705205 -0.06759971 0.00205281
v -0.00726473 -0.07271302 0.00214246
v -0.0083784 -0.06734233 -0.00188489
v -0.00863799 -0.07246817 -0.00172848
v -0.0081544 -0.06710109 -0.00600733
v -0.00838343 -0.07226601 -0.00581986
v -0.00617643 -0.06695536 -0.00962532
v -0.00656443 -0.07218043 -0.00946588
v -0.00311139 -0.06698882 -0.01247337
v -0.00596842 -0.06176206 -0.00983824
v -0.00281674 -0.06173839 -0.01268107
v 0.00110285 -0.06193564 -0.01413481
v 0.00074993 -0.06721955 -0.01374449
v 0.0052417 -0.06221625 -0.0140265
v 0.00137231 -0.05667738 -0.01448846
v 0.00556456 -0.05690051 -0.01448489
v 0.00939605 -0.05700135 -0.01299585
v 0.009047 -0.06232462 -0.01260287
v 0.01214832 -0.05689918 -0.00993947
v 0.01184235 -0.06221217 -0.00961766
v 0.01277819 -0.05669358 -0.00580796
v 0.01265437 -0.06202749 -0.00553999
v 0.01199641 -0.05663922 -0.00151155
v 0.01187703 -0.06200678 -0.00132456
v 0.0103027 -0.05687976 0.00249518
v 0.01008983 -0.06224674 0.00255588
v 0.00757179 -0.05723967 0.00570381
v 0.0073389 -0.06258219 0.00567517
v 0.00379757 -0.05748371 0.00723953
v 0.00360866 -0.06272718 0.00714091
v -0.00032571 -0.05761625 0.00687459
v -0.00047115 -0.06272901 0.00685803
v -0.00418806 -0.05764986 0.00517291
v -0.00425326 -0.0627005 0.00519421
v -0.00687077 -0.05748936 0.00191507
v -0.00687023 -0.06253218 0.00196684
v -0.00807165 -0.05715642 -0.00211889
v -0.00815709 -0.0622486 -0.00201945
v -0.00781344 -0.05681416 -0.00629728
v -0.0079049 -0.0619623 -0.00615573
v -0.0057434 -0.05657961 -0.01000698
v -0.00772507 -0.05164728 -0.00641038
v -0.00570815 -0.05140365 -0.0102235
v -0.00248783 -0.05133621 -0.01323006
v -0.00260237 -0.056532 -0.01294019
v 0.00156192 -0.05143629 -0.01491037
v -0.00238643 -0.04614642 -0.01343311
v 0.0016894 -0.04620716 -0.01530581
v 0.00604708 -0.04633328 -0.01547579
v 0.00585456 -0.05162573 -0.01494181
v 0.01006031 -0.04635641 -0.01403336
v 0.00967708 -0.0516893 -0.01340852
v 0.01267552 -0.04617902 -0.01085069
v 0.01242011 -0.05156663 -0.01034531
v 0.01296742 -0.04591087 -0.00649851
v 0.012961 -0.05130097 -0.00613002
v 0.01203805 -0.04588914 -0.00194486
v 0.01208228 -0.05124623 -0.00172418
v 0.01045553 -0.04616808 0.00233119
v 0.0105337 -0.05150669 0.00245857
v 0.00764511 -0.04658488 0.00558548
v 0.00769046 -0.05188934 0.00560644
v 0.00376481 -0.04708448 0.00731648
v 0.00387478 -0.05225444 0.00724309
v -0.00049964 -0.04750809 0.00712618
v -0.00034176 -0.05254483 0.00696305
v -0.00441246 -0.04764534 0.0053757
v -0.00424713 -0.05264433 0.00520575
v -0.00716294 -0.0474042 0.00203511
v -0.00699279 -0.05245429 0.00192725
v -0.00824872 -0.04692934 -0.00215329
v -0.00822569 -0.05205522 -0.00216472
v -0.00777574 -0.04647956 -0.00649083
v -0.0084941 -0.04180274 -0.0020242
v -0.00783255 -0.0413168 -0.00649625
v -0.00580014 -0.04104868 -0.01061428
v -0.00568903 -0.04622764 -0.01042492
v -0.00249875 -0.04094881 -0.01386286
v -0.00603284 -0.03589201 -0.01078745
v -0.00271165 -0.03579818 -0.01428947
v 0.00158832 -0.0357708 -0.01654595
v 0.00171525 -0.04096991 -0.01580907
v 0.00624772 -0.03573507 -0.01686067
v 0.00616992 -0.0410314 -0.01607938
v 0.01053681 -0.03561893 -0.015455
v 0.01030545 -0.04099743 -0.01472204
v 0.0130115 -0.0353758 -0.01181456
v 0.0127599 -0.04077085 -0.01132503
v 0.01302554 -0.03526178 -0.0070885
v 0.01295625 -0.0405693 -0.00682053
v 0.01198344 -0.03544832 -0.00213034
v 0.01193203 -0.04063335 -0.00209965
v 0.01039785 -0.0357821 0.00250326
v 0.01032758 -0.04092955 0.00232895
v 0.00730673 -0.03613619 0.00586347
v 0.00743105 -0.0413377 0.00567958
v 0.00331581 -0.03671531 0.00778958
v 0.00354728 -0.04191775 0.00751351
v -0.00100853 -0.03733486 0.00790926
v -0.00074737 -0.04245398 0.00744077
v -0.00497139 -0.03755682 0.006139
v -0.00468008 -0.04262304 0.00570266
v -0.00763753 -0.03724151 0.00257538
v -0.00734945 -0.04232037 0.00223937
v -0.00873708 -0.03666931 -0.00181284
v -0.00802579 -0.03217041 0.00309162
v -0.00912327 -0.03154637 -0.00142925
v -0.00848217 -0.03107142 -0.00635567
v -0.00810192 -0.03616451 -0.00644889
v -0.00665247 -0.03092329 -0.01120183
v -0.00923372 -0.0261596 -0.00633638
v -0.00745227 -0.02612407 -0.01164602
v -0.00417986 -0.02617324 -0.01613115
v -0.00328207 -0.03087251 -0.01507549
v 0.00053302 -0.02602958 -0.01897621
v 0.00122785 -0.0307912 -0.01760057
v 0.00587308 -0.02568367 -0.01951098
v 0.00614987 -0.03061338 -0.0179838
v 0.01067071 -0.02519514 -0.01742336
v 0.01067272 -0.03033075 -0.01631961
v 0.01322294 -0.02483663 -0.01291877
v 0.01322553 -0.03003402 -0.01236529
v 0.0136585 -0.02491675 -0.00733023
v 0.01320672 -0.03002225 -0.00725706
v 0.01313818 -0.02533561 -0.00165672
v 0.01234862 -0.03033407 -0.00197677
v 0.01118476 -0.02560282 0.00332237
v 0.01068203 -0.03068424 0.00285503
v 0.00757757 -0.02576864 0.00704144
v 0.00740739 -0.03094996 0.00637494
v 0.00304305 -0.02633334 0.0091818
v 0.00317992 -0.03150506 0.00835135
v -0.00166087 -0.02713336 0.0095313
v -0.00127745 -0.03219919 0.00855172
v -0.00589133 -0.02748993 0.00766843
v -0.00536145 -0.03251489 0.00676597
v -0.00860646 -0.0271101 0.00385315
v -0.00687861 -0.02258887 0.00913435
v -0.00989502 -0.02215422 0.0049946
v -0.01103272 -0.0215804 -0.00035693
v -0.0098012 -0.0265449 -0.00097253
v -0.01050851 -0.02127728 -0.00628819
v -0.01300051 -0.01667985 0.00046515
v -0.01229777 -0.01640955 -0.0061686
v -0.01057969 -0.01689008 -0.01284926
v -0.00877879 -0.02142802 -0.01220273
v -0.0068538 -0.01720177 -0.01866185
v -0.00539585 -0.02165049 -0.01740129
v -0.00131534 -0.01685557 -0.02231669
v -0.00029752 -0.02139107 -0.02051802
v 0.00508218 -0.01591107 -0.02271807
v 0.00548382 -0.02082022 -0.02112118
v 0.01088311 -0.01509792 -0.02006128
v 0.0106898 -0.02016573 -0.01866201
v 0.01457411 -0.01437986 -0.01398615
v 0.01356107 -0.01969017 -0.01348022
v 0.01631022 -0.01448812 -0.00714943
v 0.01458001 -0.01982186 -0.00733667
v 0.01616049 -0.01539341 -0.00066035
v 0.01433103 -0.02042752 -0.00125733
v 0.01321395 -0.01561477 0.00493266
v 0.01194022 -0.02059254 0.00394984
v 0.00836316 -0.01573012 0.00936151
v 0.00785403 -0.02065807 0.00792041
v 0.00283311 -0.01644352 0.01241852
v 0.00290268 -0.0212718 0.0103958
v -0.00302915 -0.01750233 0.01339508
v -0.00222942 -0.02219435 0.01105295
v -0.0084246 -0.01794959 0.01134956
v -0.00390902 -0.01321947 0.01641907
v -0.01034283 -0.01360186 0.01409856
v -0.01451082 -0.0128009 0.00848149
v -0.01194248 -0.01739074 0.00663684
v -0.01581021 -0.01199214 0.00133966
v -0.01731987 -0.00825156 0.01019113
v -0.01917185 -0.00758122 0.00200883
v -0.01820829 -0.00753221 -0.00630439
v -0.01503214 -0.01183472 -0.00613224
v -0.01520929 -0.00843574 -0.01434416
v -0.01274547 -0.01254641 -0.01356334
v -0.01039921 -0.00873269 -0.02129585
v -0.00862182 -0.01291825 -0.02004076
v -0.00374496 -0.00764662 -0.02588166
v -0.00248431 -0.01229868 -0.02416012
v 0.00394451 -0.00556041 -0.02623767
v 0.00457758 -0.01089263 -0.02461617
v 0.01153468 -0.00371949 -0.02247857
v 0.01125014 -0.00969939 -0.02143357
v 0.0176379 -0.00238935 -0.0146406
v 0.01609672 -0.00874151 -0.0144402
v 0.02115304 -0.00341346 -0.00655024
v 0.01869395 -0.00902544 -0.006822
v 0.02160593 -0.00558101 0.00092286
v 0.01882154 -0.01048292 0.00013622
v 0.01748791 -0.0058119 0.00775903
v 0.01514897 -0.01066902 0.00623728
v 0.01052693 -0.00602393 0.01328051
v 0.00918059 -0.01082809 0.0111763
v 0.00339731 -0.00746256 0.01776322
v 0.00291666 -0.01188088 0.01498348
v -0.00452934 -0.0088345 0.0192942
v 0.00400563 -0.00273601 0.01988306
v -0.00487345 -0.00381364 0.02103734
v -0.01331596 -0.0037767 0.01791594
v -0.01213518 -0.00903477 0.0165409
v -0.01930922 -0.0030897 0.01114914
v -0.01375388 0.00180994 0.01810117
v -0.01998311 0.00253064 0.01111691
v -0.0227309 0.00277819 0.00195271
v -0.02184965 -0.00274876 0.00225066
v -0.02209451 0.00205653 -0.00724534
v -0.02096847 -0.00305075 -0.00674538
v -0.01842845 0.00030087 -0.01535419
v -0.01736659 -0.00430551 -0.01505133
v -0.01346451 0.00024188 -0.02255166
v -0.01205885 -0.00449874 -0.02230988
v -0.00636182 0.00252321 -0.02712282
v -0.00499231 -0.00270231 -0.02708251
v 0.00176695 0.00605958 -0.02762438
v 0.00313724 0.00019177 -0.02741224
v -0.00015224 0.01152213 -0.02506855
v -0.00231558 0.01573645 -0.01973253
v -0.0049358 0.01949699 -0.01347778
v 0.00188759 0.02129491 -0.01129823
v -0.00081816 0.02353863 -0.00480978
v 0.00549411 0.02288272 -0.00217082
v 0.00815761 0.02065988 -0.00837825
v -0.00761504 0.02203283 -0.00673158
v -0.00964912 0.02244687 0.00050241
v -0.01389734 0.01837463 -0.007727
v -0.01540172 0.01886141 8.294E-05
v -0.018617 0.01324971 -0.00788354
v -0.0195847 0.01394968 0.00043225
v -0.01789439 0.01317202 0.00904219
v -0.01253415 0.01199581 0.01597078
v -0.02198688 0.00846379 0.00122704
v -0.01955556 0.0080494 0.01028155
v -0.01352671 0.00711852 0.01740047
v -0.00494105 0.00695601 0.02071148
v -0.00457677 0.01194226 0.01898724
v -0.00504932 0.00162681 0.02141433
v 0.0042296 0.00251763 0.02053939
v 0.00418468 0.00790215 0.01963539
v 0.0129218 0.00912856 0.01485485
v 0.01187847 0.01388466 0.01255214
v 0.00389948 0.01289717 0.0176127
v 0.01296941 0.00390615 0.01587811
v 0.01210359 -0.00122208 0.0151433
v 0.01967508 -0.00088685 0.0089003
v 0.02434915 -0.00062498 0.00143221
v 0.00977892 0.01801612 0.00978299
v 0.00304331 0.01734656 0.01474675
v 0.01513195 0.01738483 0.00332915
v 0.01072945 0.0206419 0.00065357
v 0.01816567 0.0148591 -0.0028921
v 0.01355931 0.01807949 -0.00557537
v -0.02129585 0.00759949 -0.00762689
f 1 2 3
f 1 3 4
f 1 4 5
f 1 5 6
f 1 6 7
f 1 7 2
f 8 9 5
f 8 5 10
f 8 11 12
f 8 12 9
f 8 13 14
f 8 14 11
f 15 11 14
f 15 14 16
f 15 17 12
f 15 12 11
f 15 16 18
f 15 18 17
f 19 20 21
f 19 21 22
f 19 23 24
f 19 24 20
f 19 22 25
f 19 25 23
f 26 27 28
f 26 28 29
f 26 29 30
f 26 30 31
f 26 31 32
f 26 32 27
f 33 34 35
f 33 35 36
f 33 37 38
f 33 38 34
f 33 36 21
f 33 21 39
f 33 40 41
f 33 41 37
f 33 39 42
f 33 42 40
f 43 44 45
f 43 45 46
f 43 46 47
f 43 47 48
f 43 48 49
f 43 49 44
f 50 45 51
f 50 51 52
f 50 52 53
f 50 53 54
f 50 54 46
f 50 46 45
f 55 30 29
f 55 29 56
f 55 56 57
f 55 57 58
f 55 58 59
f 55 59 30
f 60 61 62
f 60 62 41
f 60 41 40
f 60 40 63
f 60 63 64
f 60 64 61
f 64 63 65
f 64 65 66
f 64 66 67
f 64 67 68
f 64 68 69
f 64 69 70
f 64 70 71
f 64 71 61
f 72 73 74
f 72 74 75
f 72 75 76
f 72 76 77
f 72 77 78
f 72 78 73
f 79 80 71
f 79 71 81
f 79 82 83
f 79 83 80
f 79 84 85
f 79 85 86
f 79 86 87
f 79 87 82
f 79 81 88
f 79 88 84
f 89 90 91
f 89 91 92
f 89 69 68
f 89 68 90
f 89 92 93
f 89 93 69
f 94 95 96
f 94 96 97
f 94 98 99
f 94 99 95
f 94 97 100
f 94 100 98
f 101 75 74
f 101 74 102
f 101 103 76
f 101 76 75
f 101 102 104
f 101 104 103
f 105 106 107
f 105 107 108
f 105 108 109
f 105 109 110
f 105 110 111
f 105 111 106
f 112 113 114
f 112 114 115
f 112 115 116
f 112 116 117
f 112 117 118
f 112 118 119
f 112 119 120
f 112 120 121
f 112 121 122
f 112 122 113
f 123 124 125
f 123 125 126
f 123 127 128
f 123 128 124
f 123 126 129
f 123 129 130
f 123 131 53
f 123 53 127
f 123 130 132
f 123 132 131
f 133 134 135
f 133 135 129
f 133 136 137
f 133 137 134
f 133 129 126
f 133 126 136
f 137 117 116
f 137 116 138
f 137 138 139
f 137 139 134
f 137 136 118
f 137 118 117
f 139 138 140
f 139 140 141
f 139 141 142
f 139 142 143
f 139 143 135
f 139 135 134
f 143 142 144
f 143 144 145
f 143 145 146
f 143 146 135
f 146 145 147
f 146 147 148
f 146 148 132
f 146 132 130
f 146 130 129
f 146 129 135
f 148 147 149
f 148 149 150
f 148 150 151
f 148 151 132
f 151 150 152
f 151 152 153
f 151 153 47
f 151 47 154
f 151 154 131
f 151 131 132
f 154 47 46
f 154 46 54
f 154 54 53
f 154 53 131
f 153 152 155
f 153 155 156
f 153 156 48
f 153 48 47
f 156 155 92
f 156 92 91
f 156 91 49
f 156 49 48
f 155 152 157
f 155 157 158
f 155 158 93
f 155 93 92
f 158 157 159
f 158 159 160
f 158 160 161
f 158 161 93
f 161 160 88
f 161 88 81
f 161 81 71
f 161 71 70
f 161 70 69
f 161 69 93
f 160 159 162
f 160 162 88
f 162 163 164
f 162 164 165
f 162 165 84
f 162 84 88
f 162 159 166
f 162 166 163
f 166 167 168
f 166 168 163
f 166 159 157
f 166 157 149
f 166 149 147
f 166 147 167
f 168 169 170
f 168 170 171
f 168 171 164
f 168 164 163
f 168 167 144
f 168 144 169
f 171 170 172
f 171 172 173
f 171 173 174
f 171 174 164
f 174 173 175
f 174 175 176
f 174 176 177
f 174 177 178
f 174 178 165
f 174 165 164
f 178 177 179
f 178 179 85
f 178 85 84
f 178 84 165
f 179 177 180
f 179 180 181
f 179 181 182
f 179 182 183
f 179 183 86
f 179 86 85
f 183 182 184
f 183 184 185
f 183 185 87
f 183 87 86
f 185 184 186
f 185 186 187
f 185 187 188
f 185 188 87
f 188 187 189
f 188 189 190
f 188 190 191
f 188 191 192
f 188 192 82
f 188 82 87
f 192 191 193
f 192 193 194
f 192 194 83
f 192 83 82
f 194 193 195
f 194 195 196
f 194 196 197
f 194 197 83
f 197 62 80
f 197 80 83
f 197 196 38
f 197 38 37
f 197 37 41
f 197 41 62
f 196 195 198
f 196 198 38
f 198 195 199
f 198 199 200
f 198 200 201
f 198 201 202
f 198 202 34
f 198 34 38
f 202 201 203
f 202 203 204
f 202 204 35
f 202 35 34
f 204 203 205
f 204 205 206
f 204 206 207
f 204 207 35
f 207 208 36
f 207 36 35
f 207 206 73
f 207 73 78
f 207 78 209
f 207 209 208
f 209 25 22
f 209 22 208
f 209 78 77
f 209 77 210
f 209 210 211
f 209 211 25
f 211 210 212
f 211 212 99
f 211 99 98
f 211 98 213
f 211 213 23
f 211 23 25
f 213 98 100
f 213 100 214
f 213 214 24
f 213 24 23
f 214 100 215
f 214 215 216
f 214 216 217
f 214 217 24
f 217 216 218
f 217 218 219
f 217 219 220
f 217 220 221
f 217 221 20
f 217 20 24
f 221 220 42
f 221 42 39
f 221 39 21
f 221 21 20
f 220 219 222
f 220 222 223
f 220 223 65
f 220 65 42
f 223 222 224
f 223 224 225
f 223 225 66
f 223 66 65
f 225 224 226
f 225 226 227
f 225 227 67
f 225 67 66
f 227 226 51
f 227 51 228
f 227 228 229
f 227 229 67
f 229 228 44
f 229 44 49
f 229 49 91
f 229 91 90
f 229 90 68
f 229 68 67
f 228 51 45
f 228 45 44
f 226 224 230
f 226 230 231
f 226 231 52
f 226 52 51
f 231 230 128
f 231 128 127
f 231 127 53
f 231 53 52
f 230 232 233
f 230 233 128
f 230 224 222
f 230 222 232
f 233 234 235
f 233 235 236
f 233 236 124
f 233 124 128
f 233 232 218
f 233 218 234
f 236 235 237
f 236 237 238
f 236 238 125
f 236 125 124
f 238 237 120
f 238 120 119
f 238 119 118
f 238 118 125
f 237 239 240
f 237 240 120
f 237 235 241
f 237 241 239
f 241 97 96
f 241 96 239
f 241 235 234
f 241 234 215
f 241 215 100
f 241 100 97
f 240 242 104
f 240 104 243
f 240 243 121
f 240 121 120
f 240 239 96
f 240 96 242
f 243 244 122
f 243 122 121
f 243 104 102
f 243 102 244
f 244 205 203
f 244 203 122
f 244 102 74
f 244 74 205
f 242 96 95
f 242 95 245
f 242 245 103
f 242 103 104
f 245 95 99
f 245 99 212
f 245 212 76
f 245 76 103
f 234 218 216
f 234 216 215
f 232 222 219
f 232 219 218
f 212 210 77
f 212 77 76
f 208 22 21
f 208 21 36
f 206 205 74
f 206 74 73
f 203 201 113
f 203 113 122
f 201 200 114
f 201 114 113
f 200 199 246
f 200 246 114
f 246 199 247
f 246 247 248
f 246 248 249
f 246 249 250
f 246 250 115
f 246 115 114
f 250 249 251
f 250 251 252
f 250 252 116
f 250 116 115
f 252 251 253
f 252 253 140
f 252 140 138
f 252 138 116
f 253 251 254
f 253 254 255
f 253 255 256
f 253 256 257
f 253 257 141
f 253 141 140
f 257 256 258
f 257 258 259
f 257 259 142
f 257 142 141
f 259 258 170
f 259 170 169
f 259 169 144
f 259 144 142
f 258 256 260
f 258 260 261
f 258 261 172
f 258 172 170
f 261 260 262
f 261 262 263
f 261 263 264
f 261 264 172
f 264 263 265
f 264 265 266
f 264 266 267
f 264 267 175
f 264 175 173
f 264 173 172
f 267 266 268
f 267 268 269
f 267 269 270
f 267 270 271
f 267 271 176
f 267 176 175
f 271 270 272
f 271 272 180
f 271 180 177
f 271 177 176
f 272 270 273
f 272 273 274
f 272 274 275
f 272 275 276
f 272 276 181
f 272 181 180
f 276 275 277
f 276 277 278
f 276 278 182
f 276 182 181
f 278 277 279
f 278 279 280
f 278 280 184
f 278 184 182
f 280 279 281
f 280 281 282
f 280 282 186
f 280 186 184
f 282 281 283
f 282 283 284
f 282 284 285
f 282 285 186
f 285 284 286
f 285 286 287
f 285 287 288
f 285 288 189
f 285 189 187
f 285 187 186
f 288 287 289
f 288 289 290
f 288 290 291
f 288 291 292
f 288 292 190
f 288 190 189
f 292 291 293
f 292 293 294
f 292 294 191
f 292 191 190
f 294 293 248
f 294 248 247
f 294 247 193
f 294 193 191
f 293 291 295
f 293 295 296
f 293 296 249
f 293 249 248
f 296 295 297
f 296 297 254
f 296 254 251
f 296 251 249
f 297 295 298
f 297 298 299
f 297 299 300
f 297 300 301
f 297 301 255
f 297 255 254
f 301 300 262
f 301 262 260
f 301 260 256
f 301 256 255
f 300 299 302
f 300 302 303
f 300 303 304
f 300 304 262
f 304 303 305
f 304 305 306
f 304 306 307
f 304 307 265
f 304 265 263
f 304 263 262
f 307 306 308
f 307 308 309
f 307 309 310
f 307 310 268
f 307 268 266
f 307 266 265
f 310 309 311
f 310 311 312
f 310 312 313
f 310 313 314
f 310 314 269
f 310 269 268
f 314 313 315
f 314 315 273
f 314 273 270
f 314 270 269
f 315 313 316
f 315 316 317
f 315 317 318
f 315 318 319
f 315 319 274
f 315 274 273
f 319 318 320
f 319 320 321
f 319 321 275
f 319 275 274
f 321 320 322
f 321 322 323
f 321 323 277
f 321 277 275
f 323 322 324
f 323 324 325
f 323 325 279
f 323 279 277
f 325 324 326
f 325 326 327
f 325 327 281
f 325 281 279
f 327 326 328
f 327 328 329
f 327 329 283
f 327 283 281
f 329 328 330
f 329 330 331
f 329 331 332
f 329 332 283
f 332 331 333
f 332 333 334
f 332 334 335
f 332 335 286
f 332 286 284
f 332 284 283
f 335 334 336
f 335 336 337
f 335 337 338
f 335 338 289
f 335 289 287
f 335 287 286
f 338 337 339
f 338 339 302
f 338 302 299
f 338 299 298
f 338 298 290
f 338 290 289
f 339 337 336
f 339 336 340
f 339 340 341
f 339 341 305
f 339 305 303
f 339 303 302
f 341 340 342
f 341 342 343
f 341 343 344
f 341 344 308
f 341 308 306
f 341 306 305
f 344 343 345
f 344 345 346
f 344 346 347
f 344 347 311
f 344 311 309
f 344 309 308
f 347 346 348
f 347 348 349
f 347 349 350
f 347 350 351
f 347 351 312
f 347 312 311
f 351 350 352
f 351 352 316
f 351 316 313
f 351 313 312
f 352 350 353
f 352 353 354
f 352 354 355
f 352 355 356
f 352 356 317
f 352 317 316
f 356 355 357
f 356 357 358
f 356 358 318
f 356 318 317
f 358 357 359
f 358 359 360
f 358 360 320
f 358 320 318
f 360 359 361
f 360 361 362
f 360 362 322
f 360 322 320
f 362 361 363
f 362 363 364
f 362 364 324
f 362 324 322
f 364 363 365
f 364 365 366
f 364 366 326
f 364 326 324
f 366 365 367
f 366 367 368
f 366 368 328
f 366 328 326
f 368 367 369
f 368 369 370
f 368 370 330
f 368 330 328
f 370 369 371
f 370 371 372
f 370 372 373
f 370 373 330
f 373 372 374
f 373 374 375
f 373 375 376
f 373 376 333
f 373 333 331
f 373 331 330
f 376 375 377
f 376 377 342
f 376 342 340
f 376 340 336
f 376 336 334
f 376 334 333
f 377 375 374
f 377 374 378
f 377 378 379
f 377 379 345
f 377 345 343
f 377 343 342
f 379 378 380
f 379 380 381
f 379 381 382
f 379 382 348
f 379 348 346
f 379 346 345
f 382 381 383
f 382 383 384
f 382 384 385
f 382 385 386
f 382 386 349
f 382 349 348
f 386 385 387
f 386 387 353
f 386 353 350
f 386 350 349
f 387 385 388
f 387 388 389
f 387 389 390
f 387 390 391
f 387 391 354
f 387 354 353
f 391 390 392
f 391 392 393
f 391 393 355
f 391 355 354
f 393 392 394
f 393 394 395
f 393 395 357
f 393 357 355
f 395 394 396
f 395 396 397
f 395 397 359
f 395 359 357
f 397 396 398
f 397 398 399
f 397 399 361
f 397 361 359
f 399 398 400
f 399 400 401
f 399 401 363
f 399 363 361
f 401 400 402
f 401 402 403
f 401 403 365
f 401 365 363
f 403 402 404
f 403 404 405
f 403 405 367
f 403 367 365
f 405 404 406
f 405 406 407
f 405 407 369
f 405 369 367
f 407 406 408
f 407 408 409
f 407 409 371
f 407 371 369
f 409 408 410
f 409 410 411
f 409 411 412
f 409 412 371
f 412 411 413
f 412 413 380
f 412 380 378
f 412 378 374
f 412 374 372
f 412 372 371
f 413 411 410
f 413 410 414
f 413 414 415
f 413 415 383
f 413 383 381
f 413 381 380
f 415 414 416
f 415 416 417
f 415 417 418
f 415 418 419
f 415 419 384
f 415 384 383
f 419 418 420
f 419 420 388
f 419 388 385
f 419 385 384
f 420 418 421
f 420 421 422
f 420 422 423
f 420 423 424
f 420 424 389
f 420 389 388
f 424 423 425
f 424 425 426
f 424 426 390
f 424 390 389
f 426 425 427
f 426 427 428
f 426 428 392
f 426 392 390
f 428 427 429
f 428 429 430
f 428 430 394
f 428 394 392
f 430 429 431
f 430 431 432
f 430 432 396
f 430 396 394
f 432 431 433
f 432 433 434
f 432 434 398
f 432 398 396
f 434 433 435
f 434 435 436
f 434 436 400
f 434 400 398
f 436 435 437
f 436 437 438
f 436 438 402
f 436 402 400
f 438 437 439
f 438 439 440
f 438 440 404
f 438 404 402
f 440 439 441
f 440 441 442
f 440 442 406
f 440 406 404
f 442 441 443
f 442 443 444
f 442 444 408
f 442 408 406
f 444 443 445
f 444 445 446
f 444 446 410
f 444 410 408
f 446 445 447
f 446 447 416
f 446 416 414
f 446 414 410
f 447 445 448
f 447 448 449
f 447 449 450
f 447 450 451
f 447 451 417
f 447 417 416
f 451 450 452
f 451 452 421
f 451 421 418
f 451 418 417
f 452 450 453
f 452 453 454
f 452 454 455
f 452 455 456
f 452 456 422
f 452 422 421
f 456 455 457
f 456 457 458
f 456 458 423
f 456 423 422
f 458 457 459
f 458 459 460
f 458 460 425
f 458 425 423
f 460 459 461
f 460 461 462
f 460 462 427
f 460 427 425
f 462 461 463
f 462 463 464
f 462 464 429
f 462 429 427
f 464 463 465
f 464 465 466
f 464 466 431
f 464 431 429
f 466 465 467
f 466 467 468
f 466 468 433
f 466 433 431
f 468 467 469
f 468 469 470
f 468 470 435
f 468 435 433
f 470 469 471
f 470 471 472
f 470 472 437
f 470 437 435
f 472 471 473
f 472 473 474
f 472 474 439
f 472 439 437
f 474 473 475
f 474 475 476
f 474 476 441
f 474 441 439
f 476 475 477
f 476 477 478
f 476 478 443
f 476 443 441
f 478 477 479
f 478 479 448
f 478 448 445
f 478 445 443
f 479 477 480
f 479 480 481
f 479 481 482
f 479 482 483
f 479 483 449
f 479 449 448
f 483 482 484
f 483 484 453
f 483 453 450
f 483 450 449
f 484 482 485
f 484 485 486
f 484 486 487
f 484 487 488
f 484 488 454
f 484 454 453
f 488 487 489
f 488 489 490
f 488 490 455
f 488 455 454
f 490 489 491
f 490 491 492
f 490 492 457
f 490 457 455
f 492 491 493
f 492 493 494
f 492 494 459
f 492 459 457
f 494 493 495
f 494 495 496
f 494 496 461
f 494 461 459
f 496 495 497
f 496 497 498
f 496 498 463
f 496 463 461
f 498 497 499
f 498 499 500
f 498 500 465
f 498 465 463
f 500 499 501
f 500 501 502
f 500 502 467
f 500 467 465
f 502 501 503
f 502 503 504
f 502 504 469
f 502 469 467
f 504 503 505
f 504 505 506
f 504 506 471
f 504 471 469
f 506 505 507
f 506 507 508
f 506 508 473
f 506 473 471
f 508 507 509
f 508 509 510
f 508 510 475
f 508 475 473
f 510 509 511
f 510 511 480
f 510 480 477
f 510 477 475
f 511 509 512
f 511 512 513
f 511 513 514
f 511 514 515
f 511 515 481
f 511 481 480
f 515 514 516
f 515 516 485
f 515 485 482
f 515 482 481
f 516 514 517
f 516 517 518
f 516 518 519
f 516 519 520
f 516 520 486
f 516 486 485
f 520 519 521
f 520 521 522
f 520 522 487
f 520 487 486
f 522 521 523
f 522 523 524
f 522 524 489
f 522 489 487
f 524 523 525
f 524 525 526
f 524 526 491
f 524 491 489
f 526 525 527
f 526 527 528
f 526 528 493
f 526 493 491
f 528 527 529
f 528 529 530
f 528 530 495
f 528 495 493
f 530 529 531
f 530 531 532
f 530 532 497
f 530 497 495
f 532 531 533
f 532 533 534
f 532 534 499
f 532 499 497
f 534 533 535
f 534 535 536
f 534 536 501
f 534 501 499
f 536 535 537
f 536 537 538
f 536 538 503
f 536 503 501
f 538 537 539
f 538 539 540
f 538 540 505
f 538 505 503
f 540 539 541
f 540 541 542
f 540 542 507
f 540 507 505
f 542 541 543
f 542 543 512
f 542 512 509
f 542 509 507
f 543 541 544
f 543 544 545
f 543 545 546
f 543 546 547
f 543 547 513
f 543 513 512
f 547 546 548
f 547 548 517
f 547 517 514
f 547 514 513
f 548 546 549
f 548 549 550
f 548 550 551
f 548 551 552
f 548 552 518
f 548 518 517
f 552 551 553
f 552 553 554
f 552 554 519
f 552 519 518
f 554 553 555
f 554 555 556
f 554 556 521
f 554 521 519
f 556 555 557
f 556 557 558
f 556 558 523
f 556 523 521
f 558 557 559
f 558 559 560
f 558 560 525
f 558 525 523
f 560 559 561
f 560 561 562
f 560 562 527
f 560 527 525
f 562 561 563
f 562 563 564
f 562 564 529
f 562 529 527
f 564 563 565
f 564 565 566
f 564 566 531
f 564 531 529
f 566 565 567
f 566 567 568
f 566 568 533
f 566 533 531
f 568 567 569
f 568 569 570
f 568 570 535
f 568 535 533
f 570 569 571
f 570 571 572
f 570 572 537
f 570 537 535
f 572 571 573
f 572 573 574
f 572 574 539
f 572 539 537
f 574 573 575
f 574 575 544
f 574 544 541
f 574 541 539
f 575 573 576
f 575 576 577
f 575 577 578
f 575 578 579
f 575 579 545
f 575 545 544
f 579 578 580
f 579 580 549
f 579 549 546
f 579 546 545
f 580 578 581
f 580 581 582
f 580 582 583
f 580 583 584
f 580 584 550
f 580 550 549
f 584 583 585
f 584 585 586
f 584 586 551
f 584 551 550
f 586 585 587
f 586 587 588
f 586 588 553
f 586 553 551
f 588 587 589
f 588 589 590
f 588 590 555
f 588 555 553
f 590 589 591
f 590 591 592
f 590 592 557
f 590 557 555
f 592 591 593
f 592 593 594
f 592 594 559
f 592 559 557
f 594 593 595
f 594 595 596
f 594 596 561
f 594 561 559
f 596 595 597
f 596 597 598
f 596 598 563
f 596 563 561
f 598 597 599
f 598 599 600
f 598 600 565
f 598 565 563
f 600 599 601
f 600 601 602
f 600 602 567
f 600 567 565
f 602 601 603
f 602 603 604
f 602 604 569
f 602 569 567
f 604 603 605
f 604 605 606
f 604 606 571
f 604 571 569
f 606 605 607
f 606 607 576
f 606 576 573
f 606 573 571
f 607 605 608
f 607 608 609
f 607 609 610
f 607 610 611
f 607 611 577
f 607 577 576
f 611 610 612
f 611 612 581
f 611 581 578
f 611 578 577
f 612 610 613
f 612 613 614
f 612 614 615
f 612 615 616
f 612 616 582
f 612 582 581
f 616 615 617
f 616 617 618
f 616 618 583
f 616 583 582
f 618 617 619
f 618 619 620
f 618 620 585
f 618 585 583
f 620 619 621
f 620 621 622
f 620 622 587
f 620 587 585
f 622 621 623
f 622 623 624
f 622 624 589
f 622 589 587
f 624 623 625
f 624 625 626
f 624 626 591
f 624 591 589
f 626 625 627
f 626 627 628
f 626 628 593
f 626 593 591
f 628 627 629
f 628 629 630
f 628 630 595
f 628 595 593
f 630 629 631
f 630 631 632
f 630 632 597
f 630 597 595
f 632 631 633
f 632 633 634
f 632 634 599
f 632 599 597
f 634 633 635
f 634 635 636
f 634 636 601
f 634 601 599
f 636 635 637
f 636 637 638
f 636 638 603
f 636 603 601
f 638 637 639
f 638 639 608
f 638 608 605
f 638 605 603
f 639 637 640
f 639 640 641
f 639 641 642
f 639 642 643
f 639 643 609
f 639 609 608
f 643 642 644
f 643 644 613
f 643 613 610
f 643 610 609
f 644 642 645
f 644 645 646
f 644 646 647
f 644 647 648
f 644 648 614
f 644 614 613
f 648 647 649
f 648 649 650
f 648 650 615
f 648 615 614
f 650 649 651
f 650 651 652
f 650 652 617
f 650 617 615
f 652 651 653
f 652 653 654
f 652 654 619
f 652 619 617
f 654 653 655
f 654 655 656
f 654 656 621
f 654 621 619
f 656 655 657
f 656 657 658
f 656 658 623
f 656 623 621
f 658 657 659
f 658 659 660
f 658 660 625
f 658 625 623
f 660 659 661
f 660 661 662
f 660 662 627
f 660 627 625
f 662 661 663
f 662 663 664
f 662 664 629
f 662 629 627
f 664 663 665
f 664 665 666
f 664 666 631
f 664 631 629
f 666 665 667
f 666 667 668
f 666 668 633
f 666 633 631
f 668 667 669
f 668 669 670
f 668 670 635
f 668 635 633
f 670 669 671
f 670 671 640
f 670 640 637
f 670 637 635
f 671 669 672
f 671 672 673
f 671 673 674
f 671 674 675
f 671 675 641
f 671 641 640
f 675 674 676
f 675 676 645
f 675 645 642
f 675 642 641
f 676 674 677
f 676 677 678
f 676 678 679
f 676 679 680
f 676 680 646
f 676 646 645
f 680 679 681
f 680 681 682
f 680 682 647
f 680 647 646
f 682 681 683
f 682 683 684
f 682 684 649
f 682 649 647
f 684 683 685
f 684 685 686
f 684 686 651
f 684 651 649
f 686 685 687
f 686 687 688
f 686 688 653
f 686 653 651
f 688 687 689
f 688 689 690
f 688 690 655
f 688 655 653
f 690 689 691
f 690 691 692
f 690 692 657
f 690 657 655
f 692 691 693
f 692 693 694
f 692 694 659
f 692 659 657
f 694 693 695
f 694 695 696
f 694 696 661
f 694 661 659
f 696 695 697
f 696 697 698
f 696 698 663
f 696 663 661
f 698 697 699
f 698 699 700
f 698 700 665
f 698 665 663
f 700 699 701
f 700 701 702
f 700 702 667
f 700 667 665
f 702 701 703
f 702 703 672
f 702 672 669
f 702 669 667
f 703 701 704
f 703 704 705
f 703 705 706
f 703 706 707
f 703 707 673
f 703 673 672
f 707 706 708
f 707 708 677
f 707 677 674
f 707 674 673
f 708 706 709
f 708 709 710
f 708 710 711
f 708 711 712
f 708 712 678
f 708 678 677
f 712 711 713
f 712 713 714
f 712 714 679
f 712 679 678
f 714 713 715
f 714 715 716
f 714 716 681
f 714 681 679
f 716 715 717
f 716 717 718
f 716 718 683
f 716 683 681
f 718 717 719
f 718 719 720
f 718 720 685
f 718 685 683
f 720 719 721
f 720 721 722
f 720 722 687
f 720 687 685
f 722 721 723
f 722 723 724
f 722 724 689
f 722 689 687
f 724 723 725
f 724 725 726
f 724 726 691
f 724 691 689
f 726 725 727
f 726 727 728
f 726 728 693
f 726 693 691
f 728 727 729
f 728 729 730
f 728 730 695
f 728 695 693
f 730 729 731
f 730 731 732
f 730 732 697
f 730 697 695
f 732 731 733
f 732 733 734
f 732 734 699
f 732 699 697
f 734 733 735
f 734 735 704
f 734 704 701
f 734 701 699
f 735 733 736
f 735 736 737
f 735 737 738
f 735 738 739
f 735 739 705
f 735 705 704
f 739 738 740
f 739 740 709
f 739 709 706
f 739 706 705
f 740 738 741
f 740 741 742
f 740 742 743
f 740 743 744
f 740 744 710
f 740 710 709
f 744 743 745
f 744 745 746
f 744 746 711
f 744 711 710
f 746 745 747
f 746 747 748
f 746 748 713
f 746 713 711
f 748 747 749
f 748 749 750
f 748 750 715
f 748 715 713
f 750 749 751
f 750 751 752
f 750 752 717
f 750 717 715
f 752 751 753
f 752 753 754
f 752 754 719
f 752 719 717
f 754 753 755
f 754 755 756
f 754 756 721
f 754 721 719
f 756 755 757
f 756 757 758
f 756 758 723
f 756 723 721
f 758 757 759
f 758 759 760
f 758 760 725
f 758 725 723
f 760 759 761
f 760 761 762
f 760 762 727
f 760 727 725
f 762 761 763
f 762 763 764
f 762 764 729
f 762 729 727
f 764 763 765
f 764 765 766
f 764 766 731
f 764 731 729
f 766 765 767
f 766 767 736
f 766 736 733
f 766 733 731
f 767 765 768
f 767 768 769
f 767 769 770
f 767 770 771
f 767 771 737
f 767 737 736
f 771 770 772
f 771 772 741
f 771 741 738
f 771 738 737
f 772 770 773
f 772 773 774
f 772 774 775
f 772 775 776
f 772 776 742
f 772 742 741
f 776 775 777
f 776 777 778
f 776 778 743
f 776 743 742
f 778 777 779
f 778 779 780
f 778 780 745
f 778 745 743
f 780 779 781
f 780 781 782
f 780 782 747
f 780 747 745
f 782 781 783
f 782 783 784
f 782 784 749
f 782 749 747
f 784 783 785
f 784 785 786
f 784 786 751
f 784 751 749
f 786 785 787
f 786 787 788
f 786 788 753
f 786 753 751
f 788 787 789
f 788 789 790
f 788 790 755
f 788 755 753
f 790 789 791
f 790 791 792
f 790 792 757
f 790 757 755
f 792 791 793
f 792 793 794
f 792 794 759
f 792 759 757
f 794 793 795
f 794 795 796
f 794 796 761
f 794 761 759
f 796 795 797
f 796 797 798
f 796 798 763
f 796 763 761
f 798 797 799
f 798 799 768
f 798 768 765
f 798 765 763
f 799 797 800
f 799 800 801
f 799 801 802
f 799 802 803
f 799 803 769
f 799 769 768
f 803 802 804
f 803 804 773
f 803 773 770
f 803 770 769
f 804 802 805
f 804 805 806
f 804 806 807
f 804 807 808
f 804 808 774
f 804 774 773
f 808 807 809
f 808 809 810
f 808 810 775
f 808 775 774
f 810 809 811
f 810 811 812
f 810 812 777
f 810 777 775
f 812 811 813
f 812 813 814
f 812 814 779
f 812 779 777
f 814 813 815
f 814 815 816
f 814 816 781
f 814 781 779
f 816 815 817
f 816 817 818
f 816 818 783
f 816 783 781
f 818 817 819
f 818 819 820
f 818 820 785
f 818 785 783
f 820 819 821
f 820 821 822
f 820 822 787
f 820 787 785
f 822 821 823
f 822 823 824
f 822 824 789
f 822 789 787
f 824 823 825
f 824 825 826
f 824 826 791
f 824 791 789
f 826 825 827
f 826 827 828
f 826 828 793
f 826 793 791
f 828 827 829
f 828 829 830
f 828 830 795
f 828 795 793
f 830 829 831
f 830 831 800
f 830 800 797
f 830 797 795
f 831 829 832
f 831 832 833
f 831 833 834
f 831 834 835
f 831 835 801
f 831 801 800
f 835 834 836
f 835 836 805
f 835 805 802
f 835 802 801
f 836 834 837
f 836 837 838
f 836 838 839
f 836 839 840
f 836 840 806
f 836 806 805
f 840 839 841
f 840 841 842
f 840 842 807
f 840 807 806
f 842 841 843
f 842 843 844
f 842 844 809
f 842 809 807
f 844 843 845
f 844 845 846
f 844 846 811
f 844 811 809
f 846 845 847
f 846 847 848
f 846 848 813
f 846 813 811
f 848 847 849
f 848 849 850
f 848 850 815
f 848 815 813
f 850 849 851
f 850 851 852
f 850 852 817
f 850 817 815
f 852 851 853
f 852 853 854
f 852 854 819
f 852 819 817
f 854 853 855
f 854 855 856
f 854 856 821
f 854 821 819
f 856 855 857
f 856 857 858
f 856 858 823
f 856 823 821
f 858 857 859
f 858 859 860
f 858 860 825
f 858 825 823
f 860 859 861
f 860 861 862
f 860 862 827
f 860 827 825
f 862 861 863
f 862 863 832
f 862 832 829
f 862 829 827
f 863 861 864
f 863 864 865
f 863 865 866
f 863 866 867
f 863 867 833
f 863 833 832
f 867 866 868
f 867 868 837
f 867 837 834
f 867 834 833
f 868 866 869
f 868 869 870
f 868 870 871
f 868 871 872
f 868 872 838
f 868 838 837
f 872 871 873
f 872 873 874
f 872 874 839
f 872 839 838
f 874 873 875
f 874 875 876
f 874 876 841
f 874 841 839
f 876 875 877
f 876 877 878
f 876 878 843
f 876 843 841
f 878 877 879
f 878 879 880
f 878 880 845
f 878 845 843
f 880 879 881
f 880 881 882
f 880 882 847
f 880 847 845
f 882 881 883
f 882 883 884
f 882 884 849
f 882 849 847
f 884 883 885
f 884 885 886
f 884 886 851
f 884 851 849
f 886 885 887
f 886 887 888
f 886 888 853
f 886 853 851
f 888 887 889
f 888 889 890
f 888 890 855
f 888 855 853
f 890 889 891
f 890 891 892
f 890 892 857
f 890 857 855
f 892 891 893
f 892 893 894
f 892 894 859
f 892 859 857
f 894 893 895
f 894 895 864
f 894 864 861
f 894 861 859
f 895 893 896
f 895 896 897
f 895 897 898
f 895 898 899
f 895 899 865
f 895 865 864
f 899 898 900
f 899 900 869
f 899 869 866
f 899 866 865
f 900 898 901
f 900 901 902
f 900 902 903
f 900 903 904
f 900 904 870
f 900 870 869
f 904 903 905
f 904 905 906
f 904 906 871
f 904 871 870
f 906 905 907
f 906 907 908
f 906 908 873
f 906 873 871
f 908 907 909
f 908 909 910
f 908 910 875
f 908 875 873
f 910 909 911
f 910 911 912
f 910 912 877
f 910 877 875
f 912 911 913
f 912 913 914
f 912 914 879
f 912 879 877
f 914 913 915
f 914 915 916
f 914 916 881
f 914 881 879
f 916 915 917
f 916 917 918
f 916 918 883
f 916 883 881
f 918 917 919
f 918 919 920
f 918 920 885
f 918 885 883
f 920 919 921
f 920 921 922
f 920 922 887
f 920 887 885
f 922 921 923
f 922 923 924
f 922 924 889
f 922 889 887
f 924 923 925
f 924 925 926
f 924 926 891
f 924 891 889
f 926 925 927
f 926 927 896
f 926 896 893
f 926 893 891
f 927 925 928
f 927 928 929
f 927 929 930
f 927 930 931
f 927 931 897
f 927 897 896
f 931 930 932
f 931 932 901
f 931 901 898
f 931 898 897
f 932 930 933
f 932 933 934
f 932 934 935
f 932 935 936
f 932 936 902
f 932 902 901
f 936 935 937
f 936 937 938
f 936 938 903
f 936 903 902
f 938 937 939
f 938 939 940
f 938 940 905
f 938 905 903
f 940 939 941
f 940 941 942
f 940 942 907
f 940 907 905
f 942 941 943
f 942 943 944
f 942 944 909
f 942 909 907
f 944 943 945
f 944 945 946
f 944 946 911
f 944 911 909
f 946 945 947
f 946 947 948
f 946 948 913
f 946 913 911
f 948 947 949
f 948 949 950
f 948 950 915
f 948 915 913
f 950 949 951
f 950 951 952
f 950 952 917
f 950 917 915
f 952 951 953
f 952 953 954
f 952 954 919
f 952 919 917
f 954 953 955
f 954 955 956
f 954 956 921
f 954 921 919
f 956 955 957
f 956 957 958
f 956 958 923
f 956 923 921
f 958 957 959
f 958 959 928
f 958 928 925
f 958 925 923
f 959 957 960
f 959 960 961
f 959 961 962
f 959 962 963
f 959 963 929
f 959 929 928
f 963 962 964
f 963 964 933
f 963 933 930
f 963 930 929
f 964 962 965
f 964 965 966
f 964 966 967
f 964 967 968
f 964 968 934
f 964 934 933
f 968 967 969
f 968 969 970
f 968 970 935
f 968 935 934
f 970 969 971
f 970 971 972
f 970 972 937
f 970 937 935
f 972 971 973
f 972 973 974
f 972 974 939
f 972 939 937
f 974 973 975
f 974 975 976
f 974 976 941
f 974 941 939
f 976 975 977
f 976 977 978
f 976 978 943
f 976 943 941
f 978 977 979
f 978 979 980
f 978 980 945
f 978 945 943
f 980 979 981
f 980 981 982
f 980 982 947
f 980 947 945
f 982 981 983
f 982 983 984
f 982 984 949
f 982 949 947
f 984 983 985
f 984 985 986
f 984 986 951
f 984 951 949
f 986 985 987
f 986 987 988
f 986 988 953
f 986 953 951
f 988 987 989
f 988 989 990
f 988 990 955
f 988 955 953
f 990 989 991
f 990 991 960
f 990 960 957
f 990 957 955
f 991 989 992
f 991 992 993
f 991 993 994
f 991 994 995
f 991 995 961
f 991 961 960
f 995 994 996
f 995 996 965
f 995 965 962
f 995 962 961
f 996 994 997
f 996 997 998
f 996 998 999
f 996 999 1000
f 996 1000 966
f 996 966 965
f 1000 999 1001
f 1000 1001 1002
f 1000 1002 967
f 1000 967 966
f 1002 1001 1003
f 1002 1003 1004
f 1002 1004 969
f 1002 969 967
f 1004 1003 1005
f 1004 1005 1006
f 1004 1006 971
f 1004 971 969
f 1006 1005 1007
f 1006 1007 1008
f 1006 1008 973
f 1006 973 971
f 1008 1007 1009
f 1008 1009 1010
f 1008 1010 975
f 1008 975 973
f 1010 1009 1011
f 1010 1011 1012
f 1010 1012 977
f 1010 977 975
f 1012 1011 1013
f 1012 1013 1014
f 1012 1014 979
f 1012 979 977
f 1014 1013 1015
f 1014 1015 1016
f 1014 1016 981
f 1014 981 979
f 1016 1015 1017
f 1016 1017 1018
f 1016 1018 983
f 1016 983 981
f 1018 1017 1019
f 1018 1019 1020
f 1018 1020 985
f 1018 985 983
f 1020 1019 1021
f 1020 1021 1022
f 1020 1022 987
f 1020 987 985
f 1022 1021 1023
f 1022 1023 992
f 1022 992 989
f 1022 989 987
f 1023 1021 1024
f 1023 1024 1025
f 1023 1025 1026
f 1023 1026 1027
f 1023 1027 993
f 1023 993 992
f 1027 1026 1028
f 1027 1028 997
f 1027 997 994
f 1027 994 993
f 1028 1026 1029
f 1028 1029 1030
f 1028 1030 1031
f 1028 1031 1032
f 1028 1032 998
f 1028 998 997
f 1032 1031 1033
f 1032 1033 1034
f 1032 1034 999
f 1032 999 998
f 1034 1033 1035
f 1034 1035 1036
f 1034 1036 1001
f 1034 1001 999
f 1036 1035 1037
f 1036 1037 1038
f 1036 1038 1003
f 1036 1003 1001
f 1038 1037 1039
f 1038 1039 1040
f 1038 1040 1005
f 1038 1005 1003
f 1040 1039 1041
f 1040 1041 1042
f 1040 1042 1007
f 1040 1007 1005
f 1042 1041 14
f 1042 14 13
f 1042 13 1009
f 1042 1009 1007
f 1041 1039 109
f 1041 109 1043
f 1041 1043 16
f 1041 16 14
f 1043 1044 18
f 1043 18 16
f 1043 109 108
f 1043 108 1044
f 1044 1045 1046
f 1044 1046 18
f 1044 108 107
f 1044 107 1045
f 1046 1047 1048
f 1046 1048 1049
f 1046 1049 17
f 1046 17 18
f 1046 1045 1050
f 1046 1050 1047
f 1050 1051 28
f 1050 28 1047
f 1050 1045 107
f 1050 107 1052
f 1050 1052 1053
f 1050 1053 1051
f 1053 57 56
f 1053 56 1051
f 1053 1052 1054
f 1053 1054 1055
f 1053 1055 1056
f 1053 1056 57
f 1056 1057 58
f 1056 58 57
f 1056 1055 1058
f 1056 1058 1059
f 1056 1059 1060
f 1056 1060 1057
f 1060 1061 1062
f 1060 1062 1057
f 1060 1059 1030
f 1060 1030 1029
f 1060 1029 1063
f 1060 1063 1061
f 1063 1064 1065
f 1063 1065 1061
f 1063 1029 1026
f 1063 1026 1025
f 1063 1025 1024
f 1063 1024 1064
f 1065 1066 1067
f 1065 1067 1068
f 1065 1068 1062
f 1065 1062 1061
f 1065 1064 1069
f 1065 1069 1066
f 1069 3 2
f 1069 2 1066
f 1069 1064 1024
f 1069 1024 1070
f 1069 1070 1071
f 1069 1071 3
f 1071 1072 4
f 1071 4 3
f 1071 1070 1019
f 1071 1019 1017
f 1071 1017 1015
f 1071 1015 1072
f 1072 10 5
f 1072 5 4
f 1072 1015 1013
f 1072 1013 10
f 1070 1024 1021
f 1070 1021 1019
f 1068 1067 1073
f 1068 1073 1074
f 1068 1074 59
f 1068 59 1062
f 1074 1073 32
f 1074 32 31
f 1074 31 30
f 1074 30 59
f 1073 1075 1076
f 1073 1076 32
f 1073 1067 7
f 1073 7 1075
f 1076 1075 1077
f 1076 1077 1078
f 1076 1078 1049
f 1076 1049 1048
f 1076 1048 27
f 1076 27 32
f 1078 1077 9
f 1078 9 12
f 1078 12 17
f 1078 17 1049
f 1077 1075 7
f 1077 7 6
f 1077 6 5
f 1077 5 9
f 1067 1066 2
f 1067 2 7
f 1062 59 58
f 1062 58 1057
f 1059 1058 1031
f 1059 1031 1030
f 1058 1055 1054
f 1058 1054 1079
f 1058 1079 1033
f 1058 1033 1031
f 1079 1054 106
f 1079 106 111
f 1079 111 1035
f 1079 1035 1033
f 1054 1052 107
f 1054 107 106
f 1051 56 29
f 1051 29 28
f 1048 1047 28
f 1048 28 27
f 1039 1037 110
f 1039 110 109
f 1037 1035 111
f 1037 111 110
f 1013 1011 8
f 1013 8 10
f 1011 1009 13
f 1011 13 8
f 298 295 291
f 298 291 290
f 247 199 195
f 247 195 193
f 167 147 145
f 167 145 144
f 157 152 150
f 157 150 149
f 136 126 125
f 136 125 118
f 80 62 61
f 80 61 71
f 65 63 40
f 65 40 42
# Vertices: 1079, normals: 0, texture coordinates: 0, faces: 2154

