# File generated by ImageToStl.com - Free Image and 3D model conversion tools

o obj1
v 0.183498 0.000285 0.029396
v 0.18373901 -0.000368 0.02045
v 0.183817 0.004485 0.022895
v 0.182715 0.006735 0.026953
v 0.179144 0.008157 0.019625
v 0.179594 0.000872 0.01657
v 0.177077 0.012106 0.025361
v 0.181003 -0.003581 0.023827
v 0.175515 -0.004121 0.0207
v 0.182206 0.007163 0.030831
v 0.181759 0.004159 0.033042
v 0.18172599 0.001131 0.032753
v 0.180134 -0.000986 0.032952
v 0.178835 -0.003223 0.031175
v 0.179261 -0.00358 0.027931
v 0.176292 0.012766 0.031354
v 0.173859 0.002874 0.015709
v 0.174658 0.01001 0.01901
v 0.173767 0.013619 0.025064
v 0.170692 -0.002906 0.019888
v 0.172952 0.014303 0.03127
v 0.17253301 -0.005042 0.026697
v 0.16858099 -0.004572 0.026282
v 0.17767701 0.008137 0.035737
v 0.179207 0.002287 0.036761
v 0.175111 -0.00144 0.036083
v 0.171803 -0.004429 0.032269
v 0.17452601 0.009871 0.036282
v 0.171105 0.004099 0.019477
v 0.172901 0.008947 0.021471
v 0.173556 0.011673 0.025841
v 0.169036 -0.000402 0.022002
v 0.17290799 0.012217 0.030777
v 0.167504 -0.002322 0.026665
v 0.173105 0.009647 0.035378
v 0.16777501 -0.003896 0.032417
v 0.16684701 -0.00177 0.031671
v 0.17597599 0.00353 0.038094
v 0.171377 -0.000796 0.036926
v 0.17282 0.004644 0.037822
v 0.167422 0.010278 0.022128
v 0.165392 0.006208 0.020456
v 0.16847301 0.012581 0.025938
v 0.161294 0.00369 0.023154
v 0.16790099 0.013063 0.03031
v 0.15796401 0.003869 0.026844
v 0.16886801 0.011076 0.035078
v 0.157529 0.004235 0.030159
v 0.16903199 0.006033 0.038323
v 0.169296 0.000496 0.035989
v 0.162606 0.003456 0.034774
v 0.149399 0.011833 0.018741
v 0.151926 0.016076 0.020915
v 0.15332501 0.018075 0.025141
v 0.147607 0.00794 0.02177
v 0.152743 0.018565 0.029582
v 0.146614 0.006967 0.026061
v 0.156123 0.014148 0.032776
v 0.146107 0.007395 0.029939
v 0.15970799 0.009062 0.033379
v 0.152642 0.008002 0.03276
v 0.130372 0.018019 0.008721
v 0.134343 0.025761 0.014846
v 0.135809 0.02733 0.023087
v 0.12845799 0.009417 0.014712
v 0.134977 0.028029 0.029433
v 0.128067 0.006554 0.023502
v 0.134032 0.022725 0.03251
v 0.127002 0.007447 0.03161
v 0.134074 0.018112 0.031185
v 0.13054401 0.014166 0.034207
v 0.129658 0.027556 0.014417
v 0.12705401 0.019205 0.008671
v 0.129806 0.030023 0.02257
v 0.123837 0.010101 0.013384
v 0.12892801 0.030761 0.029269
v 0.12156 0.00583 0.022469
v 0.128765 0.025209 0.03295
v 0.120257 0.006926 0.032412
v 0.129418 0.019846 0.032215
v 0.12482 0.015 0.035735
v 0.12586699 0.027864 0.015796
v 0.12385 0.020489 0.010808
v 0.12574901 0.030118 0.022893
v 0.119887 0.012079 0.013847
v 0.124981 0.030763 0.028745
v 0.11625 0.007133 0.022068
v 0.125743 0.026398 0.032931
v 0.1149 0.008268 0.032365
v 0.126683 0.020927 0.033804
v 0.120642 0.015835 0.036507
v 0.124746 0.026284 0.01873
v 0.125562 0.020012 0.01296
v 0.121871 0.026669 0.024579
v 0.120385 0.013626 0.015847
v 0.121501 0.02698 0.0274
v 0.115655 0.010496 0.022776
v 0.122756 0.02539 0.030412
v 0.114556 0.011421 0.031167
v 0.123546 0.021962 0.032383
v 0.118922 0.017679 0.034559
v 0.124446 0.024217 0.021998
v 0.125108 0.020521 0.01845
v 0.122545 0.024297 0.025443
v 0.12154 0.016857 0.020077
v 0.12235 0.024461 0.026924
v 0.118206 0.015076 0.024183
v 0.121725 0.024492 0.028912
v 0.11754 0.015636 0.02926
v 0.120587 0.022912 0.030628
v 0.118921 0.019659 0.03157
v 0.120891 0.022527 0.02628
v 0.177443 -0.000132 -0.000205
v 0.175716 0.000194 -0.005977
v 0.178637 0.002281 -0.004579
v 0.18084399 0.002691 -0.002012
v 0.17014299 0.002724 -0.006346
v 0.1741 0.00503 -0.005034
v 0.177342 0.005605 -0.002097
v 0.17431501 -0.00268 -0.004366
v 0.168929 -0.001379 -0.005192
v 0.18104599 0.002814 0.000651
v 0.17997 0.001442 0.002617
v 0.178597 -0.000394 0.003111
v 0.176321 -0.002151 0.003549
v 0.17391901 -0.003942 0.001967
v 0.173669 -0.004095 -0.001328
v 0.17760099 0.005763 0.001338
v 0.166678 0.004333 -0.006122
v 0.170985 0.006352 -0.004541
v 0.17444199 0.006379 -0.00162
v 0.16517401 0.000576 -0.0046
v 0.174676 0.006521 0.001466
v 0.168396 -0.004311 -0.001511
v 0.16445699 -0.001741 -0.000936
v 0.17683899 0.003512 0.003602
v 0.175815 0.000943 0.003841
v 0.17253 -0.001238 0.005151
v 0.168763 -0.004088 0.003326
v 0.174115 0.004258 0.003281
v 0.16590001 0.008033 -0.00305
v 0.15963 0.007893 -0.00212
v 0.17234699 0.008286 -0.001725
v 0.16146401 0.004254 -0.002072
v 0.17262401 0.008454 0.001919
v 0.163569 0.000989 -0.000246
v 0.17181 0.006226 0.004499
v 0.164791 -0.001536 0.003481
v 0.16380399 0.001131 0.002839
v 0.173443 0.001977 0.003158
v 0.169412 0.000681 0.004793
v 0.170619 0.003426 0.005035
v 0.14797001 0.015979 -0.000682
v 0.12701 0.023159 0.001413
v 0.16898 0.008698 -0.001008
v 0.14307401 0.013695 0.000675
v 0.169203 0.008834 0.001937
v 0.15956201 0.005053 0.000719
v 0.16764601 0.007118 0.003734
v 0.15970001 0.005138 0.00254
v 0.165999 0.005436 0.003657
v 0.16709501 0.001929 0.004782
v 0.16277599 0.005068 0.003596
v 0.118064 0.027078 -0.000912
v 0.142819 0.019509 -0.001786
v 0.16693 0.010352 -0.001041
v 0.13231 0.017954 0.000869
v 0.16718499 0.010508 0.002324
v 0.14782999 0.011631 0.002151
v 0.16339099 0.009186 0.004239
v 0.14792 0.011686 0.003343
v 0.159693 0.008345 0.003818
v 0.153694 0.00974 0.003869
v 0.13793699 0.021327 -0.000647
v 0.114104 0.028938 -0.000411
v 0.160873 0.011672 5.6E-05
v 0.122862 0.021679 0.001026
v 0.161061 0.011785 0.00251
v 0.132634 0.016536 0.003065
v 0.151357 0.014808 0.005416
v 0.13282 0.016649 0.005518
v 0.141242 0.017084 0.007107
v 0.13692001 0.016553 0.006976
v 0.109512 0.030963 -0.001447
v 0.117492 0.031605 0.000311
v 0.124386 0.029762 0.003274
v 0.11512 0.023513 -0.000204
v 0.124619 0.029904 0.006359
v 0.121684 0.017875 0.003149
v 0.124507 0.027877 0.008627
v 0.122034 0.018089 0.007777
v 0.123994 0.025178 0.00925
v 0.123178 0.021816 0.009975
v 0.104809 0.033197 -0.00053
v 0.112518 0.034192 0.000419
v 0.119516 0.033429 0.003284
v 0.108105 0.024765 -0.001774
v 0.119814 0.033611 0.00721
v 0.111557 0.016027 0.002424
v 0.119651 0.03136 0.010456
v 0.112195 0.016415 0.010838
v 0.118772 0.027785 0.011818
v 0.115964 0.022809 0.014088
v 0.102624 0.034346 0.001283
v 0.108832 0.035187 0.00182
v 0.114569 0.034812 0.004078
v 0.105062 0.026997 -0.000575
v 0.114825 0.034967 0.007444
v 0.107362 0.018717 0.003025
v 0.116375 0.033458 0.011409
v 0.107969 0.019087 0.011017
v 0.116529 0.029036 0.014551
v 0.11234 0.023973 0.015198
v 0.105622 0.03314 0.00339
v 0.108879 0.034704 0.002477
v 0.112433 0.036622 0.004015
v 0.106383 0.028567 0.001733
v 0.112727 0.0368 0.007872
v 0.106887 0.02296 0.004121
v 0.110922 0.035681 0.01158
v 0.107318 0.023222 0.009799
v 0.108207 0.032785 0.01365
v 0.10772 0.027717 0.013379
v 0.107545 0.03252 0.006631
v 0.166935 -0.002804 -0.015003
v 0.166455 -0.002829 -0.018042
v 0.167125 -0.001462 -0.017381
v 0.16753601 -0.000743 -0.015945
v 0.16515499 0.000316 -0.018604
v 0.164014 -0.001782 -0.018945
v 0.166168 0.001933 -0.016581
v 0.164161 -0.004178 -0.018081
v 0.160561 -0.003508 -0.018996
v 0.167658 -0.000668 -0.014333
v 0.167533 -0.001567 -0.01316
v 0.16722301 -0.002763 -0.01286
v 0.164932 -0.003756 -0.011692
v 0.16222499 -0.00539 -0.012736
v 0.16197599 -0.005541 -0.016031
v 0.16639499 0.002072 -0.013565
v 0.162386 0.001466 -0.018096
v 0.161073 -0.000371 -0.0182
v 0.163651 0.003006 -0.016295
v 0.15793 -0.001774 -0.018106
v 0.163876 0.003142 -0.013351
v 0.15725 -0.005269 -0.016149
v 0.154943 -0.003117 -0.015601
v 0.16608401 0.000336 -0.01148
v 0.165483 -0.001821 -0.01109
v 0.16173901 -0.003181 -0.009871
v 0.157594 -0.005059 -0.011593
v 0.163017 0.001842 -0.01109
v 0.158068 0.000866 -0.019964
v 0.159861 0.003504 -0.019265
v 0.16136999 0.005295 -0.016533
v 0.15562201 -0.000588 -0.017745
v 0.16165601 0.005469 -0.012748
v 0.153974 -0.000405 -0.01483
v 0.16057301 0.003633 -0.010035
v 0.15523601 -0.00294 -0.011746
v 0.154155 -0.000296 -0.012446
v 0.161791 -6.8E-05 -0.010386
v 0.15857799 -0.001503 -0.009892
v 0.159117 0.001237 -0.00944
v 0.15663899 0.004608 -0.01829
v 0.155617 0.002039 -0.019382
v 0.157245 0.006101 -0.015708
v 0.150901 0.002303 -0.016423
v 0.157474 0.00624 -0.012692
v 0.147091 0.004531 -0.013642
v 0.156866 0.004534 -0.010714
v 0.147186 0.004589 -0.01238
v 0.15604 0.002563 -0.010509
v 0.156418 -6.4E-05 -0.010389
v 0.15139499 0.003082 -0.011219
v 0.15291101 0.00346 -0.017174
v 0.141831 0.011325 -0.016512
v 0.13097 0.019393 -0.013524
v 0.13976701 0.007974 -0.014746
v 0.13125201 0.019564 -0.009807
v 0.127093 0.013442 -0.011816
v 0.13665199 0.014085 -0.008601
v 0.12721001 0.013513 -0.010273
v 0.14209899 0.00901 -0.009946
v 0.13456801 0.011028 -0.009715
v 0.126775 0.018158 -0.01471
v 0.125709 0.016232 -0.013716
v 0.128244 0.020666 -0.013256
v 0.120865 0.016082 -0.013804
v 0.128526 0.020838 -0.009541
v 0.116039 0.015702 -0.011604
v 0.125117 0.020304 -0.006433
v 0.116299 0.015861 -0.008171
v 0.12123 0.018972 -0.005279
v 0.11864 0.017039 -0.005799
v 0.111839 0.022322 -0.017158
v 0.113625 0.025674 -0.015689
v 0.114834 0.027542 -0.012177
v 0.110299 0.018383 -0.016074
v 0.115149 0.027732 -0.00804
v 0.109401 0.015469 -0.011955
v 0.115178 0.025885 -0.004286
v 0.109827 0.015727 -0.006346
v 0.11434 0.022376 -0.002319
v 0.111998 0.018682 -0.002742
v 0.107296 0.028803 -0.015354
v 0.105225 0.025495 -0.015484
v 0.109316 0.031647 -0.012213
v 0.104502 0.020441 -0.016322
v 0.10971 0.031886 -0.007025
v 0.103922 0.015123 -0.012289
v 0.111076 0.028199 -0.003387
v 0.104491 0.01547 -0.004786
v 0.111826 0.023513 -0.00253
v 0.108389 0.01971 -0.001305
v 0.102332 0.026801 -0.015771
v 0.104605 0.030175 -0.015279
v 0.106678 0.032778 -0.011916
v 0.09964 0.02293 -0.015576
v 0.107065 0.033014 -0.006798
v 0.097324 0.019389 -0.01129
v 0.107543 0.029704 -0.003221
v 0.097835 0.019701 -0.004559
v 0.107462 0.025523 -0.002447
v 0.102811 0.022716 -0.001421
v 0.101236 0.030661 -0.013156
v 0.099098 0.028432 -0.013971
v 0.103027 0.031937 -0.010599
v 0.09905 0.025407 -0.012757
v 0.103282 0.032093 -0.007235
v 0.099598 0.023489 -0.009964
v 0.104034 0.030116 -0.004417
v 0.099855 0.023644 -0.006601
v 0.104164 0.026981 -0.003152
v 0.101823 0.024809 -0.004013
v 0.101626 0.027703 -0.008618
v 0.154008 0.00071 -0.029467
v 0.151853 0.001243 -0.033241
v 0.153474 0.003449 -0.033013
v 0.155149 0.005023 -0.031165
v 0.146917 0.002944 -0.034332
v 0.149175 0.00608 -0.03375
v 0.151398 0.008101 -0.031038
v 0.152337 -0.001098 -0.032113
v 0.147098 -0.000702 -0.033056
v 0.155661 0.005023 -0.028262
v 0.15495899 0.003052 -0.026368
v 0.15390299 0.000952 -0.026218
v 0.153762 -0.000992 -0.026856
v 0.153716 -0.002226 -0.028451
v 0.153386 -0.002226 -0.03032
v 0.15209299 0.008101 -0.027097
v 0.146531 0.006243 -0.032115
v 0.14523999 0.003673 -0.032306
v 0.14794099 0.008252 -0.030072
v 0.14476199 0.000355 -0.03241
v 0.148514 0.008252 -0.026822
v 0.148072 -0.002959 -0.030203
v 0.14475299 -0.002906 -0.029975
v 0.15096401 0.005607 -0.024355
v 0.149298 0.00275 -0.023904
v 0.14904401 -0.000421 -0.024344
v 0.148681 -0.002959 -0.026745
v 0.148121 0.005965 -0.024693
v 0.143029 0.007374 -0.031266
v 0.14246599 0.004742 -0.031123
v 0.143895 0.00986 -0.029395
v 0.141914 0.002678 -0.030368
v 0.14448 0.00986 -0.026075
v 0.141826 0.001341 -0.028495
v 0.14443199 0.006789 -0.024697
v 0.145485 -0.002906 -0.025824
v 0.14222801 0.001341 -0.026213
v 0.14729901 0.00343 -0.024476
v 0.146672 0.00039 -0.023832
v 0.144242 0.00445 -0.025668
v 0.139116 0.00781 -0.029129
v 0.13828 0.006442 -0.027962
v 0.140568 0.009961 -0.028451
v 0.13766 0.005866 -0.027658
v 0.141031 0.009961 -0.025824
v 0.137198 0.005515 -0.02693
v 0.139376 0.008272 -0.024273
v 0.137344 0.005515 -0.0261
v 0.137537 0.006928 -0.024486
v 0.143391 0.002972 -0.025214
v 0.137346 0.005889 -0.025128
v 0.116152 0.016688 -0.025639
v 0.119574 0.013341 -0.024895
v 0.113529 0.021082 -0.02404
v 0.120595 0.011826 -0.025069
v 0.114115 0.021082 -0.02072
v 0.121782 0.010391 -0.024462
v 0.118864 0.016893 -0.019395
v 0.122014 0.010391 -0.023148
v 0.123151 0.012369 -0.019986
v 0.122349 0.01065 -0.021363
v 0.106092 0.021678 -0.025686
v 0.106605 0.017907 -0.026186
v 0.105753 0.024858 -0.022956
v 0.105667 0.014958 -0.025331
v 0.106435 0.024858 -0.019081
v 0.10535 0.01283 -0.02267
v 0.107843 0.021273 -0.017078
v 0.105959 0.01283 -0.019211
v 0.108822 0.017664 -0.01746
v 0.107525 0.015119 -0.017303
v 0.099356 0.020579 -0.025023
v 0.098654 0.024328 -0.024234
v 0.098008 0.02727 -0.021446
v 0.099429 0.016223 -0.025491
v 0.098642 0.02727 -0.01785
v 0.100037 0.011744 -0.022659
v 0.101499 0.023811 -0.015727
v 0.100963 0.011744 -0.017403
v 0.103742 0.019608 -0.015527
v 0.102678 0.015769 -0.014814
v 0.095663 0.021843 -0.025988
v 0.094165 0.026443 -0.024096
v 0.092355 0.029358 -0.02045
v 0.094835 0.016882 -0.025941
v 0.09299 0.029358 -0.016853
v 0.094753 0.012173 -0.022191
v 0.096147 0.025865 -0.01469
v 0.095838 0.012173 -0.016035
v 0.098654 0.021503 -0.014399
v 0.097699 0.01712 -0.013238
v 0.086585 0.025292 -0.022886
v 0.088257 0.028041 -0.022214
v 0.089837 0.029725 -0.019827
v 0.088064 0.019385 -0.024747
v 0.090411 0.029725 -0.016577
v 0.089994 0.012407 -0.021816
v 0.092289 0.02733 -0.013964
v 0.091237 0.012407 -0.014762
v 0.093383 0.023495 -0.012776
v 0.092839 0.018297 -0.011492
v 0.086167 0.027639 -0.020165
v 0.084403 0.026215 -0.020656
v 0.087786 0.028228 -0.018753
v 0.086541 0.021371 -0.022753
v 0.088116 0.028228 -0.016884
v 0.088915 0.015268 -0.020877
v 0.089246 0.026838 -0.015387
v 0.089902 0.015268 -0.015275
v 0.089925 0.024612 -0.014706
v 0.090483 0.02057 -0.013083
v 0.087887 0.025147 -0.017808
v 0.142331 0.001815 -0.041932
v 0.13945 0.002416 -0.045368
v 0.140965 0.00379 -0.04395
v 0.142056 0.003499 -0.042383
v 0.139008 0.004851 -0.044292
v 0.13713001 0.003016 -0.045631
v 0.14054 0.004985 -0.042403
v 0.13898 0.000677 -0.043866
v 0.135915 0.000622 -0.044366
v 0.142269 0.003488 -0.041381
v 0.142692 0.003028 -0.040323
v 0.142831 0.001792 -0.039591
v 0.141065 0.000797 -0.039698
v 0.139281 0.000328 -0.040551
v 0.138972 0.000342 -0.041998
v 0.14089701 0.004969 -0.040733
v 0.136667 0.005544 -0.043872
v 0.13541999 0.00351 -0.044704
v 0.13782001 0.006444 -0.042052
v 0.13287801 0.001424 -0.043762
v 0.13827001 0.006424 -0.039939
v 0.13527 -0.000668 -0.041871
v 0.130851 -0.000103 -0.041145
v 0.141305 0.004182 -0.039033
v 0.141275 0.00228 -0.037945
v 0.13864399 0.000515 -0.037825
v 0.135841 -0.000695 -0.039201
v 0.13909499 0.004817 -0.038529
v 0.134212 0.006295 -0.043466
v 0.13351899 0.004066 -0.043549
v 0.13514499 0.008158 -0.041798
v 0.13125999 0.002523 -0.042577
v 0.135729 0.008131 -0.039071
v 0.12942 0.001576 -0.040425
v 0.13713001 0.005651 -0.037729
v 0.131505 -0.000133 -0.038086
v 0.129908 0.001554 -0.038144
v 0.139542 0.002724 -0.038237
v 0.13573401 0.001311 -0.037208
v 0.138155 0.003099 -0.038037
v 0.130909 0.007042 -0.04254
v 0.130932 0.00473 -0.043942
v 0.130665 0.007957 -0.040397
v 0.13008 0.002995 -0.042134
v 0.131055 0.007939 -0.03856
v 0.129731 0.002872 -0.040043
v 0.13462099 0.006339 -0.037198
v 0.13004 0.002858 -0.038595
v 0.13766401 0.003303 -0.036428
v 0.134124 0.002146 -0.037434
v 0.133669 0.002245 -0.0373
v 0.128178 0.005558 -0.04176
v 0.12526301 0.008535 -0.04127
v 0.122694 0.011478 -0.039135
v 0.121888 0.005862 -0.039597
v 0.123264 0.011451 -0.036464
v 0.115925 0.007019 -0.037001
v 0.129253 0.008493 -0.035181
v 0.116186 0.007007 -0.035777
v 0.13462301 0.00417 -0.035032
v 0.12511501 0.004481 -0.035339
v 0.101253 0.012929 -0.036061
v 0.101939 0.01463 -0.035918
v 0.102776 0.015948 -0.034608
v 0.099401 0.011302 -0.035758
v 0.103215 0.015927 -0.032549
v 0.097905 0.009743 -0.033904
v 0.117388 0.010817 -0.033857
v 0.09845 0.009718 -0.031344
v 0.13115799 0.005031 -0.03618
v 0.114907 0.00717 -0.033028
v 0.077886 0.019018 -0.037702
v 0.088739 0.020632 -0.036567
v 0.098898 0.018884 -0.034381
v 0.077858 0.012493 -0.03725
v 0.099588 0.018853 -0.031154
v 0.078988 0.006824 -0.032529
v 0.109279 0.013365 -0.031721
v 0.08058 0.00675 -0.025075
v 0.118643 0.008414 -0.034472
v 0.1006 0.009039 -0.027051
v 0.081676 0.02225 -0.034617
v 0.067639 0.02188 -0.034311
v 0.095264 0.019968 -0.03364
v 0.070714 0.014538 -0.035624
v 0.095964 0.019936 -0.030358
v 0.074827 0.007043 -0.031946
v 0.099243 0.016469 -0.029137
v 0.076537 0.006964 -0.023935
v 0.102082 0.012994 -0.029934
v 0.090293 0.011309 -0.024076
v 0.069754 0.021393 -0.032783
v 0.07889 0.022751 -0.03365
v 0.088142 0.0229 -0.032445
v 0.070537 0.016195 -0.033519
v 0.088973 0.022862 -0.02855
v 0.072108 0.010823 -0.030386
v 0.091416 0.019862 -0.025871
v 0.073428 0.010763 -0.02421
v 0.093095 0.01559 -0.025116
v 0.083673 0.013173 -0.02275
v 0.073386 0.02042 -0.033081
v 0.079359 0.022228 -0.033181
v 0.085354 0.02277 -0.031571
v 0.073596 0.015894 -0.033476
v 0.086066 0.022737 -0.028234
v 0.07453 0.011357 -0.03051
v 0.087902 0.020408 -0.025663
v 0.075694 0.011304 -0.025057
v 0.089025 0.016687 -0.02463
v 0.082688 0.013889 -0.023184
v 0.080265 0.018805 -0.028797
v 0.116349 0.036186 0.018171
v 0.116783 0.033061 0.019936
v 0.116588 0.03306 0.016669
v 0.116689 0.03306 0.016524
v 0.116688 0.028687 0.022681
v 0.11593 0.028686 0.015136
v 0.112561 0.033068 0.021188
v 0.109401 0.028699 0.024537
v 0.107732 0.033076 0.022229
v 0.111403 0.033069 0.018219
v 0.109163 0.028697 0.016711
v 0.119027 0.023682 0.019793
v 0.118998 0.023683 0.024305
v 0.11513 0.02369 0.027207
v 0.116171 0.023686 0.016553
v 0.10464 0.028707 0.026328
v 0.111926 0.023696 0.028471
v 0.108715 0.023701 0.027895
v 0.105586 0.023706 0.029589
v 0.100874 0.028712 0.02585
v 0.105765 0.028703 0.020482
v 0.107449 0.0237 0.018916
v 0.120452 0.01743 0.019288
v 0.120489 0.017433 0.028865
v 0.116797 0.017439 0.030594
v 0.118009 0.017433 0.016229
v 0.097922 0.023718 0.029671
v 0.108235 0.017451 0.028106
v 0.101018 0.017464 0.032171
v 0.096608 0.023719 0.027618
v 0.103777 0.023707 0.022927
v 0.107041 0.017451 0.021336
v 0.114399 0.011189 0.017055
v 0.118957 0.011184 0.024185
v 0.118004 0.011186 0.028859
v 0.111465 0.011198 0.033884
v 0.106807 0.011201 0.019346
v 0.095975 0.017471 0.032362
v 0.10342 0.011211 0.035048
v 0.097395 0.01122 0.035793
v 0.096924 0.01747 0.029466
v 0.094802 0.017471 0.025714
v 0.096222 0.01747 0.024766
v 0.099169 0.017465 0.025643
v 0.102447 0.011209 0.023415
v 0.111769 0.00807 0.026277
v 0.107866 0.008077 0.027537
v 0.112909 0.00807 0.029504
v 0.107057 0.00808 0.033391
v 0.101225 0.008087 0.027311
v 0.095178 0.011224 0.035105
v 0.102459 0.008087 0.035027
v 0.098458 0.008093 0.033575
v 0.096132 0.011221 0.03043
v 0.093481 0.011224 0.026201
v 0.093461 0.011223 0.02392
v 0.095844 0.011219 0.022675
v 0.097855 0.011216 0.023653
v 0.105722 0.006518 0.030516
v 0.098963 0.008091 0.029234
v 0.105717 0.016329 0.010297
v 0.105914 0.021829 0.01145
v 0.10632 0.025885 0.013821
v 0.106135 0.016191 0.012737
v 0.10524 0.027948 0.007519
v 0.105032 0.030973 0.006299
v 0.10531 0.033998 0.007926
v 0.106088 0.033242 0.012466
v 0.106889 0.032485 0.017142
v 0.107296 0.027055 0.019513
v 0.106797 0.020935 0.016599
v 0.100657 0.023754 0.011305
v 0.099972 0.031179 0.007307
v 0.100588 0.019355 0.010898
v 0.101203 0.019767 0.014489
v 0.099623 0.032898 0.005274
v 0.099821 0.037848 0.006425
v 0.101111 0.036473 0.013948
v 0.102063 0.035785 0.019504
v 0.102343 0.031729 0.02113
v 0.102458 0.028842 0.021807
v 0.10168 0.02451 0.017267
v 0.095448 0.020798 0.011429
v 0.095495 0.027192 0.011701
v 0.094971 0.032073 0.008651
v 0.096121 0.02231 0.015361
v 0.0946 0.034135 0.006483
v 0.094646 0.037367 0.006754
v 0.095204 0.037367 0.010007
v 0.095831 0.037848 0.013666
v 0.096633 0.036061 0.018342
v 0.09683 0.032623 0.019495
v 0.096423 0.027055 0.017121
v 0.090191 0.017979 0.011285
v 0.090017 0.020661 0.010268
v 0.08989 0.027467 0.009523
v 0.089413 0.031867 0.006744
v 0.090818 0.021279 0.014944
v 0.089367 0.034892 0.006474
v 0.090923 0.035442 0.015554
v 0.0914 0.031454 0.018332
v 0.090517 0.027948 0.013182
v 0.097298 0.031823 -0.00817
v 0.094692 0.031823 -0.008917
v 0.089155 0.032448 -7E-06
v 0.097349 0.031823 -0.003927
v 0.087509 0.031823 -0.004667
v 0.080962 0.031823 -0.004718
v 0.078178 0.031823 -0.000357
v 0.077033 0.031823 0.005748
v 0.081891 0.031823 0.006667
v 0.084975 0.031823 0.004727
v 0.092108 0.031823 0.005946
v 0.097424 0.031823 0.005135
v 0.099361 0.031823 0.001367
v 0.098489 0.026198 -0.008254
v 0.093628 0.026198 -0.007397
v 0.098001 0.026198 -0.003471
v 0.089122 0.026198 -0.002351
v 0.084279 0.026198 -0.003908
v 0.080835 0.026198 -0.002919
v 0.080028 0.026198 0.000778
v 0.078517 0.026198 0.00409
v 0.081305 0.026198 0.004423
v 0.084954 0.026198 0.005683
v 0.090187 0.026198 0.003683
v 0.096563 0.026198 0.003129
v 0.098257 0.026198 0.001942
v 0.098523 0.019948 -0.008068
v 0.094652 0.019948 -0.007704
v 0.08896 0.019948 -0.003274
v 0.097197 0.019948 -0.00263
v 0.08611 0.019948 -0.004675
v 0.082961 0.019948 -0.002024
v 0.079919 0.019948 0.000161
v 0.079727 0.019948 0.003748
v 0.083663 0.019948 0.003753
v 0.089741 0.019948 0.001158
v 0.096142 0.019948 3E-05
v 0.093283 0.013698 -0.003591
v 0.088156 0.013698 -0.002433
v 0.0896 0.013698 0.000358
v 0.093626 0.013698 -0.000922
v 0.085097 0.013698 -0.003227
v 0.0817 0.013698 0.001624
v 0.084361 0.013698 0.003757
v 0.087691 0.013698 0.002852
v 0.08854 0.012135 -0.000977
v 0.060595 0.020748 -0.021877
v 0.060241 0.017546 -0.023888
v 0.059094 0.018403 -0.021487
v 0.06138 0.016599 -0.017429
v 0.059865 0.015516 -0.026021
v 0.059276 0.015652 -0.020451
v 0.065885 0.026116 -0.0186
v 0.06553 0.019485 -0.020611
v 0.067808 0.022011 -0.007692
v 0.066734 0.02553 -0.013786
v 0.06124 0.012719 -0.018221
v 0.068506 0.016102 -0.003732
v 0.060563 0.011321 -0.02206
v 0.06495 0.016012 -0.023901
v 0.064585 0.012404 -0.025973
v 0.065112 0.009968 -0.022987
v 0.072323 0.029319 -0.017723
v 0.071603 0.028958 -0.021807
v 0.071259 0.025168 -0.023758
v 0.071044 0.018223 -0.024975
v 0.074826 0.022327 -0.003527
v 0.074686 0.025349 -0.004318
v 0.073623 0.029364 -0.010351
v 0.067411 0.009878 -0.009948
v 0.06827 0.009968 -0.005073
v 0.074547 0.014253 -0.005112
v 0.065788 0.010554 -0.019148
v 0.066465 0.012042 -0.01531
v 0.071119 0.01281 -0.024549
v 0.07186 0.010374 -0.020345
v 0.078695 0.026116 -0.017214
v 0.077857 0.02377 -0.021967
v 0.079619 0.026522 -0.011974
v 0.077373 0.018042 -0.02471
v 0.077373 0.013306 -0.02471
v 0.08079 0.014253 -0.005332
v 0.080919 0.021335 -0.004601
v 0.08079 0.0235 -0.005332
v 0.072946 0.010554 -0.014191
v 0.074439 0.008118 -0.005721
v 0.074901 0.009878 -0.0031
v 0.081059 0.008028 -0.003809
v 0.07746 0.009968 -0.024221
v 0.078115 0.008614 -0.020505
v 0.085273 0.02571 -0.015546
v 0.084746 0.022327 -0.018534
v 0.086047 0.02553 -0.011159
v 0.085251 0.025755 -0.015669
v 0.084155 0.016418 -0.021884
v 0.083865 0.013802 -0.023529
v 0.086788 0.012539 -0.006955
v 0.086433 0.017636 -0.008966
v 0.086454 0.024086 -0.008845
v 0.079253 0.009607 -0.014046
v 0.080479 0.007938 -0.0071
v 0.080951 0.006855 -0.004418
v 0.086551 0.009607 -0.008296
v 0.083833 0.010193 -0.023713
v 0.085014 0.010554 -0.01701
v 0.086119 0.01732 -0.014313
v 0.08595 0.009607 -0.011708
v 0.094428 0.028315 0.033456
v 0.091068 0.033648 0.035021
v 0.088646 0.026495 0.038048
v 0.091333 0.022005 0.034899
v 0.083883 0.031319 0.038372
v 0.083497 0.027774 0.038553
v 0.082033 0.024845 0.039235
v 0.083289 0.021699 0.038649
v 0.089298 0.020536 0.035848
v 0.090874 0.032529 0.029422
v 0.089105 0.037192 0.030249
v 0.085705 0.037407 0.031833
v 0.092194 0.027808 0.028807
v 0.089665 0.021275 0.029987
v 0.086966 0.015192 0.031245
v 0.083841 0.035713 0.032703
v 0.080564 0.033116 0.03423
v 0.082447 0.02879 0.033352
v 0.08247 0.021928 0.033342
v 0.080614 0.017929 0.034208
v 0.084192 0.014565 0.032539
v 0.092048 0.032599 0.021289
v 0.091574 0.039122 0.021511
v 0.08806 0.039955 0.023149
v 0.083869 0.039717 0.025104
v 0.091952 0.027086 0.021334
v 0.086889 0.016494 0.023695
v 0.089368 0.020046 0.022539
v 0.082764 0.013107 0.025619
v 0.080192 0.038243 0.026818
v 0.079859 0.036047 0.026974
v 0.081694 0.028797 0.026118
v 0.08064 0.021988 0.026609
v 0.077204 0.015958 0.028212
v 0.079705 0.013659 0.027046
v 0.089438 0.028549 0.014921
v 0.089021 0.035242 0.015116
v 0.086406 0.038271 0.016335
v 0.082448 0.035952 0.018182
v 0.079051 0.035491 0.019766
v 0.082049 0.01857 0.018366
v 0.083737 0.022344 0.01758
v 0.079728 0.018563 0.019449
v 0.075606 0.0325 0.021372
v 0.076869 0.026935 0.020782
v 0.076144 0.023445 0.021121
v 0.085398 0.029165 0.009219
v 0.085895 0.033273 0.008988
v 0.083111 0.035963 0.010287
v 0.07762 0.034878 0.012847
v 0.073661 0.033234 0.014692
v 0.07703 0.024244 0.013121
v 0.079132 0.022451 0.012141
v 0.081336 0.023921 0.011113
v 0.071004 0.031538 0.015931
v 0.071635 0.028784 0.015638
v 0.078643 0.028927 0.004784
v 0.077505 0.030274 0.005314
v 0.077629 0.026843 0.005256
v 0.073876 0.030938 0.007006
v 0.069802 0.029969 0.008906
v 0.073887 0.027675 0.007001
v 0.075197 0.028525 0.004493
v -0.0098 0.006447 0.006334
v -0.007966 0.008535 0.006963
v -0.008845 0.009352 0.003246
v -0.00875 0.008045 0.001771
v -0.004961 0.019645 0.002182
v -0.005386 0.018339 -0.002249
v -0.0052 0.015944 -0.004885
v -0.005553 0.003581 0.013011
v -0.00203 0.016106 0.013341
v 0.000369 0.010554 0.018377
v -0.004554 0.001729 0.015819
v -0.005792 0.002438 0.00988
v -0.007385 0.004887 0.004639
v -0.004306 0.012187 -0.005613
v 0.000774 0.02838 -0.003779
v 0.000914 0.029905 -0.000632
v 0.002672 0.029905 0.00934
v 0.001943 0.019506 -0.010841
v 0.003472 0.001299 0.021701
v 0.005396 -0.005126 0.022695
v 0.004183 0.027182 0.013706
v 0.00586 0.022718 0.01633
v 0.008739 0.014443 0.019884
v 0.006055 -0.008774 0.020801
v 0.004765 -0.00763 0.015254
v 0.002472 -0.005398 0.005694
v 0.001215 -0.002894 0.002425
v -0.001094 0.002605 -0.002182
v 0.004266 0.011775 -0.009599
v 0.003186 0.014715 -0.011186
v 0.008239 0.033522 -0.005478
v 0.00977 0.024593 -0.01057
v 0.010963 0.033685 0.010226
v 0.011349 0.017787 -0.012118
v 0.011647 0.006712 0.024448
v 0.013754 -0.000202 0.025727
v 0.014986 -0.006517 0.022971
v 0.012109 0.031888 0.013958
v 0.016285 0.018822 0.017475
v 0.014843 -0.009839 0.017031
v 0.013681 -0.009512 0.010952
v 0.012405 -0.007715 0.006482
v 0.010273 -0.003959 0.000194
v 0.008775 -0.001945 -0.005191
v 0.007818 0.000287 -0.007181
v 0.006332 0.006168 -0.006536
v 0.013006 0.012125 -0.011458
v 0.017004 0.037356 -0.001818
v 0.016899 0.035777 -0.004846
v 0.017396 0.031422 -0.008743
v 0.018936 0.024399 -0.010853
v 0.0193 0.037247 0.011041
v 0.021396 0.00385 0.023364
v 0.023139 -0.000777 0.026103
v 0.024313 -0.005678 0.025198
v 0.024253 -0.008781 0.020068
v 0.020443 0.035342 0.014584
v 0.021798 0.030986 0.01555
v 0.026402 0.015307 0.017468
v 0.023393 -0.00791 0.016538
v 0.020286 -0.004153 0.00471
v 0.017762 -0.001703 -0.005824
v 0.016829 -0.001377 -0.010609
v 0.015774 0.001019 -0.012899
v 0.014776 0.005701 -0.011327
v 0.021741 0.014054 -0.010903
v 0.025247 0.037815 -0.006318
v 0.025655 0.033351 -0.010896
v 0.025696 0.038414 -0.002844
v 0.027299 0.038306 0.006077
v 0.027698 0.023714 -0.014176
v 0.027691 0.039122 0.009561
v 0.029824 0.005507 0.021751
v 0.030491 0.002893 0.021506
v 0.030199 0.00137 0.017496
v 0.030129 0.035148 0.017255
v 0.031377 0.031118 0.018114
v 0.034351 0.018162 0.014987
v 0.036801 0.011301 0.018299
v 0.026774 0.001478 -0.001763
v 0.02589 0.000552 -0.008208
v 0.025198 0.000335 -0.012466
v 0.023705 0.004309 -0.014804
v 0.02325 0.006813 -0.013518
v 0.031641 0.010213 -0.012649
v 0.029073 0.017726 -0.015624
v 0.034757 0.035988 -0.007171
v 0.034814 0.034083 -0.009781
v 0.036278 0.025699 -0.01442
v 0.035031 0.037621 -0.003092
v 0.03784 0.03479 0.008469
v 0.036714 0.021125 -0.019003
v 0.0396 0.034083 0.017361
v 0.037652 0.007545 0.017324
v 0.037155 0.007164 0.013921
v 0.03583 0.004822 0.002795
v 0.039879 0.035824 0.021628
v 0.040567 0.034572 0.023601
v 0.041697 0.029836 0.022703
v 0.042146 0.025263 0.018182
v 0.043691 0.016279 0.013087
v 0.044293 0.013993 0.01298
v 0.035187 0.005041 -0.000519
v 0.0348 0.003299 -0.005401
v 0.033746 0.004822 -0.009023
v 0.040465 0.012958 -0.010334
v 0.037966 0.017695 -0.017193
v 0.045452 0.030567 -0.006834
v 0.043874 0.033181 -0.011761
v 0.046747 0.03035 0.000172
v 0.04662 0.033181 0.003812
v 0.04428 0.029751 -0.014753
v 0.047526 0.034596 0.011141
v 0.047277 0.040313 0.018547
v 0.044805 0.024469 -0.019921
v 0.047303 0.042109 0.021461
v 0.044551 0.01187 0.011157
v 0.043857 0.012686 0.008488
v 0.043857 0.008331 0.00176
v 0.048252 0.043035 0.028275
v 0.049123 0.040803 0.029771
v 0.051378 0.029751 0.025503
v 0.051969 0.027138 0.024827
v 0.051788 0.024905 0.020354
v 0.051332 0.02153 0.012563
v 0.052417 0.01565 0.009643
v 0.043345 0.007187 -0.002909
v 0.042244 0.00893 -0.006459
v 0.048851 0.015922 -0.010163
v 0.046958 0.019515 -0.01535
v 0.045631 0.021421 -0.019941
v 0.053657 0.034838 -0.005679
v 0.052701 0.034021 -0.012365
v 0.052572 0.033313 -0.014184
v 0.053027 0.030482 -0.015977
v 0.053788 0.037178 -0.001324
v 0.055299 0.03413 0.002536
v 0.055374 0.022697 -0.014677
v 0.053537 0.027434 -0.017781
v 0.057503 0.032442 0.012428
v 0.05252 0.012384 0.005183
v 0.052469 0.010478 0.001956
v 0.058934 0.030101 0.016935
v 0.059485 0.027434 0.01595
v 0.059073 0.026944 0.012849
v 0.059527 0.022098 0.007946
v 0.060071 0.015673 0.001123
v 0.050994 0.010968 -0.005655
v 0.058739 0.01159 -0.012732
v 0.057997 0.013333 -0.014252
v 0.057019 0.018069 -0.012491
v 0.060101 0.036748 -0.005165
v 0.060028 0.032991 -0.011372
v 0.060658 0.03702 -0.001583
v 0.063056 0.032991 0.005801
v 0.06148 0.028145 -0.010613
v 0.060959 0.028309 -0.013313
v 0.060414 0.030051 -0.013725
v 0.059597 0.01159 -0.007869
v 0.064011 0.030976 0.008106
v 0.065459 0.025695 0.008168
v 0.065738 0.024062 0.007231
v 0.064097 0.028635 0.004982
v 0.062797 0.030268 0.000134
v 0.061771 0.029343 -0.007111
v 0.063076 0.036114 -0.002263
v 0.062657 0.033337 -0.008916
v 0.064369 0.033881 0.001634
f 1 2 3
f 1 3 4
f 5 3 6
f 2 6 3
f 7 4 5
f 3 5 4
f 1 8 2
f 9 6 8
f 2 8 6
f 1 4 10
f 1 10 11
f 1 11 12
f 1 12 13
f 1 13 14
f 1 14 15
f 1 15 8
f 16 10 7
f 4 7 10
f 6 17 5
f 17 18 5
f 5 18 7
f 19 7 18
f 6 9 17
f 20 17 9
f 21 16 19
f 7 19 16
f 22 9 15
f 8 15 9
f 9 22 20
f 23 20 22
f 16 24 10
f 11 10 24
f 24 25 11
f 12 11 25
f 26 13 25
f 12 25 13
f 27 14 26
f 13 26 14
f 27 22 14
f 15 14 22
f 24 16 28
f 21 28 16
f 17 29 18
f 30 18 29
f 18 30 19
f 19 30 31
f 17 20 29
f 20 32 29
f 21 19 33
f 31 33 19
f 20 23 32
f 34 32 23
f 21 33 28
f 35 28 33
f 36 23 27
f 22 27 23
f 23 36 34
f 37 34 36
f 25 24 38
f 28 38 24
f 25 38 26
f 39 26 38
f 26 39 27
f 36 27 39
f 38 28 40
f 35 40 28
f 30 29 41
f 42 41 29
f 30 41 31
f 43 31 41
f 29 32 42
f 44 42 32
f 31 43 33
f 45 33 43
f 32 34 44
f 46 44 34
f 45 47 33
f 35 33 47
f 34 37 46
f 48 46 37
f 47 49 35
f 40 35 49
f 37 36 50
f 39 50 36
f 50 51 37
f 48 37 51
f 38 40 39
f 50 39 40
f 51 50 49
f 40 49 50
f 52 53 42
f 53 41 42
f 53 54 41
f 43 41 54
f 55 52 44
f 42 44 52
f 56 45 54
f 43 54 45
f 57 55 46
f 44 46 55
f 47 45 58
f 56 58 45
f 59 57 48
f 46 48 57
f 49 47 60
f 58 60 47
f 51 61 48
f 59 48 61
f 49 60 51
f 61 51 60
f 62 63 52
f 53 52 63
f 63 64 53
f 54 53 64
f 62 52 65
f 55 65 52
f 66 56 64
f 54 64 56
f 65 55 67
f 57 67 55
f 66 68 56
f 58 56 68
f 69 67 59
f 57 59 67
f 68 70 58
f 60 58 70
f 69 59 71
f 61 71 59
f 71 61 70
f 60 70 61
f 63 62 72
f 72 62 73
f 64 63 74
f 72 74 63
f 65 75 62
f 73 62 75
f 76 66 74
f 66 64 74
f 67 77 65
f 75 65 77
f 76 78 66
f 68 66 78
f 79 77 69
f 67 69 77
f 78 80 68
f 70 68 80
f 79 69 81
f 71 81 69
f 70 80 71
f 81 71 80
f 82 72 83
f 73 83 72
f 84 74 82
f 74 72 82
f 85 83 75
f 75 83 73
f 74 84 76
f 86 76 84
f 87 85 77
f 75 77 85
f 86 88 76
f 78 76 88
f 89 87 79
f 87 77 79
f 80 78 90
f 88 90 78
f 89 79 91
f 81 91 79
f 91 81 90
f 80 90 81
f 92 82 93
f 93 82 83
f 94 84 92
f 82 92 84
f 93 83 95
f 95 83 85
f 84 94 86
f 96 86 94
f 97 95 87
f 95 85 87
f 86 96 88
f 96 98 88
f 87 89 97
f 99 97 89
f 98 100 88
f 90 88 100
f 101 99 91
f 89 91 99
f 90 100 91
f 101 91 100
f 102 92 103
f 92 93 103
f 104 94 102
f 94 92 102
f 93 95 103
f 105 103 95
f 96 94 106
f 104 106 94
f 97 107 95
f 105 95 107
f 96 106 98
f 108 98 106
f 99 109 97
f 107 97 109
f 100 98 110
f 108 110 98
f 111 109 101
f 99 101 109
f 110 111 100
f 101 100 111
f 103 112 102
f 102 112 104
f 105 112 103
f 104 112 106
f 107 112 105
f 106 112 108
f 109 112 107
f 108 112 110
f 111 112 109
f 110 112 111
f 113 114 115
f 113 115 116
f 117 118 114
f 115 114 118
f 118 119 115
f 116 115 119
f 113 120 114
f 117 114 121
f 120 121 114
f 113 116 122
f 113 122 123
f 113 123 124
f 113 124 125
f 113 125 126
f 113 126 127
f 113 127 120
f 128 122 119
f 116 119 122
f 129 130 117
f 118 117 130
f 130 131 118
f 119 118 131
f 121 132 117
f 129 117 132
f 119 131 128
f 133 128 131
f 121 120 134
f 120 127 134
f 134 135 121
f 132 121 135
f 128 136 122
f 123 122 136
f 136 137 123
f 124 123 137
f 124 137 125
f 138 125 137
f 139 126 138
f 125 138 126
f 139 134 126
f 127 126 134
f 128 133 136
f 133 140 136
f 130 129 141
f 141 129 142
f 131 130 143
f 141 143 130
f 132 144 129
f 129 144 142
f 145 133 143
f 131 143 133
f 144 132 146
f 135 146 132
f 145 147 133
f 140 133 147
f 134 139 135
f 148 135 139
f 135 148 146
f 149 146 148
f 136 140 137
f 150 137 140
f 151 138 150
f 137 150 138
f 148 139 151
f 139 138 151
f 147 152 140
f 150 140 152
f 141 142 153
f 154 153 142
f 143 141 155
f 153 155 141
f 144 156 142
f 142 156 154
f 143 155 145
f 157 145 155
f 146 158 144
f 156 144 158
f 145 157 147
f 159 147 157
f 146 149 158
f 160 158 149
f 147 159 152
f 161 152 159
f 149 148 162
f 151 162 148
f 162 163 149
f 160 149 163
f 150 152 151
f 162 151 152
f 152 161 162
f 163 162 161
f 164 165 154
f 153 154 165
f 165 166 153
f 155 153 166
f 164 154 167
f 156 167 154
f 168 157 166
f 155 166 157
f 158 169 156
f 167 156 169
f 170 159 168
f 157 168 159
f 158 160 169
f 171 169 160
f 159 170 161
f 172 161 170
f 163 173 160
f 171 160 173
f 161 172 163
f 163 172 173
f 165 164 174
f 175 174 164
f 166 165 176
f 174 176 165
f 167 177 164
f 175 164 177
f 166 176 168
f 178 168 176
f 177 167 179
f 169 179 167
f 168 178 170
f 180 170 178
f 181 179 171
f 169 171 179
f 170 180 172
f 182 172 180
f 181 171 183
f 173 183 171
f 183 173 182
f 172 182 173
f 184 185 175
f 174 175 185
f 185 186 174
f 176 174 186
f 177 187 175
f 175 187 184
f 188 178 186
f 176 186 178
f 187 177 189
f 189 177 179
f 190 180 188
f 178 188 180
f 191 189 181
f 179 181 189
f 192 182 190
f 180 190 182
f 191 181 193
f 181 183 193
f 193 183 192
f 192 183 182
f 194 195 184
f 185 184 195
f 186 185 196
f 195 196 185
f 187 197 184
f 194 184 197
f 198 188 196
f 186 196 188
f 189 199 187
f 197 187 199
f 198 200 188
f 190 188 200
f 201 199 191
f 189 191 199
f 200 202 190
f 192 190 202
f 201 191 203
f 203 191 193
f 203 193 202
f 192 202 193
f 204 205 194
f 195 194 205
f 205 206 195
f 196 195 206
f 204 194 207
f 197 207 194
f 196 206 198
f 198 206 208
f 199 209 197
f 207 197 209
f 208 210 198
f 200 198 210
f 199 201 209
f 211 209 201
f 210 212 200
f 202 200 212
f 211 201 213
f 203 213 201
f 213 203 212
f 202 212 203
f 204 214 205
f 215 205 214
f 216 206 215
f 205 215 206
f 204 207 214
f 217 214 207
f 218 208 216
f 206 216 208
f 217 207 219
f 209 219 207
f 210 208 220
f 218 220 208
f 209 211 219
f 221 219 211
f 212 210 222
f 210 220 222
f 223 221 213
f 213 221 211
f 212 222 213
f 223 213 222
f 214 224 215
f 215 224 216
f 217 224 214
f 216 224 218
f 219 224 217
f 218 224 220
f 221 224 219
f 220 224 222
f 223 224 221
f 222 224 223
f 225 226 227
f 225 227 228
f 229 227 230
f 230 227 226
f 229 231 227
f 228 227 231
f 225 232 226
f 226 232 230
f 233 230 232
f 225 228 234
f 225 234 235
f 225 235 236
f 225 236 237
f 225 237 238
f 225 238 239
f 225 239 232
f 240 234 231
f 228 231 234
f 229 230 241
f 242 241 230
f 241 243 229
f 231 229 243
f 244 242 233
f 230 233 242
f 231 243 240
f 245 240 243
f 232 239 233
f 239 246 233
f 247 244 246
f 233 246 244
f 240 248 234
f 235 234 248
f 248 249 235
f 236 235 249
f 236 249 237
f 250 237 249
f 237 250 238
f 251 238 250
f 251 246 238
f 239 238 246
f 252 248 245
f 240 245 248
f 253 254 242
f 241 242 254
f 254 255 241
f 241 255 243
f 242 244 253
f 256 253 244
f 257 245 255
f 243 255 245
f 258 256 247
f 247 256 244
f 259 252 257
f 245 257 252
f 246 251 247
f 260 247 251
f 247 260 258
f 261 258 260
f 262 249 252
f 248 252 249
f 263 250 262
f 249 262 250
f 260 251 263
f 250 263 251
f 264 262 259
f 252 259 262
f 254 253 265
f 266 265 253
f 255 254 267
f 265 267 254
f 253 256 266
f 266 256 268
f 255 267 257
f 257 267 269
f 256 258 268
f 270 268 258
f 257 269 259
f 271 259 269
f 258 261 270
f 272 270 261
f 259 271 264
f 273 264 271
f 261 260 274
f 263 274 260
f 274 275 261
f 272 261 275
f 262 264 263
f 274 263 264
f 264 273 274
f 274 273 275
f 266 276 265
f 277 265 276
f 265 277 267
f 278 267 277
f 266 268 276
f 279 276 268
f 280 269 278
f 267 278 269
f 268 270 279
f 281 279 270
f 271 269 282
f 280 282 269
f 283 281 272
f 270 272 281
f 273 271 284
f 282 284 271
f 275 285 272
f 283 272 285
f 273 284 275
f 285 275 284
f 286 277 287
f 276 287 277
f 288 278 286
f 277 286 278
f 289 287 279
f 276 279 287
f 278 288 280
f 290 280 288
f 291 289 281
f 279 281 289
f 282 280 292
f 290 292 280
f 293 291 283
f 281 283 291
f 292 294 282
f 284 282 294
f 293 283 295
f 285 295 283
f 295 285 294
f 284 294 285
f 296 297 287
f 286 287 297
f 297 298 286
f 288 286 298
f 299 296 289
f 287 289 296
f 300 290 298
f 288 298 290
f 301 299 291
f 299 289 291
f 302 292 300
f 290 300 292
f 303 301 293
f 291 293 301
f 304 294 302
f 294 292 302
f 303 293 305
f 295 305 293
f 305 295 304
f 294 304 295
f 297 296 306
f 307 306 296
f 306 308 297
f 298 297 308
f 307 296 309
f 299 309 296
f 310 300 308
f 298 308 300
f 309 299 311
f 301 311 299
f 310 312 300
f 302 300 312
f 313 311 303
f 301 303 311
f 312 314 302
f 302 314 304
f 313 303 315
f 315 303 305
f 315 305 314
f 305 304 314
f 316 317 307
f 306 307 317
f 317 318 306
f 308 306 318
f 309 319 307
f 316 307 319
f 308 318 310
f 320 310 318
f 311 321 309
f 319 309 321
f 312 310 322
f 322 310 320
f 311 313 321
f 323 321 313
f 314 312 324
f 312 322 324
f 323 313 325
f 315 325 313
f 325 315 324
f 314 324 315
f 317 316 326
f 327 326 316
f 318 317 328
f 326 328 317
f 319 329 316
f 316 329 327
f 318 328 320
f 330 320 328
f 321 331 319
f 331 329 319
f 322 320 332
f 330 332 320
f 323 333 321
f 331 321 333
f 324 322 334
f 332 334 322
f 323 325 333
f 333 325 335
f 324 334 325
f 335 325 334
f 327 336 326
f 326 336 328
f 329 336 327
f 328 336 330
f 331 336 329
f 330 336 332
f 333 336 331
f 332 336 334
f 335 336 333
f 334 336 335
f 337 338 339
f 337 339 340
f 341 342 338
f 339 338 342
f 342 343 339
f 340 339 343
f 337 344 338
f 341 338 345
f 345 338 344
f 337 340 346
f 337 346 347
f 337 347 348
f 337 348 349
f 337 349 350
f 337 350 351
f 337 351 344
f 352 346 343
f 340 343 346
f 342 341 353
f 353 341 354
f 343 342 355
f 353 355 342
f 354 341 356
f 345 356 341
f 343 355 352
f 357 352 355
f 345 344 358
f 351 358 344
f 358 359 345
f 356 345 359
f 360 347 352
f 352 347 346
f 361 348 360
f 347 360 348
f 361 362 348
f 349 348 362
f 362 363 349
f 363 350 349
f 358 351 363
f 350 363 351
f 352 357 360
f 364 360 357
f 353 354 365
f 366 365 354
f 367 355 365
f 353 365 355
f 356 368 354
f 366 354 368
f 369 357 367
f 355 367 357
f 359 370 356
f 370 368 356
f 369 371 357
f 364 357 371
f 359 358 372
f 363 372 358
f 359 372 370
f 372 373 370
f 360 364 361
f 374 361 364
f 362 361 375
f 374 375 361
f 363 362 372
f 375 372 362
f 364 371 374
f 376 374 371
f 365 366 377
f 378 377 366
f 367 365 379
f 377 379 365
f 366 368 378
f 380 378 368
f 367 379 369
f 381 369 379
f 368 370 380
f 382 380 370
f 369 381 371
f 371 381 383
f 370 373 382
f 384 382 373
f 371 383 376
f 385 376 383
f 372 375 373
f 386 373 375
f 373 386 384
f 387 384 386
f 375 374 386
f 376 386 374
f 386 376 387
f 387 376 385
f 388 377 389
f 389 377 378
f 390 379 388
f 377 388 379
f 389 378 391
f 380 391 378
f 390 392 379
f 379 392 381
f 391 380 393
f 382 393 380
f 392 394 381
f 383 381 394
f 395 393 384
f 382 384 393
f 394 396 383
f 396 385 383
f 397 395 387
f 384 387 395
f 396 397 385
f 387 385 397
f 398 388 399
f 389 399 388
f 400 390 398
f 388 398 390
f 399 389 401
f 391 401 389
f 400 402 390
f 392 390 402
f 401 391 403
f 393 403 391
f 402 404 392
f 392 404 394
f 405 403 395
f 393 395 403
f 404 406 394
f 396 394 406
f 405 395 407
f 397 407 395
f 407 397 406
f 396 406 397
f 399 408 398
f 409 398 408
f 398 409 400
f 410 400 409
f 408 399 411
f 401 411 399
f 400 410 402
f 412 402 410
f 411 401 413
f 401 403 413
f 404 402 414
f 412 414 402
f 415 413 405
f 405 413 403
f 406 404 416
f 404 414 416
f 415 405 417
f 407 417 405
f 417 407 416
f 406 416 407
f 408 418 409
f 409 418 419
f 409 419 410
f 420 410 419
f 411 421 408
f 418 408 421
f 420 422 410
f 412 410 422
f 413 423 411
f 421 411 423
f 414 412 424
f 422 424 412
f 425 423 415
f 413 415 423
f 416 414 426
f 424 426 414
f 425 415 427
f 415 417 427
f 426 427 416
f 417 416 427
f 418 428 419
f 429 419 428
f 419 429 420
f 430 420 429
f 421 431 418
f 428 418 431
f 422 420 432
f 430 432 420
f 431 421 433
f 423 433 421
f 424 422 434
f 432 434 422
f 433 423 435
f 425 435 423
f 434 436 424
f 426 424 436
f 437 435 427
f 425 427 435
f 436 437 426
f 427 426 437
f 429 428 438
f 439 438 428
f 430 429 440
f 438 440 429
f 439 428 441
f 431 441 428
f 432 430 442
f 440 442 430
f 441 431 443
f 433 443 431
f 434 432 444
f 442 444 432
f 433 435 443
f 445 443 435
f 436 434 446
f 444 446 434
f 447 445 437
f 435 437 445
f 446 447 436
f 437 436 447
f 439 448 438
f 438 448 440
f 441 448 439
f 440 448 442
f 443 448 441
f 442 448 444
f 445 448 443
f 444 448 446
f 447 448 445
f 446 448 447
f 449 450 451
f 449 451 452
f 451 450 453
f 454 453 450
f 452 451 455
f 453 455 451
f 449 456 450
f 457 454 456
f 450 456 454
f 449 452 458
f 449 458 459
f 449 459 460
f 449 460 461
f 449 461 462
f 449 462 463
f 449 463 456
f 455 464 452
f 458 452 464
f 453 454 465
f 466 465 454
f 455 453 467
f 465 467 453
f 468 466 457
f 454 457 466
f 467 469 455
f 464 455 469
f 470 457 463
f 456 463 457
f 471 468 470
f 457 470 468
f 472 459 464
f 464 459 458
f 473 460 472
f 472 460 459
f 460 473 461
f 474 461 473
f 475 462 474
f 461 474 462
f 470 463 475
f 462 475 463
f 469 476 464
f 472 464 476
f 465 466 477
f 478 477 466
f 479 467 477
f 465 477 467
f 480 478 468
f 466 468 478
f 479 481 467
f 469 467 481
f 482 480 471
f 468 471 480
f 476 469 483
f 481 483 469
f 471 470 484
f 475 484 470
f 484 485 471
f 471 485 482
f 476 486 472
f 473 472 486
f 487 474 486
f 486 474 473
f 474 487 475
f 484 475 487
f 483 488 476
f 486 476 488
f 489 477 490
f 490 477 478
f 477 489 479
f 491 479 489
f 478 480 490
f 492 490 480
f 481 479 493
f 491 493 479
f 494 492 482
f 482 492 480
f 483 481 495
f 493 495 481
f 482 485 494
f 496 494 485
f 488 483 497
f 495 497 483
f 485 484 498
f 487 498 484
f 496 485 499
f 485 498 499
f 498 487 488
f 486 488 487
f 488 497 498
f 499 498 497
f 490 500 489
f 501 489 500
f 489 501 491
f 502 491 501
f 490 492 500
f 503 500 492
f 502 504 491
f 493 491 504
f 492 494 503
f 503 494 505
f 495 493 506
f 504 506 493
f 496 507 494
f 505 494 507
f 497 495 508
f 506 508 495
f 499 509 496
f 507 496 509
f 497 508 499
f 509 499 508
f 500 510 501
f 511 501 510
f 501 511 502
f 512 502 511
f 513 510 503
f 500 503 510
f 504 502 514
f 512 514 502
f 515 513 505
f 503 505 513
f 506 504 516
f 516 504 514
f 515 505 517
f 507 517 505
f 508 506 518
f 516 518 506
f 509 519 507
f 517 507 519
f 508 518 509
f 519 509 518
f 520 521 510
f 510 521 511
f 512 511 522
f 521 522 511
f 523 520 513
f 520 510 513
f 522 524 512
f 514 512 524
f 525 523 515
f 513 515 523
f 524 526 514
f 516 514 526
f 525 515 527
f 517 527 515
f 526 528 516
f 518 516 528
f 519 529 517
f 527 517 529
f 518 528 519
f 528 529 519
f 521 520 530
f 530 520 531
f 530 532 521
f 522 521 532
f 523 533 520
f 531 520 533
f 532 534 522
f 524 522 534
f 533 523 535
f 525 535 523
f 534 536 524
f 526 524 536
f 535 525 537
f 537 525 527
f 536 538 526
f 528 526 538
f 529 539 527
f 537 527 539
f 539 529 538
f 528 538 529
f 540 541 531
f 541 530 531
f 532 530 542
f 541 542 530
f 540 531 543
f 533 543 531
f 542 544 532
f 534 532 544
f 535 545 533
f 543 533 545
f 544 546 534
f 536 534 546
f 537 547 535
f 545 535 547
f 546 548 536
f 538 536 548
f 547 537 549
f 539 549 537
f 549 539 548
f 538 548 539
f 540 550 541
f 551 541 550
f 542 541 552
f 551 552 541
f 540 543 550
f 553 550 543
f 544 542 554
f 552 554 542
f 543 545 553
f 555 553 545
f 546 544 556
f 556 544 554
f 545 547 555
f 557 555 547
f 548 546 558
f 556 558 546
f 547 549 557
f 559 557 549
f 548 558 549
f 559 549 558
f 550 560 551
f 551 560 552
f 553 560 550
f 552 560 554
f 555 560 553
f 554 560 556
f 557 560 555
f 556 560 558
f 559 560 557
f 558 560 559
f 561 562 563
f 561 563 564
f 563 562 565
f 563 565 566
f 564 563 566
f 561 567 562
f 562 568 565
f 562 567 568
f 561 569 567
f 561 570 569
f 561 564 570
f 570 564 571
f 564 566 571
f 566 565 572
f 565 573 572
f 565 574 573
f 565 568 574
f 566 572 575
f 571 566 575
f 567 576 568
f 567 569 576
f 568 577 574
f 568 578 577
f 568 579 578
f 568 576 579
f 569 580 576
f 569 581 580
f 569 570 581
f 570 571 581
f 581 571 582
f 571 575 582
f 575 572 583
f 572 573 583
f 573 584 583
f 573 574 584
f 574 585 584
f 574 577 585
f 575 583 586
f 582 575 586
f 576 587 579
f 576 580 587
f 577 578 585
f 578 588 585
f 578 579 588
f 579 589 588
f 579 587 589
f 580 590 587
f 580 581 590
f 581 591 590
f 581 582 591
f 591 582 592
f 582 586 592
f 586 583 593
f 583 594 593
f 583 584 594
f 584 595 594
f 584 585 595
f 585 596 595
f 585 588 596
f 592 586 597
f 586 593 597
f 587 598 589
f 587 590 598
f 588 599 596
f 588 589 599
f 589 600 599
f 589 598 600
f 590 601 598
f 590 602 601
f 590 591 602
f 591 603 602
f 591 604 603
f 591 592 604
f 604 592 605
f 592 597 605
f 593 594 606
f 597 593 607
f 593 606 607
f 594 608 606
f 594 595 608
f 595 609 608
f 595 596 609
f 596 599 609
f 605 597 610
f 597 607 610
f 598 611 600
f 598 601 611
f 599 612 609
f 599 600 612
f 600 613 612
f 600 611 613
f 601 614 611
f 601 602 614
f 602 615 614
f 602 603 615
f 603 616 615
f 603 617 616
f 603 618 617
f 603 604 618
f 604 605 618
f 618 605 610
f 606 608 619
f 607 606 619
f 610 607 619
f 608 609 619
f 609 612 619
f 618 610 620
f 620 610 619
f 611 614 613
f 612 613 619
f 614 615 613
f 615 620 613
f 613 620 619
f 615 616 620
f 616 617 620
f 617 618 620
f 621 622 623
f 624 621 623
f 622 625 623
f 625 626 623
f 626 627 623
f 627 628 623
f 628 629 623
f 629 630 623
f 630 631 623
f 631 624 623
f 632 622 621
f 632 633 622
f 633 625 622
f 634 632 621
f 634 621 624
f 635 624 631
f 635 634 624
f 633 636 625
f 636 626 625
f 636 637 626
f 637 627 626
f 637 628 627
f 637 638 628
f 638 629 628
f 638 639 629
f 639 640 629
f 640 630 629
f 640 641 630
f 641 631 630
f 641 642 631
f 642 635 631
f 643 632 634
f 643 644 632
f 644 633 632
f 644 645 633
f 645 636 633
f 643 634 635
f 646 635 642
f 646 643 635
f 645 647 636
f 647 637 636
f 647 648 637
f 648 649 637
f 649 638 637
f 649 650 638
f 650 639 638
f 650 651 639
f 651 640 639
f 651 652 640
f 652 641 640
f 652 653 641
f 653 642 641
f 653 646 642
f 654 655 643
f 655 644 643
f 654 643 646
f 655 656 644
f 656 645 644
f 656 657 645
f 657 647 645
f 658 646 653
f 658 654 646
f 657 648 647
f 657 659 648
f 659 649 648
f 659 660 649
f 660 650 649
f 660 651 650
f 660 661 651
f 661 652 651
f 661 653 652
f 661 658 653
f 662 655 654
f 662 656 655
f 662 654 658
f 662 657 656
f 662 659 657
f 662 658 661
f 662 660 659
f 662 661 660
f 663 664 665
f 666 663 665
f 664 667 665
f 667 668 665
f 668 669 665
f 669 670 665
f 670 671 665
f 671 672 665
f 672 673 665
f 673 674 665
f 674 675 665
f 675 666 665
f 676 664 663
f 676 677 664
f 677 667 664
f 678 663 666
f 678 676 663
f 678 666 675
f 677 679 667
f 679 680 667
f 680 668 667
f 680 681 668
f 681 669 668
f 681 682 669
f 682 670 669
f 682 683 670
f 683 684 670
f 684 671 670
f 684 685 671
f 685 672 671
f 685 686 672
f 686 673 672
f 686 687 673
f 687 674 673
f 687 688 674
f 688 675 674
f 688 678 675
f 689 690 676
f 690 677 676
f 689 676 678
f 690 691 677
f 691 679 677
f 692 678 688
f 692 689 678
f 691 693 679
f 693 680 679
f 693 681 680
f 693 694 681
f 694 682 681
f 694 695 682
f 695 683 682
f 695 696 683
f 696 684 683
f 696 697 684
f 697 685 684
f 697 698 685
f 698 686 685
f 698 699 686
f 699 687 686
f 699 688 687
f 699 692 688
f 700 690 689
f 700 701 690
f 701 691 690
f 700 689 692
f 701 693 691
f 702 692 699
f 702 703 692
f 703 700 692
f 701 704 693
f 704 694 693
f 704 705 694
f 705 695 694
f 705 696 695
f 705 706 696
f 706 697 696
f 706 707 697
f 707 698 697
f 702 699 698
f 707 702 698
f 708 701 700
f 708 700 703
f 708 704 701
f 708 702 707
f 708 703 702
f 708 705 704
f 708 706 705
f 708 707 706
f 709 710 711
f 712 709 711
f 710 713 711
f 713 714 711
f 712 711 714
f 715 710 709
f 715 716 710
f 716 713 710
f 717 709 712
f 717 718 709
f 718 715 709
f 719 712 714
f 720 712 719
f 720 717 712
f 713 721 714
f 716 722 713
f 722 723 713
f 723 724 713
f 724 721 713
f 721 719 714
f 725 726 715
f 726 727 715
f 727 716 715
f 725 715 718
f 727 728 716
f 728 722 716
f 729 717 720
f 729 730 717
f 730 731 717
f 731 718 717
f 731 725 718
f 732 719 721
f 732 733 719
f 733 720 719
f 734 720 733
f 734 729 720
f 724 735 721
f 735 736 721
f 736 732 721
f 728 737 722
f 737 723 722
f 737 738 723
f 738 724 723
f 738 735 724
f 739 726 725
f 739 740 726
f 740 727 726
f 741 725 731
f 741 739 725
f 740 742 727
f 742 728 727
f 742 743 728
f 743 737 728
f 744 729 734
f 744 745 729
f 745 730 729
f 745 746 730
f 746 731 730
f 746 741 731
f 747 732 736
f 747 748 732
f 748 733 732
f 748 749 733
f 749 734 733
f 750 734 749
f 750 744 734
f 738 747 735
f 747 736 735
f 743 751 737
f 751 738 737
f 751 752 738
f 752 747 738
f 753 754 739
f 754 740 739
f 753 739 741
f 754 742 740
f 755 741 746
f 755 756 741
f 756 753 741
f 754 757 742
f 757 743 742
f 757 758 743
f 758 751 743
f 759 744 750
f 759 760 744
f 760 745 744
f 760 761 745
f 761 746 745
f 761 755 746
f 752 762 747
f 762 763 747
f 763 748 747
f 763 764 748
f 764 749 748
f 764 750 749
f 765 750 764
f 765 759 750
f 758 766 751
f 766 752 751
f 766 767 752
f 767 762 752
f 768 754 753
f 768 757 754
f 768 753 756
f 768 755 761
f 768 756 755
f 768 758 757
f 768 766 758
f 768 759 765
f 768 760 759
f 768 761 760
f 767 769 762
f 769 763 762
f 769 765 763
f 765 764 763
f 768 765 769
f 768 767 766
f 768 769 767
f 770 771 772
f 773 770 772
f 771 774 772
f 774 775 772
f 775 776 772
f 776 777 772
f 777 778 772
f 778 773 772
f 779 771 770
f 779 780 771
f 780 781 771
f 781 774 771
f 782 779 770
f 783 770 773
f 783 782 770
f 784 773 778
f 784 783 773
f 781 785 774
f 785 786 774
f 786 787 774
f 787 775 774
f 787 788 775
f 788 776 775
f 788 789 776
f 789 777 776
f 789 790 777
f 790 778 777
f 790 784 778
f 791 779 782
f 791 792 779
f 792 780 779
f 792 793 780
f 793 794 780
f 794 781 780
f 794 785 781
f 795 791 782
f 795 782 783
f 796 783 784
f 796 797 783
f 797 795 783
f 798 784 790
f 798 796 784
f 794 799 785
f 799 800 785
f 800 786 785
f 800 787 786
f 800 801 787
f 801 788 787
f 801 802 788
f 802 803 788
f 803 789 788
f 803 804 789
f 804 790 789
f 804 798 790
f 805 791 795
f 805 806 791
f 806 792 791
f 806 807 792
f 807 793 792
f 807 808 793
f 808 794 793
f 808 809 794
f 809 799 794
f 805 795 797
f 810 796 798
f 810 811 796
f 811 797 796
f 811 805 797
f 812 798 804
f 812 810 798
f 809 800 799
f 809 813 800
f 813 801 800
f 813 814 801
f 814 802 801
f 814 815 802
f 815 803 802
f 815 804 803
f 815 812 804
f 816 817 805
f 817 806 805
f 816 805 811
f 817 818 806
f 818 807 806
f 818 808 807
f 818 819 808
f 819 809 808
f 819 820 809
f 820 813 809
f 821 810 812
f 821 822 810
f 822 811 810
f 822 823 811
f 823 816 811
f 821 812 815
f 820 824 813
f 824 825 813
f 825 814 813
f 825 815 814
f 825 821 815
f 826 817 816
f 826 827 817
f 827 818 817
f 828 816 823
f 828 826 816
f 827 829 818
f 829 819 818
f 829 820 819
f 829 830 820
f 830 824 820
f 831 821 825
f 831 822 821
f 831 823 822
f 831 828 823
f 830 825 824
f 830 831 825
f 832 827 826
f 832 826 828
f 832 829 827
f 832 828 831
f 832 830 829
f 832 831 830
f 833 834 835
f 833 835 836
f 835 834 837
f 835 837 838
f 836 835 839
f 835 838 839
f 833 840 834
f 834 841 837
f 834 842 841
f 834 840 842
f 833 843 840
f 833 844 843
f 833 845 844
f 833 836 845
f 845 836 846
f 836 839 846
f 838 837 847
f 837 848 847
f 837 849 848
f 837 841 849
f 839 838 847
f 846 839 850
f 839 847 850
f 840 851 842
f 840 852 851
f 840 843 852
f 841 853 849
f 841 854 853
f 841 842 854
f 842 855 854
f 842 851 855
f 843 856 852
f 843 857 856
f 843 844 857
f 844 858 857
f 844 859 858
f 844 845 859
f 845 860 859
f 845 846 860
f 860 846 861
f 846 862 861
f 846 850 862
f 847 848 863
f 850 847 864
f 847 863 864
f 848 865 863
f 848 849 865
f 849 853 865
f 862 850 866
f 850 864 866
f 851 867 855
f 851 868 867
f 851 852 868
f 852 869 868
f 852 856 869
f 853 870 865
f 853 854 870
f 854 871 870
f 854 855 871
f 855 867 871
f 856 872 869
f 856 857 872
f 857 873 872
f 857 858 873
f 858 874 873
f 858 875 874
f 858 859 875
f 859 876 875
f 859 877 876
f 859 860 877
f 860 878 877
f 860 861 878
f 878 861 879
f 861 866 879
f 861 862 866
f 863 880 881
f 863 865 880
f 864 863 882
f 863 881 882
f 866 864 883
f 864 882 883
f 865 884 880
f 865 870 884
f 879 866 883
f 867 885 871
f 867 868 885
f 868 886 885
f 868 869 886
f 869 887 886
f 869 888 887
f 869 872 888
f 870 889 884
f 870 890 889
f 870 871 890
f 871 891 890
f 871 885 891
f 872 892 888
f 872 873 892
f 873 893 892
f 873 874 893
f 874 875 893
f 875 894 893
f 875 876 894
f 876 877 894
f 877 895 894
f 877 896 895
f 877 897 896
f 877 878 897
f 878 879 897
f 897 879 898
f 879 883 898
f 881 880 899
f 882 881 900
f 881 899 900
f 880 901 899
f 880 902 901
f 880 884 902
f 883 882 900
f 898 883 903
f 883 900 903
f 884 904 902
f 884 889 904
f 885 905 891
f 885 886 905
f 886 887 905
f 887 906 905
f 887 907 906
f 887 888 907
f 888 892 907
f 889 908 904
f 889 890 908
f 890 909 908
f 890 891 909
f 891 910 909
f 891 911 910
f 891 905 911
f 892 912 907
f 892 893 912
f 893 894 912
f 894 913 912
f 894 914 913
f 894 895 914
f 895 915 914
f 895 916 915
f 895 896 916
f 896 897 916
f 897 898 916
f 916 898 917
f 898 918 917
f 898 903 918
f 899 901 919
f 900 899 920
f 899 919 920
f 903 900 921
f 900 920 921
f 901 922 919
f 901 902 922
f 902 923 922
f 902 904 923
f 918 903 924
f 903 921 924
f 904 925 923
f 904 908 925
f 905 926 911
f 905 906 926
f 906 927 926
f 906 907 927
f 907 928 927
f 907 912 928
f 908 929 925
f 908 930 929
f 908 909 930
f 909 931 930
f 909 932 931
f 909 910 932
f 910 933 932
f 910 934 933
f 910 911 934
f 911 926 934
f 912 935 928
f 912 936 935
f 912 913 936
f 913 937 936
f 913 914 937
f 914 917 937
f 914 915 917
f 915 916 917
f 937 917 938
f 917 939 938
f 917 918 939
f 918 924 939
f 919 940 941
f 919 942 940
f 919 943 942
f 919 922 943
f 920 919 941
f 921 920 941
f 924 921 944
f 921 941 944
f 922 923 943
f 923 945 943
f 923 946 945
f 923 925 946
f 939 924 947
f 924 944 947
f 925 948 946
f 925 929 948
f 926 927 934
f 927 949 934
f 927 928 949
f 928 950 949
f 928 951 950
f 928 935 951
f 929 952 948
f 929 953 952
f 929 930 953
f 930 931 953
f 931 954 953
f 931 932 954
f 932 955 954
f 932 956 955
f 932 933 956
f 933 957 956
f 933 934 957
f 934 958 957
f 934 949 958
f 935 959 951
f 935 936 959
f 936 960 959
f 936 937 960
f 937 938 960
f 960 938 961
f 938 962 961
f 938 939 962
f 939 963 962
f 939 947 963
f 941 940 964
f 941 965 966
f 941 964 965
f 944 941 967
f 941 966 967
f 940 942 964
f 942 943 964
f 943 968 964
f 943 969 968
f 943 945 969
f 947 944 970
f 944 971 970
f 944 967 971
f 945 946 969
f 946 972 969
f 946 948 972
f 963 947 970
f 948 952 972
f 949 950 958
f 950 951 958
f 951 973 958
f 951 974 973
f 951 959 974
f 952 953 972
f 953 975 972
f 953 954 975
f 954 976 975
f 954 977 976
f 954 955 977
f 955 956 977
f 956 978 977
f 956 957 978
f 957 979 978
f 957 958 979
f 958 973 979
f 959 980 974
f 959 960 980
f 960 961 980
f 980 961 981
f 961 982 981
f 961 983 982
f 961 962 983
f 962 970 983
f 962 963 970
f 965 964 984
f 964 968 984
f 966 965 985
f 967 966 985
f 965 984 985
f 971 967 985
f 968 986 984
f 968 969 986
f 969 987 986
f 969 972 987
f 983 970 988
f 970 989 988
f 970 990 989
f 970 971 990
f 971 985 990
f 972 975 987
f 973 974 979
f 974 991 979
f 974 980 991
f 975 976 987
f 976 992 987
f 976 977 992
f 977 978 992
f 978 993 992
f 978 979 993
f 979 994 993
f 979 995 994
f 979 996 995
f 979 997 996
f 979 991 997
f 980 981 991
f 991 981 988
f 981 982 988
f 982 983 988
f 985 984 998
f 984 986 998
f 985 998 999
f 990 985 999
f 986 987 998
f 987 1000 998
f 987 992 1000
f 991 988 997
f 997 988 999
f 988 989 999
f 989 990 999
f 992 993 1000
f 993 994 1000
f 994 995 1000
f 995 996 1000
f 996 997 1000
f 997 999 1000
# Vertices: 1000, normals: 0, texture coordinates: 0, faces: 1955

