# File generated by ImageToStl.com - Free Image and 3D model conversion tools

o obj1
v 0 0.05292 0
v 0 0.050274 0.0126
v 0 0.044982 0.021764
v 0 0.03528 0.024709
v 0 0.023814 0.021436
v 0 0.018345 0.015546
v 0 0.008643 0.013418
v 0 0.004233 0.008182
v 0 0 0
v 0.005482 0.049127 0.007546
v 0.010147 0.044365 0.013966
v 0.012023 0.033957 0.016548
v 0.011013 0.023814 0.015158
v 0.008512 0.016493 0.011716
v 0.006925 0.008732 0.009531
v 0.003991 0.003969 0.005495
v 0.005758 0.04798 0.001871
v 0.012139 0.043747 0.003944
v 0.015407 0.032634 0.005006
v 0.015251 0.023814 0.004955
v 0.012761 0.014641 0.004146
v 0.009649 0.00882 0.003135
v 0.005135 0.003705 0.001669
v 0.005758 0.04798 -0.001871
v 0.012139 0.043747 -0.003944
v 0.015407 0.032634 -0.005006
v 0.015251 0.023814 -0.004955
v 0.012761 0.014641 -0.004146
v 0.009649 0.00882 -0.003135
v 0.005135 0.003705 -0.001669
v 0.003895 0.049744 -0.005362
v 0.008993 0.046569 -0.012378
v 0.0126 0.034927 -0.017343
v 0.01159 0.02346 -0.015953
v 0.009089 0.016229 -0.012511
v 0.007551 0.008556 -0.010392
v 0.004617 0.00344 -0.006355
v 0 0.051509 -0.0072
v 0 0.049392 -0.017836
v 0 0.03722 -0.026673
v 0 0.023109 -0.0234
v 0 0.017816 -0.017509
v 0 0.008291 -0.015546
v 0 0.003174 -0.010309
v -0.003367 0.051596 -0.004633
v -0.006781 0.045599 -0.009333
v -0.008752 0.035986 -0.012047
v -0.007935 0.025225 -0.010922
v -0.008464 0.015171 -0.01165
v -0.007551 0.007761 -0.010392
v -0.005049 0.003087 -0.00695
v -0.004046 0.051685 -0.001315
v -0.004981 0.041807 -0.001618
v -0.002957 0.034751 -0.000961
v -0.003424 0.027342 -0.001112
v -0.010738 0.012524 -0.003489
v -0.009649 0.007232 -0.003135
v -0.006536 0.002999 -0.002124
v -0.004046 0.051685 0.001315
v -0.004981 0.041807 0.001618
v -0.002957 0.034751 0.000961
v -0.003424 0.027342 0.001112
v -0.010738 0.012524 0.003489
v -0.009649 0.007232 0.003135
v -0.006536 0.002999 0.002124
v -0.004954 0.050979 0.006818
v -0.007935 0.043395 0.010922
v -0.008176 0.035015 0.011253
v -0.007358 0.025577 0.010128
v -0.007887 0.015435 0.010856
v -0.006925 0.007937 0.009531
v -0.004424 0.003616 0
f 1 2 10
f 2 3 11
f 2 11 10
f 3 4 12
f 3 12 11
f 4 5 13
f 4 13 12
f 5 6 14
f 5 14 13
f 6 7 15
f 6 15 14
f 7 8 16
f 7 16 15
f 8 9 16
f 1 10 17
f 10 11 18
f 10 18 17
f 11 12 19
f 11 19 18
f 12 13 20
f 12 20 19
f 13 14 21
f 13 21 20
f 14 15 22
f 14 22 21
f 15 16 23
f 15 23 22
f 16 9 23
f 1 17 24
f 17 18 25
f 17 25 24
f 18 19 26
f 18 26 25
f 19 20 27
f 19 27 26
f 20 21 28
f 20 28 27
f 21 22 29
f 21 29 28
f 22 23 30
f 22 30 29
f 23 9 30
f 1 24 31
f 24 25 32
f 24 32 31
f 25 26 33
f 25 33 32
f 26 27 34
f 26 34 33
f 27 28 35
f 27 35 34
f 28 29 36
f 28 36 35
f 29 30 37
f 29 37 36
f 30 9 37
f 1 31 38
f 31 32 39
f 31 39 38
f 32 33 40
f 32 40 39
f 33 34 41
f 33 41 40
f 34 35 42
f 34 42 41
f 35 36 43
f 35 43 42
f 36 37 44
f 36 44 43
f 37 9 44
f 1 38 45
f 38 39 46
f 38 46 45
f 39 40 47
f 39 47 46
f 40 41 48
f 40 48 47
f 41 42 49
f 41 49 48
f 42 43 50
f 42 50 49
f 43 44 51
f 43 51 50
f 44 9 51
f 1 45 52
f 45 46 53
f 45 53 52
f 46 47 54
f 46 54 53
f 47 48 55
f 47 55 54
f 48 49 56
f 48 56 55
f 49 50 57
f 49 57 56
f 50 51 58
f 50 58 57
f 51 9 58
f 1 52 59
f 52 53 60
f 52 60 59
f 53 54 61
f 53 61 60
f 54 55 62
f 54 62 61
f 55 56 63
f 55 63 62
f 56 57 64
f 56 64 63
f 57 58 65
f 57 65 64
f 58 9 65
f 1 59 66
f 59 60 67
f 59 67 66
f 60 61 68
f 60 68 67
f 61 62 69
f 61 69 68
f 62 63 70
f 62 70 69
f 63 64 71
f 63 71 70
f 64 65 72
f 64 72 71
f 65 9 72
f 1 66 2
f 66 67 3
f 66 3 2
f 67 68 4
f 67 4 3
f 68 69 5
f 68 5 4
f 69 70 6
f 69 6 5
f 70 71 7
f 70 7 6
f 71 72 8
f 71 8 7
f 72 9 8
# Vertices: 72, normals: 0, texture coordinates: 0, faces: 140

