# File generated by ImageToStl.com - Free Image and 3D model conversion tools

o obj1
v 0.074192 -0.001559 -0.012278
v 0.073107 -0.003002 -0.010836
v 0.076918 -0.003002 -0.015495
v 0.065321 -0.003002 -0.008147
v 0.066554 -0.000677 -0.011366
v 0.064845 -0.003002 -0.012039
v 0.062511 -0.001198 -0.013414
v 0.057195 8.4E-05 -0.011065
v 0.059415 -0.003002 -0.010458
v 0.053303 -0.003002 -0.00595
v 0.052375 0.000604 -0.01058
v 0.050849 -0.003002 -0.009936
v 0.051152 8.4E-05 -0.012131
v 0.052747 -0.003002 -0.019757
v 0.075429 -0.001057 -0.01458
v 0.067935 -0.000279 -0.015432
v 0.060495 -1.9E-05 -0.016587
v 0.055688 0.002834 -0.015709
v 0.05178 0.001666 -0.017103
v 0.051927 0.001796 -0.016998
v 0.075831 -0.001057 -0.016863
v 0.068498 -0.000279 -0.018627
v 0.061112 -1.9E-05 -0.020086
v 0.056895 0.002834 -0.022555
v 0.052746 0.001666 -0.022581
v 0.05292 0.001796 -0.022628
v 0.075967 -0.001679 -0.019051
v 0.070689 -0.001039 -0.021624
v 0.063738 -0.001639 -0.021311
v 0.05937 -0.000757 -0.024339
v 0.055149 -0.000276 -0.026316
v 0.053432 -0.000517 -0.026003
v 0.075927 -0.003002 -0.020239
v 0.072656 -0.003002 -0.023354
v 0.065955 -0.003002 -0.02022
v 0.060958 -0.003002 -0.021101
v 0.057036 -0.003002 -0.027124
v 0.053349 -0.003002 -0.025997
v 0.075214 -0.004444 -0.019492
v 0.070314 -0.005767 -0.023745
v 0.06662 -0.004325 -0.020699
v 0.061506 -0.004605 -0.02232
v 0.057497 -0.006488 -0.027853
v 0.05345 -0.005527 -0.026102
v 0.07426 -0.005337 -0.017376
v 0.067316 -0.00832 -0.020405
v 0.0669 -0.005856 -0.018986
v 0.061516 -0.006763 -0.020486
v 0.057029 -0.010135 -0.023316
v 0.052934 -0.00793 -0.022705
v 0.073777 -0.005337 -0.014637
v 0.066216 -0.00832 -0.014165
v 0.06631 -0.005856 -0.015639
v 0.060738 -0.006763 -0.016073
v 0.055553 -0.010135 -0.014947
v 0.051914 -0.00793 -0.016922
v 0.073334 -0.004565 -0.012122
v 0.065478 -0.006128 -0.009502
v 0.06543 -0.004766 -0.013003
v 0.059894 -0.005447 -0.012232
v 0.054055 -0.00737 -0.008333
v 0.051135 -0.006128 -0.012031
v 0.070425 -0.002526 0.014268
v 0.070067 -0.003002 0.014744
v 0.071325 -0.003002 0.013206
v 0.067498 -0.003002 0.015631
v 0.067905 -0.002235 0.014569
v 0.067341 -0.003002 0.014347
v 0.066571 -0.002406 0.013893
v 0.064816 -0.001984 0.014668
v 0.065549 -0.003002 0.014868
v 0.063532 -0.003002 0.016356
v 0.063226 -0.001812 0.014827
v 0.062722 -0.003002 0.015041
v 0.062822 -0.001984 0.014317
v 0.063348 -0.003002 0.0118
v 0.070833 -0.00236 0.013507
v 0.068361 -0.002103 0.013227
v 0.065905 -0.002017 0.012847
v 0.064319 -0.001077 0.013135
v 0.063029 -0.001461 0.012676
v 0.063078 -0.001419 0.01271
v 0.070966 -0.00236 0.012755
v 0.068546 -0.002103 0.012173
v 0.066109 -0.002017 0.011691
v 0.064717 -0.001077 0.010876
v 0.063348 -0.001461 0.010867
v 0.063406 -0.001419 0.010852
v 0.071011 -0.002566 0.012033
v 0.069269 -0.002354 0.011183
v 0.066975 -0.002552 0.011288
v 0.065534 -0.002262 0.010288
v 0.064141 -0.002103 0.009635
v 0.063575 -0.002182 0.009739
v 0.070998 -0.003002 0.011642
v 0.069918 -0.003002 0.010613
v 0.067707 -0.003002 0.011647
v 0.066058 -0.003002 0.011356
v 0.064764 -0.003002 0.009369
v 0.063547 -0.003002 0.00974
v 0.070763 -0.003478 0.011887
v 0.069146 -0.003915 0.010483
v 0.067927 -0.003439 0.011489
v 0.066239 -0.003531 0.010954
v 0.064916 -0.004153 0.009127
v 0.06358 -0.003835 0.009706
v 0.070448 -0.003773 0.012585
v 0.068156 -0.004757 0.011586
v 0.068019 -0.003944 0.012055
v 0.066242 -0.004243 0.011559
v 0.064762 -0.005356 0.010625
v 0.06341 -0.004628 0.010827
v 0.070288 -0.003773 0.013489
v 0.067793 -0.004757 0.013646
v 0.067824 -0.003944 0.013159
v 0.065985 -0.004243 0.013016
v 0.064275 -0.005356 0.013388
v 0.063074 -0.004628 0.012735
v 0.070142 -0.003518 0.01432
v 0.06755 -0.004033 0.015184
v 0.067534 -0.003584 0.014029
v 0.065707 -0.003808 0.014283
v 0.06378 -0.004443 0.01557
v 0.062817 -0.004033 0.014349
v 0.049754 -0.002526 0.027123
v 0.049396 -0.003002 0.0276
v 0.050654 -0.003002 0.026062
v 0.046827 -0.003002 0.028487
v 0.047233 -0.002235 0.027425
v 0.046669 -0.003002 0.027202
v 0.045899 -0.002406 0.026749
v 0.044145 -0.001984 0.027524
v 0.044877 -0.003002 0.027724
v 0.04286 -0.003002 0.029212
v 0.042554 -0.001812 0.027684
v 0.042051 -0.003002 0.027896
v 0.042151 -0.001984 0.027172
v 0.042677 -0.003002 0.024655
v 0.050162 -0.00236 0.026364
v 0.047689 -0.002103 0.026083
v 0.045234 -0.002017 0.025702
v 0.043647 -0.001077 0.025992
v 0.042358 -0.001461 0.025531
v 0.042407 -0.001419 0.025566
v 0.050295 -0.00236 0.025611
v 0.047875 -0.002103 0.025029
v 0.045438 -0.002017 0.024547
v 0.044046 -0.001077 0.023732
v 0.042677 -0.001461 0.023723
v 0.042734 -0.001419 0.023708
v 0.05034 -0.002566 0.024889
v 0.048598 -0.002354 0.024039
v 0.046304 -0.002552 0.024142
v 0.044863 -0.002262 0.023143
v 0.04347 -0.002103 0.022491
v 0.042903 -0.002182 0.022594
v 0.050327 -0.003002 0.024496
v 0.049247 -0.003002 0.023468
v 0.047036 -0.003002 0.024503
v 0.045387 -0.003002 0.024212
v 0.044093 -0.003002 0.022224
v 0.042875 -0.003002 0.022597
v 0.050091 -0.003478 0.024743
v 0.048474 -0.003915 0.02334
v 0.047255 -0.003439 0.024345
v 0.045568 -0.003531 0.02381
v 0.044245 -0.004153 0.021984
v 0.042909 -0.003835 0.022562
v 0.049776 -0.003773 0.025441
v 0.047485 -0.004757 0.024442
v 0.047348 -0.003944 0.02491
v 0.045571 -0.004243 0.024415
v 0.04409 -0.005356 0.023481
v 0.042739 -0.004628 0.023682
v 0.049617 -0.003773 0.026345
v 0.047122 -0.004757 0.0265
v 0.047153 -0.003944 0.026014
v 0.045314 -0.004243 0.025872
v 0.043603 -0.005356 0.026242
v 0.042402 -0.004628 0.025591
v 0.049471 -0.003518 0.027175
v 0.046878 -0.004033 0.028039
v 0.046862 -0.003584 0.026884
v 0.045036 -0.003808 0.027139
v 0.043109 -0.004443 0.028426
v 0.042145 -0.004033 0.027205
v 0.033391 -0.002526 0.040738
v 0.033033 -0.003002 0.041215
v 0.034291 -0.003002 0.039677
v 0.030464 -0.003002 0.042102
v 0.03087 -0.002235 0.04104
v 0.030306 -0.003002 0.040818
v 0.029536 -0.002406 0.040364
v 0.027782 -0.001984 0.041139
v 0.028515 -0.003002 0.04134
v 0.026498 -0.003002 0.042827
v 0.026191 -0.001812 0.0413
v 0.025688 -0.003002 0.041511
v 0.025788 -0.001984 0.040788
v 0.026314 -0.003002 0.038271
v 0.033799 -0.00236 0.039979
v 0.031326 -0.002103 0.039698
v 0.028871 -0.002017 0.039318
v 0.027285 -0.001077 0.039607
v 0.025995 -0.001461 0.039148
v 0.026044 -0.001419 0.039182
v 0.033932 -0.00236 0.039226
v 0.031512 -0.002103 0.038644
v 0.029075 -0.002017 0.038163
v 0.027683 -0.001077 0.037348
v 0.026314 -0.001461 0.03734
v 0.026371 -0.001419 0.037323
v 0.033977 -0.002566 0.038504
v 0.032235 -0.002354 0.037655
v 0.029941 -0.002552 0.037759
v 0.0285 -0.002262 0.036759
v 0.027107 -0.002103 0.036107
v 0.02654 -0.002182 0.03621
v 0.033964 -0.003002 0.038112
v 0.032884 -0.003002 0.037084
v 0.030673 -0.003002 0.038118
v 0.029024 -0.003002 0.037828
v 0.02773 -0.003002 0.03584
v 0.026513 -0.003002 0.036212
v 0.033728 -0.003478 0.038359
v 0.032111 -0.003915 0.036956
v 0.030893 -0.003439 0.03796
v 0.029205 -0.003531 0.037426
v 0.027882 -0.004153 0.035598
v 0.026546 -0.003835 0.036177
v 0.033413 -0.003773 0.039057
v 0.031122 -0.004757 0.038058
v 0.030985 -0.003944 0.038526
v 0.029208 -0.004243 0.038031
v 0.027727 -0.005356 0.037096
v 0.026376 -0.004628 0.037298
v 0.033254 -0.003773 0.039961
v 0.030759 -0.004757 0.040116
v 0.03079 -0.003944 0.039631
v 0.028951 -0.004243 0.039487
v 0.027241 -0.005356 0.039858
v 0.026039 -0.004628 0.039206
v 0.033108 -0.003518 0.040791
v 0.030515 -0.004033 0.041655
v 0.030499 -0.003584 0.0405
v 0.028673 -0.003808 0.040754
v 0.026746 -0.004443 0.042041
v 0.025782 -0.004033 0.04082
v 0.018693 -0.002526 0.05211
v 0.018335 -0.003002 0.052586
v 0.019593 -0.003002 0.051049
v 0.015766 -0.003002 0.053473
v 0.016173 -0.002235 0.052411
v 0.015609 -0.003002 0.052188
v 0.014839 -0.002406 0.051735
v 0.013084 -0.001984 0.05251
v 0.013817 -0.003002 0.05271
v 0.0118 -0.003002 0.054198
v 0.011494 -0.001812 0.052669
v 0.01099 -0.003002 0.052883
v 0.01109 -0.001984 0.052158
v 0.011616 -0.003002 0.049642
v 0.019101 -0.00236 0.051349
v 0.016628 -0.002103 0.051069
v 0.014173 -0.002017 0.050688
v 0.012587 -0.001077 0.050977
v 0.011297 -0.001461 0.050517
v 0.011346 -0.001419 0.050551
v 0.019234 -0.00236 0.050597
v 0.016814 -0.002103 0.050015
v 0.014377 -0.002017 0.049533
v 0.012985 -0.001077 0.048718
v 0.011616 -0.001461 0.04871
v 0.011674 -0.001419 0.048694
v 0.019279 -0.002566 0.049875
v 0.017537 -0.002354 0.049025
v 0.015243 -0.002552 0.049128
v 0.013802 -0.002262 0.04813
v 0.012409 -0.002103 0.047477
v 0.011843 -0.002182 0.04758
v 0.019266 -0.003002 0.049482
v 0.018186 -0.003002 0.048455
v 0.015975 -0.003002 0.049488
v 0.014327 -0.003002 0.049197
v 0.013032 -0.003002 0.04721
v 0.011815 -0.003002 0.047582
v 0.019031 -0.003478 0.049729
v 0.017414 -0.003915 0.048326
v 0.016195 -0.003439 0.049331
v 0.014507 -0.003531 0.048795
v 0.013184 -0.004153 0.046969
v 0.011848 -0.003835 0.047548
v 0.018716 -0.003773 0.050428
v 0.016424 -0.004757 0.049428
v 0.016287 -0.003944 0.049895
v 0.01451 -0.004243 0.049401
v 0.01303 -0.005356 0.048467
v 0.011678 -0.004628 0.048669
v 0.018556 -0.003773 0.051331
v 0.016061 -0.004757 0.051487
v 0.016092 -0.003944 0.051
v 0.014253 -0.004243 0.050858
v 0.012543 -0.005356 0.051228
v 0.011341 -0.004628 0.050578
v 0.01841 -0.003518 0.052161
v 0.015817 -0.004033 0.053025
v 0.015802 -0.003584 0.051871
v 0.013975 -0.003808 0.052125
v 0.012048 -0.004443 0.053412
v 0.011084 -0.004033 0.052191
v 0.06108 -0.001391 0.013469
v 0.060635 -0.003002 0.01435
v 0.061408 -0.003002 0.0109
v 0.05903 -0.003002 0.015036
v 0.059584 -0.00091 0.01399
v 0.055983 -0.00091 0.013355
v 0.055801 -0.003002 0.013692
v 0.052029 -0.000934 0.012619
v 0.051657 -0.003002 0.012865
v 0.047636 -0.003002 0.012737
v 0.047922 -0.000693 0.012286
v 0.044876 -0.003002 0.013414
v 0.045648 -0.000429 0.012317
v 0.043895 -0.001031 0.011028
v 0.043541 -0.003002 0.011628
v 0.044285 -0.003002 0.007881
v 0.061655 -0.000668 0.011843
v 0.060323 0.000111 0.011907
v 0.056442 0.000733 0.011462
v 0.052681 0.000733 0.010799
v 0.0485 0.001044 0.010183
v 0.046664 0.000966 0.009828
v 0.04447 0.000266 0.009171
v 0.061963 -0.000668 0.010099
v 0.060732 0.000111 0.009584
v 0.056934 0.000733 0.008674
v 0.053173 0.000733 0.008011
v 0.049032 0.001044 0.00716
v 0.047187 0.000966 0.006865
v 0.0449 0.000266 0.006731
v 0.062137 -0.001679 0.008872
v 0.060864 -0.001222 0.007904
v 0.057669 -0.001776 0.008241
v 0.053069 -0.001776 0.00743
v 0.049128 -0.001271 0.005913
v 0.047162 -0.000862 0.004899
v 0.044901 -0.001367 0.005324
v 0.062142 -0.003002 0.008607
v 0.060772 -0.003002 0.007493
v 0.058017 -0.003002 0.010012
v 0.052577 -0.003002 0.009052
v 0.048857 -0.003002 0.006749
v 0.046835 -0.003002 0.004648
v 0.044635 -0.003002 0.005423
v 0.061597 -0.004396 0.00866
v 0.060284 -0.004998 0.007448
v 0.057222 -0.003916 0.008672
v 0.052569 -0.003868 0.00793
v 0.048821 -0.004493 0.006251
v 0.046628 -0.005238 0.004649
v 0.044728 -0.004589 0.005372
v 0.060857 -0.00557 0.009816
v 0.059499 -0.006814 0.009096
v 0.056146 -0.005726 0.008924
v 0.052295 -0.00557 0.008306
v 0.048501 -0.00627 0.007366
v 0.046086 -0.007282 0.006551
v 0.04457 -0.006115 0.006734
v 0.060519 -0.00557 0.011732
v 0.058997 -0.006814 0.011943
v 0.055788 -0.005726 0.010958
v 0.051957 -0.00557 0.010223
v 0.04807 -0.00627 0.009806
v 0.045523 -0.007282 0.009747
v 0.04416 -0.006115 0.009057
v 0.060499 -0.004686 0.013484
v 0.058884 -0.00531 0.014219
v 0.055711 -0.004781 0.012798
v 0.05173 -0.00471 0.011978
v 0.047749 -0.00507 0.011864
v 0.045061 -0.005671 0.01237
v 0.043749 -0.004926 0.010924
v 0.040662 -0.001697 0.026395
v 0.040302 -0.003002 0.027108
v 0.040929 -0.003002 0.024314
v 0.039001 -0.003002 0.027664
v 0.039452 -0.001307 0.026816
v 0.036535 -0.001307 0.026302
v 0.036386 -0.003002 0.026574
v 0.033333 -0.001327 0.025706
v 0.03303 -0.003002 0.025904
v 0.029773 -0.003002 0.025801
v 0.030005 -0.001132 0.025437
v 0.027539 -0.003002 0.026349
v 0.028162 -0.000918 0.025461
v 0.026743 -0.001405 0.024417
v 0.026457 -0.003002 0.024902
v 0.027059 -0.003002 0.021868
v 0.041128 -0.001111 0.025077
v 0.04005 -0.000481 0.025129
v 0.036905 2.3E-05 0.024769
v 0.03386 2.3E-05 0.024232
v 0.030473 0.000276 0.023732
v 0.028986 0.000213 0.023445
v 0.027208 -0.000354 0.022914
v 0.041377 -0.001111 0.023666
v 0.040382 -0.000481 0.023246
v 0.037304 2.3E-05 0.022511
v 0.034258 2.3E-05 0.021974
v 0.030904 0.000276 0.021285
v 0.029409 0.000213 0.021046
v 0.027557 -0.000354 0.020937
v 0.041519 -0.001931 0.022671
v 0.040487 -0.001561 0.021886
v 0.0379 -0.002009 0.02216
v 0.034173 -0.002009 0.021503
v 0.030982 -0.001599 0.020273
v 0.029389 -0.001268 0.019453
v 0.027558 -0.001677 0.019797
v 0.041523 -0.003002 0.022456
v 0.040413 -0.003002 0.021553
v 0.038182 -0.003002 0.023594
v 0.033774 -0.003002 0.022816
v 0.030762 -0.003002 0.02095
v 0.029124 -0.003002 0.019249
v 0.027343 -0.003002 0.019877
v 0.041081 -0.004132 0.022499
v 0.040018 -0.004619 0.021517
v 0.037538 -0.003742 0.022509
v 0.033768 -0.003703 0.021908
v 0.030733 -0.00421 0.020547
v 0.028957 -0.004813 0.01925
v 0.027417 -0.004287 0.019835
v 0.040483 -0.005082 0.023435
v 0.039382 -0.006091 0.022853
v 0.036666 -0.005208 0.022713
v 0.033547 -0.005082 0.022212
v 0.030474 -0.005649 0.021452
v 0.028519 -0.006469 0.020791
v 0.02729 -0.005523 0.020938
v 0.040209 -0.005082 0.024987
v 0.038975 -0.006091 0.025158
v 0.036375 -0.005208 0.024361
v 0.033274 -0.005082 0.023764
v 0.030125 -0.005649 0.023428
v 0.028062 -0.006469 0.023379
v 0.026958 -0.005523 0.022821
v 0.040192 -0.004365 0.026406
v 0.038884 -0.004872 0.027002
v 0.036314 -0.004443 0.02585
v 0.033089 -0.004385 0.025187
v 0.029864 -0.004677 0.025094
v 0.027688 -0.005164 0.025504
v 0.026624 -0.00456 0.024332
v 0.02387 -0.001828 0.039891
v 0.023566 -0.003002 0.040537
v 0.024118 -0.003002 0.03802
v 0.0225 -0.003002 0.041056
v 0.022879 -0.001477 0.040289
v 0.020517 -0.001477 0.039872
v 0.020392 -0.003002 0.04012
v 0.017674 -0.003002 0.039569
v 0.017923 -0.001495 0.039386
v 0.01503 -0.003002 0.039526
v 0.015223 -0.001319 0.039195
v 0.013205 -0.003002 0.040052
v 0.013725 -0.001126 0.039246
v 0.012588 -0.001565 0.03833
v 0.012348 -0.003002 0.038771
v 0.012884 -0.003002 0.036039
v 0.024269 -0.001301 0.038702
v 0.023392 -0.000733 0.038765
v 0.020842 -0.000279 0.038491
v 0.018374 -0.000279 0.038056
v 0.015629 -5.2E-05 0.037659
v 0.014425 -0.000109 0.037425
v 0.01299 -0.00062 0.036975
v 0.024493 -0.001301 0.037431
v 0.02369 -0.000733 0.037071
v 0.0212 -0.000279 0.036457
v 0.018732 -0.000279 0.036022
v 0.016017 -5.2E-05 0.035456
v 0.014806 -0.000109 0.035265
v 0.013303 -0.00062 0.035196
v 0.024623 -0.002038 0.036538
v 0.023796 -0.001705 0.035849
v 0.02169 -0.002108 0.036134
v 0.018671 -0.002108 0.035602
v 0.016096 -0.00174 0.034548
v 0.014814 -0.001442 0.033836
v 0.013321 -0.00181 0.034172
v 0.02463 -0.003002 0.036344
v 0.023741 -0.003002 0.035551
v 0.021896 -0.003002 0.037416
v 0.018327 -0.003002 0.036786
v 0.015907 -0.003002 0.035159
v 0.014602 -0.003002 0.033657
v 0.013146 -0.003002 0.034248
v 0.02427 -0.004018 0.036389
v 0.023422 -0.004457 0.035525
v 0.02139 -0.003668 0.036452
v 0.018335 -0.003633 0.035972
v 0.01589 -0.004088 0.034797
v 0.014467 -0.004633 0.03366
v 0.013206 -0.004158 0.03421
v 0.023769 -0.004874 0.037238
v 0.022883 -0.005782 0.036732
v 0.020679 -0.004988 0.036649
v 0.018151 -0.004874 0.036248
v 0.015665 -0.005385 0.035612
v 0.014086 -0.006122 0.035051
v 0.013085 -0.005271 0.035201
v 0.023522 -0.004874 0.038636
v 0.022517 -0.005782 0.038808
v 0.020418 -0.004988 0.038132
v 0.017905 -0.004874 0.037645
v 0.015351 -0.005385 0.037392
v 0.013676 -0.006122 0.03738
v 0.012786 -0.005271 0.036895
v 0.023487 -0.004229 0.03991
v 0.022415 -0.004684 0.040463
v 0.020344 -0.004299 0.039469
v 0.017734 -0.004247 0.038923
v 0.015114 -0.00451 0.03889
v 0.013339 -0.004947 0.039292
v 0.012493 -0.004404 0.038257
v 0.009643 -0.001945 0.051344
v 0.009374 -0.003002 0.051997
v 0.009906 -0.003002 0.049476
v 0.008488 -0.003002 0.052547
v 0.008822 -0.001629 0.051771
v 0.006908 -0.001629 0.051434
v 0.006798 -0.003002 0.051685
v 0.004599 -0.003002 0.051225
v 0.004808 -0.001645 0.051035
v 0.002443 -0.003002 0.051269
v 0.002612 -0.001488 0.050934
v 0.000937 -0.003002 0.051852
v 0.001389 -0.001314 0.051034
v 0.000281 -0.003002 0.050606
v 0.00049 -0.001708 0.050159
v 0.000806 -0.003002 0.047871
v 0.010007 -0.001471 0.05015
v 0.009289 -0.00096 0.050241
v 0.007219 -0.000551 0.05005
v 0.005219 -0.000551 0.049697
v 0.002993 -0.000348 0.049393
v 0.002019 -0.000398 0.049199
v 0.000861 -0.000857 0.048798
v 0.010231 -0.001471 0.048878
v 0.009588 -0.00096 0.048546
v 0.007577 -0.000551 0.048018
v 0.005578 -0.000551 0.047666
v 0.003382 -0.000348 0.04719
v 0.0024 -0.000398 0.047038
v 0.001175 -0.000857 0.047019
v 0.010367 -0.002134 0.047986
v 0.009715 -0.001834 0.047327
v 0.007987 -0.002197 0.04768
v 0.005541 -0.002197 0.047249
v 0.003476 -0.001867 0.046284
v 0.002453 -0.001598 0.045618
v 0.001223 -0.00193 0.046001
v 0.010379 -0.003002 0.047792
v 0.009679 -0.003002 0.047034
v 0.008113 -0.003002 0.048948
v 0.005222 -0.003002 0.048438
v 0.003302 -0.003002 0.046899
v 0.002286 -0.003002 0.045447
v 0.001078 -0.003002 0.046082
v 0.010083 -0.003917 0.04785
v 0.009418 -0.004311 0.047018
v 0.007732 -0.003602 0.048006
v 0.005255 -0.003569 0.047627
v 0.0033 -0.003981 0.046539
v 0.002175 -0.00447 0.045454
v 0.001129 -0.004044 0.046043
v 0.009647 -0.004687 0.04871
v 0.008941 -0.005503 0.048235
v 0.007145 -0.004789 0.048224
v 0.005096 -0.004687 0.047908
v 0.003088 -0.005146 0.047357
v 0.001819 -0.00581 0.04685
v 0.000998 -0.005044 0.047032
v 0.009401 -0.004687 0.050108
v 0.008575 -0.005503 0.050311
v 0.006884 -0.004789 0.049708
v 0.00485 -0.004687 0.049305
v 0.002775 -0.005146 0.049135
v 0.001409 -0.00581 0.049179
v 0.000699 -0.005044 0.048727
v 0.00933 -0.004107 0.051376
v 0.008437 -0.004517 0.051962
v 0.00678 -0.004169 0.05104
v 0.004669 -0.004122 0.050581
v 0.002533 -0.004359 0.050634
v 0.001071 -0.004753 0.051091
v 0.000415 -0.004264 0.05009
v 0.045759 -0.001364 -0.016464
v 0.044341 -0.004467 -0.013965
v 0.047797 -0.004823 -0.021963
v 0.037773 -0.003313 -0.014414
v 0.039792 -0.000188 -0.017312
v 0.031268 0.001296 -0.018897
v 0.031891 -0.002248 -0.015857
v 0.024947 -0.001004 -0.017081
v 0.023915 0.003391 -0.018719
v 0.013196 0.000913 -0.013078
v 0.015292 0.005908 -0.018396
v 0.008349 0.001836 -0.015754
v 0.009626 0.006664 -0.019886
v 0.007857 0.002068 -0.020499
v 0.007716 0.005815 -0.022477
v 0.011097 0.001748 -0.028434
v 0.04702 -0.000443 -0.020285
v 0.04155 0.00039 -0.021312
v 0.030455 0.002523 -0.023206
v 0.023173 0.006459 -0.023363
v 0.016818 0.0065 -0.024954
v 0.010611 0.00805 -0.025859
v 0.007671 0.007919 -0.026659
v 0.04764 -0.000443 -0.023804
v 0.042149 0.00039 -0.02471
v 0.031076 0.002523 -0.026725
v 0.024179 0.006459 -0.029068
v 0.017663 0.0065 -0.029748
v 0.011521 0.00805 -0.031018
v 0.008484 0.007919 -0.031273
v 0.04659 -0.001444 -0.027541
v 0.041146 -0.000445 -0.028541
v 0.033187 0.000376 -0.02892
v 0.023113 0.003267 -0.032541
v 0.017936 0.004483 -0.033945
v 0.012545 0.00581 -0.03551
v 0.009356 0.005247 -0.034146
v 0.044995 -0.004094 -0.029848
v 0.039591 -0.003118 -0.031105
v 0.034858 -0.002355 -0.029206
v 0.021424 7.8E-05 -0.032485
v 0.017528 0.00086 -0.035907
v 0.012824 0.001731 -0.037647
v 0.009686 0.002174 -0.034352
v 0.043495 -0.006866 -0.028045
v 0.03901 -0.006257 -0.029205
v 0.035548 -0.004339 -0.027358
v 0.023949 -0.002305 -0.029485
v 0.017292 -0.002736 -0.033731
v 0.013434 -0.002803 -0.035845
v 0.009228 -0.000405 -0.033473
v 0.042034 -0.007959 -0.024762
v 0.038421 -0.00775 -0.025586
v 0.036375 -0.004971 -0.024915
v 0.026804 -0.002746 -0.026384
v 0.017038 -0.004507 -0.029608
v 0.013779 -0.005825 -0.030995
v 0.008594 -0.002118 -0.030721
v 0.041424 -0.007959 -0.021302
v 0.037747 -0.00775 -0.021764
v 0.036054 -0.004971 -0.023094
v 0.026558 -0.002746 -0.024988
v 0.016278 -0.004507 -0.025298
v 0.01274 -0.005825 -0.025108
v 0.007963 -0.002118 -0.02714
v 0.042584 -0.007318 -0.017066
v 0.037434 -0.00671 -0.017442
v 0.03372 -0.005152 -0.019612
v 0.025514 -0.003513 -0.021345
v 0.014273 -0.004108 -0.018904
v 0.01007 -0.003549 -0.019317
v 0.00761 -0.00108 -0.023191
v 0.038855 -0.003667 0.00955
v 0.037833 -0.005332 0.01033
v 0.038761 -0.005388 0.006907
v 0.034831 -0.004823 0.010769
v 0.036133 -0.002661 0.009855
v 0.029041 -0.001391 0.008605
v 0.028345 -0.003638 0.00885
v 0.021242 -2.1E-05 0.00719
v 0.020166 -0.002171 0.007312
v 0.012344 -0.000788 0.006515
v 0.013262 0.001666 0.006175
v 0.007102 0.000114 0.006753
v 0.008904 0.002732 0.005838
v 0.005175 0.002752 0.0042
v 0.004215 0.000679 0.004693
v 0.005036 0.00065 0.00096
v 0.03984 -0.002975 0.007997
v 0.037414 -0.001671 0.007867
v 0.029927 0.000364 0.006787
v 0.02252 0.001691 0.005481
v 0.014363 0.003498 0.004163
v 0.010729 0.004062 0.003492
v 0.006229 0.004086 0.002429
v 0.040147 -0.002975 0.006252
v 0.037824 -0.001671 0.005544
v 0.030419 0.000364 0.003999
v 0.023012 0.001691 0.002693
v 0.014896 0.003498 0.001141
v 0.011251 0.004062 0.000529
v 0.006659 0.004086 -1.2E-05
v 0.04009 -0.004068 0.004984
v 0.037547 -0.003074 0.003793
v 0.0313 -0.002607 0.003592
v 0.022238 -0.000985 0.001994
v 0.014436 0.001007 -0.000204
v 0.010531 0.002188 -0.00156
v 0.006117 0.002383 -0.001515
v 0.039807 -0.005501 0.004668
v 0.036961 -0.004965 0.003294
v 0.032035 -0.004175 0.00543
v 0.021318 -0.002256 0.003541
v 0.013719 -0.000845 0.000553
v 0.009448 -2.7E-05 -0.001945
v 0.005309 0.000679 -0.001511
v 0.038491 -0.006843 0.004586
v 0.035629 -0.00698 0.003101
v 0.030097 -0.004822 0.003889
v 0.020951 -0.003132 0.002355
v 0.013284 -0.002434 -1.5E-05
v 0.008622 -0.002403 -0.002053
v 0.005177 -0.001086 -0.001602
v 0.037025 -0.007944 0.005614
v 0.034033 -0.008798 0.004606
v 0.027707 -0.006449 0.00391
v 0.020161 -0.004924 0.00264
v 0.01251 -0.004336 0.00102
v 0.007499 -0.004568 -0.000253
v 0.004806 -0.002783 -0.000278
v 0.036687 -0.007944 0.00753
v 0.033531 -0.008798 0.007453
v 0.027348 -0.006449 0.005943
v 0.019823 -0.004924 0.004556
v 0.01208 -0.004336 0.00346
v 0.006935 -0.004568 0.002943
v 0.004396 -0.002783 0.002046
v 0.037106 -0.007075 0.00936
v 0.033976 -0.007251 0.009827
v 0.027683 -0.005501 0.007856
v 0.019837 -0.004011 0.006354
v 0.012024 -0.003037 0.005565
v 0.006779 -0.002806 0.00562
v 0.004134 -0.001454 0.003939
v 0.021766 -0.002363 0.023039
v 0.020799 -0.004037 0.023828
v 0.021696 -0.004087 0.020399
v 0.018081 -0.00358 0.024317
v 0.019313 -0.001405 0.02339
v 0.012929 -0.000263 0.022264
v 0.012257 -0.002513 0.022514
v 0.00591 0.000968 0.020987
v 0.004897 -0.001193 0.02112
v -0.002152 5.2E-05 0.020459
v -0.001274 0.002514 0.020112
v -0.00689 0.000865 0.020786
v -0.005197 0.003502 0.019852
v -0.008549 0.003454 0.018281
v -0.009462 0.001372 0.018782
v -0.008658 0.001347 0.015047
v 0.022696 -0.00166 0.021473
v 0.020523 -0.000403 0.02139
v 0.013792 0.001498 0.020442
v 0.007125 0.002692 0.019267
v -0.000212 0.004352 0.018093
v -0.003484 0.004852 0.017487
v -0.007542 0.004796 0.016502
v 0.023003 -0.00166 0.019731
v 0.020933 -0.000403 0.019066
v 0.014283 0.001498 0.017655
v 0.007617 0.002692 0.016479
v 0.00032 0.004352 0.015073
v -0.002961 0.004852 0.014523
v -0.007112 0.004796 0.014062
v 0.022955 -0.002754 0.018465
v 0.020687 -0.00181 0.017319
v 0.015037 -0.001451 0.017225
v 0.006882 1E-05 0.015787
v -0.000115 0.001857 0.01373
v -0.003611 0.002965 0.012447
v -0.007607 0.003086 0.012566
v 0.022678 -0.004189 0.018149
v 0.020133 -0.003707 0.016828
v 0.015647 -0.002995 0.019041
v 0.006002 -0.001268 0.017341
v -0.000808 1E-06 0.014492
v -0.004623 0.000738 0.012075
v -0.008368 0.001372 0.012578
v 0.021466 -0.00555 0.018084
v 0.018896 -0.005738 0.016651
v 0.013906 -0.003679 0.017535
v 0.005675 -0.002153 0.016163
v -0.00122 -0.001592 0.013928
v -0.005409 -0.001646 0.011974
v -0.008516 -0.00039 0.012484
v 0.020102 -0.00667 0.019129
v 0.017394 -0.007574 0.018172
v 0.011713 -0.005341 0.01759
v 0.004924 -0.003952 0.016453
v -0.001971 -0.003499 0.014968
v -0.006494 -0.003819 0.013781
v -0.008902 -0.002085 0.013805
v 0.019763 -0.00667 0.021047
v 0.016892 -0.007574 0.02102
v 0.011355 -0.005341 0.019624
v 0.004586 -0.003952 0.01837
v -0.002402 -0.003499 0.017408
v -0.007057 -0.003819 0.016976
v -0.009311 -0.002085 0.016129
v 0.020127 -0.00579 0.022867
v 0.017281 -0.006016 0.023384
v 0.011643 -0.004384 0.021528
v 0.004585 -0.003036 0.020166
v -0.002463 -0.002198 0.019511
v -0.007214 -0.002056 0.019654
v -0.009559 -0.000758 0.018024
v 0.007427 -0.001551 0.03701
v 0.00646 -0.003225 0.037799
v 0.007358 -0.003276 0.034371
v 0.003742 -0.002768 0.038289
v 0.004974 -0.000593 0.037362
v -0.001409 0.000549 0.036237
v -0.002083 -0.001701 0.036487
v -0.008428 0.001781 0.03496
v -0.009441 -0.000381 0.035093
v -0.016491 0.000864 0.03443
v -0.015612 0.003327 0.034085
v -0.021228 0.001677 0.034759
v -0.019536 0.004314 0.033824
v -0.022888 0.004266 0.032254
v -0.0238 0.002184 0.032755
v -0.022996 0.002159 0.029019
v 0.008358 -0.000848 0.035447
v 0.006184 0.000409 0.035363
v -0.000547 0.002309 0.034415
v -0.007213 0.003504 0.03324
v -0.01455 0.005165 0.032066
v -0.017823 0.005663 0.031458
v -0.021881 0.005608 0.030473
v 0.008665 -0.000848 0.033704
v 0.006594 0.000409 0.033039
v -5.6E-05 0.002309 0.031626
v -0.006721 0.003504 0.030451
v -0.014018 0.005165 0.029044
v -0.0173 0.005663 0.028496
v -0.021451 0.005608 0.028033
v 0.008616 -0.001942 0.032437
v 0.006349 -0.000999 0.031292
v 0.000699 -0.000639 0.031197
v -0.007457 0.000821 0.029759
v -0.014454 0.00267 0.027702
v -0.01795 0.003777 0.026419
v -0.021945 0.003897 0.026539
v 0.00834 -0.003378 0.032121
v 0.005794 -0.002894 0.0308
v 0.001308 -0.002184 0.033014
v -0.008336 -0.000457 0.031313
v -0.015147 0.000813 0.028465
v -0.018962 0.001549 0.026047
v -0.022706 0.002184 0.02655
v 0.007128 -0.004738 0.032057
v 0.004556 -0.004927 0.030623
v -0.000433 -0.002866 0.031508
v -0.008665 -0.001341 0.030135
v -0.015558 -0.00078 0.027899
v -0.019748 -0.000834 0.025946
v -0.022854 0.000423 0.026456
v 0.005762 -0.005857 0.033103
v 0.003054 -0.006763 0.032145
v -0.002626 -0.004529 0.031563
v -0.009415 -0.00314 0.030426
v -0.01631 -0.002686 0.028939
v -0.020832 -0.003007 0.027753
v -0.023241 -0.001272 0.027778
v 0.005424 -0.005857 0.035019
v 0.002552 -0.006763 0.034992
v -0.002984 -0.004529 0.033595
v -0.009753 -0.00314 0.032343
v -0.01674 -0.002686 0.03138
v -0.021395 -0.003007 0.030949
v -0.023651 -0.001272 0.030102
v 0.005789 -0.004978 0.036839
v 0.002943 -0.005205 0.037357
v -0.002696 -0.003572 0.0355
v -0.009754 -0.002224 0.034138
v -0.016803 -0.001387 0.033483
v -0.021553 -0.001244 0.033625
v -0.023898 5.4E-05 0.031996
v -0.004659 -0.001064 0.048841
v -0.005625 -0.002738 0.049631
v -0.004728 -0.00279 0.046203
v -0.008344 -0.002281 0.050121
v -0.007112 -0.000106 0.049192
v -0.013496 0.001036 0.048067
v -0.014169 -0.001214 0.048319
v -0.020514 0.002267 0.046791
v -0.021528 0.000106 0.046923
v -0.028578 0.001351 0.046262
v -0.027698 0.003812 0.045917
v -0.033315 0.002163 0.04659
v -0.031623 0.0048 0.045655
v -0.034973 0.004752 0.044084
v -0.035886 0.002671 0.044585
v -0.035082 0.002646 0.040851
v -0.003728 -0.000361 0.047277
v -0.005902 0.000896 0.047193
v -0.012634 0.002796 0.046246
v -0.019299 0.00399 0.045071
v -0.026637 0.005651 0.043898
v -0.029908 0.00615 0.04329
v -0.033966 0.006095 0.042305
v -0.003421 -0.000361 0.045534
v -0.005492 0.000896 0.04487
v -0.012142 0.002796 0.043457
v -0.018807 0.00399 0.042282
v -0.026104 0.005651 0.040876
v -0.029385 0.00615 0.040327
v -0.033536 0.006095 0.039864
v -0.00347 -0.001457 0.044268
v -0.005737 -0.000512 0.043123
v -0.011387 -0.000152 0.043028
v -0.019543 0.001308 0.04159
v -0.02654 0.003156 0.039533
v -0.030036 0.004264 0.038251
v -0.034032 0.004384 0.038369
v -0.003746 -0.002891 0.043953
v -0.006293 -0.002409 0.042631
v -0.010778 -0.001697 0.044845
v -0.020423 3E-05 0.043144
v -0.027232 0.001299 0.040295
v -0.031047 0.002036 0.037878
v -0.034793 0.002671 0.038381
v -0.004958 -0.004251 0.043888
v -0.007529 -0.00444 0.042454
v -0.012519 -0.00238 0.04334
v -0.02075 -0.000854 0.041965
v -0.027645 -0.000294 0.03973
v -0.031834 -0.000348 0.037777
v -0.034941 0.000909 0.038287
v -0.006324 -0.005371 0.044933
v -0.009032 -0.006276 0.043976
v -0.014712 -0.004043 0.043394
v -0.021501 -0.002653 0.042256
v -0.028395 -0.002201 0.040771
v -0.032918 -0.00252 0.039584
v -0.035327 -0.000786 0.039609
v -0.006662 -0.005371 0.04685
v -0.009534 -0.006276 0.046823
v -0.01507 -0.004043 0.045427
v -0.021839 -0.002653 0.044174
v -0.028826 -0.002201 0.043211
v -0.033481 -0.00252 0.04278
v -0.035737 -0.000786 0.041933
v -0.006297 -0.004491 0.048671
v -0.009144 -0.004719 0.049189
v -0.014783 -0.003086 0.047331
v -0.02184 -0.001737 0.045969
v -0.028889 -0.0009 0.045314
v -0.033639 -0.000757 0.045456
v -0.035984 0.000541 0.043828
f 1 2 3
f 4 2 5
f 1 5 2
f 4 5 6
f 7 6 5
f 8 9 7
f 6 7 9
f 10 9 11
f 8 11 9
f 10 11 12
f 13 12 11
f 13 14 12
f 15 1 3
f 5 1 16
f 15 16 1
f 5 16 7
f 16 17 7
f 18 8 17
f 7 17 8
f 8 18 11
f 19 11 18
f 20 14 13
f 21 15 3
f 22 16 21
f 15 21 16
f 23 17 22
f 16 22 17
f 24 18 23
f 23 18 17
f 24 25 18
f 19 18 25
f 26 20 25
f 25 20 19
f 26 14 20
f 27 21 3
f 22 21 28
f 27 28 21
f 28 29 22
f 23 22 29
f 24 23 30
f 29 30 23
f 30 31 24
f 25 24 31
f 32 14 26
f 33 27 3
f 28 27 34
f 33 34 27
f 34 35 28
f 35 29 28
f 30 29 36
f 36 29 35
f 31 30 37
f 36 37 30
f 37 38 31
f 32 31 38
f 38 14 32
f 39 33 3
f 40 34 39
f 33 39 34
f 34 40 35
f 40 41 35
f 36 35 42
f 41 42 35
f 43 37 42
f 42 37 36
f 43 44 37
f 38 37 44
f 44 14 38
f 45 39 3
f 46 40 45
f 39 45 40
f 40 46 41
f 47 41 46
f 42 41 48
f 47 48 41
f 43 42 49
f 48 49 42
f 43 49 44
f 50 44 49
f 50 14 44
f 51 45 3
f 52 46 51
f 51 46 45
f 46 52 47
f 53 47 52
f 48 47 54
f 53 54 47
f 55 49 54
f 48 54 49
f 55 56 49
f 50 49 56
f 56 14 50
f 57 51 3
f 58 52 57
f 51 57 52
f 53 52 59
f 58 59 52
f 60 54 59
f 53 59 54
f 61 55 60
f 54 60 55
f 56 55 62
f 61 62 55
f 62 14 56
f 2 57 3
f 4 58 2
f 57 2 58
f 4 6 58
f 59 58 6
f 9 60 6
f 59 6 60
f 10 61 9
f 60 9 61
f 10 12 61
f 62 61 12
f 12 14 62
f 63 64 65
f 66 64 67
f 63 67 64
f 66 67 68
f 69 68 67
f 70 71 69
f 68 69 71
f 72 71 73
f 70 73 71
f 72 73 74
f 75 74 73
f 75 76 74
f 77 63 65
f 67 63 78
f 77 78 63
f 67 78 69
f 79 69 78
f 80 70 79
f 69 79 70
f 70 80 73
f 73 80 81
f 82 76 75
f 83 77 65
f 84 78 83
f 77 83 78
f 85 79 84
f 78 84 79
f 86 80 85
f 79 85 80
f 86 87 80
f 81 80 87
f 88 82 87
f 81 87 82
f 88 76 82
f 89 83 65
f 84 83 90
f 90 83 89
f 90 91 84
f 85 84 91
f 86 85 92
f 91 92 85
f 92 93 86
f 86 93 87
f 94 76 88
f 95 89 65
f 90 89 96
f 95 96 89
f 96 97 90
f 91 90 97
f 92 91 98
f 97 98 91
f 93 92 99
f 98 99 92
f 99 100 93
f 93 100 94
f 100 76 94
f 101 95 65
f 102 96 101
f 95 101 96
f 96 102 97
f 103 97 102
f 98 97 104
f 97 103 104
f 105 99 104
f 98 104 99
f 105 106 99
f 100 99 106
f 106 76 100
f 107 101 65
f 108 102 107
f 102 101 107
f 102 108 103
f 109 103 108
f 104 103 110
f 109 110 103
f 105 104 111
f 111 104 110
f 105 111 106
f 112 106 111
f 112 76 106
f 113 107 65
f 114 108 113
f 107 113 108
f 108 114 109
f 115 109 114
f 110 109 116
f 115 116 109
f 117 111 116
f 110 116 111
f 117 118 111
f 111 118 112
f 118 76 112
f 119 113 65
f 120 114 119
f 119 114 113
f 115 114 121
f 120 121 114
f 122 116 121
f 115 121 116
f 123 117 122
f 116 122 117
f 118 117 124
f 124 117 123
f 124 76 118
f 64 119 65
f 66 120 64
f 64 120 119
f 66 68 120
f 121 120 68
f 71 122 68
f 121 68 122
f 72 123 71
f 122 71 123
f 72 74 123
f 124 123 74
f 74 76 124
f 125 126 127
f 128 126 129
f 125 129 126
f 128 129 130
f 131 130 129
f 132 133 131
f 130 131 133
f 134 133 135
f 132 135 133
f 134 135 136
f 137 136 135
f 137 138 136
f 139 125 127
f 129 125 140
f 139 140 125
f 129 140 131
f 141 131 140
f 142 132 141
f 131 141 132
f 132 142 135
f 143 135 142
f 144 138 137
f 145 139 127
f 140 139 146
f 145 146 139
f 141 140 147
f 146 147 140
f 142 141 148
f 147 148 141
f 142 148 143
f 148 149 143
f 144 143 150
f 149 150 143
f 150 138 144
f 151 145 127
f 146 145 152
f 152 145 151
f 152 153 146
f 147 146 153
f 148 147 154
f 153 154 147
f 154 155 148
f 149 148 155
f 156 138 150
f 157 151 127
f 152 151 158
f 157 158 151
f 158 159 152
f 153 152 159
f 154 153 160
f 159 160 153
f 155 154 161
f 154 160 161
f 161 162 155
f 156 155 162
f 162 138 156
f 163 157 127
f 164 158 163
f 157 163 158
f 158 164 159
f 165 159 164
f 160 159 166
f 165 166 159
f 167 161 166
f 160 166 161
f 167 168 161
f 162 161 168
f 168 138 162
f 169 163 127
f 170 164 169
f 163 169 164
f 164 170 165
f 171 165 170
f 166 165 172
f 171 172 165
f 167 166 173
f 172 173 166
f 167 173 168
f 174 168 173
f 174 138 168
f 175 169 127
f 170 169 176
f 176 169 175
f 170 176 171
f 171 176 177
f 178 172 177
f 171 177 172
f 173 172 179
f 178 179 172
f 179 180 173
f 174 173 180
f 180 138 174
f 181 175 127
f 182 176 181
f 181 176 175
f 177 176 183
f 182 183 176
f 184 178 183
f 177 183 178
f 185 179 184
f 178 184 179
f 180 179 186
f 185 186 179
f 186 138 180
f 126 181 127
f 128 182 126
f 181 126 182
f 128 130 182
f 182 130 183
f 133 184 130
f 183 130 184
f 134 185 133
f 184 133 185
f 134 136 185
f 186 185 136
f 136 138 186
f 187 188 189
f 190 188 191
f 187 191 188
f 190 191 192
f 193 192 191
f 194 195 193
f 192 193 195
f 196 195 197
f 194 197 195
f 196 197 198
f 198 197 199
f 199 200 198
f 201 187 189
f 191 187 202
f 201 202 187
f 191 202 193
f 193 202 203
f 204 194 203
f 193 203 194
f 194 204 197
f 205 197 204
f 206 200 199
f 207 201 189
f 202 201 208
f 207 208 201
f 203 202 209
f 208 209 202
f 210 204 209
f 203 209 204
f 210 211 204
f 204 211 205
f 205 211 206
f 206 211 212
f 212 200 206
f 213 207 189
f 208 207 214
f 214 207 213
f 214 215 208
f 209 208 215
f 210 209 216
f 215 216 209
f 216 217 210
f 210 217 211
f 218 200 212
f 219 213 189
f 214 213 220
f 219 220 213
f 220 221 214
f 215 214 221
f 216 215 222
f 222 215 221
f 217 216 223
f 216 222 223
f 223 224 217
f 217 224 218
f 224 200 218
f 225 219 189
f 226 220 225
f 219 225 220
f 220 226 221
f 227 221 226
f 222 221 228
f 227 228 221
f 229 223 228
f 222 228 223
f 229 230 223
f 224 223 230
f 230 200 224
f 231 225 189
f 232 226 231
f 225 231 226
f 226 232 227
f 233 227 232
f 228 227 234
f 233 234 227
f 229 228 235
f 234 235 228
f 229 235 230
f 236 230 235
f 236 200 230
f 237 231 189
f 232 231 238
f 237 238 231
f 232 238 233
f 238 239 233
f 234 233 240
f 239 240 233
f 235 234 241
f 240 241 234
f 241 242 235
f 236 235 242
f 242 200 236
f 243 237 189
f 244 238 243
f 237 243 238
f 239 238 245
f 244 245 238
f 246 240 245
f 240 239 245
f 247 241 246
f 240 246 241
f 242 241 248
f 247 248 241
f 248 200 242
f 188 243 189
f 190 244 188
f 243 188 244
f 190 192 244
f 245 244 192
f 195 246 192
f 245 192 246
f 196 247 195
f 246 195 247
f 196 198 247
f 247 198 248
f 198 200 248
f 249 250 251
f 252 250 253
f 249 253 250
f 252 253 254
f 255 254 253
f 256 257 255
f 255 257 254
f 258 257 259
f 256 259 257
f 258 259 260
f 261 260 259
f 261 262 260
f 263 249 251
f 253 249 264
f 263 264 249
f 253 264 255
f 265 255 264
f 266 256 265
f 255 265 256
f 256 266 259
f 267 259 266
f 268 262 261
f 269 263 251
f 264 263 270
f 269 270 263
f 265 264 271
f 270 271 264
f 272 266 271
f 265 271 266
f 266 272 267
f 272 273 267
f 274 268 273
f 267 273 268
f 274 262 268
f 275 269 251
f 270 269 276
f 275 276 269
f 276 277 270
f 271 270 277
f 272 271 278
f 277 278 271
f 278 279 272
f 272 279 273
f 280 262 274
f 281 275 251
f 276 275 282
f 281 282 275
f 282 283 276
f 277 276 283
f 278 277 284
f 283 284 277
f 279 278 285
f 284 285 278
f 285 286 279
f 280 279 286
f 286 262 280
f 287 281 251
f 288 282 287
f 281 287 282
f 282 288 283
f 289 283 288
f 284 283 290
f 289 290 283
f 291 285 290
f 284 290 285
f 291 292 285
f 286 285 292
f 292 262 286
f 293 287 251
f 294 288 293
f 287 293 288
f 288 294 289
f 295 289 294
f 290 289 296
f 295 296 289
f 291 290 297
f 296 297 290
f 291 297 292
f 298 292 297
f 298 262 292
f 299 293 251
f 300 294 299
f 293 299 294
f 300 301 294
f 294 301 295
f 302 296 301
f 295 301 296
f 297 296 303
f 302 303 296
f 297 303 298
f 304 298 303
f 304 262 298
f 305 299 251
f 306 300 305
f 300 299 305
f 301 300 307
f 306 307 300
f 308 302 307
f 301 307 302
f 309 303 308
f 302 308 303
f 304 303 310
f 309 310 303
f 310 262 304
f 250 305 251
f 252 306 250
f 305 250 306
f 252 254 306
f 307 306 254
f 257 308 254
f 307 254 308
f 258 309 257
f 308 257 309
f 258 260 309
f 310 309 260
f 260 262 310
f 311 312 313
f 314 312 315
f 311 315 312
f 315 316 314
f 317 314 316
f 316 318 317
f 319 317 318
f 320 319 321
f 318 321 319
f 322 320 323
f 321 323 320
f 323 324 322
f 325 322 324
f 324 326 325
f 327 311 313
f 315 311 328
f 327 328 311
f 316 315 329
f 328 329 315
f 318 316 330
f 329 330 316
f 321 318 331
f 330 331 318
f 323 321 332
f 331 332 321
f 332 333 323
f 324 323 333
f 333 326 324
f 334 327 313
f 335 328 334
f 327 334 328
f 336 329 335
f 329 328 335
f 330 329 337
f 336 337 329
f 338 331 337
f 330 337 331
f 331 338 332
f 339 332 338
f 339 340 332
f 333 332 340
f 340 326 333
f 341 334 313
f 342 335 341
f 334 341 335
f 336 335 343
f 342 343 335
f 343 344 336
f 336 344 337
f 345 338 344
f 337 344 338
f 346 339 345
f 338 345 339
f 339 346 340
f 340 346 347
f 347 326 340
f 348 341 313
f 349 342 348
f 341 348 342
f 350 343 349
f 342 349 343
f 350 351 343
f 351 344 343
f 351 352 344
f 345 344 352
f 353 346 352
f 345 352 346
f 346 353 347
f 354 347 353
f 354 326 347
f 355 348 313
f 356 349 355
f 348 355 349
f 356 357 349
f 350 349 357
f 350 357 351
f 358 351 357
f 359 352 358
f 351 358 352
f 360 353 359
f 359 353 352
f 360 361 353
f 354 353 361
f 361 326 354
f 362 355 313
f 363 356 362
f 356 355 362
f 356 363 357
f 364 357 363
f 357 364 358
f 365 358 364
f 366 359 365
f 358 365 359
f 367 360 366
f 359 366 360
f 360 367 361
f 368 361 367
f 368 326 361
f 369 362 313
f 363 362 370
f 369 370 362
f 370 371 363
f 363 371 364
f 371 372 364
f 365 364 372
f 366 365 373
f 372 373 365
f 367 366 374
f 373 374 366
f 374 375 367
f 368 367 375
f 375 326 368
f 376 369 313
f 370 369 377
f 377 369 376
f 377 378 370
f 371 370 378
f 378 379 371
f 379 372 371
f 380 373 379
f 372 379 373
f 381 374 380
f 373 380 374
f 381 382 374
f 375 374 382
f 382 326 375
f 312 376 313
f 377 376 314
f 312 314 376
f 314 317 377
f 378 377 317
f 317 319 378
f 379 378 319
f 380 379 320
f 319 320 379
f 322 381 320
f 380 320 381
f 322 325 381
f 381 325 382
f 325 326 382
f 383 384 385
f 386 384 387
f 383 387 384
f 387 388 386
f 389 386 388
f 388 390 389
f 389 390 391
f 392 391 393
f 390 393 391
f 394 392 395
f 393 395 392
f 395 396 394
f 397 394 396
f 396 398 397
f 399 383 385
f 387 383 400
f 399 400 383
f 388 387 401
f 400 401 387
f 390 388 402
f 401 402 388
f 393 390 403
f 402 403 390
f 395 393 404
f 403 404 393
f 404 405 395
f 396 395 405
f 405 398 396
f 406 399 385
f 407 400 406
f 399 406 400
f 401 400 408
f 407 408 400
f 408 409 401
f 402 401 409
f 410 403 409
f 402 409 403
f 403 410 404
f 411 404 410
f 404 411 405
f 412 405 411
f 412 398 405
f 413 406 385
f 414 407 413
f 406 413 407
f 408 407 415
f 414 415 407
f 415 416 408
f 408 416 409
f 417 410 416
f 416 410 409
f 418 411 417
f 410 417 411
f 411 418 412
f 412 418 419
f 419 398 412
f 420 413 385
f 421 414 420
f 413 420 414
f 422 415 421
f 414 421 415
f 422 423 415
f 415 423 416
f 423 424 416
f 417 416 424
f 425 418 424
f 417 424 418
f 418 425 419
f 426 419 425
f 426 398 419
f 427 420 385
f 428 421 427
f 420 427 421
f 428 429 421
f 422 421 429
f 422 429 423
f 429 430 423
f 431 424 430
f 423 430 424
f 432 425 431
f 424 431 425
f 432 433 425
f 426 425 433
f 433 398 426
f 434 427 385
f 435 428 434
f 428 427 434
f 428 435 429
f 436 429 435
f 429 436 430
f 437 430 436
f 438 431 437
f 430 437 431
f 439 432 438
f 431 438 432
f 432 439 433
f 440 433 439
f 440 398 433
f 441 434 385
f 442 435 441
f 441 435 434
f 435 442 436
f 443 436 442
f 443 444 436
f 437 436 444
f 445 438 444
f 437 444 438
f 439 438 446
f 438 445 446
f 439 446 440
f 447 440 446
f 447 398 440
f 448 441 385
f 442 441 449
f 449 441 448
f 449 450 442
f 443 442 450
f 450 451 443
f 444 443 451
f 452 445 451
f 444 451 445
f 453 446 452
f 445 452 446
f 453 454 446
f 454 447 446
f 454 398 447
f 384 448 385
f 449 448 386
f 386 448 384
f 386 389 449
f 450 449 389
f 389 391 450
f 451 450 391
f 452 451 392
f 391 392 451
f 394 453 392
f 452 392 453
f 394 397 453
f 453 397 454
f 397 398 454
f 455 456 457
f 458 456 459
f 455 459 456
f 459 460 458
f 461 458 460
f 462 461 463
f 460 463 461
f 464 462 465
f 465 462 463
f 466 464 467
f 465 467 464
f 467 468 466
f 466 468 469
f 468 470 469
f 471 455 457
f 459 455 472
f 471 472 455
f 460 459 473
f 472 473 459
f 463 460 474
f 473 474 460
f 465 463 475
f 474 475 463
f 467 465 476
f 475 476 465
f 476 477 467
f 468 467 477
f 477 470 468
f 478 471 457
f 479 472 478
f 478 472 471
f 480 473 479
f 472 479 473
f 473 480 474
f 481 474 480
f 482 475 481
f 474 481 475
f 475 482 476
f 483 476 482
f 476 483 477
f 484 477 483
f 484 470 477
f 485 478 457
f 486 479 485
f 478 485 479
f 480 479 487
f 486 487 479
f 487 488 480
f 480 488 481
f 489 482 488
f 481 488 482
f 490 483 489
f 482 489 483
f 483 490 484
f 491 484 490
f 491 470 484
f 492 485 457
f 493 486 492
f 485 492 486
f 494 487 493
f 486 493 487
f 494 495 487
f 488 487 495
f 495 496 488
f 489 488 496
f 497 490 496
f 489 496 490
f 490 497 491
f 498 491 497
f 498 470 491
f 499 492 457
f 500 493 499
f 492 499 493
f 500 501 493
f 494 493 501
f 494 501 495
f 502 495 501
f 503 496 502
f 495 502 496
f 504 497 503
f 496 503 497
f 504 505 497
f 498 497 505
f 505 470 498
f 506 499 457
f 507 500 506
f 499 506 500
f 500 507 501
f 507 508 501
f 501 508 502
f 509 502 508
f 510 503 509
f 502 509 503
f 511 504 510
f 510 504 503
f 504 511 505
f 512 505 511
f 512 470 505
f 513 506 457
f 507 506 514
f 513 514 506
f 514 515 507
f 508 507 515
f 515 516 508
f 509 508 516
f 510 509 517
f 517 509 516
f 511 510 518
f 517 518 510
f 518 519 511
f 512 511 519
f 519 470 512
f 520 513 457
f 514 513 521
f 520 521 513
f 521 522 514
f 515 514 522
f 522 523 515
f 516 515 523
f 524 517 523
f 516 523 517
f 525 518 524
f 524 518 517
f 525 526 518
f 519 518 526
f 526 470 519
f 456 520 457
f 521 520 458
f 456 458 520
f 458 461 521
f 522 521 461
f 461 462 522
f 523 522 462
f 524 523 464
f 462 464 523
f 466 525 464
f 524 464 525
f 466 469 525
f 526 525 469
f 469 470 526
f 527 528 529
f 530 528 531
f 527 531 528
f 531 532 530
f 533 530 532
f 534 533 535
f 532 535 533
f 536 534 537
f 535 537 534
f 538 536 539
f 537 539 536
f 538 539 540
f 541 540 539
f 541 542 540
f 543 527 529
f 543 544 527
f 531 527 544
f 544 545 531
f 532 531 545
f 535 532 546
f 545 546 532
f 537 535 547
f 546 547 535
f 539 537 548
f 547 548 537
f 539 548 541
f 549 541 548
f 549 542 541
f 550 543 529
f 551 544 550
f 543 550 544
f 545 544 552
f 544 551 552
f 545 552 546
f 553 546 552
f 547 546 554
f 553 554 546
f 554 555 547
f 548 547 555
f 548 555 549
f 556 549 555
f 556 542 549
f 557 550 529
f 558 551 557
f 550 557 551
f 552 551 559
f 558 559 551
f 559 560 552
f 553 552 560
f 561 554 560
f 553 560 554
f 562 555 561
f 554 561 555
f 555 562 556
f 563 556 562
f 563 542 556
f 564 557 529
f 565 558 564
f 557 564 558
f 566 559 565
f 558 565 559
f 566 567 559
f 559 567 560
f 567 568 560
f 561 560 568
f 568 569 561
f 562 561 569
f 562 569 563
f 570 563 569
f 570 542 563
f 571 564 529
f 572 565 571
f 564 571 565
f 572 573 565
f 566 565 573
f 566 573 567
f 574 567 573
f 575 568 574
f 567 574 568
f 576 569 575
f 569 568 575
f 576 577 569
f 569 577 570
f 577 542 570
f 578 571 529
f 579 572 578
f 571 578 572
f 572 579 573
f 580 573 579
f 573 580 574
f 581 574 580
f 582 575 581
f 574 581 575
f 583 576 582
f 575 582 576
f 576 583 577
f 584 577 583
f 584 542 577
f 585 578 529
f 579 578 586
f 585 586 578
f 579 586 580
f 587 580 586
f 587 588 580
f 581 580 588
f 582 581 589
f 588 589 581
f 590 583 589
f 582 589 583
f 590 591 583
f 584 583 591
f 591 542 584
f 592 585 529
f 593 586 592
f 585 592 586
f 593 594 586
f 587 586 594
f 594 595 587
f 588 587 595
f 596 589 595
f 595 589 588
f 597 590 596
f 589 596 590
f 597 598 590
f 591 590 598
f 598 542 591
f 528 592 529
f 593 592 530
f 530 592 528
f 530 533 593
f 594 593 533
f 533 534 594
f 595 594 534
f 536 596 534
f 595 534 596
f 538 597 536
f 596 536 597
f 538 540 597
f 598 597 540
f 540 542 598
f 599 600 601
f 602 600 603
f 599 603 600
f 604 605 603
f 602 603 605
f 605 604 606
f 607 606 604
f 608 606 609
f 607 609 606
f 608 609 610
f 611 610 609
f 610 611 612
f 613 612 611
f 613 614 612
f 615 599 601
f 603 599 616
f 615 616 599
f 617 604 616
f 603 616 604
f 618 607 617
f 604 617 607
f 609 607 619
f 619 607 618
f 619 620 609
f 611 609 620
f 621 613 620
f 611 620 613
f 621 614 613
f 622 615 601
f 615 622 616
f 623 616 622
f 617 616 624
f 623 624 616
f 618 617 625
f 624 625 617
f 618 625 619
f 626 619 625
f 620 619 627
f 626 627 619
f 627 628 620
f 621 620 628
f 628 614 621
f 629 622 601
f 630 623 629
f 622 629 623
f 630 631 623
f 624 623 631
f 625 624 632
f 631 632 624
f 625 632 626
f 633 626 632
f 627 626 634
f 633 634 626
f 634 635 627
f 628 627 635
f 635 614 628
f 636 629 601
f 637 630 636
f 629 636 630
f 637 638 630
f 631 630 638
f 632 631 639
f 639 631 638
f 640 633 639
f 632 639 633
f 634 633 641
f 640 641 633
f 641 642 634
f 635 634 642
f 642 614 635
f 643 636 601
f 636 643 637
f 644 637 643
f 637 644 638
f 644 645 638
f 639 638 646
f 645 646 638
f 640 639 647
f 646 647 639
f 641 640 648
f 647 648 640
f 648 649 641
f 642 641 649
f 649 614 642
f 650 643 601
f 644 643 651
f 650 651 643
f 644 651 645
f 652 645 651
f 652 653 645
f 645 653 646
f 647 646 654
f 654 646 653
f 648 647 655
f 654 655 647
f 655 656 648
f 649 648 656
f 656 614 649
f 657 650 601
f 651 650 658
f 657 658 650
f 651 658 652
f 659 652 658
f 659 660 652
f 653 652 660
f 654 653 661
f 661 653 660
f 662 655 661
f 654 661 655
f 662 663 655
f 656 655 663
f 663 614 656
f 664 657 601
f 664 665 657
f 658 657 665
f 665 666 658
f 659 658 666
f 659 666 660
f 667 660 666
f 668 661 667
f 660 667 661
f 669 662 668
f 661 668 662
f 662 669 663
f 663 669 670
f 670 614 663
f 600 664 601
f 600 602 664
f 665 664 602
f 605 666 602
f 665 602 666
f 666 605 667
f 605 606 667
f 608 668 606
f 606 668 667
f 610 669 608
f 669 668 608
f 610 612 669
f 669 612 670
f 612 614 670
f 671 672 673
f 674 672 675
f 671 675 672
f 675 676 674
f 677 674 676
f 676 678 677
f 679 677 678
f 680 679 681
f 678 681 679
f 682 680 683
f 681 683 680
f 683 684 682
f 685 682 684
f 684 686 685
f 687 671 673
f 675 671 688
f 671 687 688
f 676 675 689
f 688 689 675
f 689 690 676
f 678 676 690
f 681 678 691
f 690 691 678
f 683 681 692
f 692 681 691
f 692 693 683
f 684 683 693
f 693 686 684
f 694 687 673
f 695 688 694
f 687 694 688
f 689 688 696
f 695 696 688
f 696 697 689
f 690 689 697
f 691 690 698
f 697 698 690
f 698 699 691
f 692 691 699
f 692 699 693
f 700 693 699
f 700 686 693
f 701 694 673
f 702 695 701
f 695 694 701
f 696 695 703
f 702 703 695
f 703 704 696
f 697 696 704
f 705 698 704
f 704 698 697
f 706 699 705
f 698 705 699
f 699 706 700
f 707 700 706
f 707 686 700
f 708 701 673
f 709 702 708
f 708 702 701
f 703 702 710
f 709 710 702
f 704 703 711
f 703 710 711
f 704 711 705
f 712 705 711
f 713 706 712
f 705 712 706
f 706 713 707
f 714 707 713
f 714 686 707
f 715 708 673
f 716 709 715
f 709 708 715
f 709 716 710
f 717 710 716
f 718 711 717
f 710 717 711
f 719 712 718
f 711 718 712
f 720 713 719
f 712 719 713
f 720 721 713
f 714 713 721
f 721 686 714
f 722 715 673
f 723 716 722
f 715 722 716
f 716 723 717
f 724 717 723
f 725 718 724
f 717 724 718
f 726 719 725
f 719 718 725
f 727 720 726
f 719 726 720
f 720 727 721
f 728 721 727
f 728 686 721
f 729 722 673
f 723 722 730
f 729 730 722
f 723 730 724
f 731 724 730
f 724 731 725
f 731 732 725
f 726 725 733
f 732 733 725
f 734 727 733
f 726 733 727
f 727 734 728
f 735 728 734
f 735 686 728
f 736 729 673
f 730 729 737
f 736 737 729
f 737 738 730
f 731 730 738
f 738 739 731
f 731 739 732
f 733 732 740
f 739 740 732
f 741 734 740
f 733 740 734
f 741 742 734
f 735 734 742
f 742 686 735
f 672 736 673
f 737 736 674
f 672 674 736
f 674 677 737
f 738 737 677
f 677 679 738
f 739 738 679
f 740 739 680
f 679 680 739
f 741 740 682
f 680 682 740
f 682 685 741
f 742 741 685
f 685 686 742
f 743 744 745
f 746 744 747
f 743 747 744
f 747 748 746
f 749 746 748
f 748 750 749
f 751 749 750
f 752 751 753
f 753 751 750
f 754 752 755
f 753 755 752
f 755 756 754
f 754 756 757
f 756 758 757
f 759 743 745
f 747 743 760
f 759 760 743
f 748 747 761
f 760 761 747
f 761 762 748
f 750 748 762
f 753 750 763
f 762 763 750
f 755 753 764
f 763 764 753
f 764 765 755
f 756 755 765
f 765 758 756
f 766 759 745
f 760 759 767
f 766 767 759
f 768 761 767
f 760 767 761
f 762 761 769
f 768 769 761
f 770 763 769
f 762 769 763
f 763 770 764
f 764 770 771
f 771 772 764
f 764 772 765
f 772 758 765
f 773 766 745
f 774 767 773
f 766 773 767
f 768 767 775
f 774 775 767
f 775 776 768
f 769 768 776
f 777 770 776
f 769 776 770
f 778 771 777
f 770 777 771
f 771 778 772
f 779 772 778
f 779 758 772
f 780 773 745
f 781 774 780
f 773 780 774
f 775 774 782
f 781 782 774
f 776 775 783
f 782 783 775
f 776 783 777
f 777 783 784
f 785 778 784
f 777 784 778
f 778 785 779
f 779 785 786
f 786 758 779
f 787 780 745
f 788 781 787
f 780 787 781
f 781 788 782
f 789 782 788
f 790 783 789
f 782 789 783
f 791 784 790
f 790 784 783
f 792 785 791
f 784 791 785
f 792 793 785
f 786 785 793
f 793 758 786
f 794 787 745
f 795 788 794
f 787 794 788
f 788 795 789
f 789 795 796
f 797 790 796
f 796 790 789
f 798 791 797
f 790 797 791
f 799 792 798
f 791 798 792
f 792 799 793
f 800 793 799
f 800 758 793
f 801 794 745
f 795 794 802
f 801 802 794
f 802 803 795
f 796 795 803
f 803 804 796
f 797 796 804
f 805 798 804
f 797 804 798
f 799 798 806
f 805 806 798
f 806 807 799
f 800 799 807
f 807 758 800
f 808 801 745
f 802 801 809
f 808 809 801
f 809 810 802
f 803 802 810
f 810 811 803
f 804 803 811
f 805 804 812
f 811 812 804
f 813 806 812
f 812 806 805
f 813 814 806
f 814 807 806
f 814 758 807
f 744 808 745
f 809 808 746
f 744 746 808
f 746 749 809
f 809 749 810
f 749 751 810
f 811 810 751
f 812 811 752
f 751 752 811
f 754 813 752
f 752 813 812
f 754 757 813
f 813 757 814
f 757 758 814
f 815 816 817
f 818 816 819
f 815 819 816
f 819 820 818
f 821 818 820
f 820 822 821
f 823 821 822
f 824 823 825
f 822 825 823
f 826 824 827
f 825 827 824
f 827 828 826
f 829 826 828
f 828 830 829
f 831 815 817
f 819 815 832
f 831 832 815
f 820 819 833
f 832 833 819
f 833 834 820
f 820 834 822
f 825 822 835
f 835 822 834
f 827 825 836
f 835 836 825
f 836 837 827
f 828 827 837
f 837 830 828
f 838 831 817
f 839 832 838
f 831 838 832
f 840 833 839
f 832 839 833
f 841 834 840
f 833 840 834
f 842 835 841
f 834 841 835
f 835 842 836
f 843 836 842
f 843 844 836
f 837 836 844
f 844 830 837
f 845 838 817
f 846 839 845
f 838 845 839
f 840 839 847
f 846 847 839
f 847 848 840
f 841 840 848
f 841 848 842
f 849 842 848
f 850 843 849
f 849 843 842
f 843 850 844
f 851 844 850
f 851 830 844
f 852 845 817
f 853 846 852
f 845 852 846
f 847 846 854
f 853 854 846
f 848 847 855
f 854 855 847
f 848 855 849
f 855 856 849
f 857 850 856
f 849 856 850
f 850 857 851
f 858 851 857
f 858 830 851
f 859 852 817
f 860 853 859
f 852 859 853
f 853 860 854
f 861 854 860
f 862 855 861
f 855 854 861
f 863 856 862
f 855 862 856
f 864 857 863
f 856 863 857
f 864 865 857
f 858 857 865
f 865 830 858
f 866 859 817
f 867 860 866
f 859 866 860
f 860 867 861
f 861 867 868
f 869 862 868
f 861 868 862
f 870 863 869
f 869 863 862
f 871 864 870
f 870 864 863
f 864 871 865
f 872 865 871
f 872 830 865
f 873 866 817
f 867 866 874
f 873 874 866
f 874 875 867
f 868 867 875
f 868 875 869
f 876 869 875
f 870 869 877
f 876 877 869
f 871 870 878
f 877 878 870
f 878 879 871
f 872 871 879
f 879 830 872
f 880 873 817
f 874 873 881
f 880 881 873
f 881 882 874
f 875 874 882
f 882 883 875
f 876 875 883
f 877 876 884
f 883 884 876
f 885 878 884
f 877 884 878
f 885 886 878
f 879 878 886
f 886 830 879
f 816 880 817
f 881 880 818
f 816 818 880
f 818 821 881
f 821 882 881
f 821 823 882
f 883 882 823
f 884 883 824
f 823 824 883
f 826 885 824
f 884 824 885
f 826 829 885
f 886 885 829
f 829 830 886
f 887 888 889
f 890 888 891
f 887 891 888
f 891 892 890
f 893 890 892
f 892 894 893
f 895 893 894
f 896 895 897
f 897 895 894
f 898 896 899
f 896 897 899
f 899 900 898
f 901 898 900
f 900 902 901
f 903 887 889
f 891 887 904
f 903 904 887
f 892 891 905
f 904 905 891
f 894 892 906
f 905 906 892
f 897 894 907
f 906 907 894
f 899 897 908
f 907 908 897
f 908 909 899
f 900 899 909
f 909 902 900
f 910 903 889
f 904 903 911
f 910 911 903
f 905 904 912
f 911 912 904
f 906 905 913
f 912 913 905
f 907 906 914
f 913 914 906
f 907 914 908
f 915 908 914
f 915 916 908
f 909 908 916
f 916 902 909
f 917 910 889
f 918 911 917
f 910 917 911
f 912 911 919
f 918 919 911
f 919 920 912
f 913 912 920
f 921 914 920
f 913 920 914
f 922 915 921
f 914 921 915
f 915 922 916
f 923 916 922
f 923 902 916
f 924 917 889
f 925 918 924
f 917 924 918
f 919 918 926
f 925 926 918
f 920 919 927
f 926 927 919
f 920 927 921
f 928 921 927
f 929 922 928
f 922 921 928
f 922 929 923
f 930 923 929
f 930 902 923
f 931 924 889
f 932 925 931
f 924 931 925
f 925 932 926
f 933 926 932
f 934 927 933
f 927 926 933
f 935 928 934
f 927 934 928
f 936 929 935
f 928 935 929
f 936 937 929
f 930 929 937
f 937 902 930
f 938 931 889
f 939 932 938
f 931 938 932
f 932 939 933
f 940 933 939
f 941 934 940
f 940 934 933
f 942 935 941
f 934 941 935
f 943 936 942
f 935 942 936
f 936 943 937
f 944 937 943
f 944 902 937
f 945 938 889
f 939 938 946
f 945 946 938
f 946 947 939
f 940 939 947
f 947 948 940
f 941 940 948
f 949 942 948
f 941 948 942
f 943 942 950
f 949 950 942
f 950 951 943
f 944 943 951
f 951 902 944
f 952 945 889
f 946 945 953
f 952 953 945
f 953 954 946
f 954 947 946
f 954 955 947
f 948 947 955
f 949 948 956
f 956 948 955
f 957 950 956
f 949 956 950
f 957 958 950
f 951 950 958
f 958 902 951
f 888 952 889
f 953 952 890
f 888 890 952
f 890 893 953
f 954 953 893
f 893 895 954
f 954 895 955
f 956 955 896
f 895 896 955
f 898 957 896
f 896 957 956
f 898 901 957
f 958 957 901
f 901 902 958
# Vertices: 958, normals: 0, texture coordinates: 0, faces: 1840

