# File generated by ImageToStl.com - Free Image and 3D model conversion tools

o obj1
v -0.01444679 -0.05324941 0.0345395
v -0.01156213 -0.06120731 0.03659398
v -0.00625985 -0.05946047 0.0295337
v -0.00973752 -0.05261764 0.03020871
v -0.00903267 -0.0579015 0.02089286
v -0.01336627 -0.05200843 0.0244993
v -0.01756609 -0.04939026 0.02936314
v -0.02386338 -0.04470751 0.02955942
v -0.0208203 -0.04592957 0.02488261
v -0.02636156 -0.04685 0.02288315
v -0.02750086 -0.04566438 0.02803494
v -0.02869868 -0.04964632 0.03013704
v -0.02308215 -0.04875209 0.03293549
v -0.02803035 -0.05056132 0.02486093
v -0.0200073 -0.39777395 0.03000038
v -0.02392681 -0.39767528 0.02619172
v -0.02017033 -0.40036389 0.02348732
v -0.01783106 -0.40322208 0.02830945
v -0.01220811 -0.39797184 0.0234111
v -0.01140729 -0.39978236 0.02910712
v -0.01442898 -0.39572662 0.03046517
v -0.02442409 -0.39101651 0.02539477
v -0.02163872 -0.39289442 0.021163
v -0.01957697 -0.38974223 0.02996017
v -0.01038732 -0.38299832 0.01771105
v -0.00356528 -0.38235623 0.02079814
v -0.00513151 -0.39155641 0.02213603
v -0.00966857 -0.38881317 0.01931513
v -0.01497317 -0.39211661 0.02012752
v -0.01744116 -0.3859795 0.01641878
v -0.0286854 -0.0549629 0.02310047
v -0.02846346 -0.05606747 0.03145338
v -0.02494724 -0.05172376 0.01723956
v -0.00555469 -0.3917509 0.02848336
v -0.01216081 -0.3898735 0.03059224
v -0.00317748 -0.3826282 0.02728995
v -0.010644 -0.38237047 0.03000979
v -0.0048876 -0.37462926 0.02605524
v -0.01119333 -0.37538412 0.02883465
v -0.00613826 -0.3747173 0.0201598
v -0.00837138 -0.36836454 0.01974746
v -0.00727719 -0.36816007 0.02504684
v -0.01212684 -0.37624109 0.0164222
v -0.01370874 -0.36938828 0.01639192
v -0.01893079 -0.37804863 0.01459923
v -0.01959288 -0.37022573 0.01508774
v -0.02441774 -0.37805817 0.0174636
v -0.02407359 -0.37053561 0.01754845
v -0.02371769 -0.38587236 0.01879141
v -0.0241588 -0.38325781 0.02444257
v -0.02372066 -0.3764073 0.02353974
v -0.01888978 -0.38211125 0.0293642
v -0.01871233 -0.37550923 0.02839759
v -0.01880814 -0.3691994 0.02744788
v -0.02319613 -0.36980817 0.02292201
v -0.01238402 -0.36892739 0.02788964
v -0.01308331 -0.36268342 0.02750757
v -0.01877075 -0.36287794 0.02677463
v -0.00856816 -0.36209151 0.02445311
v -0.00931008 -0.35599864 0.0243351
v -0.01347768 -0.35651225 0.02724497
v -0.00939191 -0.36203781 0.01938951
v -0.01022465 -0.35570383 0.01950558
v -0.01448318 -0.3625702 0.0164893
v -0.01496536 -0.35594112 0.01686439
v -0.0199497 -0.36307281 0.01574889
v -0.02022193 -0.35632861 0.01628955
v -0.02423492 -0.36347494 0.0177545
v -0.02442286 -0.35679016 0.01812431
v -0.02261128 -0.36322796 0.02253802
v -0.02220695 -0.35680357 0.02245352
v -0.01864392 -0.35663849 0.02640628
v -0.01870709 -0.35044715 0.02603803
v -0.02234541 -0.35050529 0.02255103
v -0.01384006 -0.3502959 0.02720327
v -0.01426521 -0.34407806 0.02731936
v -0.01886154 -0.34426779 0.02567399
v -0.0100211 -0.34980622 0.02445154
v -0.01091551 -0.34360111 0.02453968
v -0.01111945 -0.34948003 0.01990802
v -0.0119752 -0.3433142 0.02019915
v -0.01554714 -0.34956971 0.01737182
v -0.01618646 -0.34341264 0.01785948
v -0.02058546 -0.3499307 0.01703472
v -0.02101165 -0.34371966 0.01756499
v -0.02476159 -0.35038495 0.01851679
v -0.02516484 -0.34411085 0.01893774
v -0.02258273 -0.34428918 0.02268926
v -0.02312569 -0.33811417 0.02291055
v -0.02567565 -0.33798292 0.01922175
v -0.01933914 -0.33804646 0.025545
v -0.01999509 -0.33179438 0.02541801
v -0.02377276 -0.33188015 0.02305088
v -0.01486889 -0.33778667 0.02719764
v -0.01563565 -0.33147091 0.02674645
v -0.01179621 -0.33738384 0.02451125
v -0.01266017 -0.33115757 0.02422037
v -0.01276612 -0.33717328 0.02029688
v -0.01350105 -0.33108813 0.02015159
v -0.01693109 -0.33733219 0.01822099
v -0.01756378 -0.33124861 0.01820904
v -0.02156485 -0.33758235 0.01782679
v -0.02202934 -0.33142295 0.01803073
v -0.02617123 -0.33171079 0.01946592
v -0.02633973 -0.32540727 0.01963341
v -0.02229074 -0.32519913 0.01817269
v -0.02436298 -0.32556731 0.02315578
v -0.0249755 -0.31918868 0.02321434
v -0.02660351 -0.31902272 0.01972345
v -0.02066663 -0.32548222 0.02531087
v -0.02132159 -0.31910577 0.02522502
v -0.01642966 -0.32514319 0.02625225
v -0.01719097 -0.31877896 0.02582273
v -0.01344031 -0.32489353 0.02384182
v -0.01422979 -0.31858757 0.02348333
v -0.01417923 -0.32494888 0.01990834
v -0.01492254 -0.31866977 0.0197185
v -0.01801737 -0.32510272 0.0180843
v -0.01840602 -0.31881702 0.01775499
v -0.02254214 -0.31888604 0.0182751
v -0.02276423 -0.31243557 0.01828756
v -0.01879063 -0.31237021 0.01748308
v -0.02658457 -0.31256446 0.01990149
v -0.0268048 -0.30597448 0.02002496
v -0.02308173 -0.30580226 0.0182659
v -0.02549534 -0.31273317 0.02334947
v -0.02608163 -0.3061417 0.02350138
v -0.02191041 -0.3126182 0.02529568
v -0.02250569 -0.30598852 0.0254324
v -0.01785531 -0.31231835 0.02557984
v -0.01845746 -0.30570078 0.02536551
v -0.01490183 -0.31217533 0.02326314
v -0.01540994 -0.3055729 0.02310562
v -0.01549786 -0.31225041 0.01956892
v -0.01591633 -0.30564976 0.01943682
v -0.01916417 -0.30574352 0.01721297
v -0.01946129 -0.29891956 0.01696398
v -0.01608207 -0.29882139 0.0192579
v -0.02336235 -0.29897627 0.0182613
v -0.02356903 -0.29189962 0.01825891
v -0.01975293 -0.29178056 0.01692049
v -0.02684259 -0.29906368 0.0202577
v -0.02686411 -0.29202256 0.02052679
v -0.02660291 -0.29926521 0.02366718
v -0.02695839 -0.29222333 0.02397777
v -0.02302615 -0.29920685 0.02559535
v -0.02340345 -0.29215461 0.02584527
v -0.01898808 -0.29893002 0.02532863
v -0.01942388 -0.29189807 0.02537171
v -0.01586414 -0.29877549 0.02303423
v -0.016231 -0.29171413 0.02306107
v -0.01650757 -0.29169673 0.0193488
v -0.01692832 -0.28442499 0.01950848
v -0.01650557 -0.28453767 0.02321954
v -0.0200997 -0.28449661 0.01699046
v -0.02049096 -0.27729023 0.01704909
v -0.01745096 -0.27726763 0.01977318
v -0.02390119 -0.28474814 0.01831692
v -0.02435782 -0.27765059 0.01835443
v -0.02703259 -0.28496364 0.02075882
v -0.02730875 -0.2779085 0.02098382
v -0.0273368 -0.28514045 0.02425888
v -0.02786874 -0.27811137 0.0246073
v -0.02376176 -0.28503129 0.02607618
v -0.02407917 -0.27800193 0.02629101
v -0.01979931 -0.28479254 0.02551729
v -0.02010441 -0.27778566 0.02579711
v -0.01678832 -0.27746627 0.02345717
v -0.01716762 -0.27052239 0.0237224
v -0.0203376 -0.27080402 0.02607279
v -0.0178678 -0.27026805 0.02007697
v -0.01815959 -0.26334926 0.02039435
v -0.0172542 -0.26354939 0.02401585
v -0.02086535 -0.27021721 0.01722144
v -0.02104449 -0.26326984 0.0174565
v -0.02472004 -0.27053416 0.01844079
v -0.02484074 -0.26348671 0.01875165
v -0.02752167 -0.27083448 0.02121429
v -0.02761995 -0.26381338 0.02156
v -0.02815469 -0.27111989 0.02496915
v -0.02847972 -0.26419985 0.02538335
v -0.02427476 -0.27100909 0.02651083
v -0.02449959 -0.26404509 0.02681925
v -0.02048012 -0.26378557 0.02635319
v -0.02060185 -0.25681996 0.02657514
v -0.02473824 -0.25704774 0.02712463
v -0.01724537 -0.25655788 0.02415929
v -0.01722855 -0.24962534 0.0242641
v -0.02061643 -0.24992569 0.02679259
v -0.01826364 -0.25639161 0.02044282
v -0.01849082 -0.24943118 0.02044924
v -0.02109781 -0.25639507 0.01731046
v -0.02115616 -0.24941675 0.01702581
v -0.02497544 -0.25657082 0.01874373
v -0.02505314 -0.24962509 0.01853113
v -0.02774232 -0.25681868 0.02178158
v -0.02780241 -0.24983341 0.02174407
v -0.02865098 -0.25714266 0.02563863
v -0.02871237 -0.25006291 0.02573838
v -0.02481675 -0.25005192 0.02733577
v -0.02473575 -0.24306902 0.02743169
v -0.02865575 -0.24304871 0.02576499
v -0.02053431 -0.24303903 0.02692821
v -0.02025603 -0.2361711 0.0270951
v -0.02452655 -0.23612593 0.02748092
v -0.01712879 -0.24280237 0.0243848
v -0.01678129 -0.23599951 0.02455039
v -0.01866355 -0.24249694 0.02042969
v -0.01851474 -0.23555666 0.02049266
v -0.02118741 -0.24233493 0.01696525
v -0.0211209 -0.2352293 0.01703148
v -0.02518123 -0.24257514 0.01832129
v -0.02521354 -0.23549281 0.01827358
v -0.02795497 -0.24284317 0.02162551
v -0.02804119 -0.23582821 0.02158381
v -0.0284702 -0.23605777 0.02577009
v -0.02818995 -0.22908197 0.0258332
v -0.02808695 -0.22883071 0.02168598
v -0.02419135 -0.22918406 0.02752206
v -0.02395022 -0.22218494 0.02752822
v -0.02798391 -0.22214554 0.02598015
v -0.01984789 -0.22923708 0.02744894
v -0.01962094 -0.2221709 0.02765107
v -0.01645191 -0.2290476 0.0248122
v -0.01613034 -0.22198588 0.02500256
v -0.01809161 -0.2286088 0.02069071
v -0.0177795 -0.22162056 0.02081338
v -0.0209337 -0.22822027 0.01718227
v -0.0206882 -0.22126539 0.01732977
v -0.02535227 -0.22846609 0.01817183
v -0.02533648 -0.22149634 0.01818812
v -0.02800922 -0.22186865 0.02177339
v -0.02808536 -0.21490011 0.02177301
v -0.0254004 -0.21451229 0.01816827
v -0.02806543 -0.21516876 0.02614408
v -0.02812478 -0.20805338 0.02616213
v -0.02820906 -0.20782231 0.02162778
v -0.02390466 -0.21510585 0.02753315
v -0.02385317 -0.20797709 0.02762689
v -0.01959903 -0.21506317 0.02746897
v -0.0194593 -0.20793943 0.02713351
v -0.01581303 -0.21499504 0.02510342
v -0.01541821 -0.20799781 0.02509393
v -0.01754607 -0.21461898 0.02089619
v -0.01723362 -0.20761514 0.02080519
v -0.02075413 -0.21426296 0.01766075
v -0.02081787 -0.20730089 0.01802223
v -0.02545711 -0.20747443 0.01791198
v -0.02543508 -0.20043214 0.01771703
v -0.02072804 -0.20030457 0.01811283
v -0.02828572 -0.20070244 0.02144377
v -0.02834293 -0.19355987 0.02127173
v -0.02544702 -0.19334069 0.01752614
v -0.02813104 -0.20089157 0.02615649
v -0.02803884 -0.19373555 0.02603023
v -0.02375443 -0.20087053 0.02768227
v -0.02366334 -0.19371736 0.02753992
v -0.0192645 -0.2008037 0.02688007
v -0.01916349 -0.19359681 0.02673185
v -0.01511664 -0.20075847 0.02491635
v -0.01480039 -0.19346301 0.02483557
v -0.01690878 -0.20048548 0.02067484
v -0.01684003 -0.19325438 0.02051278
v -0.02077672 -0.19319972 0.01817028
v -0.02085876 -0.18598783 0.01822849
v -0.01680587 -0.18601 0.0204471
v -0.02552178 -0.1861219 0.01727063
v -0.02551855 -0.17886469 0.01741536
v -0.02084215 -0.17872551 0.01817025
v -0.02833089 -0.18639261 0.02117457
v -0.02845827 -0.17921808 0.02116466
v -0.02796628 -0.18661033 0.02597251
v -0.02813368 -0.1794809 0.02606693
v -0.02366162 -0.18655063 0.02765549
v -0.02378698 -0.17934333 0.02779366
v -0.01912357 -0.18633665 0.02673147
v -0.0192322 -0.17904024 0.02653477
v -0.01451412 -0.18617521 0.0248969
v -0.01434044 -0.17887409 0.02486717
v -0.01666223 -0.17876062 0.02035199
v -0.01648499 -0.17149812 0.02026363
v -0.0143943 -0.17155299 0.02474348
v -0.02088056 -0.17148757 0.01819671
v -0.02083473 -0.16427629 0.01832627
v -0.01631102 -0.16428189 0.02019106
v -0.02560824 -0.17161722 0.01754948
v -0.02567598 -0.16429414 0.01755757
v -0.02872465 -0.17196812 0.02117642
v -0.02880047 -0.16461727 0.02129838
v -0.02828544 -0.17227663 0.02610767
v -0.02835552 -0.16494837 0.02625396
v -0.02396345 -0.17210335 0.02786862
v -0.02412396 -0.16480909 0.02783703
v -0.01940871 -0.17174156 0.02624047
v -0.01958101 -0.16446163 0.02612713
v -0.01466948 -0.16425316 0.02454125
v -0.01494236 -0.15699098 0.02424523
v -0.01963623 -0.15718096 0.02594219
v -0.01595341 -0.15705436 0.02006913
v -0.01544601 -0.14959219 0.01978507
v -0.0151823 -0.1495613 0.02392218
v -0.02049768 -0.15703207 0.01828712
v -0.02005445 -0.14970291 0.01816452
v -0.0254632 -0.15694466 0.01775501
v -0.02517317 -0.14973439 0.01792822
v -0.02869022 -0.15726061 0.02147814
v -0.02857426 -0.14999729 0.0215992
v -0.02827687 -0.15754713 0.02628972
v -0.02816189 -0.15021732 0.02630867
v -0.02408645 -0.15744668 0.02771382
v -0.02396542 -0.15013355 0.02761655
v -0.01960837 -0.1498509 0.02576684
v -0.01978865 -0.14247167 0.02578107
v -0.024058 -0.1428794 0.0275843
v -0.01553977 -0.14201924 0.0237731
v -0.01593815 -0.13456316 0.02362963
v -0.0200229 -0.13511902 0.02592439
v -0.01540534 -0.14203683 0.01951937
v -0.01551654 -0.13451956 0.01925706
v -0.02000393 -0.1423351 0.01800359
v -0.02003046 -0.13492505 0.01783482
v -0.02507609 -0.14249146 0.01793083
v -0.02499325 -0.13521868 0.01810049
v -0.02848258 -0.142754 0.02160133
v -0.02839154 -0.13550586 0.02167233
v -0.02817087 -0.14300615 0.02629714
v -0.02818835 -0.13566393 0.0263929
v -0.02424878 -0.13552605 0.02770094
v -0.02434698 -0.12810154 0.02792557
v -0.02816683 -0.12822305 0.02633282
v -0.02023361 -0.1277886 0.02612479
v -0.02025185 -0.12037601 0.02646791
v -0.02435284 -0.12062079 0.02828449
v -0.01655571 -0.12721625 0.02350359
v -0.01687818 -0.11993475 0.02362397
v -0.01594952 -0.12698896 0.01909735
v -0.01638839 -0.1197207 0.01912915
v -0.02029734 -0.12752396 0.01767638
v -0.02063413 -0.12012555 0.01759624
v -0.02507161 -0.12794708 0.0182028
v -0.02523873 -0.12058408 0.01824386
v -0.02841929 -0.12821384 0.0216717
v -0.02874084 -0.12087321 0.02155535
v -0.0280933 -0.12074335 0.02619172
v -0.02810688 -0.11323102 0.02608614
v -0.02913831 -0.11339133 0.02138871
v -0.02438182 -0.1131466 0.02861097
v -0.02431667 -0.10567677 0.02893608
v -0.02805603 -0.10563561 0.02602026
v -0.02021343 -0.11294775 0.02677337
v -0.0199816 -0.10558238 0.02706043
v -0.01696382 -0.1126598 0.02366908
v -0.01678756 -0.10541791 0.02371321
v -0.0166194 -0.11251098 0.01913542
v -0.0165516 -0.10532052 0.01909525
v -0.02085644 -0.11274749 0.01764891
v -0.0209339 -0.1053739 0.01758818
v -0.02551393 -0.11313844 0.01805419
v -0.02571115 -0.10555626 0.0177326
v -0.02929351 -0.10568773 0.0212153
v -0.02898221 -0.09785558 0.02131167
v -0.02533344 -0.09789965 0.01786464
v -0.02773791 -0.0980009 0.02618108
v -0.02722444 -0.09043696 0.0265753
v -0.02845699 -0.09019542 0.02139831
v -0.02391219 -0.09822141 0.0292242
v -0.02324985 -0.09088875 0.02965156
v -0.01948816 -0.09822258 0.02731914
v -0.0185945 -0.09091357 0.02770558
v -0.01646186 -0.09818348 0.02379406
v -0.01563467 -0.09086028 0.02376824
v -0.01620667 -0.09814471 0.01918516
v -0.01527783 -0.09081002 0.01918518
v -0.02052759 -0.0979827 0.01759353
v -0.01953868 -0.09050773 0.01729113
v -0.02459426 -0.090384 0.01760151
v -0.02438685 -0.08291882 0.01605142
v -0.01846438 -0.08279808 0.01661104
v -0.02810851 -0.08273412 0.02125413
v -0.02798986 -0.07547995 0.02128214
v -0.02403084 -0.07520098 0.01510156
v -0.02700754 -0.08314895 0.02723758
v -0.02702269 -0.07629132 0.02839106
v -0.02245907 -0.0838434 0.030587
v -0.02162005 -0.0771573 0.03232206
v -0.01740088 -0.08375218 0.02831754
v -0.01569091 -0.07672042 0.02997405
v -0.01413436 -0.08348157 0.02401023
v -0.01189223 -0.07602948 0.02502305
v -0.01377267 -0.08320589 0.0189574
v -0.01218684 -0.07518786 0.01924795
v -0.01718664 -0.07486462 0.01574721
v -0.01580556 -0.06666312 0.01476815
v -0.00979 -0.06676315 0.01971472
v -0.02355775 -0.06750683 0.01476819
v -0.02403278 -0.05962081 0.01471475
v -0.01592346 -0.0581123 0.01525823
v -0.0281972 -0.06862059 0.02150887
v -0.02900541 -0.06188771 0.02181425
v -0.02712594 -0.06983296 0.03010839
v -0.02750617 -0.06328422 0.03158021
v -0.02072283 -0.07063839 0.03525599
v -0.02038139 -0.06299664 0.03868325
v -0.01350538 -0.069535 0.03284733
v -0.00896957 -0.06827715 0.02694527
v -0.02182745 -0.05486332 0.0367605
v -0.01813373 -0.0507501 0.01893352
v 0.02252467 -0.06516762 0.020491
v 0.02537144 -0.06472666 0.00716479
v 0.02337313 -0.05387522 0.00462222
v 0.02242045 -0.05163487 0.02178657
v 0.02071916 -0.04427855 -0.0015219
v 0.02205374 -0.03952063 0.01284495
v 0.01522681 -0.03461824 0.02728191
v 0.00997943 -0.0450744 0.03146492
v 0.0163014 -0.02323451 -0.00972464
v 0.01132938 -0.02876539 -0.02190616
v 0.00637329 -0.02127076 -0.02199573
v 0.00474936 -0.01850827 -0.01005607
v 0.00425465 -0.02144253 0.00317734
v 0.01416377 -0.0218606 0.00471952
v -0.00207014 -0.02363645 -0.01555785
v -0.00877423 -0.02611814 -0.01197857
v -0.00607825 -0.01961141 -0.00685203
v 0.00071094 -0.02321168 -0.02033893
v 0.00459652 -0.36939341 -0.02221477
v 0.00495384 -0.36037886 -0.01767188
v 0.01253109 -0.36306375 -0.00857366
v 0.01199828 -0.37520695 -0.01172853
v 0.01121932 -0.3663207 0.00324972
v 0.01144896 -0.37669712 0.00273059
v 0.00660664 -0.3821992 -0.00751541
v 0.00585385 -0.38751841 -0.01378489
v 0.00849085 -0.38378602 -0.02003536
v 0.00282398 -0.37897068 -0.02701247
v 0.00662817 -0.38434485 0.00245825
v -0.00172662 -0.02737511 -0.03192228
v -0.00501421 -0.02710973 -0.02462405
v -0.00611307 -0.02785987 -0.01968316
v 0.00919157 -0.37844616 0.0146383
v 0.0079963 -0.36781767 0.01352507
v 0.00223923 -0.36714196 0.02050746
v 0.00490017 -0.37649226 0.02264488
v -0.00143128 -0.3799665 0.02238219
v 0.0037528 -0.3847262 0.01348348
v -0.00550392 -0.36861044 0.02035117
v 0.0045246 -0.39012498 -0.02244691
v 0.00378175 -0.39322099 -0.01795679
v -0.00177045 -0.39079642 -0.0185391
v -0.00096566 -0.38795635 -0.02582624
v -0.00016649 -0.38525909 -0.01409972
v -0.01233827 -0.02979815 -0.0182251
v -0.01457919 -0.03080895 -0.02466112
v -0.009194 -0.02260498 0.01967711
v -0.00118377 -0.02095831 0.01312155
v -0.00880256 -0.01961622 0.00993435
v -0.01212112 -0.02265177 0.01477316
v -0.01913745 -0.02353392 0.01335554
v -0.01924159 -0.0245695 0.02161239
v -0.0168006 -0.02061545 0.00646828
v -0.00250742 -0.03974429 0.03724626
v 0.00127094 -0.03047257 0.03794539
v -0.01494953 -0.02999778 0.03894053
v -0.01304081 -0.03729632 0.0392305
v -0.01910765 -0.03934065 0.03281944
v -0.01081671 -0.04634992 0.03277481
v -0.02512915 -0.03052253 0.03363497
v -0.00802774 -0.3880164 -0.01817117
v -0.00477253 -0.38408098 -0.0145136
v -0.00038338 -0.38146418 -0.00790012
v -0.0072364 -0.38175356 -0.00997438
v -0.01370891 -0.38476232 -0.01384267
v -0.01630268 -0.02486459 -0.00964513
v -0.02026989 -0.02601264 -0.00411229
v -0.0144927 -0.02059983 -0.00042136
v -0.01332908 -0.01892626 -0.00636531
v -0.00585114 -0.02030161 0.00180728
v -0.00015141 -0.35634792 0.01781183
v -0.01029895 -0.35753438 0.0158648
v -0.00100379 -0.34609735 0.0155403
v -0.00933324 -0.34555075 0.01438451
v -0.01740897 -0.36551553 0.01497679
v -0.01135729 -0.37165549 0.01641679
v -0.01472858 -0.34465772 0.00673181
v -0.01781843 -0.35423258 0.00718429
v -0.02130991 -0.36362517 0.00592204
v -0.00573654 -0.36899856 -0.02516508
v -0.00435433 -0.37667957 -0.02861059
v -0.00898868 -0.38398427 -0.02664518
v -0.01510959 -0.37503991 -0.01930043
v -0.017699 -0.02321529 0.03001117
v -0.01406829 -0.02261584 0.03659495
v -0.01577893 -0.3809779 0.01434537
v -0.00808203 -0.37936211 0.01686141
v -0.01645838 -0.37474629 0.01532596
v -0.02324852 -0.37315863 0.0144689
v -0.02374638 -0.38170516 0.0128628
v -0.02739641 -0.03071398 0.02190203
v -0.02694298 -0.03120268 0.00801347
v -0.02313006 -0.02806633 0.00121609
v -0.02886798 -0.03133568 -0.00731053
v -0.03340657 -0.03572745 -0.00673038
v -0.0155917 -0.36233777 -0.01557519
v -0.00573525 -0.36025763 -0.0200896
v -0.02171464 -0.37473744 -0.00741632
v -0.0201771 -0.36417544 -0.00500548
v -0.01870076 -0.38463202 -0.00597064
v -0.02429857 -0.02906287 -0.00850013
v -0.02028852 -0.02965503 -0.01445768
v -0.02471485 -0.03221162 -0.01864997
v -0.02481122 -0.37362018 0.00401014
v -0.02317855 -0.38478425 0.00412902
v -0.01343681 -0.3833138 0.00666664
v -0.00456764 -0.38154194 0.00968585
v -0.0104047 -0.38270515 -0.00195599
v -0.00193737 -0.38240004 0.00090683
v -0.01620783 -0.0329828 -0.03353373
v -0.03022379 -0.0356859 -0.0238422
v 0.00088375 -0.03610149 -0.03055135
v -0.01373929 -0.04202614 -0.03215965
v -0.02522762 -0.04326882 -0.02119122
v -0.01118391 -0.05009251 -0.02871028
v -0.02317073 -0.05243503 -0.02059445
v -0.03142832 -0.04487085 -0.006543
v -0.02743388 -0.05344703 -0.00616999
v -0.01852379 -0.06012763 -0.01738852
v -0.02141926 -0.05927684 -0.0042172
v -0.02093695 -0.04795898 0.00922189
v -0.02668722 -0.04144907 0.00882286
v -0.01619869 -0.05486503 0.01013451
v -0.01685176 -0.06572022 -0.00216466
v -0.01323293 -0.06325368 0.01086708
v -0.01269697 -0.0559612 0.0232813
v -0.01722667 -0.0477601 0.02232091
v -0.00872218 -0.06413251 0.02346287
v -0.01183175 -0.07243031 0.01158118
v -0.00565263 -0.07261919 0.02260654
v 0.00531413 -0.05992661 0.02670624
v -0.0018141 -0.05277669 0.03039708
v 0.00826994 -0.06905621 0.02375859
v -0.00340889 -0.08141959 0.02171098
v 0.00979356 -0.07865903 0.02220994
v 0.02305489 -0.07627378 0.02070442
v 0.01039601 -0.08854309 0.02147446
v 0.02266544 -0.08717027 0.02109871
v 0.02591776 -0.07596476 0.008592
v 0.02565387 -0.08700284 0.01002093
v 0.02178841 -0.09794612 0.02122962
v 0.02513444 -0.09775722 0.01134291
v 0.01933516 -0.08766255 0.00062843
v 0.01836373 -0.07716037 -0.00106978
v 0.01972851 -0.0981105 0.00223725
v 0.02452731 -0.10832997 0.01217694
v 0.01960541 -0.1083909 0.00352517
v 0.01231495 -0.09928898 -0.00476756
v 0.01176678 -0.08947256 -0.00698695
v 0.01265013 -0.10912859 -0.00328113
v 0.01920957 -0.1185263 0.00441226
v 0.01282554 -0.1189469 -0.00227485
v 0.00424866 -0.11028448 -0.00741184
v 0.00351642 -0.10095076 -0.00888502
v 0.00478732 -0.11970845 -0.00632389
v 0.01289236 -0.12877454 -0.00159758
v 0.00518141 -0.12923911 -0.00567714
v -0.00366601 -0.11999775 -0.00331573
v -0.00446894 -0.11062562 -0.00432219
v -0.00307395 -0.12949558 -0.00271257
v 0.00552403 -0.13885437 -0.00521033
v -0.00265266 -0.1390831 -0.00265239
v -0.00846197 -0.1296694 0.00439638
v -0.00911708 -0.11991397 0.00413209
v -0.00770955 -0.13944338 0.00445061
v -0.00223951 -0.14874797 -0.00282604
v -0.00681811 -0.14919257 0.00434807
v -0.00553595 -0.13912411 0.01298372
v -0.00612923 -0.12929383 0.01310019
v -0.0049872 -0.1489626 0.01274167
v -0.00601988 -0.15895706 0.00410133
v -0.00486615 -0.15882821 0.01251321
v 0.00151984 -0.1488176 0.01840772
v 0.00121177 -0.13884726 0.01877308
v 0.00172856 -0.1587753 0.01796079
v -0.00460479 -0.16869856 0.01210003
v 0.00190094 -0.16871014 0.01742579
v 0.0102443 -0.15887265 0.01824274
v 0.01009391 -0.14886296 0.0187344
v 0.01043867 -0.16884585 0.01773622
v 0.0020474 -0.17858307 0.01663733
v 0.0104389 -0.17877702 0.01724733
v 0.0180517 -0.16914243 0.01704384
v 0.01825588 -0.15916221 0.01785237
v 0.01774642 -0.17907768 0.01631542
v 0.0102503 -0.18866892 0.0168654
v 0.01733068 -0.18900245 0.01569146
v 0.02150319 -0.17895168 0.01063859
v 0.021979 -0.16900004 0.01115467
v 0.02103439 -0.18893249 0.01019368
v 0.01672882 -0.19887953 0.01518237
v 0.0203244 -0.19883913 0.00978673
v 0.01707419 -0.18842988 0.00439457
v 0.01761111 -0.17852314 0.0046424
v 0.0163733 -0.19832666 0.00412078
v 0.01941289 -0.20869784 0.00945542
v 0.01558282 -0.20817767 0.00387804
v 0.01146131 -0.19785878 -0.00084223
v 0.01209217 -0.18802197 -0.0007472
v 0.01072892 -0.20766264 -0.00100739
v 0.01476318 -0.21801542 0.00365303
v 0.00988105 -0.21746436 -0.00111766
v 0.00488063 -0.20719717 -0.00471516
v 0.00546857 -0.19747385 -0.00455047
v 0.00418111 -0.21695642 -0.00484326
v 0.00902907 -0.22726414 -0.00122929
v 0.003408 -0.2267247 -0.00500358
v -0.00185554 -0.21674831 -0.0045675
v -0.00125525 -0.20705324 -0.00428792
v -0.00252106 -0.22647163 -0.00480005
v 0.0025504 -0.23649681 -0.00497717
v -0.00330505 -0.2362195 -0.00494205
v -0.00457136 -0.22681855 0.00144848
v -0.00417778 -0.21713319 0.00176153
v -0.00506837 -0.2365123 0.00121922
v -0.00413813 -0.24595341 -0.00503752
v -0.00571891 -0.24622068 0.00097858
v -0.00546504 -0.23686804 0.00846418
v -0.00503257 -0.22726618 0.00900664
v -0.00595193 -0.24653076 0.00794804
v -0.00635581 -0.25595796 0.00069058
v -0.00643324 -0.25626191 0.00735536
v -0.0014524 -0.24697515 0.01384284
v -0.00053671 -0.23731963 0.01437141
v -0.00237648 -0.25669926 0.01325857
v -0.00717885 -0.26602224 0.0067365
v -0.00335342 -0.26641807 0.01287183
v 0.00495509 -0.25730777 0.01380925
v 0.00600866 -0.24755673 0.01443049
v 0.00399388 -0.26707694 0.01317084
v -0.00436834 -0.27613571 0.01258648
v 0.00296925 -0.27687582 0.01286945
v 0.00988778 -0.2676802 0.0114478
v 0.01096095 -0.25790232 0.01215208
v 0.00880938 -0.27756363 0.01095139
v 0.00197002 -0.28677556 0.01279695
v 0.00795244 -0.28751379 0.01067296
v 0.01217163 -0.27764463 0.00654893
v 0.01310967 -0.26778382 0.00714983
v 0.01156082 -0.2876555 0.00622237
v 0.00726651 -0.29751152 0.01061554
v 0.01115092 -0.29768389 0.00574898
v 0.00903201 -0.28700116 0.00079681
v 0.00942441 -0.27704749 0.00147836
v 0.00885519 -0.29696718 -0.0001271
v 0.01068425 -0.30763331 0.0052988
v 0.00895066 -0.30685189 -0.00118177
v 0.00330306 -0.29618481 -0.00462657
v 0.00371445 -0.28629851 -0.0035928
v 0.00320171 -0.30602077 -0.0058689
v 0.00907193 -0.31652534 -0.00219519
v 0.00324228 -0.31569302 -0.00711122
v -0.00334617 -0.30553824 -0.0082417
v -0.00292191 -0.29570067 -0.00715105
v -0.00367092 -0.3152312 -0.0093566
v 0.00325662 -0.3251777 -0.0083159
v -0.0039603 -0.32476217 -0.01060014
v -0.01032737 -0.3149839 -0.00836715
v -0.00959489 -0.30522072 -0.00756947
v -0.01104547 -0.32464528 -0.00926869
v -0.0042365 -0.33410549 -0.01193973
v -0.01162577 -0.33422142 -0.00990948
v -0.01314721 -0.32495776 -0.0020368
v -0.01226186 -0.31523529 -0.00177481
v -0.01417438 -0.33460107 -0.00215344
v -0.0124769 -0.34354049 -0.01071243
v -0.01563556 -0.34427893 -0.00231237
v -0.01267643 -0.33503228 0.00608086
v -0.01150236 -0.32538417 0.00576365
v -0.00845745 -0.33558729 0.01328941
v -0.007972 -0.32585987 0.01288272
v -0.00103358 -0.33623642 0.01398659
v -0.00076409 -0.32648942 0.01343367
v 0.00558605 -0.3367362 0.01047771
v 0.0058405 -0.32698894 0.01041178
v 0.00567797 -0.34670261 0.01097029
v 0.00631589 -0.35707441 0.01193726
v 0.00969728 -0.34627995 0.00373347
v 0.00970016 -0.33656499 0.00401188
v 0.01030922 -0.35621575 0.00362239
v 0.01110501 -0.35369557 -0.00646311
v 0.00994052 -0.34459126 -0.00505756
v 0.00444824 -0.35199091 -0.0142742
v 0.0037859 -0.34342933 -0.01162117
v -0.00510958 -0.3517516 -0.0164304
v -0.0045806 -0.3431426 -0.01373586
v -0.01386752 -0.35277316 -0.012248
v -0.01774521 -0.35415971 -0.00301681
v 0.00343167 -0.33442065 -0.00981662
v 0.00929463 -0.33539122 -0.00393996
v 0.00911081 -0.32605025 -0.00308991
v 0.00990424 -0.32694158 0.00433522
v 0.0102748 -0.3173396 0.00482469
v 0.0062058 -0.31732255 0.01058841
v 0.00669608 -0.30750525 0.01068235
v 0.00028797 -0.30683288 0.01324975
v -0.00034728 -0.31673613 0.01336437
v 0.00106738 -0.29678607 0.01293839
v -0.00613419 -0.29607564 0.01249157
v -0.00690843 -0.3061209 0.01266226
v -0.0053213 -0.28602248 0.01254118
v -0.00850349 -0.28579736 0.00597557
v -0.00923012 -0.29581636 0.00576537
v -0.00784696 -0.27586344 0.00630601
v -0.00827471 -0.27562788 -0.00018993
v -0.0094111 -0.2855179 -0.00067283
v -0.00726107 -0.26575586 0.00022088
v -0.0061008 -0.26554704 -0.00555339
v -0.00712897 -0.27543882 -0.0058719
v -0.00506003 -0.25572324 -0.00522293
v 0.00058043 -0.25613743 -0.00522181
v -0.00047612 -0.26601011 -0.00552319
v 0.00153448 -0.24627931 -0.00510166
v 0.00709961 -0.24685004 -0.00155915
v 0.00606323 -0.25668654 -0.00181359
v 0.00813934 -0.23705173 -0.0013502
v 0.01307536 -0.23770364 0.00319029
v 0.01200041 -0.24752286 0.00283413
v 0.01396302 -0.22786127 0.00344063
v 0.01760293 -0.22841443 0.00890857
v 0.01656496 -0.23834626 0.00863033
v 0.01851272 -0.21853997 0.00912955
v 0.01519958 -0.21852201 0.0142834
v 0.01438456 -0.22837383 0.01387627
v 0.01601593 -0.20871677 0.01471703
v 0.00922967 -0.20836842 0.01614494
v 0.00859876 -0.21819183 0.01579889
v 0.00979758 -0.1985328 0.01649072
v 0.00152349 -0.19831234 0.01593464
v 0.00112777 -0.20816982 0.01563446
v 0.00188863 -0.18844798 0.01626419
v -0.00456427 -0.18836483 0.01113024
v -0.00459773 -0.19819465 0.01062469
v -0.00452457 -0.17853692 0.01163962
v -0.00438344 -0.17842293 0.00329327
v -0.0040336 -0.18814461 0.00287882
v -0.0051503 -0.16870192 0.00375601
v -0.00141573 -0.16830726 -0.0035699
v -0.0010901 -0.17811945 -0.00386396
v -0.00184608 -0.15850149 -0.00320906
v 0.00594103 -0.15830377 -0.00467422
v 0.00604709 -0.16814968 -0.00449455
v 0.00574391 -0.14853944 -0.00488786
v 0.01303235 -0.14853424 -0.0009768
v 0.01294572 -0.15842676 -0.0007867
v 0.01299174 -0.13863942 -0.00120692
v 0.01871198 -0.13863307 0.00504282
v 0.01855307 -0.14865424 0.00509122
v 0.01886086 -0.12859683 0.00487648
v 0.02331877 -0.12885477 0.01258757
v 0.02293792 -0.1389275 0.01239827
v 0.02384909 -0.11867783 0.0125655
v 0.01973977 -0.11880159 0.02043975
v 0.01908341 -0.1289905 0.01989582
v 0.02068092 -0.10847224 0.02084693
v 0.01034696 -0.10854782 0.02056372
v 0.01013845 -0.11860864 0.02007431
v 0.01048851 -0.09853161 0.02097389
v -0.00073736 -0.09978524 0.02018124
v -1.681E-05 -0.10931541 0.0197198
v -0.00180597 -0.09047945 0.02089026
v -0.01019438 -0.09100285 0.01293387
v -0.00893669 -0.10038302 0.01310058
v -0.01106551 -0.08167882 0.01237026
v -0.01165147 -0.08195458 0.00084592
v -0.01059805 -0.09114586 0.00208563
v -0.01370505 -0.07337485 -0.00056194
v -0.01076775 -0.07540388 -0.01140261
v -0.00843989 -0.0837673 -0.00927306
v -0.01402563 -0.0674454 -0.01393978
v -0.00460365 -0.06588335 -0.01937823
v -0.00160622 -0.07424149 -0.01615859
v -0.00800312 -0.05789605 -0.02384147
v 0.00337544 -0.05310326 -0.02038069
v 0.00584573 -0.06173247 -0.01522096
v 0.00203192 -0.0447089 -0.02637808
v 0.01214556 -0.03908411 -0.01859139
v 0.01288846 -0.04859374 -0.01232962
v 0.01861018 -0.03465761 -0.00745425
v 0.01937386 -0.03039904 0.00690342
v 0.01377344 -0.0245783 0.02223361
v 0.00675208 -0.02046862 0.017276
v -0.00452829 -0.02057673 0.0265095
v 0.00034366 -0.02085316 0.03410657
v 0.01478782 -0.05763448 -0.00658386
v 0.01682648 -0.06700642 -0.00312124
v 0.00843584 -0.07043222 -0.01181088
v 0.01048266 -0.079739 -0.00930902
v 0.00073995 -0.08284112 -0.01326689
v 0.00241886 -0.09175678 -0.01080543
v -0.00678296 -0.09248534 -0.00738202
v -0.00549457 -0.10144766 -0.00569723
v -0.01003449 -0.10059308 0.00305936
v -0.00967514 -0.11020733 0.00368743
v -0.00783856 -0.1099109 0.01317867
v -0.00682224 -0.11953956 0.01311057
v 0.0005042 -0.1190314 0.01935665
v 0.00089632 -0.12889659 0.01904044
v 0.01001021 -0.12870476 0.01963055
v 0.00996308 -0.13880061 0.0192152
v 0.01859455 -0.13908695 0.0192531
v 0.01839556 -0.14914607 0.01859643
v 0.02263757 -0.14898646 0.01206981
v 0.02231322 -0.15902399 0.0116543
v 0.01832008 -0.15865099 0.00505132
v 0.01802006 -0.16860314 0.00487978
v 0.01277749 -0.1683196 -0.00068554
v 0.012514 -0.17818809 -0.00066281
v 0.00596914 -0.17799009 -0.00435825
v 0.0057777 -0.18775952 -0.00439897
v -0.00084065 -0.18783781 -0.0039287
v -0.00091178 -0.19742142 -0.00408012
v -0.00376212 -0.19782972 0.00253417
v -0.00375681 -0.20747592 0.00213133
v -0.00458334 -0.20794831 0.01006312
v -0.00475583 -0.21762368 0.00952252
v 0.0006837 -0.21795806 0.01523067
v 0.00015024 -0.22766958 0.01483406
v 0.00790007 -0.22799434 0.01541959
v 0.00703827 -0.23779382 0.01498218
v 0.01339304 -0.23827805 0.01345433
v 0.01222837 -0.24814659 0.01285107
v 0.01534484 -0.24823754 0.0082128
v 0.01412353 -0.25800854 0.00770399
v 0.0109305 -0.25733021 0.00239855
v 0.01014685 -0.26717404 0.00194687
v 0.00516057 -0.2665489 -0.0022506
v 0.00438159 -0.27640921 -0.0028528
v -0.00144686 -0.27591154 -0.00584094
v -0.0022851 -0.28580964 -0.00641048
v -0.00810857 -0.28536722 -0.00636079
v -0.0089245 -0.29528883 -0.00692602
v -0.01039727 -0.29547292 -0.00114405
v -0.0113086 -0.3054291 -0.00149451
v -0.00989589 -0.30581635 0.00568062
v -0.01078348 -0.31563708 0.00572822
v -0.00756019 -0.31604755 0.01276833
v -0.02374113 -0.04063868 0.02199053
f 1 2 3
f 1 3 4
f 3 5 6
f 3 6 4
f 6 7 1
f 6 1 4
f 8 9 10
f 8 10 11
f 12 13 8
f 12 8 11
f 10 14 12
f 10 12 11
f 15 16 17
f 15 17 18
f 17 19 20
f 17 20 18
f 20 21 15
f 20 15 18
f 22 23 17
f 22 17 16
f 15 24 22
f 15 22 16
f 25 26 27
f 25 27 28
f 27 19 29
f 27 29 28
f 29 30 25
f 29 25 28
f 31 32 12
f 31 12 14
f 10 33 31
f 10 31 14
f 20 34 35
f 20 35 21
f 35 24 15
f 35 15 21
f 13 7 9
f 13 9 8
f 36 37 35
f 36 35 34
f 27 26 36
f 27 36 34
f 20 19 27
f 20 27 34
f 38 39 37
f 38 37 36
f 26 40 38
f 26 38 36
f 41 42 38
f 41 38 40
f 43 44 41
f 43 41 40
f 26 25 43
f 26 43 40
f 45 46 44
f 45 44 43
f 25 30 45
f 25 45 43
f 47 48 46
f 47 46 45
f 30 49 47
f 30 47 45
f 50 51 47
f 50 47 49
f 23 22 50
f 23 50 49
f 30 29 23
f 30 23 49
f 52 53 51
f 52 51 50
f 22 24 52
f 22 52 50
f 37 39 53
f 37 53 52
f 24 35 37
f 24 37 52
f 54 55 51
f 54 51 53
f 39 56 54
f 39 54 53
f 57 58 54
f 57 54 56
f 42 59 57
f 42 57 56
f 39 38 42
f 39 42 56
f 60 61 57
f 60 57 59
f 62 63 60
f 62 60 59
f 42 41 62
f 42 62 59
f 64 65 63
f 64 63 62
f 41 44 64
f 41 64 62
f 66 67 65
f 66 65 64
f 44 46 66
f 44 66 64
f 68 69 67
f 68 67 66
f 46 48 68
f 46 68 66
f 70 71 69
f 70 69 68
f 48 55 70
f 48 70 68
f 58 72 71
f 58 71 70
f 55 54 58
f 55 58 70
f 73 74 71
f 73 71 72
f 61 75 73
f 61 73 72
f 58 57 61
f 58 61 72
f 76 77 73
f 76 73 75
f 78 79 76
f 78 76 75
f 61 60 78
f 61 78 75
f 80 81 79
f 80 79 78
f 60 63 80
f 60 80 78
f 82 83 81
f 82 81 80
f 63 65 82
f 63 82 80
f 84 85 83
f 84 83 82
f 65 67 84
f 65 84 82
f 86 87 85
f 86 85 84
f 67 69 86
f 67 86 84
f 74 88 87
f 74 87 86
f 69 71 74
f 69 74 86
f 89 90 87
f 89 87 88
f 77 91 89
f 77 89 88
f 74 73 77
f 74 77 88
f 92 93 89
f 92 89 91
f 94 95 92
f 94 92 91
f 77 76 94
f 77 94 91
f 96 97 95
f 96 95 94
f 76 79 96
f 76 96 94
f 98 99 97
f 98 97 96
f 79 81 98
f 79 98 96
f 100 101 99
f 100 99 98
f 81 83 100
f 81 100 98
f 102 103 101
f 102 101 100
f 83 85 102
f 83 102 100
f 90 104 103
f 90 103 102
f 85 87 90
f 85 90 102
f 105 106 103
f 105 103 104
f 93 107 105
f 93 105 104
f 90 89 93
f 90 93 104
f 108 109 105
f 108 105 107
f 110 111 108
f 110 108 107
f 93 92 110
f 93 110 107
f 112 113 111
f 112 111 110
f 92 95 112
f 92 112 110
f 114 115 113
f 114 113 112
f 95 97 114
f 95 114 112
f 116 117 115
f 116 115 114
f 97 99 116
f 97 116 114
f 118 119 117
f 118 117 116
f 99 101 118
f 99 118 116
f 106 120 119
f 106 119 118
f 101 103 106
f 101 106 118
f 121 122 119
f 121 119 120
f 109 123 121
f 109 121 120
f 106 105 109
f 106 109 120
f 124 125 121
f 124 121 123
f 126 127 124
f 126 124 123
f 109 108 126
f 109 126 123
f 128 129 127
f 128 127 126
f 108 111 128
f 108 128 126
f 130 131 129
f 130 129 128
f 111 113 130
f 111 130 128
f 132 133 131
f 132 131 130
f 113 115 132
f 113 132 130
f 134 135 133
f 134 133 132
f 115 117 134
f 115 134 132
f 122 136 135
f 122 135 134
f 117 119 122
f 117 122 134
f 137 138 135
f 137 135 136
f 125 139 137
f 125 137 136
f 122 121 125
f 122 125 136
f 140 141 137
f 140 137 139
f 142 143 140
f 142 140 139
f 125 124 142
f 125 142 139
f 144 145 143
f 144 143 142
f 124 127 144
f 124 144 142
f 146 147 145
f 146 145 144
f 127 129 146
f 127 146 144
f 148 149 147
f 148 147 146
f 129 131 148
f 129 148 146
f 150 151 149
f 150 149 148
f 131 133 150
f 131 150 148
f 138 152 151
f 138 151 150
f 133 135 138
f 133 138 150
f 153 154 151
f 153 151 152
f 141 155 153
f 141 153 152
f 138 137 141
f 138 141 152
f 156 157 153
f 156 153 155
f 158 159 156
f 158 156 155
f 141 140 158
f 141 158 155
f 160 161 159
f 160 159 158
f 140 143 160
f 140 160 158
f 162 163 161
f 162 161 160
f 143 145 162
f 143 162 160
f 164 165 163
f 164 163 162
f 145 147 164
f 145 164 162
f 166 167 165
f 166 165 164
f 147 149 166
f 147 166 164
f 154 168 167
f 154 167 166
f 149 151 154
f 149 154 166
f 169 170 167
f 169 167 168
f 157 171 169
f 157 169 168
f 154 153 157
f 154 157 168
f 172 173 169
f 172 169 171
f 174 175 172
f 174 172 171
f 157 156 174
f 157 174 171
f 176 177 175
f 176 175 174
f 156 159 176
f 156 176 174
f 178 179 177
f 178 177 176
f 159 161 178
f 159 178 176
f 180 181 179
f 180 179 178
f 161 163 180
f 161 180 178
f 182 183 181
f 182 181 180
f 163 165 182
f 163 182 180
f 170 184 183
f 170 183 182
f 165 167 170
f 165 170 182
f 185 186 183
f 185 183 184
f 173 187 185
f 173 185 184
f 170 169 173
f 170 173 184
f 188 189 185
f 188 185 187
f 190 191 188
f 190 188 187
f 173 172 190
f 173 190 187
f 192 193 191
f 192 191 190
f 172 175 192
f 172 192 190
f 194 195 193
f 194 193 192
f 175 177 194
f 175 194 192
f 196 197 195
f 196 195 194
f 177 179 196
f 177 196 194
f 198 199 197
f 198 197 196
f 179 181 198
f 179 198 196
f 186 200 199
f 186 199 198
f 181 183 186
f 181 186 198
f 201 202 199
f 201 199 200
f 189 203 201
f 189 201 200
f 186 185 189
f 186 189 200
f 204 205 201
f 204 201 203
f 206 207 204
f 206 204 203
f 189 188 206
f 189 206 203
f 208 209 207
f 208 207 206
f 188 191 208
f 188 208 206
f 210 211 209
f 210 209 208
f 191 193 210
f 191 210 208
f 212 213 211
f 212 211 210
f 193 195 212
f 193 212 210
f 214 215 213
f 214 213 212
f 195 197 214
f 195 214 212
f 202 216 215
f 202 215 214
f 197 199 202
f 197 202 214
f 217 218 215
f 217 215 216
f 205 219 217
f 205 217 216
f 202 201 205
f 202 205 216
f 220 221 217
f 220 217 219
f 222 223 220
f 222 220 219
f 205 204 222
f 205 222 219
f 224 225 223
f 224 223 222
f 204 207 224
f 204 224 222
f 226 227 225
f 226 225 224
f 207 209 226
f 207 226 224
f 228 229 227
f 228 227 226
f 209 211 228
f 209 228 226
f 230 231 229
f 230 229 228
f 211 213 230
f 211 230 228
f 218 232 231
f 218 231 230
f 213 215 218
f 213 218 230
f 233 234 231
f 233 231 232
f 221 235 233
f 221 233 232
f 218 217 221
f 218 221 232
f 236 237 233
f 236 233 235
f 238 239 236
f 238 236 235
f 221 220 238
f 221 238 235
f 240 241 239
f 240 239 238
f 220 223 240
f 220 240 238
f 242 243 241
f 242 241 240
f 223 225 242
f 223 242 240
f 244 245 243
f 244 243 242
f 225 227 244
f 225 244 242
f 246 247 245
f 246 245 244
f 227 229 246
f 227 246 244
f 234 248 247
f 234 247 246
f 229 231 234
f 229 234 246
f 249 250 247
f 249 247 248
f 237 251 249
f 237 249 248
f 234 233 237
f 234 237 248
f 252 253 249
f 252 249 251
f 254 255 252
f 254 252 251
f 237 236 254
f 237 254 251
f 256 257 255
f 256 255 254
f 236 239 256
f 236 256 254
f 258 259 257
f 258 257 256
f 239 241 258
f 239 258 256
f 260 261 259
f 260 259 258
f 241 243 260
f 241 260 258
f 262 263 261
f 262 261 260
f 243 245 262
f 243 262 260
f 250 264 263
f 250 263 262
f 245 247 250
f 245 250 262
f 265 266 263
f 265 263 264
f 253 267 265
f 253 265 264
f 250 249 253
f 250 253 264
f 268 269 265
f 268 265 267
f 270 271 268
f 270 268 267
f 253 252 270
f 253 270 267
f 272 273 271
f 272 271 270
f 252 255 272
f 252 272 270
f 274 275 273
f 274 273 272
f 255 257 274
f 255 274 272
f 276 277 275
f 276 275 274
f 257 259 276
f 257 276 274
f 278 279 277
f 278 277 276
f 259 261 278
f 259 278 276
f 266 280 279
f 266 279 278
f 261 263 266
f 261 266 278
f 281 282 279
f 281 279 280
f 269 283 281
f 269 281 280
f 266 265 269
f 266 269 280
f 284 285 281
f 284 281 283
f 286 287 284
f 286 284 283
f 269 268 286
f 269 286 283
f 288 289 287
f 288 287 286
f 268 271 288
f 268 288 286
f 290 291 289
f 290 289 288
f 271 273 290
f 271 290 288
f 292 293 291
f 292 291 290
f 273 275 292
f 273 292 290
f 294 295 293
f 294 293 292
f 275 277 294
f 275 294 292
f 282 296 295
f 282 295 294
f 277 279 282
f 277 282 294
f 297 298 295
f 297 295 296
f 285 299 297
f 285 297 296
f 282 281 285
f 282 285 296
f 300 301 297
f 300 297 299
f 302 303 300
f 302 300 299
f 285 284 302
f 285 302 299
f 304 305 303
f 304 303 302
f 284 287 304
f 284 304 302
f 306 307 305
f 306 305 304
f 287 289 306
f 287 306 304
f 308 309 307
f 308 307 306
f 289 291 308
f 289 308 306
f 310 311 309
f 310 309 308
f 291 293 310
f 291 310 308
f 298 312 311
f 298 311 310
f 293 295 298
f 293 298 310
f 313 314 311
f 313 311 312
f 301 315 313
f 301 313 312
f 298 297 301
f 298 301 312
f 316 317 313
f 316 313 315
f 318 319 316
f 318 316 315
f 301 300 318
f 301 318 315
f 320 321 319
f 320 319 318
f 300 303 320
f 300 320 318
f 322 323 321
f 322 321 320
f 303 305 322
f 303 322 320
f 324 325 323
f 324 323 322
f 305 307 324
f 305 324 322
f 326 327 325
f 326 325 324
f 307 309 326
f 307 326 324
f 314 328 327
f 314 327 326
f 309 311 314
f 309 314 326
f 329 330 327
f 329 327 328
f 317 331 329
f 317 329 328
f 314 313 317
f 314 317 328
f 332 333 329
f 332 329 331
f 334 335 332
f 334 332 331
f 317 316 334
f 317 334 331
f 336 337 335
f 336 335 334
f 316 319 336
f 316 336 334
f 338 339 337
f 338 337 336
f 319 321 338
f 319 338 336
f 340 341 339
f 340 339 338
f 321 323 340
f 321 340 338
f 342 343 341
f 342 341 340
f 323 325 342
f 323 342 340
f 330 344 343
f 330 343 342
f 325 327 330
f 325 330 342
f 345 346 343
f 345 343 344
f 333 347 345
f 333 345 344
f 330 329 333
f 330 333 344
f 348 349 345
f 348 345 347
f 350 351 348
f 350 348 347
f 333 332 350
f 333 350 347
f 352 353 351
f 352 351 350
f 332 335 352
f 332 352 350
f 354 355 353
f 354 353 352
f 335 337 354
f 335 354 352
f 356 357 355
f 356 355 354
f 337 339 356
f 337 356 354
f 358 359 357
f 358 357 356
f 339 341 358
f 339 358 356
f 346 360 359
f 346 359 358
f 341 343 346
f 341 346 358
f 361 362 359
f 361 359 360
f 349 363 361
f 349 361 360
f 346 345 349
f 346 349 360
f 364 365 361
f 364 361 363
f 366 367 364
f 366 364 363
f 349 348 366
f 349 366 363
f 368 369 367
f 368 367 366
f 348 351 368
f 348 368 366
f 370 371 369
f 370 369 368
f 351 353 370
f 351 370 368
f 372 373 371
f 372 371 370
f 353 355 372
f 353 372 370
f 374 375 373
f 374 373 372
f 355 357 374
f 355 374 372
f 362 376 375
f 362 375 374
f 357 359 362
f 357 362 374
f 377 378 375
f 377 375 376
f 365 379 377
f 365 377 376
f 362 361 365
f 362 365 376
f 380 381 377
f 380 377 379
f 382 383 380
f 382 380 379
f 365 364 382
f 365 382 379
f 384 385 383
f 384 383 382
f 364 367 384
f 364 384 382
f 386 387 385
f 386 385 384
f 367 369 386
f 367 386 384
f 388 389 387
f 388 387 386
f 369 371 388
f 369 388 386
f 390 391 389
f 390 389 388
f 371 373 390
f 371 390 388
f 378 392 391
f 378 391 390
f 373 375 378
f 373 378 390
f 393 394 391
f 393 391 392
f 381 395 393
f 381 393 392
f 378 377 381
f 378 381 392
f 396 397 393
f 396 393 395
f 398 399 396
f 398 396 395
f 381 380 398
f 381 398 395
f 400 401 399
f 400 399 398
f 380 383 400
f 380 400 398
f 402 403 401
f 402 401 400
f 383 385 402
f 383 402 400
f 404 2 403
f 404 403 402
f 385 387 404
f 385 404 402
f 405 3 2
f 405 2 404
f 387 389 405
f 387 405 404
f 394 5 3
f 394 3 405
f 389 391 394
f 389 394 405
f 406 32 401
f 406 401 403
f 2 1 406
f 2 406 403
f 13 12 32
f 13 32 406
f 1 7 13
f 1 13 406
f 32 31 399
f 32 399 401
f 31 33 396
f 31 396 399
f 33 407 397
f 33 397 396
f 9 7 6
f 9 6 407
f 33 10 9
f 33 9 407
f 6 5 397
f 6 397 407
f 5 394 393
f 5 393 397
f 48 47 51
f 48 51 55
f 19 17 23
f 19 23 29
f 408 409 410
f 408 410 411
f 410 412 413
f 410 413 411
f 413 414 415
f 413 415 411
f 416 417 418
f 416 418 419
f 420 421 416
f 420 416 419
f 422 423 424
f 422 424 419
f 418 425 422
f 418 422 419
f 426 427 428
f 426 428 429
f 428 430 431
f 428 431 429
f 432 433 434
f 432 434 429
f 434 435 426
f 434 426 429
f 431 436 432
f 431 432 429
f 418 437 438
f 418 438 425
f 438 439 422
f 438 422 425
f 440 441 442
f 440 442 443
f 444 445 440
f 444 440 443
f 442 446 444
f 442 444 443
f 447 434 433
f 447 433 448
f 449 450 447
f 449 447 448
f 433 451 449
f 433 449 448
f 450 435 434
f 450 434 447
f 452 423 422
f 452 422 439
f 438 453 452
f 438 452 439
f 454 455 456
f 454 456 457
f 458 459 454
f 458 454 457
f 456 460 458
f 456 458 457
f 461 462 463
f 461 463 464
f 465 466 461
f 465 461 464
f 463 467 465
f 463 465 464
f 468 449 451
f 468 451 469
f 451 470 471
f 451 471 469
f 471 472 468
f 471 468 469
f 473 474 475
f 473 475 476
f 475 477 424
f 475 424 476
f 424 423 473
f 424 473 476
f 446 442 478
f 446 478 479
f 478 480 481
f 478 481 479
f 482 483 446
f 482 446 479
f 481 484 485
f 481 485 479
f 485 486 482
f 485 482 479
f 487 426 435
f 487 435 488
f 489 490 487
f 489 487 488
f 435 450 489
f 435 489 488
f 491 467 463
f 491 463 492
f 493 494 483
f 493 483 495
f 496 497 493
f 496 493 495
f 483 482 496
f 483 496 495
f 498 459 458
f 498 458 499
f 458 460 500
f 458 500 499
f 500 501 502
f 500 502 499
f 503 504 487
f 503 487 490
f 505 506 503
f 505 503 490
f 472 507 505
f 472 505 490
f 489 468 472
f 489 472 490
f 501 500 474
f 501 474 508
f 509 510 501
f 509 501 508
f 496 511 512
f 496 512 497
f 512 513 493
f 512 493 497
f 514 494 493
f 514 493 513
f 515 516 514
f 515 514 513
f 512 507 515
f 512 515 513
f 471 470 516
f 471 516 515
f 507 472 471
f 507 471 515
f 436 445 514
f 436 514 516
f 470 432 436
f 470 436 516
f 445 444 494
f 445 494 514
f 505 507 512
f 505 512 511
f 486 506 505
f 486 505 511
f 496 482 486
f 496 486 511
f 452 453 510
f 452 510 509
f 473 423 452
f 473 452 509
f 508 474 473
f 508 473 509
f 453 517 518
f 453 518 510
f 518 502 501
f 518 501 510
f 437 519 520
f 437 520 517
f 453 438 437
f 453 437 517
f 520 521 518
f 520 518 517
f 520 522 523
f 520 523 521
f 524 502 518
f 524 518 521
f 523 525 524
f 523 524 521
f 523 526 527
f 523 527 525
f 528 529 524
f 528 524 525
f 527 530 528
f 527 528 525
f 527 531 532
f 527 532 530
f 533 534 528
f 533 528 530
f 532 535 533
f 532 533 530
f 532 536 537
f 532 537 535
f 538 539 533
f 538 533 535
f 537 540 538
f 537 538 535
f 537 541 542
f 537 542 540
f 408 411 538
f 408 538 540
f 542 543 408
f 542 408 540
f 542 544 545
f 542 545 543
f 546 409 408
f 546 408 543
f 545 547 546
f 545 546 543
f 545 548 549
f 545 549 547
f 550 551 546
f 550 546 547
f 549 552 550
f 549 550 547
f 549 553 554
f 549 554 552
f 555 556 550
f 555 550 552
f 554 557 555
f 554 555 552
f 554 558 559
f 554 559 557
f 560 561 555
f 560 555 557
f 559 562 560
f 559 560 557
f 559 563 564
f 559 564 562
f 565 566 560
f 565 560 562
f 564 567 565
f 564 565 562
f 564 568 569
f 564 569 567
f 570 571 565
f 570 565 567
f 569 572 570
f 569 570 567
f 569 573 574
f 569 574 572
f 575 576 570
f 575 570 572
f 574 577 575
f 574 575 572
f 574 578 579
f 574 579 577
f 580 581 575
f 580 575 577
f 579 582 580
f 579 580 577
f 579 583 584
f 579 584 582
f 585 586 580
f 585 580 582
f 584 587 585
f 584 585 582
f 584 588 589
f 584 589 587
f 590 591 585
f 590 585 587
f 589 592 590
f 589 590 587
f 589 593 594
f 589 594 592
f 595 596 590
f 595 590 592
f 594 597 595
f 594 595 592
f 594 598 599
f 594 599 597
f 600 601 595
f 600 595 597
f 599 602 600
f 599 600 597
f 599 603 604
f 599 604 602
f 605 606 600
f 605 600 602
f 604 607 605
f 604 605 602
f 604 608 609
f 604 609 607
f 610 611 605
f 610 605 607
f 609 612 610
f 609 610 607
f 609 613 614
f 609 614 612
f 615 616 610
f 615 610 612
f 614 617 615
f 614 615 612
f 614 618 619
f 614 619 617
f 620 621 615
f 620 615 617
f 619 622 620
f 619 620 617
f 619 623 624
f 619 624 622
f 625 626 620
f 625 620 622
f 624 627 625
f 624 625 622
f 624 628 629
f 624 629 627
f 630 631 625
f 630 625 627
f 629 632 630
f 629 630 627
f 629 633 634
f 629 634 632
f 635 636 630
f 635 630 632
f 634 637 635
f 634 635 632
f 634 638 639
f 634 639 637
f 640 641 635
f 640 635 637
f 639 642 640
f 639 640 637
f 639 643 644
f 639 644 642
f 645 646 640
f 645 640 642
f 644 647 645
f 644 645 642
f 644 648 649
f 644 649 647
f 650 651 645
f 650 645 647
f 649 652 650
f 649 650 647
f 649 653 654
f 649 654 652
f 655 656 650
f 655 650 652
f 654 657 655
f 654 655 652
f 654 658 659
f 654 659 657
f 660 661 655
f 660 655 657
f 659 662 660
f 659 660 657
f 659 663 664
f 659 664 662
f 665 666 660
f 665 660 662
f 664 667 665
f 664 665 662
f 664 668 669
f 664 669 667
f 670 671 665
f 670 665 667
f 669 672 670
f 669 670 667
f 669 673 674
f 669 674 672
f 675 676 670
f 675 670 672
f 674 484 675
f 674 675 672
f 677 678 676
f 677 676 675
f 484 481 677
f 484 677 675
f 679 680 678
f 679 678 677
f 481 480 679
f 481 679 677
f 681 682 680
f 681 680 679
f 480 683 681
f 480 681 679
f 480 478 684
f 480 684 683
f 685 686 681
f 685 681 683
f 684 687 685
f 684 685 683
f 684 441 430
f 684 430 687
f 688 689 685
f 688 685 687
f 430 428 688
f 430 688 687
f 690 691 689
f 690 689 688
f 428 427 690
f 428 690 688
f 692 693 691
f 692 691 690
f 427 504 692
f 427 692 690
f 694 673 693
f 694 693 692
f 504 503 694
f 504 694 692
f 695 674 673
f 695 673 694
f 503 506 695
f 503 695 694
f 485 484 674
f 485 674 695
f 506 486 485
f 506 485 695
f 668 696 691
f 668 691 693
f 673 669 668
f 673 668 693
f 697 689 691
f 697 691 696
f 663 698 697
f 663 697 696
f 668 664 663
f 668 663 696
f 699 686 697
f 699 697 698
f 658 700 699
f 658 699 698
f 663 659 658
f 663 658 698
f 701 682 699
f 701 699 700
f 653 702 701
f 653 701 700
f 658 654 653
f 658 653 700
f 703 704 701
f 703 701 702
f 648 705 703
f 648 703 702
f 653 649 648
f 653 648 702
f 706 707 703
f 706 703 705
f 643 708 706
f 643 706 705
f 648 644 643
f 648 643 705
f 709 710 706
f 709 706 708
f 638 711 709
f 638 709 708
f 643 639 638
f 643 638 708
f 712 713 709
f 712 709 711
f 633 714 712
f 633 712 711
f 638 634 633
f 638 633 711
f 715 716 712
f 715 712 714
f 628 717 715
f 628 715 714
f 633 629 628
f 633 628 714
f 718 719 715
f 718 715 717
f 623 720 718
f 623 718 717
f 628 624 623
f 628 623 717
f 721 722 718
f 721 718 720
f 618 723 721
f 618 721 720
f 623 619 618
f 623 618 720
f 724 725 721
f 724 721 723
f 613 726 724
f 613 724 723
f 618 614 613
f 618 613 723
f 727 728 724
f 727 724 726
f 608 729 727
f 608 727 726
f 613 609 608
f 613 608 726
f 730 731 727
f 730 727 729
f 603 732 730
f 603 730 729
f 608 604 603
f 608 603 729
f 733 734 730
f 733 730 732
f 598 735 733
f 598 733 732
f 603 599 598
f 603 598 732
f 736 737 733
f 736 733 735
f 593 738 736
f 593 736 735
f 598 594 593
f 598 593 735
f 739 740 736
f 739 736 738
f 588 741 739
f 588 739 738
f 593 589 588
f 593 588 738
f 742 743 739
f 742 739 741
f 583 744 742
f 583 742 741
f 588 584 583
f 588 583 741
f 745 746 742
f 745 742 744
f 578 747 745
f 578 745 744
f 583 579 578
f 583 578 744
f 748 749 745
f 748 745 747
f 573 750 748
f 573 748 747
f 578 574 573
f 578 573 747
f 751 752 748
f 751 748 750
f 568 753 751
f 568 751 750
f 573 569 568
f 573 568 750
f 754 755 751
f 754 751 753
f 563 756 754
f 563 754 753
f 568 564 563
f 568 563 753
f 757 758 754
f 757 754 756
f 558 759 757
f 558 757 756
f 563 559 558
f 563 558 756
f 760 761 757
f 760 757 759
f 553 762 760
f 553 760 759
f 558 554 553
f 558 553 759
f 763 764 760
f 763 760 762
f 548 765 763
f 548 763 762
f 553 549 548
f 553 548 762
f 766 767 763
f 766 763 765
f 544 768 766
f 544 766 765
f 548 545 544
f 548 544 765
f 769 770 766
f 769 766 768
f 541 771 769
f 541 769 768
f 544 542 541
f 544 541 768
f 772 773 769
f 772 769 771
f 536 774 772
f 536 772 771
f 541 537 536
f 541 536 771
f 775 776 772
f 775 772 774
f 531 777 775
f 531 775 774
f 536 532 531
f 536 531 774
f 778 779 775
f 778 775 777
f 526 780 778
f 526 778 777
f 531 527 526
f 531 526 777
f 781 782 778
f 781 778 780
f 522 783 781
f 522 781 780
f 526 523 522
f 526 522 780
f 784 785 781
f 784 781 783
f 519 417 784
f 519 784 783
f 522 520 519
f 522 519 783
f 786 412 785
f 786 785 784
f 417 416 786
f 417 786 784
f 787 413 412
f 787 412 786
f 416 421 787
f 416 787 786
f 788 414 413
f 788 413 787
f 421 789 788
f 421 788 787
f 790 791 788
f 790 788 789
f 455 454 790
f 455 790 789
f 421 420 455
f 421 455 789
f 491 492 791
f 491 791 790
f 454 459 491
f 454 491 790
f 462 414 788
f 462 788 791
f 492 463 462
f 492 462 791
f 412 410 792
f 412 792 785
f 792 782 781
f 792 781 785
f 410 409 793
f 410 793 792
f 793 794 782
f 793 782 792
f 793 551 795
f 793 795 794
f 779 778 782
f 779 782 794
f 795 796 779
f 795 779 794
f 795 556 797
f 795 797 796
f 776 775 779
f 776 779 796
f 797 798 776
f 797 776 796
f 797 561 799
f 797 799 798
f 773 772 776
f 773 776 798
f 799 800 773
f 799 773 798
f 799 566 801
f 799 801 800
f 770 769 773
f 770 773 800
f 801 802 770
f 801 770 800
f 801 571 803
f 801 803 802
f 767 766 770
f 767 770 802
f 803 804 767
f 803 767 802
f 803 576 805
f 803 805 804
f 764 763 767
f 764 767 804
f 805 806 764
f 805 764 804
f 805 581 807
f 805 807 806
f 761 760 764
f 761 764 806
f 807 808 761
f 807 761 806
f 807 586 809
f 807 809 808
f 758 757 761
f 758 761 808
f 809 810 758
f 809 758 808
f 809 591 811
f 809 811 810
f 755 754 758
f 755 758 810
f 811 812 755
f 811 755 810
f 811 596 813
f 811 813 812
f 752 751 755
f 752 755 812
f 813 814 752
f 813 752 812
f 813 601 815
f 813 815 814
f 749 748 752
f 749 752 814
f 815 816 749
f 815 749 814
f 815 606 817
f 815 817 816
f 746 745 749
f 746 749 816
f 817 818 746
f 817 746 816
f 817 611 819
f 817 819 818
f 743 742 746
f 743 746 818
f 819 820 743
f 819 743 818
f 819 616 821
f 819 821 820
f 740 739 743
f 740 743 820
f 821 822 740
f 821 740 820
f 821 621 823
f 821 823 822
f 737 736 740
f 737 740 822
f 823 824 737
f 823 737 822
f 823 626 825
f 823 825 824
f 734 733 737
f 734 737 824
f 825 826 734
f 825 734 824
f 825 631 827
f 825 827 826
f 731 730 734
f 731 734 826
f 827 828 731
f 827 731 826
f 827 636 829
f 827 829 828
f 728 727 731
f 728 731 828
f 829 830 728
f 829 728 828
f 829 641 831
f 829 831 830
f 725 724 728
f 725 728 830
f 831 832 725
f 831 725 830
f 831 646 833
f 831 833 832
f 722 721 725
f 722 725 832
f 833 834 722
f 833 722 832
f 833 651 835
f 833 835 834
f 719 718 722
f 719 722 834
f 835 836 719
f 835 719 834
f 835 656 837
f 835 837 836
f 716 715 719
f 716 719 836
f 837 838 716
f 837 716 836
f 837 661 839
f 837 839 838
f 713 712 716
f 713 716 838
f 839 840 713
f 839 713 838
f 839 666 841
f 839 841 840
f 710 709 713
f 710 713 840
f 841 842 710
f 841 710 840
f 841 671 843
f 841 843 842
f 707 706 710
f 707 710 842
f 843 844 707
f 843 707 842
f 843 676 678
f 843 678 844
f 704 703 707
f 704 707 844
f 678 680 704
f 678 704 844
f 671 670 676
f 671 676 843
f 666 665 671
f 666 671 841
f 661 660 666
f 661 666 839
f 656 655 661
f 656 661 837
f 651 650 656
f 651 656 835
f 646 645 651
f 646 651 833
f 641 640 646
f 641 646 831
f 636 635 641
f 636 641 829
f 631 630 636
f 631 636 827
f 626 625 631
f 626 631 825
f 621 620 626
f 621 626 823
f 616 615 621
f 616 621 821
f 611 610 616
f 611 616 819
f 606 605 611
f 606 611 817
f 601 600 606
f 601 606 815
f 596 595 601
f 596 601 813
f 591 590 596
f 591 596 811
f 586 585 591
f 586 591 809
f 581 580 586
f 581 586 807
f 576 575 581
f 576 581 805
f 571 570 576
f 571 576 803
f 566 565 571
f 566 571 801
f 561 560 566
f 561 566 799
f 556 555 561
f 556 561 797
f 551 550 556
f 551 556 795
f 409 546 551
f 409 551 793
f 680 682 701
f 680 701 704
f 682 681 686
f 682 686 699
f 686 685 689
f 686 689 697
f 478 442 441
f 478 441 684
f 411 415 539
f 411 539 538
f 466 534 533
f 466 533 539
f 415 461 466
f 415 466 539
f 845 529 528
f 845 528 534
f 466 465 845
f 466 845 534
f 498 499 529
f 498 529 845
f 465 467 498
f 465 498 845
f 499 502 524
f 499 524 529
f 437 418 417
f 437 417 519
f 427 426 487
f 427 487 504
f 460 475 474
f 460 474 500
f 467 491 459
f 467 459 498
f 444 446 483
f 444 483 494
f 450 449 468
f 450 468 489
f 420 419 424
f 420 424 477
f 456 455 420
f 456 420 477
f 475 460 456
f 475 456 477
f 451 433 432
f 451 432 470
f 415 414 462
f 415 462 461
f 436 431 440
f 436 440 445
f 431 430 441
f 431 441 440
# Vertices: 845, normals: 0, texture coordinates: 0, faces: 1682

