# File generated by ImageToStl.com - Free Image and 3D model conversion tools

o obj1
v 0.01814827 -0.23477027 -0.01760027
v 0.02791372 -0.23499106 -0.01734712
v 0.02858489 -0.22843707 -0.016106
v 0.01606648 -0.22942789 -0.01517309
v 0.01857189 -0.23360138 -0.02411357
v 0.02725779 -0.23495978 -0.02366367
v 0.01429281 -0.23021901 -0.0248964
v 0.03915263 -0.23596819 -0.02019102
v 0.03511762 -0.23683776 -0.02383281
v 0.04075305 -0.22663732 -0.01833681
v 0.03929317 -0.23970312 -0.02401786
v 0.04214012 -0.2398558 -0.02284778
v 0.03561446 -0.2376689 -0.02815408
v 0.03981928 -0.24045266 -0.02691372
v 0.04318265 -0.23996776 -0.02741354
v 0.0404312 -0.23471016 -0.03002195
v 0.04045849 -0.22548723 -0.02920859
v 0.02942998 -0.2328483 -0.03586003
v 0.03073227 -0.22487547 -0.03676766
v 0.02752575 -0.23655413 -0.02985929
v 0.01990977 -0.23562734 -0.03011421
v 0.0184484 -0.23137797 -0.03359084
v -0.00176506 0.00144659 0.00079035
v -0.00452159 0.00161519 0.00411492
v 0.00208744 0.00185858 0.00583698
v 0.00189881 0.00057881 0.00010749
v -0.00281037 0.00223579 -0.00240829
v -0.00723069 0.00254757 -0.00351945
v 0.00080765 0.00163219 -0.00464277
v 0.00730953 0.00204854 0.00396282
v 0.01078727 -0.00239907 0.00591901
v 0.01265787 -0.0007229 -0.00280171
v 0.00678999 0.00143725 -0.00120013
v 0.0025729 -0.00358828 0.01027586
v -0.00108679 0.00195917 -0.00972425
v 0.00521016 0.00201917 -0.00532101
v 0.00756557 0.00086743 -0.00940026
v 0.01021712 -0.00760992 -0.00252906
v 0.00626512 -0.0062623 -0.008415
v -0.00151531 -0.00518845 -0.00937528
v -0.00787768 -0.00459373 -0.00331752
v 0.00523518 -0.0135858 -0.00691587
v -0.00116691 -0.01259482 -0.00774556
v -0.00597192 -0.01199812 -0.0028768
v -0.00402556 -0.01155256 0.00417067
v -0.00634739 -0.00437739 0.00629869
v -0.00105211 -0.0205412 -0.00781293
v -0.0055791 -0.01988378 -0.00297151
v -0.0030482 -0.01887778 0.00335836
v 0.00254321 -0.01719044 0.00619099
v 0.00236272 -0.01021647 0.00672357
v -0.00586143 -0.02800233 -0.0028555
v -0.00260176 -0.02687287 0.00400812
v 0.00306613 -0.02492536 0.00813521
v 0.0086916 -0.02361564 0.00526546
v 0.00805056 -0.01588053 0.00404532
v -0.00193803 -0.03533676 0.00435461
v 0.00379985 -0.03390298 0.01019178
v 0.0095534 -0.03214055 0.00619819
v 0.01069261 -0.03016878 -0.00173168
v 0.00971659 -0.02250593 -0.00161531
v 0.00485131 -0.04318373 0.00808184
v 0.0102108 -0.04047883 0.00454995
v 0.01174555 -0.03754587 -0.00289198
v 0.00814523 -0.03572769 -0.00960323
v 0.00691358 -0.02854145 -0.00834324
v 0.01134339 -0.04811678 0.00185295
v 0.01304262 -0.04486534 -0.00478855
v 0.00942396 -0.04310154 -0.01093379
v 0.00199297 -0.04356988 -0.01006886
v 0.00036986 -0.03599177 -0.00890074
v 0.01441336 -0.05240581 -0.00688313
v 0.01073259 -0.05076687 -0.01241243
v 0.00369667 -0.05121058 -0.01126157
v -0.00099466 -0.05188815 -0.0062255
v -0.00320687 -0.04434966 -0.00451965
v 0.01178004 -0.05852132 -0.01399552
v 0.00500766 -0.05887095 -0.01239982
v 0.00037566 -0.05940741 -0.00795261
v 0.00230214 -0.05949253 -0.00219138
v 0.00105947 -0.05178832 0.00026958
v 0.00602659 -0.06654774 -0.01390368
v 0.00140631 -0.06703967 -0.00979355
v 0.00337143 -0.06710303 -0.00456863
v 0.00879226 -0.06608431 -0.00159066
v 0.00764277 -0.05858043 0.00137714
v 0.00236526 -0.07478283 -0.01169344
v 0.00432801 -0.07479164 -0.006654
v 0.00984021 -0.07357147 -0.00443998
v 0.01567597 -0.07097816 -0.00525018
v 0.01426641 -0.06331828 -0.00297418
v 0.00555404 -0.08242171 -0.00881506
v 0.01100338 -0.0809542 -0.0071605
v 0.01691366 -0.07850915 -0.00765434
v 0.01842822 -0.07536413 -0.01330621
v 0.0171512 -0.06773183 -0.01117215
v 0.01238314 -0.08826894 -0.00958723
v 0.01814006 -0.08593692 -0.00988457
v 0.0197483 -0.08303802 -0.01524986
v 0.01477386 -0.08174043 -0.01916559
v 0.0135663 -0.07400944 -0.01731092
v 0.01947224 -0.09341615 -0.01181891
v 0.02107551 -0.09080078 -0.01701737
v 0.01615426 -0.08957282 -0.02089518
v 0.00990431 -0.08990145 -0.01877304
v 0.00846027 -0.08209641 -0.01708692
v 0.02238446 -0.09871157 -0.01861357
v 0.01751302 -0.09745674 -0.02250361
v 0.01136723 -0.0977015 -0.02039727
v 0.00719766 -0.09814603 -0.01631069
v 0.00533135 -0.09047388 -0.01501276
v 0.01869974 -0.10532806 -0.02405762
v 0.0129913 -0.10548858 -0.021724
v 0.00892715 -0.10579843 -0.01756064
v 0.00995393 -0.10518975 -0.01368884
v 0.00855042 -0.09759954 -0.01221032
v 0.01444461 -0.11330765 -0.02309678
v 0.01035814 -0.11352176 -0.01891933
v 0.01119217 -0.11287411 -0.01504376
v 0.01653783 -0.11104945 -0.01385415
v 0.01528959 -0.10333454 -0.01265868
v 0.0115398 -0.12127441 -0.02029963
v 0.0122937 -0.12061929 -0.01632375
v 0.01761941 -0.11888609 -0.01480949
v 0.02326779 -0.11681127 -0.01588194
v 0.02220981 -0.1089323 -0.01457882
v 0.01331965 -0.12838544 -0.01742259
v 0.0185367 -0.12675786 -0.01564094
v 0.02417418 -0.12465222 -0.01727461
v 0.02464048 -0.12245506 -0.02280251
v 0.02371162 -0.11463878 -0.02139348
v 0.0194286 -0.13461001 -0.01650438
v 0.0250104 -0.13245578 -0.01859895
v 0.02598697 -0.13031878 -0.02416233
v 0.02208015 -0.12924714 -0.0281298
v 0.02098797 -0.12112598 -0.02714489
v 0.02574642 -0.14033666 -0.01964606
v 0.02706179 -0.13837628 -0.02509996
v 0.02298027 -0.1374152 -0.02853131
v 0.01789249 -0.13704741 -0.02617393
v 0.01703493 -0.12910818 -0.02526367
v 0.02790425 -0.14644395 -0.02575851
v 0.02370603 -0.14548983 -0.02888541
v 0.01850624 -0.14496793 -0.02695989
v 0.01433289 -0.14461625 -0.02346964
v 0.0136284 -0.13680196 -0.02264352
v 0.02433753 -0.15348105 -0.02940927
v 0.01902234 -0.15289403 -0.02761604
v 0.01490594 -0.15248665 -0.02412526
v 0.01587773 -0.1517621 -0.01989544
v 0.01497252 -0.14395362 -0.01910875
v 0.01942217 -0.16084471 -0.02830961
v 0.01534627 -0.16037412 -0.02463514
v 0.01669531 -0.15957496 -0.020526
v 0.02187006 -0.15812184 -0.01898794
v 0.0210696 -0.15027295 -0.01826624
v 0.01571688 -0.16830853 -0.02509644
v 0.01740636 -0.16744983 -0.02098331
v 0.02265289 -0.1659728 -0.01974789
v 0.02785351 -0.1640723 -0.02163972
v 0.02713943 -0.15615936 -0.02107196
v 0.0180044 -0.17536394 -0.0213281
v 0.0234936 -0.17384604 -0.02020675
v 0.02877596 -0.17191294 -0.02199527
v 0.03031152 -0.17031863 -0.02716133
v 0.02952919 -0.16238603 -0.02678964
v 0.02440408 -0.18171957 -0.02067458
v 0.03008036 -0.17971443 -0.02209737
v 0.03130505 -0.17821978 -0.02750098
v 0.02658863 -0.17738998 -0.03139127
v 0.02575198 -0.16939951 -0.03071378
v 0.03135493 -0.18754996 -0.02226652
v 0.03242548 -0.18616264 -0.02783345
v 0.02741402 -0.18540774 -0.03194416
v 0.02092883 -0.18486673 -0.02989453
v 0.02046172 -0.17686254 -0.02940323
v 0.03348257 -0.19413088 -0.02810365
v 0.02809416 -0.19339626 -0.03249481
v 0.02113111 -0.19285195 -0.03064327
v 0.01633454 -0.19225644 -0.02611528
v 0.01602104 -0.18428037 -0.02589439
v 0.02877355 -0.20135307 -0.0332992
v 0.02146555 -0.20090424 -0.03113879
v 0.01634745 -0.20018393 -0.0263441
v 0.01952193 -0.19919063 -0.02142641
v 0.01905315 -0.19124067 -0.02151431
v 0.02164675 -0.20902239 -0.03142417
v 0.01600812 -0.20815405 -0.02652255
v 0.0196473 -0.20717497 -0.02121779
v 0.0270934 -0.20553668 -0.02052803
v 0.02622414 -0.19751693 -0.020832
v 0.01542218 -0.21612227 -0.02653415
v 0.01934671 -0.21506989 -0.02070088
v 0.02787411 -0.21356206 -0.02010437
v 0.03588431 -0.21080729 -0.0216315
v 0.03411697 -0.20317957 -0.02199171
v 0.01835151 -0.22237168 -0.01891897
v 0.02845024 -0.22136497 -0.01914338
v 0.03838539 -0.21833089 -0.0203641
v 0.0382289 -0.21756658 -0.02851274
v 0.03606372 -0.20981999 -0.0285165
v 0.02964586 -0.20932768 -0.03423698
v 0.03459502 -0.20200881 -0.02835656
v 0.03041835 -0.21716538 -0.03520001
v 0.02127732 -0.21700251 -0.03197867
v 0.02006556 -0.22437695 -0.03316665
v 0.01483378 -0.22368912 -0.02605216
v 0.03264579 -0.19539492 -0.02228868
v 0.02529334 -0.18959105 -0.02094947
v 0.01867561 -0.18329024 -0.02181675
v 0.01584305 -0.17627807 -0.02554851
v 0.01994105 -0.16884917 -0.02886393
v 0.02494968 -0.1614341 -0.02992879
v 0.02874199 -0.154438 -0.02632592
v 0.02636767 -0.14823867 -0.02049999
v 0.02027604 -0.14243609 -0.01741996
v 0.01416025 -0.13616352 -0.01833419
v 0.01269481 -0.12903231 -0.02161608
v 0.01586142 -0.12117884 -0.0242305
v 0.01982477 -0.11318729 -0.0256273
v 0.02312656 -0.10671589 -0.02002376
v 0.02095818 -0.10110308 -0.01325929
v 0.01388454 -0.09574815 -0.01122806
v 0.00704366 -0.09002643 -0.01073672
v 0.00368439 -0.08264455 -0.01340528
v 0.00714025 -0.07429301 -0.01548574
v 0.01262918 -0.06630398 -0.01553857
v 0.01577385 -0.0600621 -0.00902204
v 0.01284769 -0.05567487 -0.00061607
v 0.00625685 -0.0510193 0.0043478
v -0.00053168 -0.04378853 0.0027823
v -0.00543168 -0.03637913 -0.00327102
v -0.00058785 -0.02840517 -0.00800575
v 0.00574868 -0.02120672 -0.00724248
v 0.00908401 -0.014773 -0.00191897
v 0.00841092 -0.00913044 0.00389202
f 1 2 3
f 1 3 4
f 1 5 6
f 1 6 2
f 1 4 7
f 1 7 5
f 8 2 6
f 8 6 9
f 8 10 3
f 8 3 2
f 8 9 11
f 8 11 12
f 11 9 13
f 11 13 14
f 12 15 16
f 12 16 8
f 15 14 13
f 15 13 16
f 16 17 10
f 16 10 8
f 16 18 19
f 16 19 17
f 16 13 20
f 16 20 18
f 21 20 6
f 21 6 5
f 21 5 7
f 21 7 22
f 21 22 18
f 21 18 20
f 23 24 25
f 23 25 26
f 23 27 28
f 23 28 24
f 23 26 29
f 23 29 27
f 30 31 32
f 30 32 33
f 30 25 34
f 30 34 31
f 30 33 26
f 30 26 25
f 27 29 35
f 27 35 28
f 36 33 32
f 36 32 37
f 36 29 26
f 36 26 33
f 36 37 35
f 36 35 29
f 37 32 38
f 37 38 39
f 37 39 40
f 37 40 35
f 40 41 28
f 40 28 35
f 40 39 42
f 40 42 43
f 40 43 44
f 40 44 41
f 44 45 46
f 44 46 41
f 44 43 47
f 44 47 48
f 44 48 49
f 44 49 45
f 49 50 51
f 49 51 45
f 49 48 52
f 49 52 53
f 49 53 54
f 49 54 50
f 54 55 56
f 54 56 50
f 54 53 57
f 54 57 58
f 54 58 59
f 54 59 55
f 59 60 61
f 59 61 55
f 59 58 62
f 59 62 63
f 59 63 64
f 59 64 60
f 64 65 66
f 64 66 60
f 64 63 67
f 64 67 68
f 64 68 69
f 64 69 65
f 69 70 71
f 69 71 65
f 69 68 72
f 69 72 73
f 69 73 74
f 69 74 70
f 74 75 76
f 74 76 70
f 74 73 77
f 74 77 78
f 74 78 79
f 74 79 75
f 79 80 81
f 79 81 75
f 79 78 82
f 79 82 83
f 79 83 84
f 79 84 80
f 84 85 86
f 84 86 80
f 84 83 87
f 84 87 88
f 84 88 89
f 84 89 85
f 89 90 91
f 89 91 85
f 89 88 92
f 89 92 93
f 89 93 94
f 89 94 90
f 94 95 96
f 94 96 90
f 94 93 97
f 94 97 98
f 94 98 99
f 94 99 95
f 99 100 101
f 99 101 95
f 99 98 102
f 99 102 103
f 99 103 104
f 99 104 100
f 104 105 106
f 104 106 100
f 104 103 107
f 104 107 108
f 104 108 109
f 104 109 105
f 109 110 111
f 109 111 105
f 109 108 112
f 109 112 113
f 109 113 114
f 109 114 110
f 114 115 116
f 114 116 110
f 114 113 117
f 114 117 118
f 114 118 119
f 114 119 115
f 119 120 121
f 119 121 115
f 119 118 122
f 119 122 123
f 119 123 124
f 119 124 120
f 124 125 126
f 124 126 120
f 124 123 127
f 124 127 128
f 124 128 129
f 124 129 125
f 129 130 131
f 129 131 125
f 129 128 132
f 129 132 133
f 129 133 134
f 129 134 130
f 134 135 136
f 134 136 130
f 134 133 137
f 134 137 138
f 134 138 139
f 134 139 135
f 139 140 141
f 139 141 135
f 139 138 142
f 139 142 143
f 139 143 144
f 139 144 140
f 144 145 146
f 144 146 140
f 144 143 147
f 144 147 148
f 144 148 149
f 144 149 145
f 149 150 151
f 149 151 145
f 149 148 152
f 149 152 153
f 149 153 154
f 149 154 150
f 154 155 156
f 154 156 150
f 154 153 157
f 154 157 158
f 154 158 159
f 154 159 155
f 159 160 161
f 159 161 155
f 159 158 162
f 159 162 163
f 159 163 164
f 159 164 160
f 164 165 166
f 164 166 160
f 164 163 167
f 164 167 168
f 164 168 169
f 164 169 165
f 169 170 171
f 169 171 165
f 169 168 172
f 169 172 173
f 169 173 174
f 169 174 170
f 174 175 176
f 174 176 170
f 174 173 177
f 174 177 178
f 174 178 179
f 174 179 175
f 179 180 181
f 179 181 175
f 179 178 182
f 179 182 183
f 179 183 184
f 179 184 180
f 184 185 186
f 184 186 180
f 184 183 187
f 184 187 188
f 184 188 189
f 184 189 185
f 189 190 191
f 189 191 185
f 189 188 192
f 189 192 193
f 189 193 194
f 189 194 190
f 194 195 196
f 194 196 190
f 194 193 197
f 194 197 198
f 194 198 199
f 194 199 195
f 199 200 201
f 199 201 195
f 199 198 3
f 199 3 10
f 199 10 17
f 199 17 200
f 201 202 182
f 201 182 203
f 201 203 196
f 201 196 195
f 201 200 204
f 201 204 202
f 204 205 187
f 204 187 202
f 204 200 17
f 204 17 19
f 204 19 206
f 204 206 205
f 206 207 192
f 206 192 205
f 206 19 18
f 206 18 22
f 206 22 7
f 206 7 207
f 207 197 193
f 207 193 192
f 207 7 4
f 207 4 197
f 205 192 188
f 205 188 187
f 203 182 178
f 203 178 177
f 203 177 208
f 203 208 196
f 208 177 173
f 208 173 172
f 208 172 209
f 208 209 191
f 208 191 190
f 208 190 196
f 209 172 168
f 209 168 167
f 209 167 210
f 209 210 186
f 209 186 185
f 209 185 191
f 210 167 163
f 210 163 162
f 210 162 211
f 210 211 181
f 210 181 180
f 210 180 186
f 211 162 158
f 211 158 157
f 211 157 212
f 211 212 176
f 211 176 175
f 211 175 181
f 212 157 153
f 212 153 152
f 212 152 213
f 212 213 171
f 212 171 170
f 212 170 176
f 213 152 148
f 213 148 147
f 213 147 214
f 213 214 166
f 213 166 165
f 213 165 171
f 214 147 143
f 214 143 142
f 214 142 215
f 214 215 161
f 214 161 160
f 214 160 166
f 215 142 138
f 215 138 137
f 215 137 216
f 215 216 156
f 215 156 155
f 215 155 161
f 216 137 133
f 216 133 132
f 216 132 217
f 216 217 151
f 216 151 150
f 216 150 156
f 217 132 128
f 217 128 127
f 217 127 218
f 217 218 146
f 217 146 145
f 217 145 151
f 218 127 123
f 218 123 122
f 218 122 219
f 218 219 141
f 218 141 140
f 218 140 146
f 219 122 118
f 219 118 117
f 219 117 220
f 219 220 136
f 219 136 135
f 219 135 141
f 220 117 113
f 220 113 112
f 220 112 221
f 220 221 131
f 220 131 130
f 220 130 136
f 221 112 108
f 221 108 107
f 221 107 222
f 221 222 126
f 221 126 125
f 221 125 131
f 222 107 103
f 222 103 102
f 222 102 223
f 222 223 121
f 222 121 120
f 222 120 126
f 223 102 98
f 223 98 97
f 223 97 224
f 223 224 116
f 223 116 115
f 223 115 121
f 224 97 93
f 224 93 92
f 224 92 225
f 224 225 111
f 224 111 110
f 224 110 116
f 225 92 88
f 225 88 87
f 225 87 226
f 225 226 106
f 225 106 105
f 225 105 111
f 226 87 83
f 226 83 82
f 226 82 227
f 226 227 101
f 226 101 100
f 226 100 106
f 227 82 78
f 227 78 77
f 227 77 228
f 227 228 96
f 227 96 95
f 227 95 101
f 228 77 73
f 228 73 72
f 228 72 229
f 228 229 91
f 228 91 90
f 228 90 96
f 229 72 68
f 229 68 67
f 229 67 230
f 229 230 86
f 229 86 85
f 229 85 91
f 230 67 63
f 230 63 62
f 230 62 231
f 230 231 81
f 230 81 80
f 230 80 86
f 231 62 58
f 231 58 57
f 231 57 232
f 231 232 76
f 231 76 75
f 231 75 81
f 232 57 53
f 232 53 52
f 232 52 233
f 232 233 71
f 232 71 70
f 232 70 76
f 233 52 48
f 233 48 47
f 233 47 234
f 233 234 66
f 233 66 65
f 233 65 71
f 234 47 43
f 234 43 42
f 234 42 235
f 234 235 61
f 234 61 60
f 234 60 66
f 235 42 39
f 235 39 38
f 235 38 236
f 235 236 56
f 235 56 55
f 235 55 61
f 236 38 32
f 236 32 31
f 236 31 34
f 236 34 51
f 236 51 50
f 236 50 56
f 202 187 183
f 202 183 182
f 198 197 4
f 198 4 3
f 51 34 46
f 51 46 45
f 46 34 25
f 46 25 24
f 46 24 28
f 46 28 41
f 20 13 9
f 20 9 6
f 14 15 12
f 14 12 11
# Vertices: 236, normals: 0, texture coordinates: 0, faces: 468

