# File generated by ImageToStl.com - Free Image and 3D model conversion tools

o obj1
v 0.01955484 -0.23434941 0.01621195
v 0.02932085 -0.2345123 0.01593725
v 0.0299514 -0.22794856 0.01472669
v 0.01743698 -0.22900748 0.01381521
v 0.01998552 -0.23320977 0.02272997
v 0.02867817 -0.23451553 0.02225524
v 0.01568859 -0.22985613 0.02353825
v 0.04057124 -0.23543799 0.01875279
v 0.0365491 -0.23634867 0.02239875
v 0.04211364 -0.22608909 0.01694073
v 0.04074155 -0.23919062 0.02256107
v 0.04358684 -0.2393211 0.0213843
v 0.03705992 -0.23719794 0.02671486
v 0.04127815 -0.23995116 0.02545213
v 0.04463971 -0.2394492 0.02594726
v 0.04186339 -0.2342204 0.02858702
v 0.04183552 -0.22499362 0.02781858
v 0.03086401 -0.23245081 0.03445717
v 0.032122 -0.22447509 0.03540092
v 0.02896852 -0.23613842 0.02844245
v 0.02134786 -0.23525709 0.02871785
v 0.01986929 -0.23103322 0.0322182
v -0.00176571 0.00183455 -0.00098528
v -0.00453023 0.0020033 -0.0043032
v 0.00207361 0.00229342 -0.0060379
v 0.00190457 0.00098473 -0.00031434
v -0.00280877 0.00260211 0.00221935
v -0.00722846 0.00288281 0.00334129
v 0.00081742 0.00200866 0.00444327
v 0.00729848 0.00250457 -0.0041738
v 0.01079776 -0.00191322 -0.00615893
v 0.01267714 -0.00026864 0.00256592
v 0.00679346 0.00186518 0.00098719
v 0.00258118 -0.00312889 -0.01050429
v -0.00106808 0.00229993 0.00953025
v 0.00521905 0.00241788 0.00511416
v 0.00758975 0.00126001 0.00918281
v 0.01027577 -0.0071683 0.00226482
v 0.00632854 -0.00587227 0.00816553
v -0.00145592 -0.00484828 0.00914734
v -0.00783449 -0.00426105 0.0031059
v 0.00533786 -0.01319425 0.00663288
v -0.00106808 -0.0122445 0.00748081
v -0.0058868 -0.01165203 0.00262511
v -0.00395804 -0.01116091 -0.00442418
v -0.00632592 -0.00398909 -0.00651232
v -0.00090711 -0.02019031 0.00750921
v -0.00544811 -0.01953565 0.00268056
v -0.00293653 -0.0184842 -0.00364963
v 0.00263898 -0.0167507 -0.00648571
v 0.00241695 -0.00977538 -0.00698392
v -0.00568365 -0.02765504 0.00252556
v -0.00244516 -0.02647332 -0.00433928
v 0.00320257 -0.02447291 -0.00846871
v 0.00882644 -0.02314452 -0.00560441
v 0.00814319 -0.0154193 -0.00434524
v -0.00173315 -0.03493143 -0.00472841
v 0.00398391 -0.03343601 -0.01057055
v 0.00973563 -0.03165965 -0.00658048
v 0.01088025 -0.02971989 0.00135649
v 0.0098596 -0.02206236 0.00127952
v 0.00509361 -0.04272065 -0.00850808
v 0.01044483 -0.04000189 -0.00497429
v 0.01197837 -0.03709629 0.00247861
v 0.00838184 -0.03533169 0.00920618
v 0.00710591 -0.02814668 0.00798382
v 0.01162738 -0.04764618 -0.00231693
v 0.01332185 -0.04441725 0.00433676
v 0.0097061 -0.04270438 0.0104981
v 0.00227612 -0.04321163 0.00964648
v 0.00060666 -0.03563747 0.00851871
v 0.0147407 -0.05195973 0.00639169
v 0.01106225 -0.05036908 0.01193661
v 0.00402659 -0.05084801 0.01079836
v -0.00067142 -0.05152832 0.00576889
v -0.00293089 -0.04399459 0.00410445
v 0.01215798 -0.05812493 0.01347968
v 0.00538436 -0.05850609 0.0118965
v 0.00074611 -0.0590478 0.00745646
v 0.0026608 -0.05909373 0.00169085
v 0.00136829 -0.05138498 -0.00072992
v 0.00645094 -0.06618407 0.01336079
v 0.00182486 -0.06668283 0.00925801
v 0.00377922 -0.06670936 0.00402873
v 0.0091877 -0.06564473 0.0010444
v 0.00798846 -0.05813331 -0.00188437
v 0.00283269 -0.07442943 0.01111812
v 0.00478474 -0.07440235 0.00607458
v 0.01028507 -0.07313946 0.00385499
v 0.01610742 -0.07051629 0.00466558
v 0.01464867 -0.06285375 0.00242991
v 0.00605956 -0.08203558 0.00819586
v 0.01149677 -0.08052845 0.00653704
v 0.01739382 -0.07805157 0.0070304
v 0.01890215 -0.07492533 0.01269435
v 0.01757639 -0.06729029 0.01060019
v 0.01292404 -0.08784677 0.0089252
v 0.01866797 -0.08548286 0.00922183
v 0.02027079 -0.08260077 0.0145978
v 0.01529725 -0.08135115 0.01853023
v 0.01404097 -0.07361837 0.0167158
v 0.02004757 -0.09296355 0.01111689
v 0.0216467 -0.09036422 0.01632467
v 0.01672667 -0.08918371 0.02021872
v 0.01047423 -0.08953829 0.01810811
v 0.00898142 -0.08173366 0.01646309
v 0.02300484 -0.09827494 0.01787954
v 0.0181345 -0.09706734 0.02178586
v 0.01198576 -0.09733753 0.01969124
v 0.00781017 -0.09778637 0.01561129
v 0.00589669 -0.09011896 0.01435468
v 0.0193701 -0.10493911 0.02329898
v 0.01365774 -0.1051214 0.02097658
v 0.00958662 -0.10543459 0.01682029
v 0.01060162 -0.10480113 0.01294936
v 0.00915102 -0.09721211 0.0115108
v 0.01515924 -0.11293849 0.02230819
v 0.01106521 -0.11315601 0.01813832
v 0.01188724 -0.11248469 0.01426421
v 0.0172197 -0.11062327 0.0130723
v 0.01592424 -0.10291 0.01191707
v 0.0122947 -0.12090828 0.01947833
v 0.01303634 -0.12022947 0.01550413
v 0.01834869 -0.11845805 0.01398716
v 0.02398722 -0.11635572 0.01505787
v 0.02288084 -0.10847677 0.0137954
v 0.0141096 -0.12799478 0.01656294
v 0.01931333 -0.12632832 0.01477831
v 0.02494197 -0.12419797 0.0164104
v 0.02540728 -0.12202504 0.02194796
v 0.02443016 -0.11420751 0.020579
v 0.02025254 -0.13417928 0.01560159
v 0.0258262 -0.13200288 0.01769494
v 0.02680219 -0.12988734 0.0232666
v 0.02289767 -0.12885767 0.02724743
v 0.02175637 -0.12073831 0.02630441
v 0.02661009 -0.13988435 0.01870207
v 0.02792567 -0.13794293 0.0241627
v 0.02384595 -0.13702224 0.02760724
v 0.01875112 -0.13667253 0.02526235
v 0.01784566 -0.12873408 0.0243926
v 0.02881625 -0.14600867 0.02478015
v 0.02461923 -0.14509414 0.02792046
v 0.01941242 -0.14459309 0.02600841
v 0.0152297 -0.14424863 0.02252867
v 0.0144782 -0.13643467 0.02174212
v 0.02529813 -0.15308402 0.02840403
v 0.01997582 -0.15251917 0.02662483
v 0.01584973 -0.1521187 0.02314472
v 0.01680832 -0.15136796 0.01891645
v 0.01585621 -0.14356112 0.01816973
v 0.02042319 -0.16047065 0.02727881
v 0.01633683 -0.16000585 0.02361522
v 0.01767248 -0.15917893 0.01950721
v 0.02283545 -0.15768835 0.0179654
v 0.02198799 -0.14984082 0.01728364
v 0.01675438 -0.16794014 0.02403707
v 0.01843011 -0.16705167 0.01992464
v 0.02366536 -0.16553822 0.01868543
v 0.02885889 -0.16361679 0.02057559
v 0.02809777 -0.15570547 0.02004791
v 0.01907473 -0.17496374 0.0202296
v 0.02455264 -0.17340858 0.01910415
v 0.0298275 -0.17145357 0.02089099
v 0.03136478 -0.16987552 0.02606152
v 0.03053571 -0.16194585 0.02573015
v 0.02550971 -0.18127887 0.01953169
v 0.03117729 -0.17924777 0.02095233
v 0.03240478 -0.17777231 0.02636058
v 0.02769191 -0.17698886 0.03026475
v 0.02680754 -0.16900016 0.02962796
v 0.03249759 -0.18707651 0.02108061
v 0.03357192 -0.18571007 0.02665198
v 0.02856492 -0.18500428 0.03077682
v 0.02207236 -0.18449095 0.02874345
v 0.02155784 -0.17648731 0.02829215
v 0.03467573 -0.19367327 0.02688112
v 0.02929249 -0.19299129 0.03128709
v 0.02232249 -0.19247842 0.02945284
v 0.01751294 -0.19188875 0.02493786
v 0.01715276 -0.18391363 0.02475651
v 0.03001968 -0.20094784 0.03205127
v 0.02270462 -0.20053092 0.02990839
v 0.01757226 -0.19981705 0.02512802
v 0.02073047 -0.19878143 0.02020858
v 0.02021583 -0.19083485 0.02033621
v 0.02293346 -0.20864917 0.03015383
v 0.01727949 -0.20778976 0.02526832
v 0.02090166 -0.2067638 0.01996078
v 0.02833666 -0.20507899 0.01926341
v 0.0274216 -0.19706599 0.01960829
v 0.01673976 -0.21576123 0.02524232
v 0.02064571 -0.21465774 0.01940602
v 0.02916295 -0.21309754 0.018799
v 0.03716029 -0.21030381 0.02032274
v 0.03534955 -0.20268832 0.02072383
v 0.01968905 -0.22195642 0.01759064
v 0.02978223 -0.22089224 0.01779878
v 0.03970221 -0.2178065 0.01901345
v 0.03955861 -0.21708274 0.02716602
v 0.0373486 -0.20934896 0.02721208
v 0.03094016 -0.20892172 0.03294833
v 0.03583433 -0.20154575 0.0270933
v 0.03176009 -0.21675938 0.03387154
v 0.02261144 -0.21663393 0.0306702
v 0.02144496 -0.22402096 0.03182476
v 0.01619417 -0.22332893 0.02472468
v 0.03383392 -0.19491385 0.02106183
v 0.02644514 -0.1891463 0.01976634
v 0.01979288 -0.1828883 0.0206782
v 0.01692768 -0.17591092 0.02445002
v 0.02098961 -0.16847457 0.02779301
v 0.02595744 -0.16103582 0.0288835
v 0.0297015 -0.15400039 0.02530683
v 0.02727893 -0.14778669 0.01951617
v 0.02114725 -0.14200465 0.01647724
v 0.01499718 -0.13577221 0.01743485
v 0.01349743 -0.12866566 0.02075454
v 0.01662404 -0.12080675 0.02340055
v 0.02054397 -0.11279922 0.02482798
v 0.0237963 -0.10628159 0.01924914
v 0.02158107 -0.10064864 0.01251667
v 0.01447223 -0.09532504 0.0105264
v 0.00759728 -0.08964079 0.0100773
v 0.00420098 -0.0822916 0.01278884
v 0.00761281 -0.07393035 0.01490274
v 0.01305547 -0.06590995 0.014983
v 0.01615007 -0.0596183 0.00849039
v 0.01318068 -0.05520731 0.00011206
v 0.00655245 -0.050566 -0.00481523
v -0.00027451 -0.04338244 -0.00320027
v -0.00520449 -0.03603112 0.00289935
v -0.00039688 -0.0280523 0.00766273
v 0.0058962 -0.02081357 0.00692127
v 0.00918288 -0.01433479 0.0016222
v 0.00846477 -0.00866805 -0.00415979
f 1 2 3
f 1 3 4
f 1 5 6
f 1 6 2
f 1 4 7
f 1 7 5
f 8 2 6
f 8 6 9
f 8 10 3
f 8 3 2
f 8 9 11
f 8 11 12
f 11 9 13
f 11 13 14
f 12 15 16
f 12 16 8
f 15 14 13
f 15 13 16
f 16 17 10
f 16 10 8
f 16 18 19
f 16 19 17
f 16 13 20
f 16 20 18
f 21 20 6
f 21 6 5
f 21 5 7
f 21 7 22
f 21 22 18
f 21 18 20
f 23 24 25
f 23 25 26
f 23 27 28
f 23 28 24
f 23 26 29
f 23 29 27
f 30 31 32
f 30 32 33
f 30 25 34
f 30 34 31
f 30 33 26
f 30 26 25
f 27 29 35
f 27 35 28
f 36 33 32
f 36 32 37
f 36 29 26
f 36 26 33
f 36 37 35
f 36 35 29
f 37 32 38
f 37 38 39
f 37 39 40
f 37 40 35
f 40 41 28
f 40 28 35
f 40 39 42
f 40 42 43
f 40 43 44
f 40 44 41
f 44 45 46
f 44 46 41
f 44 43 47
f 44 47 48
f 44 48 49
f 44 49 45
f 49 50 51
f 49 51 45
f 49 48 52
f 49 52 53
f 49 53 54
f 49 54 50
f 54 55 56
f 54 56 50
f 54 53 57
f 54 57 58
f 54 58 59
f 54 59 55
f 59 60 61
f 59 61 55
f 59 58 62
f 59 62 63
f 59 63 64
f 59 64 60
f 64 65 66
f 64 66 60
f 64 63 67
f 64 67 68
f 64 68 69
f 64 69 65
f 69 70 71
f 69 71 65
f 69 68 72
f 69 72 73
f 69 73 74
f 69 74 70
f 74 75 76
f 74 76 70
f 74 73 77
f 74 77 78
f 74 78 79
f 74 79 75
f 79 80 81
f 79 81 75
f 79 78 82
f 79 82 83
f 79 83 84
f 79 84 80
f 84 85 86
f 84 86 80
f 84 83 87
f 84 87 88
f 84 88 89
f 84 89 85
f 89 90 91
f 89 91 85
f 89 88 92
f 89 92 93
f 89 93 94
f 89 94 90
f 94 95 96
f 94 96 90
f 94 93 97
f 94 97 98
f 94 98 99
f 94 99 95
f 99 100 101
f 99 101 95
f 99 98 102
f 99 102 103
f 99 103 104
f 99 104 100
f 104 105 106
f 104 106 100
f 104 103 107
f 104 107 108
f 104 108 109
f 104 109 105
f 109 110 111
f 109 111 105
f 109 108 112
f 109 112 113
f 109 113 114
f 109 114 110
f 114 115 116
f 114 116 110
f 114 113 117
f 114 117 118
f 114 118 119
f 114 119 115
f 119 120 121
f 119 121 115
f 119 118 122
f 119 122 123
f 119 123 124
f 119 124 120
f 124 125 126
f 124 126 120
f 124 123 127
f 124 127 128
f 124 128 129
f 124 129 125
f 129 130 131
f 129 131 125
f 129 128 132
f 129 132 133
f 129 133 134
f 129 134 130
f 134 135 136
f 134 136 130
f 134 133 137
f 134 137 138
f 134 138 139
f 134 139 135
f 139 140 141
f 139 141 135
f 139 138 142
f 139 142 143
f 139 143 144
f 139 144 140
f 144 145 146
f 144 146 140
f 144 143 147
f 144 147 148
f 144 148 149
f 144 149 145
f 149 150 151
f 149 151 145
f 149 148 152
f 149 152 153
f 149 153 154
f 149 154 150
f 154 155 156
f 154 156 150
f 154 153 157
f 154 157 158
f 154 158 159
f 154 159 155
f 159 160 161
f 159 161 155
f 159 158 162
f 159 162 163
f 159 163 164
f 159 164 160
f 164 165 166
f 164 166 160
f 164 163 167
f 164 167 168
f 164 168 169
f 164 169 165
f 169 170 171
f 169 171 165
f 169 168 172
f 169 172 173
f 169 173 174
f 169 174 170
f 174 175 176
f 174 176 170
f 174 173 177
f 174 177 178
f 174 178 179
f 174 179 175
f 179 180 181
f 179 181 175
f 179 178 182
f 179 182 183
f 179 183 184
f 179 184 180
f 184 185 186
f 184 186 180
f 184 183 187
f 184 187 188
f 184 188 189
f 184 189 185
f 189 190 191
f 189 191 185
f 189 188 192
f 189 192 193
f 189 193 194
f 189 194 190
f 194 195 196
f 194 196 190
f 194 193 197
f 194 197 198
f 194 198 199
f 194 199 195
f 199 200 201
f 199 201 195
f 199 198 3
f 199 3 10
f 199 10 17
f 199 17 200
f 201 202 182
f 201 182 203
f 201 203 196
f 201 196 195
f 201 200 204
f 201 204 202
f 204 205 187
f 204 187 202
f 204 200 17
f 204 17 19
f 204 19 206
f 204 206 205
f 206 207 192
f 206 192 205
f 206 19 18
f 206 18 22
f 206 22 7
f 206 7 207
f 207 197 193
f 207 193 192
f 207 7 4
f 207 4 197
f 205 192 188
f 205 188 187
f 203 182 178
f 203 178 177
f 203 177 208
f 203 208 196
f 208 177 173
f 208 173 172
f 208 172 209
f 208 209 191
f 208 191 190
f 208 190 196
f 209 172 168
f 209 168 167
f 209 167 210
f 209 210 186
f 209 186 185
f 209 185 191
f 210 167 163
f 210 163 162
f 210 162 211
f 210 211 181
f 210 181 180
f 210 180 186
f 211 162 158
f 211 158 157
f 211 157 212
f 211 212 176
f 211 176 175
f 211 175 181
f 212 157 153
f 212 153 152
f 212 152 213
f 212 213 171
f 212 171 170
f 212 170 176
f 213 152 148
f 213 148 147
f 213 147 214
f 213 214 166
f 213 166 165
f 213 165 171
f 214 147 143
f 214 143 142
f 214 142 215
f 214 215 161
f 214 161 160
f 214 160 166
f 215 142 138
f 215 138 137
f 215 137 216
f 215 216 156
f 215 156 155
f 215 155 161
f 216 137 133
f 216 133 132
f 216 132 217
f 216 217 151
f 216 151 150
f 216 150 156
f 217 132 128
f 217 128 127
f 217 127 218
f 217 218 146
f 217 146 145
f 217 145 151
f 218 127 123
f 218 123 122
f 218 122 219
f 218 219 141
f 218 141 140
f 218 140 146
f 219 122 118
f 219 118 117
f 219 117 220
f 219 220 136
f 219 136 135
f 219 135 141
f 220 117 113
f 220 113 112
f 220 112 221
f 220 221 131
f 220 131 130
f 220 130 136
f 221 112 108
f 221 108 107
f 221 107 222
f 221 222 126
f 221 126 125
f 221 125 131
f 222 107 103
f 222 103 102
f 222 102 223
f 222 223 121
f 222 121 120
f 222 120 126
f 223 102 98
f 223 98 97
f 223 97 224
f 223 224 116
f 223 116 115
f 223 115 121
f 224 97 93
f 224 93 92
f 224 92 225
f 224 225 111
f 224 111 110
f 224 110 116
f 225 92 88
f 225 88 87
f 225 87 226
f 225 226 106
f 225 106 105
f 225 105 111
f 226 87 83
f 226 83 82
f 226 82 227
f 226 227 101
f 226 101 100
f 226 100 106
f 227 82 78
f 227 78 77
f 227 77 228
f 227 228 96
f 227 96 95
f 227 95 101
f 228 77 73
f 228 73 72
f 228 72 229
f 228 229 91
f 228 91 90
f 228 90 96
f 229 72 68
f 229 68 67
f 229 67 230
f 229 230 86
f 229 86 85
f 229 85 91
f 230 67 63
f 230 63 62
f 230 62 231
f 230 231 81
f 230 81 80
f 230 80 86
f 231 62 58
f 231 58 57
f 231 57 232
f 231 232 76
f 231 76 75
f 231 75 81
f 232 57 53
f 232 53 52
f 232 52 233
f 232 233 71
f 232 71 70
f 232 70 76
f 233 52 48
f 233 48 47
f 233 47 234
f 233 234 66
f 233 66 65
f 233 65 71
f 234 47 43
f 234 43 42
f 234 42 235
f 234 235 61
f 234 61 60
f 234 60 66
f 235 42 39
f 235 39 38
f 235 38 236
f 235 236 56
f 235 56 55
f 235 55 61
f 236 38 32
f 236 32 31
f 236 31 34
f 236 34 51
f 236 51 50
f 236 50 56
f 202 187 183
f 202 183 182
f 198 197 4
f 198 4 3
f 51 34 46
f 51 46 45
f 46 34 25
f 46 25 24
f 46 24 28
f 46 28 41
f 20 13 9
f 20 9 6
f 14 15 12
f 14 12 11
# Vertices: 236, normals: 0, texture coordinates: 0, faces: 468

