# https://github.com/mikedh/trimesh

o scapula_r.obj
v -0.00801370 0.01599920 -0.06887630
v -0.01006420 0.01534640 -0.06753420
v -0.00892770 0.01681120 -0.06750250
v -0.00684070 0.01408160 -0.07061840
v -0.00874610 0.01300240 -0.07013190
v -0.00728200 0.01870160 -0.06717480
v -0.00478350 0.01501040 -0.07093440
v -0.01015230 0.01582160 -0.06655240
v -0.01013590 0.01147680 -0.06946130
v -0.01065910 0.01399280 -0.06736490
v -0.00777390 0.01935920 -0.06500480
v -0.00488610 0.01161120 -0.07016730
v -0.00663290 0.00870320 -0.06933320
v -0.00277970 0.01597520 -0.07094540
v -0.00321520 0.02073360 -0.06666690
v -0.00416550 0.02122560 -0.06434670
v -0.00284490 0.01223440 -0.07000780
v -0.01090820 0.01438160 -0.06608150
v -0.00929610 0.01801520 -0.06424410
v -0.01133030 0.00978160 -0.06872630
v -0.00833960 0.00909520 -0.06911270
v -0.01122510 0.01326960 -0.06656890
v -0.00815210 0.01952480 -0.06337460
v -0.00673820 0.02057360 -0.06276530
v -0.00316910 0.00912720 -0.06922110
v -0.00640990 0.00408080 -0.06578690
v -0.01198890 0.00154400 -0.06434090
v -0.00418630 0.00732400 -0.06856340
v -0.00934100 0.00852160 -0.06887510
v -0.00083090 0.01323360 -0.06986660
v -0.00060530 0.01702080 -0.07077110
v 0.00081450 0.01992720 -0.06814920
v 0.00221730 0.02214080 -0.06549790
v -0.00119680 0.02190880 -0.06299790
v 0.00169480 0.02247600 -0.06254860
v -0.00487760 0.02140000 -0.06198180
v -0.00203360 0.02202640 -0.06047370
v 0.00151460 0.01128720 -0.06871360
v -0.01116350 0.01283520 -0.06506230
v -0.01188220 0.01083520 -0.06559020
v -0.01026210 0.01473680 -0.06380640
v -0.00909740 0.01653040 -0.06262770
v -0.01171690 0.00566640 -0.06682140
v -0.01308500 0.00511600 -0.06630490
v -0.01313740 0.00709760 -0.06723000
v -0.01250930 0.00959680 -0.06638790
v -0.01249970 0.00871440 -0.06727340
v -0.01289380 0.00886320 -0.06451580
v -0.00753470 0.01832480 -0.06133940
v -0.00656800 0.01744800 -0.05906990
v -0.00236390 0.01954960 -0.05718410
v -0.00454210 0.01862800 -0.05817660
v -0.00218850 0.00770800 -0.06814870
v -0.00835750 0.00153920 -0.06355390
v -0.00313510 0.00594480 -0.06697990
v -0.00428890 0.00376320 -0.06493400
v -0.01631340 -0.00497360 -0.05997770
v -0.01443610 0.00050560 -0.06363540
v -0.00958060 -0.00082160 -0.06129060
v -0.01187360 0.00399920 -0.06597850
v -0.01368490 0.00290640 -0.06510970
v 0.00431970 0.01581920 -0.06934760
v 0.00482640 0.01906000 -0.06969130
v 0.00349710 0.02082240 -0.06746910
v 0.00350850 0.02234240 -0.06073460
v 0.00543080 0.02178240 -0.06278690
v 0.01448500 0.01773840 -0.06402940
v 0.00167300 0.02113120 -0.05609260
v 0.00536430 0.02156640 -0.05463090
v 0.00646860 0.02254800 -0.05657090
v -0.00080040 0.02103040 -0.05801970
v 0.00381870 0.01258640 -0.06857480
v 0.00618010 0.01135360 -0.06691420
v 0.00227890 0.00970160 -0.06741930
v -0.01105140 0.01164720 -0.06344160
v -0.01286120 0.00818800 -0.06328140
v -0.00994500 0.01360320 -0.06200130
v -0.00871410 0.01418640 -0.05918810
v -0.01490700 0.00480880 -0.06601710
v -0.01408190 0.00628240 -0.06596990
v -0.01342470 0.00773280 -0.06599020
v -0.01385640 0.00699920 -0.06410220
v -0.01405750 0.00619840 -0.06147420
v -0.00835490 0.01349200 -0.05397130
v -0.00638870 0.01498960 -0.05233640
v -0.00288630 0.01274480 -0.04004740
v 0.00175470 0.01740880 -0.04876810
v -0.00677650 -0.00325920 -0.05776170
v -0.00222000 0.00400720 -0.06377810
v 0.00373370 0.00780560 -0.06437290
v 0.00668980 0.00788080 -0.06237880
v 0.00295610 0.00879840 -0.06616220
v -0.00328290 0.00185200 -0.06166790
v -0.01664410 -0.01054720 -0.05644870
v -0.01807460 -0.00779760 -0.05843080
v -0.01871260 -0.00412080 -0.06161830
v -0.01349750 -0.00835920 -0.05656220
v -0.01826650 0.00312080 -0.06592200
v 0.00656170 0.01345440 -0.06831840
v 0.00710920 0.01654560 -0.06889000
v 0.00587400 0.02225680 -0.05962750
v 0.00796200 0.02224160 -0.05876820
v 0.00996440 0.02216320 -0.05798710
v 0.01846570 0.02130480 -0.05729000
v 0.01266640 0.01568640 -0.06569460
v 0.01693440 0.01757120 -0.06305410
v 0.00336930 0.01812000 -0.04992880
v 0.00377740 0.02081200 -0.05426950
v 0.00685230 0.02099840 -0.05337400
v 0.01083550 0.02230720 -0.05487200
v 0.00981650 0.02134320 -0.05344520
v 0.00768560 0.02155280 -0.05429470
v 0.00506800 0.00982960 -0.06600170
v 0.00661410 0.01004320 -0.06545530
v 0.01052690 0.01208960 -0.06604150
v 0.00819870 0.01020960 -0.06498780
v -0.01263710 0.00803520 -0.06024720
v -0.00924060 0.01277360 -0.05762000
v -0.02360900 -0.00010080 -0.05997080
v -0.01631160 0.00406560 -0.06317020
v -0.01348660 0.00641920 -0.05760370
v -0.00772010 0.01341200 -0.05044340
v -0.01096660 0.00898720 -0.04859450
v -0.00751790 0.01274320 -0.04596720
v -0.00592330 0.01351600 -0.04456570
v -0.00764270 0.01309840 -0.04803410
v -0.00482030 0.01291840 -0.04189290
v 0.00048280 0.01469280 -0.04314490
v -0.00031370 0.01193600 -0.04000040
v -0.00295970 0.01161680 -0.03888070
v -0.00478750 0.01109200 -0.03783270
v 0.00473100 0.01286800 -0.05004270
v 0.00552480 0.01378400 -0.05141070
v 0.00799200 0.01554960 -0.05271540
v 0.00260260 0.01413920 -0.04730990
v -0.00922630 -0.00713680 -0.05579260
v -0.00386770 -0.00499680 -0.05441080
v -0.00653510 -0.00684720 -0.05473720
v -0.00214250 0.00071520 -0.05868870
v 0.00072220 0.00454000 -0.06188210
v 0.00593190 0.00887520 -0.06428600
v 0.00529110 0.00708320 -0.05914500
v 0.01130660 0.00862000 -0.06015810
v -0.01408240 -0.01352960 -0.05377170
v -0.01833790 -0.01285120 -0.05549710
v -0.01976510 -0.00630960 -0.06024220
v -0.02674150 0.00209040 -0.07277730
v -0.02709540 0.00466560 -0.07207040
v -0.02555400 0.00568560 -0.07318570
v 0.00935470 0.01417200 -0.06783860
v 0.01338000 0.02204480 -0.05399340
v 0.01599860 0.02176960 -0.05314130
v 0.01733080 0.02161440 -0.05536840
v 0.01973430 0.01931600 -0.05963670
v 0.02018900 0.02095360 -0.05700640
v 0.02148660 0.02111760 -0.05399650
v 0.01339610 0.01356960 -0.06583050
v 0.01594650 0.01344560 -0.06445990
v 0.02023470 0.01511360 -0.06224800
v 0.02200820 0.01737120 -0.06130120
v 0.02206290 0.01905200 -0.05884690
v 0.00696490 0.01952640 -0.05134030
v 0.01266260 0.02123040 -0.05290590
v 0.01170420 0.02021600 -0.05141670
v 0.01532810 0.01214800 -0.06405400
v 0.01185880 0.01047520 -0.06382180
v 0.00997330 0.01038240 -0.06446950
v 0.00981300 0.00921200 -0.06273110
v -0.01271670 0.00695120 -0.05401920
v -0.02181230 -0.00067920 -0.05315730
v -0.06097660 -0.00658880 -0.07341010
v -0.01404820 0.00147120 -0.04477640
v -0.01220590 0.00650560 -0.04937140
v -0.01096630 0.00882560 -0.04659360
v -0.00982280 0.01024320 -0.04527750
v -0.01238370 0.00677280 -0.05149370
v -0.00629720 0.01250240 -0.04306830
v -0.00861120 0.00963280 -0.04063530
v -0.00723270 0.00960080 -0.03786160
v 0.00475090 0.01144320 -0.04557310
v 0.00492800 0.01114160 -0.04425070
v 0.00038540 0.01249520 -0.04061180
v 0.00317770 0.01222960 -0.04307110
v 0.00255460 0.01356480 -0.04618140
v -0.00373190 0.01043280 -0.03767660
v -0.00248080 0.00963440 -0.03792480
v 0.00114580 0.01189040 -0.04080310
v 0.00004510 0.00987440 -0.03966260
v 0.00054140 0.01099840 -0.04012850
v -0.00584590 0.00972000 -0.03652790
v -0.00639350 0.00965840 -0.03689630
v 0.00438280 0.01218400 -0.04883870
v 0.00581220 0.01080880 -0.05157140
v 0.00540970 0.00985920 -0.05030740
v 0.00861510 0.01225200 -0.05456280
v 0.00653430 0.00984880 -0.05287310
v 0.00744030 0.01026640 -0.05465380
v 0.00925300 0.01405360 -0.05404300
v 0.01193300 0.01282880 -0.05529530
v 0.01263210 0.01447680 -0.05404310
v -0.00861330 -0.01799600 -0.05051880
v -0.00622240 -0.01602400 -0.05007110
v -0.01113840 -0.01600000 -0.05207010
v -0.00368700 -0.00836720 -0.05191580
v -0.00265900 -0.01162160 -0.05027060
v -0.00230100 -0.01468320 -0.04898420
v -0.00120830 -0.00643760 -0.05137240
v 0.00023100 -0.00248640 -0.05242060
v -0.00073900 0.00004560 -0.05545040
v 0.00291370 0.00446560 -0.05600920
v 0.00159560 0.00439120 -0.05921580
v 0.00420940 0.00637920 -0.05800130
v 0.00591760 0.00782800 -0.05679430
v 0.00701100 0.00815600 -0.05812910
v 0.00934670 0.00885280 -0.05807920
v 0.01175970 0.00935280 -0.06207420
v 0.01710400 0.00889840 -0.05867190
v 0.01335140 0.00950240 -0.05820800
v 0.01128710 0.00950880 -0.05812290
v -0.01662220 -0.03928400 -0.05050050
v -0.04039000 -0.01690480 -0.06619740
v -0.04574150 0.01386640 -0.09034220
v -0.03412410 0.00991920 -0.08034930
v -0.02983900 0.00780240 -0.07676750
v -0.03585700 0.00982480 -0.08030740
v -0.06669410 -0.00305200 -0.08607470
v -0.03199200 0.00895440 -0.07843510
v -0.02770770 0.00683680 -0.07485310
v 0.01459430 0.02017680 -0.05092060
v 0.02087040 0.01972560 -0.04842060
v 0.01841920 0.02155360 -0.05240680
v 0.02204550 0.02060880 -0.05638660
v 0.02058870 0.02126800 -0.05164810
v 0.02228860 0.02070480 -0.05071630
v 0.02388320 0.01993200 -0.04979690
v 0.02384190 0.01990160 -0.05548730
v 0.02479590 0.01962720 -0.05217410
v 0.02097960 0.01263200 -0.06183890
v 0.02304180 0.01455680 -0.06095200
v 0.02558850 0.01907520 -0.05457880
v 0.02421330 0.01725440 -0.06041280
v 0.01529030 0.01705200 -0.05204470
v 0.01749250 0.01112720 -0.06206570
v 0.01748280 0.00995920 -0.06053170
v -0.02639080 0.00336080 -0.04601450
v -0.05423970 -0.00404160 -0.06294350
v -0.01673720 0.00067280 -0.04665490
v -0.06777130 -0.00872080 -0.07109170
v -0.06944130 -0.00994880 -0.07407890
v -0.01562410 0.00082400 -0.04456210
v -0.01525230 -0.00139520 -0.04091810
v -0.01002710 0.00942240 -0.04343460
v -0.01318220 0.00043200 -0.04054270
v -0.01073420 0.00620960 -0.03767540
v -0.00925580 0.00694400 -0.03689300
v 0.00456720 0.01173120 -0.04662960
v 0.00544820 0.00968320 -0.04871090
v 0.00565380 0.00893440 -0.04398390
v 0.00392190 0.01097440 -0.04286220
v 0.00608990 0.00906640 -0.04467140
v 0.00221500 0.01204880 -0.04187890
v 0.00442360 0.01188880 -0.04758580
v -0.00593510 0.00703680 -0.03526580
v 0.00169950 0.00878960 -0.04073040
v -0.00343330 0.00821840 -0.03699460
v -0.00704360 0.00769520 -0.03511870
v 0.00579210 0.00697520 -0.05176400
v 0.00615710 0.00713280 -0.04967530
v 0.00899790 0.01109280 -0.05534120
v 0.01025550 0.01271120 -0.05528720
v 0.01080690 0.01047360 -0.05673780
v 0.00652340 0.00837840 -0.05411330
v 0.00748240 0.00912560 -0.05602670
v 0.00923290 0.00990960 -0.05641460
v 0.01365760 0.01278720 -0.05510890
v 0.01418160 0.01164080 -0.05581750
v 0.01587940 0.01235600 -0.05455050
v 0.01968890 0.01238400 -0.05222110
v -0.00766340 -0.02063920 -0.04926430
v -0.00778300 -0.02724160 -0.04685770
v 0.00162960 -0.01321520 -0.04792130
v 0.00227040 -0.00961600 -0.04853440
v 0.00084720 -0.00612240 -0.05015820
v 0.00210460 -0.00133120 -0.05148070
v 0.00377570 0.00391920 -0.05290330
v 0.00505900 0.00660880 -0.05492350
v 0.01564950 0.00949920 -0.05752270
v 0.02063510 0.00992320 -0.05936290
v 0.02026000 0.00888960 -0.05748010
v 0.01739490 0.00935040 -0.05696500
v 0.01444360 0.01057680 -0.05657090
v -0.02110320 -0.04894000 -0.04890060
v -0.02128670 -0.04763760 -0.05167150
v -0.06205700 -0.06094960 -0.07100370
v -0.01237130 -0.03880000 -0.03961210
v -0.01825390 -0.04419120 -0.04553040
v -0.00589700 -0.03120560 -0.03844640
v -0.08098260 -0.02218800 -0.09568150
v -0.06208010 0.00948240 -0.09638330
v -0.05202620 0.01457680 -0.09333190
v -0.04572260 0.01542320 -0.08995050
v -0.04580490 0.01622640 -0.08913260
v -0.04602420 0.01647120 -0.08752750
v -0.04886180 0.01665120 -0.08877070
v -0.05485270 0.01575360 -0.09092640
v -0.05783540 0.01461280 -0.09176210
v -0.06079980 0.01259840 -0.09242710
v -0.06840200 0.00522480 -0.09562940
v -0.07602240 -0.00481040 -0.09588250
v -0.07768490 -0.01353520 -0.08816860
v 0.02535120 0.01758480 -0.04720530
v 0.02375470 0.01435200 -0.04838180
v 0.01803890 0.01708560 -0.05037350
v 0.02562590 0.01883360 -0.04911670
v 0.02362030 0.01170320 -0.06023980
v 0.02038810 0.01117760 -0.06110390
v 0.02525700 0.01431600 -0.05994540
v 0.02799670 0.01620480 -0.05842180
v 0.02710880 0.01801680 -0.05369910
v 0.01802380 0.01491040 -0.05156710
v -0.02271890 0.00574960 -0.04097470
v -0.02113410 0.00223120 -0.04429900
v -0.04498310 0.01222240 -0.04295250
v -0.06303620 -0.00249360 -0.05893750
v -0.06597070 -0.00605840 -0.06371030
v -0.01821720 0.00130960 -0.04397160
v -0.07018580 -0.01242720 -0.07163330
v -0.06964480 -0.01171840 -0.07319700
v -0.07097580 -0.01530800 -0.07330830
v -0.07278290 -0.01565280 -0.07919310
v -0.01645530 -0.00124240 -0.04108360
v -0.01669800 -0.00295840 -0.04083970
v -0.01338730 -0.00103120 -0.03970420
v -0.01596140 -0.00406800 -0.04030070
v -0.01233310 0.00060880 -0.03517310
v -0.01177370 0.00376240 -0.03697700
v -0.01316790 -0.00260720 -0.03742330
v -0.01264750 -0.00206000 -0.03379020
v -0.01130590 0.00449600 -0.03564210
v -0.00997490 0.00495520 -0.03486330
v -0.00823680 0.00514800 -0.03358150
v 0.00694460 0.00484800 -0.04848910
v 0.00770490 0.00381360 -0.04700820
v 0.00808320 0.00346000 -0.04551610
v 0.00603460 0.00633040 -0.04383000
v 0.00372540 0.00783360 -0.04218920
v -0.00721040 0.00474560 -0.03373230
v 0.00562550 0.00396080 -0.04364750
v 0.00320020 0.00349040 -0.04218020
v -0.00241930 0.00474880 -0.03751310
v -0.00587410 0.00402640 -0.03422860
v 0.00622430 0.00437520 -0.04995000
v 0.00421160 0.00110320 -0.05062740
v 0.01564560 0.01136400 -0.05547260
v 0.01584210 0.01039600 -0.05621350
v 0.02207740 0.01026560 -0.05243460
v 0.02042050 0.01315760 -0.05093710
v 0.02104720 0.00988240 -0.05471850
v -0.00283970 -0.02449920 -0.04288990
v 0.00561520 -0.01452880 -0.04573850
v 0.00550240 -0.01702880 -0.04424310
v -0.00327840 -0.02573760 -0.04134370
v 0.00393440 -0.01282800 -0.04717070
v 0.00325210 -0.00524880 -0.04909900
v 0.00436320 -0.00980080 -0.04769720
v 0.02879170 0.01062000 -0.05753820
v 0.02541990 0.00839920 -0.05543060
v 0.02729520 0.00935440 -0.05677450
v -0.02317530 -0.05257920 -0.04931110
v -0.02058720 -0.04831200 -0.04590820
v -0.02269450 -0.05223840 -0.04622470
v -0.02912420 -0.06201680 -0.05292990
v -0.02714250 -0.05974640 -0.04990780
v -0.03562380 -0.07542480 -0.05332760
v -0.04388410 -0.09268080 -0.05335380
v -0.06608720 -0.12154000 -0.05784260
v -0.06157480 -0.12031040 -0.05534120
v -0.08644770 -0.05148640 -0.08858350
v -0.07940090 -0.10128080 -0.06836740
v -0.07483550 -0.11346720 -0.06416580
v -0.08399950 -0.08488880 -0.07472660
v -0.08509360 -0.07668720 -0.07791360
v -0.08349700 -0.06585440 -0.08255380
v -0.00767410 -0.03192000 -0.03621690
v -0.01402330 -0.03739280 -0.03905760
v -0.02209350 -0.04430640 -0.04092780
v -0.01944230 -0.04564480 -0.04082570
v -0.01812230 -0.04620720 -0.04105520
v -0.01170630 -0.03430640 -0.03807000
v -0.01496860 -0.04211840 -0.04099990
v -0.01837490 -0.04554080 -0.04328660
v -0.00138700 -0.02511600 -0.03718430
v -0.00313160 -0.02461920 -0.03275300
v -0.07447690 -0.00491120 -0.09736010
v -0.08318160 -0.02101440 -0.09503590
v -0.06996590 0.00279040 -0.09651400
v -0.06559660 0.00719200 -0.09617240
v -0.06031710 0.01188080 -0.09552480
v -0.05761900 0.01345360 -0.09508990
v -0.05504760 0.01466080 -0.09397500
v -0.05198610 0.01561600 -0.09253010
v -0.04884730 0.01570560 -0.09135610
v -0.04882140 0.01639600 -0.09043710
v -0.05192170 0.01622400 -0.09154770
v -0.06124990 0.01190160 -0.09476550
v -0.05827410 0.01404240 -0.09427080
v -0.07763500 -0.02035600 -0.08619260
v -0.07438800 -0.01683760 -0.08248830
v -0.08121820 -0.02665680 -0.08834820
v 0.02841300 0.01556880 -0.04784270
v 0.02892750 0.01374480 -0.04736270
v 0.02577590 0.01097600 -0.04838670
v 0.02804570 0.01110880 -0.04779150
v 0.02733660 0.01749760 -0.04866990
v 0.02799680 0.01719760 -0.05078980
v 0.02852640 0.01678160 -0.05292440
v 0.03078580 0.01421520 -0.05602440
v -0.02021210 0.00193360 -0.04303700
v -0.01986340 -0.00001120 -0.04009750
v -0.02170980 0.00424400 -0.03940320
v -0.02066890 0.01187920 -0.03702680
v -0.02575020 0.01535360 -0.03803810
v -0.05975320 -0.00204320 -0.05244360
v -0.04867470 0.00813040 -0.04419290
v -0.03429710 0.01708880 -0.03149010
v -0.03383360 0.01972560 -0.03560220
v -0.02731430 0.01912560 -0.03641400
v -0.06479240 -0.00849440 -0.05778280
v -0.07048370 -0.01384960 -0.07106070
v -0.06830260 -0.01164960 -0.06443210
v -0.06580100 -0.01452080 -0.07534170
v -0.07041080 -0.01532720 -0.07158620
v -0.01944350 -0.00228400 -0.04049000
v -0.01880570 -0.00480000 -0.04110480
v -0.01452710 -0.00532080 -0.03953470
v -0.01694500 -0.00624160 -0.04096400
v -0.01221760 -0.00164080 -0.03194500
v -0.01527720 -0.00783920 -0.04028780
v -0.01228140 -0.00721600 -0.03035600
v -0.01229870 -0.00439360 -0.03097410
v -0.00907220 -0.00187520 -0.02990230
v 0.00810150 0.00189920 -0.04750040
v 0.00703650 0.00282640 -0.04873650
v 0.00916220 0.00010080 -0.04579190
v 0.00860490 0.00019920 -0.04507770
v 0.00736060 0.00297440 -0.04435840
v 0.00492990 -0.00078400 -0.04291450
v 0.00660930 0.00117920 -0.04395420
v 0.00048070 0.00250000 -0.03993170
v 0.00282480 0.00071280 -0.04163400
v -0.00310450 0.00193600 -0.03643840
v -0.00426990 -0.00110160 -0.03427500
v -0.00786900 -0.00227840 -0.03014100
v 0.02531980 0.00919840 -0.05080300
v 0.02414880 0.00879920 -0.05357520
v 0.00232920 -0.02168480 -0.04158570
v 0.00544170 -0.01251120 -0.04674130
v 0.01064470 -0.01117520 -0.04404240
v 0.00783360 -0.01624480 -0.04268290
v 0.00665260 -0.00875760 -0.04684630
v 0.00701400 -0.00613600 -0.04738290
v 0.00830990 -0.00106240 -0.04744280
v 0.00896640 -0.00353600 -0.04690890
v 0.00759820 0.00063760 -0.04803720
v 0.03039500 0.00860320 -0.05542770
v 0.02864400 0.00880640 -0.05602780
v 0.03096930 0.00951360 -0.05567680
v 0.02928820 0.00785760 -0.05445200
v 0.02846850 0.00790960 -0.05293040
v -0.02475980 -0.05590800 -0.04655420
v -0.02074510 -0.04950800 -0.04362300
v -0.02306440 -0.05314160 -0.04405680
v -0.03017220 -0.06603840 -0.05063730
v -0.02866880 -0.06292400 -0.05041400
v -0.02305160 -0.05332960 -0.04202770
v -0.02824760 -0.06268240 -0.04741440
v -0.03285310 -0.07176000 -0.04667480
v -0.04093540 -0.08664880 -0.04638930
v -0.04191400 -0.09161360 -0.05119410
v -0.04516250 -0.10279040 -0.05061690
v -0.04701870 -0.10570720 -0.05108440
v -0.06724180 -0.12254720 -0.05753980
v -0.07205530 -0.11927040 -0.06123930
v -0.06620900 -0.12291120 -0.05389570
v -0.05728900 -0.11679760 -0.05056950
v -0.06279920 -0.12135840 -0.05233470
v -0.05103360 -0.11058560 -0.05066290
v -0.08704640 -0.05496720 -0.08576700
v -0.08523710 -0.06236560 -0.08411170
v -0.08675490 -0.05544400 -0.08719840
v -0.07880270 -0.10478880 -0.06695400
v -0.08035540 -0.10113040 -0.06774140
v -0.07717440 -0.11296480 -0.06257420
v -0.07434790 -0.11768400 -0.06128920
v -0.08494290 -0.07609680 -0.07675480
v -0.08315600 -0.08842800 -0.07182610
v -0.08549000 -0.06607680 -0.08293830
v -0.08630790 -0.05862880 -0.08360780
v -0.08607180 -0.06616480 -0.08218850
v -0.00711620 -0.02493840 -0.03324150
v -0.01324300 -0.03296720 -0.03781480
v -0.02326490 -0.03424640 -0.05033480
v -0.04624360 -0.07096320 -0.05718650
v -0.02910100 -0.05531120 -0.04393830
v -0.02308620 -0.04890800 -0.04148590
v -0.01466480 -0.02669680 -0.03888650
v -0.02421040 -0.05301120 -0.04207750
v 0.00512840 -0.02066560 -0.03397650
v -0.00843190 -0.01793440 -0.02894080
v 0.00195150 -0.02040880 -0.03018010
v -0.08466890 -0.04409280 -0.08630630
v -0.07600780 -0.02188480 -0.08563720
v -0.05952090 -0.01554480 -0.07607860
v -0.06984920 -0.01862480 -0.08271310
v -0.07237230 -0.02760160 -0.08510070
v 0.02942370 0.01494800 -0.04866680
v 0.02954420 0.01375680 -0.04800080
v 0.02928960 0.01187680 -0.04768990
v 0.02736210 0.01023280 -0.04831810
v 0.02933460 0.01001520 -0.04834720
v 0.02932610 0.01553920 -0.05066640
v 0.02986900 0.01532960 -0.05255940
v 0.03099180 0.01381040 -0.05222670
v 0.03165490 0.01305360 -0.05466960
v 0.03157750 0.00914960 -0.05460910
v 0.03141560 0.01342320 -0.05364310
v -0.02208750 -0.00067360 -0.03830890
v -0.02149070 0.00262240 -0.03747580
v -0.01997350 0.01104880 -0.03564610
v -0.01644530 0.01915120 -0.03544860
v -0.02076130 0.02237840 -0.03548640
v -0.06242640 -0.01177920 -0.05672640
v -0.05789560 -0.00584400 -0.05171140
v -0.04716270 0.00717680 -0.04228400
v -0.04504570 0.00137520 -0.04726650
v -0.02648710 0.01990320 -0.02476470
v -0.02547570 -0.00071520 -0.03609580
v -0.02382870 0.01556240 -0.02368060
v -0.02414610 0.00573360 -0.03105620
v -0.01928140 0.02555840 -0.02704830
v -0.02042490 0.02534160 -0.02906590
v -0.01689330 0.02284960 -0.01533530
v -0.02427890 0.02344400 -0.03394420
v -0.01925490 0.02552160 -0.03134480
v -0.06571660 -0.01482480 -0.06193060
v -0.05851880 -0.01241520 -0.07212570
v -0.05835870 -0.01104960 -0.06730280
v -0.02094390 -0.00399360 -0.04032810
v -0.02312030 -0.01410160 -0.04806110
v -0.02031600 -0.01582640 -0.04741530
v -0.00980980 -0.00455440 -0.02894270
v -0.01382580 -0.02384720 -0.03776140
v -0.01164630 -0.01607840 -0.03011860
v -0.00992500 -0.01053520 -0.02864020
v -0.01079630 -0.00724320 -0.02902040
v -0.00899130 -0.00465120 -0.02875040
v 0.00984910 -0.00341520 -0.04612760
v 0.00999120 -0.00304000 -0.04556020
v 0.00829420 -0.00257440 -0.04442880
v -0.00004180 -0.00063360 -0.03891130
v 0.00497140 -0.00682640 -0.04143070
v 0.00866350 -0.00586240 -0.04421890
v -0.00582460 -0.00336880 -0.03162970
v -0.00219060 -0.00286720 -0.03572910
v -0.00798800 -0.00490000 -0.02912940
v 0.02785550 0.00844320 -0.05096480
v 0.00720750 -0.01961280 -0.03881300
v 0.00979000 -0.00851120 -0.04568350
v 0.01086770 -0.01101360 -0.04368640
v 0.01040590 -0.01320080 -0.04257540
v 0.01088170 -0.00858720 -0.04446870
v 0.01059410 -0.00876240 -0.04489600
v 0.00990030 -0.01507360 -0.04120750
v 0.01048200 -0.00630400 -0.04559230
v 0.03085920 0.00786640 -0.05423600
v 0.02983720 0.00822960 -0.05148830
v -0.03119120 -0.06852240 -0.04772060
v -0.02971300 -0.06572160 -0.04789140
v -0.03192300 -0.06572800 -0.04278300
v -0.03067860 -0.06618240 -0.04313380
v -0.02768150 -0.05588960 -0.04276990
v -0.03437360 -0.07155120 -0.04514440
v -0.03184400 -0.06901200 -0.04490530
v -0.04824030 -0.09019280 -0.04831790
v -0.05014600 -0.10686240 -0.04873820
v -0.03626860 -0.07142000 -0.04412720
v -0.04420770 -0.10023600 -0.04826550
v -0.04672720 -0.10555200 -0.04977690
v -0.06895590 -0.12333840 -0.05523610
v -0.07100480 -0.12229120 -0.05685200
v -0.07302840 -0.12081200 -0.05844500
v -0.06861000 -0.12257600 -0.05406240
v -0.06595550 -0.12191120 -0.05265590
v -0.06873330 -0.11917120 -0.05281350
v -0.06505650 -0.09929040 -0.05686730
v -0.05066890 -0.10987600 -0.04944370
v -0.06428390 -0.12030640 -0.05165030
v -0.08637760 -0.06254640 -0.08405950
v -0.07851650 -0.10741840 -0.06330200
v -0.07532190 -0.11687520 -0.05898000
v -0.07535110 -0.11741680 -0.06034700
v -0.08374880 -0.07952800 -0.07394570
v -0.03086720 -0.02265200 -0.05555870
v -0.02211850 -0.02455600 -0.05051030
v -0.07641720 -0.11052800 -0.05956280
v -0.05184510 -0.02766240 -0.06794080
v -0.03641380 -0.06769920 -0.04517910
v -0.03315240 -0.06519040 -0.04324780
v -0.02531660 -0.05264720 -0.04224320
v 0.00945070 -0.01711440 -0.03772040
v 0.00755740 -0.01824400 -0.03480540
v -0.00527390 -0.01383680 -0.02764860
v -0.00049930 -0.01661920 -0.02913910
v 0.00239590 -0.01830720 -0.03020310
v -0.06877020 -0.02197360 -0.08373690
v -0.03706140 -0.01359120 -0.05809310
v 0.02988660 0.01187600 -0.04833940
v 0.03079930 0.01090000 -0.04927300
v 0.03046730 0.01392960 -0.05053990
v 0.02956100 0.00893840 -0.04986060
v 0.03034450 0.01044480 -0.04879750
v 0.03064320 0.00978800 -0.04987720
v 0.03098870 0.01220320 -0.05049490
v 0.03189450 0.01171040 -0.05326530
v 0.03098150 0.00856400 -0.05303150
v 0.03167450 0.00970880 -0.05321800
v -0.02327420 0.00048160 -0.03657140
v -0.02068500 0.00593600 -0.03560950
v -0.02081090 0.00661680 -0.03220330
v -0.01438550 0.01694240 -0.03361850
v -0.01920860 0.01005440 -0.03380540
v -0.01375130 0.02078240 -0.03495790
v -0.01330590 0.01926080 -0.03433430
v -0.01268420 0.02521760 -0.03594870
v -0.00913500 0.02273120 -0.03494920
v -0.05212230 -0.00577680 -0.05705660
v -0.05116670 0.00120320 -0.04720000
v -0.02020060 0.01675120 -0.01967600
v -0.02253640 0.00578240 -0.03148750
v -0.02055100 0.01234800 -0.02444540
v -0.01375470 0.02502000 -0.01341420
v -0.01365530 0.02710320 -0.02445200
v -0.01538940 0.02676960 -0.02593780
v -0.00931030 0.02746800 -0.01361450
v -0.01716330 0.02643520 -0.02904700
v -0.01459630 0.02217280 -0.01401440
v -0.01314930 0.02728800 -0.03463060
v -0.01548700 0.02681760 -0.03139940
v -0.02277190 -0.01978240 -0.05067390
v -0.00922370 -0.00740960 -0.02806280
v -0.00795520 -0.01062320 -0.02757280
v 0.01061110 -0.00597680 -0.04509520
v 0.00286800 -0.00535440 -0.04007280
v 0.00700650 -0.00783600 -0.04249940
v 0.00523910 -0.00976800 -0.04044060
v 0.00111270 -0.00669520 -0.03782670
v 0.00898230 -0.00881600 -0.04329800
v 0.00995460 -0.00849360 -0.04408030
v -0.00376690 -0.00494560 -0.03300350
v -0.00112760 -0.00581200 -0.03565370
v -0.00763270 -0.00757680 -0.02847420
v -0.00408880 -0.00716480 -0.03144800
v -0.00442710 -0.01094320 -0.02928260
v 0.00816800 -0.01266320 -0.04041790
v 0.00747030 -0.01045200 -0.04155690
v 0.00858650 -0.01455840 -0.03913120
v 0.00986380 -0.01465840 -0.04007640
v 0.00999340 -0.01489040 -0.04076120
v 0.03086440 0.00910480 -0.05140990
v -0.03337460 -0.06871120 -0.04344670
v -0.03468920 -0.06823920 -0.04357730
v -0.04652210 -0.10457520 -0.04881060
v -0.07476150 -0.11641520 -0.05754080
v -0.06841200 -0.12152400 -0.05309180
v 0.00733630 -0.01614720 -0.03653350
v 0.00524050 -0.01725520 -0.03351790
v -0.00396730 -0.01381200 -0.02828360
v -0.00628990 -0.01063600 -0.02803730
v -0.00052730 -0.01538320 -0.03016440
v 0.00269740 -0.01648960 -0.03211340
v 0.03117850 0.01059280 -0.05025010
v 0.03191410 0.01089200 -0.05243820
v -0.01872340 0.01175920 -0.02614350
v -0.00898530 0.01995600 -0.03316970
v -0.00639100 0.02028640 -0.02801600
v -0.01373910 0.01650480 -0.03151250
v -0.00880300 0.02133360 -0.03404100
v -0.00543060 0.02675760 -0.03819870
v -0.00710810 0.02336960 -0.03522980
v -0.01771860 0.01321520 -0.02352800
v -0.01410540 0.02039040 -0.01464280
v -0.01097150 0.02259520 -0.01321490
v -0.00806580 0.02877600 -0.02166780
v -0.01248440 0.02766800 -0.02563040
v -0.00997170 0.02813520 -0.02387200
v -0.01174370 0.02812000 -0.02916240
v -0.00125600 0.02829360 -0.01523180
v 0.00066540 0.03079600 -0.01634790
v -0.00613590 0.02952800 -0.02310750
v -0.01339170 0.02759440 -0.03100090
v -0.01002150 0.02852480 -0.03003890
v -0.00931510 0.02844240 -0.03558420
v 0.00328860 -0.01129040 -0.03785980
v 0.00096920 -0.00936160 -0.03649210
v -0.00152080 -0.00847920 -0.03396810
v 0.00088050 -0.01230720 -0.03482020
v 0.00674100 -0.01432480 -0.03801630
v 0.00475950 -0.01560880 -0.03497010
v 0.00175450 -0.01474560 -0.03332010
v -0.00594750 0.02145120 -0.03258900
v -0.00431550 0.02149600 -0.02869300
v -0.00726430 0.01940320 -0.02486750
v -0.00534950 0.02265680 -0.03359650
v 0.00365300 0.02722240 -0.04126950
v -0.00562180 0.02950640 -0.03673040
v -0.00277980 0.02913280 -0.03853380
v -0.00076480 0.02812640 -0.04028040
v 0.00116030 0.02751600 -0.04071840
v 0.00223140 0.02488000 -0.03571640
v -0.00801830 0.02087440 -0.01837170
v 0.00021360 0.02415680 -0.02137840
v -0.00783060 0.02887920 -0.02538910
v -0.00909730 0.02869920 -0.02795590
v 0.00250700 0.02505200 -0.02234570
v 0.00963540 0.03068480 -0.02110020
v 0.00296130 0.03302000 -0.02970360
v 0.00498420 0.03290880 -0.02133480
v -0.00369590 0.03086720 -0.03022890
v 0.00859290 0.03300320 -0.02104370
v -0.00814050 0.02897920 -0.03316340
v -0.00731110 0.02949360 -0.03101110
v 0.00400700 -0.01364880 -0.03654830
v -0.00416530 0.02198400 -0.03149540
v -0.00242520 0.02241680 -0.02954820
v -0.00613000 0.02089600 -0.02208710
v -0.00133230 0.02296240 -0.02395160
v -0.00084950 0.02281040 -0.02738880
v -0.00343100 0.02207200 -0.02312330
v 0.00000310 0.02407600 -0.03420000
v 0.00552630 0.02767840 -0.04186340
v 0.00445590 0.02575520 -0.03755890
v -0.00384340 0.02985200 -0.03706940
v -0.00128820 0.03216880 -0.03355750
v -0.00416890 0.03077840 -0.03319640
v -0.00284870 0.03147680 -0.03316250
v 0.00584920 0.02972080 -0.04204930
v -0.00093230 0.03039600 -0.03816410
v 0.00417990 0.02524560 -0.03398330
v 0.00085950 0.02387760 -0.02482210
v 0.01313530 0.02966800 -0.02757630
v 0.01143660 0.02864720 -0.02961330
v 0.00132780 0.02377040 -0.02868450
v 0.00363920 0.02478800 -0.03028940
v 0.00604340 0.02583200 -0.03236070
v 0.00991730 0.02772240 -0.03205360
v 0.01463440 0.03153440 -0.02568470
v 0.01473150 0.03067440 -0.02628960
v 0.00264260 0.03315680 -0.03176160
v 0.00493440 0.03366160 -0.03205770
v 0.01541010 0.03509520 -0.03438100
v 0.00733070 0.03412720 -0.03566400
v 0.01580530 0.03437760 -0.02757700
v 0.00046690 0.03279040 -0.03372710
v -0.00029130 0.02342960 -0.03086620
v 0.01128890 0.03013040 -0.04221320
v 0.00734630 0.02782480 -0.04164540
v 0.00690640 0.02680640 -0.03920110
v 0.00834370 0.02676640 -0.03447360
v 0.00873310 0.02722240 -0.03781130
v -0.00051840 0.03162880 -0.03641820
v 0.00207750 0.03325600 -0.03468040
v 0.01151670 0.03252720 -0.04097970
v 0.00137600 0.03193520 -0.03719330
v 0.00369900 0.03332080 -0.03622310
v 0.00700220 0.03395680 -0.03646630
v 0.01492310 0.03017040 -0.02944760
v 0.01016800 0.02734400 -0.03615920
v 0.01831240 0.03270800 -0.02998480
v 0.00241820 0.03336000 -0.03393440
v 0.01238560 0.03315760 -0.04001830
v 0.01710430 0.03433200 -0.02858350
v 0.01806930 0.03336000 -0.03674330
v 0.01856560 0.03327760 -0.03342260
v 0.00444530 0.03369120 -0.03541010
v 0.01808830 0.03372080 -0.03001420
v 0.01337020 0.03217440 -0.04120560
v 0.01446480 0.02964320 -0.04023000
v 0.01461020 0.03106560 -0.04095140
v 0.01327920 0.03107920 -0.04166900
v 0.01113760 0.02761120 -0.03705340
v 0.01883090 0.03229760 -0.03335370
v 0.01487080 0.02959280 -0.03318210
v 0.01855640 0.03178480 -0.03673060
v 0.01333100 0.02868720 -0.03540170
v 0.01458230 0.03186240 -0.04085780
v 0.01679670 0.03202320 -0.03906010
v 0.01478810 0.02928880 -0.03681330
v 0.01678480 0.03076880 -0.03882920
f 1 2 3
f 1 4 5
f 1 3 6
f 6 7 1
f 1 7 4
f 5 2 1
f 2 8 3
f 9 2 5
f 2 10 8
f 2 8 10
f 9 10 2
f 11 6 3
f 3 8 11
f 12 4 7
f 13 5 4
f 12 13 4
f 9 5 13
f 14 6 15
f 6 11 16
f 16 15 6
f 14 7 6
f 7 17 12
f 17 7 14
f 18 8 10
f 8 18 19
f 8 19 11
f 8 19 18
f 11 19 8
f 20 9 21
f 20 22 9
f 22 10 9
f 21 9 13
f 10 22 18
f 19 23 11
f 11 23 24
f 16 11 24
f 12 17 25
f 12 25 13
f 26 27 13
f 28 26 13
f 21 13 29
f 29 13 27
f 13 25 28
f 30 14 31
f 15 31 14
f 30 17 14
f 32 15 33
f 15 16 34
f 35 33 15
f 34 35 15
f 32 31 15
f 16 24 36
f 34 16 37
f 16 36 37
f 38 17 30
f 17 38 25
f 19 18 39
f 18 22 40
f 39 18 40
f 39 41 19
f 23 19 42
f 42 19 41
f 20 29 43
f 43 44 20
f 20 44 45
f 46 22 20
f 47 46 20
f 47 20 45
f 21 29 20
f 48 40 22
f 22 46 48
f 42 49 23
f 23 49 24
f 49 50 24
f 36 24 51
f 24 50 52
f 51 24 52
f 28 25 53
f 25 38 53
f 26 54 27
f 26 55 56
f 55 26 28
f 56 54 26
f 57 58 27
f 59 57 27
f 60 29 27
f 61 60 27
f 27 54 59
f 27 58 61
f 28 53 55
f 43 29 60
f 31 62 30
f 30 62 38
f 32 63 31
f 62 31 63
f 33 64 32
f 32 64 63
f 33 65 66
f 67 33 66
f 33 35 65
f 67 64 33
f 37 35 34
f 35 37 65
f 51 37 36
f 68 69 37
f 69 70 37
f 51 71 37
f 37 71 68
f 65 37 70
f 38 72 73
f 74 38 73
f 38 74 53
f 62 72 38
f 39 75 41
f 40 75 39
f 40 76 75
f 48 76 40
f 75 77 41
f 42 41 77
f 77 78 42
f 42 78 49
f 44 43 60
f 44 79 45
f 79 44 61
f 61 44 60
f 80 45 79
f 80 47 45
f 46 81 82
f 48 46 82
f 81 46 47
f 81 47 80
f 48 82 83
f 83 76 48
f 78 50 49
f 50 84 85
f 52 50 85
f 84 50 78
f 52 85 51
f 51 85 86
f 87 51 86
f 68 51 87
f 71 51 68
f 53 74 55
f 54 56 88
f 59 54 88
f 89 56 55
f 90 91 55
f 55 92 90
f 55 91 89
f 92 55 74
f 89 93 56
f 93 88 56
f 94 95 57
f 96 57 95
f 97 57 88
f 59 88 57
f 96 98 57
f 57 98 79
f 58 57 79
f 57 97 94
f 61 58 79
f 62 99 72
f 62 100 99
f 63 100 62
f 67 100 63
f 63 64 67
f 66 65 101
f 101 65 70
f 101 102 66
f 66 102 103
f 103 104 66
f 104 67 66
f 67 105 100
f 104 106 67
f 105 67 106
f 87 107 68
f 107 108 68
f 68 108 69
f 107 109 69
f 69 108 107
f 70 69 109
f 103 70 110
f 111 110 70
f 112 111 70
f 112 70 109
f 70 102 101
f 103 102 70
f 72 99 73
f 74 73 113
f 114 113 73
f 73 115 116
f 116 114 73
f 73 99 115
f 113 92 74
f 117 77 75
f 75 76 117
f 76 83 117
f 77 117 118
f 78 77 118
f 78 118 84
f 119 79 98
f 80 79 120
f 119 120 79
f 81 80 120
f 120 82 81
f 120 83 82
f 121 117 83
f 83 120 121
f 85 84 122
f 123 84 118
f 84 123 122
f 124 125 85
f 126 124 85
f 85 122 126
f 85 125 86
f 127 86 125
f 128 86 129
f 130 129 86
f 128 87 86
f 86 127 131
f 130 86 131
f 87 132 133
f 87 133 134
f 107 87 134
f 128 135 87
f 87 135 132
f 136 97 88
f 137 138 88
f 88 138 136
f 93 139 88
f 88 139 137
f 140 93 89
f 89 91 140
f 90 92 141
f 90 141 91
f 140 91 142
f 142 91 143
f 143 91 141
f 92 113 141
f 93 140 139
f 144 145 94
f 94 145 95
f 94 97 144
f 146 95 145
f 146 96 95
f 147 96 146
f 98 96 147
f 97 136 144
f 148 98 149
f 148 119 98
f 98 147 149
f 100 150 99
f 99 150 115
f 105 150 100
f 103 151 152
f 103 110 151
f 152 153 103
f 103 153 104
f 154 104 155
f 104 154 106
f 156 155 104
f 104 153 156
f 105 157 150
f 105 158 157
f 106 158 105
f 159 106 160
f 159 158 106
f 161 160 106
f 154 161 106
f 134 162 107
f 107 162 109
f 112 109 162
f 163 151 110
f 110 111 163
f 162 111 112
f 111 162 164
f 163 111 164
f 113 114 141
f 114 116 141
f 115 165 166
f 115 150 165
f 166 167 115
f 167 116 115
f 116 167 168
f 168 141 116
f 169 117 121
f 118 117 169
f 118 169 123
f 170 119 171
f 119 170 120
f 119 148 171
f 170 172 120
f 121 120 172
f 169 121 172
f 126 122 123
f 123 173 172
f 174 123 172
f 126 123 175
f 123 169 176
f 173 123 176
f 175 123 174
f 177 125 124
f 178 124 175
f 175 124 126
f 178 177 124
f 125 177 127
f 177 178 127
f 127 178 179
f 131 127 179
f 180 128 181
f 129 182 128
f 182 183 128
f 184 135 128
f 180 184 128
f 181 128 183
f 185 186 129
f 129 130 185
f 187 182 129
f 129 188 189
f 188 129 186
f 189 187 129
f 185 130 131
f 185 131 190
f 179 191 131
f 191 190 131
f 135 192 132
f 133 132 193
f 132 192 194
f 193 132 194
f 195 134 133
f 196 197 133
f 193 196 133
f 133 197 195
f 164 162 134
f 195 198 134
f 134 198 199
f 200 164 134
f 199 200 134
f 192 135 184
f 201 136 202
f 144 136 203
f 201 203 136
f 204 136 138
f 136 204 205
f 206 202 136
f 205 206 136
f 207 204 137
f 137 204 138
f 207 137 208
f 137 139 209
f 208 137 209
f 139 210 209
f 140 211 139
f 139 211 210
f 140 142 212
f 212 211 140
f 168 143 141
f 213 212 142
f 214 213 142
f 143 215 142
f 142 215 214
f 168 216 143
f 217 143 216
f 218 143 217
f 143 218 219
f 215 143 219
f 145 144 220
f 220 144 203
f 145 220 221
f 221 146 145
f 221 147 146
f 222 147 221
f 222 223 147
f 149 147 224
f 224 147 223
f 225 226 148
f 227 225 148
f 149 228 148
f 171 148 226
f 148 228 227
f 228 149 224
f 150 157 165
f 229 152 151
f 163 229 151
f 230 231 152
f 152 229 230
f 153 152 231
f 156 153 231
f 154 155 232
f 232 161 154
f 156 232 155
f 156 231 233
f 156 234 235
f 156 236 232
f 156 233 234
f 235 237 156
f 156 237 236
f 157 158 165
f 159 238 158
f 165 158 238
f 159 239 238
f 160 239 159
f 240 241 160
f 160 161 240
f 241 239 160
f 161 232 236
f 240 161 236
f 163 164 229
f 242 229 164
f 200 242 164
f 243 166 165
f 165 238 243
f 166 243 244
f 216 166 244
f 167 166 216
f 168 167 216
f 172 176 169
f 245 170 246
f 246 170 171
f 247 170 245
f 172 170 247
f 246 171 248
f 226 249 171
f 249 248 171
f 172 247 250
f 251 172 250
f 172 173 176
f 172 252 174
f 253 172 251
f 172 253 252
f 174 252 175
f 175 252 178
f 178 254 179
f 178 252 254
f 255 179 254
f 179 255 191
f 256 184 180
f 257 180 181
f 257 256 180
f 258 181 259
f 258 260 181
f 259 181 183
f 181 260 257
f 183 182 261
f 261 182 187
f 261 259 183
f 184 256 262
f 184 262 192
f 190 263 185
f 185 263 186
f 264 186 265
f 264 188 186
f 263 265 186
f 261 187 259
f 259 187 189
f 188 264 259
f 189 188 259
f 191 266 190
f 263 190 266
f 191 255 266
f 257 194 192
f 192 262 257
f 267 196 193
f 193 194 267
f 268 267 194
f 257 268 194
f 269 195 197
f 270 198 195
f 271 270 195
f 269 271 195
f 267 272 196
f 196 272 197
f 197 273 274
f 269 197 274
f 272 273 197
f 198 270 199
f 275 200 199
f 271 199 270
f 276 275 199
f 271 276 199
f 200 277 278
f 278 242 200
f 200 275 277
f 201 279 203
f 201 202 279
f 202 206 279
f 203 280 220
f 280 203 279
f 204 207 205
f 281 205 282
f 205 207 283
f 282 205 283
f 281 206 205
f 206 281 279
f 208 283 207
f 209 284 208
f 208 284 283
f 285 209 210
f 284 209 285
f 286 210 212
f 211 212 210
f 286 285 210
f 212 213 286
f 286 213 272
f 213 273 272
f 273 213 214
f 215 273 214
f 273 215 274
f 274 215 219
f 216 244 217
f 287 218 217
f 288 289 217
f 217 244 288
f 290 217 289
f 217 290 287
f 291 218 287
f 218 291 271
f 219 218 271
f 274 219 271
f 292 293 220
f 220 294 221
f 295 296 220
f 295 220 297
f 297 220 280
f 296 292 220
f 294 220 293
f 298 221 294
f 221 299 222
f 298 299 221
f 299 300 222
f 223 222 301
f 301 222 300
f 223 301 302
f 227 224 223
f 225 227 223
f 223 303 225
f 223 302 303
f 227 228 224
f 225 303 226
f 304 226 303
f 226 304 305
f 305 306 226
f 226 306 307
f 307 308 226
f 226 308 309
f 226 309 310
f 249 226 310
f 230 229 242
f 230 233 231
f 233 230 234
f 230 235 234
f 235 230 311
f 230 312 311
f 242 313 230
f 313 312 230
f 311 314 235
f 237 235 314
f 237 240 236
f 240 237 314
f 315 316 238
f 239 315 238
f 316 243 238
f 317 315 239
f 241 317 239
f 318 240 319
f 240 318 241
f 314 319 240
f 318 317 241
f 320 242 278
f 320 313 242
f 244 243 316
f 288 244 316
f 321 322 245
f 322 247 245
f 323 245 324
f 245 246 324
f 323 321 245
f 248 325 246
f 325 324 246
f 326 250 247
f 322 326 247
f 327 325 248
f 328 327 248
f 248 249 328
f 328 249 329
f 249 310 330
f 329 249 330
f 251 250 326
f 331 332 251
f 253 251 333
f 333 251 334
f 334 251 332
f 331 251 326
f 254 252 253
f 335 336 253
f 337 338 253
f 337 253 333
f 335 253 338
f 253 336 254
f 336 339 254
f 255 254 340
f 254 339 340
f 255 341 266
f 255 340 341
f 262 256 257
f 342 268 257
f 343 342 257
f 343 257 344
f 260 344 257
f 345 258 259
f 345 344 258
f 258 344 260
f 259 346 345
f 259 264 346
f 263 266 341
f 341 347 263
f 263 347 265
f 348 264 349
f 265 349 264
f 348 346 264
f 350 265 351
f 347 351 265
f 349 265 350
f 286 272 267
f 352 267 268
f 353 285 267
f 267 285 286
f 267 352 353
f 342 352 268
f 269 274 271
f 291 276 271
f 354 277 275
f 275 276 354
f 276 291 355
f 354 276 355
f 354 278 277
f 354 355 278
f 278 356 357
f 356 278 358
f 278 290 358
f 290 278 355
f 320 278 357
f 279 359 280
f 360 279 281
f 359 279 361
f 360 361 279
f 362 297 280
f 362 280 359
f 281 363 360
f 282 363 281
f 282 283 364
f 364 365 282
f 282 365 363
f 284 364 283
f 353 284 285
f 364 284 353
f 287 355 291
f 287 290 355
f 288 315 366
f 288 367 289
f 366 368 288
f 288 368 367
f 288 316 315
f 358 289 367
f 358 290 289
f 292 369 293
f 292 296 370
f 292 370 371
f 371 369 292
f 294 293 372
f 373 372 293
f 293 369 373
f 294 372 374
f 294 374 375
f 376 294 377
f 375 377 294
f 378 298 294
f 379 294 380
f 294 379 381
f 294 381 382
f 294 382 383
f 383 378 294
f 380 294 376
f 384 295 297
f 295 385 386
f 386 387 295
f 387 388 295
f 389 295 384
f 390 296 295
f 388 390 295
f 389 385 295
f 391 296 390
f 391 370 296
f 392 297 362
f 297 393 384
f 393 297 392
f 298 394 299
f 378 395 298
f 309 394 298
f 395 309 298
f 299 396 397
f 299 397 398
f 398 399 299
f 299 399 300
f 396 299 394
f 400 401 300
f 400 300 399
f 300 401 402
f 402 301 300
f 302 301 402
f 402 403 302
f 303 302 403
f 403 304 303
f 403 404 304
f 305 304 404
f 404 400 305
f 305 400 306
f 405 306 406
f 400 406 306
f 405 307 306
f 405 308 307
f 396 309 308
f 397 396 308
f 397 308 405
f 310 309 395
f 394 309 396
f 310 407 408
f 310 408 330
f 310 395 409
f 409 407 310
f 410 311 411
f 412 413 311
f 311 414 314
f 410 414 311
f 411 311 413
f 311 312 412
f 356 412 312
f 312 357 356
f 357 312 320
f 320 312 313
f 414 415 314
f 314 415 319
f 366 315 317
f 317 318 366
f 318 319 416
f 318 417 366
f 416 417 318
f 415 416 319
f 418 321 419
f 419 321 420
f 321 418 322
f 420 321 421
f 323 422 321
f 422 421 321
f 418 326 322
f 323 423 424
f 423 323 324
f 424 425 323
f 323 425 426
f 422 323 427
f 323 426 427
f 428 324 325
f 324 428 423
f 429 430 325
f 325 327 429
f 325 430 428
f 326 419 331
f 418 419 326
f 329 327 328
f 327 329 429
f 431 432 329
f 431 329 330
f 329 432 429
f 408 431 330
f 433 331 419
f 331 433 332
f 334 332 434
f 433 434 332
f 334 435 333
f 333 435 337
f 434 436 334
f 334 436 435
f 335 338 437
f 335 437 336
f 437 339 336
f 337 438 439
f 439 338 337
f 337 435 438
f 440 338 439
f 440 437 338
f 437 340 339
f 437 341 340
f 347 341 441
f 441 341 437
f 442 443 342
f 343 442 342
f 443 352 342
f 343 344 444
f 444 442 343
f 344 445 444
f 345 446 344
f 344 446 445
f 345 346 348
f 348 446 345
f 347 441 351
f 349 447 348
f 447 448 348
f 348 448 446
f 350 449 349
f 447 349 450
f 450 349 449
f 350 451 449
f 351 451 350
f 452 351 453
f 441 453 351
f 452 451 351
f 353 352 443
f 353 443 364
f 454 412 356
f 454 356 455
f 455 356 358
f 455 358 367
f 362 359 456
f 456 359 361
f 363 457 360
f 360 457 458
f 361 360 458
f 456 361 459
f 458 459 361
f 362 456 392
f 365 457 363
f 460 365 364
f 364 461 460
f 364 462 463
f 461 364 463
f 462 364 464
f 464 364 443
f 458 457 365
f 460 458 365
f 465 466 366
f 417 467 366
f 366 467 465
f 466 368 366
f 367 368 466
f 468 367 466
f 367 468 469
f 367 469 455
f 373 369 470
f 369 371 470
f 471 371 370
f 391 471 370
f 472 470 371
f 472 371 471
f 372 473 374
f 474 473 372
f 372 373 474
f 373 470 475
f 373 475 476
f 474 373 476
f 374 477 478
f 478 479 374
f 374 473 477
f 375 374 479
f 375 479 480
f 375 481 377
f 375 480 481
f 482 376 377
f 376 483 380
f 482 483 376
f 377 484 482
f 377 485 486
f 377 486 484
f 485 377 487
f 487 377 481
f 378 488 395
f 489 378 383
f 378 490 488
f 378 489 490
f 379 491 492
f 379 380 491
f 381 379 492
f 493 491 380
f 380 483 494
f 493 380 494
f 495 382 381
f 496 495 381
f 496 381 492
f 497 383 382
f 498 499 382
f 382 495 498
f 382 499 497
f 497 489 383
f 389 384 500
f 384 393 500
f 385 501 386
f 389 501 385
f 386 502 503
f 503 504 386
f 386 504 505
f 387 386 505
f 506 386 501
f 506 502 386
f 388 387 505
f 507 475 388
f 505 507 388
f 475 472 388
f 388 472 471
f 388 471 391
f 388 391 390
f 500 501 389
f 456 508 392
f 393 392 508
f 393 509 500
f 509 393 510
f 393 508 510
f 395 511 409
f 511 395 488
f 398 397 405
f 398 405 406
f 406 399 398
f 400 399 406
f 400 404 401
f 401 404 403
f 402 401 403
f 512 407 409
f 408 407 512
f 513 431 408
f 514 513 408
f 512 514 408
f 512 409 515
f 515 409 511
f 410 516 414
f 411 517 410
f 410 517 516
f 413 518 411
f 517 411 518
f 519 412 454
f 413 412 519
f 413 519 520
f 413 520 518
f 415 414 516
f 521 415 516
f 416 415 521
f 417 416 522
f 416 521 522
f 417 522 523
f 524 525 417
f 417 525 467
f 523 526 417
f 526 524 417
f 527 419 528
f 419 420 528
f 419 527 433
f 528 420 529
f 529 420 421
f 530 529 421
f 530 421 531
f 422 531 421
f 427 531 422
f 532 423 428
f 423 532 533
f 424 423 534
f 423 533 534
f 534 425 424
f 535 425 534
f 425 536 426
f 537 425 535
f 538 425 539
f 425 537 539
f 538 536 425
f 540 541 426
f 426 536 542
f 542 540 426
f 426 543 427
f 543 426 544
f 544 426 541
f 427 543 531
f 428 545 532
f 428 430 545
f 429 432 430
f 545 430 432
f 546 547 431
f 431 513 546
f 432 431 547
f 547 545 432
f 433 548 434
f 433 527 548
f 436 434 549
f 434 548 549
f 436 438 435
f 438 436 550
f 550 436 549
f 551 441 437
f 437 440 551
f 550 552 438
f 439 438 553
f 438 552 553
f 554 555 439
f 439 553 554
f 440 439 555
f 551 440 555
f 453 441 556
f 556 441 551
f 443 442 464
f 442 444 557
f 464 442 557
f 557 444 558
f 444 445 558
f 558 445 559
f 446 559 445
f 448 559 446
f 560 561 447
f 450 560 447
f 561 562 447
f 447 562 559
f 559 448 447
f 451 560 449
f 450 449 560
f 560 451 452
f 453 563 452
f 452 563 564
f 452 564 560
f 556 565 453
f 563 453 565
f 454 566 519
f 455 566 454
f 455 469 566
f 456 567 508
f 567 456 459
f 460 568 458
f 569 570 458
f 458 570 459
f 571 569 458
f 572 571 458
f 572 458 568
f 567 459 573
f 570 573 459
f 460 461 568
f 461 463 574
f 461 574 568
f 464 557 462
f 463 462 557
f 574 463 557
f 465 467 575
f 575 468 465
f 465 468 466
f 467 525 575
f 468 575 576
f 469 468 576
f 469 576 566
f 472 475 470
f 473 577 477
f 578 473 474
f 473 578 577
f 474 476 578
f 579 580 475
f 581 579 475
f 475 507 581
f 580 578 475
f 475 578 476
f 477 582 478
f 582 477 583
f 583 477 577
f 478 584 585
f 584 478 586
f 585 587 478
f 582 586 478
f 479 478 587
f 587 480 479
f 588 481 480
f 480 587 588
f 588 487 481
f 589 590 482
f 482 484 589
f 483 482 591
f 591 482 590
f 591 494 483
f 484 592 589
f 486 593 484
f 484 593 592
f 594 485 595
f 487 596 485
f 485 585 595
f 485 596 585
f 485 594 597
f 486 485 597
f 597 593 486
f 596 487 588
f 498 488 598
f 511 488 498
f 598 488 490
f 598 489 497
f 490 489 598
f 493 492 491
f 599 496 492
f 599 492 493
f 600 599 493
f 600 493 601
f 601 493 494
f 591 601 494
f 498 495 602
f 602 495 496
f 602 496 599
f 499 598 497
f 498 602 511
f 498 598 499
f 552 501 500
f 509 552 500
f 552 506 501
f 503 502 603
f 603 502 604
f 502 506 604
f 503 605 595
f 503 511 602
f 605 503 602
f 595 584 503
f 606 511 503
f 503 603 606
f 586 503 584
f 503 586 607
f 607 504 503
f 608 504 607
f 504 608 581
f 504 609 505
f 504 581 609
f 609 507 505
f 552 604 506
f 507 609 581
f 610 611 508
f 510 508 611
f 508 567 610
f 553 552 509
f 612 554 509
f 509 554 553
f 509 510 613
f 612 509 613
f 611 614 510
f 510 614 613
f 606 515 511
f 515 615 512
f 512 615 514
f 513 615 606
f 615 513 514
f 606 603 513
f 513 616 546
f 513 603 616
f 606 615 515
f 617 618 516
f 516 517 617
f 521 516 619
f 619 516 618
f 617 517 518
f 617 518 520
f 620 520 519
f 566 620 519
f 520 621 617
f 621 520 622
f 622 520 620
f 522 521 619
f 522 619 523
f 523 619 623
f 526 523 623
f 624 525 524
f 524 526 624
f 625 575 525
f 624 626 525
f 525 626 625
f 624 526 623
f 527 537 548
f 528 627 527
f 527 627 537
f 528 628 629
f 627 528 629
f 528 529 628
f 530 630 529
f 630 631 529
f 628 529 631
f 632 530 531
f 633 530 632
f 633 630 530
f 543 634 531
f 531 634 635
f 635 632 531
f 636 532 545
f 636 533 532
f 637 534 533
f 533 636 637
f 534 637 535
f 535 636 616
f 636 535 637
f 535 616 537
f 538 638 536
f 638 542 536
f 549 548 537
f 616 549 537
f 639 539 537
f 537 627 639
f 538 539 640
f 538 640 638
f 640 539 639
f 540 542 641
f 540 642 643
f 644 642 540
f 641 644 540
f 540 643 541
f 544 541 645
f 643 645 541
f 646 641 542
f 638 646 542
f 647 543 544
f 543 647 634
f 648 647 544
f 648 544 645
f 547 636 545
f 547 546 636
f 636 546 616
f 549 616 603
f 603 649 549
f 549 649 550
f 552 550 604
f 604 550 649
f 551 555 650
f 556 551 650
f 612 651 554
f 554 651 555
f 651 650 555
f 556 650 565
f 574 557 558
f 574 558 652
f 558 559 562
f 562 652 558
f 561 560 653
f 653 560 564
f 654 561 655
f 656 655 561
f 653 656 561
f 654 562 561
f 654 657 562
f 658 652 562
f 562 657 658
f 563 659 564
f 659 563 565
f 653 564 656
f 659 660 564
f 660 656 564
f 650 661 565
f 565 662 659
f 661 663 565
f 565 663 662
f 576 620 566
f 567 573 610
f 574 572 568
f 664 569 665
f 666 667 569
f 664 666 569
f 569 571 658
f 665 569 658
f 667 668 569
f 569 668 570
f 668 573 570
f 658 571 652
f 652 571 572
f 652 572 574
f 668 610 573
f 625 576 575
f 669 620 576
f 625 669 576
f 580 577 578
f 580 583 577
f 580 579 670
f 670 579 671
f 608 579 581
f 579 608 671
f 670 583 580
f 586 582 670
f 670 582 583
f 595 585 584
f 596 672 585
f 672 587 585
f 670 671 586
f 607 586 671
f 588 587 672
f 588 672 596
f 589 592 590
f 673 591 590
f 590 592 673
f 600 601 591
f 600 591 673
f 592 674 673
f 593 674 592
f 597 674 593
f 594 673 674
f 594 595 605
f 673 594 605
f 594 674 597
f 599 605 602
f 605 599 600
f 600 673 605
f 649 603 604
f 607 671 608
f 611 610 675
f 610 667 666
f 675 610 666
f 667 610 668
f 676 611 675
f 611 676 614
f 677 612 613
f 612 677 678
f 651 612 678
f 679 677 613
f 614 679 613
f 680 679 614
f 676 680 614
f 617 621 618
f 623 619 618
f 618 681 623
f 618 621 681
f 669 622 620
f 681 621 622
f 681 622 682
f 682 622 669
f 624 623 682
f 681 682 623
f 682 626 624
f 625 626 669
f 626 682 669
f 639 627 629
f 629 628 631
f 631 683 629
f 683 639 629
f 630 684 685
f 630 685 686
f 686 631 630
f 630 633 684
f 686 683 631
f 633 632 635
f 633 635 687
f 684 633 687
f 688 634 647
f 689 634 688
f 689 635 634
f 689 687 635
f 640 690 638
f 691 646 638
f 690 691 638
f 683 640 639
f 640 683 690
f 641 646 692
f 692 644 641
f 693 642 644
f 694 642 695
f 693 695 642
f 643 642 696
f 696 642 694
f 696 645 643
f 692 697 644
f 644 698 699
f 693 644 699
f 698 644 697
f 645 696 700
f 648 645 700
f 692 646 691
f 648 700 647
f 701 647 700
f 702 647 701
f 647 702 688
f 661 650 651
f 651 678 661
f 655 665 654
f 654 665 657
f 655 656 703
f 665 655 703
f 703 656 704
f 704 656 660
f 657 665 658
f 705 660 659
f 659 662 705
f 705 704 660
f 663 661 678
f 662 663 705
f 663 678 677
f 706 663 677
f 706 705 663
f 707 666 664
f 664 703 707
f 664 665 703
f 675 666 707
f 708 675 707
f 708 676 675
f 680 676 708
f 677 679 706
f 679 680 709
f 706 679 709
f 708 709 680
f 683 686 690
f 687 710 684
f 684 711 685
f 684 710 711
f 712 690 685
f 690 686 685
f 712 685 711
f 689 713 687
f 687 713 710
f 689 688 714
f 715 716 688
f 716 717 688
f 702 715 688
f 717 718 688
f 718 714 688
f 714 719 689
f 689 719 713
f 690 720 691
f 690 712 720
f 720 692 691
f 692 720 721
f 721 697 692
f 693 699 722
f 722 695 693
f 696 694 695
f 722 723 695
f 695 723 696
f 696 701 700
f 723 701 696
f 724 725 697
f 721 724 697
f 725 698 697
f 726 698 727
f 728 699 698
f 726 728 698
f 698 729 727
f 729 698 725
f 722 699 728
f 730 702 701
f 731 701 723
f 701 731 730
f 715 702 730
f 703 704 706
f 706 732 703
f 732 707 703
f 706 704 705
f 732 706 709
f 707 732 708
f 708 732 709
f 713 733 710
f 710 733 711
f 733 734 711
f 711 734 712
f 735 720 712
f 736 712 737
f 712 738 735
f 736 738 712
f 734 737 712
f 713 739 733
f 719 739 713
f 714 718 740
f 741 714 740
f 714 741 719
f 742 716 715
f 743 742 715
f 731 744 715
f 730 731 715
f 744 745 715
f 715 745 743
f 716 746 717
f 716 747 746
f 716 742 747
f 746 718 717
f 746 740 718
f 748 719 741
f 748 739 719
f 736 721 720
f 735 738 720
f 720 738 736
f 749 724 721
f 736 749 721
f 728 723 722
f 728 731 723
f 750 724 751
f 724 752 753
f 725 724 750
f 724 749 752
f 724 753 754
f 755 751 724
f 754 755 724
f 756 725 757
f 750 757 725
f 729 725 756
f 728 726 758
f 727 759 726
f 726 759 758
f 760 761 727
f 762 760 727
f 761 759 727
f 727 729 762
f 744 731 728
f 763 743 728
f 758 763 728
f 728 743 745
f 728 745 744
f 756 762 729
f 734 733 739
f 737 734 764
f 764 734 739
f 737 749 736
f 764 752 737
f 749 737 752
f 739 753 752
f 764 739 752
f 753 739 748
f 740 746 765
f 766 740 765
f 741 740 767
f 767 740 766
f 741 768 754
f 748 741 754
f 768 741 769
f 769 741 767
f 770 747 742
f 742 743 770
f 771 770 743
f 763 771 743
f 765 746 772
f 773 746 747
f 746 773 774
f 775 746 774
f 775 772 746
f 770 773 747
f 748 754 753
f 757 750 776
f 750 751 776
f 777 776 751
f 751 755 777
f 768 755 754
f 755 768 777
f 778 756 757
f 762 756 778
f 776 778 757
f 779 763 758
f 758 761 779
f 758 759 761
f 760 780 761
f 762 781 760
f 782 760 783
f 783 760 781
f 782 780 760
f 780 775 761
f 779 761 784
f 784 761 775
f 762 785 781
f 762 778 785
f 779 771 763
f 786 765 772
f 766 765 787
f 788 787 765
f 789 788 765
f 786 789 765
f 769 767 766
f 766 790 769
f 790 766 787
f 769 777 768
f 769 790 777
f 774 770 771
f 773 770 774
f 784 771 779
f 784 774 771
f 780 772 775
f 786 772 780
f 775 774 784
f 778 776 791
f 776 792 793
f 791 776 793
f 794 792 776
f 777 794 776
f 790 794 777
f 785 778 791
f 782 786 780
f 781 785 783
f 795 786 782
f 783 793 782
f 793 796 782
f 796 795 782
f 783 791 793
f 783 785 791
f 795 789 786
f 794 790 787
f 797 794 787
f 787 798 797
f 787 788 798
f 788 795 796
f 798 788 796
f 795 788 789
f 797 793 792
f 792 794 797
f 798 796 793
f 797 798 793

