# File generated by ImageToStl.com - Free Image and 3D model conversion tools

o obj1
v 0.076918 -0.003002 0.015495
v 0.073107 -0.003002 0.010836
v 0.074192 -0.001559 0.012278
v 0.075429 -0.001057 0.01458
v 0.065321 -0.003002 0.008147
v 0.066554 -0.000677 0.011366
v 0.067935 -0.000279 0.015432
v 0.073334 -0.004565 0.012122
v 0.065478 -0.006128 0.009502
v 0.075831 -0.001057 0.016863
v 0.075967 -0.001679 0.019051
v 0.075927 -0.003002 0.020239
v 0.075214 -0.004444 0.019492
v 0.07426 -0.005337 0.017376
v 0.073777 -0.005337 0.014637
v 0.068498 -0.000279 0.018627
v 0.064845 -0.003002 0.012039
v 0.062511 -0.001198 0.013414
v 0.060495 -1.9E-05 0.016587
v 0.06543 -0.004766 0.013003
v 0.061112 -1.9E-05 0.020086
v 0.066216 -0.00832 0.014165
v 0.06631 -0.005856 0.015639
v 0.070689 -0.001039 0.021624
v 0.072656 -0.003002 0.023354
v 0.070314 -0.005767 0.023745
v 0.067316 -0.00832 0.020405
v 0.063738 -0.001639 0.021311
v 0.057195 8.4E-05 0.011065
v 0.059415 -0.003002 0.010458
v 0.055688 0.002834 0.015709
v 0.059894 -0.005447 0.012232
v 0.056895 0.002834 0.022555
v 0.060738 -0.006763 0.016073
v 0.05937 -0.000757 0.024339
v 0.0669 -0.005856 0.018986
v 0.061516 -0.006763 0.020486
v 0.065955 -0.003002 0.02022
v 0.06662 -0.004325 0.020699
v 0.060958 -0.003002 0.021101
v 0.053303 -0.003002 0.00595
v 0.052375 0.000604 0.01058
v 0.05178 0.001666 0.017103
v 0.054055 -0.00737 0.008333
v 0.052746 0.001666 0.022581
v 0.055553 -0.010135 0.014947
v 0.055149 -0.000276 0.026316
v 0.057029 -0.010135 0.023316
v 0.057036 -0.003002 0.027124
v 0.061506 -0.004605 0.02232
v 0.057497 -0.006488 0.027853
v 0.050849 -0.003002 0.009936
v 0.051152 8.4E-05 0.012131
v 0.051135 -0.006128 0.012031
v 0.05292 0.001796 0.022628
v 0.051927 0.001796 0.016998
v 0.051914 -0.00793 0.016922
v 0.052934 -0.00793 0.022705
v 0.053349 -0.003002 0.025997
v 0.053432 -0.000517 0.026003
v 0.05345 -0.005527 0.026102
v 0.052747 -0.003002 0.019757
v 0.071325 -0.003002 -0.013206
v 0.070067 -0.003002 -0.014744
v 0.070425 -0.002526 -0.014268
v 0.070833 -0.00236 -0.013507
v 0.067498 -0.003002 -0.015631
v 0.067905 -0.002235 -0.014569
v 0.068361 -0.002103 -0.013227
v 0.070142 -0.003518 -0.01432
v 0.06755 -0.004033 -0.015184
v 0.070966 -0.00236 -0.012755
v 0.071011 -0.002566 -0.012033
v 0.070998 -0.003002 -0.011642
v 0.070763 -0.003478 -0.011887
v 0.070448 -0.003773 -0.012585
v 0.070288 -0.003773 -0.013489
v 0.068546 -0.002103 -0.012173
v 0.067341 -0.003002 -0.014347
v 0.066571 -0.002406 -0.013893
v 0.065905 -0.002017 -0.012847
v 0.067534 -0.003584 -0.014029
v 0.066109 -0.002017 -0.011691
v 0.067793 -0.004757 -0.013646
v 0.067824 -0.003944 -0.013159
v 0.069269 -0.002354 -0.011183
v 0.069918 -0.003002 -0.010613
v 0.069146 -0.003915 -0.010483
v 0.068156 -0.004757 -0.011586
v 0.066975 -0.002552 -0.011288
v 0.064816 -0.001984 -0.014668
v 0.065549 -0.003002 -0.014868
v 0.064319 -0.001077 -0.013135
v 0.065707 -0.003808 -0.014283
v 0.064717 -0.001077 -0.010876
v 0.065985 -0.004243 -0.013016
v 0.065534 -0.002262 -0.010288
v 0.068019 -0.003944 -0.012055
v 0.066242 -0.004243 -0.011559
v 0.067707 -0.003002 -0.011647
v 0.067927 -0.003439 -0.011489
v 0.066058 -0.003002 -0.011356
v 0.063532 -0.003002 -0.016356
v 0.063226 -0.001812 -0.014827
v 0.063029 -0.001461 -0.012676
v 0.06378 -0.004443 -0.01557
v 0.063348 -0.001461 -0.010867
v 0.064275 -0.005356 -0.013388
v 0.064141 -0.002103 -0.009635
v 0.064762 -0.005356 -0.010625
v 0.064764 -0.003002 -0.009369
v 0.066239 -0.003531 -0.010954
v 0.064916 -0.004153 -0.009127
v 0.062722 -0.003002 -0.015041
v 0.062822 -0.001984 -0.014317
v 0.062817 -0.004033 -0.014349
v 0.063406 -0.001419 -0.010852
v 0.063078 -0.001419 -0.01271
v 0.063074 -0.004628 -0.012735
v 0.06341 -0.004628 -0.010827
v 0.063547 -0.003002 -0.00974
v 0.063575 -0.002182 -0.009739
v 0.06358 -0.003835 -0.009706
v 0.063348 -0.003002 -0.0118
v 0.050654 -0.003002 -0.026062
v 0.049396 -0.003002 -0.0276
v 0.049754 -0.002526 -0.027123
v 0.050162 -0.00236 -0.026364
v 0.046827 -0.003002 -0.028487
v 0.047233 -0.002235 -0.027425
v 0.047689 -0.002103 -0.026083
v 0.049471 -0.003518 -0.027175
v 0.046878 -0.004033 -0.028039
v 0.050295 -0.00236 -0.025611
v 0.05034 -0.002566 -0.024889
v 0.050327 -0.003002 -0.024496
v 0.050091 -0.003478 -0.024743
v 0.049776 -0.003773 -0.025441
v 0.049617 -0.003773 -0.026345
v 0.047875 -0.002103 -0.025029
v 0.046669 -0.003002 -0.027202
v 0.045899 -0.002406 -0.026749
v 0.045234 -0.002017 -0.025702
v 0.046862 -0.003584 -0.026884
v 0.045438 -0.002017 -0.024547
v 0.047122 -0.004757 -0.0265
v 0.047153 -0.003944 -0.026014
v 0.048598 -0.002354 -0.024039
v 0.049247 -0.003002 -0.023468
v 0.048474 -0.003915 -0.02334
v 0.047485 -0.004757 -0.024442
v 0.046304 -0.002552 -0.024142
v 0.044145 -0.001984 -0.027524
v 0.044877 -0.003002 -0.027724
v 0.043647 -0.001077 -0.025992
v 0.045036 -0.003808 -0.027139
v 0.044046 -0.001077 -0.023732
v 0.045314 -0.004243 -0.025872
v 0.044863 -0.002262 -0.023143
v 0.047348 -0.003944 -0.02491
v 0.045571 -0.004243 -0.024415
v 0.047036 -0.003002 -0.024503
v 0.047255 -0.003439 -0.024345
v 0.045387 -0.003002 -0.024212
v 0.04286 -0.003002 -0.029212
v 0.042554 -0.001812 -0.027684
v 0.042358 -0.001461 -0.025531
v 0.043109 -0.004443 -0.028426
v 0.042677 -0.001461 -0.023723
v 0.043603 -0.005356 -0.026242
v 0.04347 -0.002103 -0.022491
v 0.04409 -0.005356 -0.023481
v 0.044093 -0.003002 -0.022224
v 0.045568 -0.003531 -0.02381
v 0.044245 -0.004153 -0.021984
v 0.042051 -0.003002 -0.027896
v 0.042151 -0.001984 -0.027172
v 0.042145 -0.004033 -0.027205
v 0.042407 -0.001419 -0.025566
v 0.042734 -0.001419 -0.023708
v 0.042402 -0.004628 -0.025591
v 0.042739 -0.004628 -0.023682
v 0.042875 -0.003002 -0.022597
v 0.042903 -0.002182 -0.022594
v 0.042909 -0.003835 -0.022562
v 0.042677 -0.003002 -0.024655
v 0.034291 -0.003002 -0.039677
v 0.033033 -0.003002 -0.041215
v 0.033391 -0.002526 -0.040738
v 0.033799 -0.00236 -0.039979
v 0.030464 -0.003002 -0.042102
v 0.03087 -0.002235 -0.04104
v 0.031326 -0.002103 -0.039698
v 0.033108 -0.003518 -0.040791
v 0.030515 -0.004033 -0.041655
v 0.033932 -0.00236 -0.039226
v 0.033977 -0.002566 -0.038504
v 0.033964 -0.003002 -0.038112
v 0.033728 -0.003478 -0.038359
v 0.033413 -0.003773 -0.039057
v 0.033254 -0.003773 -0.039961
v 0.031512 -0.002103 -0.038644
v 0.030306 -0.003002 -0.040818
v 0.029536 -0.002406 -0.040364
v 0.028871 -0.002017 -0.039318
v 0.030499 -0.003584 -0.0405
v 0.029075 -0.002017 -0.038163
v 0.030759 -0.004757 -0.040116
v 0.03079 -0.003944 -0.039631
v 0.032235 -0.002354 -0.037655
v 0.032884 -0.003002 -0.037084
v 0.032111 -0.003915 -0.036956
v 0.031122 -0.004757 -0.038058
v 0.029941 -0.002552 -0.037759
v 0.027782 -0.001984 -0.041139
v 0.028515 -0.003002 -0.04134
v 0.027285 -0.001077 -0.039607
v 0.028673 -0.003808 -0.040754
v 0.027683 -0.001077 -0.037348
v 0.028951 -0.004243 -0.039487
v 0.0285 -0.002262 -0.036759
v 0.030985 -0.003944 -0.038526
v 0.029208 -0.004243 -0.038031
v 0.030673 -0.003002 -0.038118
v 0.030893 -0.003439 -0.03796
v 0.029024 -0.003002 -0.037828
v 0.026498 -0.003002 -0.042827
v 0.026191 -0.001812 -0.0413
v 0.025995 -0.001461 -0.039148
v 0.026746 -0.004443 -0.042041
v 0.026314 -0.001461 -0.03734
v 0.027241 -0.005356 -0.039858
v 0.027107 -0.002103 -0.036107
v 0.027727 -0.005356 -0.037096
v 0.02773 -0.003002 -0.03584
v 0.029205 -0.003531 -0.037426
v 0.027882 -0.004153 -0.035598
v 0.025688 -0.003002 -0.041511
v 0.025788 -0.001984 -0.040788
v 0.025782 -0.004033 -0.04082
v 0.026044 -0.001419 -0.039182
v 0.026371 -0.001419 -0.037323
v 0.026039 -0.004628 -0.039206
v 0.026376 -0.004628 -0.037298
v 0.026513 -0.003002 -0.036212
v 0.02654 -0.002182 -0.03621
v 0.026546 -0.003835 -0.036177
v 0.026314 -0.003002 -0.038271
v 0.019593 -0.003002 -0.051049
v 0.018335 -0.003002 -0.052586
v 0.018693 -0.002526 -0.05211
v 0.019101 -0.00236 -0.051349
v 0.015766 -0.003002 -0.053473
v 0.016173 -0.002235 -0.052411
v 0.016628 -0.002103 -0.051069
v 0.01841 -0.003518 -0.052161
v 0.015817 -0.004033 -0.053025
v 0.019234 -0.00236 -0.050597
v 0.019279 -0.002566 -0.049875
v 0.019266 -0.003002 -0.049482
v 0.019031 -0.003478 -0.049729
v 0.018716 -0.003773 -0.050428
v 0.018556 -0.003773 -0.051331
v 0.016814 -0.002103 -0.050015
v 0.015609 -0.003002 -0.052188
v 0.014839 -0.002406 -0.051735
v 0.014173 -0.002017 -0.050688
v 0.015802 -0.003584 -0.051871
v 0.014377 -0.002017 -0.049533
v 0.016061 -0.004757 -0.051487
v 0.016092 -0.003944 -0.051
v 0.017537 -0.002354 -0.049025
v 0.018186 -0.003002 -0.048455
v 0.017414 -0.003915 -0.048326
v 0.016424 -0.004757 -0.049428
v 0.015243 -0.002552 -0.049128
v 0.013084 -0.001984 -0.05251
v 0.013817 -0.003002 -0.05271
v 0.012587 -0.001077 -0.050977
v 0.013975 -0.003808 -0.052125
v 0.012985 -0.001077 -0.048718
v 0.014253 -0.004243 -0.050858
v 0.013802 -0.002262 -0.04813
v 0.016287 -0.003944 -0.049895
v 0.01451 -0.004243 -0.049401
v 0.015975 -0.003002 -0.049488
v 0.016195 -0.003439 -0.049331
v 0.014327 -0.003002 -0.049197
v 0.0118 -0.003002 -0.054198
v 0.011494 -0.001812 -0.052669
v 0.011297 -0.001461 -0.050517
v 0.012048 -0.004443 -0.053412
v 0.011616 -0.001461 -0.04871
v 0.012543 -0.005356 -0.051228
v 0.012409 -0.002103 -0.047477
v 0.01303 -0.005356 -0.048467
v 0.013032 -0.003002 -0.04721
v 0.014507 -0.003531 -0.048795
v 0.013184 -0.004153 -0.046969
v 0.01099 -0.003002 -0.052883
v 0.01109 -0.001984 -0.052158
v 0.011084 -0.004033 -0.052191
v 0.011674 -0.001419 -0.048694
v 0.011346 -0.001419 -0.050551
v 0.011341 -0.004628 -0.050578
v 0.011678 -0.004628 -0.048669
v 0.011815 -0.003002 -0.047582
v 0.011843 -0.002182 -0.04758
v 0.011848 -0.003835 -0.047548
v 0.011616 -0.003002 -0.049642
v 0.061408 -0.003002 -0.0109
v 0.060635 -0.003002 -0.01435
v 0.06108 -0.001391 -0.013469
v 0.061655 -0.000668 -0.011843
v 0.05903 -0.003002 -0.015036
v 0.059584 -0.00091 -0.01399
v 0.060323 0.000111 -0.011907
v 0.060499 -0.004686 -0.013484
v 0.058884 -0.00531 -0.014219
v 0.061963 -0.000668 -0.010099
v 0.062137 -0.001679 -0.008872
v 0.062142 -0.003002 -0.008607
v 0.061597 -0.004396 -0.00866
v 0.060857 -0.00557 -0.009816
v 0.060519 -0.00557 -0.011732
v 0.060732 0.000111 -0.009584
v 0.055983 -0.00091 -0.013355
v 0.055801 -0.003002 -0.013692
v 0.056442 0.000733 -0.011462
v 0.055711 -0.004781 -0.012798
v 0.056934 0.000733 -0.008674
v 0.058997 -0.006814 -0.011943
v 0.055788 -0.005726 -0.010958
v 0.060864 -0.001222 -0.007904
v 0.060772 -0.003002 -0.007493
v 0.060284 -0.004998 -0.007448
v 0.059499 -0.006814 -0.009096
v 0.057669 -0.001776 -0.008241
v 0.052029 -0.000934 -0.012619
v 0.051657 -0.003002 -0.012865
v 0.052681 0.000733 -0.010799
v 0.05173 -0.00471 -0.011978
v 0.053173 0.000733 -0.008011
v 0.051957 -0.00557 -0.010223
v 0.053069 -0.001776 -0.00743
v 0.056146 -0.005726 -0.008924
v 0.052295 -0.00557 -0.008306
v 0.058017 -0.003002 -0.010012
v 0.057222 -0.003916 -0.008672
v 0.052577 -0.003002 -0.009052
v 0.047636 -0.003002 -0.012737
v 0.047922 -0.000693 -0.012286
v 0.0485 0.001044 -0.010183
v 0.047749 -0.00507 -0.011864
v 0.049032 0.001044 -0.00716
v 0.04807 -0.00627 -0.009806
v 0.049128 -0.001271 -0.005913
v 0.048501 -0.00627 -0.007366
v 0.048857 -0.003002 -0.006749
v 0.052569 -0.003868 -0.00793
v 0.048821 -0.004493 -0.006251
v 0.044876 -0.003002 -0.013414
v 0.045648 -0.000429 -0.012317
v 0.046664 0.000966 -0.009828
v 0.045061 -0.005671 -0.01237
v 0.047187 0.000966 -0.006865
v 0.045523 -0.007282 -0.009747
v 0.047162 -0.000862 -0.004899
v 0.046086 -0.007282 -0.006551
v 0.046835 -0.003002 -0.004648
v 0.046628 -0.005238 -0.004649
v 0.043895 -0.001031 -0.011028
v 0.043541 -0.003002 -0.011628
v 0.04447 0.000266 -0.009171
v 0.043749 -0.004926 -0.010924
v 0.0449 0.000266 -0.006731
v 0.04416 -0.006115 -0.009057
v 0.044901 -0.001367 -0.005324
v 0.04457 -0.006115 -0.006734
v 0.044635 -0.003002 -0.005423
v 0.044728 -0.004589 -0.005372
v 0.044285 -0.003002 -0.007881
v 0.040929 -0.003002 -0.024314
v 0.040302 -0.003002 -0.027108
v 0.040662 -0.001697 -0.026395
v 0.041128 -0.001111 -0.025077
v 0.039001 -0.003002 -0.027664
v 0.039452 -0.001307 -0.026816
v 0.04005 -0.000481 -0.025129
v 0.040192 -0.004365 -0.026406
v 0.038884 -0.004872 -0.027002
v 0.041377 -0.001111 -0.023666
v 0.041519 -0.001931 -0.022671
v 0.041523 -0.003002 -0.022456
v 0.041081 -0.004132 -0.022499
v 0.040483 -0.005082 -0.023435
v 0.040209 -0.005082 -0.024987
v 0.040382 -0.000481 -0.023246
v 0.036535 -0.001307 -0.026302
v 0.036386 -0.003002 -0.026574
v 0.036905 2.3E-05 -0.024769
v 0.036314 -0.004443 -0.02585
v 0.037304 2.3E-05 -0.022511
v 0.038975 -0.006091 -0.025158
v 0.036375 -0.005208 -0.024361
v 0.040487 -0.001561 -0.021886
v 0.040413 -0.003002 -0.021553
v 0.040018 -0.004619 -0.021517
v 0.039382 -0.006091 -0.022853
v 0.0379 -0.002009 -0.02216
v 0.033333 -0.001327 -0.025706
v 0.03303 -0.003002 -0.025904
v 0.03386 2.3E-05 -0.024232
v 0.033089 -0.004385 -0.025187
v 0.034258 2.3E-05 -0.021974
v 0.033274 -0.005082 -0.023764
v 0.034173 -0.002009 -0.021503
v 0.036666 -0.005208 -0.022713
v 0.033547 -0.005082 -0.022212
v 0.038182 -0.003002 -0.023594
v 0.037538 -0.003742 -0.022509
v 0.033774 -0.003002 -0.022816
v 0.029773 -0.003002 -0.025801
v 0.030005 -0.001132 -0.025437
v 0.030473 0.000276 -0.023732
v 0.029864 -0.004677 -0.025094
v 0.030904 0.000276 -0.021285
v 0.030125 -0.005649 -0.023428
v 0.030982 -0.001599 -0.020273
v 0.030474 -0.005649 -0.021452
v 0.030762 -0.003002 -0.02095
v 0.033768 -0.003703 -0.021908
v 0.030733 -0.00421 -0.020547
v 0.027539 -0.003002 -0.026349
v 0.028162 -0.000918 -0.025461
v 0.028986 0.000213 -0.023445
v 0.027688 -0.005164 -0.025504
v 0.029409 0.000213 -0.021046
v 0.028062 -0.006469 -0.023379
v 0.029389 -0.001268 -0.019453
v 0.028519 -0.006469 -0.020791
v 0.029124 -0.003002 -0.019249
v 0.028957 -0.004813 -0.01925
v 0.026743 -0.001405 -0.024417
v 0.026457 -0.003002 -0.024902
v 0.027208 -0.000354 -0.022914
v 0.026624 -0.00456 -0.024332
v 0.027557 -0.000354 -0.020937
v 0.026958 -0.005523 -0.022821
v 0.027558 -0.001677 -0.019797
v 0.02729 -0.005523 -0.020938
v 0.027343 -0.003002 -0.019877
v 0.027417 -0.004287 -0.019835
v 0.027059 -0.003002 -0.021868
v 0.024118 -0.003002 -0.03802
v 0.023566 -0.003002 -0.040537
v 0.02387 -0.001828 -0.039891
v 0.024269 -0.001301 -0.038702
v 0.0225 -0.003002 -0.041056
v 0.022879 -0.001477 -0.040289
v 0.023392 -0.000733 -0.038765
v 0.023487 -0.004229 -0.03991
v 0.022415 -0.004684 -0.040463
v 0.024493 -0.001301 -0.037431
v 0.024623 -0.002038 -0.036538
v 0.02463 -0.003002 -0.036344
v 0.02427 -0.004018 -0.036389
v 0.023769 -0.004874 -0.037238
v 0.023522 -0.004874 -0.038636
v 0.02369 -0.000733 -0.037071
v 0.020517 -0.001477 -0.039872
v 0.020392 -0.003002 -0.04012
v 0.020842 -0.000279 -0.038491
v 0.020344 -0.004299 -0.039469
v 0.0212 -0.000279 -0.036457
v 0.022517 -0.005782 -0.038808
v 0.020418 -0.004988 -0.038132
v 0.023796 -0.001705 -0.035849
v 0.023741 -0.003002 -0.035551
v 0.023422 -0.004457 -0.035525
v 0.022883 -0.005782 -0.036732
v 0.02169 -0.002108 -0.036134
v 0.017674 -0.003002 -0.039569
v 0.017923 -0.001495 -0.039386
v 0.018374 -0.000279 -0.038056
v 0.017734 -0.004247 -0.038923
v 0.018732 -0.000279 -0.036022
v 0.017905 -0.004874 -0.037645
v 0.018671 -0.002108 -0.035602
v 0.020679 -0.004988 -0.036649
v 0.018151 -0.004874 -0.036248
v 0.021896 -0.003002 -0.037416
v 0.02139 -0.003668 -0.036452
v 0.018327 -0.003002 -0.036786
v 0.01503 -0.003002 -0.039526
v 0.015223 -0.001319 -0.039195
v 0.015629 -5.2E-05 -0.037659
v 0.015114 -0.00451 -0.03889
v 0.016017 -5.2E-05 -0.035456
v 0.015351 -0.005385 -0.037392
v 0.016096 -0.00174 -0.034548
v 0.015665 -0.005385 -0.035612
v 0.015907 -0.003002 -0.035159
v 0.018335 -0.003633 -0.035972
v 0.01589 -0.004088 -0.034797
v 0.013205 -0.003002 -0.040052
v 0.013725 -0.001126 -0.039246
v 0.014425 -0.000109 -0.037425
v 0.013339 -0.004947 -0.039292
v 0.014806 -0.000109 -0.035265
v 0.013676 -0.006122 -0.03738
v 0.014814 -0.001442 -0.033836
v 0.014086 -0.006122 -0.035051
v 0.014602 -0.003002 -0.033657
v 0.014467 -0.004633 -0.03366
v 0.012588 -0.001565 -0.03833
v 0.012348 -0.003002 -0.038771
v 0.01299 -0.00062 -0.036975
v 0.012493 -0.004404 -0.038257
v 0.013303 -0.00062 -0.035196
v 0.012786 -0.005271 -0.036895
v 0.013321 -0.00181 -0.034172
v 0.013085 -0.005271 -0.035201
v 0.013146 -0.003002 -0.034248
v 0.013206 -0.004158 -0.03421
v 0.012884 -0.003002 -0.036039
v 0.009906 -0.003002 -0.049476
v 0.009374 -0.003002 -0.051997
v 0.009643 -0.001945 -0.051344
v 0.010007 -0.001471 -0.05015
v 0.008488 -0.003002 -0.052547
v 0.008822 -0.001629 -0.051771
v 0.009289 -0.00096 -0.050241
v 0.00933 -0.004107 -0.051376
v 0.008437 -0.004517 -0.051962
v 0.010231 -0.001471 -0.048878
v 0.010367 -0.002134 -0.047986
v 0.010379 -0.003002 -0.047792
v 0.010083 -0.003917 -0.04785
v 0.009647 -0.004687 -0.04871
v 0.009401 -0.004687 -0.050108
v 0.009588 -0.00096 -0.048546
v 0.006908 -0.001629 -0.051434
v 0.006798 -0.003002 -0.051685
v 0.007219 -0.000551 -0.05005
v 0.00678 -0.004169 -0.05104
v 0.007577 -0.000551 -0.048018
v 0.008575 -0.005503 -0.050311
v 0.006884 -0.004789 -0.049708
v 0.009715 -0.001834 -0.047327
v 0.009679 -0.003002 -0.047034
v 0.009418 -0.004311 -0.047018
v 0.008941 -0.005503 -0.048235
v 0.007987 -0.002197 -0.04768
v 0.004599 -0.003002 -0.051225
v 0.004808 -0.001645 -0.051035
v 0.005219 -0.000551 -0.049697
v 0.004669 -0.004122 -0.050581
v 0.005578 -0.000551 -0.047666
v 0.00485 -0.004687 -0.049305
v 0.005541 -0.002197 -0.047249
v 0.007145 -0.004789 -0.048224
v 0.005096 -0.004687 -0.047908
v 0.008113 -0.003002 -0.048948
v 0.007732 -0.003602 -0.048006
v 0.005222 -0.003002 -0.048438
v 0.002443 -0.003002 -0.051269
v 0.002612 -0.001488 -0.050934
v 0.002993 -0.000348 -0.049393
v 0.002533 -0.004359 -0.050634
v 0.003382 -0.000348 -0.04719
v 0.002775 -0.005146 -0.049135
v 0.003476 -0.001867 -0.046284
v 0.003088 -0.005146 -0.047357
v 0.003302 -0.003002 -0.046899
v 0.005255 -0.003569 -0.047627
v 0.0033 -0.003981 -0.046539
v 0.000937 -0.003002 -0.051852
v 0.001389 -0.001314 -0.051034
v 0.002019 -0.000398 -0.049199
v 0.001071 -0.004753 -0.051091
v 0.0024 -0.000398 -0.047038
v 0.001409 -0.00581 -0.049179
v 0.002453 -0.001598 -0.045618
v 0.001819 -0.00581 -0.04685
v 0.002286 -0.003002 -0.045447
v 0.002175 -0.00447 -0.045454
v 0.000281 -0.003002 -0.050606
v 0.00049 -0.001708 -0.050159
v 0.000861 -0.000857 -0.048798
v 0.000415 -0.004264 -0.05009
v 0.001175 -0.000857 -0.047019
v 0.000699 -0.005044 -0.048727
v 0.001223 -0.00193 -0.046001
v 0.000998 -0.005044 -0.047032
v 0.001078 -0.003002 -0.046082
v 0.001129 -0.004044 -0.046043
v 0.000806 -0.003002 -0.047871
v 0.047797 -0.004823 0.021963
v 0.044341 -0.004467 0.013965
v 0.045759 -0.001364 0.016464
v 0.04702 -0.000443 0.020285
v 0.037773 -0.003313 0.014414
v 0.039792 -0.000188 0.017312
v 0.04155 0.00039 0.021312
v 0.042584 -0.007318 0.017066
v 0.037434 -0.00671 0.017442
v 0.04764 -0.000443 0.023804
v 0.04659 -0.001444 0.027541
v 0.044995 -0.004094 0.029848
v 0.043495 -0.006866 0.028045
v 0.042034 -0.007959 0.024762
v 0.041424 -0.007959 0.021302
v 0.042149 0.00039 0.02471
v 0.031268 0.001296 0.018897
v 0.031891 -0.002248 0.015857
v 0.030455 0.002523 0.023206
v 0.03372 -0.005152 0.019612
v 0.031076 0.002523 0.026725
v 0.037747 -0.00775 0.021764
v 0.036054 -0.004971 0.023094
v 0.041146 -0.000445 0.028541
v 0.039591 -0.003118 0.031105
v 0.03901 -0.006257 0.029205
v 0.038421 -0.00775 0.025586
v 0.033187 0.000376 0.02892
v 0.024947 -0.001004 0.017081
v 0.023915 0.003391 0.018719
v 0.023173 0.006459 0.023363
v 0.025514 -0.003513 0.021345
v 0.024179 0.006459 0.029068
v 0.026558 -0.002746 0.024988
v 0.023113 0.003267 0.032541
v 0.036375 -0.004971 0.024915
v 0.026804 -0.002746 0.026384
v 0.034858 -0.002355 0.029206
v 0.035548 -0.004339 0.027358
v 0.021424 7.8E-05 0.032485
v 0.013196 0.000913 0.013078
v 0.015292 0.005908 0.018396
v 0.016818 0.0065 0.024954
v 0.014273 -0.004108 0.018904
v 0.017663 0.0065 0.029748
v 0.016278 -0.004507 0.025298
v 0.017936 0.004483 0.033945
v 0.017038 -0.004507 0.029608
v 0.017528 0.00086 0.035907
v 0.023949 -0.002305 0.029485
v 0.017292 -0.002736 0.033731
v 0.008349 0.001836 0.015754
v 0.009626 0.006664 0.019886
v 0.010611 0.00805 0.025859
v 0.01007 -0.003549 0.019317
v 0.011521 0.00805 0.031018
v 0.01274 -0.005825 0.025108
v 0.012545 0.00581 0.03551
v 0.013779 -0.005825 0.030995
v 0.012824 0.001731 0.037647
v 0.013434 -0.002803 0.035845
v 0.007857 0.002068 0.020499
v 0.007716 0.005815 0.022477
v 0.007671 0.007919 0.026659
v 0.00761 -0.00108 0.023191
v 0.008484 0.007919 0.031273
v 0.007963 -0.002118 0.02714
v 0.009356 0.005247 0.034146
v 0.008594 -0.002118 0.030721
v 0.009686 0.002174 0.034352
v 0.009228 -0.000405 0.033473
v 0.011097 0.001748 0.028434
v 0.038761 -0.005388 -0.006907
v 0.037833 -0.005332 -0.01033
v 0.038855 -0.003667 -0.00955
v 0.03984 -0.002975 -0.007997
v 0.034831 -0.004823 -0.010769
v 0.036133 -0.002661 -0.009855
v 0.037414 -0.001671 -0.007867
v 0.037106 -0.007075 -0.00936
v 0.033976 -0.007251 -0.009827
v 0.040147 -0.002975 -0.006252
v 0.04009 -0.004068 -0.004984
v 0.039807 -0.005501 -0.004668
v 0.038491 -0.006843 -0.004586
v 0.037025 -0.007944 -0.005614
v 0.036687 -0.007944 -0.00753
v 0.037824 -0.001671 -0.005544
v 0.029041 -0.001391 -0.008605
v 0.028345 -0.003638 -0.00885
v 0.029927 0.000364 -0.006787
v 0.027683 -0.005501 -0.007856
v 0.030419 0.000364 -0.003999
v 0.033531 -0.008798 -0.007453
v 0.027348 -0.006449 -0.005943
v 0.037547 -0.003074 -0.003793
v 0.036961 -0.004965 -0.003294
v 0.035629 -0.00698 -0.003101
v 0.034033 -0.008798 -0.004606
v 0.0313 -0.002607 -0.003592
v 0.021242 -2.1E-05 -0.00719
v 0.020166 -0.002171 -0.007312
v 0.02252 0.001691 -0.005481
v 0.019837 -0.004011 -0.006354
v 0.023012 0.001691 -0.002693
v 0.019823 -0.004924 -0.004556
v 0.022238 -0.000985 -0.001994
v 0.027707 -0.006449 -0.00391
v 0.020161 -0.004924 -0.00264
v 0.032035 -0.004175 -0.00543
v 0.030097 -0.004822 -0.003889
v 0.021318 -0.002256 -0.003541
v 0.012344 -0.000788 -0.006515
v 0.013262 0.001666 -0.006175
v 0.014363 0.003498 -0.004163
v 0.012024 -0.003037 -0.005565
v 0.014896 0.003498 -0.001141
v 0.01208 -0.004336 -0.00346
v 0.014436 0.001007 0.000204
v 0.01251 -0.004336 -0.00102
v 0.013719 -0.000845 -0.000553
v 0.020951 -0.003132 -0.002355
v 0.013284 -0.002434 1.5E-05
v 0.007102 0.000114 -0.006753
v 0.008904 0.002732 -0.005838
v 0.010729 0.004062 -0.003492
v 0.006779 -0.002806 -0.00562
v 0.011251 0.004062 -0.000529
v 0.006935 -0.004568 -0.002943
v 0.010531 0.002188 0.00156
v 0.007499 -0.004568 0.000253
v 0.009448 -2.7E-05 0.001945
v 0.008622 -0.002403 0.002053
v 0.005175 0.002752 -0.0042
v 0.004215 0.000679 -0.004693
v 0.006229 0.004086 -0.002429
v 0.004134 -0.001454 -0.003939
v 0.006659 0.004086 1.2E-05
v 0.004396 -0.002783 -0.002046
v 0.006117 0.002383 0.001515
v 0.004806 -0.002783 0.000278
v 0.005309 0.000679 0.001511
v 0.005177 -0.001086 0.001602
v 0.005036 0.00065 -0.00096
v 0.021696 -0.004087 -0.020399
v 0.020799 -0.004037 -0.023828
v 0.021766 -0.002363 -0.023039
v 0.022696 -0.00166 -0.021473
v 0.018081 -0.00358 -0.024317
v 0.019313 -0.001405 -0.02339
v 0.020523 -0.000403 -0.02139
v 0.020127 -0.00579 -0.022867
v 0.017281 -0.006016 -0.023384
v 0.023003 -0.00166 -0.019731
v 0.022955 -0.002754 -0.018465
v 0.022678 -0.004189 -0.018149
v 0.021466 -0.00555 -0.018084
v 0.020102 -0.00667 -0.019129
v 0.019763 -0.00667 -0.021047
v 0.020933 -0.000403 -0.019066
v 0.012929 -0.000263 -0.022264
v 0.012257 -0.002513 -0.022514
v 0.013792 0.001498 -0.020442
v 0.011643 -0.004384 -0.021528
v 0.014283 0.001498 -0.017655
v 0.016892 -0.007574 -0.02102
v 0.011355 -0.005341 -0.019624
v 0.020687 -0.00181 -0.017319
v 0.020133 -0.003707 -0.016828
v 0.018896 -0.005738 -0.016651
v 0.017394 -0.007574 -0.018172
v 0.015037 -0.001451 -0.017225
v 0.00591 0.000968 -0.020987
v 0.004897 -0.001193 -0.02112
v 0.007125 0.002692 -0.019267
v 0.004585 -0.003036 -0.020166
v 0.007617 0.002692 -0.016479
v 0.004586 -0.003952 -0.01837
v 0.006882 1E-05 -0.015787
v 0.011713 -0.005341 -0.01759
v 0.004924 -0.003952 -0.016453
v 0.015647 -0.002995 -0.019041
v 0.013906 -0.003679 -0.017535
v 0.006002 -0.001268 -0.017341
v -0.002152 5.2E-05 -0.020459
v -0.001274 0.002514 -0.020112
v -0.000212 0.004352 -0.018093
v -0.002463 -0.002198 -0.019511
v 0.00032 0.004352 -0.015073
v -0.002402 -0.003499 -0.017408
v -0.000115 0.001857 -0.01373
v -0.001971 -0.003499 -0.014968
v -0.000808 1E-06 -0.014492
v 0.005675 -0.002153 -0.016163
v -0.00122 -0.001592 -0.013928
v -0.00689 0.000865 -0.020786
v -0.005197 0.003502 -0.019852
v -0.003484 0.004852 -0.017487
v -0.007214 -0.002056 -0.019654
v -0.002961 0.004852 -0.014523
v -0.007057 -0.003819 -0.016976
v -0.003611 0.002965 -0.012447
v -0.006494 -0.003819 -0.013781
v -0.004623 0.000738 -0.012075
v -0.005409 -0.001646 -0.011974
v -0.008549 0.003454 -0.018281
v -0.009462 0.001372 -0.018782
v -0.007542 0.004796 -0.016502
v -0.009559 -0.000758 -0.018024
v -0.007112 0.004796 -0.014062
v -0.009311 -0.002085 -0.016129
v -0.007607 0.003086 -0.012566
v -0.008902 -0.002085 -0.013805
v -0.008368 0.001372 -0.012578
v -0.008516 -0.00039 -0.012484
v -0.008658 0.001347 -0.015047
v 0.007358 -0.003276 -0.034371
v 0.00646 -0.003225 -0.037799
v 0.007427 -0.001551 -0.03701
v 0.008358 -0.000848 -0.035447
v 0.003742 -0.002768 -0.038289
v 0.004974 -0.000593 -0.037362
v 0.006184 0.000409 -0.035363
v 0.005789 -0.004978 -0.036839
v 0.002943 -0.005205 -0.037357
v 0.008665 -0.000848 -0.033704
v 0.008616 -0.001942 -0.032437
v 0.00834 -0.003378 -0.032121
v 0.007128 -0.004738 -0.032057
v 0.005762 -0.005857 -0.033103
v 0.005424 -0.005857 -0.035019
v 0.006594 0.000409 -0.033039
v -0.001409 0.000549 -0.036237
v -0.002083 -0.001701 -0.036487
v -0.000547 0.002309 -0.034415
v -0.002696 -0.003572 -0.0355
v -5.6E-05 0.002309 -0.031626
v 0.002552 -0.006763 -0.034992
v -0.002984 -0.004529 -0.033595
v 0.006349 -0.000999 -0.031292
v 0.005794 -0.002894 -0.0308
v 0.004556 -0.004927 -0.030623
v 0.003054 -0.006763 -0.032145
v 0.000699 -0.000639 -0.031197
v -0.008428 0.001781 -0.03496
v -0.009441 -0.000381 -0.035093
v -0.007213 0.003504 -0.03324
v -0.009754 -0.002224 -0.034138
v -0.006721 0.003504 -0.030451
v -0.009753 -0.00314 -0.032343
v -0.007457 0.000821 -0.029759
v -0.002626 -0.004529 -0.031563
v -0.009415 -0.00314 -0.030426
v 0.001308 -0.002184 -0.033014
v -0.000433 -0.002866 -0.031508
v -0.008336 -0.000457 -0.031313
v -0.016491 0.000864 -0.03443
v -0.015612 0.003327 -0.034085
v -0.01455 0.005165 -0.032066
v -0.016803 -0.001387 -0.033483
v -0.014018 0.005165 -0.029044
v -0.01674 -0.002686 -0.03138
v -0.014454 0.00267 -0.027702
v -0.01631 -0.002686 -0.028939
v -0.015147 0.000813 -0.028465
v -0.008665 -0.001341 -0.030135
v -0.015558 -0.00078 -0.027899
v -0.021228 0.001677 -0.034759
v -0.019536 0.004314 -0.033824
v -0.017823 0.005663 -0.031458
v -0.021553 -0.001244 -0.033625
v -0.0173 0.005663 -0.028496
v -0.021395 -0.003007 -0.030949
v -0.01795 0.003777 -0.026419
v -0.020832 -0.003007 -0.027753
v -0.018962 0.001549 -0.026047
v -0.019748 -0.000834 -0.025946
v -0.022888 0.004266 -0.032254
v -0.0238 0.002184 -0.032755
v -0.021881 0.005608 -0.030473
v -0.023898 5.4E-05 -0.031996
v -0.021451 0.005608 -0.028033
v -0.023651 -0.001272 -0.030102
v -0.021945 0.003897 -0.026539
v -0.023241 -0.001272 -0.027778
v -0.022706 0.002184 -0.02655
v -0.022854 0.000423 -0.026456
v -0.022996 0.002159 -0.029019
v -0.004728 -0.00279 -0.046203
v -0.005625 -0.002738 -0.049631
v -0.004659 -0.001064 -0.048841
v -0.003728 -0.000361 -0.047277
v -0.008344 -0.002281 -0.050121
v -0.007112 -0.000106 -0.049192
v -0.005902 0.000896 -0.047193
v -0.006297 -0.004491 -0.048671
v -0.009144 -0.004719 -0.049189
v -0.003421 -0.000361 -0.045534
v -0.00347 -0.001457 -0.044268
v -0.003746 -0.002891 -0.043953
v -0.004958 -0.004251 -0.043888
v -0.006324 -0.005371 -0.044933
v -0.006662 -0.005371 -0.04685
v -0.005492 0.000896 -0.04487
v -0.013496 0.001036 -0.048067
v -0.014169 -0.001214 -0.048319
v -0.012634 0.002796 -0.046246
v -0.014783 -0.003086 -0.047331
v -0.012142 0.002796 -0.043457
v -0.009534 -0.006276 -0.046823
v -0.01507 -0.004043 -0.045427
v -0.005737 -0.000512 -0.043123
v -0.006293 -0.002409 -0.042631
v -0.007529 -0.00444 -0.042454
v -0.009032 -0.006276 -0.043976
v -0.011387 -0.000152 -0.043028
v -0.020514 0.002267 -0.046791
v -0.021528 0.000106 -0.046923
v -0.019299 0.00399 -0.045071
v -0.02184 -0.001737 -0.045969
v -0.018807 0.00399 -0.042282
v -0.021839 -0.002653 -0.044174
v -0.019543 0.001308 -0.04159
v -0.014712 -0.004043 -0.043394
v -0.021501 -0.002653 -0.042256
v -0.010778 -0.001697 -0.044845
v -0.012519 -0.00238 -0.04334
v -0.020423 3E-05 -0.043144
v -0.028578 0.001351 -0.046262
v -0.027698 0.003812 -0.045917
v -0.026637 0.005651 -0.043898
v -0.028889 -0.0009 -0.045314
v -0.026104 0.005651 -0.040876
v -0.028826 -0.002201 -0.043211
v -0.02654 0.003156 -0.039533
v -0.028395 -0.002201 -0.040771
v -0.027232 0.001299 -0.040295
v -0.02075 -0.000854 -0.041965
v -0.027645 -0.000294 -0.03973
v -0.033315 0.002163 -0.04659
v -0.031623 0.0048 -0.045655
v -0.029908 0.00615 -0.04329
v -0.033639 -0.000757 -0.045456
v -0.029385 0.00615 -0.040327
v -0.033481 -0.00252 -0.04278
v -0.030036 0.004264 -0.038251
v -0.032918 -0.00252 -0.039584
v -0.031047 0.002036 -0.037878
v -0.031834 -0.000348 -0.037777
v -0.034973 0.004752 -0.044084
v -0.035886 0.002671 -0.044585
v -0.033966 0.006095 -0.042305
v -0.035984 0.000541 -0.043828
v -0.033536 0.006095 -0.039864
v -0.035737 -0.000786 -0.041933
v -0.034032 0.004384 -0.038369
v -0.035327 -0.000786 -0.039609
v -0.034793 0.002671 -0.038381
v -0.034941 0.000909 -0.038287
v -0.035082 0.002646 -0.040851
f 1 2 3
f 1 3 4
f 5 6 2
f 3 2 6
f 6 7 3
f 4 3 7
f 1 8 2
f 5 2 9
f 8 9 2
f 1 4 10
f 1 10 11
f 1 11 12
f 1 12 13
f 1 13 14
f 1 14 15
f 1 15 8
f 16 10 7
f 4 7 10
f 5 17 6
f 18 6 17
f 6 18 7
f 7 18 19
f 5 9 17
f 20 17 9
f 21 16 19
f 7 19 16
f 9 8 22
f 15 22 8
f 23 20 22
f 9 22 20
f 16 24 10
f 11 10 24
f 24 25 11
f 12 11 25
f 26 13 25
f 12 25 13
f 27 14 26
f 13 26 14
f 22 15 27
f 15 14 27
f 24 16 28
f 21 28 16
f 29 18 30
f 17 30 18
f 31 19 29
f 18 29 19
f 30 17 32
f 20 32 17
f 33 21 31
f 31 21 19
f 32 20 34
f 23 34 20
f 33 35 21
f 28 21 35
f 27 36 22
f 23 22 36
f 37 34 36
f 23 36 34
f 25 24 38
f 38 24 28
f 25 38 26
f 26 38 39
f 26 39 27
f 36 27 39
f 35 40 28
f 28 40 38
f 41 42 30
f 29 30 42
f 29 42 31
f 43 31 42
f 41 30 44
f 32 44 30
f 33 31 45
f 43 45 31
f 44 32 46
f 34 46 32
f 35 33 47
f 45 47 33
f 46 34 48
f 37 48 34
f 47 49 35
f 40 35 49
f 50 37 39
f 36 39 37
f 51 48 50
f 37 50 48
f 40 50 38
f 39 38 50
f 51 50 49
f 50 40 49
f 41 52 42
f 53 42 52
f 41 44 52
f 54 52 44
f 55 45 56
f 45 43 56
f 57 54 46
f 44 46 54
f 46 48 57
f 58 57 48
f 49 47 59
f 60 59 47
f 51 61 48
f 58 48 61
f 51 49 61
f 59 61 49
f 52 62 53
f 53 62 56
f 54 62 52
f 56 62 55
f 57 62 54
f 55 62 60
f 58 62 57
f 60 62 59
f 61 62 58
f 59 62 61
f 63 64 65
f 63 65 66
f 67 68 64
f 65 64 68
f 68 69 65
f 66 65 69
f 63 70 64
f 67 64 71
f 71 64 70
f 63 66 72
f 63 72 73
f 63 73 74
f 63 74 75
f 63 75 76
f 63 76 77
f 63 77 70
f 78 72 69
f 66 69 72
f 67 79 68
f 80 68 79
f 68 80 69
f 81 69 80
f 67 71 79
f 82 79 71
f 83 78 81
f 69 81 78
f 71 70 84
f 70 77 84
f 85 82 84
f 71 84 82
f 78 86 72
f 86 73 72
f 86 87 73
f 74 73 87
f 88 75 87
f 74 87 75
f 89 76 88
f 88 76 75
f 84 77 89
f 76 89 77
f 86 78 90
f 83 90 78
f 91 80 92
f 79 92 80
f 93 81 91
f 80 91 81
f 92 79 94
f 82 94 79
f 95 83 93
f 81 93 83
f 94 82 96
f 85 96 82
f 95 97 83
f 90 83 97
f 89 98 84
f 85 84 98
f 99 96 98
f 85 98 96
f 87 86 100
f 90 100 86
f 87 100 88
f 101 88 100
f 88 101 89
f 98 89 101
f 97 102 90
f 100 90 102
f 103 104 92
f 91 92 104
f 91 104 93
f 93 104 105
f 103 92 106
f 94 106 92
f 95 93 107
f 105 107 93
f 106 94 108
f 96 108 94
f 97 95 109
f 109 95 107
f 108 96 110
f 99 110 96
f 109 111 97
f 102 97 111
f 112 99 101
f 98 101 99
f 113 110 112
f 110 99 112
f 102 112 100
f 100 112 101
f 113 112 111
f 102 111 112
f 103 114 104
f 115 104 114
f 103 106 114
f 116 114 106
f 117 107 118
f 105 118 107
f 119 116 108
f 116 106 108
f 108 110 119
f 110 120 119
f 111 109 121
f 109 122 121
f 113 123 110
f 120 110 123
f 113 111 123
f 121 123 111
f 114 124 115
f 115 124 118
f 116 124 114
f 118 124 117
f 119 124 116
f 117 124 122
f 120 124 119
f 122 124 121
f 123 124 120
f 121 124 123
f 125 126 127
f 125 127 128
f 129 130 126
f 127 126 130
f 130 131 127
f 128 127 131
f 125 132 126
f 129 126 133
f 132 133 126
f 125 128 134
f 125 134 135
f 125 135 136
f 125 136 137
f 125 137 138
f 125 138 139
f 125 139 132
f 131 140 128
f 134 128 140
f 129 141 130
f 142 130 141
f 130 142 131
f 143 131 142
f 129 133 141
f 133 144 141
f 143 145 131
f 140 131 145
f 133 132 146
f 132 139 146
f 147 144 146
f 133 146 144
f 140 148 134
f 148 135 134
f 148 149 135
f 136 135 149
f 150 137 149
f 136 149 137
f 151 138 150
f 137 150 138
f 151 146 138
f 146 139 138
f 148 140 152
f 145 152 140
f 153 142 154
f 141 154 142
f 155 143 153
f 142 153 143
f 154 141 156
f 144 156 141
f 155 157 143
f 145 143 157
f 156 144 158
f 147 158 144
f 157 159 145
f 152 145 159
f 151 160 146
f 160 147 146
f 158 147 161
f 160 161 147
f 149 148 162
f 152 162 148
f 149 162 150
f 163 150 162
f 150 163 151
f 160 151 163
f 159 164 152
f 162 152 164
f 165 166 154
f 153 154 166
f 153 166 155
f 167 155 166
f 165 154 168
f 156 168 154
f 155 167 157
f 157 167 169
f 168 156 170
f 158 170 156
f 159 157 171
f 169 171 157
f 172 170 161
f 158 161 170
f 171 173 159
f 159 173 164
f 174 161 163
f 160 163 161
f 175 172 174
f 161 174 172
f 164 174 162
f 163 162 174
f 175 174 173
f 164 173 174
f 165 176 166
f 177 166 176
f 165 168 176
f 178 176 168
f 179 180 167
f 169 167 180
f 181 178 170
f 168 170 178
f 170 172 181
f 182 181 172
f 173 171 183
f 184 183 171
f 175 185 172
f 182 172 185
f 175 173 185
f 183 185 173
f 176 186 177
f 177 186 179
f 178 186 176
f 179 186 180
f 181 186 178
f 180 186 184
f 182 186 181
f 184 186 183
f 185 186 182
f 183 186 185
f 187 188 189
f 187 189 190
f 191 192 188
f 189 188 192
f 192 193 189
f 190 189 193
f 187 194 188
f 191 188 195
f 194 195 188
f 187 190 196
f 187 196 197
f 187 197 198
f 187 198 199
f 187 199 200
f 187 200 201
f 187 201 194
f 193 202 190
f 196 190 202
f 191 203 192
f 204 192 203
f 192 204 193
f 193 204 205
f 191 195 203
f 206 203 195
f 205 207 193
f 202 193 207
f 195 194 208
f 201 208 194
f 209 206 208
f 195 208 206
f 202 210 196
f 210 197 196
f 210 211 197
f 198 197 211
f 212 199 211
f 198 211 199
f 213 200 212
f 199 212 200
f 213 208 200
f 201 200 208
f 210 202 214
f 207 214 202
f 215 204 216
f 203 216 204
f 217 205 215
f 204 215 205
f 216 203 218
f 206 218 203
f 219 207 217
f 205 217 207
f 218 206 220
f 220 206 209
f 219 221 207
f 214 207 221
f 213 222 208
f 208 222 209
f 223 220 222
f 209 222 220
f 211 210 224
f 214 224 210
f 211 224 212
f 225 212 224
f 212 225 213
f 222 213 225
f 221 226 214
f 226 224 214
f 227 228 216
f 215 216 228
f 215 228 217
f 229 217 228
f 227 216 230
f 218 230 216
f 219 217 231
f 217 229 231
f 230 218 232
f 220 232 218
f 221 219 233
f 233 219 231
f 234 232 223
f 220 223 232
f 233 235 221
f 221 235 226
f 236 223 225
f 222 225 223
f 237 234 236
f 223 236 234
f 226 236 224
f 225 224 236
f 237 236 235
f 226 235 236
f 227 238 228
f 238 239 228
f 227 230 238
f 230 240 238
f 229 241 231
f 231 241 242
f 243 240 232
f 230 232 240
f 232 234 243
f 244 243 234
f 235 233 245
f 233 246 245
f 237 247 234
f 244 234 247
f 237 235 247
f 245 247 235
f 238 248 239
f 239 248 241
f 240 248 238
f 241 248 242
f 243 248 240
f 242 248 246
f 244 248 243
f 246 248 245
f 247 248 244
f 245 248 247
f 249 250 251
f 249 251 252
f 253 254 250
f 251 250 254
f 254 255 251
f 252 251 255
f 249 256 250
f 253 250 257
f 256 257 250
f 249 252 258
f 249 258 259
f 249 259 260
f 249 260 261
f 249 261 262
f 249 262 263
f 249 263 256
f 255 264 252
f 258 252 264
f 253 265 254
f 266 254 265
f 254 266 255
f 267 255 266
f 253 257 265
f 268 265 257
f 267 269 255
f 264 255 269
f 257 256 270
f 270 256 263
f 271 268 270
f 257 270 268
f 264 272 258
f 259 258 272
f 272 273 259
f 260 259 273
f 274 261 273
f 260 273 261
f 275 262 274
f 261 274 262
f 270 263 275
f 262 275 263
f 272 264 276
f 269 276 264
f 277 266 278
f 278 266 265
f 279 267 277
f 266 277 267
f 278 265 280
f 268 280 265
f 281 269 279
f 267 279 269
f 280 268 282
f 271 282 268
f 281 283 269
f 276 269 283
f 270 275 271
f 271 275 284
f 282 271 285
f 284 285 271
f 273 272 286
f 276 286 272
f 273 286 274
f 287 274 286
f 274 287 275
f 284 275 287
f 283 288 276
f 286 276 288
f 289 290 278
f 277 278 290
f 277 290 279
f 291 279 290
f 289 278 292
f 280 292 278
f 279 291 281
f 281 291 293
f 292 280 294
f 282 294 280
f 283 281 295
f 281 293 295
f 296 294 285
f 282 285 294
f 295 297 283
f 288 283 297
f 298 285 287
f 284 287 285
f 299 296 298
f 285 298 296
f 288 298 286
f 287 286 298
f 299 298 297
f 288 297 298
f 289 300 290
f 301 290 300
f 289 292 300
f 302 300 292
f 303 293 304
f 291 304 293
f 305 302 294
f 292 294 302
f 296 306 294
f 305 294 306
f 297 295 307
f 308 307 295
f 299 309 296
f 306 296 309
f 299 297 309
f 307 309 297
f 300 310 301
f 301 310 304
f 302 310 300
f 304 310 303
f 305 310 302
f 303 310 308
f 306 310 305
f 308 310 307
f 309 310 306
f 307 310 309
f 311 312 313
f 311 313 314
f 315 316 312
f 313 312 316
f 316 317 313
f 314 313 317
f 311 318 312
f 319 315 318
f 312 318 315
f 311 314 320
f 311 320 321
f 311 321 322
f 311 322 323
f 311 323 324
f 311 324 325
f 311 325 318
f 326 320 317
f 314 317 320
f 316 315 327
f 328 327 315
f 327 329 316
f 317 316 329
f 315 319 328
f 330 328 319
f 331 326 329
f 329 326 317
f 332 319 325
f 325 319 318
f 319 332 330
f 333 330 332
f 334 321 326
f 320 326 321
f 335 322 334
f 321 334 322
f 336 323 335
f 322 335 323
f 337 324 336
f 336 324 323
f 337 332 324
f 325 324 332
f 331 338 326
f 334 326 338
f 327 328 339
f 340 339 328
f 339 341 327
f 329 327 341
f 328 330 340
f 342 340 330
f 341 343 329
f 331 329 343
f 330 333 342
f 342 333 344
f 338 331 345
f 345 331 343
f 332 337 333
f 337 346 333
f 333 346 344
f 347 344 346
f 348 335 338
f 334 338 335
f 336 335 349
f 348 349 335
f 336 349 337
f 346 337 349
f 348 338 350
f 350 338 345
f 351 352 340
f 339 340 352
f 352 353 339
f 341 339 353
f 354 351 342
f 340 342 351
f 355 343 353
f 341 353 343
f 354 342 356
f 344 356 342
f 357 345 355
f 343 355 345
f 358 356 347
f 344 347 356
f 350 345 359
f 357 359 345
f 349 360 346
f 347 346 360
f 358 347 361
f 360 361 347
f 348 350 349
f 360 349 350
f 361 360 359
f 350 359 360
f 362 363 351
f 352 351 363
f 363 364 352
f 353 352 364
f 362 351 365
f 354 365 351
f 353 364 355
f 366 355 364
f 365 354 367
f 356 367 354
f 368 357 366
f 355 366 357
f 369 367 358
f 356 358 367
f 370 359 368
f 357 368 359
f 369 358 371
f 361 371 358
f 371 361 370
f 370 361 359
f 363 362 372
f 373 372 362
f 364 363 374
f 372 374 363
f 362 365 373
f 365 375 373
f 366 364 376
f 374 376 364
f 365 367 375
f 377 375 367
f 366 376 368
f 368 376 378
f 367 369 377
f 379 377 369
f 368 378 370
f 380 370 378
f 371 381 369
f 379 369 381
f 371 370 381
f 380 381 370
f 373 382 372
f 372 382 374
f 375 382 373
f 374 382 376
f 377 382 375
f 376 382 378
f 379 382 377
f 378 382 380
f 381 382 379
f 380 382 381
f 383 384 385
f 383 385 386
f 387 388 384
f 385 384 388
f 388 389 385
f 386 385 389
f 383 390 384
f 391 387 390
f 390 387 384
f 383 386 392
f 383 392 393
f 383 393 394
f 383 394 395
f 383 395 396
f 383 396 397
f 383 397 390
f 398 392 389
f 386 389 392
f 388 387 399
f 400 399 387
f 399 401 388
f 389 388 401
f 387 391 400
f 402 400 391
f 401 403 389
f 398 389 403
f 404 391 397
f 391 390 397
f 391 404 402
f 405 402 404
f 406 393 398
f 392 398 393
f 407 394 406
f 393 406 394
f 408 395 407
f 394 407 395
f 409 396 408
f 408 396 395
f 404 397 409
f 397 396 409
f 403 410 398
f 406 398 410
f 399 400 411
f 400 412 411
f 411 413 399
f 401 399 413
f 400 402 412
f 414 412 402
f 403 401 415
f 413 415 401
f 402 405 414
f 416 414 405
f 410 403 417
f 403 415 417
f 409 418 404
f 405 404 418
f 405 418 416
f 419 416 418
f 420 407 410
f 406 410 407
f 408 407 421
f 420 421 407
f 408 421 409
f 418 409 421
f 420 410 422
f 410 417 422
f 423 424 412
f 411 412 424
f 424 425 411
f 413 411 425
f 426 423 414
f 412 414 423
f 427 415 425
f 413 425 415
f 426 414 428
f 416 428 414
f 429 417 427
f 427 417 415
f 428 416 430
f 419 430 416
f 422 417 431
f 429 431 417
f 421 432 418
f 419 418 432
f 430 419 433
f 432 433 419
f 420 422 421
f 421 422 432
f 433 432 431
f 422 431 432
f 434 435 423
f 424 423 435
f 435 436 424
f 425 424 436
f 434 423 437
f 426 437 423
f 425 436 427
f 438 427 436
f 437 426 439
f 428 439 426
f 440 429 438
f 427 438 429
f 441 439 430
f 430 439 428
f 442 431 440
f 429 440 431
f 441 430 443
f 433 443 430
f 443 433 442
f 431 442 433
f 435 434 444
f 445 444 434
f 436 435 446
f 444 446 435
f 434 437 445
f 445 437 447
f 436 446 438
f 448 438 446
f 437 439 447
f 447 439 449
f 438 448 440
f 448 450 440
f 441 451 439
f 449 439 451
f 440 450 442
f 452 442 450
f 443 453 441
f 451 441 453
f 443 442 453
f 452 453 442
f 445 454 444
f 444 454 446
f 447 454 445
f 446 454 448
f 449 454 447
f 448 454 450
f 451 454 449
f 450 454 452
f 453 454 451
f 452 454 453
f 455 456 457
f 455 457 458
f 459 460 456
f 457 456 460
f 460 461 457
f 458 457 461
f 455 462 456
f 463 459 462
f 456 462 459
f 455 458 464
f 455 464 465
f 455 465 466
f 455 466 467
f 455 467 468
f 455 468 469
f 455 469 462
f 470 464 461
f 464 458 461
f 460 459 471
f 472 471 459
f 471 473 460
f 461 460 473
f 459 463 472
f 474 472 463
f 475 470 473
f 461 473 470
f 476 463 469
f 462 469 463
f 463 476 474
f 477 474 476
f 478 465 470
f 464 470 465
f 479 466 478
f 465 478 466
f 480 467 479
f 466 479 467
f 481 468 480
f 467 480 468
f 481 476 468
f 469 468 476
f 475 482 470
f 478 470 482
f 483 484 472
f 471 472 484
f 484 485 471
f 473 471 485
f 472 474 483
f 486 483 474
f 473 485 475
f 487 475 485
f 474 477 486
f 488 486 477
f 482 475 489
f 475 487 489
f 476 481 477
f 490 477 481
f 477 490 488
f 491 488 490
f 492 479 482
f 478 482 479
f 480 479 493
f 492 493 479
f 480 493 481
f 481 493 490
f 492 482 494
f 489 494 482
f 495 496 483
f 496 484 483
f 496 497 484
f 485 484 497
f 498 495 486
f 483 486 495
f 499 487 497
f 485 497 487
f 498 486 500
f 488 500 486
f 501 489 499
f 487 499 489
f 502 500 491
f 491 500 488
f 494 489 503
f 501 503 489
f 493 504 490
f 491 490 504
f 502 491 505
f 504 505 491
f 492 494 493
f 504 493 494
f 505 504 503
f 494 503 504
f 506 507 495
f 496 495 507
f 507 508 496
f 497 496 508
f 506 495 509
f 498 509 495
f 497 508 499
f 510 499 508
f 509 498 511
f 511 498 500
f 512 501 510
f 499 510 501
f 513 511 502
f 500 502 511
f 514 503 512
f 501 512 503
f 513 502 515
f 502 505 515
f 515 505 514
f 503 514 505
f 507 506 516
f 506 517 516
f 508 507 518
f 516 518 507
f 506 509 517
f 519 517 509
f 508 518 510
f 520 510 518
f 509 511 519
f 521 519 511
f 510 520 512
f 522 512 520
f 511 513 521
f 523 521 513
f 512 522 514
f 524 514 522
f 515 525 513
f 523 513 525
f 515 514 525
f 524 525 514
f 517 526 516
f 516 526 518
f 519 526 517
f 518 526 520
f 521 526 519
f 520 526 522
f 523 526 521
f 522 526 524
f 525 526 523
f 524 526 525
f 527 528 529
f 527 529 530
f 531 532 528
f 529 528 532
f 530 529 533
f 532 533 529
f 527 534 528
f 535 531 534
f 531 528 534
f 527 530 536
f 527 536 537
f 527 537 538
f 527 538 539
f 527 539 540
f 527 540 541
f 527 541 534
f 542 536 533
f 530 533 536
f 532 531 543
f 544 543 531
f 533 532 545
f 543 545 532
f 531 535 544
f 546 544 535
f 545 547 533
f 533 547 542
f 535 534 548
f 541 548 534
f 535 548 546
f 549 546 548
f 550 537 542
f 536 542 537
f 551 538 550
f 537 550 538
f 552 539 551
f 538 551 539
f 553 540 552
f 539 552 540
f 553 548 540
f 541 540 548
f 547 554 542
f 550 542 554
f 555 556 544
f 543 544 556
f 556 557 543
f 545 543 557
f 544 546 555
f 558 555 546
f 545 557 547
f 559 547 557
f 546 549 558
f 560 558 549
f 554 547 561
f 559 561 547
f 553 562 548
f 549 548 562
f 549 562 560
f 563 560 562
f 564 551 554
f 550 554 551
f 552 551 565
f 564 565 551
f 552 565 553
f 562 553 565
f 564 554 566
f 566 554 561
f 567 568 555
f 556 555 568
f 568 569 556
f 557 556 569
f 567 555 570
f 558 570 555
f 569 571 557
f 559 557 571
f 570 558 572
f 558 560 572
f 573 561 571
f 559 571 561
f 574 572 563
f 560 563 572
f 566 561 575
f 573 575 561
f 565 576 562
f 563 562 576
f 574 563 577
f 576 577 563
f 564 566 565
f 576 565 566
f 577 576 575
f 566 575 576
f 578 579 567
f 568 567 579
f 579 580 568
f 569 568 580
f 578 567 581
f 570 581 567
f 571 569 582
f 580 582 569
f 581 570 583
f 572 583 570
f 584 573 582
f 571 582 573
f 583 572 585
f 574 585 572
f 575 573 586
f 584 586 573
f 585 574 587
f 577 587 574
f 587 577 586
f 586 577 575
f 578 588 579
f 589 579 588
f 579 589 580
f 590 580 589
f 578 581 588
f 591 588 581
f 580 590 582
f 592 582 590
f 581 583 591
f 593 591 583
f 582 592 584
f 594 584 592
f 583 585 593
f 595 593 585
f 584 594 586
f 596 586 594
f 587 597 585
f 595 585 597
f 587 586 597
f 597 586 596
f 588 598 589
f 589 598 590
f 591 598 588
f 590 598 592
f 593 598 591
f 592 598 594
f 595 598 593
f 594 598 596
f 597 598 595
f 596 598 597
f 599 600 601
f 599 601 602
f 603 604 600
f 601 600 604
f 604 605 601
f 602 601 605
f 599 606 600
f 600 606 603
f 607 603 606
f 599 602 608
f 599 608 609
f 599 609 610
f 599 610 611
f 599 611 612
f 599 612 613
f 599 613 606
f 602 605 608
f 614 608 605
f 615 604 616
f 603 616 604
f 617 605 615
f 604 615 605
f 616 603 618
f 607 618 603
f 617 619 605
f 614 605 619
f 606 613 607
f 620 607 613
f 607 620 618
f 621 618 620
f 622 609 614
f 608 614 609
f 623 610 622
f 609 622 610
f 610 623 611
f 624 611 623
f 624 625 611
f 612 611 625
f 625 620 612
f 613 612 620
f 622 614 626
f 619 626 614
f 616 627 615
f 628 615 627
f 629 617 628
f 615 628 617
f 618 630 616
f 616 630 627
f 629 631 617
f 619 617 631
f 621 632 618
f 630 618 632
f 631 633 619
f 626 619 633
f 625 634 620
f 621 620 634
f 621 634 632
f 635 632 634
f 623 622 636
f 626 636 622
f 623 636 624
f 624 636 637
f 624 637 625
f 634 625 637
f 633 638 626
f 626 638 636
f 639 640 627
f 628 627 640
f 640 641 628
f 641 629 628
f 639 627 642
f 627 630 642
f 629 641 631
f 643 631 641
f 642 630 644
f 632 644 630
f 631 643 633
f 645 633 643
f 646 644 635
f 635 644 632
f 647 638 645
f 633 645 638
f 634 637 635
f 637 648 635
f 649 646 648
f 646 635 648
f 638 648 636
f 637 636 648
f 647 649 638
f 648 638 649
f 639 650 640
f 651 640 650
f 641 640 652
f 651 652 640
f 650 639 653
f 653 639 642
f 652 654 641
f 643 641 654
f 653 642 655
f 644 655 642
f 654 656 643
f 645 643 656
f 655 644 657
f 646 657 644
f 656 658 645
f 647 645 658
f 659 657 649
f 646 649 657
f 658 659 647
f 649 647 659
f 650 660 651
f 661 651 660
f 662 652 661
f 651 661 652
f 650 653 660
f 653 663 660
f 654 652 664
f 662 664 652
f 655 665 653
f 665 663 653
f 656 654 666
f 664 666 654
f 655 657 665
f 667 665 657
f 658 656 668
f 666 668 656
f 657 659 667
f 669 667 659
f 659 658 669
f 668 669 658
f 660 670 661
f 661 670 662
f 663 670 660
f 662 670 664
f 665 670 663
f 664 670 666
f 667 670 665
f 666 670 668
f 669 670 667
f 668 670 669
f 671 672 673
f 671 673 674
f 675 676 672
f 673 672 676
f 676 677 673
f 673 677 674
f 671 678 672
f 679 675 678
f 672 678 675
f 671 674 680
f 671 680 681
f 671 681 682
f 671 682 683
f 671 683 684
f 671 684 685
f 671 685 678
f 686 680 677
f 674 677 680
f 676 675 687
f 688 687 675
f 687 689 676
f 677 676 689
f 675 679 688
f 690 688 679
f 689 691 677
f 686 677 691
f 692 679 685
f 678 685 679
f 679 692 690
f 693 690 692
f 694 681 686
f 686 681 680
f 695 682 694
f 694 682 681
f 696 683 695
f 695 683 682
f 697 684 696
f 683 696 684
f 697 692 684
f 685 684 692
f 691 698 686
f 694 686 698
f 687 688 699
f 700 699 688
f 689 687 701
f 699 701 687
f 688 690 700
f 702 700 690
f 691 689 703
f 701 703 689
f 690 693 702
f 702 693 704
f 698 691 705
f 703 705 691
f 697 706 692
f 693 692 706
f 706 707 693
f 693 707 704
f 698 708 694
f 695 694 708
f 695 708 696
f 709 696 708
f 696 709 697
f 706 697 709
f 705 710 698
f 698 710 708
f 711 712 700
f 699 700 712
f 712 713 699
f 701 699 713
f 714 711 702
f 700 702 711
f 713 715 701
f 703 701 715
f 716 714 704
f 702 704 714
f 717 705 715
f 715 705 703
f 718 716 707
f 704 707 716
f 705 717 710
f 719 710 717
f 707 706 720
f 709 720 706
f 718 707 721
f 721 707 720
f 720 709 710
f 708 710 709
f 721 720 719
f 710 719 720
f 722 723 711
f 712 711 723
f 723 724 712
f 724 713 712
f 725 722 714
f 711 714 722
f 715 713 726
f 724 726 713
f 725 714 727
f 716 727 714
f 728 717 726
f 715 726 717
f 727 716 729
f 718 729 716
f 730 719 728
f 717 728 719
f 729 718 731
f 721 731 718
f 731 721 730
f 719 730 721
f 723 722 732
f 733 732 722
f 724 723 734
f 732 734 723
f 722 725 733
f 735 733 725
f 724 734 726
f 736 726 734
f 725 727 735
f 737 735 727
f 726 736 728
f 738 728 736
f 729 739 727
f 737 727 739
f 728 738 730
f 740 730 738
f 731 741 729
f 739 729 741
f 731 730 741
f 740 741 730
f 733 742 732
f 732 742 734
f 735 742 733
f 734 742 736
f 737 742 735
f 736 742 738
f 739 742 737
f 738 742 740
f 741 742 739
f 740 742 741
f 743 744 745
f 743 745 746
f 747 748 744
f 745 744 748
f 748 749 745
f 746 745 749
f 743 750 744
f 751 747 750
f 744 750 747
f 743 746 752
f 743 752 753
f 743 753 754
f 743 754 755
f 743 755 756
f 743 756 757
f 743 757 750
f 749 758 746
f 752 746 758
f 748 747 759
f 760 759 747
f 759 761 748
f 749 748 761
f 747 751 760
f 751 762 760
f 763 758 761
f 749 761 758
f 764 751 757
f 750 757 751
f 751 764 762
f 765 762 764
f 766 753 758
f 752 758 753
f 767 754 766
f 753 766 754
f 768 755 767
f 754 767 755
f 769 756 768
f 755 768 756
f 769 764 756
f 757 756 764
f 763 770 758
f 766 758 770
f 759 760 771
f 772 771 760
f 761 759 773
f 771 773 759
f 760 762 772
f 774 772 762
f 773 775 761
f 763 761 775
f 762 765 774
f 776 774 765
f 770 763 777
f 775 777 763
f 764 769 765
f 778 765 769
f 765 778 776
f 779 776 778
f 770 780 766
f 767 766 780
f 767 780 768
f 781 768 780
f 768 781 769
f 769 781 778
f 777 782 770
f 780 770 782
f 783 784 772
f 772 784 771
f 784 785 771
f 773 771 785
f 786 783 774
f 772 774 783
f 787 775 785
f 773 785 775
f 788 786 776
f 774 776 786
f 789 777 787
f 775 787 777
f 788 776 790
f 779 790 776
f 777 789 782
f 782 789 791
f 779 778 792
f 792 778 781
f 790 779 793
f 792 793 779
f 792 781 782
f 780 782 781
f 793 792 791
f 792 782 791
f 794 795 783
f 784 783 795
f 795 796 784
f 785 784 796
f 794 783 797
f 797 783 786
f 785 796 787
f 796 798 787
f 797 786 799
f 786 788 799
f 800 789 798
f 787 798 789
f 801 799 790
f 788 790 799
f 802 791 800
f 789 800 791
f 801 790 803
f 793 803 790
f 803 793 802
f 791 802 793
f 795 794 804
f 794 805 804
f 796 795 806
f 804 806 795
f 794 797 805
f 797 807 805
f 798 796 808
f 808 796 806
f 797 799 807
f 807 799 809
f 798 808 800
f 810 800 808
f 799 801 809
f 811 809 801
f 800 810 802
f 802 810 812
f 803 813 801
f 811 801 813
f 803 802 813
f 812 813 802
f 805 814 804
f 804 814 806
f 807 814 805
f 806 814 808
f 809 814 807
f 808 814 810
f 811 814 809
f 810 814 812
f 813 814 811
f 812 814 813
f 815 816 817
f 815 817 818
f 819 820 816
f 817 816 820
f 820 821 817
f 818 817 821
f 815 822 816
f 823 819 822
f 816 822 819
f 815 818 824
f 815 824 825
f 815 825 826
f 815 826 827
f 815 827 828
f 815 828 829
f 815 829 822
f 830 824 821
f 818 821 824
f 820 819 831
f 832 831 819
f 831 833 820
f 821 820 833
f 819 823 832
f 832 823 834
f 835 830 833
f 821 833 830
f 836 823 829
f 822 829 823
f 823 836 834
f 837 834 836
f 838 825 830
f 824 830 825
f 839 826 838
f 825 838 826
f 840 827 839
f 826 839 827
f 841 828 840
f 827 840 828
f 841 836 828
f 829 828 836
f 835 842 830
f 838 830 842
f 831 832 843
f 844 843 832
f 833 831 845
f 845 831 843
f 832 834 844
f 846 844 834
f 847 835 845
f 833 845 835
f 834 837 846
f 848 846 837
f 842 835 849
f 847 849 835
f 836 841 837
f 850 837 841
f 850 851 837
f 848 837 851
f 842 852 838
f 839 838 852
f 839 852 840
f 853 840 852
f 840 853 841
f 853 850 841
f 849 854 842
f 852 842 854
f 855 856 844
f 843 844 856
f 856 857 843
f 857 845 843
f 858 855 846
f 844 846 855
f 859 847 857
f 845 857 847
f 860 858 848
f 846 848 858
f 847 859 849
f 861 849 859
f 862 860 851
f 848 851 860
f 849 861 854
f 854 861 863
f 851 850 864
f 853 864 850
f 862 851 865
f 851 864 865
f 864 853 854
f 854 853 852
f 865 864 863
f 854 863 864
f 866 867 855
f 856 855 867
f 867 868 856
f 857 856 868
f 866 855 869
f 858 869 855
f 857 868 859
f 870 859 868
f 869 858 871
f 860 871 858
f 872 861 870
f 861 859 870
f 873 871 862
f 860 862 871
f 874 863 872
f 861 872 863
f 873 862 875
f 875 862 865
f 875 865 874
f 863 874 865
f 867 866 876
f 877 876 866
f 868 867 878
f 876 878 867
f 866 869 877
f 879 877 869
f 870 868 880
f 878 880 868
f 869 871 879
f 881 879 871
f 870 880 872
f 882 872 880
f 871 873 881
f 883 881 873
f 872 882 874
f 884 874 882
f 875 885 873
f 883 873 885
f 875 874 885
f 884 885 874
f 877 886 876
f 876 886 878
f 879 886 877
f 878 886 880
f 881 886 879
f 880 886 882
f 883 886 881
f 882 886 884
f 885 886 883
f 884 886 885
f 887 888 889
f 887 889 890
f 891 892 888
f 889 888 892
f 892 893 889
f 890 889 893
f 887 894 888
f 895 891 894
f 888 894 891
f 887 890 896
f 887 896 897
f 887 897 898
f 887 898 899
f 887 899 900
f 887 900 901
f 887 901 894
f 893 902 890
f 896 890 902
f 892 891 903
f 904 903 891
f 903 905 892
f 893 892 905
f 891 895 904
f 906 904 895
f 905 907 893
f 902 893 907
f 908 895 901
f 894 901 895
f 895 908 906
f 906 908 909
f 910 897 902
f 896 902 897
f 911 898 910
f 897 910 898
f 912 899 911
f 898 911 899
f 913 900 912
f 899 912 900
f 913 908 900
f 901 900 908
f 907 914 902
f 910 902 914
f 903 904 915
f 916 915 904
f 915 917 903
f 905 903 917
f 904 906 916
f 906 918 916
f 917 919 905
f 907 905 919
f 906 909 918
f 920 918 909
f 914 907 921
f 919 921 907
f 908 913 909
f 922 909 913
f 909 922 920
f 923 920 922
f 914 924 910
f 911 910 924
f 911 924 912
f 925 912 924
f 912 925 913
f 922 913 925
f 921 926 914
f 924 914 926
f 927 928 916
f 916 928 915
f 928 929 915
f 917 915 929
f 930 927 918
f 916 918 927
f 929 931 917
f 919 917 931
f 932 930 920
f 920 930 918
f 933 921 931
f 919 931 921
f 932 920 934
f 923 934 920
f 921 933 926
f 935 926 933
f 923 922 936
f 922 925 936
f 934 923 937
f 936 937 923
f 936 925 926
f 926 925 924
f 937 936 935
f 926 935 936
f 938 939 927
f 927 939 928
f 939 940 928
f 929 928 940
f 938 927 941
f 941 927 930
f 929 940 931
f 942 931 940
f 941 930 943
f 932 943 930
f 944 933 942
f 931 942 933
f 945 943 934
f 932 934 943
f 946 935 944
f 944 935 933
f 945 934 947
f 937 947 934
f 947 937 946
f 935 946 937
f 939 938 948
f 949 948 938
f 940 939 950
f 948 950 939
f 938 941 949
f 951 949 941
f 942 940 952
f 950 952 940
f 941 943 951
f 953 951 943
f 942 952 944
f 954 944 952
f 943 945 953
f 955 953 945
f 944 954 946
f 956 946 954
f 947 957 945
f 955 945 957
f 947 946 957
f 956 957 946
f 949 958 948
f 948 958 950
f 951 958 949
f 950 958 952
f 953 958 951
f 952 958 954
f 955 958 953
f 954 958 956
f 957 958 955
f 956 958 957
# Vertices: 958, normals: 0, texture coordinates: 0, faces: 1840

