# File generated by ImageToStl.com - Free Image and 3D model conversion tools

o obj1
v -0.01405915 -0.05487108 -0.03453042
v -0.01113215 -0.06281479 -0.03657995
v -0.00589956 -0.06107143 -0.02946702
v -0.00939137 -0.05423712 -0.03015526
v -0.0087555 -0.05954416 -0.02084762
v -0.0130737 -0.05365418 -0.0244775
v -0.01723692 -0.05103526 -0.02937231
v -0.02354612 -0.04637068 -0.02961332
v -0.02054207 -0.04759642 -0.0249123
v -0.02609852 -0.04853868 -0.02296585
v -0.02719444 -0.04734247 -0.02812459
v -0.02836119 -0.05132221 -0.03024821
v -0.02272214 -0.05040374 -0.032993
v -0.02773814 -0.05224955 -0.02496872
v -0.01863126 -0.39942157 -0.0309687
v -0.02258553 -0.39934489 -0.02719562
v -0.01884579 -0.40202969 -0.02446437
v -0.01645423 -0.40486786 -0.02927268
v -0.01089177 -0.39961427 -0.02430923
v -0.01003377 -0.40140694 -0.03000258
v -0.01305509 -0.39735648 -0.03137717
v -0.02310993 -0.39268982 -0.02638532
v -0.02035757 -0.39457098 -0.02213343
v -0.01822532 -0.39138877 -0.03090296
v -0.00916765 -0.38465101 -0.0185526
v -0.00231976 -0.38398024 -0.02157572
v -0.00384626 -0.39318141 -0.02295254
v -0.00841696 -0.39045927 -0.02016571
v -0.01370407 -0.39377621 -0.02103523
v -0.01622401 -0.38765654 -0.01733262
v -0.02839603 -0.05665782 -0.02322614
v -0.02809483 -0.05773903 -0.03157962
v -0.02472103 -0.05342355 -0.01732275
v -0.00421111 -0.39335984 -0.02930398
v -0.01080335 -0.39149639 -0.03146784
v -0.00187212 -0.38423347 -0.02806444
v -0.00931433 -0.3839905 -0.03085143
v -0.00361729 -0.376243 -0.02682383
v -0.0098952 -0.377009 -0.02966256
v -0.00492126 -0.37635079 -0.02094029
v -0.00717701 -0.37000582 -0.02053121
v -0.00603528 -0.3697837 -0.02581983
v -0.010939 -0.37790245 -0.01726147
v -0.01254158 -0.3710545 -0.01722716
v -0.01775383 -0.37973511 -0.01550539
v -0.01843481 -0.3719129 -0.01597886
v -0.02321444 -0.37975311 -0.0184196
v -0.02289201 -0.37222937 -0.01848108
v -0.02247899 -0.38756156 -0.01976199
v -0.0228765 -0.38493297 -0.02540988
v -0.02246706 -0.37808371 -0.02448468
v -0.01756638 -0.38375744 -0.03028024
v -0.01741746 -0.3771576 -0.0292943
v -0.01754075 -0.37085071 -0.02832854
v -0.02196789 -0.37148473 -0.02384446
v -0.01111372 -0.37055844 -0.02871107
v -0.01183512 -0.36431763 -0.02831859
v -0.01752838 -0.36453095 -0.02763798
v -0.00734972 -0.36372063 -0.02522156
v -0.00811088 -0.35763034 -0.02509393
v -0.01225029 -0.35814837 -0.02804299
v -0.00821965 -0.36368313 -0.02016556
v -0.00907022 -0.35735136 -0.02027216
v -0.01333547 -0.36423847 -0.01731325
v -0.01383403 -0.35760987 -0.01767489
v -0.01880697 -0.3647593 -0.01662399
v -0.01909443 -0.35801449 -0.01714897
v -0.02307255 -0.36516869 -0.0186696
v -0.02327709 -0.35848352 -0.01902313
v -0.02140622 -0.36490387 -0.02343746
v -0.02102187 -0.35847861 -0.02333201
v -0.01742354 -0.35829219 -0.02725171
v -0.01750857 -0.3521021 -0.0268674
v -0.02117826 -0.35218054 -0.02341384
v -0.01263161 -0.35193327 -0.02798787
v -0.01307426 -0.34571642 -0.02809111
v -0.01768478 -0.34592423 -0.02648816
v -0.00883931 -0.35143977 -0.02520018
v -0.00975142 -0.34523711 -0.02527978
v -0.00997991 -0.35112917 -0.020666
v -0.0108514 -0.34496513 -0.02094832
v -0.01443021 -0.35123888 -0.01817045
v -0.01508346 -0.3450824 -0.01864735
v -0.01947028 -0.35161564 -0.01788021
v -0.01991019 -0.34540454 -0.01839763
v -0.02363138 -0.35207826 -0.01940145
v -0.02404954 -0.3458043 -0.01980918
v -0.02143288 -0.34596476 -0.02353751
v -0.02199225 -0.33979079 -0.02374712
v -0.02457604 -0.33967716 -0.02008135
v -0.01818212 -0.33970475 -0.0263468
v -0.01885787 -0.333455 -0.02620897
v -0.02265665 -0.33355835 -0.02387657
v -0.01369782 -0.3394272 -0.02795797
v -0.01448752 -0.33311498 -0.02749679
v -0.01065092 -0.33902264 -0.02524265
v -0.01153609 -0.33279967 -0.02494289
v -0.01165975 -0.33882633 -0.02103673
v -0.01241415 -0.33274382 -0.02088177
v -0.01584293 -0.33900324 -0.01899927
v -0.01649388 -0.33292162 -0.01897673
v -0.02047932 -0.33926818 -0.01864794
v -0.02096034 -0.33310968 -0.01883954
v -0.02508812 -0.33340585 -0.02031315
v -0.02527393 -0.32710245 -0.02046521
v -0.02123902 -0.3268863 -0.01896714
v -0.02326475 -0.32724702 -0.02396986
v -0.02389577 -0.32087013 -0.02401684
v -0.02555595 -0.3207185 -0.02054048
v -0.01954922 -0.32714516 -0.02609097
v -0.02022398 -0.32077098 -0.02599394
v -0.01530489 -0.32679099 -0.02699282
v -0.01608909 -0.32043028 -0.02655314
v -0.01233835 -0.32653907 -0.02455462
v -0.0131499 -0.32023644 -0.02418637
v -0.01311284 -0.32660723 -0.0206282
v -0.01387662 -0.32033095 -0.02042823
v -0.01696694 -0.32677743 -0.01883958
v -0.01737736 -0.32049382 -0.01849693
v -0.02150835 -0.32057375 -0.01905485
v -0.02174958 -0.3141239 -0.01905199
v -0.01778369 -0.31404895 -0.01821119
v -0.02555469 -0.31425971 -0.02070097
v -0.02579348 -0.30767015 -0.02080872
v -0.02208709 -0.30749166 -0.01901538
v -0.02443365 -0.31441584 -0.02413933
v -0.02503822 -0.30782577 -0.02427884
v -0.02083152 -0.31428501 -0.02605251
v -0.02144533 -0.30765674 -0.02617681
v -0.01677492 -0.31397232 -0.02629894
v -0.01739876 -0.30735722 -0.02607229
v -0.01384307 -0.31382686 -0.02395507
v -0.01437232 -0.30722642 -0.02378442
v -0.01447245 -0.3139137 -0.02026664
v -0.01491182 -0.30731475 -0.02012061
v -0.01817947 -0.30742416 -0.01792667
v -0.01849922 -0.30060181 -0.01766204
v -0.01509959 -0.30048743 -0.01992484
v -0.02238814 -0.3006666 -0.01899497
v -0.02261598 -0.29359061 -0.01897544
v -0.01881258 -0.29346386 -0.01760201
v -0.0258498 -0.30075887 -0.0210232
v -0.02588991 -0.29371712 -0.02127354
v -0.02557851 -0.30095041 -0.02443089
v -0.0259522 -0.2939088 -0.02472576
v -0.02198455 -0.3008762 -0.02632625
v -0.02238064 -0.29382449 -0.02656063
v -0.01794993 -0.30058816 -0.02602204
v -0.01840632 -0.29355741 -0.02605018
v -0.01484746 -0.30043063 -0.02369888
v -0.01523515 -0.29337028 -0.02371007
v -0.01554553 -0.29336381 -0.02000045
v -0.01598654 -0.28609297 -0.02014439
v -0.01552972 -0.28619429 -0.02385174
v -0.01918045 -0.28618079 -0.01765554
v -0.0195927 -0.27897552 -0.01769836
v -0.01652813 -0.27893645 -0.02039459
v -0.02296896 -0.28643999 -0.01901724
v -0.02344643 -0.27934375 -0.01903981
v -0.02607735 -0.28665817 -0.02148812
v -0.02637255 -0.27960327 -0.02169664
v -0.02634919 -0.28682637 -0.02499126
v -0.02689894 -0.27979794 -0.0253256
v -0.02275812 -0.28670168 -0.02677564
v -0.02309456 -0.27967271 -0.02697444
v -0.01880164 -0.28645265 -0.02618006
v -0.01912512 -0.27944601 -0.0264438
v -0.01583142 -0.27912313 -0.02407291
v -0.01622903 -0.27217972 -0.02432291
v -0.01937665 -0.27246442 -0.02670281
v -0.0169631 -0.27193734 -0.02068334
v -0.01727266 -0.26501867 -0.02098475
v -0.01633378 -0.26520622 -0.02459839
v -0.01998664 -0.27190316 -0.01785508
v -0.0201844 -0.26495573 -0.01807308
v -0.02382911 -0.27222821 -0.01911032
v -0.02396804 -0.26518035 -0.01940332
v -0.02660449 -0.27252927 -0.02191001
v -0.0267206 -0.26550761 -0.02223772
v -0.02720248 -0.27280641 -0.02567123
v -0.0275444 -0.26588622 -0.02606976
v -0.02330903 -0.27267992 -0.02717723
v -0.02355186 -0.26571581 -0.02746895
v -0.01953759 -0.26544565 -0.02696562
v -0.0196781 -0.25847986 -0.02716994
v -0.02380862 -0.2587184 -0.02775767
v -0.01634453 -0.25821438 -0.02472293
v -0.01634747 -0.25128156 -0.02480895
v -0.0197113 -0.25158507 -0.02736897
v -0.01739706 -0.25806123 -0.02101546
v -0.01764497 -0.25110152 -0.02100522
v -0.02025958 -0.25808161 -0.01790904
v -0.02034136 -0.25110427 -0.01760617
v -0.02412347 -0.25826493 -0.01937802
v -0.02422385 -0.25132009 -0.01914746
v -0.02686185 -0.25851277 -0.02244159
v -0.02694315 -0.25152779 -0.02238584
v -0.02773442 -0.25882891 -0.02630761
v -0.02781605 -0.25174916 -0.02638888
v -0.02390612 -0.25172228 -0.0279507
v -0.02384511 -0.24473894 -0.02802709
v -0.02778015 -0.24473479 -0.02639611
v -0.01964853 -0.24469787 -0.02748531
v -0.01938926 -0.2378287 -0.0276312
v -0.02365622 -0.23779514 -0.02805575
v -0.01626701 -0.24445802 -0.02491038
v -0.01593835 -0.23765373 -0.0250545
v -0.01783859 -0.24416786 -0.02096859
v -0.01770995 -0.23722705 -0.02101154
v -0.02039432 -0.24402276 -0.01752686
v -0.02034845 -0.23691684 -0.01757336
v -0.02437491 -0.24427113 -0.01891983
v -0.02442882 -0.23718908 -0.01885337
v -0.02711767 -0.24453843 -0.02224988
v -0.02722522 -0.23752385 -0.0221901
v -0.02761545 -0.23774335 -0.02638072
v -0.02735548 -0.23076656 -0.02642251
v -0.02729096 -0.2305263 -0.02227386
v -0.02334141 -0.23085225 -0.02807517
v -0.02312114 -0.22385243 -0.0280603
v -0.02716884 -0.22382918 -0.02654892
v -0.01899865 -0.2308926 -0.02796265
v -0.01879098 -0.22382525 -0.0281437
v -0.01562737 -0.23070019 -0.0252946
v -0.01532518 -0.22363704 -0.02546304
v -0.01730579 -0.23027748 -0.02118705
v -0.01701347 -0.223288 -0.02128807
v -0.02018082 -0.22990689 -0.01770359
v -0.01995478 -0.22295094 -0.01783014
v -0.02458946 -0.2301631 -0.01873399
v -0.02459435 -0.22319332 -0.01873139
v -0.02723324 -0.22356382 -0.02234184
v -0.0273302 -0.21659556 -0.02232341
v -0.02467931 -0.21620959 -0.01869335
v -0.02726972 -0.21685225 -0.02669483
v -0.02735015 -0.20973706 -0.02669428
v -0.02747636 -0.20951858 -0.02216027
v -0.02309669 -0.21677324 -0.02804578
v -0.02306565 -0.20964417 -0.02811987
v -0.01879197 -0.21671799 -0.02794229
v -0.01867658 -0.20959482 -0.02758642
v -0.01502786 -0.21664506 -0.0255422
v -0.01465405 -0.20964673 -0.0255103
v -0.01680022 -0.21628559 -0.02134993
v -0.01650953 -0.20928112 -0.02123725
v -0.02003862 -0.21594787 -0.01814288
v -0.02011987 -0.20898506 -0.0184862
v -0.02475938 -0.20917267 -0.01841865
v -0.02476017 -0.20213085 -0.01820457
v -0.02005013 -0.20198828 -0.01855716
v -0.02757597 -0.20239949 -0.02195783
v -0.02765609 -0.19525763 -0.02176711
v -0.02479503 -0.19504005 -0.01799473
v -0.02737787 -0.20257536 -0.02666943
v -0.0273082 -0.19541946 -0.02652309
v -0.02298764 -0.20253721 -0.02815524
v -0.02291923 -0.1953842 -0.02799284
v -0.01850541 -0.20245925 -0.02731203
v -0.01842729 -0.19525251 -0.02714352
v -0.01437574 -0.20240706 -0.02531051
v -0.01408204 -0.19511098 -0.02520724
v -0.0162072 -0.20215094 -0.02108477
v -0.01616153 -0.19492012 -0.02090264
v -0.02011951 -0.19488347 -0.01859595
v -0.02022256 -0.18767169 -0.01863551
v -0.01614961 -0.18767586 -0.02081718
v -0.02489368 -0.18782222 -0.0177205
v -0.02491082 -0.18056467 -0.01784568
v -0.02022818 -0.18040958 -0.01855759
v -0.02766635 -0.18809062 -0.02165057
v -0.02781525 -0.18091658 -0.02162252
v -0.02725746 -0.18829426 -0.02644556
v -0.0274453 -0.1811651 -0.02652232
v -0.02293786 -0.18821722 -0.02808911
v -0.0230835 -0.18100995 -0.02820903
v -0.01840907 -0.1879923 -0.02712325
v -0.01854129 -0.18069682 -0.02690791
v -0.013817 -0.18782219 -0.02524636
v -0.01366541 -0.18052068 -0.02519542
v -0.01602851 -0.18042639 -0.02070127
v -0.01587378 -0.17316362 -0.02059177
v -0.01374227 -0.17320013 -0.02505253
v -0.02028798 -0.17317173 -0.01856493
v -0.02026252 -0.16596001 -0.01867467
v -0.01572204 -0.16594717 -0.02049821
v -0.02502094 -0.17331716 -0.01796111
v -0.02511048 -0.16599432 -0.01795012
v -0.02810317 -0.17366743 -0.02161721
v -0.02819984 -0.16631654 -0.02172009
v -0.0276182 -0.17396125 -0.02654506
v -0.02770885 -0.16663286 -0.02667228
v -0.02328091 -0.17377037 -0.02826613
v -0.0234635 -0.16647676 -0.02821638
v -0.01874227 -0.17339951 -0.02659561
v -0.01893734 -0.16612044 -0.02646426
v -0.01404109 -0.16590175 -0.02483318
v -0.01433835 -0.15864122 -0.02452013
v -0.019016 -0.15884051 -0.02626025
v -0.01538715 -0.15871897 -0.02035359
v -0.01490466 -0.15125614 -0.02004486
v -0.01460341 -0.1512132 -0.0241793
v -0.01994748 -0.15871498 -0.01861297
v -0.01952729 -0.15138489 -0.01846663
v -0.02491787 -0.15864372 -0.01812586
v -0.02464783 -0.15143222 -0.01827703
v -0.02810994 -0.15895915 -0.02187905
v -0.0280146 -0.15169519 -0.02197951
v -0.02765199 -0.15923136 -0.02668741
v -0.02755874 -0.15190119 -0.0266856
v -0.0234491 -0.15911463 -0.02807304
v -0.02335082 -0.15180144 -0.027955
v -0.01901164 -0.15151092 -0.02606494
v -0.01921383 -0.14413223 -0.02606097
v -0.02346536 -0.14454773 -0.02790407
v -0.01498476 -0.14367267 -0.02401319
v -0.01540671 -0.13621822 -0.02385331
v -0.01946873 -0.13677993 -0.02618664
v -0.01488898 -0.1437014 -0.01975848
v -0.01502502 -0.13618523 -0.01947698
v -0.01950025 -0.14401743 -0.01828544
v -0.01955046 -0.13660797 -0.01809698
v -0.02457238 -0.14418903 -0.01825928
v -0.02450973 -0.13691559 -0.01840861
v -0.02794454 -0.14445168 -0.02196132
v -0.02787451 -0.13720313 -0.022012
v -0.02758938 -0.14469013 -0.02665477
v -0.02762793 -0.13734779 -0.02673093
v -0.02367705 -0.13719466 -0.02800268
v -0.02379539 -0.12976989 -0.02820823
v -0.02762918 -0.12990704 -0.02665064
v -0.01969951 -0.12944967 -0.02636924
v -0.01973679 -0.12203625 -0.02669257
v -0.02382033 -0.12228826 -0.02854707
v -0.01604734 -0.12887353 -0.02371313
v -0.01639045 -0.12159274 -0.02381686
v -0.01548194 -0.12865643 -0.01930097
v -0.01594221 -0.12138944 -0.01931721
v -0.01984088 -0.12920818 -0.01792108
v -0.02020049 -0.12181104 -0.01782411
v -0.02460887 -0.12964401 -0.01849207
v -0.02479762 -0.12228144 -0.01851485
v -0.02792405 -0.12991124 -0.02199201
v -0.02826859 -0.12257195 -0.02185885
v -0.02757929 -0.12242758 -0.02648876
v -0.02761627 -0.11491562 -0.02636311
v -0.0286899 -0.11509177 -0.02167572
v -0.02386867 -0.11481332 -0.02885369
v -0.02382289 -0.10734247 -0.02915811
v -0.02758872 -0.10732031 -0.02627634
v -0.01971778 -0.1146071 -0.0269777
v -0.01950536 -0.10724034 -0.02724282
v -0.01649742 -0.11431798 -0.02384318
v -0.01634241 -0.1070755 -0.02386623
v -0.01619469 -0.11418044 -0.01930619
v -0.01614875 -0.10698996 -0.01924607
v -0.02044435 -0.11443354 -0.01785896
v -0.02054439 -0.10706042 -0.0177791
v -0.02509678 -0.11483719 -0.01830767
v -0.02531957 -0.10725654 -0.0179675
v -0.02886969 -0.10738914 -0.02148301
v -0.02858094 -0.09955588 -0.02155548
v -0.02496355 -0.0995985 -0.0180755
v -0.02729196 -0.09968429 -0.02641373
v -0.02679754 -0.09211782 -0.02678292
v -0.02807784 -0.09189399 -0.02161673
v -0.02343809 -0.09988519 -0.02942248
v -0.02279379 -0.09254947 -0.02982407
v -0.01903158 -0.09987843 -0.02747723
v -0.01815628 -0.09256579 -0.02783586
v -0.01603759 -0.09983994 -0.02392466
v -0.01523256 -0.09251442 -0.02387161
v -0.01582446 -0.09981293 -0.01931354
v -0.01491758 -0.09247555 -0.01928538
v -0.02016014 -0.09966806 -0.01776087
v -0.01919636 -0.09219103 -0.01742939
v -0.02424926 -0.09208144 -0.01778544
v -0.02407826 -0.08461992 -0.01621346
v -0.01815133 -0.08448011 -0.01671881
v -0.02775298 -0.08443212 -0.02144932
v -0.02765576 -0.07717758 -0.02145674
v -0.02375397 -0.07690367 -0.01523964
v -0.02659639 -0.08482743 -0.02742359
v -0.02662155 -0.07796678 -0.02855871
v -0.0220156 -0.08549928 -0.03073331
v -0.02118081 -0.07880604 -0.03244268
v -0.01697855 -0.08539926 -0.02841767
v -0.0152746 -0.07835799 -0.03003962
v -0.01375217 -0.08513067 -0.02408009
v -0.01152319 -0.07766923 -0.02505241
v -0.01343728 -0.08486765 -0.01902345
v -0.01187283 -0.07684419 -0.01927799
v -0.01690521 -0.07654528 -0.01582206
v -0.0155576 -0.0683424 -0.01480841
v -0.00949703 -0.06841118 -0.01970026
v -0.02330692 -0.06920909 -0.01488128
v -0.02380598 -0.06132468 -0.01481097
v -0.0156966 -0.05979069 -0.01527654
v -0.02788152 -0.07031828 -0.02166689
v -0.02870703 -0.06358701 -0.02196151
v -0.02672847 -0.0715041 -0.03025954
v -0.02711486 -0.06495254 -0.03171714
v -0.02027642 -0.07227656 -0.03535078
v -0.01992666 -0.06462456 -0.03875422
v -0.01308451 -0.07115834 -0.03287356
v -0.00860635 -0.06990309 -0.02692709
v -0.02141445 -0.05650081 -0.03682285
v -0.01789533 -0.05242511 -0.01895199
v 0.02281845 -0.0667178 -0.02017804
v 0.02554256 -0.06630461 -0.00682533
v 0.02348879 -0.05546608 -0.00427188
v 0.02268559 -0.05318194 -0.0214381
v 0.02075039 -0.04589404 0.00187361
v 0.02220137 -0.04109318 -0.01246765
v 0.01549142 -0.03617184 -0.02695292
v 0.01031356 -0.0466321 -0.03121163
v 0.01619535 -0.02488554 0.01009237
v 0.01112928 -0.03046421 0.02221319
v 0.00615021 -0.02298456 0.0222778
v 0.00462669 -0.02019448 0.01033133
v 0.00426115 -0.02309424 -0.00291388
v 0.01418508 -0.02347875 -0.00436691
v -0.00222721 -0.02535777 0.01575698
v -0.00889102 -0.02784959 0.01211016
v -0.00616797 -0.02132099 0.00702589
v 0.00050899 -0.02493775 0.0205643
v 0.0054117 -0.37111023 0.02154442
v 0.0057834 -0.36208242 0.01702923
v 0.01345107 -0.36472005 0.00799318
v 0.01292587 -0.37687331 0.0111104
v 0.01225663 -0.36794871 -0.00385037
v 0.01251254 -0.37832579 -0.00335708
v 0.00759369 -0.38386998 0.00682958
v 0.00679981 -0.38920847 0.01307762
v 0.00936869 -0.38548526 0.01936185
v 0.00362422 -0.38070574 0.02630001
v 0.00771235 -0.38598847 -0.00314921
v -0.00202137 -0.02913984 0.03211375
v -0.00524322 -0.02886437 0.02478663
v -0.00629486 -0.02960434 0.01983395
v 0.01036879 -0.38004917 -0.01528951
v 0.00913169 -0.36942735 -0.01415862
v 0.00343638 -0.36874971 -0.02119129
v 0.00614458 -0.37808627 -0.02332954
v -0.0001786 -0.38157994 -0.02313385
v 0.00493853 -0.38634843 -0.01420114
v -0.00430345 -0.37024158 -0.02110945
v 0.00539962 -0.39184245 0.02172014
v 0.0047069 -0.39492846 0.01721513
v -0.00085758 -0.39252198 0.01775339
v -0.0001276 -0.38969934 0.02505517
v 0.00077013 -0.38696787 0.0133437
v -0.01250071 -0.03155709 0.01831406
v -0.01479705 -0.03259201 0.02472668
v -0.00903334 -0.02425171 -0.01953847
v -0.00108803 -0.02259912 -0.01290585
v -0.00873947 -0.02128827 -0.00978454
v -0.01200479 -0.02432049 -0.01466152
v -0.01903106 -0.02522728 -0.0133102
v -0.019057 -0.02624072 -0.02157042
v -0.01676568 -0.02232062 -0.00639413
v -0.00213606 -0.04132333 -0.03709205
v 0.00162079 -0.03203859 -0.03773182
v -0.01459131 -0.03160917 -0.0388733
v -0.01265823 -0.03890121 -0.03916551
v -0.018777 -0.04098092 -0.03281546
v -0.0104659 -0.04796568 -0.03271421
v -0.02481715 -0.03217849 -0.03366206
v -0.00711955 -0.38975951 0.01733598
v -0.00384298 -0.38580447 0.0137188
v 0.0005983 -0.38315678 0.00715261
v -0.0062724 -0.38347211 0.00916362
v -0.01277082 -0.38651052 0.01296471
v -0.01640165 -0.02661202 0.00971166
v -0.02031492 -0.02775678 0.00413987
v -0.0145206 -0.02231687 0.00051626
v -0.01341609 -0.02065602 0.00647503
v -0.00586006 -0.02198699 -0.00163281
v 0.00098908 -0.35797015 -0.01848852
v -0.00917216 -0.35919198 -0.01663715
v 8.545E-05 -0.3477284 -0.01619728
v -0.00825576 -0.3472096 -0.0151159
v -0.01626609 -0.36719653 -0.01583537
v -0.01018324 -0.37331465 -0.01723672
v -0.01372313 -0.34635338 -0.00751026
v -0.01678012 -0.35593608 -0.0080166
v -0.02025485 -0.36534238 -0.00681146
v -0.00494889 -0.37075403 0.02440159
v -0.00357514 -0.3784402 0.02783887
v -0.00816957 -0.38575324 0.02581172
v -0.01425012 -0.37680712 0.01843563
v -0.01744213 -0.02485914 -0.02995113
v -0.0137535 -0.02423106 -0.03649994
v -0.01459567 -0.38265568 -0.01523072
v -0.00688105 -0.38101026 -0.01767223
v -0.01528478 -0.37642351 -0.01620069
v -0.02208715 -0.37485832 -0.01540122
v -0.02257406 -0.38341057 -0.0138227
v -0.02719045 -0.03240854 -0.0219508
v -0.02686191 -0.03293361 -0.00806006
v -0.02312036 -0.02980446 -0.00121983
v -0.0289258 -0.03311394 0.00724537
v -0.03344579 -0.03751756 0.00661212
v -0.01473628 -0.3640964 0.01474033
v -0.00492756 -0.36199936 0.01934986
v -0.02074768 -0.37649199 0.00649274
v -0.01921984 -0.36591896 0.00412441
v -0.01769122 -0.38637364 0.00504794
v -0.02437421 -0.03083084 0.00848263
v -0.02041676 -0.0314273 0.01447482
v -0.02487338 -0.03400838 0.01861976
v -0.02374353 -0.37535286 -0.00495839
v -0.02207649 -0.38651171 -0.00509243
v -0.01231651 -0.3850055 -0.00753729
v -0.00342558 -0.38319919 -0.01047087
v -0.00936479 -0.38441131 0.00111418
v -0.00087272 -0.38407329 -0.0016706
v -0.01649983 -0.03479477 0.03357822
v -0.03041891 -0.03751305 0.02375226
v 0.00062742 -0.03785469 0.03074317
v -0.01399187 -0.04382699 0.03220234
v -0.02537621 -0.04507391 0.02112648
v -0.01138114 -0.05187635 0.0287547
v -0.02328659 -0.05423233 0.02052382
v -0.0314386 -0.04665451 0.00641817
v -0.02741533 -0.05521777 0.00605847
v -0.01858772 -0.06190238 0.01733964
v -0.0213658 -0.0610244 0.00414484
v -0.0207951 -0.0496687 -0.00925881
v -0.02656818 -0.04317697 -0.00889464
v -0.01602811 -0.05655817 -0.01014682
v -0.01676059 -0.06744862 0.00211665
v -0.01303076 -0.06493597 -0.01087493
v -0.0124037 -0.05760825 -0.0232641
v -0.01696644 -0.04942324 -0.02232293
v -0.00840302 -0.06576721 -0.02343145
v -0.01159574 -0.07410645 -0.01160092
v -0.00531605 -0.07424706 -0.02257003
v 0.00564957 -0.06151095 -0.02653558
v -0.00146612 -0.05437219 -0.03027192
v 0.00860571 -0.07063971 -0.0235857
v -0.00305426 -0.08304317 -0.02167776
v 0.01014387 -0.08024215 -0.02204908
v 0.02338377 -0.07782172 -0.02041649
v 0.01076914 -0.09012634 -0.02133473
v 0.02303048 -0.0887182 -0.02084361
v 0.02613542 -0.0775371 -0.00827772
v 0.02591752 -0.088572 -0.00973867
v 0.02218688 -0.0994962 -0.02101149
v 0.02544227 -0.09932423 -0.01109425
v 0.01951565 -0.08927595 -0.00040589
v 0.01849743 -0.07878134 0.00131164
v 0.01995482 -0.09971828 -0.00203916
v 0.02487435 -0.10989644 -0.0119622
v 0.01987416 -0.10999546 -0.0033558
v 0.01248141 -0.10093773 0.00489468
v 0.01188375 -0.09112906 0.00713538
v 0.0128595 -0.11077225 0.0033849
v 0.01951669 -0.12012953 -0.0042737
v 0.01307339 -0.12058721 0.00235385
v 0.0044243 -0.11196423 0.00743583
v 0.0036508 -0.10263676 0.00892738
v 0.00500099 -0.12138358 0.00632749
v 0.01317573 -0.13041273 0.00165079
v 0.00542942 -0.13091126 0.00565873
v -0.00342373 -0.12168976 0.00324173
v -0.00426378 -0.11232281 0.00426604
v -0.00279784 -0.13118413 0.00261845
v 0.005805 -0.14052412 0.0051692
v -0.00234736 -0.14077014 0.00253632
v -0.00812043 -0.1313546 -0.0045397
v -0.00880706 -0.12160192 -0.00425515
v -0.00733835 -0.14112613 -0.00461337
v -0.00190694 -0.1504342 0.00268773
v -0.00641875 -0.15087289 -0.00452893
v -0.00508819 -0.14077723 -0.01312544
v -0.00570975 -0.13094848 -0.01322087
v -0.00451227 -0.15061468 -0.01290487
v -0.00559362 -0.16063559 -0.0043012
v -0.00436382 -0.16048047 -0.01270185
v 0.00204558 -0.150435 -0.01851103
v 0.00171105 -0.14046469 -0.01885236
v 0.00227997 -0.16039321 -0.018089
v -0.00407673 -0.17035109 -0.01231285
v 0.00247717 -0.17032892 -0.01757918
v 0.01079818 -0.16046456 -0.01829368
v 0.01062236 -0.15045404 -0.01875977
v 0.01101774 -0.1704385 -0.01781224
v 0.00264595 -0.18020347 -0.01681597
v 0.0110432 -0.1803709 -0.01735007
v 0.018625 -0.17071435 -0.01705138
v 0.01880671 -0.16073143 -0.01783117
v 0.0183428 -0.18065244 -0.01635249
v 0.01088068 -0.19026431 -0.01699649
v 0.01795106 -0.19058004 -0.01575904
v 0.02204739 -0.1805307 -0.01064138
v 0.02249813 -0.17057633 -0.01112634
v 0.02160438 -0.19051406 -0.0102276
v 0.01737411 -0.2004602 -0.01528201
v 0.02092033 -0.20042381 -0.00985378
v 0.01759012 -0.19003892 -0.00446345
v 0.01809967 -0.18013 -0.00467974
v 0.01691634 -0.19993845 -0.00422267
v 0.02003531 -0.21028602 -0.00955729
v 0.01615313 -0.20979238 -0.00401363
v 0.01195804 -0.19949862 0.00069666
v 0.01256035 -0.18965974 0.00063383
v 0.01125347 -0.20930499 0.00082878
v 0.01536087 -0.21963307 -0.00382255
v 0.01043393 -0.21910948 0.00090496
v 0.00537034 -0.20886695 0.00448439
v 0.00593069 -0.1991415 0.00435121
v 0.00469885 -0.21862853 0.00457987
v 0.00961025 -0.22891197 0.00098247
v 0.0039535 -0.22839946 0.00470688
v -0.00133564 -0.21843755 0.00424973
v -0.00076181 -0.20874003 0.0040017
v -0.00197419 -0.22816342 0.00445006
v 0.00312537 -0.23817396 0.00464638
v -0.00273032 -0.23791391 0.0045587
v -0.00396653 -0.22849944 -0.00181779
v -0.00359906 -0.21881214 -0.00210119
v -0.00443664 -0.23819518 -0.00161914
v -0.00353514 -0.24765047 0.0046204
v -0.00506033 -0.24790606 -0.00141053
v -0.00476634 -0.23853245 -0.00886833
v -0.00435764 -0.22892788 -0.00938101
v -0.00522902 -0.24819791 -0.00838263
v -0.00567072 -0.25764591 -0.00115454
v -0.00568663 -0.25793201 -0.00782053
v -0.00067475 -0.24861294 -0.01423741
v 0.00021685 -0.23895335 -0.01473165
v -0.00157505 -0.25834131 -0.01368773
v -0.00640867 -0.26769617 -0.00723474
v -0.00252642 -0.26806396 -0.01333604
v 0.00576301 -0.25892654 -0.01417327
v 0.00679305 -0.24917081 -0.01475867
v 0.00482523 -0.26870027 -0.01356991
v -0.00351485 -0.27778533 -0.01308607
v 0.00382718 -0.27850291 -0.01330422
v 0.01070499 -0.26929072 -0.01179493
v 0.0117553 -0.25950789 -0.0124631
v 0.00965166 -0.27917865 -0.01133493
v 0.00285692 -0.28840575 -0.01326744
v 0.00882196 -0.289132 -0.01109107
v 0.01297395 -0.27926162 -0.00690228
v 0.01388795 -0.26939645 -0.00746809
v 0.01239011 -0.28927508 -0.00660822
v 0.00816541 -0.29913181 -0.01106679
v 0.01200589 -0.29930595 -0.00616555
v 0.00981011 -0.288643 -0.00120416
v 0.01017895 -0.27868637 -0.00185534
v 0.00965467 -0.298612 -0.00030871
v 0.01156487 -0.30925784 -0.0057464
v 0.00977008 -0.30849916 0.0007202
v 0.00405954 -0.2978583 0.00414212
v 0.00445077 -0.28796804 0.00313873
v 0.00397628 -0.30769783 0.00535702
v 0.00991103 -0.31817493 0.00170866
v 0.00403445 -0.31737328 0.00657364
v -0.00259432 -0.30724117 0.00767141
v -0.00218956 -0.29739949 0.00661112
v -0.00290024 -0.31693804 0.00875722
v 0.00406617 -0.32686108 0.00775289
v -0.00317244 -0.32647315 0.00997245
v -0.00954812 -0.31670773 0.00770789
v -0.00883759 -0.30694035 0.00694317
v -0.01024552 -0.32637364 0.00857687
v -0.00343289 -0.33582085 0.01128433
v -0.01080301 -0.33595321 0.0091866
v -0.01228046 -0.3266727 0.00132533
v -0.01142181 -0.31694698 0.00109757
v -0.01327983 -0.33631933 0.00140668
v -0.01163356 -0.34527689 0.0099567
v -0.01471346 -0.3460018 0.00152627
v -0.01170575 -0.33672369 -0.00681477
v -0.01056346 -0.32707307 -0.00646094
v -0.00741975 -0.33724663 -0.01398609
v -0.00696708 -0.327519 -0.01354883
v 1.206E-05 -0.33787185 -0.01461739
v 0.00024739 -0.32812566 -0.01403583
v 0.00660096 -0.33836159 -0.01104975
v 0.00682568 -0.32861376 -0.01095529
v 0.00672714 -0.34832627 -0.01156828
v 0.00740482 -0.35869345 -0.01255729
v 0.01067919 -0.34791136 -0.00429405
v 0.01065557 -0.33819568 -0.0045463
v 0.01131977 -0.35784557 -0.00420413
v 0.01201626 -0.35535043 0.00589494
v 0.01083741 -0.34624586 0.00450334
v 0.00528366 -0.35368669 0.01364966
v 0.0046199 -0.34511998 0.01101374
v -0.00429405 -0.35348162 0.0157194
v -0.00376631 -0.3448638 0.01305294
v -0.01301049 -0.35451779 0.01145471
v -0.0167999 -0.35589072 0.0021849
v 0.00425518 -0.33610752 0.00923028
v 0.01017423 -0.33704478 0.00340465
v 0.00997024 -0.32770211 0.00257808
v 0.01083383 -0.3285709 -0.00484189
v 0.01118013 -0.31896654 -0.00530214
v 0.00716368 -0.31894591 -0.0111026
v 0.00762547 -0.309127 -0.01116567
v 0.00123899 -0.30846664 -0.01378948
v 0.0006344 -0.31837139 -0.01393651
v 0.00198551 -0.29841846 -0.01344402
v -0.00522191 -0.29773062 -0.01306087
v -0.00596455 -0.30777755 -0.01326561
v -0.00443864 -0.28767496 -0.01307604
v -0.00768107 -0.28747711 -0.00653909
v -0.00837965 -0.29749873 -0.00636246
v -0.00705125 -0.27754042 -0.00683681
v -0.00753878 -0.27732375 -0.00034443
v -0.00864995 -0.28721839 0.00010151
v -0.00655094 -0.26744774 -0.00071945
v -0.00544387 -0.26725113 0.00506569
v -0.00644533 -0.27714676 0.00534822
v -0.00442949 -0.25742343 0.00477114
v 0.00121196 -0.25782093 0.00482025
v 0.00018221 -0.26769745 0.00508545
v 0.0021376 -0.24795973 0.0047353
v 0.0077364 -0.24850434 0.00124209
v 0.00672714 -0.25834447 0.00146062
v 0.00874871 -0.23870248 0.00106896
v 0.01372775 -0.2393274 -0.00342814
v 0.01267895 -0.24915069 -0.00310819
v 0.01458823 -0.22948182 -0.00364392
v 0.01827936 -0.23000932 -0.00907996
v 0.01726859 -0.23994491 -0.0088379
v 0.01916162 -0.22013164 -0.0092661
v 0.01589545 -0.22010949 -0.01444983
v 0.0151062 -0.22996476 -0.01407663
v 0.01668641 -0.21030074 -0.01484964
v 0.00991241 -0.20996863 -0.01633833
v 0.00930773 -0.21979478 -0.01602446
v 0.01045405 -0.20013049 -0.01665247
v 0.00217463 -0.19993603 -0.01617114
v 0.00180565 -0.20979545 -0.01590109
v 0.00251327 -0.19006979 -0.01647083
v -0.00398628 -0.1900197 -0.01139563
v -0.00399496 -0.19985095 -0.01091684
v -0.00397131 -0.18019035 -0.01187819
v -0.00390644 -0.18009865 -0.00353063
v -0.00353134 -0.18982032 -0.00313915
v -0.00469811 -0.17037871 -0.00397418
v -0.00103152 -0.16999289 0.00338645
v -0.00067926 -0.17980486 0.00365708
v -0.00148786 -0.16018751 0.00304808
v 0.00628497 -0.1599707 0.0045846
v 0.00642207 -0.16981575 0.00437942
v 0.00605674 -0.15020761 0.0048227
v 0.0133804 -0.15017018 0.00097818
v 0.01332507 -0.16006237 0.00076069
v 0.01330814 -0.14027619 0.00123453
v 0.01908494 -0.1402359 -0.00496284
v 0.01895642 -0.15025735 -0.00503963
v 0.01920231 -0.13019976 -0.00476816
v 0.02373093 -0.13042355 -0.01243901
v 0.02337847 -0.14049783 -0.01228028
v 0.02423061 -0.12024517 -0.01238474
v 0.02019347 -0.1203597 -0.02029639
v 0.01956263 -0.13055196 -0.01978586
v 0.02110741 -0.11002655 -0.0206672
v 0.01077158 -0.11013353 -0.02047828
v 0.01058869 -0.12019621 -0.02001785
v 0.01088692 -0.10011587 -0.02086021
v -0.00034189 -0.1014049 -0.02017316
v 0.00040291 -0.11093412 -0.01973081
v -0.00143181 -0.09210043 -0.02086684
v -0.00989064 -0.0926703 -0.01298859
v -0.00860346 -0.10204621 -0.01316907
v -0.01079472 -0.08335046 -0.01240786
v -0.01148464 -0.08365926 -0.00089011
v -0.01039254 -0.09284397 -0.00214489
v -0.01357657 -0.0750895 0.00052206
v -0.01073194 -0.07713927 0.01138353
v -0.00835983 -0.08548994 0.00925278
v -0.01403653 -0.06919739 0.01391233
v -0.00466912 -0.0676222 0.01944051
v -0.00161756 -0.07596266 0.01622582
v -0.00813289 -0.05965718 0.02389408
v 0.0032623 -0.0548213 0.02054993
v 0.00580519 -0.06342911 0.01538971
v 0.00183921 -0.04644729 0.0265574
v 0.01200641 -0.04077143 0.01887826
v 0.01283464 -0.05026177 0.01259796
v 0.0185588 -0.03629555 0.00781237
v 0.01944031 -0.03199574 -0.00652625
v 0.0139622 -0.02615 -0.02189108
v 0.00688379 -0.02207463 -0.01698656
v -0.00431177 -0.02219108 -0.02632262
v 0.00062989 -0.02243244 -0.03387574
v 0.01481319 -0.0592812 0.00684543
v 0.01691125 -0.0686376 0.00337632
v 0.0084522 -0.07211185 0.01197997
v 0.01054949 -0.08140569 0.00947183
v 0.0007805 -0.0845474 0.01333249
v 0.00250835 -0.09345133 0.01086244
v -0.00665973 -0.09419785 0.00735346
v -0.0053293 -0.10315171 0.00565637
v -0.00979191 -0.1022868 -0.00313886
v -0.00939814 -0.11189819 -0.00378949
v -0.0074762 -0.11157055 -0.01326278
v -0.00643179 -0.1211963 -0.01321133
v 0.00094962 -0.12064946 -0.01938906
v 0.00136831 -0.13051429 -0.01909583
v 0.01048658 -0.13029385 -0.01960243
v 0.01046584 -0.14039084 -0.01921468
v 0.01909812 -0.14065152 -0.01917477
v 0.01892323 -0.15071291 -0.01854699
v 0.0231052 -0.15055847 -0.01198162
v 0.02280708 -0.16059801 -0.01159607
v 0.01875295 -0.16025481 -0.00502874
v 0.01848111 -0.17020822 -0.00488671
v 0.01318732 -0.16995534 0.0006314
v 0.01295353 -0.17982447 0.00057974
v 0.00637477 -0.17965591 0.00421595
v 0.00621216 -0.18942595 0.00422865
v -0.00040137 -0.18952256 0.00369795
v -0.00044525 -0.19910672 0.00382294
v -0.00323407 -0.19950551 -0.0028181
v -0.0032036 -0.2091527 -0.00244117
v -0.00395654 -0.20960599 -0.0103814
v -0.00410503 -0.21928325 -0.00986842
v 0.00138717 -0.21958601 -0.01552769
v 0.00087915 -0.22930011 -0.01516207
v 0.00863492 -0.22960031 -0.01567789
v 0.00779846 -0.23940346 -0.01527471
v 0.01414049 -0.23987299 -0.01369038
v 0.01299987 -0.24974653 -0.01312429
v 0.01607428 -0.24984083 -0.0084581
v 0.0148776 -0.25961676 -0.0079867
v 0.01163443 -0.2589623 -0.00270875
v 0.01087612 -0.26880962 -0.0022907
v 0.00585002 -0.26821065 0.00186287
v 0.00509506 -0.2780748 0.00243143
v -0.00076179 -0.27760255 0.00536772
v -0.0015756 -0.28750461 0.00590299
v -0.00739967 -0.28707927 0.00580147
v -0.00819106 -0.29700479 0.00633257
v -0.00961062 -0.29717752 0.00053695
v -0.01049534 -0.30713728 0.00085232
v -0.00901628 -0.30750087 -0.00631067
v -0.00987406 -0.31732404 -0.00639276
v -0.00658565 -0.31770578 -0.01340431
v -0.02350488 -0.04232208 -0.02203272
f 1 2 3
f 1 3 4
f 3 5 6
f 3 6 4
f 6 7 1
f 6 1 4
f 8 9 10
f 8 10 11
f 12 13 8
f 12 8 11
f 10 14 12
f 10 12 11
f 15 16 17
f 15 17 18
f 17 19 20
f 17 20 18
f 20 21 15
f 20 15 18
f 22 23 17
f 22 17 16
f 15 24 22
f 15 22 16
f 25 26 27
f 25 27 28
f 27 19 29
f 27 29 28
f 29 30 25
f 29 25 28
f 31 32 12
f 31 12 14
f 10 33 31
f 10 31 14
f 20 34 35
f 20 35 21
f 35 24 15
f 35 15 21
f 13 7 9
f 13 9 8
f 36 37 35
f 36 35 34
f 27 26 36
f 27 36 34
f 20 19 27
f 20 27 34
f 38 39 37
f 38 37 36
f 26 40 38
f 26 38 36
f 41 42 38
f 41 38 40
f 43 44 41
f 43 41 40
f 26 25 43
f 26 43 40
f 45 46 44
f 45 44 43
f 25 30 45
f 25 45 43
f 47 48 46
f 47 46 45
f 30 49 47
f 30 47 45
f 50 51 47
f 50 47 49
f 23 22 50
f 23 50 49
f 30 29 23
f 30 23 49
f 52 53 51
f 52 51 50
f 22 24 52
f 22 52 50
f 37 39 53
f 37 53 52
f 24 35 37
f 24 37 52
f 54 55 51
f 54 51 53
f 39 56 54
f 39 54 53
f 57 58 54
f 57 54 56
f 42 59 57
f 42 57 56
f 39 38 42
f 39 42 56
f 60 61 57
f 60 57 59
f 62 63 60
f 62 60 59
f 42 41 62
f 42 62 59
f 64 65 63
f 64 63 62
f 41 44 64
f 41 64 62
f 66 67 65
f 66 65 64
f 44 46 66
f 44 66 64
f 68 69 67
f 68 67 66
f 46 48 68
f 46 68 66
f 70 71 69
f 70 69 68
f 48 55 70
f 48 70 68
f 58 72 71
f 58 71 70
f 55 54 58
f 55 58 70
f 73 74 71
f 73 71 72
f 61 75 73
f 61 73 72
f 58 57 61
f 58 61 72
f 76 77 73
f 76 73 75
f 78 79 76
f 78 76 75
f 61 60 78
f 61 78 75
f 80 81 79
f 80 79 78
f 60 63 80
f 60 80 78
f 82 83 81
f 82 81 80
f 63 65 82
f 63 82 80
f 84 85 83
f 84 83 82
f 65 67 84
f 65 84 82
f 86 87 85
f 86 85 84
f 67 69 86
f 67 86 84
f 74 88 87
f 74 87 86
f 69 71 74
f 69 74 86
f 89 90 87
f 89 87 88
f 77 91 89
f 77 89 88
f 74 73 77
f 74 77 88
f 92 93 89
f 92 89 91
f 94 95 92
f 94 92 91
f 77 76 94
f 77 94 91
f 96 97 95
f 96 95 94
f 76 79 96
f 76 96 94
f 98 99 97
f 98 97 96
f 79 81 98
f 79 98 96
f 100 101 99
f 100 99 98
f 81 83 100
f 81 100 98
f 102 103 101
f 102 101 100
f 83 85 102
f 83 102 100
f 90 104 103
f 90 103 102
f 85 87 90
f 85 90 102
f 105 106 103
f 105 103 104
f 93 107 105
f 93 105 104
f 90 89 93
f 90 93 104
f 108 109 105
f 108 105 107
f 110 111 108
f 110 108 107
f 93 92 110
f 93 110 107
f 112 113 111
f 112 111 110
f 92 95 112
f 92 112 110
f 114 115 113
f 114 113 112
f 95 97 114
f 95 114 112
f 116 117 115
f 116 115 114
f 97 99 116
f 97 116 114
f 118 119 117
f 118 117 116
f 99 101 118
f 99 118 116
f 106 120 119
f 106 119 118
f 101 103 106
f 101 106 118
f 121 122 119
f 121 119 120
f 109 123 121
f 109 121 120
f 106 105 109
f 106 109 120
f 124 125 121
f 124 121 123
f 126 127 124
f 126 124 123
f 109 108 126
f 109 126 123
f 128 129 127
f 128 127 126
f 108 111 128
f 108 128 126
f 130 131 129
f 130 129 128
f 111 113 130
f 111 130 128
f 132 133 131
f 132 131 130
f 113 115 132
f 113 132 130
f 134 135 133
f 134 133 132
f 115 117 134
f 115 134 132
f 122 136 135
f 122 135 134
f 117 119 122
f 117 122 134
f 137 138 135
f 137 135 136
f 125 139 137
f 125 137 136
f 122 121 125
f 122 125 136
f 140 141 137
f 140 137 139
f 142 143 140
f 142 140 139
f 125 124 142
f 125 142 139
f 144 145 143
f 144 143 142
f 124 127 144
f 124 144 142
f 146 147 145
f 146 145 144
f 127 129 146
f 127 146 144
f 148 149 147
f 148 147 146
f 129 131 148
f 129 148 146
f 150 151 149
f 150 149 148
f 131 133 150
f 131 150 148
f 138 152 151
f 138 151 150
f 133 135 138
f 133 138 150
f 153 154 151
f 153 151 152
f 141 155 153
f 141 153 152
f 138 137 141
f 138 141 152
f 156 157 153
f 156 153 155
f 158 159 156
f 158 156 155
f 141 140 158
f 141 158 155
f 160 161 159
f 160 159 158
f 140 143 160
f 140 160 158
f 162 163 161
f 162 161 160
f 143 145 162
f 143 162 160
f 164 165 163
f 164 163 162
f 145 147 164
f 145 164 162
f 166 167 165
f 166 165 164
f 147 149 166
f 147 166 164
f 154 168 167
f 154 167 166
f 149 151 154
f 149 154 166
f 169 170 167
f 169 167 168
f 157 171 169
f 157 169 168
f 154 153 157
f 154 157 168
f 172 173 169
f 172 169 171
f 174 175 172
f 174 172 171
f 157 156 174
f 157 174 171
f 176 177 175
f 176 175 174
f 156 159 176
f 156 176 174
f 178 179 177
f 178 177 176
f 159 161 178
f 159 178 176
f 180 181 179
f 180 179 178
f 161 163 180
f 161 180 178
f 182 183 181
f 182 181 180
f 163 165 182
f 163 182 180
f 170 184 183
f 170 183 182
f 165 167 170
f 165 170 182
f 185 186 183
f 185 183 184
f 173 187 185
f 173 185 184
f 170 169 173
f 170 173 184
f 188 189 185
f 188 185 187
f 190 191 188
f 190 188 187
f 173 172 190
f 173 190 187
f 192 193 191
f 192 191 190
f 172 175 192
f 172 192 190
f 194 195 193
f 194 193 192
f 175 177 194
f 175 194 192
f 196 197 195
f 196 195 194
f 177 179 196
f 177 196 194
f 198 199 197
f 198 197 196
f 179 181 198
f 179 198 196
f 186 200 199
f 186 199 198
f 181 183 186
f 181 186 198
f 201 202 199
f 201 199 200
f 189 203 201
f 189 201 200
f 186 185 189
f 186 189 200
f 204 205 201
f 204 201 203
f 206 207 204
f 206 204 203
f 189 188 206
f 189 206 203
f 208 209 207
f 208 207 206
f 188 191 208
f 188 208 206
f 210 211 209
f 210 209 208
f 191 193 210
f 191 210 208
f 212 213 211
f 212 211 210
f 193 195 212
f 193 212 210
f 214 215 213
f 214 213 212
f 195 197 214
f 195 214 212
f 202 216 215
f 202 215 214
f 197 199 202
f 197 202 214
f 217 218 215
f 217 215 216
f 205 219 217
f 205 217 216
f 202 201 205
f 202 205 216
f 220 221 217
f 220 217 219
f 222 223 220
f 222 220 219
f 205 204 222
f 205 222 219
f 224 225 223
f 224 223 222
f 204 207 224
f 204 224 222
f 226 227 225
f 226 225 224
f 207 209 226
f 207 226 224
f 228 229 227
f 228 227 226
f 209 211 228
f 209 228 226
f 230 231 229
f 230 229 228
f 211 213 230
f 211 230 228
f 218 232 231
f 218 231 230
f 213 215 218
f 213 218 230
f 233 234 231
f 233 231 232
f 221 235 233
f 221 233 232
f 218 217 221
f 218 221 232
f 236 237 233
f 236 233 235
f 238 239 236
f 238 236 235
f 221 220 238
f 221 238 235
f 240 241 239
f 240 239 238
f 220 223 240
f 220 240 238
f 242 243 241
f 242 241 240
f 223 225 242
f 223 242 240
f 244 245 243
f 244 243 242
f 225 227 244
f 225 244 242
f 246 247 245
f 246 245 244
f 227 229 246
f 227 246 244
f 234 248 247
f 234 247 246
f 229 231 234
f 229 234 246
f 249 250 247
f 249 247 248
f 237 251 249
f 237 249 248
f 234 233 237
f 234 237 248
f 252 253 249
f 252 249 251
f 254 255 252
f 254 252 251
f 237 236 254
f 237 254 251
f 256 257 255
f 256 255 254
f 236 239 256
f 236 256 254
f 258 259 257
f 258 257 256
f 239 241 258
f 239 258 256
f 260 261 259
f 260 259 258
f 241 243 260
f 241 260 258
f 262 263 261
f 262 261 260
f 243 245 262
f 243 262 260
f 250 264 263
f 250 263 262
f 245 247 250
f 245 250 262
f 265 266 263
f 265 263 264
f 253 267 265
f 253 265 264
f 250 249 253
f 250 253 264
f 268 269 265
f 268 265 267
f 270 271 268
f 270 268 267
f 253 252 270
f 253 270 267
f 272 273 271
f 272 271 270
f 252 255 272
f 252 272 270
f 274 275 273
f 274 273 272
f 255 257 274
f 255 274 272
f 276 277 275
f 276 275 274
f 257 259 276
f 257 276 274
f 278 279 277
f 278 277 276
f 259 261 278
f 259 278 276
f 266 280 279
f 266 279 278
f 261 263 266
f 261 266 278
f 281 282 279
f 281 279 280
f 269 283 281
f 269 281 280
f 266 265 269
f 266 269 280
f 284 285 281
f 284 281 283
f 286 287 284
f 286 284 283
f 269 268 286
f 269 286 283
f 288 289 287
f 288 287 286
f 268 271 288
f 268 288 286
f 290 291 289
f 290 289 288
f 271 273 290
f 271 290 288
f 292 293 291
f 292 291 290
f 273 275 292
f 273 292 290
f 294 295 293
f 294 293 292
f 275 277 294
f 275 294 292
f 282 296 295
f 282 295 294
f 277 279 282
f 277 282 294
f 297 298 295
f 297 295 296
f 285 299 297
f 285 297 296
f 282 281 285
f 282 285 296
f 300 301 297
f 300 297 299
f 302 303 300
f 302 300 299
f 285 284 302
f 285 302 299
f 304 305 303
f 304 303 302
f 284 287 304
f 284 304 302
f 306 307 305
f 306 305 304
f 287 289 306
f 287 306 304
f 308 309 307
f 308 307 306
f 289 291 308
f 289 308 306
f 310 311 309
f 310 309 308
f 291 293 310
f 291 310 308
f 298 312 311
f 298 311 310
f 293 295 298
f 293 298 310
f 313 314 311
f 313 311 312
f 301 315 313
f 301 313 312
f 298 297 301
f 298 301 312
f 316 317 313
f 316 313 315
f 318 319 316
f 318 316 315
f 301 300 318
f 301 318 315
f 320 321 319
f 320 319 318
f 300 303 320
f 300 320 318
f 322 323 321
f 322 321 320
f 303 305 322
f 303 322 320
f 324 325 323
f 324 323 322
f 305 307 324
f 305 324 322
f 326 327 325
f 326 325 324
f 307 309 326
f 307 326 324
f 314 328 327
f 314 327 326
f 309 311 314
f 309 314 326
f 329 330 327
f 329 327 328
f 317 331 329
f 317 329 328
f 314 313 317
f 314 317 328
f 332 333 329
f 332 329 331
f 334 335 332
f 334 332 331
f 317 316 334
f 317 334 331
f 336 337 335
f 336 335 334
f 316 319 336
f 316 336 334
f 338 339 337
f 338 337 336
f 319 321 338
f 319 338 336
f 340 341 339
f 340 339 338
f 321 323 340
f 321 340 338
f 342 343 341
f 342 341 340
f 323 325 342
f 323 342 340
f 330 344 343
f 330 343 342
f 325 327 330
f 325 330 342
f 345 346 343
f 345 343 344
f 333 347 345
f 333 345 344
f 330 329 333
f 330 333 344
f 348 349 345
f 348 345 347
f 350 351 348
f 350 348 347
f 333 332 350
f 333 350 347
f 352 353 351
f 352 351 350
f 332 335 352
f 332 352 350
f 354 355 353
f 354 353 352
f 335 337 354
f 335 354 352
f 356 357 355
f 356 355 354
f 337 339 356
f 337 356 354
f 358 359 357
f 358 357 356
f 339 341 358
f 339 358 356
f 346 360 359
f 346 359 358
f 341 343 346
f 341 346 358
f 361 362 359
f 361 359 360
f 349 363 361
f 349 361 360
f 346 345 349
f 346 349 360
f 364 365 361
f 364 361 363
f 366 367 364
f 366 364 363
f 349 348 366
f 349 366 363
f 368 369 367
f 368 367 366
f 348 351 368
f 348 368 366
f 370 371 369
f 370 369 368
f 351 353 370
f 351 370 368
f 372 373 371
f 372 371 370
f 353 355 372
f 353 372 370
f 374 375 373
f 374 373 372
f 355 357 374
f 355 374 372
f 362 376 375
f 362 375 374
f 357 359 362
f 357 362 374
f 377 378 375
f 377 375 376
f 365 379 377
f 365 377 376
f 362 361 365
f 362 365 376
f 380 381 377
f 380 377 379
f 382 383 380
f 382 380 379
f 365 364 382
f 365 382 379
f 384 385 383
f 384 383 382
f 364 367 384
f 364 384 382
f 386 387 385
f 386 385 384
f 367 369 386
f 367 386 384
f 388 389 387
f 388 387 386
f 369 371 388
f 369 388 386
f 390 391 389
f 390 389 388
f 371 373 390
f 371 390 388
f 378 392 391
f 378 391 390
f 373 375 378
f 373 378 390
f 393 394 391
f 393 391 392
f 381 395 393
f 381 393 392
f 378 377 381
f 378 381 392
f 396 397 393
f 396 393 395
f 398 399 396
f 398 396 395
f 381 380 398
f 381 398 395
f 400 401 399
f 400 399 398
f 380 383 400
f 380 400 398
f 402 403 401
f 402 401 400
f 383 385 402
f 383 402 400
f 404 2 403
f 404 403 402
f 385 387 404
f 385 404 402
f 405 3 2
f 405 2 404
f 387 389 405
f 387 405 404
f 394 5 3
f 394 3 405
f 389 391 394
f 389 394 405
f 406 32 401
f 406 401 403
f 2 1 406
f 2 406 403
f 13 12 32
f 13 32 406
f 1 7 13
f 1 13 406
f 32 31 399
f 32 399 401
f 31 33 396
f 31 396 399
f 33 407 397
f 33 397 396
f 9 7 6
f 9 6 407
f 33 10 9
f 33 9 407
f 6 5 397
f 6 397 407
f 5 394 393
f 5 393 397
f 48 47 51
f 48 51 55
f 19 17 23
f 19 23 29
f 408 409 410
f 408 410 411
f 410 412 413
f 410 413 411
f 413 414 415
f 413 415 411
f 416 417 418
f 416 418 419
f 420 421 416
f 420 416 419
f 422 423 424
f 422 424 419
f 418 425 422
f 418 422 419
f 426 427 428
f 426 428 429
f 428 430 431
f 428 431 429
f 432 433 434
f 432 434 429
f 434 435 426
f 434 426 429
f 431 436 432
f 431 432 429
f 418 437 438
f 418 438 425
f 438 439 422
f 438 422 425
f 440 441 442
f 440 442 443
f 444 445 440
f 444 440 443
f 442 446 444
f 442 444 443
f 447 434 433
f 447 433 448
f 449 450 447
f 449 447 448
f 433 451 449
f 433 449 448
f 450 435 434
f 450 434 447
f 452 423 422
f 452 422 439
f 438 453 452
f 438 452 439
f 454 455 456
f 454 456 457
f 458 459 454
f 458 454 457
f 456 460 458
f 456 458 457
f 461 462 463
f 461 463 464
f 465 466 461
f 465 461 464
f 463 467 465
f 463 465 464
f 468 449 451
f 468 451 469
f 451 470 471
f 451 471 469
f 471 472 468
f 471 468 469
f 473 474 475
f 473 475 476
f 475 477 424
f 475 424 476
f 424 423 473
f 424 473 476
f 446 442 478
f 446 478 479
f 478 480 481
f 478 481 479
f 482 483 446
f 482 446 479
f 481 484 485
f 481 485 479
f 485 486 482
f 485 482 479
f 487 426 435
f 487 435 488
f 489 490 487
f 489 487 488
f 435 450 489
f 435 489 488
f 491 467 463
f 491 463 492
f 493 494 483
f 493 483 495
f 496 497 493
f 496 493 495
f 483 482 496
f 483 496 495
f 498 459 458
f 498 458 499
f 458 460 500
f 458 500 499
f 500 501 502
f 500 502 499
f 503 504 487
f 503 487 490
f 505 506 503
f 505 503 490
f 472 507 505
f 472 505 490
f 489 468 472
f 489 472 490
f 501 500 474
f 501 474 508
f 509 510 501
f 509 501 508
f 496 511 512
f 496 512 497
f 512 513 493
f 512 493 497
f 514 494 493
f 514 493 513
f 515 516 514
f 515 514 513
f 512 507 515
f 512 515 513
f 471 470 516
f 471 516 515
f 507 472 471
f 507 471 515
f 436 445 514
f 436 514 516
f 470 432 436
f 470 436 516
f 445 444 494
f 445 494 514
f 505 507 512
f 505 512 511
f 486 506 505
f 486 505 511
f 496 482 486
f 496 486 511
f 452 453 510
f 452 510 509
f 473 423 452
f 473 452 509
f 508 474 473
f 508 473 509
f 453 517 518
f 453 518 510
f 518 502 501
f 518 501 510
f 437 519 520
f 437 520 517
f 453 438 437
f 453 437 517
f 520 521 518
f 520 518 517
f 520 522 523
f 520 523 521
f 524 502 518
f 524 518 521
f 523 525 524
f 523 524 521
f 523 526 527
f 523 527 525
f 528 529 524
f 528 524 525
f 527 530 528
f 527 528 525
f 527 531 532
f 527 532 530
f 533 534 528
f 533 528 530
f 532 535 533
f 532 533 530
f 532 536 537
f 532 537 535
f 538 539 533
f 538 533 535
f 537 540 538
f 537 538 535
f 537 541 542
f 537 542 540
f 408 411 538
f 408 538 540
f 542 543 408
f 542 408 540
f 542 544 545
f 542 545 543
f 546 409 408
f 546 408 543
f 545 547 546
f 545 546 543
f 545 548 549
f 545 549 547
f 550 551 546
f 550 546 547
f 549 552 550
f 549 550 547
f 549 553 554
f 549 554 552
f 555 556 550
f 555 550 552
f 554 557 555
f 554 555 552
f 554 558 559
f 554 559 557
f 560 561 555
f 560 555 557
f 559 562 560
f 559 560 557
f 559 563 564
f 559 564 562
f 565 566 560
f 565 560 562
f 564 567 565
f 564 565 562
f 564 568 569
f 564 569 567
f 570 571 565
f 570 565 567
f 569 572 570
f 569 570 567
f 569 573 574
f 569 574 572
f 575 576 570
f 575 570 572
f 574 577 575
f 574 575 572
f 574 578 579
f 574 579 577
f 580 581 575
f 580 575 577
f 579 582 580
f 579 580 577
f 579 583 584
f 579 584 582
f 585 586 580
f 585 580 582
f 584 587 585
f 584 585 582
f 584 588 589
f 584 589 587
f 590 591 585
f 590 585 587
f 589 592 590
f 589 590 587
f 589 593 594
f 589 594 592
f 595 596 590
f 595 590 592
f 594 597 595
f 594 595 592
f 594 598 599
f 594 599 597
f 600 601 595
f 600 595 597
f 599 602 600
f 599 600 597
f 599 603 604
f 599 604 602
f 605 606 600
f 605 600 602
f 604 607 605
f 604 605 602
f 604 608 609
f 604 609 607
f 610 611 605
f 610 605 607
f 609 612 610
f 609 610 607
f 609 613 614
f 609 614 612
f 615 616 610
f 615 610 612
f 614 617 615
f 614 615 612
f 614 618 619
f 614 619 617
f 620 621 615
f 620 615 617
f 619 622 620
f 619 620 617
f 619 623 624
f 619 624 622
f 625 626 620
f 625 620 622
f 624 627 625
f 624 625 622
f 624 628 629
f 624 629 627
f 630 631 625
f 630 625 627
f 629 632 630
f 629 630 627
f 629 633 634
f 629 634 632
f 635 636 630
f 635 630 632
f 634 637 635
f 634 635 632
f 634 638 639
f 634 639 637
f 640 641 635
f 640 635 637
f 639 642 640
f 639 640 637
f 639 643 644
f 639 644 642
f 645 646 640
f 645 640 642
f 644 647 645
f 644 645 642
f 644 648 649
f 644 649 647
f 650 651 645
f 650 645 647
f 649 652 650
f 649 650 647
f 649 653 654
f 649 654 652
f 655 656 650
f 655 650 652
f 654 657 655
f 654 655 652
f 654 658 659
f 654 659 657
f 660 661 655
f 660 655 657
f 659 662 660
f 659 660 657
f 659 663 664
f 659 664 662
f 665 666 660
f 665 660 662
f 664 667 665
f 664 665 662
f 664 668 669
f 664 669 667
f 670 671 665
f 670 665 667
f 669 672 670
f 669 670 667
f 669 673 674
f 669 674 672
f 675 676 670
f 675 670 672
f 674 484 675
f 674 675 672
f 677 678 676
f 677 676 675
f 484 481 677
f 484 677 675
f 679 680 678
f 679 678 677
f 481 480 679
f 481 679 677
f 681 682 680
f 681 680 679
f 480 683 681
f 480 681 679
f 480 478 684
f 480 684 683
f 685 686 681
f 685 681 683
f 684 687 685
f 684 685 683
f 684 441 430
f 684 430 687
f 688 689 685
f 688 685 687
f 430 428 688
f 430 688 687
f 690 691 689
f 690 689 688
f 428 427 690
f 428 690 688
f 692 693 691
f 692 691 690
f 427 504 692
f 427 692 690
f 694 673 693
f 694 693 692
f 504 503 694
f 504 694 692
f 695 674 673
f 695 673 694
f 503 506 695
f 503 695 694
f 485 484 674
f 485 674 695
f 506 486 485
f 506 485 695
f 668 696 691
f 668 691 693
f 673 669 668
f 673 668 693
f 697 689 691
f 697 691 696
f 663 698 697
f 663 697 696
f 668 664 663
f 668 663 696
f 699 686 697
f 699 697 698
f 658 700 699
f 658 699 698
f 663 659 658
f 663 658 698
f 701 682 699
f 701 699 700
f 653 702 701
f 653 701 700
f 658 654 653
f 658 653 700
f 703 704 701
f 703 701 702
f 648 705 703
f 648 703 702
f 653 649 648
f 653 648 702
f 706 707 703
f 706 703 705
f 643 708 706
f 643 706 705
f 648 644 643
f 648 643 705
f 709 710 706
f 709 706 708
f 638 711 709
f 638 709 708
f 643 639 638
f 643 638 708
f 712 713 709
f 712 709 711
f 633 714 712
f 633 712 711
f 638 634 633
f 638 633 711
f 715 716 712
f 715 712 714
f 628 717 715
f 628 715 714
f 633 629 628
f 633 628 714
f 718 719 715
f 718 715 717
f 623 720 718
f 623 718 717
f 628 624 623
f 628 623 717
f 721 722 718
f 721 718 720
f 618 723 721
f 618 721 720
f 623 619 618
f 623 618 720
f 724 725 721
f 724 721 723
f 613 726 724
f 613 724 723
f 618 614 613
f 618 613 723
f 727 728 724
f 727 724 726
f 608 729 727
f 608 727 726
f 613 609 608
f 613 608 726
f 730 731 727
f 730 727 729
f 603 732 730
f 603 730 729
f 608 604 603
f 608 603 729
f 733 734 730
f 733 730 732
f 598 735 733
f 598 733 732
f 603 599 598
f 603 598 732
f 736 737 733
f 736 733 735
f 593 738 736
f 593 736 735
f 598 594 593
f 598 593 735
f 739 740 736
f 739 736 738
f 588 741 739
f 588 739 738
f 593 589 588
f 593 588 738
f 742 743 739
f 742 739 741
f 583 744 742
f 583 742 741
f 588 584 583
f 588 583 741
f 745 746 742
f 745 742 744
f 578 747 745
f 578 745 744
f 583 579 578
f 583 578 744
f 748 749 745
f 748 745 747
f 573 750 748
f 573 748 747
f 578 574 573
f 578 573 747
f 751 752 748
f 751 748 750
f 568 753 751
f 568 751 750
f 573 569 568
f 573 568 750
f 754 755 751
f 754 751 753
f 563 756 754
f 563 754 753
f 568 564 563
f 568 563 753
f 757 758 754
f 757 754 756
f 558 759 757
f 558 757 756
f 563 559 558
f 563 558 756
f 760 761 757
f 760 757 759
f 553 762 760
f 553 760 759
f 558 554 553
f 558 553 759
f 763 764 760
f 763 760 762
f 548 765 763
f 548 763 762
f 553 549 548
f 553 548 762
f 766 767 763
f 766 763 765
f 544 768 766
f 544 766 765
f 548 545 544
f 548 544 765
f 769 770 766
f 769 766 768
f 541 771 769
f 541 769 768
f 544 542 541
f 544 541 768
f 772 773 769
f 772 769 771
f 536 774 772
f 536 772 771
f 541 537 536
f 541 536 771
f 775 776 772
f 775 772 774
f 531 777 775
f 531 775 774
f 536 532 531
f 536 531 774
f 778 779 775
f 778 775 777
f 526 780 778
f 526 778 777
f 531 527 526
f 531 526 777
f 781 782 778
f 781 778 780
f 522 783 781
f 522 781 780
f 526 523 522
f 526 522 780
f 784 785 781
f 784 781 783
f 519 417 784
f 519 784 783
f 522 520 519
f 522 519 783
f 786 412 785
f 786 785 784
f 417 416 786
f 417 786 784
f 787 413 412
f 787 412 786
f 416 421 787
f 416 787 786
f 788 414 413
f 788 413 787
f 421 789 788
f 421 788 787
f 790 791 788
f 790 788 789
f 455 454 790
f 455 790 789
f 421 420 455
f 421 455 789
f 491 492 791
f 491 791 790
f 454 459 491
f 454 491 790
f 462 414 788
f 462 788 791
f 492 463 462
f 492 462 791
f 412 410 792
f 412 792 785
f 792 782 781
f 792 781 785
f 410 409 793
f 410 793 792
f 793 794 782
f 793 782 792
f 793 551 795
f 793 795 794
f 779 778 782
f 779 782 794
f 795 796 779
f 795 779 794
f 795 556 797
f 795 797 796
f 776 775 779
f 776 779 796
f 797 798 776
f 797 776 796
f 797 561 799
f 797 799 798
f 773 772 776
f 773 776 798
f 799 800 773
f 799 773 798
f 799 566 801
f 799 801 800
f 770 769 773
f 770 773 800
f 801 802 770
f 801 770 800
f 801 571 803
f 801 803 802
f 767 766 770
f 767 770 802
f 803 804 767
f 803 767 802
f 803 576 805
f 803 805 804
f 764 763 767
f 764 767 804
f 805 806 764
f 805 764 804
f 805 581 807
f 805 807 806
f 761 760 764
f 761 764 806
f 807 808 761
f 807 761 806
f 807 586 809
f 807 809 808
f 758 757 761
f 758 761 808
f 809 810 758
f 809 758 808
f 809 591 811
f 809 811 810
f 755 754 758
f 755 758 810
f 811 812 755
f 811 755 810
f 811 596 813
f 811 813 812
f 752 751 755
f 752 755 812
f 813 814 752
f 813 752 812
f 813 601 815
f 813 815 814
f 749 748 752
f 749 752 814
f 815 816 749
f 815 749 814
f 815 606 817
f 815 817 816
f 746 745 749
f 746 749 816
f 817 818 746
f 817 746 816
f 817 611 819
f 817 819 818
f 743 742 746
f 743 746 818
f 819 820 743
f 819 743 818
f 819 616 821
f 819 821 820
f 740 739 743
f 740 743 820
f 821 822 740
f 821 740 820
f 821 621 823
f 821 823 822
f 737 736 740
f 737 740 822
f 823 824 737
f 823 737 822
f 823 626 825
f 823 825 824
f 734 733 737
f 734 737 824
f 825 826 734
f 825 734 824
f 825 631 827
f 825 827 826
f 731 730 734
f 731 734 826
f 827 828 731
f 827 731 826
f 827 636 829
f 827 829 828
f 728 727 731
f 728 731 828
f 829 830 728
f 829 728 828
f 829 641 831
f 829 831 830
f 725 724 728
f 725 728 830
f 831 832 725
f 831 725 830
f 831 646 833
f 831 833 832
f 722 721 725
f 722 725 832
f 833 834 722
f 833 722 832
f 833 651 835
f 833 835 834
f 719 718 722
f 719 722 834
f 835 836 719
f 835 719 834
f 835 656 837
f 835 837 836
f 716 715 719
f 716 719 836
f 837 838 716
f 837 716 836
f 837 661 839
f 837 839 838
f 713 712 716
f 713 716 838
f 839 840 713
f 839 713 838
f 839 666 841
f 839 841 840
f 710 709 713
f 710 713 840
f 841 842 710
f 841 710 840
f 841 671 843
f 841 843 842
f 707 706 710
f 707 710 842
f 843 844 707
f 843 707 842
f 843 676 678
f 843 678 844
f 704 703 707
f 704 707 844
f 678 680 704
f 678 704 844
f 671 670 676
f 671 676 843
f 666 665 671
f 666 671 841
f 661 660 666
f 661 666 839
f 656 655 661
f 656 661 837
f 651 650 656
f 651 656 835
f 646 645 651
f 646 651 833
f 641 640 646
f 641 646 831
f 636 635 641
f 636 641 829
f 631 630 636
f 631 636 827
f 626 625 631
f 626 631 825
f 621 620 626
f 621 626 823
f 616 615 621
f 616 621 821
f 611 610 616
f 611 616 819
f 606 605 611
f 606 611 817
f 601 600 606
f 601 606 815
f 596 595 601
f 596 601 813
f 591 590 596
f 591 596 811
f 586 585 591
f 586 591 809
f 581 580 586
f 581 586 807
f 576 575 581
f 576 581 805
f 571 570 576
f 571 576 803
f 566 565 571
f 566 571 801
f 561 560 566
f 561 566 799
f 556 555 561
f 556 561 797
f 551 550 556
f 551 556 795
f 409 546 551
f 409 551 793
f 680 682 701
f 680 701 704
f 682 681 686
f 682 686 699
f 686 685 689
f 686 689 697
f 478 442 441
f 478 441 684
f 411 415 539
f 411 539 538
f 466 534 533
f 466 533 539
f 415 461 466
f 415 466 539
f 845 529 528
f 845 528 534
f 466 465 845
f 466 845 534
f 498 499 529
f 498 529 845
f 465 467 498
f 465 498 845
f 499 502 524
f 499 524 529
f 437 418 417
f 437 417 519
f 427 426 487
f 427 487 504
f 460 475 474
f 460 474 500
f 467 491 459
f 467 459 498
f 444 446 483
f 444 483 494
f 450 449 468
f 450 468 489
f 420 419 424
f 420 424 477
f 456 455 420
f 456 420 477
f 475 460 456
f 475 456 477
f 451 433 432
f 451 432 470
f 415 414 462
f 415 462 461
f 436 431 440
f 436 440 445
f 431 430 441
f 431 441 440
# Vertices: 845, normals: 0, texture coordinates: 0, faces: 1682

