# File generated by ImageToStl.com - Free Image and 3D model conversion tools

o obj1
v -0.017534 -0.005773 0.001672
v -0.014889 -0.004263 0.007677
v -0.015336 -0.001709 0.00502
v -0.016408 -0.000916 -0.00114
v -0.008588 0.000363 0.016332
v -0.009812 0.008402 0.009034
v -0.015134 -0.009392 0.006469
v -0.008109 -0.002378 0.019176
v -0.016145 -0.01116 0.00075
v -0.016894 -0.008737 -0.003632
v -0.017213 -0.004306 -0.005621
v -0.011834 0.006489 -0.002472
v -0.001819 0.005958 0.018558
v -0.001849 0.000709 0.01858
v -0.002403 0.009072 0.015098
v -0.00404 0.008542 0.005741
v -0.008156 -0.010315 0.01921
v -0.009509 -0.01384 0.011591
v -0.011753 -0.011069 -0.00135
v -0.01279 -0.004464 -0.007535
v -0.0132 0.000903 -0.010083
v -0.006053 0.006568 -0.005703
v 0.004224 0.010541 0.016663
v 0.004404 0.008107 0.017781
v -0.001458 -0.007908 0.021141
v 0.004365 0.001357 0.01781
v 0.004701 -0.003949 0.019925
v 0.002786 0.009264 0.00848
v 0.001097 0.009358 -0.001186
v -0.002952 -0.00981 0.012653
v -0.003984 -0.009892 0.006743
v -0.005343 -0.006355 -0.001153
v -0.006902 -0.002759 -0.010219
v -0.007451 -0.000894 -0.013429
v -0.007312 0.002795 -0.012766
v -0.001113 0.006381 -0.013734
v -0.000964 0.011758 -0.01308
v -0.000284 0.012208 -0.009203
v 0.011067 0.008327 0.019597
v 0.010816 0.013197 0.017977
v 0.009372 0.012608 0.009729
v 0.01082 0.001011 0.018459
v 0.004377 -0.007954 0.018219
v 0.00979 -0.000758 0.012617
v 0.008875 -0.006587 0.007593
v 0.007844 0.010954 0.001054
v 0.006297 0.013113 -0.007881
v 0.00249 -0.006676 0.007377
v 0.001319 -0.004636 0.000596
v 2E-05 -0.008159 -0.006716
v -0.001083 -0.009117 -0.012991
v -0.00132 -0.007122 -0.014416
v -0.000879 -0.001614 -0.0121
v 0.004587 -0.002166 -0.017112
v 0.004393 0.005266 -0.018499
v 0.004559 0.013894 -0.01786
v 0.016815 0.009905 0.016115
v 0.017353 0.00629 0.019331
v 0.017451 -0.000895 0.020162
v 0.008122 -0.008226 0.003352
v 0.016136 -0.007106 0.012861
v 0.01356 0.010656 -0.002543
v 0.011494 0.012555 -0.014434
v 0.006425 -0.009819 -0.006307
v 0.004808 -0.016224 -0.015331
v 0.004027 -0.013425 -0.019898
v 0.003969 -0.008552 -0.02041
v 0.011431 -0.002194 -0.014249
v 0.011223 0.000865 -0.015554
v 0.010979 0.007109 -0.017182
v 0.011171 0.01255 -0.016281
v 0.022744 0.006111 0.013885
v 0.020859 0.007388 0.003044
v 0.022406 0.007167 0.011911
v 0.023483 -0.002124 0.018414
v 0.023415 -0.006313 0.018186
v 0.01559 -0.010241 0.009858
v 0.014124 -0.007268 0.00135
v 0.02278 -0.008386 0.014624
v 0.022242 -0.008646 0.011547
v 0.018882 0.007665 -0.008285
v 0.018275 0.006965 -0.01173
v 0.012082 -0.006681 -0.010352
v 0.011014 -0.007763 -0.016441
v 0.011147 -0.005011 -0.015775
v 0.017952 -0.004539 -0.013159
v 0.018189 -0.002472 -0.011876
v 0.018252 0.003153 -0.011715
v 0.028566 0.003878 0.010972
v 0.026307 0.00571 -0.002026
v 0.027208 -0.004271 0.003496
v 0.021713 -0.010781 0.0086
v 0.020847 -0.00961 0.003608
v 0.025728 0.002451 -0.005214
v 0.018541 -0.006527 -0.009704
v 0.01814 -0.007222 -0.011979
v 0.024665 -0.001069 -0.011172
v 0.028607 -0.002347 0.002356
v 0.027173 -0.000936 -0.005899
f 1 2 3
f 1 3 4
f 3 2 5
f 3 5 6
f 4 3 6
f 1 7 2
f 2 8 5
f 2 7 8
f 1 9 7
f 1 10 9
f 1 11 10
f 1 4 11
f 11 4 12
f 4 6 12
f 6 5 13
f 5 14 13
f 5 8 14
f 6 13 15
f 12 6 16
f 6 15 16
f 7 17 8
f 7 18 17
f 7 9 18
f 8 17 14
f 9 19 18
f 9 10 19
f 10 20 19
f 10 11 20
f 11 21 20
f 11 12 21
f 21 12 22
f 12 16 22
f 15 13 23
f 13 24 23
f 13 14 24
f 17 25 14
f 14 26 24
f 14 27 26
f 14 25 27
f 16 15 28
f 15 23 28
f 22 16 29
f 16 28 29
f 17 18 25
f 18 30 25
f 18 31 30
f 18 19 31
f 19 32 31
f 19 33 32
f 19 20 33
f 20 34 33
f 20 21 34
f 21 35 34
f 21 22 35
f 35 22 36
f 22 37 36
f 22 38 37
f 22 29 38
f 23 39 40
f 23 24 39
f 28 23 41
f 23 40 41
f 24 42 39
f 24 26 42
f 25 43 27
f 25 30 43
f 26 44 42
f 26 45 44
f 26 27 45
f 27 43 45
f 29 28 46
f 28 41 46
f 38 29 47
f 29 46 47
f 30 48 43
f 30 31 48
f 31 49 48
f 31 32 49
f 32 50 49
f 32 33 50
f 33 51 50
f 33 52 51
f 33 53 52
f 33 34 53
f 34 36 53
f 34 35 36
f 53 36 54
f 36 55 54
f 36 37 55
f 37 56 55
f 37 38 56
f 38 47 56
f 40 39 57
f 41 40 57
f 39 58 57
f 39 42 58
f 46 41 57
f 42 59 58
f 42 44 59
f 43 48 45
f 44 45 59
f 48 60 45
f 45 61 59
f 45 60 61
f 47 46 62
f 46 57 62
f 56 47 63
f 47 62 63
f 48 49 60
f 49 64 60
f 49 50 64
f 50 65 64
f 50 51 65
f 51 66 65
f 51 52 66
f 52 67 66
f 52 53 67
f 53 54 67
f 67 54 68
f 54 69 68
f 54 55 69
f 55 70 69
f 55 56 70
f 56 71 70
f 56 63 71
f 57 58 72
f 62 57 73
f 57 74 73
f 57 72 74
f 58 75 72
f 58 59 75
f 59 76 75
f 59 61 76
f 60 77 61
f 60 78 77
f 60 64 78
f 61 79 76
f 61 80 79
f 61 77 80
f 63 62 81
f 62 73 81
f 71 63 82
f 63 81 82
f 64 83 78
f 64 65 83
f 65 84 83
f 65 66 84
f 66 85 84
f 66 67 85
f 67 68 85
f 85 68 86
f 68 87 86
f 68 69 87
f 69 88 87
f 69 70 88
f 70 82 88
f 70 71 82
f 72 75 89
f 74 72 89
f 81 73 90
f 73 74 90
f 74 89 90
f 75 76 89
f 76 91 89
f 76 79 91
f 77 92 80
f 77 93 92
f 77 78 93
f 78 83 93
f 79 80 91
f 80 92 91
f 82 81 94
f 81 90 94
f 88 82 94
f 83 95 93
f 83 96 95
f 83 84 96
f 84 85 96
f 85 86 96
f 96 86 97
f 86 87 97
f 87 94 97
f 87 88 94
f 89 91 98
f 90 89 99
f 89 98 99
f 94 90 99
f 92 93 91
f 93 97 91
f 91 97 98
f 93 95 97
f 97 94 99
f 95 96 97
f 97 99 98
# Vertices: 99, normals: 0, texture coordinates: 0, faces: 194

