# File generated by ImageToStl.com - Free Image and 3D model conversion tools

o obj1
v 0.019653 -0.00457297 -0.0154661
v 0.02015372 0.00106368 -0.01396022
v 0.01315287 0.00279435 -0.01969358
v 0.01371541 -0.00454171 -0.02000673
v 0.02155192 -0.009351 -0.01082222
v 0.02429582 -0.00270457 -0.00607576
v 0.01341816 -0.01189904 -0.01612195
v 0.01282321 0.00852704 -0.01764574
v 0.01797817 0.00878919 -0.01152335
v 0.01277956 0.01584172 -0.01035232
v 0.00760323 0.012117 -0.01855421
v 0.00513134 0.00444952 -0.02144839
v 0.00288047 -0.02319514 0.02770783
v 0.00802879 -0.0163958 0.01610961
v 0.00682907 -0.01995715 0.01198044
v 0.00338085 -0.02536889 0.01870916
v 0.00358051 -0.01659519 0.02804357
v 0.00852797 -0.01071179 0.01890339
v 0.0017359 -0.0315643 0.02268015
v 0.00127584 -0.03088531 0.03308377
v 0.00024661 -0.0320045 0.04520603
v 0.00153818 -0.02469555 0.04398849
v 0.00294436 -0.01773741 0.04258142
v 0.02672659 -0.37688604 -0.00296838
v 0.02507392 -0.38310388 -0.01268707
v 0.02660967 -0.39142382 -0.00713576
v 0.02628274 -0.38722998 0.00245075
v 0.02724697 -0.37609839 0.009956
v 0.02822712 -0.36661184 0.00906472
v 0.02721928 -0.36504236 -0.00156759
v 0.0271106 -0.38430727 0.01256502
v 0.02461741 -0.41309151 0.02951292
v 0.02731385 -0.40645069 0.03021682
v 0.02823159 -0.40770555 0.02077167
v 0.0243912 -0.41526508 0.02272689
v 0.01754152 -0.41410026 0.03178359
v 0.01801616 -0.40580019 0.03324146
v 0.01767735 -0.42073008 0.0259357
v -0.01187505 0.02113504 0.0030941
v -0.00365461 0.02273383 0.00235402
v -0.00215696 0.02015337 0.011605
v -0.01329472 0.01875167 0.00949468
v -0.01679862 0.01772605 -0.00262728
v -0.00798771 0.02087697 -0.00709969
v -0.02135673 0.01310279 0.00428884
v -0.01663225 0.00079673 0.04466788
v -0.01599815 0.00251746 0.05058764
v -0.02573189 0.00064398 0.04724029
v -0.02291477 -0.00099017 0.04185499
v -0.01320906 -0.00345268 0.04324141
v -0.00885318 0.0003805 0.04919375
v -0.01909394 -0.00676105 0.04036404
v -0.00660888 -0.05740878 0.01385601
v -0.00567189 -0.04886403 0.01332726
v -0.01097035 -0.04665443 0.0100409
v -0.01175731 -0.05299271 0.00734395
v -0.00073735 -0.05712884 0.02008615
v -0.00134043 -0.04986725 0.01978368
v -0.00455993 -0.06735014 0.01674096
v 0.00076605 -0.06573841 0.02011108
v -0.01403048 -0.05915402 0.00740564
v -0.01176965 -0.06471349 0.01066707
v -0.01006661 -0.07127495 0.01620034
v -0.0103692 -0.00164479 -0.02183744
v -0.01011845 0.0053381 -0.02012333
v -0.01632986 0.00166329 -0.0146994
v -0.01523893 -0.00668695 -0.01847352
v -0.00748801 -0.01147758 -0.02061899
v -0.00420808 -0.00304312 -0.02344338
v -0.00239215 0.00524731 -0.02052121
v -0.01598262 -0.02578954 0.01715646
v -0.01581191 -0.01945304 0.01177893
v -0.01733352 -0.01574602 0.01430789
v -0.01642569 -0.02003396 0.02092608
v -0.02016047 -0.0226745 0.02871763
v -0.02038702 -0.02833274 0.02594217
v -0.0118138 -0.02874164 0.01083192
v -0.01184356 -0.02311185 0.00850017
v -0.01985902 -0.03428267 0.02443399
v -0.01575497 -0.03349216 0.01626453
v -0.01098766 -0.03513277 0.01075705
v -0.01782429 -0.05075467 0.0094979
v -0.01931495 -0.05802296 0.01120145
v -0.0177527 -0.0655394 0.01692615
v -0.03135348 -0.00499703 0.0327283
v -0.02827276 -0.00257909 0.03659082
v -0.03305297 -0.00287005 0.04182335
v -0.03557548 -0.0049654 0.03650143
v -0.036143 -0.00935365 0.0357558
v -0.0292501 -0.01009693 0.03237077
v -0.0242573 -0.00862028 0.03627962
v -0.02169186 -0.01671457 0.03248572
v -0.01772279 -0.01237754 0.03426076
v -0.01586287 -0.0152327 0.02443101
v -0.01453886 -0.01079506 0.02728304
v -0.0316199 -0.01602911 0.03416031
v -0.02809748 -0.02274438 0.03184972
v 0.00057912 -0.41535065 0.00419683
v 0.00885322 -0.41939384 0.00262302
v 0.00482044 -0.4212178 -0.00297657
v -0.00076495 -0.41386098 -0.00327873
v 0.00277781 -0.42174739 0.01121601
v 0.00964388 -0.42052084 0.00867999
v -0.00669568 -0.41668776 0.00767646
v -0.00391931 -0.42206439 0.01428677
v -0.01982104 -0.0501134 0.01513898
v -0.01615372 -0.04501446 0.01271025
v -0.01943398 -0.04592073 0.01827049
v -0.02206834 -0.04940941 0.02394712
v -0.02040345 -0.05452617 0.01929281
v -0.0197283 -0.06192441 0.02759415
v -0.01935583 -0.06513319 0.03946786
v -0.01665985 -0.07371675 0.03899699
v -0.01714812 -0.07243043 0.03000831
v -0.01495241 -0.07285644 0.02145373
v -0.02294035 -0.05397894 0.03192881
v -0.02149531 -0.05700164 0.0413546
v -0.00018444 -0.37609226 0.01061055
v 0.00260373 -0.37170219 -0.00433478
v 0.00400869 -0.36488962 -0.00213507
v 0.00167558 -0.36694798 0.00973362
v -0.00108322 -0.38287854 0.00326998
v 0.00030485 -0.37782097 -0.00795315
v 0.00015932 -0.36697763 0.02257317
v -0.00204461 -0.375112 0.02559928
v -0.00725585 -0.38331479 0.01819956
v -0.00593454 -0.38769832 0.01134156
v -0.03442053 -0.00777124 0.04424284
v -0.00781366 -0.3850278 0.03067846
v 0.00431479 -0.3779383 0.03236901
v 0.00124784 -0.38706216 0.03545713
v -0.00026404 -0.39609188 0.03829355
v -0.00899402 -0.3954469 0.03737297
v -0.01515558 -0.39842948 0.03475138
v -0.01655091 -0.39124167 0.03005248
v -0.01644329 -0.38777968 0.0204716
v -0.00822406 -0.39519015 -0.00398324
v -0.00654067 -0.38777474 -0.01453211
v -0.0026172 -0.38344494 -0.01154421
v -0.00426345 -0.38836426 -0.00139957
v -0.00694657 -0.392214 0.00681589
v -0.0092235 -0.39825478 0.00485786
v -0.00521023 -0.40556484 0.00045747
v -0.00629846 -0.40586343 -0.00533966
v -0.01050055 -0.39735216 -0.00933033
v -0.00903045 -0.40683237 0.00592662
v -0.01080219 -0.39001364 -0.01673134
v -0.00043379 -0.41300198 -0.03866683
v -0.00348919 -0.40809411 -0.03926617
v -0.01010105 -0.41341582 -0.03766816
v -0.00365443 -0.41809466 -0.0364419
v 0.00684254 -0.41145965 -0.03742507
v 0.00550756 -0.40372619 -0.03932092
v 0.00584083 -0.41883177 -0.03378255
v -0.01202199 -0.39310274 0.00917438
v -0.01424608 -0.38963279 0.01233787
v -0.01998174 -0.39758933 0.01267445
v -0.0146501 -0.39884195 0.00855049
v -0.01271961 -0.40414387 0.03514281
v -0.00810737 -0.40464872 0.03762036
v -0.00814443 -0.4132385 0.035199
v -0.01356923 -0.40980142 0.03310228
v -0.01894276 -0.40487286 0.03315018
v -0.01198978 -0.41630507 -0.01145547
v -0.00859222 -0.41544622 -0.01061145
v -0.00581864 -0.4232868 -0.01080084
v -0.01217455 -0.42199856 -0.0125164
v -0.01807823 -0.41785824 -0.01393522
v -0.01576126 -0.41203862 -0.01192695
v -0.01204734 -0.40855712 -0.01173225
v -0.01615027 -0.42036867 0.01912954
v -0.01137308 -0.42241681 0.01675427
v -0.01400596 -0.41731167 0.01034033
v -0.01922477 -0.4160679 0.01585284
v -0.01683605 -0.42071182 0.02506136
v -0.00997339 -0.42421749 0.02460818
v -0.02176705 -0.41488206 0.0230085
v -0.02120394 -0.39935079 -0.02655832
v -0.01763659 -0.39525571 -0.02740434
v -0.01863151 -0.39614642 -0.01927522
v -0.02226062 -0.40142721 -0.02096652
v -0.02203516 -0.40360779 -0.03079797
v -0.01714861 -0.39859995 -0.03517564
v -0.02387054 -0.4076547 -0.02429711
v -0.02465513 -0.40643522 0.0270619
v -0.02280479 -0.39931697 0.02882429
v -0.02251511 -0.41210413 0.03038952
v -0.02443931 -0.40697223 0.02075035
v -0.02285808 -0.39709106 0.0205384
v -0.02174459 -0.41667548 -0.02149865
v -0.01804801 -0.42203155 -0.02021606
v -0.01727577 -0.42247927 -0.02787467
v -0.02219768 -0.41503638 -0.02728187
v -0.02258604 -0.41220003 -0.01763945
v -0.02090196 -0.40624699 -0.01427887
v -0.01685713 -0.40157515 -0.01340738
v -0.01478456 -0.39207849 -0.01794869
v -0.01304067 -0.3990263 -0.01244282
v -0.00911793 -0.40686345 -0.00933158
v -0.0046183 -0.41469565 -0.00778947
v 0.00020469 -0.42307997 -0.00748685
v 0.01215277 -0.42314532 -0.00641315
v 0.00655309 -0.42755136 -0.01156543
v -0.00227902 -0.42922744 -0.0159201
v -0.01122828 -0.4272005 -0.01868309
v 0.01197895 -0.42741641 -0.01786019
v 0.00148528 -0.42990363 -0.02317383
v -0.00927863 -0.42819273 -0.02647398
v 0.00449419 -0.42677733 -0.03023846
v -0.0068959 -0.42563093 -0.03383058
v -0.0146482 -0.41976371 -0.03530285
v -0.02076686 -0.41160333 -0.03468106
v -0.01468206 -0.40630949 -0.03781504
v -0.00708262 -0.40121603 -0.03971962
v -0.00972683 -0.39489046 -0.03589828
v 0.00181951 -0.39576429 -0.04033628
v -0.00297248 -0.38909179 -0.03704846
v -0.00690101 -0.38862723 -0.02688815
v -0.01145322 -0.39227799 -0.02733332
v 0.00284909 -0.38347477 -0.03446574
v -0.00314425 -0.38429186 -0.02494249
v 0.00678136 -0.37954915 -0.02934234
v -0.00049128 -0.37905324 -0.02192556
v 0.00962504 -0.37440184 -0.02498884
v 0.0016797 -0.37335476 -0.01884585
v 0.0118032 -0.36860114 -0.02117216
v 0.00335994 -0.36706358 -0.01609828
v 0.01344295 -0.36241981 -0.01793482
v 0.00534273 -0.36105877 -0.0132057
v 0.01466638 -0.35566163 -0.01527094
v 0.00694425 -0.35480565 -0.01060879
v 0.00469943 -0.35773605 -0.00047246
v 0.00816003 -0.34798366 -0.00850466
v 0.00519826 -0.35022771 0.00089317
v 0.00290527 -0.35150921 0.01049647
v 0.00232883 -0.35926381 0.0099309
v 0.00215464 -0.35169601 0.02067733
v 0.00127194 -0.35935301 0.02117211
v 0.00747522 -0.3526988 0.02804916
v 0.00698528 -0.36076134 0.02865552
v 0.00628147 -0.36908939 0.03004542
v 0.01474665 -0.36273324 0.02986371
v 0.01395257 -0.37135667 0.03101106
v 0.01251503 -0.38019997 0.03286092
v 0.01059598 -0.38894019 0.03481156
v 0.02128896 -0.37272793 0.02800623
v 0.02065286 -0.3810747 0.02999296
v 0.0199502 -0.38934618 0.03192788
v 0.01919301 -0.39757925 0.0330059
v 0.0094077 -0.39737204 0.03613347
v 0.02672917 -0.38193369 0.02292892
v 0.02735283 -0.38949773 0.02560538
v 0.02808496 -0.39755508 0.02827675
v 0.02810252 -0.39172605 0.01561318
v 0.02896654 -0.39945036 0.01853304
v 0.02690394 -0.39471051 0.00621473
v 0.02717464 -0.40200481 0.00937679
v 0.02513593 -0.40901172 0.01205448
v 0.02321072 -0.4115417 0.00367981
v 0.0181753 -0.41618323 0.00671833
v 0.02154358 -0.41575968 0.01457496
v 0.02757741 -0.40608066 0.00068898
v 0.02934861 -0.41288194 -0.0080232
v 0.02320845 -0.41751114 -0.0038363
v 0.02810666 -0.39891717 -0.00289431
v 0.0282381 -0.40460414 -0.01220669
v 0.02382185 -0.41046238 -0.02080474
v 0.02412124 -0.41876033 -0.01677822
v 0.02612995 -0.39669108 -0.01626695
v 0.02264613 -0.40225816 -0.02479807
v 0.0156649 -0.4073264 -0.03179206
v 0.01596157 -0.41552576 -0.02819637
v 0.02318341 -0.38856015 -0.02078899
v 0.01956727 -0.39389807 -0.02832083
v 0.01413729 -0.39893505 -0.03516721
v 0.01442405 -0.38571012 -0.03075243
v 0.00970901 -0.39046609 -0.03678541
v 0.01792194 -0.3804273 -0.02483772
v 0.02024204 -0.37481925 -0.01896126
v 0.02216378 -0.36848474 -0.01406294
v 0.02291479 -0.36025757 -0.01117842
v 0.02754826 -0.35519397 -0.0004223
v 0.02345308 -0.3517732 -0.00919062
v 0.01561831 -0.34843808 -0.01306083
v 0.02379074 -0.34330001 -0.00751217
v 0.01622555 -0.34085524 -0.01105823
v 0.00898382 -0.34067243 -0.00676551
v 0.01663853 -0.33299518 -0.00929975
v 0.00954815 -0.33303678 -0.00527532
v 0.00611255 -0.33458298 0.00320388
v 0.00569625 -0.34246868 0.00207751
v 0.00345828 -0.33552325 0.01185737
v 0.00320562 -0.3435683 0.01111398
v 0.00314202 -0.33584619 0.02104698
v 0.0027376 -0.34387708 0.0207082
v 0.00842081 -0.33656132 0.02760845
v 0.00800141 -0.34468645 0.02773478
v 0.01600961 -0.33768523 0.02952729
v 0.01576744 -0.34601837 0.02945
v 0.01535019 -0.35434523 0.02941717
v 0.02316149 -0.34712112 0.02650491
v 0.0227766 -0.35576284 0.02642837
v 0.02208501 -0.36430603 0.0267928
v 0.02778818 -0.35677195 0.01894326
v 0.02729978 -0.36573556 0.01930132
v 0.02678153 -0.37415785 0.02063558
v 0.02904338 -0.35688615 0.00927031
v 0.02808173 -0.34772032 0.01923078
v 0.02939654 -0.34744471 0.00994278
v 0.02783165 -0.34592849 0.00073076
v 0.02949847 -0.33833888 0.01071469
v 0.02802777 -0.33698812 0.00181943
v 0.02403207 -0.33486319 -0.00609506
v 0.02812639 -0.32823104 0.00288335
v 0.02417846 -0.32646465 -0.00475584
v 0.01689706 -0.32503188 -0.00753964
v 0.02419768 -0.31812131 -0.00339791
v 0.01708539 -0.31698829 -0.00593156
v 0.01034655 -0.3172774 -0.00238992
v 0.01002451 -0.32522562 -0.00377508
v 0.00658787 -0.31852451 0.00518007
v 0.00637714 -0.32659525 0.00422839
v 0.003871 -0.31917107 0.01322227
v 0.00371624 -0.32737929 0.01257325
v 0.00419773 -0.3193987 0.02168744
v 0.00360017 -0.32762536 0.02139333
v 0.00933499 -0.32014725 0.02788958
v 0.0088827 -0.32836282 0.02763039
v 0.01641583 -0.32109559 0.0301786
v 0.01620504 -0.32939804 0.02976001
v 0.02346083 -0.32159355 0.02760797
v 0.02341655 -0.33003142 0.02704242
v 0.02332468 -0.33850396 0.0267069
v 0.02833557 -0.33004999 0.020295
v 0.02824631 -0.33881232 0.01969383
v 0.02950029 -0.32943997 0.01155343
v 0.02818192 -0.32140499 0.02101733
v 0.02930055 -0.3207131 0.01247395
v 0.02809169 -0.3196106 0.00396505
v 0.02906306 -0.31216827 0.01335584
v 0.0280238 -0.31111014 0.0049747
v 0.02414945 -0.3098124 -0.00204542
v 0.0279831 -0.30267939 0.00596902
v 0.02407105 -0.3014673 -0.00082191
v 0.01731058 -0.30083877 -0.00291619
v 0.0172469 -0.30893743 -0.00435947
v 0.01098599 -0.30125105 0.00041157
v 0.01069387 -0.30928034 -0.00095679
v 0.00687244 -0.30221599 0.00695385
v 0.00675306 -0.3103835 0.00607648
v 0.00405484 -0.3027555 0.01439573
v 0.003953 -0.31094837 0.01378812
v 0.00523391 -0.30306998 0.0222926
v 0.00478524 -0.3112129 0.02199183
v 0.0099703 -0.30363333 0.02836558
v 0.0097109 -0.31190199 0.02811417
v 0.01658958 -0.30431417 0.03087448
v 0.01652104 -0.31271768 0.03054618
v 0.02338243 -0.30468202 0.02887624
v 0.02344611 -0.3131246 0.028292
v 0.02780432 -0.3044115 0.02246813
v 0.02797292 -0.31287131 0.02174382
v 0.02897782 -0.30372494 0.01423829
v 0.02758151 -0.29595584 0.02316844
v 0.02884791 -0.29532802 0.01513233
v 0.02784779 -0.29432395 0.00701912
v 0.0285696 -0.28690705 0.01588592
v 0.02761175 -0.28600985 0.00794179
v 0.02363227 -0.28502882 0.00145571
v 0.02387631 -0.29319814 0.00036513
v 0.01707951 -0.28465492 -0.00014689
v 0.01721676 -0.29272655 -0.00149827
v 0.01107518 -0.28510916 0.00291307
v 0.01103422 -0.29317236 0.00164086
v 0.00678846 -0.28595471 0.00862734
v 0.00686243 -0.29405883 0.00781039
v 0.0040056 -0.28651151 0.01552779
v 0.00408963 -0.29461038 0.01500987
v 0.00581326 -0.28681448 0.02285524
v 0.00555399 -0.29494694 0.02262431
v 0.01008675 -0.28719151 0.02876493
v 0.01008586 -0.29541278 0.02861374
v 0.01639512 -0.28760776 0.0312602
v 0.01656594 -0.29594702 0.03114688
v 0.02297358 -0.28779256 0.02988454
v 0.02322765 -0.29620674 0.02939521
v 0.02729553 -0.28751126 0.02374043
v 0.02263536 -0.27947152 0.03025506
v 0.02696479 -0.27913505 0.02432407
v 0.02822757 -0.27851728 0.01654281
v 0.02653208 -0.27080631 0.02487962
v 0.02782881 -0.27020276 0.01718388
v 0.02690373 -0.26937729 0.00941884
v 0.02726373 -0.27770069 0.00873858
v 0.02283611 -0.26861063 0.00333596
v 0.02327754 -0.27685869 0.00245856
v 0.01646268 -0.26849926 0.00226049
v 0.01683973 -0.27658522 0.00104806
v 0.01072913 -0.26906309 0.00536186
v 0.01101649 -0.2770859 0.00421195
v 0.00612265 -0.26981011 0.01003217
v 0.0064791 -0.27787504 0.00931084
v 0.00343026 -0.27037168 0.01632404
v 0.0037383 -0.27844691 0.01592932
v 0.00587073 -0.2706247 0.02293297
v 0.00593194 -0.27869332 0.02291202
v 0.00977443 -0.27089044 0.02873215
v 0.01000107 -0.27899501 0.02876198
v 0.0157783 -0.27114958 0.03154468
v 0.01614362 -0.27933314 0.03141972
v 0.0222072 -0.27116072 0.03061905
v 0.01524781 -0.26306793 0.03200103
v 0.02169799 -0.2629624 0.03113966
v 0.02604434 -0.26255569 0.02543762
v 0.02112168 -0.25490308 0.0316811
v 0.02551127 -0.25441134 0.0260798
v 0.02690452 -0.25378895 0.0185939
v 0.02736883 -0.26196778 0.0178617
v 0.02606145 -0.25301549 0.01092791
v 0.02649438 -0.26113489 0.010152
v 0.02165815 -0.25240597 0.00529552
v 0.0222628 -0.26043177 0.00428583
v 0.01533504 -0.25253305 0.00475844
v 0.01591564 -0.26047379 0.00351373
v 0.00977481 -0.25319329 0.00761359
v 0.01032768 -0.26110998 0.00659233
v 0.00525217 -0.25388658 0.01166684
v 0.00565456 -0.26180384 0.01078046
v 0.00270465 -0.2544243 0.01754187
v 0.00314349 -0.2623634 0.01690113
v 0.00533898 -0.25464979 0.02354462
v 0.0056888 -0.26262909 0.02314069
v 0.00900466 -0.25486931 0.0290558
v 0.00944142 -0.26287246 0.0288021
v 0.01469131 -0.25503585 0.03237684
v 0.00860095 -0.24691284 0.02934134
v 0.01418278 -0.24709962 0.03282451
v 0.02056912 -0.24690746 0.0323459
v 0.01363499 -0.23924232 0.03346904
v 0.0199633 -0.23894472 0.03299376
v 0.02432424 -0.23831105 0.02750073
v 0.02492562 -0.24633358 0.02680599
v 0.02589951 -0.23766829 0.02009266
v 0.02641362 -0.24568571 0.01934697
v 0.02495379 -0.23693976 0.01250457
v 0.02552653 -0.24496192 0.011727
v 0.02040721 -0.23656271 0.0072735
v 0.02104915 -0.24446708 0.00628358
v 0.01412157 -0.23694691 0.00706633
v 0.01475586 -0.24470729 0.00601745
v 0.00860979 -0.23755322 0.00953208
v 0.0092281 -0.24535517 0.00869361
v 0.00412275 -0.238056 0.013086
v 0.004767 -0.2459977 0.01249507
v 0.00181248 -0.23850662 0.01866426
v 0.0022447 -0.24648099 0.01805913
v 0.00465386 -0.23876996 0.02432361
v 0.00501853 -0.24667601 0.02386394
v 0.00816284 -0.23905838 0.02976434
v 0.00434464 -0.23093691 0.02496841
v 0.00778102 -0.23125723 0.0302988
v 0.01309637 -0.23140031 0.0340666
v 0.00739686 -0.22348006 0.03099803
v 0.01263466 -0.22358024 0.03472292
v 0.0188011 -0.22321124 0.0344481
v 0.01937497 -0.23105809 0.03378003
v 0.02297171 -0.22247115 0.02888046
v 0.02366855 -0.2303673 0.02816386
v 0.02475293 -0.22172919 0.02167748
v 0.02534859 -0.22970046 0.02085984
v 0.02375047 -0.22105765 0.0142572
v 0.02437364 -0.22896792 0.01336743
v 0.01912244 -0.22090538 0.0091429
v 0.0197181 -0.22870809 0.00828969
v 0.01295525 -0.22142072 0.00887357
v 0.01349378 -0.22919697 0.00802905
v 0.0075927 -0.22191821 0.01102947
v 0.0080889 -0.22974701 0.01033348
v 0.00332639 -0.22229235 0.01464741
v 0.00369578 -0.23013853 0.01383025
v 0.00118382 -0.22275902 0.02022775
v 0.00150039 -0.23058426 0.01940985
v 0.00392211 -0.22314909 0.02575234
v 0.00100158 -0.21496856 0.02104755
v 0.00357765 -0.21542913 0.02662871
v 0.00706574 -0.21577129 0.0318093
v 0.00320868 -0.20775887 0.02757893
v 0.00660505 -0.20812318 0.03285836
v 0.01168846 -0.20806941 0.03636985
v 0.01220215 -0.21581118 0.03548452
v 0.01756636 -0.20748872 0.03575823
v 0.01821348 -0.21533774 0.03509882
v 0.02164193 -0.20671 0.03038901
v 0.02231059 -0.21457873 0.02963548
v 0.02341964 -0.20591058 0.02331241
v 0.02410794 -0.21379402 0.02248213
v 0.02232982 -0.20520192 0.01598687
v 0.02305151 -0.21313828 0.01511495
v 0.01794908 -0.20511588 0.01074846
v 0.01855863 -0.21306963 0.00999705
v 0.0120915 -0.20569314 0.00991356
v 0.01254222 -0.21362562 0.00957595
v 0.00680904 -0.20625246 0.01208297
v 0.00716355 -0.21410047 0.01157955
v 0.00278549 -0.20669147 0.01625769
v 0.00300049 -0.21444628 0.01541881
v 0.00056082 -0.2072655 0.02195268
v 0.00244512 -0.19898649 0.01708216
v 0.00012648 -0.19960485 0.02281021
v 0.00285833 -0.20009631 0.0285104
v -0.00031446 -0.19192511 0.02376297
v 0.0021971 -0.19245204 0.02966093
v 0.00548874 -0.1928021 0.0350492
v 0.00612713 -0.20046353 0.03385964
v 0.01053702 -0.19259925 0.03822882
v 0.01112158 -0.20033236 0.03726063
v 0.01621478 -0.19191749 0.037254
v 0.01690707 -0.19969451 0.03650226
v 0.02022071 -0.19100064 0.03206717
v 0.02095666 -0.19885258 0.03119691
v 0.02193574 -0.19008236 0.02518175
v 0.02269024 -0.19801784 0.0242309
v 0.02084108 -0.18940821 0.01811191
v 0.0215856 -0.19732894 0.01703475
v 0.01673631 -0.18926565 0.01292412
v 0.01731826 -0.19716436 0.01177754
v 0.01104621 -0.18977952 0.0119807
v 0.01156991 -0.19766317 0.01081387
v 0.00572658 -0.19049039 0.01361238
v 0.00631706 -0.19836769 0.01273271
v 0.00180024 -0.19122103 0.01789843
v 0.0051098 -0.18266687 0.01434706
v 0.00089784 -0.18342544 0.01852914
v -0.00082149 -0.18416636 0.02472981
v 0.0002614 -0.17561288 0.01930607
v -0.00134375 -0.17637634 0.02568223
v 0.00085957 -0.17710552 0.03195349
v 0.00151393 -0.18477732 0.03080783
v 0.00416139 -0.17747752 0.03741951
v 0.00485452 -0.18513426 0.0362729
v 0.00928305 -0.17698109 0.04023442
v 0.00997316 -0.18482351 0.0393419
v 0.01470421 -0.17605579 0.03888893
v 0.01549485 -0.18403557 0.03807197
v 0.01868668 -0.1751149 0.03393718
v 0.01945439 -0.18311039 0.03303282
v 0.02036712 -0.17418769 0.02716474
v 0.02115076 -0.18216278 0.02619158
v 0.0192082 -0.17347622 0.02015816
v 0.02005003 -0.18143483 0.01915793
v 0.0153363 -0.17338181 0.01475806
v 0.01608242 -0.18133175 0.013871
v 0.00982954 -0.17403233 0.01343386
v 0.01049389 -0.18193384 0.01273643
v 0.00445117 -0.17484623 0.01501873
v 0.00907675 -0.16608515 0.01416486
v 0.00366311 -0.16697688 0.0156528
v -0.00044583 -0.16779301 0.02006776
v 0.00275997 -0.15905195 0.01631057
v -0.00121619 -0.15994571 0.0208818
v -0.00235572 -0.16084 0.0275543
v -0.00177486 -0.16860011 0.02662287
v -0.00085787 -0.1617177 0.03417945
v 6.349E-05 -0.16941229 0.03308857
v 0.00228519 -0.16198701 0.03975432
v 0.00325896 -0.16976543 0.03865676
v 0.00746403 -0.16115734 0.0419269
v 0.00842728 -0.16910903 0.04112928
v 0.0128238 -0.1600647 0.04048207
v 0.01384064 -0.16806984 0.03971291
v 0.01698386 -0.15897331 0.03571055
v 0.01790215 -0.16705891 0.03483913
v 0.01863628 -0.1579757 0.02892727
v 0.0195508 -0.16612132 0.02805078
v 0.01735944 -0.15732062 0.02197278
v 0.01835313 -0.16543806 0.02103922
v 0.01357553 -0.15733798 0.0165073
v 0.01453408 -0.16537386 0.01560211
v 0.00817899 -0.15811831 0.01478547
v 0.01261685 -0.14925316 0.0171835
v 0.00721206 -0.15010576 0.01523177
v 0.00177823 -0.15106864 0.01699323
v 0.00617719 -0.14206803 0.01567466
v 0.00078382 -0.14306524 0.01769371
v -0.0030442 -0.1441543 0.02271435
v -0.00212743 -0.15205635 0.02174433
v -0.00390801 -0.14526638 0.02958438
v -0.00313462 -0.15308054 0.02854715
v -0.00308641 -0.14621267 0.03638455
v -0.00190826 -0.1540032 0.03529479
v -0.00013712 -0.1463114 0.04179478
v 0.00115376 -0.1541805 0.04079255
v 0.00510751 -0.14512831 0.04332679
v 0.00637234 -0.15315586 0.04266339
v 0.0104746 -0.14379686 0.04195423
v 0.01171376 -0.15196756 0.04120522
v 0.01480528 -0.14254299 0.03750955
v 0.01596347 -0.15080285 0.03663631
v 0.01660878 -0.14144517 0.03071187
v 0.01771557 -0.14972179 0.02983552
v 0.0152225 -0.14095795 0.0236245
v 0.01632901 -0.14914282 0.02284024
v 0.01157491 -0.14115325 0.01780309
v 0.01392093 -0.13274932 0.02433526
v 0.0104005 -0.13305761 0.01831249
v 0.00502064 -0.13399978 0.01605234
v 0.00904567 -0.12494095 0.01879355
v 0.0037016 -0.12594563 0.01646346
v -0.00169837 -0.12725973 0.01882322
v -0.00037752 -0.13514656 0.01828403
v -0.00548609 -0.12853822 0.02433309
v -0.00423767 -0.13636149 0.02361341
v -0.00623233 -0.12948519 0.03147182
v -0.0050618 -0.13742653 0.03061655
v -0.00575754 -0.13028865 0.03828262
v -0.00440539 -0.13830581 0.03740971
v -0.00305185 -0.13032024 0.04366365
v -0.00150492 -0.13833493 0.04271468
v 0.00215041 -0.1289746 0.04444871
v 0.00371106 -0.13708383 0.04394573
v 0.00754776 -0.12747003 0.04343119
v 0.00909497 -0.1356709 0.04274452
v 0.01199324 -0.12596413 0.03917896
v 0.01351591 -0.13427155 0.03839197
v 0.01364508 -0.12486843 0.03223654
v 0.01523609 -0.1331436 0.0315026
v 0.01245001 -0.1245638 0.02497439
v 0.01198571 -0.11655767 0.03285995
v 0.01084177 -0.11630814 0.02559694
v 0.00758947 -0.11656082 0.01928325
v 0.00924249 -0.10714769 0.02620561
v 0.00618285 -0.10709392 0.01967848
v 0.00091458 -0.10780394 0.017203
v 0.00230865 -0.11743531 0.01692655
v -0.00456085 -0.10937908 0.01945232
v -0.00317297 -0.11886839 0.01917962
v -0.00826707 -0.11123169 0.02530815
v -0.00681998 -0.12037449 0.02495423
v -0.00930722 -0.11267872 0.0326103
v -0.00760597 -0.12146476 0.03217663
v -0.00874014 -0.11356968 0.03955521
v -0.00718997 -0.12214698 0.03900756
v -0.00636212 -0.11376795 0.04525921
v -0.00469611 -0.12216 0.04447865
v -0.0011953 -0.11245333 0.04577111
v 0.00048463 -0.12080374 0.04514785
v 0.00418802 -0.11075395 0.0445854
v 0.00588245 -0.1191863 0.0439939
v 0.00860406 -0.10892842 0.04042596
v 0.01035866 -0.11759156 0.03977193
v 0.01024177 -0.10764579 0.03355834
v 0.00682158 -0.0994717 0.0409827
v 0.00846816 -0.09782259 0.03404031
v 0.00772534 -0.09710776 0.02657916
v 0.00663092 -0.08764126 0.03438131
v 0.00626014 -0.08658676 0.02676452
v 0.00368336 -0.08618403 0.01995034
v 0.00491885 -0.09686623 0.01985333
v -0.00157352 -0.08701447 0.0175178
v -0.00037918 -0.09749106 0.0174084
v -0.00717126 -0.08928429 0.01937179
v -0.00583913 -0.09932483 0.01964915
v -0.01122798 -0.09144926 0.02499686
v -0.00976243 -0.10145239 0.02533464
v -0.01287057 -0.09290459 0.03230328
v -0.01099922 -0.10307091 0.03269805
v -0.01207118 -0.09377371 0.03950254
v -0.01022747 -0.10396518 0.03970055
v -0.00971255 -0.0945747 0.04607667
v -0.00803389 -0.10449281 0.04581326
v -0.00441061 -0.09378094 0.04761514
v -0.00282774 -0.10343141 0.04673267
v 0.00093493 -0.09208401 0.04621169
v 0.00252242 -0.10165252 0.04535339
v 0.00510184 -0.08966266 0.04146671
v -0.00058509 -0.08250841 0.04700303
v 0.0034817 -0.08003945 0.04207134
v 0.00479871 -0.07763702 0.03480424
v 0.00204838 -0.07093049 0.04289165
v 0.00311862 -0.06830249 0.03536004
v 0.00358998 -0.06650634 0.02735839
v 0.0048204 -0.07612409 0.02704168
v 0.00233472 -0.07554701 0.02007831
v -0.00290195 -0.07691064 0.01743194
v -0.00855896 -0.0797887 0.01851464
v -0.0128313 -0.08173268 0.02400113
v -0.01493087 -0.08253807 0.03139508
v -0.01409115 -0.08339601 0.03911661
v -0.01335654 -0.07497247 0.04678481
v -0.01152345 -0.08455352 0.04631936
v -0.00756823 -0.07480545 0.04957753
v -0.00604716 -0.08404565 0.04846233
v -0.00191911 -0.07334795 0.04795415
v -0.00885495 -0.06628601 0.05087497
v -0.00302173 -0.06480217 0.04919458
v 0.00088693 -0.06228507 0.04371957
v -0.00373744 -0.05679837 0.05077877
v -7.6E-06 -0.05408268 0.04460997
v 0.00071955 -0.05176838 0.03613534
v 0.00183201 -0.05978467 0.03575107
v 0.00183471 -0.05060238 0.02737282
v 0.00264775 -0.05807529 0.02751551
v 0.00014255 -0.04431765 0.03600488
v 0.00113453 -0.04382003 0.02682171
v -0.00119242 -0.04368326 0.01850157
v 0.00110011 -0.03759311 0.02522375
v -0.00070323 -0.03790335 0.01689913
v -0.00472065 -0.037301 0.01086993
v -0.00506438 -0.04309581 0.01183305
v -0.01076047 -0.0410379 0.01035079
v -0.01588073 -0.03932868 0.01491734
v -0.01990796 -0.04005552 0.02137154
v -0.02658861 -0.03666314 0.02858924
v -0.02428021 -0.04307743 0.02680499
v -0.02796598 -0.0396767 0.0373071
v -0.02566189 -0.04691948 0.0349305
v -0.02461092 -0.04163531 0.04618182
v -0.02317215 -0.04927343 0.04378964
v -0.01866669 -0.04304317 0.05336503
v -0.01766692 -0.05047174 0.05067419
v -0.01642725 -0.05808881 0.04858444
v -0.01498109 -0.06618113 0.04739475
v -0.01073166 -0.0508636 0.05457273
v -0.00997304 -0.05828299 0.05238718
v -0.00415768 -0.049084 0.05237943
v -0.01113315 -0.04358882 0.05736986
v -0.00418796 -0.04152053 0.05414577
v -0.00036029 -0.03907126 0.04562832
v -0.00040709 -0.04638464 0.0453473
v 0.00040329 -0.03749444 0.03511024
v -0.00374638 -0.03363604 0.05578946
v -0.01117709 -0.03589641 0.06110784
v -0.01088259 -0.0258166 0.06298824
v -0.00284032 -0.02504477 0.0560716
v -0.00953274 -0.01493595 0.06167485
v -0.00184675 -0.01631293 0.0543958
v -0.00822202 -0.00482567 0.05754893
v -0.00101794 -0.00739767 0.05087331
v 0.00159107 -0.0109708 0.03967939
v -0.00410511 -0.00354433 0.04366773
v -0.00159752 -0.00619941 0.035818
v 0.00069184 -0.00464096 0.02757739
v 0.00330103 -0.01004669 0.02827009
v 0.00430889 0.00206977 0.02208439
v 0.00837467 -0.00366223 0.02123429
v 0.00837677 0.0109764 0.01847111
v 0.01620097 0.00444716 0.01687016
v 0.01759042 -0.00458857 0.01410532
v 0.01989219 0.01091903 0.00960087
v 0.02327847 0.00142836 0.00641621
v 0.02367743 -0.00813918 0.00221169
v 0.0173882 -0.01285516 0.00977048
v 0.0200428 -0.01495839 -0.00324343
v 0.01395144 -0.0179339 0.00454851
v 0.01106123 -0.01764124 -0.00876041
v 0.00733516 -0.02003977 -6.801E-05
v 0.003695 -0.02207737 0.00741546
v 0.00155327 -0.02627745 0.01251043
v -0.00175561 -0.02038785 -0.00371293
v -0.00349011 -0.02207564 0.00373027
v -0.0044731 -0.02590241 0.00816204
v -0.00487165 -0.03114495 0.01036495
v 0.0001204 -0.03184944 0.0153969
v -0.01118424 -0.01940277 0.00352483
v -0.01089213 -0.01790719 -0.0042964
v -0.01762435 -0.01335937 -0.00275009
v -0.01603289 -0.01550896 0.00542482
v -0.02077545 -0.00781247 0.00015481
v -0.01851765 -0.01151616 0.00756233
v -0.02269671 -5.477E-05 0.00544385
v -0.01759985 -0.00565811 0.01152353
v -0.01599646 -0.01095644 0.01752809
v -0.01588015 0.00031935 0.01600206
v -0.01411291 -0.00633992 0.02106648
v -0.00947988 0.00349198 0.01837406
v -0.00933201 -0.00341106 0.02331183
v -0.01099042 -0.00701656 0.02960942
v -0.01389916 -0.00850131 0.03586234
v -0.00374894 -0.00249715 0.02558859
v -0.00573354 -0.00496775 0.0323792
v -0.00884292 -0.00548424 0.03867279
v -0.00235585 0.00377534 0.02045115
v -0.01211506 0.01232709 0.01544447
v -0.00206148 0.01365076 0.01833584
v 0.00988667 0.0176132 0.01144862
v 0.00785966 0.02116767 0.00161584
v 0.01813697 0.01519528 0.00014493
v 0.00336587 0.02004288 -0.00934471
v 0.02271351 0.0064394 -0.00253879
v -0.01095341 0.01418721 -0.01515255
v -0.00096679 0.01473955 -0.01779313
v -0.01931253 0.01056096 -0.00919016
v -0.02361098 0.00527369 -0.0018609
v -0.02054914 -0.00346603 -0.00752978
v -0.019407 -0.01220217 -0.01178679
v -0.01062609 -0.017173 -0.01364646
v 0.00056947 -0.01856473 -0.01271282
v 0.00298113 -0.01273125 -0.01992744
v 0.00439613 -0.00420031 -0.0232683
v -0.02041089 0.00732819 0.01113454
v -0.01937938 -0.01493024 0.05926211
v -0.01823891 -0.00467281 0.05679952
v -0.02743944 -0.014655 0.05269893
v -0.02726762 -0.00592179 0.05143378
v -0.03145462 -0.01528859 0.04330254
v -0.02886348 -0.02382819 0.04134988
v -0.0254018 -0.02457368 0.05061099
v -0.02568238 -0.03380065 0.04878643
v -0.0292874 -0.03203832 0.03939756
v -0.01980294 -0.02556936 0.05975372
v -0.01956258 -0.03531419 0.05681109
v -0.0283057 -0.02976855 0.02984267
v 0.01601666 -0.42403606 -0.02458165
v 0.01907099 -0.42262641 -0.01127112
v 0.01600101 -0.4192369 -0.00029838
v 0.01210778 -0.422167 0.0161561
v 0.00477167 -0.42393807 0.01877714
v 0.00828713 -0.42128411 0.02767405
v -0.00177374 -0.42457727 0.02216745
v -0.00036534 -0.42313513 0.03076021
v -0.00059026 -0.41434598 0.03473242
v 0.00818902 -0.41443571 0.03338538
v -0.00023515 -0.40549821 0.03836144
v 0.00865085 -0.40595761 0.03628668
v -0.00915361 -0.42223459 0.03300087
v -0.01688558 -0.41820824 0.03298084
v -0.02155033 -0.40769219 0.01303413
v -0.01537772 -0.40797189 0.00858271
f 1 2 3
f 1 3 4
f 1 5 6
f 1 6 2
f 1 4 7
f 1 7 5
f 8 9 10
f 8 10 11
f 8 3 2
f 8 2 9
f 8 11 12
f 8 12 3
f 13 14 15
f 13 15 16
f 13 17 18
f 13 18 14
f 13 16 19
f 13 19 20
f 13 20 21
f 13 21 22
f 13 22 23
f 13 23 17
f 24 25 26
f 24 26 27
f 24 28 29
f 24 29 30
f 24 27 31
f 24 31 28
f 32 33 34
f 32 34 35
f 32 36 37
f 32 37 33
f 32 35 38
f 32 38 36
f 39 40 41
f 39 41 42
f 39 43 44
f 39 44 40
f 39 42 45
f 39 45 43
f 46 47 48
f 46 48 49
f 46 50 51
f 46 51 47
f 46 49 52
f 46 52 50
f 53 54 55
f 53 55 56
f 53 57 58
f 53 58 54
f 53 59 60
f 53 60 57
f 53 56 61
f 53 61 62
f 53 62 63
f 53 63 59
f 64 65 66
f 64 66 67
f 64 67 68
f 64 68 69
f 64 69 70
f 64 70 65
f 71 72 73
f 71 73 74
f 71 74 75
f 71 75 76
f 71 77 78
f 71 78 72
f 71 76 79
f 71 79 80
f 71 80 81
f 71 81 77
f 61 56 82
f 61 82 83
f 61 83 84
f 61 84 62
f 85 86 87
f 85 87 88
f 85 88 89
f 85 89 90
f 85 90 91
f 85 91 86
f 92 93 91
f 92 91 90
f 92 94 95
f 92 95 93
f 92 96 97
f 92 97 75
f 92 90 89
f 92 89 96
f 92 75 74
f 92 74 94
f 98 99 100
f 98 100 101
f 98 102 103
f 98 103 99
f 98 104 105
f 98 105 102
f 106 82 107
f 106 107 108
f 106 108 109
f 106 109 110
f 106 110 83
f 106 83 82
f 111 84 83
f 111 83 110
f 111 112 113
f 111 113 114
f 111 114 115
f 111 115 84
f 111 110 109
f 111 109 116
f 111 116 117
f 111 117 112
f 118 119 120
f 118 120 121
f 118 122 123
f 118 123 119
f 118 121 124
f 118 124 125
f 118 126 127
f 118 127 122
f 88 87 128
f 88 128 89
f 129 126 118
f 129 118 125
f 129 125 130
f 129 130 131
f 129 131 132
f 129 132 133
f 129 133 134
f 129 134 135
f 129 135 136
f 129 136 126
f 137 138 139
f 137 139 140
f 137 140 141
f 137 141 142
f 137 143 144
f 137 144 145
f 137 142 146
f 137 146 143
f 137 145 147
f 137 147 138
f 148 149 150
f 148 150 151
f 148 152 153
f 148 153 149
f 148 151 154
f 148 154 152
f 155 141 127
f 155 127 156
f 155 156 157
f 155 157 158
f 155 158 142
f 155 142 141
f 159 160 161
f 159 161 162
f 159 162 163
f 159 163 134
f 159 134 133
f 159 133 160
f 164 165 166
f 164 166 167
f 164 167 168
f 164 168 169
f 164 169 170
f 164 170 165
f 171 172 173
f 171 173 174
f 171 175 176
f 171 176 172
f 171 174 177
f 171 177 175
f 178 179 180
f 178 180 181
f 178 182 183
f 178 183 179
f 178 181 184
f 178 184 182
f 185 186 163
f 185 163 187
f 185 188 189
f 185 189 186
f 185 187 177
f 185 177 188
f 190 191 192
f 190 192 193
f 190 193 184
f 190 184 194
f 190 194 168
f 190 168 191
f 194 184 181
f 194 181 195
f 194 195 169
f 194 169 168
f 195 181 180
f 195 180 196
f 195 196 170
f 195 170 169
f 196 180 197
f 196 197 198
f 196 198 199
f 196 199 170
f 199 198 145
f 199 145 144
f 199 144 101
f 199 101 200
f 199 200 165
f 199 165 170
f 200 101 100
f 200 100 201
f 200 201 166
f 200 166 165
f 201 100 202
f 201 202 203
f 201 203 204
f 201 204 166
f 204 205 167
f 204 167 166
f 204 203 206
f 204 206 207
f 204 207 208
f 204 208 205
f 208 192 191
f 208 191 205
f 208 207 209
f 208 209 210
f 208 210 211
f 208 211 192
f 211 212 193
f 211 193 192
f 211 210 151
f 211 151 150
f 211 150 213
f 211 213 212
f 213 150 149
f 213 149 214
f 213 214 215
f 213 215 183
f 213 183 182
f 213 182 212
f 215 214 216
f 215 216 217
f 215 217 218
f 215 218 219
f 215 219 179
f 215 179 183
f 219 218 147
f 219 147 197
f 219 197 180
f 219 180 179
f 218 217 220
f 218 220 221
f 218 221 138
f 218 138 147
f 221 220 222
f 221 222 223
f 221 223 139
f 221 139 138
f 223 222 224
f 223 224 225
f 223 225 123
f 223 123 139
f 225 224 226
f 225 226 227
f 225 227 119
f 225 119 123
f 227 226 228
f 227 228 229
f 227 229 120
f 227 120 119
f 229 228 230
f 229 230 231
f 229 231 232
f 229 232 120
f 232 231 233
f 232 233 234
f 232 234 235
f 232 235 236
f 232 236 121
f 232 121 120
f 236 235 237
f 236 237 238
f 236 238 124
f 236 124 121
f 238 237 239
f 238 239 240
f 238 240 241
f 238 241 124
f 241 130 125
f 241 125 124
f 241 240 242
f 241 242 243
f 241 243 244
f 241 244 130
f 244 245 131
f 244 131 130
f 244 243 246
f 244 246 247
f 244 247 248
f 244 248 245
f 248 249 250
f 248 250 245
f 248 247 251
f 248 251 252
f 248 252 253
f 248 253 249
f 253 33 37
f 253 37 249
f 253 252 254
f 253 254 255
f 253 255 34
f 253 34 33
f 255 254 256
f 255 256 257
f 255 257 258
f 255 258 34
f 258 259 260
f 258 260 261
f 258 261 35
f 258 35 34
f 258 257 262
f 258 262 259
f 262 263 264
f 262 264 259
f 262 257 256
f 262 256 265
f 262 265 266
f 262 266 263
f 266 267 268
f 266 268 263
f 266 265 26
f 266 26 269
f 266 269 270
f 266 270 267
f 270 271 272
f 270 272 267
f 270 269 273
f 270 273 274
f 270 274 275
f 270 275 271
f 275 153 152
f 275 152 271
f 275 274 276
f 275 276 277
f 275 277 216
f 275 216 153
f 277 276 222
f 277 222 220
f 277 220 217
f 277 217 216
f 276 274 273
f 276 273 278
f 276 278 224
f 276 224 222
f 278 273 25
f 278 25 279
f 278 279 226
f 278 226 224
f 279 25 24
f 279 24 280
f 279 280 228
f 279 228 226
f 280 24 30
f 280 30 281
f 280 281 230
f 280 230 228
f 281 30 282
f 281 282 283
f 281 283 284
f 281 284 230
f 284 283 285
f 284 285 286
f 284 286 287
f 284 287 233
f 284 233 231
f 284 231 230
f 287 286 288
f 287 288 289
f 287 289 290
f 287 290 291
f 287 291 234
f 287 234 233
f 291 290 292
f 291 292 293
f 291 293 235
f 291 235 234
f 293 292 294
f 293 294 295
f 293 295 237
f 293 237 235
f 295 294 296
f 295 296 297
f 295 297 239
f 295 239 237
f 297 296 298
f 297 298 299
f 297 299 300
f 297 300 239
f 300 242 240
f 300 240 239
f 300 299 301
f 300 301 302
f 300 302 303
f 300 303 242
f 303 246 243
f 303 243 242
f 303 302 304
f 303 304 305
f 303 305 306
f 303 306 246
f 306 251 247
f 306 247 246
f 306 305 29
f 306 29 28
f 306 28 31
f 306 31 251
f 305 304 307
f 305 307 29
f 307 304 308
f 307 308 309
f 307 309 310
f 307 310 282
f 307 282 30
f 307 30 29
f 310 309 311
f 310 311 312
f 310 312 313
f 310 313 285
f 310 285 283
f 310 283 282
f 313 312 314
f 313 314 315
f 313 315 316
f 313 316 288
f 313 288 286
f 313 286 285
f 316 315 317
f 316 317 318
f 316 318 319
f 316 319 320
f 316 320 289
f 316 289 288
f 320 319 321
f 320 321 322
f 320 322 290
f 320 290 289
f 322 321 323
f 322 323 324
f 322 324 292
f 322 292 290
f 324 323 325
f 324 325 326
f 324 326 294
f 324 294 292
f 326 325 327
f 326 327 328
f 326 328 296
f 326 296 294
f 328 327 329
f 328 329 330
f 328 330 298
f 328 298 296
f 330 329 331
f 330 331 332
f 330 332 333
f 330 333 298
f 333 301 299
f 333 299 298
f 333 332 334
f 333 334 335
f 333 335 308
f 333 308 301
f 335 334 336
f 335 336 311
f 335 311 309
f 335 309 308
f 336 334 337
f 336 337 338
f 336 338 339
f 336 339 314
f 336 314 312
f 336 312 311
f 339 338 340
f 339 340 341
f 339 341 342
f 339 342 317
f 339 317 315
f 339 315 314
f 342 341 343
f 342 343 344
f 342 344 345
f 342 345 346
f 342 346 318
f 342 318 317
f 346 345 347
f 346 347 348
f 346 348 319
f 346 319 318
f 348 347 349
f 348 349 350
f 348 350 321
f 348 321 319
f 350 349 351
f 350 351 352
f 350 352 323
f 350 323 321
f 352 351 353
f 352 353 354
f 352 354 325
f 352 325 323
f 354 353 355
f 354 355 356
f 354 356 327
f 354 327 325
f 356 355 357
f 356 357 358
f 356 358 329
f 356 329 327
f 358 357 359
f 358 359 360
f 358 360 331
f 358 331 329
f 360 359 361
f 360 361 362
f 360 362 337
f 360 337 331
f 362 361 363
f 362 363 340
f 362 340 338
f 362 338 337
f 363 361 364
f 363 364 365
f 363 365 366
f 363 366 343
f 363 343 341
f 363 341 340
f 366 365 367
f 366 367 368
f 366 368 369
f 366 369 370
f 366 370 344
f 366 344 343
f 370 369 371
f 370 371 372
f 370 372 345
f 370 345 344
f 372 371 373
f 372 373 374
f 372 374 347
f 372 347 345
f 374 373 375
f 374 375 376
f 374 376 349
f 374 349 347
f 376 375 377
f 376 377 378
f 376 378 351
f 376 351 349
f 378 377 379
f 378 379 380
f 378 380 353
f 378 353 351
f 380 379 381
f 380 381 382
f 380 382 355
f 380 355 353
f 382 381 383
f 382 383 384
f 382 384 357
f 382 357 355
f 384 383 385
f 384 385 386
f 384 386 359
f 384 359 357
f 386 385 387
f 386 387 364
f 386 364 361
f 386 361 359
f 387 385 388
f 387 388 389
f 387 389 390
f 387 390 367
f 387 367 365
f 387 365 364
f 390 389 391
f 390 391 392
f 390 392 393
f 390 393 394
f 390 394 368
f 390 368 367
f 394 393 395
f 394 395 396
f 394 396 369
f 394 369 368
f 396 395 397
f 396 397 398
f 396 398 371
f 396 371 369
f 398 397 399
f 398 399 400
f 398 400 373
f 398 373 371
f 400 399 401
f 400 401 402
f 400 402 375
f 400 375 373
f 402 401 403
f 402 403 404
f 402 404 377
f 402 377 375
f 404 403 405
f 404 405 406
f 404 406 379
f 404 379 377
f 406 405 407
f 406 407 408
f 406 408 381
f 406 381 379
f 408 407 409
f 408 409 410
f 408 410 383
f 408 383 381
f 410 409 411
f 410 411 388
f 410 388 385
f 410 385 383
f 411 409 412
f 411 412 413
f 411 413 414
f 411 414 391
f 411 391 389
f 411 389 388
f 414 413 415
f 414 415 416
f 414 416 417
f 414 417 418
f 414 418 392
f 414 392 391
f 418 417 419
f 418 419 420
f 418 420 393
f 418 393 392
f 420 419 421
f 420 421 422
f 420 422 395
f 420 395 393
f 422 421 423
f 422 423 424
f 422 424 397
f 422 397 395
f 424 423 425
f 424 425 426
f 424 426 399
f 424 399 397
f 426 425 427
f 426 427 428
f 426 428 401
f 426 401 399
f 428 427 429
f 428 429 430
f 428 430 403
f 428 403 401
f 430 429 431
f 430 431 432
f 430 432 405
f 430 405 403
f 432 431 433
f 432 433 434
f 432 434 407
f 432 407 405
f 434 433 435
f 434 435 412
f 434 412 409
f 434 409 407
f 435 433 436
f 435 436 437
f 435 437 438
f 435 438 415
f 435 415 413
f 435 413 412
f 438 437 439
f 438 439 440
f 438 440 441
f 438 441 442
f 438 442 416
f 438 416 415
f 442 441 443
f 442 443 444
f 442 444 417
f 442 417 416
f 444 443 445
f 444 445 446
f 444 446 419
f 444 419 417
f 446 445 447
f 446 447 448
f 446 448 421
f 446 421 419
f 448 447 449
f 448 449 450
f 448 450 423
f 448 423 421
f 450 449 451
f 450 451 452
f 450 452 425
f 450 425 423
f 452 451 453
f 452 453 454
f 452 454 427
f 452 427 425
f 454 453 455
f 454 455 456
f 454 456 429
f 454 429 427
f 456 455 457
f 456 457 458
f 456 458 431
f 456 431 429
f 458 457 459
f 458 459 436
f 458 436 433
f 458 433 431
f 459 457 460
f 459 460 461
f 459 461 462
f 459 462 439
f 459 439 437
f 459 437 436
f 462 461 463
f 462 463 464
f 462 464 465
f 462 465 466
f 462 466 440
f 462 440 439
f 466 465 467
f 466 467 468
f 466 468 441
f 466 441 440
f 468 467 469
f 468 469 470
f 468 470 443
f 468 443 441
f 470 469 471
f 470 471 472
f 470 472 445
f 470 445 443
f 472 471 473
f 472 473 474
f 472 474 447
f 472 447 445
f 474 473 475
f 474 475 476
f 474 476 449
f 474 449 447
f 476 475 477
f 476 477 478
f 476 478 451
f 476 451 449
f 478 477 479
f 478 479 480
f 478 480 453
f 478 453 451
f 480 479 481
f 480 481 482
f 480 482 455
f 480 455 453
f 482 481 483
f 482 483 460
f 482 460 457
f 482 457 455
f 483 481 484
f 483 484 485
f 483 485 486
f 483 486 463
f 483 463 461
f 483 461 460
f 486 485 487
f 486 487 488
f 486 488 489
f 486 489 490
f 486 490 464
f 486 464 463
f 490 489 491
f 490 491 492
f 490 492 465
f 490 465 464
f 492 491 493
f 492 493 494
f 492 494 467
f 492 467 465
f 494 493 495
f 494 495 496
f 494 496 469
f 494 469 467
f 496 495 497
f 496 497 498
f 496 498 471
f 496 471 469
f 498 497 499
f 498 499 500
f 498 500 473
f 498 473 471
f 500 499 501
f 500 501 502
f 500 502 475
f 500 475 473
f 502 501 503
f 502 503 504
f 502 504 477
f 502 477 475
f 504 503 505
f 504 505 506
f 504 506 479
f 504 479 477
f 506 505 507
f 506 507 484
f 506 484 481
f 506 481 479
f 507 505 508
f 507 508 509
f 507 509 510
f 507 510 487
f 507 487 485
f 507 485 484
f 510 509 511
f 510 511 512
f 510 512 513
f 510 513 514
f 510 514 488
f 510 488 487
f 514 513 515
f 514 515 516
f 514 516 489
f 514 489 488
f 516 515 517
f 516 517 518
f 516 518 491
f 516 491 489
f 518 517 519
f 518 519 520
f 518 520 493
f 518 493 491
f 520 519 521
f 520 521 522
f 520 522 495
f 520 495 493
f 522 521 523
f 522 523 524
f 522 524 497
f 522 497 495
f 524 523 525
f 524 525 526
f 524 526 499
f 524 499 497
f 526 525 527
f 526 527 528
f 526 528 501
f 526 501 499
f 528 527 529
f 528 529 530
f 528 530 503
f 528 503 501
f 530 529 531
f 530 531 508
f 530 508 505
f 530 505 503
f 531 529 532
f 531 532 533
f 531 533 534
f 531 534 511
f 531 511 509
f 531 509 508
f 534 533 535
f 534 535 536
f 534 536 537
f 534 537 538
f 534 538 512
f 534 512 511
f 538 537 539
f 538 539 540
f 538 540 513
f 538 513 512
f 540 539 541
f 540 541 542
f 540 542 515
f 540 515 513
f 542 541 543
f 542 543 544
f 542 544 517
f 542 517 515
f 544 543 545
f 544 545 546
f 544 546 519
f 544 519 517
f 546 545 547
f 546 547 548
f 546 548 521
f 546 521 519
f 548 547 549
f 548 549 550
f 548 550 523
f 548 523 521
f 550 549 551
f 550 551 552
f 550 552 525
f 550 525 523
f 552 551 553
f 552 553 554
f 552 554 527
f 552 527 525
f 554 553 555
f 554 555 532
f 554 532 529
f 554 529 527
f 555 553 556
f 555 556 557
f 555 557 558
f 555 558 535
f 555 535 533
f 555 533 532
f 558 557 559
f 558 559 560
f 558 560 561
f 558 561 562
f 558 562 536
f 558 536 535
f 562 561 563
f 562 563 564
f 562 564 537
f 562 537 536
f 564 563 565
f 564 565 566
f 564 566 539
f 564 539 537
f 566 565 567
f 566 567 568
f 566 568 541
f 566 541 539
f 568 567 569
f 568 569 570
f 568 570 543
f 568 543 541
f 570 569 571
f 570 571 572
f 570 572 545
f 570 545 543
f 572 571 573
f 572 573 574
f 572 574 547
f 572 547 545
f 574 573 575
f 574 575 576
f 574 576 549
f 574 549 547
f 576 575 577
f 576 577 578
f 576 578 551
f 576 551 549
f 578 577 579
f 578 579 556
f 578 556 553
f 578 553 551
f 579 577 580
f 579 580 581
f 579 581 582
f 579 582 559
f 579 559 557
f 579 557 556
f 582 581 583
f 582 583 584
f 582 584 585
f 582 585 586
f 582 586 560
f 582 560 559
f 586 585 587
f 586 587 588
f 586 588 561
f 586 561 560
f 588 587 589
f 588 589 590
f 588 590 563
f 588 563 561
f 590 589 591
f 590 591 592
f 590 592 565
f 590 565 563
f 592 591 593
f 592 593 594
f 592 594 567
f 592 567 565
f 594 593 595
f 594 595 596
f 594 596 569
f 594 569 567
f 596 595 597
f 596 597 598
f 596 598 571
f 596 571 569
f 598 597 599
f 598 599 600
f 598 600 573
f 598 573 571
f 600 599 601
f 600 601 602
f 600 602 575
f 600 575 573
f 602 601 603
f 602 603 580
f 602 580 577
f 602 577 575
f 603 601 604
f 603 604 605
f 603 605 606
f 603 606 583
f 603 583 581
f 603 581 580
f 606 605 607
f 606 607 608
f 606 608 609
f 606 609 610
f 606 610 584
f 606 584 583
f 610 609 611
f 610 611 612
f 610 612 585
f 610 585 584
f 612 611 613
f 612 613 614
f 612 614 587
f 612 587 585
f 614 613 615
f 614 615 616
f 614 616 589
f 614 589 587
f 616 615 617
f 616 617 618
f 616 618 591
f 616 591 589
f 618 617 619
f 618 619 620
f 618 620 593
f 618 593 591
f 620 619 621
f 620 621 622
f 620 622 595
f 620 595 593
f 622 621 623
f 622 623 624
f 622 624 597
f 622 597 595
f 624 623 625
f 624 625 626
f 624 626 599
f 624 599 597
f 626 625 627
f 626 627 604
f 626 604 601
f 626 601 599
f 627 625 628
f 627 628 629
f 627 629 630
f 627 630 607
f 627 607 605
f 627 605 604
f 630 629 631
f 630 631 632
f 630 632 633
f 630 633 634
f 630 634 608
f 630 608 607
f 634 633 635
f 634 635 636
f 634 636 609
f 634 609 608
f 636 635 637
f 636 637 638
f 636 638 611
f 636 611 609
f 638 637 639
f 638 639 640
f 638 640 613
f 638 613 611
f 640 639 641
f 640 641 642
f 640 642 615
f 640 615 613
f 642 641 643
f 642 643 644
f 642 644 617
f 642 617 615
f 644 643 645
f 644 645 646
f 644 646 619
f 644 619 617
f 646 645 647
f 646 647 648
f 646 648 621
f 646 621 619
f 648 647 649
f 648 649 650
f 648 650 623
f 648 623 621
f 650 649 651
f 650 651 628
f 650 628 625
f 650 625 623
f 651 649 652
f 651 652 653
f 651 653 654
f 651 654 631
f 651 631 629
f 651 629 628
f 654 653 655
f 654 655 656
f 654 656 657
f 654 657 658
f 654 658 632
f 654 632 631
f 658 657 659
f 658 659 660
f 658 660 633
f 658 633 632
f 660 659 661
f 660 661 662
f 660 662 635
f 660 635 633
f 662 661 663
f 662 663 664
f 662 664 637
f 662 637 635
f 664 663 665
f 664 665 666
f 664 666 639
f 664 639 637
f 666 665 667
f 666 667 668
f 666 668 641
f 666 641 639
f 668 667 669
f 668 669 670
f 668 670 643
f 668 643 641
f 670 669 671
f 670 671 672
f 670 672 645
f 670 645 643
f 672 671 673
f 672 673 674
f 672 674 647
f 672 647 645
f 674 673 675
f 674 675 652
f 674 652 649
f 674 649 647
f 675 673 676
f 675 676 677
f 675 677 678
f 675 678 655
f 675 655 653
f 675 653 652
f 678 677 679
f 678 679 680
f 678 680 681
f 678 681 682
f 678 682 656
f 678 656 655
f 682 681 60
f 682 60 683
f 682 683 657
f 682 657 656
f 683 60 59
f 683 59 684
f 683 684 659
f 683 659 657
f 684 59 63
f 684 63 685
f 684 685 661
f 684 661 659
f 685 63 115
f 685 115 686
f 685 686 663
f 685 663 661
f 686 115 114
f 686 114 687
f 686 687 665
f 686 665 663
f 687 114 113
f 687 113 688
f 687 688 667
f 687 667 665
f 688 113 689
f 688 689 690
f 688 690 669
f 688 669 667
f 690 689 691
f 690 691 692
f 690 692 671
f 690 671 669
f 692 691 693
f 692 693 676
f 692 676 673
f 692 673 671
f 693 691 694
f 693 694 695
f 693 695 696
f 693 696 679
f 693 679 677
f 693 677 676
f 696 695 697
f 696 697 698
f 696 698 699
f 696 699 700
f 696 700 680
f 696 680 679
f 700 699 701
f 700 701 702
f 700 702 681
f 700 681 680
f 702 701 58
f 702 58 57
f 702 57 60
f 702 60 681
f 701 699 703
f 701 703 704
f 701 704 705
f 701 705 58
f 705 704 706
f 705 706 707
f 705 707 708
f 705 708 709
f 705 709 54
f 705 54 58
f 709 708 81
f 709 81 710
f 709 710 55
f 709 55 54
f 710 81 80
f 710 80 711
f 710 711 107
f 710 107 55
f 711 80 79
f 711 79 712
f 711 712 108
f 711 108 107
f 712 79 713
f 712 713 714
f 712 714 109
f 712 109 108
f 714 713 715
f 714 715 716
f 714 716 116
f 714 116 109
f 716 715 717
f 716 717 718
f 716 718 117
f 716 117 116
f 718 717 719
f 718 719 720
f 718 720 721
f 718 721 117
f 721 722 112
f 721 112 117
f 721 720 723
f 721 723 724
f 721 724 694
f 721 694 722
f 724 723 725
f 724 725 697
f 724 697 695
f 724 695 694
f 725 723 726
f 725 726 727
f 725 727 728
f 725 728 729
f 725 729 698
f 725 698 697
f 729 728 730
f 729 730 703
f 729 703 699
f 729 699 698
f 730 728 21
f 730 21 20
f 730 20 19
f 730 19 706
f 730 706 704
f 730 704 703
f 728 727 731
f 728 731 21
f 731 727 726
f 731 726 732
f 731 732 733
f 731 733 734
f 731 734 22
f 731 22 21
f 734 733 735
f 734 735 736
f 734 736 23
f 734 23 22
f 736 735 737
f 736 737 738
f 736 738 739
f 736 739 23
f 739 738 740
f 739 740 741
f 739 741 742
f 739 742 743
f 739 743 17
f 739 17 23
f 743 742 744
f 743 744 745
f 743 745 18
f 743 18 17
f 745 744 746
f 745 746 747
f 745 747 748
f 745 748 18
f 748 747 749
f 748 749 750
f 748 750 751
f 748 751 752
f 748 752 14
f 748 14 18
f 752 751 753
f 752 753 754
f 752 754 15
f 752 15 14
f 754 753 755
f 754 755 756
f 754 756 757
f 754 757 15
f 757 758 16
f 757 16 15
f 757 756 759
f 757 759 760
f 757 760 761
f 757 761 758
f 761 762 763
f 761 763 758
f 761 760 764
f 761 764 78
f 761 78 77
f 761 77 762
f 764 760 759
f 764 759 765
f 764 765 766
f 764 766 767
f 764 767 72
f 764 72 78
f 767 766 768
f 767 768 769
f 767 769 73
f 767 73 72
f 769 768 770
f 769 770 771
f 769 771 772
f 769 772 73
f 772 94 74
f 772 74 73
f 772 771 773
f 772 773 774
f 772 774 95
f 772 95 94
f 774 773 775
f 774 775 776
f 774 776 777
f 774 777 95
f 777 778 93
f 777 93 95
f 777 776 779
f 777 779 780
f 777 780 781
f 777 781 778
f 781 50 52
f 781 52 778
f 781 780 741
f 781 741 740
f 781 740 51
f 781 51 50
f 780 779 742
f 780 742 741
f 779 776 775
f 779 775 782
f 779 782 744
f 779 744 742
f 782 775 783
f 782 783 784
f 782 784 746
f 782 746 744
f 784 783 42
f 784 42 41
f 784 41 785
f 784 785 746
f 785 41 40
f 785 40 786
f 785 786 787
f 785 787 749
f 785 749 747
f 785 747 746
f 787 786 788
f 787 788 10
f 787 10 9
f 787 9 789
f 787 789 750
f 787 750 749
f 789 9 2
f 789 2 6
f 789 6 751
f 789 751 750
f 788 786 40
f 788 40 44
f 788 44 790
f 788 790 791
f 788 791 11
f 788 11 10
f 791 790 65
f 791 65 70
f 791 70 12
f 791 12 11
f 790 792 66
f 790 66 65
f 790 44 43
f 790 43 792
f 792 793 794
f 792 794 66
f 792 43 45
f 792 45 793
f 794 768 766
f 794 766 795
f 794 795 67
f 794 67 66
f 794 793 770
f 794 770 768
f 795 766 765
f 795 765 796
f 795 796 68
f 795 68 67
f 796 765 759
f 796 759 797
f 796 797 798
f 796 798 68
f 798 797 755
f 798 755 7
f 798 7 4
f 798 4 799
f 798 799 69
f 798 69 68
f 799 4 3
f 799 3 12
f 799 12 70
f 799 70 69
f 797 759 756
f 797 756 755
f 793 45 800
f 793 800 770
f 800 773 771
f 800 771 770
f 800 45 42
f 800 42 783
f 800 783 775
f 800 775 773
f 778 52 91
f 778 91 93
f 763 707 706
f 763 706 19
f 763 19 16
f 763 16 758
f 763 762 708
f 763 708 707
f 762 77 81
f 762 81 708
f 755 753 5
f 755 5 7
f 753 751 6
f 753 6 5
f 740 738 737
f 740 737 51
f 737 735 801
f 737 801 802
f 737 802 47
f 737 47 51
f 802 801 803
f 802 803 804
f 802 804 48
f 802 48 47
f 804 803 805
f 804 805 128
f 804 128 87
f 804 87 48
f 805 806 97
f 805 97 96
f 805 96 89
f 805 89 128
f 805 803 807
f 805 807 806
f 807 808 809
f 807 809 806
f 807 803 801
f 807 801 810
f 807 810 811
f 807 811 808
f 811 719 717
f 811 717 808
f 811 810 733
f 811 733 732
f 811 732 726
f 811 726 719
f 810 801 735
f 810 735 733
f 809 715 713
f 809 713 812
f 809 812 97
f 809 97 806
f 809 808 717
f 809 717 715
f 812 713 79
f 812 79 76
f 812 76 75
f 812 75 97
f 726 723 720
f 726 720 719
f 722 689 113
f 722 113 112
f 722 694 691
f 722 691 689
f 337 334 332
f 337 332 331
f 308 304 302
f 308 302 301
f 273 269 26
f 273 26 25
f 272 154 209
f 272 209 813
f 272 813 268
f 272 268 267
f 272 271 152
f 272 152 154
f 813 209 207
f 813 207 206
f 813 206 814
f 813 814 268
f 814 206 203
f 814 203 202
f 814 202 815
f 814 815 264
f 814 264 263
f 814 263 268
f 815 202 100
f 815 100 99
f 815 99 103
f 815 103 260
f 815 260 259
f 815 259 264
f 265 256 27
f 265 27 26
f 261 260 103
f 261 103 816
f 261 816 38
f 261 38 35
f 816 103 102
f 816 102 817
f 816 817 818
f 816 818 38
f 818 817 819
f 818 819 820
f 818 820 821
f 818 821 822
f 818 822 36
f 818 36 38
f 822 821 823
f 822 823 824
f 822 824 37
f 822 37 36
f 824 823 132
f 824 132 250
f 824 250 249
f 824 249 37
f 823 821 161
f 823 161 160
f 823 160 133
f 823 133 132
f 821 820 825
f 821 825 161
f 825 176 175
f 825 175 826
f 825 826 162
f 825 162 161
f 825 820 819
f 825 819 176
f 826 175 177
f 826 177 187
f 826 187 163
f 826 163 162
f 819 105 172
f 819 172 176
f 819 817 102
f 819 102 105
f 256 254 31
f 256 31 27
f 254 252 251
f 254 251 31
f 250 132 131
f 250 131 245
f 216 214 149
f 216 149 153
f 212 182 184
f 212 184 193
f 210 209 154
f 210 154 151
f 205 191 168
f 205 168 167
f 198 197 147
f 198 147 145
f 189 136 135
f 189 135 186
f 189 188 827
f 189 827 157
f 189 157 156
f 189 156 136
f 827 188 177
f 827 177 174
f 827 174 173
f 827 173 828
f 827 828 158
f 827 158 157
f 828 173 104
f 828 104 146
f 828 146 142
f 828 142 158
f 186 135 134
f 186 134 163
f 173 172 105
f 173 105 104
f 156 127 126
f 156 126 136
f 146 104 98
f 146 98 143
f 144 143 98
f 144 98 101
f 141 140 122
f 141 122 127
f 140 139 123
f 140 123 122
f 115 63 62
f 115 62 84
f 107 82 56
f 107 56 55
f 91 52 49
f 91 49 86
f 87 86 49
f 87 49 48
# Vertices: 828, normals: 0, texture coordinates: 0, faces: 1652

