# File generated by ImageToStl.com - Free Image and 3D model conversion tools

o obj1
v 0.183817 0.004485 -0.022895
v 0.18373901 -0.000368 -0.02045
v 0.183498 0.000285 -0.029396
v 0.179144 0.008157 -0.019625
v 0.179594 0.000872 -0.01657
v 0.173859 0.002874 -0.015709
v 0.174658 0.01001 -0.01901
v 0.171105 0.004099 -0.019477
v 0.172901 0.008947 -0.021471
v 0.167422 0.010278 -0.022128
v 0.165392 0.006208 -0.020456
v 0.149399 0.011833 -0.018741
v 0.151926 0.016076 -0.020915
v 0.130372 0.018019 -0.008721
v 0.134343 0.025761 -0.014846
v 0.129658 0.027556 -0.014417
v 0.12705401 0.019205 -0.008671
v 0.12586699 0.027864 -0.015796
v 0.12385 0.020489 -0.010808
v 0.124746 0.026284 -0.01873
v 0.125562 0.020012 -0.01296
v 0.124446 0.024217 -0.021998
v 0.125108 0.020521 -0.01845
v 0.120891 0.022527 -0.02628
v 0.182715 0.006735 -0.026953
v 0.177077 0.012106 -0.025361
v 0.173767 0.013619 -0.025064
v 0.173556 0.011673 -0.025841
v 0.16847301 0.012581 -0.025938
v 0.15332501 0.018075 -0.025141
v 0.135809 0.02733 -0.023087
v 0.129806 0.030023 -0.02257
v 0.12574901 0.030118 -0.022893
v 0.121871 0.026669 -0.024579
v 0.122545 0.024297 -0.025443
v 0.182206 0.007163 -0.030831
v 0.176292 0.012766 -0.031354
v 0.172952 0.014303 -0.03127
v 0.17290799 0.012217 -0.030777
v 0.16790099 0.013063 -0.03031
v 0.152743 0.018565 -0.029582
v 0.134977 0.028029 -0.029433
v 0.12892801 0.030761 -0.029269
v 0.124981 0.030763 -0.028745
v 0.121501 0.02698 -0.0274
v 0.12235 0.024461 -0.026924
v 0.181759 0.004159 -0.033042
v 0.17767701 0.008137 -0.035737
v 0.17452601 0.009871 -0.036282
v 0.173105 0.009647 -0.035378
v 0.16886801 0.011076 -0.035078
v 0.156123 0.014148 -0.032776
v 0.134032 0.022725 -0.03251
v 0.128765 0.025209 -0.03295
v 0.125743 0.026398 -0.032931
v 0.122756 0.02539 -0.030412
v 0.121725 0.024492 -0.028912
v 0.18172599 0.001131 -0.032753
v 0.179207 0.002287 -0.036761
v 0.17597599 0.00353 -0.038094
v 0.17282 0.004644 -0.037822
v 0.16903199 0.006033 -0.038323
v 0.15970799 0.009062 -0.033379
v 0.134074 0.018112 -0.031185
v 0.129418 0.019846 -0.032215
v 0.126683 0.020927 -0.033804
v 0.123546 0.021962 -0.032383
v 0.120587 0.022912 -0.030628
v 0.180134 -0.000986 -0.032952
v 0.175111 -0.00144 -0.036083
v 0.171377 -0.000796 -0.036926
v 0.169296 0.000496 -0.035989
v 0.162606 0.003456 -0.034774
v 0.152642 0.008002 -0.03276
v 0.13054401 0.014166 -0.034207
v 0.12482 0.015 -0.035735
v 0.120642 0.015835 -0.036507
v 0.118922 0.017679 -0.034559
v 0.118921 0.019659 -0.03157
v 0.178835 -0.003223 -0.031175
v 0.171803 -0.004429 -0.032269
v 0.16777501 -0.003896 -0.032417
v 0.16684701 -0.00177 -0.031671
v 0.157529 0.004235 -0.030159
v 0.146107 0.007395 -0.029939
v 0.127002 0.007447 -0.03161
v 0.120257 0.006926 -0.032412
v 0.1149 0.008268 -0.032365
v 0.114556 0.011421 -0.031167
v 0.11754 0.015636 -0.02926
v 0.179261 -0.00358 -0.027931
v 0.17253301 -0.005042 -0.026697
v 0.16858099 -0.004572 -0.026282
v 0.167504 -0.002322 -0.026665
v 0.15796401 0.003869 -0.026844
v 0.146614 0.006967 -0.026061
v 0.128067 0.006554 -0.023502
v 0.12156 0.00583 -0.022469
v 0.11625 0.007133 -0.022068
v 0.115655 0.010496 -0.022776
v 0.118206 0.015076 -0.024183
v 0.181003 -0.003581 -0.023827
v 0.175515 -0.004121 -0.0207
v 0.170692 -0.002906 -0.019888
v 0.169036 -0.000402 -0.022002
v 0.161294 0.00369 -0.023154
v 0.147607 0.00794 -0.02177
v 0.12845799 0.009417 -0.014712
v 0.123837 0.010101 -0.013384
v 0.119887 0.012079 -0.013847
v 0.120385 0.013626 -0.015847
v 0.12154 0.016857 -0.020077
v 0.178637 0.002281 0.004579
v 0.175716 0.000194 0.005977
v 0.177443 -0.000132 0.000205
v 0.17014299 0.002724 0.006346
v 0.1741 0.00503 0.005034
v 0.166678 0.004333 0.006122
v 0.170985 0.006352 0.004541
v 0.16590001 0.008033 0.00305
v 0.15963 0.007893 0.00212
v 0.14797001 0.015979 0.000682
v 0.12701 0.023159 -0.001413
v 0.118064 0.027078 0.000912
v 0.142819 0.019509 0.001786
v 0.13793699 0.021327 0.000647
v 0.114104 0.028938 0.000411
v 0.109512 0.030963 0.001447
v 0.117492 0.031605 -0.000311
v 0.104809 0.033197 0.00053
v 0.112518 0.034192 -0.000419
v 0.102624 0.034346 -0.001283
v 0.108832 0.035187 -0.00182
v 0.105622 0.03314 -0.00339
v 0.108879 0.034704 -0.002477
v 0.107545 0.03252 -0.006631
v 0.18084399 0.002691 0.002012
v 0.177342 0.005605 0.002097
v 0.17444199 0.006379 0.00162
v 0.17234699 0.008286 0.001725
v 0.16898 0.008698 0.001008
v 0.16693 0.010352 0.001041
v 0.160873 0.011672 -5.6E-05
v 0.124386 0.029762 -0.003274
v 0.119516 0.033429 -0.003284
v 0.114569 0.034812 -0.004078
v 0.112433 0.036622 -0.004015
v 0.18104599 0.002814 -0.000651
v 0.17760099 0.005763 -0.001338
v 0.174676 0.006521 -0.001466
v 0.17262401 0.008454 -0.001919
v 0.169203 0.008834 -0.001937
v 0.16718499 0.010508 -0.002324
v 0.161061 0.011785 -0.00251
v 0.124619 0.029904 -0.006359
v 0.119814 0.033611 -0.00721
v 0.114825 0.034967 -0.007444
v 0.112727 0.0368 -0.007872
v 0.17997 0.001442 -0.002617
v 0.17683899 0.003512 -0.003602
v 0.174115 0.004258 -0.003281
v 0.17181 0.006226 -0.004499
v 0.16764601 0.007118 -0.003734
v 0.16339099 0.009186 -0.004239
v 0.151357 0.014808 -0.005416
v 0.124507 0.027877 -0.008627
v 0.119651 0.03136 -0.010456
v 0.116375 0.033458 -0.011409
v 0.110922 0.035681 -0.01158
v 0.178597 -0.000394 -0.003111
v 0.175815 0.000943 -0.003841
v 0.173443 0.001977 -0.003158
v 0.170619 0.003426 -0.005035
v 0.165999 0.005436 -0.003657
v 0.159693 0.008345 -0.003818
v 0.141242 0.017084 -0.007107
v 0.123994 0.025178 -0.00925
v 0.118772 0.027785 -0.011818
v 0.116529 0.029036 -0.014551
v 0.108207 0.032785 -0.01365
v 0.176321 -0.002151 -0.003549
v 0.17253 -0.001238 -0.005151
v 0.169412 0.000681 -0.004793
v 0.16709501 0.001929 -0.004782
v 0.16277599 0.005068 -0.003596
v 0.153694 0.00974 -0.003869
v 0.13692001 0.016553 -0.006976
v 0.123178 0.021816 -0.009975
v 0.115964 0.022809 -0.014088
v 0.11234 0.023973 -0.015198
v 0.10772 0.027717 -0.013379
v 0.17391901 -0.003942 -0.001967
v 0.168763 -0.004088 -0.003326
v 0.164791 -0.001536 -0.003481
v 0.16380399 0.001131 -0.002839
v 0.15970001 0.005138 -0.00254
v 0.14792 0.011686 -0.003343
v 0.13282 0.016649 -0.005518
v 0.122034 0.018089 -0.007777
v 0.112195 0.016415 -0.010838
v 0.107969 0.019087 -0.011017
v 0.107318 0.023222 -0.009799
v 0.173669 -0.004095 0.001328
v 0.168396 -0.004311 0.001511
v 0.16445699 -0.001741 0.000936
v 0.163569 0.000989 0.000246
v 0.15956201 0.005053 -0.000719
v 0.14782999 0.011631 -0.002151
v 0.132634 0.016536 -0.003065
v 0.121684 0.017875 -0.003149
v 0.111557 0.016027 -0.002424
v 0.107362 0.018717 -0.003025
v 0.106887 0.02296 -0.004121
v 0.17431501 -0.00268 0.004366
v 0.168929 -0.001379 0.005192
v 0.16517401 0.000576 0.0046
v 0.16146401 0.004254 0.002072
v 0.14307401 0.013695 -0.000675
v 0.13231 0.017954 -0.000869
v 0.122862 0.021679 -0.001026
v 0.11512 0.023513 0.000204
v 0.108105 0.024765 0.001774
v 0.105062 0.026997 0.000575
v 0.106383 0.028567 -0.001733
v 0.167125 -0.001462 0.017381
v 0.166455 -0.002829 0.018042
v 0.166935 -0.002804 0.015003
v 0.16515499 0.000316 0.018604
v 0.164014 -0.001782 0.018945
v 0.162386 0.001466 0.018096
v 0.161073 -0.000371 0.0182
v 0.158068 0.000866 0.019964
v 0.159861 0.003504 0.019265
v 0.15663899 0.004608 0.01829
v 0.155617 0.002039 0.019382
v 0.15291101 0.00346 0.017174
v 0.141831 0.011325 0.016512
v 0.126775 0.018158 0.01471
v 0.125709 0.016232 0.013716
v 0.111839 0.022322 0.017158
v 0.113625 0.025674 0.015689
v 0.107296 0.028803 0.015354
v 0.105225 0.025495 0.015484
v 0.102332 0.026801 0.015771
v 0.104605 0.030175 0.015279
v 0.101236 0.030661 0.013156
v 0.099098 0.028432 0.013971
v 0.101626 0.027703 0.008618
v 0.16753601 -0.000743 0.015945
v 0.166168 0.001933 0.016581
v 0.163651 0.003006 0.016295
v 0.16136999 0.005295 0.016533
v 0.157245 0.006101 0.015708
v 0.13097 0.019393 0.013524
v 0.128244 0.020666 0.013256
v 0.114834 0.027542 0.012177
v 0.109316 0.031647 0.012213
v 0.106678 0.032778 0.011916
v 0.103027 0.031937 0.010599
v 0.167658 -0.000668 0.014333
v 0.16639499 0.002072 0.013565
v 0.163876 0.003142 0.013351
v 0.16165601 0.005469 0.012748
v 0.157474 0.00624 0.012692
v 0.13125201 0.019564 0.009807
v 0.128526 0.020838 0.009541
v 0.115149 0.027732 0.00804
v 0.10971 0.031886 0.007025
v 0.107065 0.033014 0.006798
v 0.103282 0.032093 0.007235
v 0.167533 -0.001567 0.01316
v 0.16608401 0.000336 0.01148
v 0.163017 0.001842 0.01109
v 0.16057301 0.003633 0.010035
v 0.156866 0.004534 0.010714
v 0.13665199 0.014085 0.008601
v 0.125117 0.020304 0.006433
v 0.115178 0.025885 0.004286
v 0.111076 0.028199 0.003387
v 0.107543 0.029704 0.003221
v 0.104034 0.030116 0.004417
v 0.16722301 -0.002763 0.01286
v 0.165483 -0.001821 0.01109
v 0.161791 -6.8E-05 0.010386
v 0.159117 0.001237 0.00944
v 0.15604 0.002563 0.010509
v 0.14209899 0.00901 0.009946
v 0.12123 0.018972 0.005279
v 0.11434 0.022376 0.002319
v 0.111826 0.023513 0.00253
v 0.107462 0.025523 0.002447
v 0.104164 0.026981 0.003152
v 0.164932 -0.003756 0.011692
v 0.16173901 -0.003181 0.009871
v 0.15857799 -0.001503 0.009892
v 0.156418 -6.4E-05 0.010389
v 0.15139499 0.003082 0.011219
v 0.13456801 0.011028 0.009715
v 0.11864 0.017039 0.005799
v 0.111998 0.018682 0.002742
v 0.108389 0.01971 0.001305
v 0.102811 0.022716 0.001421
v 0.101823 0.024809 0.004013
v 0.16222499 -0.00539 0.012736
v 0.157594 -0.005059 0.011593
v 0.15523601 -0.00294 0.011746
v 0.154155 -0.000296 0.012446
v 0.147186 0.004589 0.01238
v 0.12721001 0.013513 0.010273
v 0.116299 0.015861 0.008171
v 0.109827 0.015727 0.006346
v 0.104491 0.01547 0.004786
v 0.097835 0.019701 0.004559
v 0.099855 0.023644 0.006601
v 0.16197599 -0.005541 0.016031
v 0.15725 -0.005269 0.016149
v 0.154943 -0.003117 0.015601
v 0.153974 -0.000405 0.01483
v 0.147091 0.004531 0.013642
v 0.127093 0.013442 0.011816
v 0.116039 0.015702 0.011604
v 0.109401 0.015469 0.011955
v 0.103922 0.015123 0.012289
v 0.097324 0.019389 0.01129
v 0.099598 0.023489 0.009964
v 0.164161 -0.004178 0.018081
v 0.160561 -0.003508 0.018996
v 0.15793 -0.001774 0.018106
v 0.15562201 -0.000588 0.017745
v 0.150901 0.002303 0.016423
v 0.13976701 0.007974 0.014746
v 0.120865 0.016082 0.013804
v 0.110299 0.018383 0.016074
v 0.104502 0.020441 0.016322
v 0.09964 0.02293 0.015576
v 0.09905 0.025407 0.012757
v 0.153474 0.003449 0.033013
v 0.151853 0.001243 0.033241
v 0.154008 0.00071 0.029467
v 0.146917 0.002944 0.034332
v 0.149175 0.00608 0.03375
v 0.146531 0.006243 0.032115
v 0.14523999 0.003673 0.032306
v 0.143029 0.007374 0.031266
v 0.14246599 0.004742 0.031123
v 0.139116 0.00781 0.029129
v 0.13828 0.006442 0.027962
v 0.116152 0.016688 0.025639
v 0.119574 0.013341 0.024895
v 0.106092 0.021678 0.025686
v 0.106605 0.017907 0.026186
v 0.099356 0.020579 0.025023
v 0.098654 0.024328 0.024234
v 0.095663 0.021843 0.025988
v 0.094165 0.026443 0.024096
v 0.086585 0.025292 0.022886
v 0.088257 0.028041 0.022214
v 0.086167 0.027639 0.020165
v 0.084403 0.026215 0.020656
v 0.087887 0.025147 0.017808
v 0.155149 0.005023 0.031165
v 0.151398 0.008101 0.031038
v 0.14794099 0.008252 0.030072
v 0.143895 0.00986 0.029395
v 0.140568 0.009961 0.028451
v 0.113529 0.021082 0.02404
v 0.105753 0.024858 0.022956
v 0.098008 0.02727 0.021446
v 0.092355 0.029358 0.02045
v 0.089837 0.029725 0.019827
v 0.087786 0.028228 0.018753
v 0.155661 0.005023 0.028262
v 0.15209299 0.008101 0.027097
v 0.148514 0.008252 0.026822
v 0.14448 0.00986 0.026075
v 0.141031 0.009961 0.025824
v 0.114115 0.021082 0.02072
v 0.106435 0.024858 0.019081
v 0.098642 0.02727 0.01785
v 0.09299 0.029358 0.016853
v 0.090411 0.029725 0.016577
v 0.088116 0.028228 0.016884
v 0.15495899 0.003052 0.026368
v 0.15096401 0.005607 0.024355
v 0.148121 0.005965 0.024693
v 0.14443199 0.006789 0.024697
v 0.139376 0.008272 0.024273
v 0.118864 0.016893 0.019395
v 0.107843 0.021273 0.017078
v 0.101499 0.023811 0.015727
v 0.096147 0.025865 0.01469
v 0.092289 0.02733 0.013964
v 0.089246 0.026838 0.015387
v 0.15390299 0.000952 0.026218
v 0.149298 0.00275 0.023904
v 0.14729901 0.00343 0.024476
v 0.144242 0.00445 0.025668
v 0.137537 0.006928 0.024486
v 0.123151 0.012369 0.019986
v 0.108822 0.017664 0.01746
v 0.103742 0.019608 0.015527
v 0.098654 0.021503 0.014399
v 0.093383 0.023495 0.012776
v 0.089925 0.024612 0.014706
v 0.153762 -0.000992 0.026856
v 0.14904401 -0.000421 0.024344
v 0.146672 0.00039 0.023832
v 0.143391 0.002972 0.025214
v 0.137346 0.005889 0.025128
v 0.122349 0.01065 0.021363
v 0.107525 0.015119 0.017303
v 0.102678 0.015769 0.014814
v 0.097699 0.01712 0.013238
v 0.092839 0.018297 0.011492
v 0.090483 0.02057 0.013083
v 0.153716 -0.002226 0.028451
v 0.148681 -0.002959 0.026745
v 0.145485 -0.002906 0.025824
v 0.14222801 0.001341 0.026213
v 0.137344 0.005515 0.0261
v 0.122014 0.010391 0.023148
v 0.105959 0.01283 0.019211
v 0.100963 0.011744 0.017403
v 0.095838 0.012173 0.016035
v 0.091237 0.012407 0.014762
v 0.089902 0.015268 0.015275
v 0.153386 -0.002226 0.03032
v 0.148072 -0.002959 0.030203
v 0.14475299 -0.002906 0.029975
v 0.141826 0.001341 0.028495
v 0.137198 0.005515 0.02693
v 0.121782 0.010391 0.024462
v 0.10535 0.01283 0.02267
v 0.100037 0.011744 0.022659
v 0.094753 0.012173 0.022191
v 0.089994 0.012407 0.021816
v 0.088915 0.015268 0.020877
v 0.152337 -0.001098 0.032113
v 0.147098 -0.000702 0.033056
v 0.14476199 0.000355 0.03241
v 0.141914 0.002678 0.030368
v 0.13766 0.005866 0.027658
v 0.120595 0.011826 0.025069
v 0.105667 0.014958 0.025331
v 0.099429 0.016223 0.025491
v 0.094835 0.016882 0.025941
v 0.088064 0.019385 0.024747
v 0.086541 0.021371 0.022753
v 0.140965 0.00379 0.04395
v 0.13945 0.002416 0.045368
v 0.142331 0.001815 0.041932
v 0.139008 0.004851 0.044292
v 0.13713001 0.003016 0.045631
v 0.136667 0.005544 0.043872
v 0.13541999 0.00351 0.044704
v 0.134212 0.006295 0.043466
v 0.13351899 0.004066 0.043549
v 0.130909 0.007042 0.04254
v 0.130932 0.00473 0.043942
v 0.128178 0.005558 0.04176
v 0.12526301 0.008535 0.04127
v 0.101253 0.012929 0.036061
v 0.101939 0.01463 0.035918
v 0.077886 0.019018 0.037702
v 0.088739 0.020632 0.036567
v 0.081676 0.02225 0.034617
v 0.067639 0.02188 0.034311
v 0.069754 0.021393 0.032783
v 0.07889 0.022751 0.03365
v 0.073386 0.02042 0.033081
v 0.079359 0.022228 0.033181
v 0.080265 0.018805 0.028797
v 0.142056 0.003499 0.042383
v 0.14054 0.004985 0.042403
v 0.13782001 0.006444 0.042052
v 0.13514499 0.008158 0.041798
v 0.130665 0.007957 0.040397
v 0.122694 0.011478 0.039135
v 0.102776 0.015948 0.034608
v 0.098898 0.018884 0.034381
v 0.095264 0.019968 0.03364
v 0.088142 0.0229 0.032445
v 0.085354 0.02277 0.031571
v 0.142269 0.003488 0.041381
v 0.14089701 0.004969 0.040733
v 0.13827001 0.006424 0.039939
v 0.135729 0.008131 0.039071
v 0.131055 0.007939 0.03856
v 0.123264 0.011451 0.036464
v 0.103215 0.015927 0.032549
v 0.099588 0.018853 0.031154
v 0.095964 0.019936 0.030358
v 0.088973 0.022862 0.02855
v 0.086066 0.022737 0.028234
v 0.142692 0.003028 0.040323
v 0.141305 0.004182 0.039033
v 0.13909499 0.004817 0.038529
v 0.13713001 0.005651 0.037729
v 0.13462099 0.006339 0.037198
v 0.129253 0.008493 0.035181
v 0.117388 0.010817 0.033857
v 0.109279 0.013365 0.031721
v 0.099243 0.016469 0.029137
v 0.091416 0.019862 0.025871
v 0.087902 0.020408 0.025663
v 0.142831 0.001792 0.039591
v 0.141275 0.00228 0.037945
v 0.139542 0.002724 0.038237
v 0.138155 0.003099 0.038037
v 0.13766401 0.003303 0.036428
v 0.13462301 0.00417 0.035032
v 0.13115799 0.005031 0.03618
v 0.118643 0.008414 0.034472
v 0.102082 0.012994 0.029934
v 0.093095 0.01559 0.025116
v 0.089025 0.016687 0.02463
v 0.141065 0.000797 0.039698
v 0.13864399 0.000515 0.037825
v 0.13573401 0.001311 0.037208
v 0.134124 0.002146 0.037434
v 0.133669 0.002245 0.0373
v 0.12511501 0.004481 0.035339
v 0.114907 0.00717 0.033028
v 0.1006 0.009039 0.027051
v 0.090293 0.011309 0.024076
v 0.083673 0.013173 0.02275
v 0.082688 0.013889 0.023184
v 0.139281 0.000328 0.040551
v 0.135841 -0.000695 0.039201
v 0.131505 -0.000133 0.038086
v 0.129908 0.001554 0.038144
v 0.13004 0.002858 0.038595
v 0.116186 0.007007 0.035777
v 0.09845 0.009718 0.031344
v 0.08058 0.00675 0.025075
v 0.076537 0.006964 0.023935
v 0.073428 0.010763 0.02421
v 0.075694 0.011304 0.025057
v 0.138972 0.000342 0.041998
v 0.13527 -0.000668 0.041871
v 0.130851 -0.000103 0.041145
v 0.12942 0.001576 0.040425
v 0.129731 0.002872 0.040043
v 0.115925 0.007019 0.037001
v 0.097905 0.009743 0.033904
v 0.078988 0.006824 0.032529
v 0.074827 0.007043 0.031946
v 0.072108 0.010823 0.030386
v 0.07453 0.011357 0.03051
v 0.13898 0.000677 0.043866
v 0.135915 0.000622 0.044366
v 0.13287801 0.001424 0.043762
v 0.13125999 0.002523 0.042577
v 0.13008 0.002995 0.042134
v 0.121888 0.005862 0.039597
v 0.099401 0.011302 0.035758
v 0.077858 0.012493 0.03725
v 0.070714 0.014538 0.035624
v 0.070537 0.016195 0.033519
v 0.073596 0.015894 0.033476
v 0.116588 0.03306 -0.016669
v 0.116783 0.033061 -0.019936
v 0.116349 0.036186 -0.018171
v 0.112561 0.033068 -0.021188
v 0.107732 0.033076 -0.022229
v 0.111403 0.033069 -0.018219
v 0.116689 0.03306 -0.016524
v 0.11593 0.028686 -0.015136
v 0.116688 0.028687 -0.022681
v 0.109401 0.028699 -0.024537
v 0.10464 0.028707 -0.026328
v 0.100874 0.028712 -0.02585
v 0.105765 0.028703 -0.020482
v 0.109163 0.028697 -0.016711
v 0.116171 0.023686 -0.016553
v 0.119027 0.023682 -0.019793
v 0.118998 0.023683 -0.024305
v 0.11513 0.02369 -0.027207
v 0.111926 0.023696 -0.028471
v 0.108715 0.023701 -0.027895
v 0.105586 0.023706 -0.029589
v 0.097922 0.023718 -0.029671
v 0.096608 0.023719 -0.027618
v 0.103777 0.023707 -0.022927
v 0.107449 0.0237 -0.018916
v 0.118009 0.017433 -0.016229
v 0.120452 0.01743 -0.019288
v 0.120489 0.017433 -0.028865
v 0.116797 0.017439 -0.030594
v 0.108235 0.017451 -0.028106
v 0.101018 0.017464 -0.032171
v 0.095975 0.017471 -0.032362
v 0.096924 0.01747 -0.029466
v 0.094802 0.017471 -0.025714
v 0.096222 0.01747 -0.024766
v 0.099169 0.017465 -0.025643
v 0.107041 0.017451 -0.021336
v 0.114399 0.011189 -0.017055
v 0.118957 0.011184 -0.024185
v 0.118004 0.011186 -0.028859
v 0.111465 0.011198 -0.033884
v 0.10342 0.011211 -0.035048
v 0.097395 0.01122 -0.035793
v 0.095178 0.011224 -0.035105
v 0.096132 0.011221 -0.03043
v 0.093481 0.011224 -0.026201
v 0.093461 0.011223 -0.02392
v 0.095844 0.011219 -0.022675
v 0.097855 0.011216 -0.023653
v 0.102447 0.011209 -0.023415
v 0.106807 0.011201 -0.019346
v 0.111769 0.00807 -0.026277
v 0.112909 0.00807 -0.029504
v 0.107057 0.00808 -0.033391
v 0.102459 0.008087 -0.035027
v 0.098458 0.008093 -0.033575
v 0.098963 0.008091 -0.029234
v 0.101225 0.008087 -0.027311
v 0.107866 0.008077 -0.027537
v 0.105722 0.006518 -0.030516
v 0.10632 0.025885 -0.013821
v 0.105914 0.021829 -0.01145
v 0.105717 0.016329 -0.010297
v 0.10524 0.027948 -0.007519
v 0.105032 0.030973 -0.006299
v 0.10531 0.033998 -0.007926
v 0.106088 0.033242 -0.012466
v 0.106889 0.032485 -0.017142
v 0.107296 0.027055 -0.019513
v 0.106797 0.020935 -0.016599
v 0.106135 0.016191 -0.012737
v 0.100657 0.023754 -0.011305
v 0.100588 0.019355 -0.010898
v 0.099972 0.031179 -0.007307
v 0.099623 0.032898 -0.005274
v 0.099821 0.037848 -0.006425
v 0.101111 0.036473 -0.013948
v 0.102063 0.035785 -0.019504
v 0.102343 0.031729 -0.02113
v 0.102458 0.028842 -0.021807
v 0.10168 0.02451 -0.017267
v 0.101203 0.019767 -0.014489
v 0.095448 0.020798 -0.011429
v 0.095495 0.027192 -0.011701
v 0.094971 0.032073 -0.008651
v 0.0946 0.034135 -0.006483
v 0.094646 0.037367 -0.006754
v 0.095204 0.037367 -0.010007
v 0.095831 0.037848 -0.013666
v 0.096633 0.036061 -0.018342
v 0.09683 0.032623 -0.019495
v 0.096423 0.027055 -0.017121
v 0.096121 0.02231 -0.015361
v 0.090017 0.020661 -0.010268
v 0.090191 0.017979 -0.011285
v 0.08989 0.027467 -0.009523
v 0.089413 0.031867 -0.006744
v 0.089367 0.034892 -0.006474
v 0.090923 0.035442 -0.015554
v 0.0914 0.031454 -0.018332
v 0.090818 0.021279 -0.014944
v 0.090517 0.027948 -0.013182
v 0.089155 0.032448 7E-06
v 0.094692 0.031823 0.008917
v 0.097298 0.031823 0.00817
v 0.087509 0.031823 0.004667
v 0.080962 0.031823 0.004718
v 0.078178 0.031823 0.000357
v 0.077033 0.031823 -0.005748
v 0.081891 0.031823 -0.006667
v 0.084975 0.031823 -0.004727
v 0.092108 0.031823 -0.005946
v 0.097424 0.031823 -0.005135
v 0.099361 0.031823 -0.001367
v 0.097349 0.031823 0.003927
v 0.098489 0.026198 0.008254
v 0.093628 0.026198 0.007397
v 0.089122 0.026198 0.002351
v 0.084279 0.026198 0.003908
v 0.080835 0.026198 0.002919
v 0.080028 0.026198 -0.000778
v 0.078517 0.026198 -0.00409
v 0.081305 0.026198 -0.004423
v 0.084954 0.026198 -0.005683
v 0.090187 0.026198 -0.003683
v 0.096563 0.026198 -0.003129
v 0.098257 0.026198 -0.001942
v 0.098001 0.026198 0.003471
v 0.094652 0.019948 0.007704
v 0.098523 0.019948 0.008068
v 0.08896 0.019948 0.003274
v 0.08611 0.019948 0.004675
v 0.082961 0.019948 0.002024
v 0.079919 0.019948 -0.000161
v 0.079727 0.019948 -0.003748
v 0.083663 0.019948 -0.003753
v 0.089741 0.019948 -0.001158
v 0.096142 0.019948 -3E-05
v 0.097197 0.019948 0.00263
v 0.093283 0.013698 0.003591
v 0.088156 0.013698 0.002433
v 0.085097 0.013698 0.003227
v 0.0817 0.013698 -0.001624
v 0.084361 0.013698 -0.003757
v 0.087691 0.013698 -0.002852
v 0.0896 0.013698 -0.000358
v 0.093626 0.013698 0.000922
v 0.08854 0.012135 0.000977
v 0.059094 0.018403 0.021487
v 0.060241 0.017546 0.023888
v 0.060595 0.020748 0.021877
v 0.059865 0.015516 0.026021
v 0.059276 0.015652 0.020451
v 0.060563 0.011321 0.02206
v 0.06124 0.012719 0.018221
v 0.06138 0.016599 0.017429
v 0.065885 0.026116 0.0186
v 0.06553 0.019485 0.020611
v 0.06495 0.016012 0.023901
v 0.064585 0.012404 0.025973
v 0.065112 0.009968 0.022987
v 0.065788 0.010554 0.019148
v 0.066465 0.012042 0.01531
v 0.067411 0.009878 0.009948
v 0.06827 0.009968 0.005073
v 0.068506 0.016102 0.003732
v 0.067808 0.022011 0.007692
v 0.066734 0.02553 0.013786
v 0.071603 0.028958 0.021807
v 0.072323 0.029319 0.017723
v 0.071259 0.025168 0.023758
v 0.071044 0.018223 0.024975
v 0.071119 0.01281 0.024549
v 0.07186 0.010374 0.020345
v 0.072946 0.010554 0.014191
v 0.074439 0.008118 0.005721
v 0.074901 0.009878 0.0031
v 0.074547 0.014253 0.005112
v 0.074826 0.022327 0.003527
v 0.074686 0.025349 0.004318
v 0.073623 0.029364 0.010351
v 0.078695 0.026116 0.017214
v 0.077857 0.02377 0.021967
v 0.077373 0.018042 0.02471
v 0.077373 0.013306 0.02471
v 0.07746 0.009968 0.024221
v 0.078115 0.008614 0.020505
v 0.079253 0.009607 0.014046
v 0.080479 0.007938 0.0071
v 0.080951 0.006855 0.004418
v 0.081059 0.008028 0.003809
v 0.08079 0.014253 0.005332
v 0.080919 0.021335 0.004601
v 0.08079 0.0235 0.005332
v 0.079619 0.026522 0.011974
v 0.084746 0.022327 0.018534
v 0.085273 0.02571 0.015546
v 0.084155 0.016418 0.021884
v 0.083865 0.013802 0.023529
v 0.083833 0.010193 0.023713
v 0.085014 0.010554 0.01701
v 0.08595 0.009607 0.011708
v 0.086551 0.009607 0.008296
v 0.086788 0.012539 0.006955
v 0.086433 0.017636 0.008966
v 0.086454 0.024086 0.008845
v 0.086047 0.02553 0.011159
v 0.085251 0.025755 0.015669
v 0.086119 0.01732 0.014313
v 0.088646 0.026495 -0.038048
v 0.091068 0.033648 -0.035021
v 0.094428 0.028315 -0.033456
v 0.083883 0.031319 -0.038372
v 0.083497 0.027774 -0.038553
v 0.082033 0.024845 -0.039235
v 0.083289 0.021699 -0.038649
v 0.089298 0.020536 -0.035848
v 0.091333 0.022005 -0.034899
v 0.090874 0.032529 -0.029422
v 0.092194 0.027808 -0.028807
v 0.089105 0.037192 -0.030249
v 0.085705 0.037407 -0.031833
v 0.083841 0.035713 -0.032703
v 0.080564 0.033116 -0.03423
v 0.082447 0.02879 -0.033352
v 0.08247 0.021928 -0.033342
v 0.080614 0.017929 -0.034208
v 0.084192 0.014565 -0.032539
v 0.086966 0.015192 -0.031245
v 0.089665 0.021275 -0.029987
v 0.092048 0.032599 -0.021289
v 0.091952 0.027086 -0.021334
v 0.091574 0.039122 -0.021511
v 0.08806 0.039955 -0.023149
v 0.083869 0.039717 -0.025104
v 0.080192 0.038243 -0.026818
v 0.079859 0.036047 -0.026974
v 0.081694 0.028797 -0.026118
v 0.08064 0.021988 -0.026609
v 0.077204 0.015958 -0.028212
v 0.079705 0.013659 -0.027046
v 0.082764 0.013107 -0.025619
v 0.086889 0.016494 -0.023695
v 0.089368 0.020046 -0.022539
v 0.089438 0.028549 -0.014921
v 0.089021 0.035242 -0.015116
v 0.086406 0.038271 -0.016335
v 0.082448 0.035952 -0.018182
v 0.079051 0.035491 -0.019766
v 0.075606 0.0325 -0.021372
v 0.076869 0.026935 -0.020782
v 0.076144 0.023445 -0.021121
v 0.079728 0.018563 -0.019449
v 0.082049 0.01857 -0.018366
v 0.083737 0.022344 -0.01758
v 0.085895 0.033273 -0.008988
v 0.085398 0.029165 -0.009219
v 0.083111 0.035963 -0.010287
v 0.07762 0.034878 -0.012847
v 0.073661 0.033234 -0.014692
v 0.071004 0.031538 -0.015931
v 0.071635 0.028784 -0.015638
v 0.07703 0.024244 -0.013121
v 0.079132 0.022451 -0.012141
v 0.081336 0.023921 -0.011113
v 0.078643 0.028927 -0.004784
v 0.077505 0.030274 -0.005314
v 0.073876 0.030938 -0.007006
v 0.069802 0.029969 -0.008906
v 0.073887 0.027675 -0.007001
v 0.077629 0.026843 -0.005256
v 0.075197 0.028525 -0.004493
v -0.008845 0.009352 -0.003246
v -0.007966 0.008535 -0.006963
v -0.0098 0.006447 -0.006334
v -0.005553 0.003581 -0.013011
v -0.004554 0.001729 -0.015819
v -0.005792 0.002438 -0.00988
v -0.007385 0.004887 -0.004639
v -0.00875 0.008045 -0.001771
v -0.005386 0.018339 0.002249
v -0.004961 0.019645 -0.002182
v -0.00203 0.016106 -0.013341
v 0.000369 0.010554 -0.018377
v 0.003472 0.001299 -0.021701
v 0.005396 -0.005126 -0.022695
v 0.006055 -0.008774 -0.020801
v 0.004765 -0.00763 -0.015254
v 0.002472 -0.005398 -0.005694
v 0.001215 -0.002894 -0.002425
v -0.001094 0.002605 0.002182
v -0.004306 0.012187 0.005613
v -0.0052 0.015944 0.004885
v 0.000774 0.02838 0.003779
v 0.000914 0.029905 0.000632
v 0.002672 0.029905 -0.00934
v 0.004183 0.027182 -0.013706
v 0.00586 0.022718 -0.01633
v 0.008739 0.014443 -0.019884
v 0.011647 0.006712 -0.024448
v 0.013754 -0.000202 -0.025727
v 0.014986 -0.006517 -0.022971
v 0.014843 -0.009839 -0.017031
v 0.013681 -0.009512 -0.010952
v 0.012405 -0.007715 -0.006482
v 0.010273 -0.003959 -0.000194
v 0.008775 -0.001945 0.005191
v 0.007818 0.000287 0.007181
v 0.006332 0.006168 0.006536
v 0.004266 0.011775 0.009599
v 0.003186 0.014715 0.011186
v 0.001943 0.019506 0.010841
v 0.008239 0.033522 0.005478
v 0.010963 0.033685 -0.010226
v 0.012109 0.031888 -0.013958
v 0.016285 0.018822 -0.017475
v 0.021396 0.00385 -0.023364
v 0.023139 -0.000777 -0.026103
v 0.024313 -0.005678 -0.025198
v 0.024253 -0.008781 -0.020068
v 0.023393 -0.00791 -0.016538
v 0.020286 -0.004153 -0.00471
v 0.017762 -0.001703 0.005824
v 0.016829 -0.001377 0.010609
v 0.015774 0.001019 0.012899
v 0.014776 0.005701 0.011327
v 0.013006 0.012125 0.011458
v 0.011349 0.017787 0.012118
v 0.00977 0.024593 0.01057
v 0.016899 0.035777 0.004846
v 0.017004 0.037356 0.001818
v 0.0193 0.037247 -0.011041
v 0.020443 0.035342 -0.014584
v 0.021798 0.030986 -0.01555
v 0.026402 0.015307 -0.017468
v 0.029824 0.005507 -0.021751
v 0.030491 0.002893 -0.021506
v 0.030199 0.00137 -0.017496
v 0.026774 0.001478 0.001763
v 0.02589 0.000552 0.008208
v 0.025198 0.000335 0.012466
v 0.023705 0.004309 0.014804
v 0.02325 0.006813 0.013518
v 0.021741 0.014054 0.010903
v 0.018936 0.024399 0.010853
v 0.017396 0.031422 0.008743
v 0.025247 0.037815 0.006318
v 0.025696 0.038414 0.002844
v 0.027299 0.038306 -0.006077
v 0.027691 0.039122 -0.009561
v 0.030129 0.035148 -0.017255
v 0.031377 0.031118 -0.018114
v 0.034351 0.018162 -0.014987
v 0.036801 0.011301 -0.018299
v 0.037652 0.007545 -0.017324
v 0.037155 0.007164 -0.013921
v 0.03583 0.004822 -0.002795
v 0.035187 0.005041 0.000519
v 0.0348 0.003299 0.005401
v 0.033746 0.004822 0.009023
v 0.031641 0.010213 0.012649
v 0.029073 0.017726 0.015624
v 0.027698 0.023714 0.014176
v 0.025655 0.033351 0.010896
v 0.034757 0.035988 0.007171
v 0.035031 0.037621 0.003092
v 0.03784 0.03479 -0.008469
v 0.0396 0.034083 -0.017361
v 0.039879 0.035824 -0.021628
v 0.040567 0.034572 -0.023601
v 0.041697 0.029836 -0.022703
v 0.042146 0.025263 -0.018182
v 0.043691 0.016279 -0.013087
v 0.044293 0.013993 -0.01298
v 0.044551 0.01187 -0.011157
v 0.043857 0.012686 -0.008488
v 0.043857 0.008331 -0.00176
v 0.043345 0.007187 0.002909
v 0.042244 0.00893 0.006459
v 0.040465 0.012958 0.010334
v 0.037966 0.017695 0.017193
v 0.036714 0.021125 0.019003
v 0.036278 0.025699 0.01442
v 0.034814 0.034083 0.009781
v 0.043874 0.033181 0.011761
v 0.045452 0.030567 0.006834
v 0.046747 0.03035 -0.000172
v 0.04662 0.033181 -0.003812
v 0.047526 0.034596 -0.011141
v 0.047277 0.040313 -0.018547
v 0.047303 0.042109 -0.021461
v 0.048252 0.043035 -0.028275
v 0.049123 0.040803 -0.029771
v 0.051378 0.029751 -0.025503
v 0.051969 0.027138 -0.024827
v 0.051788 0.024905 -0.020354
v 0.051332 0.02153 -0.012563
v 0.052417 0.01565 -0.009643
v 0.05252 0.012384 -0.005183
v 0.052469 0.010478 -0.001956
v 0.050994 0.010968 0.005655
v 0.048851 0.015922 0.010163
v 0.046958 0.019515 0.01535
v 0.045631 0.021421 0.019941
v 0.044805 0.024469 0.019921
v 0.04428 0.029751 0.014753
v 0.052572 0.033313 0.014184
v 0.052701 0.034021 0.012365
v 0.053657 0.034838 0.005679
v 0.053788 0.037178 0.001324
v 0.055299 0.03413 -0.002536
v 0.057503 0.032442 -0.012428
v 0.058934 0.030101 -0.016935
v 0.059485 0.027434 -0.01595
v 0.059073 0.026944 -0.012849
v 0.059527 0.022098 -0.007946
v 0.060071 0.015673 -0.001123
v 0.059597 0.01159 0.007869
v 0.058739 0.01159 0.012732
v 0.057997 0.013333 0.014252
v 0.057019 0.018069 0.012491
v 0.055374 0.022697 0.014677
v 0.053537 0.027434 0.017781
v 0.053027 0.030482 0.015977
v 0.060028 0.032991 0.011372
v 0.060101 0.036748 0.005165
v 0.060658 0.03702 0.001583
v 0.063056 0.032991 -0.005801
v 0.064011 0.030976 -0.008106
v 0.065459 0.025695 -0.008168
v 0.065738 0.024062 -0.007231
v 0.064097 0.028635 -0.004982
v 0.062797 0.030268 -0.000134
v 0.061771 0.029343 0.007111
v 0.06148 0.028145 0.010613
v 0.060959 0.028309 0.013313
v 0.060414 0.030051 0.013725
v 0.062657 0.033337 0.008916
v 0.063076 0.036114 0.002263
v 0.064369 0.033881 -0.001634
f 1 2 3
f 4 5 1
f 2 1 5
f 5 4 6
f 6 4 7
f 6 7 8
f 9 8 7
f 9 10 8
f 11 8 10
f 12 11 13
f 13 11 10
f 14 12 15
f 13 15 12
f 15 16 14
f 16 17 14
f 18 19 16
f 17 16 19
f 20 21 18
f 18 21 19
f 22 23 20
f 20 23 21
f 22 24 23
f 25 1 3
f 26 4 25
f 1 25 4
f 4 26 7
f 27 7 26
f 7 27 9
f 27 28 9
f 9 28 10
f 29 10 28
f 13 10 30
f 29 30 10
f 15 13 31
f 30 31 13
f 31 32 15
f 16 15 32
f 33 18 32
f 32 18 16
f 34 20 33
f 18 33 20
f 35 22 34
f 34 22 20
f 35 24 22
f 36 25 3
f 37 26 36
f 25 36 26
f 38 27 37
f 26 37 27
f 38 39 27
f 28 27 39
f 28 39 29
f 40 29 39
f 41 30 40
f 29 40 30
f 42 31 41
f 30 41 31
f 43 32 42
f 42 32 31
f 32 43 33
f 44 33 43
f 33 44 34
f 45 34 44
f 45 46 34
f 35 34 46
f 46 24 35
f 47 36 3
f 37 36 48
f 47 48 36
f 48 49 37
f 38 37 49
f 38 49 39
f 50 39 49
f 40 39 51
f 50 51 39
f 51 52 40
f 41 40 52
f 42 41 53
f 52 53 41
f 43 42 54
f 53 54 42
f 44 43 55
f 54 55 43
f 44 55 45
f 45 55 56
f 45 56 46
f 57 46 56
f 57 24 46
f 58 47 3
f 48 47 59
f 58 59 47
f 59 60 48
f 49 48 60
f 60 61 49
f 50 49 61
f 51 50 62
f 61 62 50
f 62 63 51
f 52 51 63
f 53 52 64
f 63 64 52
f 54 53 65
f 64 65 53
f 65 66 54
f 55 54 66
f 56 55 67
f 66 67 55
f 67 68 56
f 57 56 68
f 68 24 57
f 69 58 3
f 70 59 69
f 58 69 59
f 59 70 60
f 71 60 70
f 60 71 61
f 72 61 71
f 73 62 72
f 61 72 62
f 62 73 63
f 74 63 73
f 75 64 74
f 63 74 64
f 64 75 65
f 76 65 75
f 77 66 76
f 65 76 66
f 66 77 67
f 78 67 77
f 68 67 79
f 78 79 67
f 79 24 68
f 80 69 3
f 81 70 80
f 69 80 70
f 70 81 71
f 82 71 81
f 83 72 82
f 71 82 72
f 72 83 73
f 84 73 83
f 73 84 74
f 85 74 84
f 86 75 85
f 74 85 75
f 87 76 86
f 75 86 76
f 88 77 87
f 76 87 77
f 78 77 89
f 88 89 77
f 79 78 90
f 89 90 78
f 90 24 79
f 91 80 3
f 81 80 92
f 91 92 80
f 82 81 93
f 92 93 81
f 93 94 82
f 83 82 94
f 94 95 83
f 84 83 95
f 85 84 96
f 95 96 84
f 86 85 97
f 96 97 85
f 87 86 98
f 97 98 86
f 88 87 99
f 99 87 98
f 99 100 88
f 89 88 100
f 89 100 90
f 101 90 100
f 101 24 90
f 102 91 3
f 92 91 103
f 102 103 91
f 103 104 92
f 93 92 104
f 104 105 93
f 94 93 105
f 105 106 94
f 95 94 106
f 96 95 107
f 106 107 95
f 108 97 107
f 96 107 97
f 97 108 98
f 109 98 108
f 99 98 110
f 109 110 98
f 100 99 111
f 111 99 110
f 100 111 101
f 112 101 111
f 112 24 101
f 2 102 3
f 103 102 5
f 2 5 102
f 5 6 103
f 104 103 6
f 6 8 104
f 104 8 105
f 8 11 105
f 106 105 11
f 107 106 12
f 11 12 106
f 14 108 12
f 107 12 108
f 108 14 109
f 17 109 14
f 110 109 19
f 19 109 17
f 21 111 19
f 111 110 19
f 21 23 111
f 112 111 23
f 23 24 112
f 113 114 115
f 116 114 117
f 113 117 114
f 118 116 119
f 117 119 116
f 119 120 118
f 120 121 118
f 120 122 121
f 123 121 122
f 124 123 125
f 122 125 123
f 125 126 124
f 127 124 126
f 128 127 129
f 126 129 127
f 130 128 131
f 129 131 128
f 132 130 133
f 131 133 130
f 132 133 134
f 135 134 133
f 135 136 134
f 137 113 115
f 117 113 138
f 137 138 113
f 119 117 139
f 138 139 117
f 139 140 119
f 120 119 140
f 140 141 120
f 122 120 141
f 125 122 142
f 141 142 122
f 142 143 125
f 126 125 143
f 129 126 144
f 143 144 126
f 144 145 129
f 131 129 145
f 133 131 146
f 145 146 131
f 147 135 146
f 133 146 135
f 147 136 135
f 148 137 115
f 149 138 148
f 137 148 138
f 138 149 139
f 150 139 149
f 151 140 150
f 139 150 140
f 140 151 141
f 152 141 151
f 153 142 152
f 141 152 142
f 142 153 143
f 154 143 153
f 155 144 154
f 143 154 144
f 156 145 155
f 144 155 145
f 145 156 146
f 146 156 157
f 158 147 157
f 146 157 147
f 158 136 147
f 159 148 115
f 149 148 160
f 159 160 148
f 149 160 150
f 150 160 161
f 151 150 162
f 161 162 150
f 151 162 152
f 163 152 162
f 164 153 163
f 152 163 153
f 153 164 154
f 165 154 164
f 166 155 165
f 154 165 155
f 156 155 167
f 166 167 155
f 157 156 168
f 167 168 156
f 168 169 157
f 158 157 169
f 169 136 158
f 170 159 115
f 160 159 171
f 170 171 159
f 160 171 161
f 172 161 171
f 162 161 173
f 172 173 161
f 162 173 163
f 174 163 173
f 163 174 164
f 175 164 174
f 164 175 165
f 176 165 175
f 177 166 176
f 165 176 166
f 167 166 178
f 177 178 166
f 168 167 179
f 178 179 167
f 179 180 168
f 168 180 169
f 180 136 169
f 181 170 115
f 170 181 171
f 182 171 181
f 183 172 182
f 171 182 172
f 172 183 173
f 184 173 183
f 173 184 174
f 185 174 184
f 174 185 175
f 175 185 186
f 187 176 186
f 175 186 176
f 188 177 187
f 177 176 187
f 189 178 188
f 177 188 178
f 190 179 189
f 178 189 179
f 179 190 180
f 191 180 190
f 191 136 180
f 192 181 115
f 193 182 192
f 181 192 182
f 194 183 193
f 193 183 182
f 195 184 194
f 183 194 184
f 184 195 185
f 196 185 195
f 185 196 186
f 197 186 196
f 198 187 197
f 186 197 187
f 199 188 198
f 198 188 187
f 200 189 199
f 199 189 188
f 201 190 200
f 189 200 190
f 191 190 202
f 202 190 201
f 202 136 191
f 203 192 115
f 193 192 204
f 203 204 192
f 204 205 193
f 194 193 205
f 205 206 194
f 195 194 206
f 206 207 195
f 196 195 207
f 207 208 196
f 197 196 208
f 198 197 209
f 208 209 197
f 199 198 210
f 209 210 198
f 200 199 211
f 210 211 199
f 211 212 200
f 201 200 212
f 212 213 201
f 202 201 213
f 213 136 202
f 214 203 115
f 215 204 214
f 214 204 203
f 204 215 205
f 216 205 215
f 217 206 216
f 205 216 206
f 206 217 207
f 218 207 217
f 207 218 208
f 219 208 218
f 220 209 219
f 208 219 209
f 221 210 220
f 220 210 209
f 210 221 211
f 222 211 221
f 211 222 212
f 223 212 222
f 224 213 223
f 212 223 213
f 224 136 213
f 114 214 115
f 116 215 114
f 214 114 215
f 215 116 216
f 118 216 116
f 216 118 217
f 217 118 121
f 217 121 218
f 218 121 123
f 124 219 123
f 218 123 219
f 219 124 220
f 127 220 124
f 220 127 221
f 127 128 221
f 221 128 222
f 130 222 128
f 132 223 130
f 222 130 223
f 132 134 223
f 224 223 134
f 134 136 224
f 225 226 227
f 228 229 225
f 229 226 225
f 228 230 229
f 231 229 230
f 232 231 233
f 230 233 231
f 233 234 232
f 235 232 234
f 235 234 236
f 237 236 234
f 238 239 237
f 236 237 239
f 240 239 241
f 238 241 239
f 241 242 240
f 243 240 242
f 244 243 245
f 242 245 243
f 245 246 244
f 247 244 246
f 246 248 247
f 249 225 227
f 228 225 250
f 249 250 225
f 230 228 251
f 250 251 228
f 233 230 252
f 230 251 252
f 252 253 233
f 234 233 253
f 234 253 237
f 254 237 253
f 255 238 254
f 237 254 238
f 241 238 256
f 255 256 238
f 242 241 257
f 256 257 241
f 245 242 258
f 257 258 242
f 258 259 245
f 246 245 259
f 259 248 246
f 260 249 227
f 261 250 260
f 249 260 250
f 250 261 251
f 262 251 261
f 263 252 262
f 251 262 252
f 252 263 253
f 263 264 253
f 265 254 264
f 253 264 254
f 254 265 255
f 266 255 265
f 267 256 266
f 255 266 256
f 268 257 267
f 256 267 257
f 257 268 258
f 269 258 268
f 258 269 259
f 270 259 269
f 270 248 259
f 271 260 227
f 261 260 272
f 271 272 260
f 273 262 272
f 261 272 262
f 274 263 273
f 262 273 263
f 263 274 264
f 275 264 274
f 275 276 264
f 265 264 276
f 276 277 265
f 266 265 277
f 278 267 277
f 266 277 267
f 268 267 279
f 278 279 267
f 279 280 268
f 280 269 268
f 280 281 269
f 270 269 281
f 281 248 270
f 282 271 227
f 272 271 283
f 282 283 271
f 284 273 283
f 272 283 273
f 285 274 284
f 273 284 274
f 274 285 275
f 286 275 285
f 286 287 275
f 276 275 287
f 277 276 288
f 287 288 276
f 289 278 288
f 288 278 277
f 279 278 290
f 278 289 290
f 290 291 279
f 279 291 280
f 291 292 280
f 281 280 292
f 292 248 281
f 293 282 227
f 282 293 283
f 294 283 293
f 295 284 294
f 283 294 284
f 284 295 285
f 296 285 295
f 285 296 286
f 286 296 297
f 286 297 287
f 298 287 297
f 299 288 298
f 287 298 288
f 300 289 299
f 288 299 289
f 301 290 300
f 300 290 289
f 302 291 301
f 290 301 291
f 291 302 292
f 303 292 302
f 303 248 292
f 304 293 227
f 293 304 294
f 305 294 304
f 306 295 305
f 294 305 295
f 307 296 306
f 295 306 296
f 296 307 297
f 308 297 307
f 297 308 298
f 309 298 308
f 310 299 309
f 298 309 299
f 311 300 310
f 299 310 300
f 312 301 311
f 301 300 311
f 313 302 312
f 301 312 302
f 313 314 302
f 314 303 302
f 314 248 303
f 315 304 227
f 305 304 316
f 315 316 304
f 316 317 305
f 306 305 317
f 317 318 306
f 307 306 318
f 318 319 307
f 308 307 319
f 309 308 320
f 319 320 308
f 310 309 321
f 320 321 309
f 311 310 322
f 321 322 310
f 312 311 323
f 322 323 311
f 323 324 312
f 313 312 324
f 313 324 314
f 325 314 324
f 325 248 314
f 326 315 227
f 326 327 315
f 315 327 316
f 317 316 328
f 327 328 316
f 318 317 329
f 329 317 328
f 329 330 318
f 319 318 330
f 330 331 319
f 320 319 331
f 321 320 332
f 331 332 320
f 322 321 333
f 333 321 332
f 334 323 333
f 322 333 323
f 323 334 324
f 335 324 334
f 324 335 325
f 325 335 336
f 336 248 325
f 226 326 227
f 226 229 326
f 327 326 229
f 328 327 231
f 229 231 327
f 231 232 328
f 329 328 232
f 232 235 329
f 329 235 330
f 235 236 330
f 331 330 236
f 332 331 239
f 236 239 331
f 333 332 240
f 239 240 332
f 243 334 240
f 333 240 334
f 334 243 335
f 244 335 243
f 335 244 336
f 244 247 336
f 247 248 336
f 337 338 339
f 340 338 341
f 337 341 338
f 341 342 340
f 340 342 343
f 342 344 343
f 345 343 344
f 344 346 345
f 347 345 346
f 348 349 346
f 349 347 346
f 350 351 348
f 349 348 351
f 351 350 352
f 353 352 350
f 352 353 354
f 353 355 354
f 354 355 356
f 357 356 355
f 357 358 356
f 359 356 358
f 358 360 359
f 361 337 339
f 341 337 362
f 361 362 337
f 362 363 341
f 342 341 363
f 364 344 363
f 342 363 344
f 364 365 344
f 346 344 365
f 366 348 365
f 346 365 348
f 367 350 366
f 348 366 350
f 350 367 353
f 368 353 367
f 353 368 355
f 369 355 368
f 355 369 357
f 370 357 369
f 370 371 357
f 358 357 371
f 371 360 358
f 372 361 339
f 373 362 372
f 361 372 362
f 362 373 363
f 374 363 373
f 375 364 374
f 363 374 364
f 364 375 365
f 376 365 375
f 366 365 377
f 377 365 376
f 367 366 378
f 377 378 366
f 367 378 368
f 379 368 378
f 369 368 380
f 379 380 368
f 380 381 369
f 370 369 381
f 381 382 370
f 371 370 382
f 382 360 371
f 383 372 339
f 384 373 383
f 383 373 372
f 373 384 374
f 385 374 384
f 375 374 386
f 385 386 374
f 375 386 376
f 386 387 376
f 377 376 388
f 387 388 376
f 378 377 389
f 389 377 388
f 389 390 378
f 379 378 390
f 390 391 379
f 380 379 391
f 391 392 380
f 381 380 392
f 392 393 381
f 382 381 393
f 393 360 382
f 394 383 339
f 395 384 394
f 383 394 384
f 384 395 385
f 396 385 395
f 385 396 386
f 397 386 396
f 386 397 387
f 398 387 397
f 388 387 399
f 399 387 398
f 389 388 400
f 399 400 388
f 400 401 389
f 389 401 390
f 401 402 390
f 391 390 402
f 392 391 403
f 402 403 391
f 403 404 392
f 393 392 404
f 404 360 393
f 405 394 339
f 395 394 406
f 405 406 394
f 406 407 395
f 396 395 407
f 407 408 396
f 397 396 408
f 408 409 397
f 409 398 397
f 399 398 410
f 409 410 398
f 411 400 410
f 399 410 400
f 412 401 411
f 400 411 401
f 402 401 413
f 412 413 401
f 403 402 414
f 413 414 402
f 404 403 415
f 414 415 403
f 415 360 404
f 416 405 339
f 406 405 417
f 417 405 416
f 417 418 406
f 407 406 418
f 418 419 407
f 408 407 419
f 419 420 408
f 409 408 420
f 410 409 421
f 420 421 409
f 422 411 421
f 410 421 411
f 423 412 422
f 411 422 412
f 424 413 423
f 423 413 412
f 414 413 425
f 424 425 413
f 415 414 426
f 425 426 414
f 426 360 415
f 427 416 339
f 428 417 427
f 416 427 417
f 429 418 428
f 417 428 418
f 429 430 418
f 418 430 419
f 430 431 419
f 420 419 431
f 421 420 432
f 431 432 420
f 422 421 433
f 432 433 421
f 423 422 434
f 422 433 434
f 424 423 435
f 434 435 423
f 436 425 435
f 424 435 425
f 436 437 425
f 426 425 437
f 437 360 426
f 438 427 339
f 439 428 438
f 427 438 428
f 428 439 429
f 440 429 439
f 429 440 430
f 430 440 441
f 441 442 430
f 431 430 442
f 443 432 442
f 431 442 432
f 444 433 443
f 432 443 433
f 445 434 444
f 444 434 433
f 434 445 435
f 446 435 445
f 447 436 446
f 435 446 436
f 448 437 447
f 436 447 437
f 448 360 437
f 338 438 339
f 340 439 338
f 439 438 338
f 343 440 340
f 439 340 440
f 440 343 441
f 345 441 343
f 345 347 441
f 442 441 347
f 349 443 347
f 442 347 443
f 351 444 349
f 443 349 444
f 352 445 351
f 444 351 445
f 445 352 446
f 354 446 352
f 446 354 447
f 356 447 354
f 359 448 356
f 447 356 448
f 359 360 448
f 449 450 451
f 449 452 450
f 453 450 452
f 452 454 453
f 455 453 454
f 454 456 455
f 457 455 456
f 458 459 456
f 459 457 456
f 459 458 460
f 461 460 458
f 460 461 462
f 463 462 461
f 464 462 465
f 462 463 465
f 465 466 464
f 466 467 464
f 468 467 469
f 469 467 466
f 468 469 470
f 471 470 469
f 471 472 470
f 473 449 451
f 473 474 449
f 452 449 474
f 474 475 452
f 454 452 475
f 476 456 475
f 454 475 456
f 456 476 458
f 477 458 476
f 458 477 461
f 478 461 477
f 461 478 463
f 479 463 478
f 479 480 463
f 465 463 480
f 466 465 481
f 480 481 465
f 481 482 466
f 469 466 482
f 482 483 469
f 471 469 483
f 483 472 471
f 484 473 451
f 474 473 485
f 484 485 473
f 475 474 486
f 485 486 474
f 476 475 487
f 486 487 475
f 487 488 476
f 477 476 488
f 478 477 489
f 488 489 477
f 489 490 478
f 479 478 490
f 480 479 491
f 490 491 479
f 481 480 492
f 491 492 480
f 482 481 493
f 492 493 481
f 493 494 482
f 483 482 494
f 494 472 483
f 495 484 451
f 496 485 495
f 485 484 495
f 486 485 497
f 496 497 485
f 497 498 486
f 487 486 498
f 498 499 487
f 488 487 499
f 499 500 488
f 489 488 500
f 500 501 489
f 489 501 490
f 491 490 502
f 501 502 490
f 492 491 503
f 502 503 491
f 493 492 504
f 503 504 492
f 504 505 493
f 505 494 493
f 505 472 494
f 506 495 451
f 507 496 506
f 496 495 506
f 497 496 508
f 507 508 496
f 498 497 509
f 508 509 497
f 509 510 498
f 499 498 510
f 510 511 499
f 500 499 511
f 511 512 500
f 501 500 512
f 502 501 513
f 512 513 501
f 503 502 514
f 513 514 502
f 504 503 515
f 514 515 503
f 515 516 504
f 505 504 516
f 516 472 505
f 517 506 451
f 506 517 507
f 518 507 517
f 519 508 518
f 518 508 507
f 520 509 519
f 508 519 509
f 509 520 510
f 521 510 520
f 510 521 511
f 522 511 521
f 511 522 512
f 523 512 522
f 512 523 513
f 513 523 524
f 525 514 524
f 513 524 514
f 526 515 525
f 514 525 515
f 515 526 516
f 527 516 526
f 527 472 516
f 528 517 451
f 529 518 528
f 517 528 518
f 518 529 519
f 530 519 529
f 531 520 530
f 519 530 520
f 532 521 531
f 531 521 520
f 521 532 522
f 533 522 532
f 522 533 523
f 534 523 533
f 523 534 524
f 535 524 534
f 524 535 525
f 536 525 535
f 537 526 536
f 525 536 526
f 537 538 526
f 527 526 538
f 538 472 527
f 539 528 451
f 540 529 539
f 528 539 529
f 541 530 540
f 529 540 530
f 530 541 531
f 531 541 542
f 542 543 531
f 532 531 543
f 532 543 533
f 544 533 543
f 545 534 544
f 533 544 534
f 546 535 545
f 534 545 535
f 547 536 546
f 536 535 546
f 536 547 537
f 548 537 547
f 548 549 537
f 538 537 549
f 549 472 538
f 550 539 451
f 540 539 551
f 550 551 539
f 541 540 552
f 551 552 540
f 542 541 553
f 552 553 541
f 543 542 554
f 554 542 553
f 554 555 543
f 543 555 544
f 545 544 556
f 555 556 544
f 546 545 557
f 556 557 545
f 558 547 557
f 546 557 547
f 547 558 548
f 559 548 558
f 559 560 548
f 549 548 560
f 560 472 549
f 450 550 451
f 551 550 453
f 450 453 550
f 552 551 455
f 453 455 551
f 553 552 457
f 455 457 552
f 457 459 553
f 554 553 459
f 459 460 554
f 555 554 460
f 556 555 462
f 460 462 555
f 557 556 464
f 464 556 462
f 557 464 558
f 467 558 464
f 468 559 467
f 558 467 559
f 468 470 559
f 560 559 470
f 470 472 560
f 561 562 563
f 562 564 563
f 564 565 563
f 565 566 563
f 566 567 563
f 567 561 563
f 568 569 561
f 569 562 561
f 569 570 562
f 570 564 562
f 570 571 564
f 571 565 564
f 571 572 565
f 572 573 565
f 573 566 565
f 573 574 566
f 574 567 566
f 574 568 567
f 568 561 567
f 575 576 568
f 576 569 568
f 576 577 569
f 577 578 569
f 578 570 569
f 578 579 570
f 579 580 570
f 580 581 570
f 581 571 570
f 581 582 571
f 582 572 571
f 582 583 572
f 583 573 572
f 583 584 573
f 584 585 573
f 585 574 573
f 585 575 574
f 575 568 574
f 586 587 575
f 587 576 575
f 587 577 576
f 587 588 577
f 588 578 577
f 588 589 578
f 589 579 578
f 589 580 579
f 589 590 580
f 590 581 580
f 590 591 581
f 591 582 581
f 591 592 582
f 592 583 582
f 592 593 583
f 593 594 583
f 594 584 583
f 594 595 584
f 595 596 584
f 596 597 584
f 597 585 584
f 597 586 585
f 586 575 585
f 598 587 586
f 598 599 587
f 599 588 587
f 599 600 588
f 600 589 588
f 600 601 589
f 601 590 589
f 601 602 590
f 602 591 590
f 602 603 591
f 603 592 591
f 603 604 592
f 604 593 592
f 604 605 593
f 605 594 593
f 605 606 594
f 606 595 594
f 606 607 595
f 607 608 595
f 608 609 595
f 609 596 595
f 609 610 596
f 610 597 596
f 610 611 597
f 611 586 597
f 611 598 586
f 612 599 598
f 612 613 599
f 613 600 599
f 613 614 600
f 614 601 600
f 614 602 601
f 614 615 602
f 615 603 602
f 615 616 603
f 616 604 603
f 616 605 604
f 616 606 605
f 616 617 606
f 617 607 606
f 617 608 607
f 617 609 608
f 617 618 609
f 618 610 609
f 618 611 610
f 618 619 611
f 619 598 611
f 619 612 598
f 620 613 612
f 620 614 613
f 620 615 614
f 620 616 615
f 620 617 616
f 620 618 617
f 620 619 618
f 620 612 619
f 621 622 623
f 621 624 622
f 621 625 624
f 621 626 625
f 621 627 626
f 621 628 627
f 621 629 628
f 621 630 629
f 621 631 630
f 621 623 631
f 623 632 633
f 623 622 632
f 622 634 632
f 622 624 634
f 624 635 634
f 624 625 635
f 625 636 635
f 625 626 636
f 626 627 636
f 627 637 636
f 627 628 637
f 628 638 637
f 628 639 638
f 628 629 639
f 629 640 639
f 629 630 640
f 630 641 640
f 630 642 641
f 630 631 642
f 631 633 642
f 631 623 633
f 633 632 643
f 632 644 643
f 632 634 644
f 634 645 644
f 634 635 645
f 635 646 645
f 635 636 646
f 636 647 646
f 636 648 647
f 636 637 648
f 637 649 648
f 637 638 649
f 638 650 649
f 638 639 650
f 639 651 650
f 639 640 651
f 640 652 651
f 640 641 652
f 641 653 652
f 641 642 653
f 642 643 653
f 642 633 643
f 643 654 655
f 643 644 654
f 644 656 654
f 644 645 656
f 645 657 656
f 645 646 657
f 646 647 657
f 647 658 657
f 647 648 658
f 648 659 658
f 648 649 659
f 649 650 659
f 650 660 659
f 650 651 660
f 651 652 660
f 652 661 660
f 652 653 661
f 653 655 661
f 653 643 655
f 655 654 662
f 654 656 662
f 656 657 662
f 657 658 662
f 658 659 662
f 659 660 662
f 660 661 662
f 661 655 662
f 663 664 665
f 663 666 664
f 663 667 666
f 663 668 667
f 663 669 668
f 663 670 669
f 663 671 670
f 663 672 671
f 663 673 672
f 663 674 673
f 663 675 674
f 663 665 675
f 665 664 676
f 664 677 676
f 664 666 677
f 666 678 677
f 666 679 678
f 666 667 679
f 667 680 679
f 667 668 680
f 668 681 680
f 668 669 681
f 669 682 681
f 669 683 682
f 669 670 683
f 670 684 683
f 670 671 684
f 671 685 684
f 671 672 685
f 672 686 685
f 672 673 686
f 673 687 686
f 673 674 687
f 674 688 687
f 674 675 688
f 675 665 688
f 665 676 688
f 676 689 690
f 676 677 689
f 677 691 689
f 677 678 691
f 678 692 691
f 678 679 692
f 679 680 692
f 680 693 692
f 680 681 693
f 681 694 693
f 681 682 694
f 682 695 694
f 682 683 695
f 683 696 695
f 683 684 696
f 684 697 696
f 684 685 697
f 685 698 697
f 685 686 698
f 686 687 698
f 687 699 698
f 687 688 699
f 688 690 699
f 688 676 690
f 690 689 700
f 689 701 700
f 689 691 701
f 691 692 701
f 692 702 701
f 692 693 702
f 693 703 702
f 693 694 703
f 694 695 703
f 695 704 703
f 695 696 704
f 696 705 704
f 696 697 705
f 697 706 705
f 697 698 706
f 698 699 706
f 699 707 706
f 699 700 707
f 699 690 700
f 700 701 708
f 701 702 708
f 702 703 708
f 703 704 708
f 704 705 708
f 705 706 708
f 706 707 708
f 707 700 708
f 709 710 711
f 709 712 710
f 709 713 712
f 713 714 712
f 713 715 714
f 713 716 715
f 713 709 716
f 709 711 716
f 711 710 717
f 710 718 717
f 710 712 718
f 712 719 718
f 712 720 719
f 712 721 720
f 712 714 721
f 714 722 721
f 714 723 722
f 714 724 723
f 714 715 724
f 715 725 724
f 715 726 725
f 715 716 726
f 716 727 726
f 716 711 727
f 711 728 727
f 711 717 728
f 717 729 730
f 717 731 729
f 717 718 731
f 718 732 731
f 718 719 732
f 719 733 732
f 719 720 733
f 720 734 733
f 720 721 734
f 721 722 734
f 722 735 734
f 722 723 735
f 723 724 735
f 724 736 735
f 724 725 736
f 725 737 736
f 725 738 737
f 725 726 738
f 726 739 738
f 726 727 739
f 727 740 739
f 727 741 740
f 727 728 741
f 728 730 741
f 728 717 730
f 730 729 742
f 729 743 742
f 729 731 743
f 731 744 743
f 731 732 744
f 732 745 744
f 732 733 745
f 733 746 745
f 733 734 746
f 734 747 746
f 734 735 747
f 735 748 747
f 735 749 748
f 735 736 749
f 736 750 749
f 736 737 750
f 737 751 750
f 737 738 751
f 738 752 751
f 738 739 752
f 739 753 752
f 739 740 753
f 740 754 753
f 740 741 754
f 741 755 754
f 741 730 755
f 730 742 755
f 742 756 757
f 742 743 756
f 743 744 756
f 744 758 756
f 744 745 758
f 745 759 758
f 745 746 759
f 746 760 759
f 746 747 760
f 747 761 760
f 747 748 761
f 748 762 761
f 748 749 762
f 749 763 762
f 749 750 763
f 750 751 763
f 751 764 763
f 751 752 764
f 752 765 764
f 752 753 765
f 753 766 765
f 753 754 766
f 754 767 766
f 754 755 767
f 755 768 767
f 755 757 768
f 755 742 757
f 757 756 769
f 756 758 769
f 758 759 769
f 759 760 769
f 760 761 769
f 761 762 769
f 762 763 769
f 763 764 769
f 764 765 769
f 765 766 769
f 766 767 769
f 767 768 769
f 768 757 769
f 770 771 772
f 770 773 771
f 770 774 773
f 770 775 774
f 770 776 775
f 770 777 776
f 770 778 777
f 770 772 778
f 772 779 780
f 772 771 779
f 771 781 779
f 771 782 781
f 771 773 782
f 773 783 782
f 773 784 783
f 773 785 784
f 773 774 785
f 774 786 785
f 774 775 786
f 775 787 786
f 775 776 787
f 776 788 787
f 776 777 788
f 777 789 788
f 777 778 789
f 778 790 789
f 778 772 790
f 772 780 790
f 780 791 792
f 780 779 791
f 779 793 791
f 779 781 793
f 781 794 793
f 781 795 794
f 781 782 795
f 782 783 795
f 783 796 795
f 783 797 796
f 783 784 797
f 784 785 797
f 785 798 797
f 785 786 798
f 786 799 798
f 786 800 799
f 786 787 800
f 787 801 800
f 787 788 801
f 788 802 801
f 788 789 802
f 789 803 802
f 789 790 803
f 790 804 803
f 790 792 804
f 790 780 792
f 792 791 805
f 791 806 805
f 791 793 806
f 793 807 806
f 793 794 807
f 794 808 807
f 794 795 808
f 795 809 808
f 795 796 809
f 796 797 809
f 797 810 809
f 797 798 810
f 798 811 810
f 798 799 811
f 799 812 811
f 799 800 812
f 800 801 812
f 801 813 812
f 801 802 813
f 802 814 813
f 802 803 814
f 803 815 814
f 803 804 815
f 804 805 815
f 804 792 805
f 805 816 817
f 805 806 816
f 806 818 816
f 806 807 818
f 807 808 818
f 808 819 818
f 808 809 819
f 809 820 819
f 809 810 820
f 810 821 820
f 810 822 821
f 810 811 822
f 811 812 822
f 812 823 822
f 812 813 823
f 813 814 823
f 814 824 823
f 814 815 824
f 815 825 824
f 815 817 825
f 815 805 817
f 817 816 826
f 816 827 826
f 816 818 827
f 818 828 827
f 818 819 828
f 819 820 828
f 820 829 828
f 820 821 829
f 821 822 829
f 822 830 829
f 822 823 830
f 823 824 830
f 824 825 830
f 825 831 830
f 825 817 831
f 817 826 831
f 826 827 832
f 827 828 832
f 828 829 832
f 829 830 832
f 830 831 832
f 831 826 832
f 833 834 835
f 834 836 835
f 836 837 835
f 837 838 835
f 838 839 835
f 839 840 835
f 840 833 835
f 841 842 833
f 842 834 833
f 842 843 834
f 843 844 834
f 844 836 834
f 844 845 836
f 845 846 836
f 846 837 836
f 846 847 837
f 847 848 837
f 848 838 837
f 848 849 838
f 849 850 838
f 850 839 838
f 850 851 839
f 851 852 839
f 852 840 839
f 852 853 840
f 853 833 840
f 853 841 833
f 854 842 841
f 854 855 842
f 855 856 842
f 856 843 842
f 856 857 843
f 857 858 843
f 858 844 843
f 858 859 844
f 859 845 844
f 859 860 845
f 860 861 845
f 861 846 845
f 861 862 846
f 862 847 846
f 862 863 847
f 863 848 847
f 863 864 848
f 864 849 848
f 864 865 849
f 865 866 849
f 866 850 849
f 866 867 850
f 867 868 850
f 868 851 850
f 868 869 851
f 869 870 851
f 870 852 851
f 870 871 852
f 871 872 852
f 872 853 852
f 872 854 853
f 854 841 853
f 873 855 854
f 873 874 855
f 874 856 855
f 874 857 856
f 874 875 857
f 875 858 857
f 875 876 858
f 876 859 858
f 876 860 859
f 876 877 860
f 877 861 860
f 877 878 861
f 878 862 861
f 878 879 862
f 879 880 862
f 880 863 862
f 880 881 863
f 881 864 863
f 881 882 864
f 882 865 864
f 882 866 865
f 882 883 866
f 883 867 866
f 883 868 867
f 883 884 868
f 884 885 868
f 885 886 868
f 886 869 868
f 886 887 869
f 887 870 869
f 887 888 870
f 888 871 870
f 888 872 871
f 888 889 872
f 889 854 872
f 889 873 854
f 890 891 873
f 891 874 873
f 891 892 874
f 892 875 874
f 892 893 875
f 893 894 875
f 894 876 875
f 894 895 876
f 895 877 876
f 895 896 877
f 896 878 877
f 896 879 878
f 896 897 879
f 897 898 879
f 898 880 879
f 898 881 880
f 898 899 881
f 899 882 881
f 899 883 882
f 899 900 883
f 900 901 883
f 901 884 883
f 901 902 884
f 902 903 884
f 903 885 884
f 903 886 885
f 903 904 886
f 904 887 886
f 904 905 887
f 905 888 887
f 905 889 888
f 905 906 889
f 906 873 889
f 906 890 873
f 907 891 890
f 907 908 891
f 908 909 891
f 909 892 891
f 909 910 892
f 910 893 892
f 910 911 893
f 911 894 893
f 911 912 894
f 912 895 894
f 912 913 895
f 913 914 895
f 914 896 895
f 914 915 896
f 915 897 896
f 915 916 897
f 916 898 897
f 916 917 898
f 917 899 898
f 917 918 899
f 918 919 899
f 919 900 899
f 919 920 900
f 920 901 900
f 920 921 901
f 921 902 901
f 921 903 902
f 921 904 903
f 921 922 904
f 922 923 904
f 923 905 904
f 923 924 905
f 924 906 905
f 924 890 906
f 924 907 890
f 925 908 907
f 925 926 908
f 926 909 908
f 926 927 909
f 927 910 909
f 927 928 910
f 928 911 910
f 928 929 911
f 929 930 911
f 930 912 911
f 930 931 912
f 931 932 912
f 932 913 912
f 932 933 913
f 933 934 913
f 934 914 913
f 934 915 914
f 934 916 915
f 934 935 916
f 935 917 916
f 935 936 917
f 936 937 917
f 937 918 917
f 937 938 918
f 938 919 918
f 938 939 919
f 939 920 919
f 939 940 920
f 940 921 920
f 940 941 921
f 941 922 921
f 941 942 922
f 942 923 922
f 942 943 923
f 943 924 923
f 943 944 924
f 944 907 924
f 944 925 907
f 945 946 925
f 946 947 925
f 947 948 925
f 948 926 925
f 948 927 926
f 948 949 927
f 949 950 927
f 950 928 927
f 950 951 928
f 951 929 928
f 951 952 929
f 952 953 929
f 953 930 929
f 953 931 930
f 953 954 931
f 954 932 931
f 954 955 932
f 955 956 932
f 956 933 932
f 956 957 933
f 957 934 933
f 957 958 934
f 958 935 934
f 958 936 935
f 958 937 936
f 958 959 937
f 959 960 937
f 960 938 937
f 960 961 938
f 961 939 938
f 961 962 939
f 962 940 939
f 962 963 940
f 963 941 940
f 963 964 941
f 964 965 941
f 965 942 941
f 965 966 942
f 966 943 942
f 966 945 943
f 945 944 943
f 945 925 944
f 967 968 945
f 968 969 945
f 969 946 945
f 969 947 946
f 969 948 947
f 969 970 948
f 970 971 948
f 971 949 948
f 971 950 949
f 971 972 950
f 972 951 950
f 972 952 951
f 972 953 952
f 972 973 953
f 973 954 953
f 973 974 954
f 974 975 954
f 975 955 954
f 975 956 955
f 975 976 956
f 976 957 956
f 976 977 957
f 977 958 957
f 977 959 958
f 977 960 959
f 977 978 960
f 978 961 960
f 978 979 961
f 979 962 961
f 979 980 962
f 980 981 962
f 981 963 962
f 981 982 963
f 982 964 963
f 982 965 964
f 982 966 965
f 982 983 966
f 983 984 966
f 984 945 966
f 984 967 945
f 985 968 967
f 985 986 968
f 986 969 968
f 986 970 969
f 986 987 970
f 987 971 970
f 987 988 971
f 988 972 971
f 988 973 972
f 988 974 973
f 988 989 974
f 989 975 974
f 989 976 975
f 989 990 976
f 990 977 976
f 990 991 977
f 991 992 977
f 992 993 977
f 993 994 977
f 994 978 977
f 994 995 978
f 995 979 978
f 995 980 979
f 995 981 980
f 995 982 981
f 995 996 982
f 996 997 982
f 997 983 982
f 997 985 983
f 985 984 983
f 985 967 984
f 998 999 985
f 999 986 985
f 999 987 986
f 999 988 987
f 999 1000 988
f 1000 989 988
f 1000 990 989
f 1000 991 990
f 1000 992 991
f 1000 993 992
f 1000 994 993
f 1000 998 994
f 998 995 994
f 998 996 995
f 998 997 996
f 998 985 997
# Vertices: 1000, normals: 0, texture coordinates: 0, faces: 1955

