# File generated by ImageToStl.com - Free Image and 3D model conversion tools

o obj1
v 0.01307586 -0.03596003 0.02625957
v 0.01323329 -0.04052993 0.0300264
v 0.01099125 -0.0418066 0.0235072
v 0.01140212 -0.03583145 0.02076024
v 0.01108368 -0.03241624 0.02807173
v 0.01068057 -0.03627352 0.03504449
v 0.00847325 -0.03039699 0.02124798
v 0.00673635 -0.03719407 0.02268302
v 0.00533172 -0.04163017 0.02620392
v 0.00435879 -0.03422279 0.02389624
v 0.00286003 -0.03780432 0.02987336
v 0.00190925 -0.00061452 -0.00062231
v 0.00081146 0.00026908 0.00298915
v 0.0020411 -0.0038357 0.00469647
v 0.00255835 -0.00445012 -0.000601
v -0.00097628 -0.00327853 -0.00468863
v -0.00104599 0.00062182 -0.00334177
v -0.00260806 0.00162008 0.00019534
v -0.00013488 -0.00515852 0.00049121
v -0.00046747 -0.00576301 0.00396139
v -0.00382516 -0.00509005 0.00223196
v -0.00286112 -0.0043789 -0.00154312
v -0.00516382 -0.01840575 0.02990969
v -0.0040323 -0.01936677 0.03722079
v 0.00051493 -0.02383919 0.03410636
v -0.00057005 -0.02289863 0.02823966
v -0.00330348 -0.02767753 0.03136767
v -0.00672766 -0.02577519 0.03181988
v -0.01134642 -0.01210496 0.03600933
v -0.00933562 -0.01310472 0.04192604
v -0.00948103 -0.01973956 0.0281052
v -0.0142663 -0.01402912 0.03108058
v -0.01163325 -0.02704745 0.03165163
v -0.01312865 -0.02886816 0.02516828
v -0.01068452 -0.02032538 0.02319737
v -0.01606259 -0.02838589 0.02009427
v -0.01505636 -0.0205595 0.01869141
v -0.01846996 -0.02928355 0.03436277
v -0.01967716 -0.03184908 0.02943107
v -0.01663011 -0.03699303 0.0242185
v -0.01904608 -0.03550588 0.0213431
v -0.01302928 -0.02958943 0.03900531
v -0.0178797 -0.02861802 0.04003255
v -0.00876694 -0.03066615 0.03813059
v -0.00496172 -0.00512087 0.00556861
v -0.00308772 -0.00489435 0.008108
v -0.00925378 -0.00366491 0.00951826
v -0.00909597 -0.00435301 0.00554597
v -0.00834559 -0.0043707 0.00107365
v -0.02684911 -0.04989932 0.01782732
v -0.02460252 -0.04710305 0.0201067
v -0.02105701 -0.04970538 0.0211042
v -0.02555944 -0.05264879 0.01731907
v -0.03093879 -0.05250154 0.01367373
v -0.03045102 -0.04860253 0.0156595
v -0.02915209 -0.0441612 0.01797255
v -0.02140672 -0.02839663 0.04061792
v -0.01711668 -0.02637645 0.04550147
v -0.02206125 -0.02730587 0.04458806
v -0.02627637 -0.02896207 0.0404163
v -0.02321191 -0.02975482 0.03698504
v -0.00761966 0.00230516 0.00062594
v -0.00536672 0.00199935 0.00339975
v -0.0067003 0.00236963 -0.00212456
v -0.01193201 0.00333447 0.00053558
v -0.01066707 0.00315412 0.00499544
v -0.01205966 0.00367809 -0.00356325
v -0.03393869 -0.05526108 0.01807063
v -0.03299985 -0.05544371 0.01514206
v -0.02675943 -0.05491665 0.01944469
v -0.03009816 -0.05420357 0.02177208
v -0.03447 -0.05301615 0.02295671
v -0.03797555 -0.05359751 0.01779547
v -0.04090735 -0.0511837 0.0121207
v -0.02857411 -0.03296999 0.01789151
v -0.02444761 -0.03430028 0.0197415
v -0.02645174 -0.03950026 0.01944016
v -0.03135861 -0.0355038 0.0163868
v -0.02947272 -0.02885266 0.01630408
v -0.02346259 -0.0283538 0.01850165
v -0.03462578 -0.03021934 0.01319775
v -0.03673778 -0.04808111 0.00993513
v -0.04255099 -0.05300582 0.01906546
v -0.04635159 -0.05109195 0.0147576
v -0.04793075 -0.03973931 0.00904189
v -0.04148918 -0.03994657 0.00693683
v -0.04985835 -0.04473979 0.01463389
v -0.0387723 -0.03992573 0.00979748
v -0.03525377 -0.04472005 0.01240284
v -0.03794949 -0.03464056 0.01059624
v -0.03375237 -0.03991535 0.01445029
v -0.04139532 -0.03112568 0.00752513
v -0.03802982 -0.03985423 0.03197344
v -0.0311247 -0.04186137 0.02898959
v -0.03051229 -0.03604563 0.03172232
v -0.03547547 -0.03389886 0.03493245
v -0.04466813 -0.04208904 0.03375989
v -0.04227269 -0.04826238 0.03089189
v -0.03725168 -0.04739447 0.02838891
v -0.03185903 -0.04830913 0.02679199
v -0.02915574 -0.02627904 0.04459441
v -0.02868554 -0.02166118 0.04736047
v -0.03258296 -0.02264503 0.04681602
v -0.0341544 -0.02482449 0.04503672
v -0.03713008 -0.02730171 0.04204492
v -0.03305635 -0.03009006 0.038731
v -0.02919082 -0.03184066 0.03554009
v -0.02963818 -0.01816353 0.03105916
v -0.02743211 -0.01784553 0.03455072
v -0.02339264 -0.01522635 0.03082049
v -0.02721742 -0.0161208 0.02702055
v -0.03190952 -0.01918884 0.02506803
v -0.03271284 -0.02132905 0.03116308
v -0.03077844 -0.02152321 0.03649282
v -0.04787661 -0.03886567 0.01892519
v -0.04671041 -0.03369794 0.01485354
v -0.04502178 -0.02910385 0.01327819
v -0.04536869 -0.02911665 0.00904007
v -0.04193452 -0.02575178 0.01698413
v -0.04029627 -0.02370017 0.01256253
v -0.0436913 -0.02972656 0.02033557
v -0.03918719 -0.0218215 0.0233731
v -0.02770147 -0.01859118 0.01937563
v -0.03432622 -0.0211975 0.01714006
v -0.03843556 -0.02333828 0.03348902
v -0.04367362 -0.0202712 0.02609316
v -0.04375641 -0.0202926 0.03173425
v -0.04424855 -0.02551692 0.02449141
v -0.04763212 -0.02216425 0.0253721
v -0.03521857 -0.02310057 0.0396677
v -0.04243059 -0.02195922 0.04053856
v -0.0391309 -0.02172998 0.04405961
v -0.04612284 -0.01954953 0.03735346
v -0.03731882 -0.00509852 0.00734333
v -0.03554125 -0.00308353 0.01225148
v -0.04048384 -0.00559641 0.01788539
v -0.04246644 -0.00849832 0.01514171
v -0.02887462 -0.00229296 0.00389041
v -0.02920594 -0.00145219 0.00890456
v -0.03542639 -0.00344598 0.00020494
v -0.02787128 -0.00203921 -0.0012915
v -0.04742118 -0.01073644 0.01506513
v -0.0448419 -0.00895995 0.00867168
v -0.04303316 -0.00662421 0.00231275
v -0.05181914 -0.02762114 0.03387792
v -0.04757036 -0.02817013 0.02807944
v -0.04531387 -0.03345281 0.02472045
v -0.04723149 -0.03630179 0.0295949
v -0.05008611 -0.04142823 0.03265487
v -0.05204323 -0.03269451 0.03755471
v -0.05524641 -0.01836918 0.03474242
v -0.0521147 -0.02269161 0.02850411
v -0.05434977 -0.02420957 0.04379166
v -0.05537308 -0.01847555 0.0423756
v -0.04145766 -0.00390995 -0.00217534
v -0.04961346 -0.00544779 0.00453543
v -0.04581109 -0.00245163 -0.00297231
v -0.03680188 0.00149034 -0.00750927
v -0.03526983 -0.00154716 -0.00451968
v -0.04204025 0.00420611 0.0055667
v -0.03898615 0.00456806 0.01082022
v -0.03245969 0.00585695 0.00646606
v -0.03360184 0.00633762 0.00138388
v -0.03455051 0.00657157 -0.00314482
v -0.04049733 0.00484337 -0.00030808
v -0.04813861 0.0018723 0.01376479
v -0.04441063 0.00321176 0.01709171
v -0.04889827 0.00035895 0.00553699
v -0.05251024 -0.00196727 0.01278144
v -0.03692238 0.00591133 -0.00669525
v -0.04464578 0.00303579 -0.00161816
v -0.04885504 -0.00872773 0.03167714
v -0.04587544 -0.01223646 0.0277067
v -0.0438775 -0.00886439 0.02353015
v -0.04515296 -0.0052846 0.02598917
v -0.04628299 -0.00066926 0.0264428
v -0.05053345 -0.00214438 0.03113466
v -0.0544488 -0.00265078 0.03560909
v -0.05279431 -0.00841637 0.03708055
v -0.04872821 -0.01551307 0.03438116
v -0.04595263 -0.01628047 0.03024329
v -0.05140157 -0.01408637 0.0391776
v -0.05714446 -0.01013092 0.03423985
v -0.05795671 -0.01219191 0.04224339
v -0.06126697 -0.00632245 0.04209223
v -0.05441594 -0.01729832 0.02782125
v -0.06087907 -0.00147029 0.03651576
v -0.05868131 -0.00056726 0.03107566
v -0.05654588 -0.00740067 0.02885391
v -0.05443154 -0.0131363 0.02555281
v -0.05115899 0.01213538 0.08137778
v -0.04958748 0.00936214 0.07913944
v -0.04749852 0.01371165 0.07649375
v -0.05130245 0.01647726 0.08042925
v -0.05386681 0.01053623 0.08451643
v -0.05261076 0.00638173 0.0821986
v -0.05600557 0.01453782 0.08547159
v -0.05347598 0.01272366 0.07991926
v -0.05164531 0.01001065 0.07773661
v -0.05541603 0.00714983 0.08092215
v -0.05649881 0.01103322 0.08323395
v -0.06003482 -0.0008048 0.07940089
v -0.06457009 -0.00586501 0.07533865
v -0.06912763 -0.00480943 0.07862007
v -0.06643197 -0.00277513 0.08328462
v -0.06050136 0.00365681 0.08400694
v -0.05372256 0.00290753 0.07735819
v -0.06545527 0.00139009 0.0874766
v -0.0688749 -0.0063643 0.06119299
v -0.0677597 -0.00843745 0.06361207
v -0.06455252 -0.00979598 0.05896672
v -0.06675147 -0.00628587 0.05715788
v -0.06871177 -0.00259397 0.05711238
v -0.07098743 -0.00399597 0.06239954
v -0.07092315 -0.00614992 0.066952
v -0.07592313 -0.01121192 0.08467136
v -0.07419306 -0.01130137 0.08053382
v -0.07235432 -0.01446138 0.08157077
v -0.07495809 -0.01274552 0.08701912
v -0.07826152 -0.01090683 0.09067926
v -0.0785289 -0.01042895 0.085955
v -0.07765603 -0.01096394 0.08035409
v -0.09698077 -0.08614118 0.07861513
v -0.09619933 -0.08309798 0.07787893
v -0.09692014 -0.08224123 0.08164132
v -0.09779289 -0.08670096 0.08134737
v -0.09701482 -0.08822206 0.07672594
v -0.0957377 -0.08492553 0.07447003
v -0.09817557 -0.09078402 0.07994501
v -0.09433543 -0.06558934 0.07797325
v -0.0930998 -0.06286202 0.07707231
v -0.09266662 -0.06529793 0.07360741
v -0.09441257 -0.06813488 0.07601418
v -0.095919 -0.06988888 0.07908875
v -0.0951947 -0.06585087 0.08063793
v -0.09386785 -0.06161637 0.080878
v -0.10290729 -0.12290864 0.0831193
v -0.10590626 -0.12618653 0.08320358
v -0.10399015 -0.12408818 0.07661916
v -0.1020572 -0.12052303 0.07883871
v -0.10129327 -0.11660972 0.08156858
v -0.102749 -0.11943393 0.0861633
v -0.10660861 -0.12166714 0.08827437
v -0.08077403 -0.01036163 0.09692395
v -0.07565747 -0.00377523 0.09624077
v -0.07495714 -0.00448059 0.09210822
v -0.07926315 -0.00733189 0.09213048
v -0.07898975 -0.00988282 0.10244109
v -0.07446855 -0.00303359 0.10062827
v -0.07816253 -0.01422602 0.09349512
v -0.07936164 -0.01969592 0.09459705
v -0.08255194 -0.01821692 0.09892853
v -0.08218869 -0.01705754 0.10326383
v -0.10717755 -0.12165111 0.08159281
v -0.10578345 -0.11939455 0.07742339
v -0.10825196 -0.11811963 0.08434954
v -0.10685153 -0.11486723 0.07980008
v -0.10760404 -0.10973372 0.08305726
v -0.10538693 -0.10741194 0.07877979
v -0.10451935 -0.11240359 0.07542285
v -0.10340998 -0.11597825 0.07275975
v -0.10887107 -0.11295406 0.08752843
v -0.10862056 -0.10720642 0.09078842
v -0.10734976 -0.10442942 0.086558
v -0.10674796 -0.11571729 0.0913893
v -0.1064734 -0.10959688 0.09413683
v -0.10572685 -0.10320737 0.09667843
v -0.10741666 -0.10113093 0.09372944
v -0.10282058 -0.11476342 0.08929026
v -0.10307647 -0.10912868 0.09199145
v -0.10319519 -0.10288192 0.09398883
v -0.10271221 -0.09637675 0.09570081
v -0.10452261 -0.09663416 0.09877852
v -0.10161037 -0.10710942 0.08765177
v -0.10185686 -0.10144413 0.09007061
v -0.10171066 -0.09505287 0.09206177
v -0.10103488 -0.08896296 0.09352157
v -0.10199574 -0.08984026 0.09705389
v -0.10065296 -0.09913886 0.08580679
v -0.1005365 -0.09374706 0.08794416
v -0.09986277 -0.0881884 0.08940832
v -0.09884192 -0.08265141 0.09001316
v -0.09996562 -0.08314915 0.09425111
v -0.09935456 -0.09223919 0.08381759
v -0.09875339 -0.08731391 0.08524824
v -0.0977331 -0.08228907 0.08573853
v -0.09589235 -0.07717411 0.08129855
v -0.0966149 -0.07665277 0.08573493
v -0.09753168 -0.07696241 0.09027195
v -0.09527633 -0.07106683 0.08558071
v -0.09611524 -0.07100511 0.09041366
v -0.09714777 -0.07135468 0.09493026
v -0.09861884 -0.0772994 0.09461357
v -0.09788861 -0.07215355 0.09882142
v -0.09958802 -0.07745872 0.09828147
v -0.10103783 -0.08329443 0.09783024
v -0.1004667 -0.07785113 0.10151596
v -0.10196961 -0.08370644 0.10117694
v -0.10326466 -0.09002565 0.10043591
v -0.10375657 -0.08202308 0.0999037
v -0.10450522 -0.08870053 0.09827701
v -0.10577149 -0.09497795 0.09618007
v -0.10331632 -0.08767529 0.09487407
v -0.10444883 -0.09351016 0.09268534
v -0.10584703 -0.09938949 0.08989708
v -0.10293132 -0.09197489 0.08877885
v -0.10439045 -0.09682553 0.08574516
v -0.10581677 -0.10163531 0.08220618
v -0.10272092 -0.09472264 0.08149806
v -0.10393424 -0.09893398 0.07809772
v -0.10354195 -0.10444323 0.07472634
v -0.10236134 -0.09534686 0.07402592
v -0.10240603 -0.09953216 0.07077789
v -0.10096899 -0.10466264 0.06763528
v -0.10257535 -0.10804332 0.07139686
v -0.0992104 -0.1079486 0.06487042
v -0.10096566 -0.11193765 0.0686128
v -0.09691855 -0.11058499 0.06311575
v -0.09890811 -0.1154068 0.06667552
v -0.10151602 -0.12004966 0.07137613
v -0.09849429 -0.11278645 0.06948932
v -0.10071073 -0.11687612 0.07383551
v -0.0986305 -0.11050814 0.07248473
v -0.10012256 -0.11379339 0.07669516
v -0.09806459 -0.10695987 0.07620711
v -0.09962104 -0.10956853 0.0802765
v -0.10122275 -0.11207541 0.08475858
v -0.10008573 -0.10479947 0.08332954
v -0.09864128 -0.10184479 0.07928699
v -0.09928887 -0.09715199 0.08172069
v -0.09734878 -0.09864107 0.07548646
v -0.09797701 -0.09476607 0.07782839
v -0.0963542 -0.09394486 0.07189952
v -0.09680212 -0.09092806 0.07430843
v -0.09492449 -0.09004829 0.06865167
v -0.095334 -0.08739927 0.07143211
v -0.09343811 -0.08458605 0.06617962
v -0.09393221 -0.08178023 0.06951433
v -0.09445482 -0.07945349 0.07319447
v -0.09224708 -0.07717881 0.06796979
v -0.09292048 -0.0747313 0.07206191
v -0.09377705 -0.07257372 0.07635088
v -0.09500837 -0.07870138 0.07708642
v -0.09459054 -0.07191105 0.08076558
v -0.09208604 -0.06781193 0.07527074
v -0.09291859 -0.06599598 0.08008064
v -0.09351912 -0.06553488 0.08515692
v -0.09066641 -0.06103529 0.07902426
v -0.09144758 -0.06005235 0.08431081
v -0.09216772 -0.05964501 0.089746
v -0.09428555 -0.06519735 0.09031177
v -0.09301694 -0.05944355 0.09488174
v -0.09525152 -0.06524824 0.09508314
v -0.0937358 -0.06024176 0.09921246
v -0.09607116 -0.06587943 0.09912471
v -0.09457758 -0.05967035 0.10296167
v -0.09667848 -0.06581271 0.10277092
v -0.09864324 -0.07211431 0.10229411
v -0.09845154 -0.06461222 0.10402067
v -0.10057095 -0.07081871 0.10286766
v -0.10229032 -0.07660988 0.10126763
v -0.10016091 -0.07039432 0.09936765
v -0.10156673 -0.07578275 0.09779046
v -0.10263631 -0.081692 0.09637966
v -0.10048397 -0.07533556 0.09424782
v -0.10131912 -0.08108558 0.09270572
v -0.10195709 -0.08663218 0.09107801
v -0.09996463 -0.07993428 0.08862231
v -0.10052291 -0.08520712 0.0867967
v -0.10141888 -0.09005023 0.08445484
v -0.09907132 -0.0834274 0.08245856
v -0.09994724 -0.08785578 0.08003901
v -0.10113309 -0.09163645 0.07722147
v -0.0983175 -0.08572517 0.07567386
v -0.09917983 -0.08929073 0.07295216
v -0.1007699 -0.09213211 0.06986234
v -0.09716158 -0.08686294 0.06872393
v -0.09908358 -0.08829461 0.06569266
v -0.09994644 -0.09143306 0.0627273
v -0.10122259 -0.09528495 0.06682584
v -0.09925174 -0.09436638 0.06005353
v -0.10034699 -0.09860637 0.06390623
v -0.09746855 -0.09662092 0.05806565
v -0.09866954 -0.10106084 0.06136179
v -0.09494641 -0.09808702 0.05829253
v -0.0956568 -0.1053995 0.06035683
v -0.09399095 -0.09711811 0.06088436
v -0.09557228 -0.10152264 0.06340172
v -0.09669359 -0.1083364 0.06606793
v -0.09568518 -0.09943275 0.06639992
v -0.09697385 -0.10549333 0.06922665
v -0.09584546 -0.0972192 0.06929247
v -0.09694507 -0.10237057 0.07262614
v -0.09407528 -0.09508665 0.06349766
v -0.09443676 -0.09280672 0.06606725
v -0.09232423 -0.0905186 0.06064229
v -0.0928685 -0.08763012 0.06323104
v -0.09029116 -0.0861711 0.05808808
v -0.09098879 -0.08314771 0.06083813
v -0.09162535 -0.08012626 0.06417845
v -0.0889139 -0.07757547 0.05891331
v -0.08967005 -0.07475607 0.06252811
v -0.0902951 -0.07270313 0.06649222
v -0.08736318 -0.07069841 0.06069689
v -0.08815235 -0.06769807 0.06495927
v -0.0890334 -0.06499307 0.06938733
v -0.09110049 -0.07024748 0.07078855
v -0.08986698 -0.06304759 0.07399573
v -0.08653734 -0.0603722 0.06779673
v -0.08726081 -0.0577617 0.07276376
v -0.08815077 -0.05555258 0.07797597
v -0.08425037 -0.0527339 0.07177018
v -0.08519997 -0.05035403 0.07715731
v -0.08632932 -0.04861865 0.08268403
v -0.0890364 -0.05494117 0.0833623
v -0.08745191 -0.04832525 0.08824506
v -0.08995674 -0.05396516 0.08896524
v -0.08837217 -0.047773 0.09387493
v -0.09072554 -0.05498327 0.09431301
v -0.08916277 -0.04865012 0.09877034
v -0.09151106 -0.05451524 0.09905146
v -0.08997886 -0.04786093 0.10287797
v -0.09234422 -0.05391616 0.10299189
v -0.09149382 -0.04644807 0.10554127
v -0.09404743 -0.05243387 0.10567304
v -0.09639716 -0.05840645 0.10510658
v -0.09404238 -0.05219135 0.10192072
v -0.09629526 -0.05819836 0.10149811
v -0.09846464 -0.06409665 0.10062093
v -0.09557702 -0.05831907 0.0979004
v -0.09765445 -0.0640979 0.09708827
v -0.09936739 -0.06937336 0.09582364
v -0.09685194 -0.06281273 0.09324905
v -0.09827287 -0.06867345 0.09202036
v -0.09923501 -0.07431135 0.09039728
v -0.09709416 -0.06775112 0.08805984
v -0.0980337 -0.07312359 0.08639953
v -0.09865401 -0.07835312 0.0844707
v -0.09695126 -0.07196256 0.08257773
v -0.09736571 -0.07691534 0.08046801
v -0.09762667 -0.08157481 0.07822489
v -0.09601251 -0.07400905 0.07678256
v -0.09605325 -0.07933106 0.07418311
v -0.09651074 -0.08326319 0.07153378
v -0.09426888 -0.07538915 0.07065556
v -0.09464434 -0.07907116 0.06784792
v -0.09520003 -0.08270577 0.06486099
v -0.09246328 -0.07575897 0.06437837
v -0.09300306 -0.07825708 0.06139074
v -0.09473283 -0.08038641 0.05807426
v -0.09703654 -0.08483288 0.06165593
v -0.09643336 -0.08229771 0.05489906
v -0.0984224 -0.08719688 0.05862441
v -0.09593266 -0.08494519 0.05261409
v -0.09786209 -0.08996044 0.05609891
v -0.09359232 -0.08726367 0.05206147
v -0.09567672 -0.09238867 0.05497044
v -0.0909063 -0.08871538 0.05325402
v -0.09309066 -0.09391529 0.05577457
v -0.08986779 -0.08764271 0.05583171
v -0.09202918 -0.09286048 0.05830006
v -0.08847057 -0.08496553 0.050677
v -0.08734515 -0.0836977 0.0534349
v -0.08808196 -0.08075186 0.05589413
v -0.08455176 -0.07996619 0.05117942
v -0.08553965 -0.07686694 0.05373272
v -0.08653042 -0.07382025 0.05685378
v -0.08273597 -0.07317122 0.05167684
v -0.08373727 -0.0697863 0.05499871
v -0.0846725 -0.066522 0.05892911
v -0.08048244 -0.06583356 0.05328258
v -0.08152897 -0.06238699 0.05728851
v -0.08254878 -0.05900578 0.06170454
v -0.08563898 -0.06328216 0.06322158
v -0.08346752 -0.05534865 0.06660583
v -0.07899851 -0.05437801 0.06060495
v -0.08011807 -0.05106221 0.06552013
v -0.08111553 -0.0481068 0.07076871
v -0.0767989 -0.04672922 0.06425016
v -0.07779786 -0.04364921 0.06960914
v -0.0788677 -0.0408668 0.07522341
v -0.08210424 -0.04560301 0.07627535
v -0.08003893 -0.03868942 0.08110771
v -0.0832366 -0.04364552 0.08193877
v -0.08164843 -0.03731254 0.08703646
v -0.08466368 -0.04260075 0.08763538
v -0.08317442 -0.03644178 0.09280899
v -0.08588321 -0.04191754 0.0933375
v -0.0844428 -0.03755212 0.09783819
v -0.08673524 -0.04311354 0.0983689
v -0.08562732 -0.03641393 0.10214305
v -0.08757991 -0.04220821 0.10264225
v -0.087757 -0.0350403 0.10480145
v -0.08938102 -0.04071312 0.10525171
v -0.08696142 -0.03565964 0.10070167
v -0.08902115 -0.04093454 0.10125699
v -0.09143666 -0.04631319 0.10178234
v -0.08804469 -0.04152291 0.09684154
v -0.09060515 -0.04668621 0.09766955
v -0.09318457 -0.05244129 0.09810653
v -0.08979047 -0.04564073 0.09291903
v -0.09243136 -0.05120605 0.09377569
v -0.09490138 -0.0570034 0.09388653
v -0.09152155 -0.05148362 0.08888203
v -0.09395844 -0.05653556 0.08939795
v -0.09584209 -0.06210644 0.08905908
v -0.09293722 -0.05679607 0.08473188
v -0.09479091 -0.06157901 0.08489324
v -0.09606329 -0.06688235 0.08421785
v -0.09202855 -0.05740795 0.08009646
v -0.09062751 -0.05226555 0.0838083
v -0.08975957 -0.05275076 0.07883496
v -0.0889621 -0.05471924 0.07396677
v -0.0912633 -0.05914954 0.07559059
v -0.08829343 -0.05741919 0.06948347
v -0.09067827 -0.06119844 0.07155756
v -0.08773444 -0.06070448 0.06552807
v -0.09016072 -0.06449816 0.06792208
v -0.09228064 -0.06864481 0.07040772
v -0.08984852 -0.06810006 0.06462058
v -0.0921123 -0.07213021 0.067439
v -0.09426372 -0.0715446 0.07336901
v -0.09003358 -0.07174042 0.06136224
v -0.08732705 -0.06448443 0.06197072
v -0.08734949 -0.06826726 0.05850129
v -0.08778477 -0.07179862 0.05496152
v -0.09051623 -0.07491472 0.05805743
v -0.08940883 -0.07383274 0.05122818
v -0.09224479 -0.07684311 0.05457789
v -0.09115373 -0.07569292 0.0477718
v -0.09399247 -0.07860558 0.0513148
v -0.09129691 -0.07829142 0.04544978
v -0.09377553 -0.08139149 0.04906621
v -0.08873912 -0.08045616 0.04604178
v -0.09123504 -0.08368891 0.04915648
v -0.0857821 -0.08157478 0.04802612
v -0.08576933 -0.07766145 0.04294842
v -0.08288413 -0.07867254 0.0454676
v -0.08159374 -0.07712962 0.04893912
v -0.07963687 -0.07546659 0.04333016
v -0.07833931 -0.07376212 0.04704119
v -0.07944094 -0.06950413 0.049861
v -0.07469521 -0.07059045 0.04523183
v -0.07578429 -0.06597846 0.04809549
v -0.07694054 -0.06209151 0.05162173
v -0.07191256 -0.06247649 0.04640434
v -0.07315562 -0.05817614 0.0501412
v -0.07431392 -0.0541473 0.05457947
v -0.07789059 -0.05795895 0.05601171
v -0.07563531 -0.05020844 0.05925605
v -0.07103521 -0.05064731 0.05272686
v -0.07234541 -0.04613282 0.05762383
v -0.07332727 -0.04179795 0.06294811
v -0.06890354 -0.04195816 0.05584026
v -0.0700279 -0.03752493 0.06127963
v -0.07127231 -0.03405694 0.06682292
v -0.07455946 -0.03894258 0.06819084
v -0.07242731 -0.0311391 0.07296038
v -0.07554921 -0.03614146 0.07405971
v -0.07401566 -0.02881386 0.07938749
v -0.07681074 -0.03373959 0.08027214
v -0.0757679 -0.02705118 0.08575272
v -0.07855805 -0.03230156 0.08642717
v -0.07780759 -0.02539762 0.09164484
v -0.08042664 -0.0309842 0.09224733
v -0.07997747 -0.02569742 0.09668894
v -0.08221108 -0.03184884 0.09723291
v -0.08186358 -0.02445932 0.10098173
v -0.0838902 -0.03055298 0.10153431
v -0.08456112 -0.02351552 0.10385761
v -0.08632641 -0.02927733 0.10442811
v -0.08357708 -0.02459265 0.09984446
v -0.08515742 -0.0303592 0.100251
v -0.08117422 -0.02511426 0.09515678
v -0.08329561 -0.03201285 0.09543554
v -0.08560507 -0.03672718 0.09601184
v -0.08146866 -0.03118891 0.08969523
v -0.08429864 -0.03560971 0.09048043
v -0.08711474 -0.04029744 0.09167165
v -0.08298566 -0.03652946 0.08457062
v -0.08615443 -0.04108888 0.08602197
v -0.08899093 -0.04576275 0.08765217
v -0.08504593 -0.04210998 0.08059476
v -0.08807982 -0.04657149 0.08238487
v -0.08402498 -0.04383437 0.07537895
v -0.08709976 -0.04816461 0.0772258
v -0.08307713 -0.04620318 0.07036006
v -0.0861984 -0.05034653 0.07225174
v -0.08197623 -0.04926179 0.06572972
v -0.0853308 -0.05307147 0.06763949
v -0.08112033 -0.05273793 0.06139686
v -0.08466899 -0.05690502 0.06337469
v -0.08058937 -0.056828 0.05748918
v -0.08430105 -0.06083579 0.05957228
v -0.08072894 -0.06141775 0.0536624
v -0.08429426 -0.06479091 0.05597113
v -0.08110027 -0.06527755 0.04998822
v -0.08465856 -0.06848118 0.05231624
v -0.08260264 -0.06795389 0.04580437
v -0.08621639 -0.07096971 0.04828023
v -0.08398538 -0.07006822 0.04199562
v -0.08778813 -0.07300495 0.04457973
v -0.08429013 -0.07268433 0.03920332
v -0.08823709 -0.07547136 0.04188467
v -0.08219887 -0.07486448 0.04036187
v -0.08014217 -0.07010693 0.03697542
v -0.07821173 -0.07232194 0.03805033
v -0.07584353 -0.07260685 0.04136737
v -0.07416602 -0.06979933 0.03602109
v -0.0717487 -0.06985632 0.0394909
v -0.07082469 -0.06742355 0.04337148
v -0.06749235 -0.06667928 0.03767645
v -0.06665105 -0.06380196 0.04167071
v -0.06808284 -0.05925842 0.04453474
v -0.06244782 -0.06100506 0.03964685
v -0.0641463 -0.05621164 0.0424525
v -0.06585196 -0.05159762 0.04630201
v -0.06950257 -0.05495495 0.04836119
v -0.0674655 -0.04649664 0.05089287
v -0.06192628 -0.04788671 0.04413304
v -0.06392653 -0.04314065 0.04858583
v -0.06540147 -0.0383721 0.05375604
v -0.06019275 -0.03979563 0.04609059
v -0.06176419 -0.03486466 0.0515338
v -0.06310408 -0.03036002 0.05755122
v -0.06661415 -0.0336316 0.05946701
v -0.06484388 -0.02643779 0.06358702
v -0.0680807 -0.02991982 0.06530571
v -0.06686997 -0.02300018 0.06990181
v -0.06955515 -0.0268179 0.07163758
v -0.06863634 -0.01982041 0.07664172
v -0.07135668 -0.02373867 0.07830726
v -0.07079796 -0.01741527 0.08318336
v -0.07323239 -0.02167859 0.08475325
v -0.07322481 -0.01411349 0.08951265
v -0.07559223 -0.01942274 0.09074824
v -0.07511973 -0.01193345 0.09515765
v -0.07801282 -0.01950237 0.0959226
v -0.07618202 -0.01193326 0.10000011
v -0.07954981 -0.01828908 0.10051662
v -0.07119089 -0.00736475 0.09357551
v -0.07212181 -0.00590379 0.09809712
v -0.06643193 -0.00328221 0.09122563
v -0.06746291 0.00010602 0.0950755
v -0.06954517 0.00272094 0.09738862
v -0.06265076 0.00365324 0.09171181
v -0.06455404 0.00741602 0.09353743
v -0.06557293 0.00542025 0.09072358
v -0.07032107 0.00202907 0.09423938
v -0.07007457 -0.00110266 0.09058103
v -0.07125112 -0.0040511 0.08568929
v -0.07574312 -0.00588815 0.08679587
v -0.07395601 -0.00578759 0.08015678
v -0.07818447 -0.00628443 0.0808152
v -0.08081809 -0.00915261 0.08093426
v -0.07912926 -0.00789053 0.08680258
v -0.08032282 -0.00664331 0.07415403
v -0.08038425 -0.01099362 0.07374792
v -0.07548574 -0.01035509 0.07408912
v -0.07755357 -0.0111816 0.06612807
v -0.07247521 -0.010431 0.06747928
v -0.06807113 -0.01238102 0.06853605
v -0.07148863 -0.01114635 0.07489897
v -0.066939 -0.01747681 0.06877847
v -0.06963185 -0.01526689 0.07551105
v -0.06815349 -0.02218811 0.06903071
v -0.07044031 -0.01993285 0.07573122
v -0.07278343 -0.01868296 0.08229217
v -0.07528663 -0.01678849 0.08858036
v -0.07241123 -0.02418132 0.07607795
v -0.07452966 -0.02318896 0.08255805
v -0.07688776 -0.02178807 0.08897234
v -0.0769541 -0.02778097 0.0828604
v -0.07896213 -0.02665401 0.08926406
v -0.07987259 -0.03219527 0.08348083
v -0.07506248 -0.0289435 0.07660404
v -0.07825541 -0.03324783 0.07753678
v -0.08168767 -0.03768779 0.07888576
v -0.07688074 -0.03532808 0.07181567
v -0.08053161 -0.03964216 0.07349367
v -0.07573179 -0.03794731 0.06642108
v -0.07948072 -0.04219368 0.06839202
v -0.07453075 -0.0407498 0.06165779
v -0.07841559 -0.04533832 0.0636408
v -0.07376859 -0.04529763 0.05687803
v -0.0774505 -0.04903571 0.05923369
v -0.07306199 -0.04995846 0.05259683
v -0.07676552 -0.05328441 0.05519687
v -0.07263288 -0.05466583 0.04889563
v -0.07661311 -0.05763615 0.05153354
v -0.07277143 -0.05916471 0.04535956
v -0.07703415 -0.06227055 0.04777318
v -0.07416885 -0.0620127 0.0413294
v -0.07857572 -0.06511332 0.04353273
v -0.07625484 -0.06457751 0.03718609
v -0.08007783 -0.06718596 0.03966166
v -0.0761029 -0.06782838 0.03478996
v -0.07214627 -0.06145793 0.0347672
v -0.07193103 -0.06493324 0.03269539
v -0.06990493 -0.06675591 0.03417068
v -0.06793612 -0.0629418 0.03008417
v -0.06581935 -0.06460942 0.03181177
v -0.06333498 -0.06411947 0.03550797
v -0.06169115 -0.06245474 0.02923377
v -0.05904602 -0.06177146 0.03308803
v -0.05778117 -0.05781376 0.03765099
v -0.05414787 -0.05884973 0.03064386
v -0.05306086 -0.05553732 0.03493968
v -0.0556272 -0.05036261 0.03747766
v -0.05990393 -0.05279457 0.04027552
v -0.05806276 -0.04506388 0.04143949
v -0.0509898 -0.04780649 0.03453692
v -0.0539132 -0.04221032 0.038639
v -0.05629136 -0.03664461 0.04370318
v -0.04905131 -0.0376509 0.03705068
v -0.05192656 -0.03218458 0.04273406
v -0.05450819 -0.02848678 0.04833508
v -0.0580904 -0.03168878 0.04950741
v -0.05631172 -0.02410288 0.0546984
v -0.05975612 -0.02726271 0.05578404
v -0.05826842 -0.01973789 0.06072723
v -0.06164794 -0.02293171 0.0619691
v -0.06044648 -0.0160549 0.06669166
v -0.06391077 -0.01950413 0.06813604
v -0.06223445 -0.01279914 0.07323412
v -0.06580233 -0.01615593 0.07478549
v -0.06387302 -0.00939484 0.07990253
v -0.06789528 -0.01356351 0.08144434
v -0.06533431 -0.00699909 0.08607502
v -0.06974643 -0.01032943 0.08800602
v -0.05925831 -0.00697921 0.0781429
v -0.06074176 -0.00464786 0.08353617
v -0.06158436 -0.00037581 0.08834682
v -0.05569352 -0.00067614 0.08143584
v -0.05692744 0.00253054 0.08518597
v -0.05796964 0.00689358 0.08823825
v -0.0601142 0.01078158 0.08967273
v -0.06105293 0.00801883 0.08693373
v -0.05130428 0.002269 0.07900993
v -0.04978776 -0.00178358 0.0749779
v -0.04549868 0.00246635 0.07384779
v -0.04767834 0.00564347 0.07653362
v -0.05446612 -0.0047026 0.07643072
v -0.05256009 -0.00850448 0.07121977
v -0.04744974 -0.00460661 0.07111461
v -0.05758956 -0.01041693 0.07203413
v -0.05570471 -0.01379246 0.06607158
v -0.05031445 -0.0116119 0.06625561
v -0.0484224 -0.01551372 0.06111872
v -0.04294188 -0.01177294 0.06259917
v -0.04478018 -0.00720069 0.06736648
v -0.05361276 -0.01697878 0.06068568
v -0.05172997 -0.02088044 0.05519617
v -0.04668037 -0.01818604 0.05661424
v -0.04566027 -0.02232063 0.05055941
v -0.04124438 -0.02008546 0.05249158
v -0.04190853 -0.01623345 0.05773045
v -0.04987137 -0.02388182 0.04960392
v -0.04807471 -0.02858256 0.04261555
v -0.04363325 -0.02540321 0.04484275
v -0.04035816 -0.0296244 0.03916445
v -0.03993545 -0.02385293 0.04674897
v -0.04392357 -0.03271249 0.03738732
v -0.03684273 -0.0226393 0.04834637
v -0.03797009 -0.01958522 0.05290208
v -0.03488535 -0.02131056 0.04904452
v -0.03551302 -0.01882023 0.05255553
v -0.0347215 -0.01455343 0.05689061
v -0.03799223 -0.01514262 0.05783622
v -0.03511482 -0.00847957 0.06184184
v -0.03883348 -0.01011003 0.06248207
v -0.03770002 -0.00322905 0.06585035
v -0.04092107 -0.00521726 0.06680535
v -0.04003865 0.00193362 0.06936901
v -0.04311757 -0.00074527 0.07078847
v -0.04227833 0.00636203 0.07211851
v -0.04356778 0.00017814 0.06910015
v -0.04657428 0.00327241 0.072197
v -0.0494046 0.00641793 0.07497307
v -0.04465545 0.0104086 0.07434121
v -0.0510509 -0.0011868 0.07280222
v -0.04780652 -0.00368311 0.06878929
v -0.05255735 -0.00854546 0.06743085
v -0.05592319 -0.00498411 0.07274782
v -0.05715901 -0.01151217 0.06523015
v -0.06056241 -0.00835487 0.07048443
v -0.06156072 -0.01245286 0.06199144
v -0.06481893 -0.00987322 0.06710066
v -0.06847382 -0.00746614 0.07122901
v -0.074078 -0.00374732 0.06821985
v -0.07237617 -0.00544553 0.07357268
v -0.07807177 -0.003601 0.06787498
v -0.07677645 -0.00461697 0.07453579
v -0.08008015 -0.00753998 0.06635425
v -0.07689333 -0.00328213 0.06113273
v -0.07719733 -0.00741296 0.05939439
v -0.07362539 -0.00981576 0.06004297
v -0.07313488 -0.00610766 0.05339561
v -0.06881836 -0.00810953 0.05468946
v -0.06378093 -0.01117584 0.05537864
v -0.06835931 -0.01043279 0.06139715
v -0.06081048 -0.01652026 0.05553121
v -0.06463497 -0.01457141 0.06175436
v -0.06106691 -0.02302579 0.05578367
v -0.0639621 -0.01982072 0.06216271
v -0.0634675 -0.02802692 0.05671946
v -0.06563803 -0.02483402 0.06271151
v -0.06687063 -0.03242537 0.05801728
v -0.06848817 -0.02910234 0.0636159
v -0.07037045 -0.0264931 0.06962693
v -0.07192265 -0.03336031 0.06486799
v -0.07335227 -0.03073223 0.07058114
v -0.07072032 -0.0365856 0.05965933
v -0.06584305 -0.0368373 0.05272884
v -0.0698029 -0.04103801 0.05471895
v -0.06494789 -0.04176487 0.04799847
v -0.06896882 -0.04573027 0.05031365
v -0.06399639 -0.04723318 0.04403076
v -0.06846303 -0.0512248 0.04631533
v -0.06373075 -0.05260152 0.04038711
v -0.06838515 -0.0561358 0.04280588
v -0.06532418 -0.05699758 0.03609351
v -0.06975651 -0.05949363 0.03879555
v -0.06809852 -0.05913245 0.03196588
v -0.06059148 -0.05375598 0.0335407
v -0.06371042 -0.05641604 0.02919839
v -0.06391319 -0.06137397 0.02715162
v -0.05957877 -0.05471488 0.02588522
v -0.05943076 -0.05901742 0.02433845
v -0.05715255 -0.05974293 0.02659128
v -0.05541248 -0.05748869 0.02080777
v -0.0511653 -0.05491224 0.02486901
v -0.04803263 -0.05368301 0.02932268
v -0.04693159 -0.05361043 0.02162386
v -0.04364174 -0.05252506 0.02648605
v -0.04695055 -0.05000638 0.03376729
v -0.03903354 -0.05237922 0.02440473
v -0.05037828 -0.05312856 0.01811988
v -0.0525961 -0.04977049 0.01865534
v -0.05600071 -0.05296017 0.0221961
v -0.0525642 -0.0487224 0.02666138
v -0.04901017 -0.04283558 0.0238685
v -0.05625402 -0.05130296 0.03028428
v -0.05463595 -0.04611346 0.03508304
v -0.05915368 -0.04935357 0.03782041
v -0.05971273 -0.04324768 0.04177127
v -0.0557033 -0.03886711 0.03951173
v -0.05738154 -0.03192091 0.04430143
v -0.0609693 -0.03709864 0.04599969
v -0.06199175 -0.03196984 0.05109562
v -0.05883238 -0.0266306 0.04981897
v -0.05723721 -0.01959905 0.04953155
v -0.05924005 -0.01370092 0.04900624
v -0.0630029 -0.00872862 0.04866931
v -0.06730799 -0.00517161 0.04800695
v -0.07364646 -0.00225302 0.0548651
v -0.06948363 -0.0014464 0.04861991
v -0.06456112 -0.00106944 0.04266422
v -0.06756087 0.00104171 0.05075979
v -0.06312517 0.00209281 0.04515156
v -0.05950845 0.00253974 0.03962182
v -0.06143891 -0.0020441 0.04588104
v -0.05793631 -0.00239488 0.04053353
v -0.05620304 0.00277953 0.03440136
v -0.05270978 0.0027544 0.0294419
v -0.05610218 0.00030991 0.02613058
v -0.04899345 0.00233206 0.02380679
v -0.05271463 0.0009561 0.02084536
v -0.05385417 -0.00382578 0.01930991
v -0.05579234 -0.00552158 0.02435452
v -0.05240984 -0.00861255 0.01721594
v -0.05388901 -0.01061682 0.02191842
v -0.0495694 -0.01312681 0.01976763
v -0.05073551 -0.01610054 0.02250382
v -0.05011172 -0.01913446 0.02469224
v -0.04502983 -0.01170936 0.02052378
v -0.04630686 -0.01466889 0.02400286
v -0.04619068 -0.01772328 0.02597771
v -0.05035038 -0.0067187 0.01108137
v -0.04186546 0.00170747 0.0210245
v -0.04078714 -0.00222863 0.02065548
v -0.03549104 -0.00020816 0.01579181
v -0.03673173 0.00353604 0.01562392
v -0.0295712 0.00080753 0.01250257
v -0.03080704 0.00445067 0.01145169
v -0.02338792 0.00078639 0.01112943
v -0.02422316 0.00421702 0.00951488
v -0.02525646 0.00574644 0.00454429
v -0.01708973 0.00311305 0.00937306
v -0.01775948 0.00473416 0.00475348
v -0.01847563 0.00555523 -0.00016807
v -0.02607545 0.00693535 -0.00028532
v -0.01908256 0.00573312 -0.0046465
v -0.02695093 0.00709256 -0.00473621
v -0.01994337 0.00490758 -0.00856832
v -0.02836072 0.00631692 -0.00865721
v -0.02042978 0.00062172 -0.00911986
v -0.02838811 0.00207864 -0.00897235
v -0.02029806 -0.00166919 -0.00576877
v -0.02779473 -0.0010751 -0.00586079
v -0.0207752 -0.00260552 -0.0013138
v -0.01333222 -0.00245625 -0.00453227
v -0.01437026 -0.00363372 -0.0001974
v -0.01514893 -0.00345696 0.00460672
v -0.0218099 -0.00232656 0.00353007
v -0.01602397 -0.00243113 0.00897117
v -0.02266433 -0.00132635 0.00808087
v -0.01676757 -0.00027127 0.012014
v -0.0092059 -0.00133747 0.01198262
v -0.00970017 0.00183336 0.00910968
v -0.00157506 -0.00274074 0.01026021
v -0.00284557 0.00107412 0.00719859
v -0.00749879 -0.00347167 -0.00331466
v -0.01273429 -0.00073343 -0.00778607
v -0.00625378 -0.00200688 -0.00700129
v -0.01221676 0.00291503 -0.00714757
v -0.00602564 0.0017908 -0.00575429
v -0.05981093 -0.00662965 0.04689156
v -0.05620945 -0.00751737 0.0419333
v -0.05826305 -0.01234019 0.04849236
v -0.05456996 -0.01273594 0.04404289
v -0.05555713 -0.01629579 0.05159082
v -0.05225519 -0.01697045 0.04692733
v -0.04931261 -0.01878343 0.04166649
v -0.04826557 -0.0179719 0.05091116
v -0.04530236 -0.019546 0.04599278
v -0.04390631 -0.01602806 0.05457292
v -0.04187785 -0.01922028 0.04900701
v -0.04029579 -0.0146031 0.05585793
v -0.03899698 -0.01805122 0.05093981
v -0.03693597 -0.02085101 0.04635102
v -0.03329748 -0.02213921 0.04321348
v -0.03645701 -0.01763157 0.05162792
v -0.03524566 -0.02026287 0.04805996
v -0.03241349 -0.02139481 0.04587588
v -0.02810343 -0.02065641 0.04493369
v -0.02874027 -0.02101194 0.04104217
v -0.02505467 -0.01716693 0.03947674
v -0.02369722 -0.01688361 0.04469885
v -0.01856722 -0.01291435 0.04169522
v -0.02059198 -0.01401903 0.03600078
v -0.02377774 -0.017071 0.04965086
v -0.0170613 -0.01350289 0.04749477
v -0.02258107 -0.02264922 0.04939062
v -0.01638288 -0.01976621 0.04851965
v -0.00990902 -0.01948443 0.04618578
v -0.00363769 -0.02358591 0.04250931
v -0.01172926 -0.02648169 0.04421161
v -0.0066031 -0.02875103 0.04280905
v -0.0023006 -0.03191521 0.04100417
v 0.00064761 -0.02785411 0.03909881
v -0.00435597 -0.03209053 0.03649364
v -0.0002941 -0.03487352 0.03345415
v 0.00222813 -0.03551352 0.038417
v 0.00100332 -0.03087911 0.0281421
v 0.00384057 -0.02675926 0.02501996
v 0.00599819 -0.02815115 0.03085883
v 0.00500009 -0.03219924 0.03715871
v 0.00612036 -0.03920034 0.0354635
v 0.00788157 -0.04249414 0.0320525
v -0.01723965 -0.0152298 0.02607372
v -0.02135101 -0.01681558 0.02209657
v -0.02376164 -0.02218992 0.01690679
v -0.03055305 -0.0239849 0.01465258
v -0.03695055 -0.02588373 0.01099126
v -0.03683715 -0.0135977 0.05620021
v -0.0419862 -0.01041571 0.06057392
v -0.03814973 -0.00877448 0.06092497
v -0.04449338 -0.00634978 0.06505654
v -0.04075375 -0.00402776 0.06517863
v -0.04640898 -0.01348085 0.05892155
v -0.04918657 -0.01067683 0.06324039
v -0.05123657 -0.01675368 0.05541686
v -0.05402724 -0.01405977 0.06033713
v -0.05846936 -0.01436636 0.0568362
v -0.06157893 -0.01128326 0.0535654
v -0.06364553 -0.00682324 0.05169861
v -0.0654211 -0.00248409 0.05118375
v -0.0714515 -0.00011183 0.05677109
v -0.07393192 -0.00146459 0.0628028
v -0.02599388 -0.03665486 0.02862263
v -0.02508362 -0.03252751 0.03234846
v -0.0211065 -0.03644095 0.02621589
v -0.02082092 -0.04375898 0.02563919
v -0.01768817 -0.04407598 0.02359985
v -0.02560527 -0.04304941 0.02710198
v -0.02686425 -0.0497038 0.02550531
v -0.02253524 -0.05089211 0.02392909
v -0.02158702 -0.04204724 0.02184323
f 1 2 3
f 1 3 4
f 1 5 6
f 1 6 2
f 1 4 7
f 1 7 5
f 8 4 3
f 8 3 9
f 8 10 7
f 8 7 4
f 8 9 11
f 8 11 10
f 12 13 14
f 12 14 15
f 12 15 16
f 12 16 17
f 12 17 18
f 12 18 13
f 19 20 21
f 19 21 22
f 19 15 14
f 19 14 20
f 19 22 16
f 19 16 15
f 23 24 25
f 23 25 26
f 23 26 27
f 23 27 28
f 23 29 30
f 23 30 24
f 23 31 32
f 23 32 29
f 23 28 33
f 23 33 31
f 34 35 31
f 34 31 33
f 34 36 37
f 34 37 35
f 34 33 38
f 34 38 39
f 34 40 41
f 34 41 36
f 33 42 43
f 33 43 38
f 33 28 44
f 33 44 42
f 45 46 47
f 45 47 48
f 45 48 49
f 45 49 21
f 45 21 20
f 45 20 46
f 50 51 52
f 50 52 53
f 50 53 54
f 50 54 55
f 50 55 56
f 50 56 51
f 57 43 58
f 57 58 59
f 57 59 60
f 57 60 61
f 57 61 38
f 57 38 43
f 62 63 18
f 62 18 64
f 62 65 66
f 62 66 63
f 62 64 67
f 62 67 65
f 68 69 70
f 68 70 71
f 68 71 72
f 68 72 73
f 68 73 74
f 68 74 69
f 75 76 77
f 75 77 78
f 75 79 80
f 75 80 76
f 75 78 81
f 75 81 79
f 74 82 54
f 74 54 69
f 74 73 83
f 74 83 84
f 74 85 86
f 74 86 82
f 74 84 87
f 74 87 85
f 88 89 82
f 88 82 86
f 88 90 91
f 88 91 89
f 88 86 92
f 88 92 90
f 93 94 95
f 93 95 96
f 93 97 98
f 93 98 99
f 93 99 100
f 93 100 94
f 101 102 103
f 101 103 104
f 101 104 105
f 101 105 106
f 101 106 107
f 101 107 60
f 108 109 110
f 108 110 111
f 108 111 112
f 108 112 113
f 108 113 114
f 108 114 109
f 85 87 115
f 85 115 116
f 85 116 117
f 85 117 118
f 85 118 92
f 85 92 86
f 117 119 120
f 117 120 118
f 117 116 121
f 117 121 119
f 122 112 123
f 122 123 124
f 122 124 120
f 122 120 119
f 122 125 113
f 122 113 112
f 122 126 127
f 122 127 125
f 122 128 129
f 122 129 126
f 125 130 114
f 125 114 113
f 125 131 132
f 125 132 130
f 125 127 133
f 125 133 131
f 122 119 121
f 122 121 128
f 134 135 136
f 134 136 137
f 134 138 139
f 134 139 135
f 134 140 141
f 134 141 138
f 134 137 142
f 134 142 143
f 134 143 144
f 134 144 140
f 145 146 147
f 145 147 148
f 145 148 149
f 145 149 150
f 145 151 152
f 145 152 146
f 145 150 153
f 145 153 154
f 155 144 156
f 155 156 157
f 155 157 158
f 155 158 159
f 155 159 140
f 155 140 144
f 160 161 162
f 160 162 163
f 160 163 164
f 160 164 165
f 160 166 167
f 160 167 161
f 160 168 169
f 160 169 166
f 165 164 170
f 165 170 171
f 165 171 168
f 165 168 160
f 172 173 174
f 172 174 175
f 172 175 176
f 172 176 177
f 172 177 178
f 172 178 179
f 172 180 181
f 172 181 173
f 172 179 182
f 172 182 180
f 183 151 184
f 183 184 185
f 183 186 152
f 183 152 151
f 183 187 188
f 183 188 189
f 183 189 190
f 183 190 186
f 191 192 193
f 191 193 194
f 191 195 196
f 191 196 192
f 191 194 197
f 191 197 195
f 198 199 200
f 198 200 201
f 198 194 193
f 198 193 199
f 198 201 197
f 198 197 194
f 202 203 204
f 202 204 205
f 202 206 200
f 202 200 207
f 202 205 208
f 202 208 206
f 209 210 211
f 209 211 212
f 209 212 213
f 209 213 214
f 209 214 215
f 209 215 210
f 216 217 218
f 216 218 219
f 216 219 220
f 216 220 221
f 216 221 222
f 216 222 217
f 223 224 225
f 223 225 226
f 223 227 228
f 223 228 224
f 223 226 229
f 223 229 227
f 230 231 232
f 230 232 233
f 230 233 234
f 230 234 235
f 230 235 236
f 230 236 231
f 237 238 239
f 237 239 240
f 237 240 241
f 237 241 242
f 237 242 243
f 237 243 238
f 244 245 246
f 244 246 247
f 244 248 249
f 244 249 245
f 244 247 220
f 244 220 250
f 244 250 251
f 244 251 252
f 244 252 253
f 244 253 248
f 254 255 239
f 254 239 238
f 254 238 243
f 254 243 256
f 254 256 257
f 254 257 255
f 257 258 259
f 257 259 260
f 257 260 261
f 257 261 255
f 257 256 262
f 257 262 258
f 262 263 264
f 262 264 258
f 262 256 243
f 262 243 265
f 262 265 266
f 262 266 263
f 266 267 268
f 266 268 263
f 266 265 269
f 266 269 270
f 266 270 271
f 266 271 267
f 271 272 273
f 271 273 267
f 271 270 274
f 271 274 275
f 271 275 276
f 271 276 272
f 276 277 278
f 276 278 272
f 276 275 279
f 276 279 280
f 276 280 281
f 276 281 277
f 281 282 283
f 281 283 277
f 281 280 284
f 281 284 285
f 281 285 286
f 281 286 282
f 286 225 287
f 286 287 288
f 286 288 289
f 286 289 282
f 286 285 226
f 286 226 225
f 289 288 290
f 289 290 291
f 289 291 292
f 289 292 293
f 289 293 283
f 289 283 282
f 293 292 294
f 293 294 295
f 293 295 296
f 293 296 283
f 296 295 297
f 296 297 298
f 296 298 299
f 296 299 278
f 296 278 277
f 296 277 283
f 299 298 300
f 299 300 301
f 299 301 302
f 299 302 273
f 299 273 272
f 299 272 278
f 302 301 303
f 302 303 304
f 302 304 305
f 302 305 268
f 302 268 267
f 302 267 273
f 305 304 306
f 305 306 307
f 305 307 308
f 305 308 264
f 305 264 263
f 305 263 268
f 308 307 309
f 308 309 310
f 308 310 311
f 308 311 259
f 308 259 258
f 308 258 264
f 311 310 312
f 311 312 313
f 311 313 314
f 311 314 315
f 311 315 260
f 311 260 259
f 315 314 316
f 315 316 317
f 315 317 261
f 315 261 260
f 317 316 318
f 317 318 319
f 317 319 320
f 317 320 261
f 320 319 321
f 320 321 322
f 320 322 240
f 320 240 239
f 320 239 255
f 320 255 261
f 322 321 323
f 322 323 324
f 322 324 241
f 322 241 240
f 324 323 325
f 324 325 326
f 324 326 327
f 324 327 241
f 327 274 270
f 327 270 269
f 327 269 242
f 327 242 241
f 327 326 328
f 327 328 274
f 328 279 275
f 328 275 274
f 328 326 325
f 328 325 329
f 328 329 330
f 328 330 279
f 330 284 280
f 330 280 279
f 330 329 331
f 330 331 332
f 330 332 229
f 330 229 284
f 332 331 333
f 332 333 334
f 332 334 227
f 332 227 229
f 334 333 335
f 334 335 336
f 334 336 228
f 334 228 227
f 336 335 337
f 336 337 338
f 336 338 339
f 336 339 228
f 339 338 340
f 339 340 341
f 339 341 342
f 339 342 343
f 339 343 224
f 339 224 228
f 343 342 344
f 343 344 287
f 343 287 225
f 343 225 224
f 344 342 345
f 344 345 346
f 344 346 347
f 344 347 290
f 344 290 288
f 344 288 287
f 347 346 348
f 347 348 349
f 347 349 350
f 347 350 351
f 347 351 291
f 347 291 290
f 351 350 352
f 351 352 353
f 351 353 292
f 351 292 291
f 353 352 354
f 353 354 355
f 353 355 294
f 353 294 292
f 355 354 356
f 355 356 357
f 355 357 358
f 355 358 294
f 358 357 359
f 358 359 360
f 358 360 361
f 358 361 297
f 358 297 295
f 358 295 294
f 361 360 362
f 361 362 363
f 361 363 364
f 361 364 300
f 361 300 298
f 361 298 297
f 364 363 365
f 364 365 366
f 364 366 367
f 364 367 303
f 364 303 301
f 364 301 300
f 367 366 368
f 367 368 369
f 367 369 370
f 367 370 306
f 367 306 304
f 367 304 303
f 370 369 371
f 370 371 372
f 370 372 373
f 370 373 309
f 370 309 307
f 370 307 306
f 373 372 374
f 373 374 375
f 373 375 376
f 373 376 312
f 373 312 310
f 373 310 309
f 376 375 377
f 376 377 378
f 376 378 379
f 376 379 380
f 376 380 313
f 376 313 312
f 380 379 381
f 380 381 382
f 380 382 314
f 380 314 313
f 382 381 383
f 382 383 384
f 382 384 316
f 382 316 314
f 384 383 385
f 384 385 386
f 384 386 318
f 384 318 316
f 386 385 387
f 386 387 388
f 386 388 389
f 386 389 318
f 389 388 390
f 389 390 391
f 389 391 323
f 389 323 321
f 389 321 319
f 389 319 318
f 391 390 392
f 391 392 393
f 391 393 325
f 391 325 323
f 393 392 333
f 393 333 331
f 393 331 329
f 393 329 325
f 392 390 394
f 392 394 395
f 392 395 335
f 392 335 333
f 395 394 396
f 395 396 397
f 395 397 337
f 395 337 335
f 397 396 398
f 397 398 399
f 397 399 400
f 397 400 337
f 400 399 401
f 400 401 402
f 400 402 403
f 400 403 340
f 400 340 338
f 400 338 337
f 403 402 404
f 403 404 405
f 403 405 406
f 403 406 407
f 403 407 341
f 403 341 340
f 407 406 408
f 407 408 345
f 407 345 342
f 407 342 341
f 408 406 409
f 408 409 410
f 408 410 411
f 408 411 348
f 408 348 346
f 408 346 345
f 411 410 412
f 411 412 413
f 411 413 414
f 411 414 415
f 411 415 349
f 411 349 348
f 415 414 416
f 415 416 417
f 415 417 350
f 415 350 349
f 417 416 418
f 417 418 419
f 417 419 352
f 417 352 350
f 419 418 420
f 419 420 421
f 419 421 354
f 419 354 352
f 421 420 422
f 421 422 423
f 421 423 356
f 421 356 354
f 423 422 424
f 423 424 425
f 423 425 426
f 423 426 356
f 426 425 427
f 426 427 428
f 426 428 429
f 426 429 359
f 426 359 357
f 426 357 356
f 429 428 430
f 429 430 431
f 429 431 432
f 429 432 362
f 429 362 360
f 429 360 359
f 432 431 433
f 432 433 434
f 432 434 435
f 432 435 365
f 432 365 363
f 432 363 362
f 435 434 436
f 435 436 437
f 435 437 438
f 435 438 368
f 435 368 366
f 435 366 365
f 438 437 439
f 438 439 440
f 438 440 441
f 438 441 371
f 438 371 369
f 438 369 368
f 441 440 442
f 441 442 443
f 441 443 444
f 441 444 374
f 441 374 372
f 441 372 371
f 444 443 445
f 444 445 446
f 444 446 447
f 444 447 377
f 444 377 375
f 444 375 374
f 447 446 448
f 447 448 449
f 447 449 450
f 447 450 451
f 447 451 378
f 447 378 377
f 451 450 452
f 451 452 453
f 451 453 379
f 451 379 378
f 453 452 454
f 453 454 455
f 453 455 381
f 453 381 379
f 455 454 456
f 455 456 457
f 455 457 383
f 455 383 381
f 457 456 458
f 457 458 459
f 457 459 385
f 457 385 383
f 459 458 460
f 459 460 461
f 459 461 387
f 459 387 385
f 461 460 398
f 461 398 396
f 461 396 394
f 461 394 387
f 460 458 462
f 460 462 463
f 460 463 464
f 460 464 398
f 464 463 465
f 464 465 466
f 464 466 467
f 464 467 401
f 464 401 399
f 464 399 398
f 467 466 468
f 467 468 469
f 467 469 470
f 467 470 404
f 467 404 402
f 467 402 401
f 470 469 471
f 470 471 472
f 470 472 473
f 470 473 474
f 470 474 405
f 470 405 404
f 474 473 475
f 474 475 409
f 474 409 406
f 474 406 405
f 475 473 476
f 475 476 477
f 475 477 478
f 475 478 412
f 475 412 410
f 475 410 409
f 478 477 479
f 478 479 480
f 478 480 481
f 478 481 482
f 478 482 413
f 478 413 412
f 482 481 483
f 482 483 484
f 482 484 414
f 482 414 413
f 484 483 485
f 484 485 486
f 484 486 416
f 484 416 414
f 486 485 487
f 486 487 488
f 486 488 418
f 486 418 416
f 488 487 489
f 488 489 490
f 488 490 420
f 488 420 418
f 490 489 491
f 490 491 492
f 490 492 422
f 490 422 420
f 492 491 493
f 492 493 494
f 492 494 424
f 492 424 422
f 494 493 495
f 494 495 496
f 494 496 497
f 494 497 424
f 497 496 498
f 497 498 499
f 497 499 500
f 497 500 427
f 497 427 425
f 497 425 424
f 500 499 501
f 500 501 502
f 500 502 503
f 500 503 430
f 500 430 428
f 500 428 427
f 503 502 504
f 503 504 505
f 503 505 506
f 503 506 433
f 503 433 431
f 503 431 430
f 506 505 507
f 506 507 508
f 506 508 509
f 506 509 436
f 506 436 434
f 506 434 433
f 509 508 236
f 509 236 235
f 509 235 234
f 509 234 439
f 509 439 437
f 509 437 436
f 508 507 510
f 508 510 236
f 510 507 511
f 510 511 512
f 510 512 513
f 510 513 514
f 510 514 231
f 510 231 236
f 514 513 515
f 514 515 516
f 514 516 232
f 514 232 231
f 516 515 517
f 516 517 518
f 516 518 519
f 516 519 232
f 519 518 520
f 519 520 521
f 519 521 445
f 519 445 522
f 519 522 233
f 519 233 232
f 522 445 443
f 522 443 442
f 522 442 234
f 522 234 233
f 521 520 523
f 521 523 448
f 521 448 446
f 521 446 445
f 523 520 524
f 523 524 525
f 523 525 526
f 523 526 527
f 523 527 449
f 523 449 448
f 527 526 528
f 527 528 529
f 527 529 450
f 527 450 449
f 529 528 530
f 529 530 531
f 529 531 452
f 529 452 450
f 531 530 532
f 531 532 533
f 531 533 454
f 531 454 452
f 533 532 534
f 533 534 535
f 533 535 456
f 533 456 454
f 535 534 536
f 535 536 462
f 535 462 458
f 535 458 456
f 536 534 537
f 536 537 538
f 536 538 539
f 536 539 465
f 536 465 463
f 536 463 462
f 539 538 540
f 539 540 541
f 539 541 542
f 539 542 468
f 539 468 466
f 539 466 465
f 542 541 543
f 542 543 544
f 542 544 545
f 542 545 471
f 542 471 469
f 542 469 468
f 545 544 546
f 545 546 547
f 545 547 548
f 545 548 549
f 545 549 472
f 545 472 471
f 549 548 550
f 549 550 476
f 549 476 473
f 549 473 472
f 550 548 551
f 550 551 552
f 550 552 553
f 550 553 479
f 550 479 477
f 550 477 476
f 553 552 554
f 553 554 555
f 553 555 556
f 553 556 557
f 553 557 480
f 553 480 479
f 557 556 558
f 557 558 559
f 557 559 481
f 557 481 480
f 559 558 560
f 559 560 561
f 559 561 483
f 559 483 481
f 561 560 562
f 561 562 563
f 561 563 485
f 561 485 483
f 563 562 564
f 563 564 565
f 563 565 487
f 563 487 485
f 565 564 566
f 565 566 567
f 565 567 489
f 565 489 487
f 567 566 568
f 567 568 569
f 567 569 491
f 567 491 489
f 569 568 570
f 569 570 571
f 569 571 493
f 569 493 491
f 571 570 572
f 571 572 573
f 571 573 495
f 571 495 493
f 573 572 574
f 573 574 575
f 573 575 576
f 573 576 495
f 576 575 577
f 576 577 578
f 576 578 579
f 576 579 498
f 576 498 496
f 576 496 495
f 579 578 580
f 579 580 581
f 579 581 582
f 579 582 501
f 579 501 499
f 579 499 498
f 582 581 583
f 582 583 584
f 582 584 511
f 582 511 504
f 582 504 502
f 582 502 501
f 584 583 585
f 584 585 586
f 584 586 512
f 584 512 511
f 586 585 587
f 586 587 588
f 586 588 513
f 586 513 512
f 588 587 589
f 588 589 590
f 588 590 515
f 588 515 513
f 590 589 591
f 590 591 592
f 590 592 517
f 590 517 515
f 592 591 593
f 592 593 594
f 592 594 524
f 592 524 517
f 594 593 595
f 594 595 596
f 594 596 525
f 594 525 524
f 596 595 597
f 596 597 598
f 596 598 526
f 596 526 525
f 598 597 599
f 598 599 600
f 598 600 528
f 598 528 526
f 600 599 601
f 600 601 602
f 600 602 530
f 600 530 528
f 602 601 603
f 602 603 604
f 602 604 532
f 602 532 530
f 604 603 605
f 604 605 537
f 604 537 534
f 604 534 532
f 605 603 606
f 605 606 607
f 605 607 608
f 605 608 540
f 605 540 538
f 605 538 537
f 608 607 609
f 608 609 610
f 608 610 611
f 608 611 543
f 608 543 541
f 608 541 540
f 611 610 612
f 611 612 613
f 611 613 614
f 611 614 546
f 611 546 544
f 611 544 543
f 614 613 615
f 614 615 616
f 614 616 617
f 614 617 618
f 614 618 547
f 614 547 546
f 618 617 619
f 618 619 551
f 618 551 548
f 618 548 547
f 619 617 620
f 619 620 621
f 619 621 622
f 619 622 554
f 619 554 552
f 619 552 551
f 622 621 623
f 622 623 624
f 622 624 625
f 622 625 626
f 622 626 555
f 622 555 554
f 626 625 627
f 626 627 628
f 626 628 556
f 626 556 555
f 628 627 629
f 628 629 630
f 628 630 558
f 628 558 556
f 630 629 631
f 630 631 632
f 630 632 560
f 630 560 558
f 632 631 633
f 632 633 634
f 632 634 562
f 632 562 560
f 634 633 635
f 634 635 636
f 634 636 564
f 634 564 562
f 636 635 637
f 636 637 638
f 636 638 566
f 636 566 564
f 638 637 639
f 638 639 640
f 638 640 568
f 638 568 566
f 640 639 248
f 640 248 253
f 640 253 570
f 640 570 568
f 639 637 641
f 639 641 642
f 639 642 249
f 639 249 248
f 642 641 643
f 642 643 644
f 642 644 645
f 642 645 249
f 645 644 646
f 645 646 647
f 645 647 648
f 645 648 649
f 645 649 245
f 645 245 249
f 649 648 208
f 649 208 650
f 649 650 246
f 649 246 245
f 650 208 205
f 650 205 651
f 650 651 652
f 650 652 246
f 652 651 653
f 652 653 654
f 652 654 655
f 652 655 656
f 652 656 247
f 652 247 246
f 656 655 222
f 656 222 221
f 656 221 220
f 656 220 247
f 655 654 657
f 655 657 658
f 655 658 659
f 655 659 222
f 659 658 660
f 659 660 661
f 659 661 662
f 659 662 663
f 659 663 217
f 659 217 222
f 663 662 664
f 663 664 665
f 663 665 218
f 663 218 217
f 665 664 666
f 665 666 667
f 665 667 668
f 665 668 218
f 668 669 219
f 668 219 218
f 668 667 670
f 668 670 671
f 668 671 672
f 668 672 669
f 672 251 250
f 672 250 669
f 672 671 673
f 672 673 674
f 672 674 574
f 672 574 251
f 674 673 675
f 674 675 577
f 674 577 575
f 674 575 574
f 675 673 676
f 675 676 677
f 675 677 678
f 675 678 580
f 675 580 578
f 675 578 577
f 678 677 679
f 678 679 680
f 678 680 585
f 678 585 583
f 678 583 581
f 678 581 580
f 680 679 681
f 680 681 682
f 680 682 587
f 680 587 585
f 682 681 683
f 682 683 684
f 682 684 589
f 682 589 587
f 684 683 685
f 684 685 686
f 684 686 591
f 684 591 589
f 686 685 687
f 686 687 688
f 686 688 593
f 686 593 591
f 688 687 689
f 688 689 690
f 688 690 595
f 688 595 593
f 690 689 691
f 690 691 692
f 690 692 597
f 690 597 595
f 692 691 693
f 692 693 694
f 692 694 599
f 692 599 597
f 694 693 695
f 694 695 696
f 694 696 601
f 694 601 599
f 696 695 697
f 696 697 606
f 696 606 603
f 696 603 601
f 697 695 698
f 697 698 699
f 697 699 700
f 697 700 609
f 697 609 607
f 697 607 606
f 700 699 701
f 700 701 702
f 700 702 703
f 700 703 612
f 700 612 610
f 700 610 609
f 703 702 704
f 703 704 705
f 703 705 706
f 703 706 615
f 703 615 613
f 703 613 612
f 706 705 707
f 706 707 708
f 706 708 709
f 706 709 710
f 706 710 616
f 706 616 615
f 710 709 711
f 710 711 620
f 710 620 617
f 710 617 616
f 711 709 712
f 711 712 713
f 711 713 714
f 711 714 623
f 711 623 621
f 711 621 620
f 714 713 715
f 714 715 716
f 714 716 717
f 714 717 718
f 714 718 624
f 714 624 623
f 718 717 719
f 718 719 720
f 718 720 625
f 718 625 624
f 720 719 721
f 720 721 722
f 720 722 627
f 720 627 625
f 722 721 723
f 722 723 724
f 722 724 629
f 722 629 627
f 724 723 725
f 724 725 726
f 724 726 631
f 724 631 629
f 726 725 727
f 726 727 728
f 726 728 633
f 726 633 631
f 728 727 729
f 728 729 730
f 728 730 635
f 728 635 633
f 730 729 643
f 730 643 641
f 730 641 637
f 730 637 635
f 729 727 731
f 729 731 732
f 729 732 733
f 729 733 643
f 733 732 734
f 733 734 735
f 733 735 736
f 733 736 646
f 733 646 644
f 733 644 643
f 736 735 196
f 736 196 195
f 736 195 197
f 736 197 737
f 736 737 647
f 736 647 646
f 737 197 201
f 737 201 738
f 737 738 648
f 737 648 647
f 738 201 200
f 738 200 206
f 738 206 208
f 738 208 648
f 735 734 739
f 735 739 196
f 739 740 741
f 739 741 742
f 739 742 192
f 739 192 196
f 739 734 743
f 739 743 740
f 743 744 745
f 743 745 740
f 743 734 732
f 743 732 731
f 743 731 746
f 743 746 744
f 746 747 748
f 746 748 744
f 746 731 727
f 746 727 725
f 746 725 723
f 746 723 747
f 748 749 750
f 748 750 751
f 748 751 745
f 748 745 744
f 748 747 752
f 748 752 749
f 752 753 754
f 752 754 749
f 752 747 723
f 752 723 721
f 752 721 719
f 752 719 753
f 754 755 756
f 754 756 757
f 754 757 750
f 754 750 749
f 754 753 758
f 754 758 755
f 758 759 760
f 758 760 755
f 758 753 719
f 758 719 717
f 758 717 716
f 758 716 759
f 760 761 105
f 760 105 762
f 760 762 756
f 760 756 755
f 760 759 763
f 760 763 761
f 763 93 96
f 763 96 761
f 763 759 716
f 763 716 715
f 763 715 97
f 763 97 93
f 762 105 104
f 762 104 764
f 762 764 765
f 762 765 756
f 765 764 766
f 765 766 767
f 765 767 768
f 765 768 769
f 765 769 757
f 765 757 756
f 769 768 770
f 769 770 771
f 769 771 750
f 769 750 757
f 771 770 772
f 771 772 773
f 771 773 751
f 771 751 750
f 773 772 774
f 773 774 775
f 773 775 745
f 773 745 751
f 775 774 776
f 775 776 741
f 775 741 740
f 775 740 745
f 776 774 777
f 776 777 778
f 776 778 779
f 776 779 780
f 776 780 742
f 776 742 741
f 780 779 199
f 780 199 193
f 780 193 192
f 780 192 742
f 779 778 781
f 779 781 207
f 779 207 200
f 779 200 199
f 781 782 783
f 781 783 784
f 781 784 202
f 781 202 207
f 781 778 777
f 781 777 782
f 784 783 785
f 784 785 786
f 784 786 203
f 784 203 202
f 786 785 787
f 786 787 788
f 786 788 789
f 786 789 203
f 789 788 210
f 789 210 215
f 789 215 790
f 789 790 791
f 789 791 204
f 789 204 203
f 791 790 792
f 791 792 793
f 791 793 653
f 791 653 204
f 793 792 794
f 793 794 657
f 793 657 654
f 793 654 653
f 794 792 795
f 794 795 796
f 794 796 797
f 794 797 660
f 794 660 658
f 794 658 657
f 797 796 798
f 797 798 799
f 797 799 800
f 797 800 801
f 797 801 661
f 797 661 660
f 801 800 802
f 801 802 803
f 801 803 662
f 801 662 661
f 803 802 804
f 803 804 805
f 803 805 664
f 803 664 662
f 805 804 806
f 805 806 807
f 805 807 666
f 805 666 664
f 807 806 808
f 807 808 809
f 807 809 810
f 807 810 666
f 810 670 667
f 810 667 666
f 810 809 811
f 810 811 812
f 810 812 676
f 810 676 670
f 812 811 681
f 812 681 679
f 812 679 677
f 812 677 676
f 811 809 808
f 811 808 813
f 811 813 683
f 811 683 681
f 813 808 814
f 813 814 815
f 813 815 685
f 813 685 683
f 815 814 816
f 815 816 817
f 815 817 687
f 815 687 685
f 817 816 818
f 817 818 819
f 817 819 689
f 817 689 687
f 819 818 820
f 819 820 821
f 819 821 691
f 819 691 689
f 821 820 822
f 821 822 823
f 821 823 693
f 821 693 691
f 823 822 824
f 823 824 698
f 823 698 695
f 823 695 693
f 824 822 825
f 824 825 826
f 824 826 827
f 824 827 701
f 824 701 699
f 824 699 698
f 827 826 828
f 827 828 829
f 827 829 830
f 827 830 704
f 827 704 702
f 827 702 701
f 830 829 831
f 830 831 832
f 830 832 833
f 830 833 707
f 830 707 705
f 830 705 704
f 833 832 834
f 833 834 835
f 833 835 98
f 833 98 836
f 833 836 708
f 833 708 707
f 836 98 97
f 836 97 712
f 836 712 709
f 836 709 708
f 835 834 83
f 835 83 837
f 835 837 99
f 835 99 98
f 837 83 73
f 837 73 72
f 837 72 100
f 837 100 99
f 834 838 84
f 834 84 83
f 834 832 831
f 834 831 838
f 838 839 87
f 838 87 84
f 838 831 840
f 838 840 839
f 840 841 842
f 840 842 839
f 840 831 829
f 840 829 828
f 840 828 843
f 840 843 841
f 843 844 149
f 843 149 841
f 843 828 826
f 843 826 825
f 843 825 845
f 843 845 844
f 845 846 847
f 845 847 844
f 845 825 822
f 845 822 820
f 845 820 818
f 845 818 846
f 847 848 153
f 847 153 150
f 847 150 149
f 847 149 844
f 847 846 849
f 847 849 848
f 849 850 851
f 849 851 848
f 849 846 818
f 849 818 816
f 849 816 814
f 849 814 850
f 851 804 802
f 851 802 852
f 851 852 153
f 851 153 848
f 851 850 806
f 851 806 804
f 852 802 800
f 852 800 853
f 852 853 154
f 852 154 153
f 853 800 799
f 853 799 854
f 853 854 184
f 853 184 154
f 854 799 798
f 854 798 855
f 854 855 185
f 854 185 184
f 855 798 856
f 855 856 857
f 855 857 858
f 855 858 185
f 858 857 859
f 858 859 860
f 858 860 861
f 858 861 187
f 858 187 183
f 858 183 185
f 861 860 862
f 861 862 863
f 861 863 178
f 861 178 864
f 861 864 188
f 861 188 187
f 864 178 177
f 864 177 865
f 864 865 866
f 864 866 188
f 866 865 867
f 866 867 868
f 866 868 869
f 866 869 870
f 866 870 189
f 866 189 188
f 870 869 871
f 870 871 872
f 870 872 190
f 870 190 189
f 872 871 142
f 872 142 873
f 872 873 874
f 872 874 190
f 874 875 186
f 874 186 190
f 874 873 876
f 874 876 877
f 874 877 878
f 874 878 875
f 878 126 129
f 878 129 875
f 878 877 173
f 878 173 181
f 878 181 127
f 878 127 126
f 877 876 174
f 877 174 173
f 876 873 142
f 876 142 137
f 876 137 136
f 876 136 174
f 875 129 152
f 875 152 186
f 871 869 169
f 871 169 879
f 871 879 143
f 871 143 142
f 879 169 168
f 879 168 156
f 879 156 144
f 879 144 143
f 869 868 166
f 869 166 169
f 868 867 167
f 868 167 166
f 867 865 177
f 867 177 176
f 867 176 880
f 867 880 167
f 880 176 175
f 880 175 881
f 880 881 882
f 880 882 883
f 880 883 161
f 880 161 167
f 883 882 884
f 883 884 885
f 883 885 162
f 883 162 161
f 885 884 886
f 885 886 887
f 885 887 888
f 885 888 162
f 888 887 889
f 888 889 890
f 888 890 891
f 888 891 892
f 888 892 163
f 888 163 162
f 892 891 893
f 892 893 894
f 892 894 164
f 892 164 163
f 894 893 895
f 894 895 896
f 894 896 170
f 894 170 164
f 896 895 897
f 896 897 898
f 896 898 158
f 896 158 170
f 898 897 899
f 898 899 900
f 898 900 159
f 898 159 158
f 900 899 901
f 900 901 141
f 900 141 140
f 900 140 159
f 901 899 902
f 901 902 903
f 901 903 904
f 901 904 905
f 901 905 138
f 901 138 141
f 905 904 906
f 905 906 907
f 905 907 139
f 905 139 138
f 907 906 908
f 907 908 886
f 907 886 884
f 907 884 139
f 908 906 47
f 908 47 909
f 908 909 910
f 908 910 889
f 908 889 887
f 908 887 886
f 910 909 911
f 910 911 912
f 910 912 63
f 910 63 66
f 910 66 890
f 910 890 889
f 912 911 14
f 912 14 13
f 912 13 18
f 912 18 63
f 911 909 47
f 911 47 46
f 911 46 20
f 911 20 14
f 906 904 48
f 906 48 47
f 904 903 49
f 904 49 48
f 903 902 913
f 903 913 49
f 913 902 914
f 913 914 915
f 913 915 16
f 913 16 22
f 913 22 21
f 913 21 49
f 915 914 916
f 915 916 917
f 915 917 17
f 915 17 16
f 917 916 67
f 917 67 64
f 917 64 18
f 917 18 17
f 916 895 893
f 916 893 67
f 916 914 897
f 916 897 895
f 914 902 899
f 914 899 897
f 893 891 65
f 893 65 67
f 891 890 66
f 891 66 65
f 884 882 135
f 884 135 139
f 882 881 136
f 882 136 135
f 881 175 174
f 881 174 136
f 863 862 918
f 863 918 919
f 863 919 179
f 863 179 178
f 919 918 920
f 919 920 921
f 919 921 182
f 919 182 179
f 921 920 922
f 921 922 923
f 921 923 924
f 921 924 182
f 924 133 180
f 924 180 182
f 924 923 925
f 924 925 926
f 924 926 131
f 924 131 133
f 926 925 927
f 926 927 928
f 926 928 132
f 926 132 131
f 928 927 929
f 928 929 930
f 928 930 931
f 928 931 132
f 931 932 130
f 931 130 132
f 931 930 933
f 931 933 934
f 931 934 935
f 931 935 932
f 935 936 937
f 935 937 932
f 935 934 766
f 935 766 103
f 935 103 102
f 935 102 936
f 937 938 109
f 937 109 114
f 937 114 130
f 937 130 932
f 937 936 939
f 937 939 938
f 939 940 941
f 939 941 938
f 939 936 102
f 939 102 942
f 939 942 943
f 939 943 940
f 943 30 29
f 943 29 940
f 943 942 944
f 943 944 945
f 943 945 946
f 943 946 30
f 946 947 24
f 946 24 30
f 946 945 58
f 946 58 948
f 946 948 949
f 946 949 947
f 949 950 951
f 949 951 947
f 949 948 42
f 949 42 44
f 949 44 952
f 949 952 950
f 952 953 954
f 952 954 950
f 952 44 28
f 952 28 27
f 952 27 955
f 952 955 953
f 955 10 11
f 955 11 953
f 955 27 26
f 955 26 956
f 955 956 7
f 955 7 10
f 956 26 25
f 956 25 957
f 956 957 5
f 956 5 7
f 957 25 951
f 957 951 958
f 957 958 6
f 957 6 5
f 958 951 950
f 958 950 954
f 958 954 959
f 958 959 6
f 959 960 2
f 959 2 6
f 959 954 953
f 959 953 11
f 959 11 9
f 959 9 960
f 951 25 24
f 951 24 947
f 948 58 43
f 948 43 42
f 945 944 59
f 945 59 58
f 944 942 102
f 944 102 101
f 944 101 60
f 944 60 59
f 941 32 961
f 941 961 110
f 941 110 109
f 941 109 938
f 941 940 29
f 941 29 32
f 961 35 37
f 961 37 962
f 961 962 111
f 961 111 110
f 961 32 31
f 961 31 35
f 962 37 963
f 962 963 123
f 962 123 112
f 962 112 111
f 963 80 79
f 963 79 964
f 963 964 124
f 963 124 123
f 963 37 36
f 963 36 80
f 964 79 81
f 964 81 965
f 964 965 120
f 964 120 124
f 965 81 90
f 965 90 92
f 965 92 118
f 965 118 120
f 934 933 767
f 934 767 766
f 933 930 929
f 933 929 966
f 933 966 768
f 933 768 767
f 966 929 967
f 966 967 968
f 966 968 770
f 966 770 768
f 968 967 969
f 968 969 970
f 968 970 772
f 968 772 770
f 970 969 782
f 970 782 777
f 970 777 774
f 970 774 772
f 969 967 971
f 969 971 972
f 969 972 783
f 969 783 782
f 972 971 973
f 972 973 974
f 972 974 785
f 972 785 783
f 974 973 922
f 974 922 975
f 974 975 787
f 974 787 785
f 975 922 920
f 975 920 976
f 975 976 211
f 975 211 787
f 976 920 918
f 976 918 977
f 976 977 212
f 976 212 211
f 977 918 862
f 977 862 978
f 977 978 213
f 977 213 212
f 978 862 860
f 978 860 859
f 978 859 979
f 978 979 213
f 979 980 214
f 979 214 213
f 979 859 857
f 979 857 856
f 979 856 795
f 979 795 980
f 980 790 215
f 980 215 214
f 980 795 792
f 980 792 790
f 973 925 923
f 973 923 922
f 973 971 927
f 973 927 925
f 971 967 929
f 971 929 927
f 856 798 796
f 856 796 795
f 850 814 808
f 850 808 806
f 842 148 147
f 842 147 115
f 842 115 87
f 842 87 839
f 842 841 149
f 842 149 148
f 788 787 211
f 788 211 210
f 766 764 104
f 766 104 103
f 761 96 106
f 761 106 105
f 715 713 712
f 715 712 97
f 676 673 671
f 676 671 670
f 669 250 220
f 669 220 219
f 653 651 205
f 653 205 204
f 574 572 252
f 574 252 251
f 572 570 253
f 572 253 252
f 524 520 518
f 524 518 517
f 511 507 505
f 511 505 504
f 442 440 439
f 442 439 234
f 394 390 388
f 394 388 387
f 285 284 229
f 285 229 226
f 269 265 243
f 269 243 242
f 184 151 145
f 184 145 154
f 181 180 133
f 181 133 127
f 171 170 158
f 171 158 157
f 171 157 156
f 171 156 168
f 152 129 128
f 152 128 146
f 147 146 128
f 147 128 121
f 147 121 116
f 147 116 115
f 107 95 981
f 107 981 982
f 107 982 61
f 107 61 60
f 107 106 96
f 107 96 95
f 982 981 983
f 982 983 39
f 982 39 38
f 982 38 61
f 983 984 985
f 983 985 40
f 983 40 34
f 983 34 39
f 983 981 986
f 983 986 984
f 986 987 988
f 986 988 984
f 986 981 95
f 986 95 94
f 986 94 100
f 986 100 987
f 988 70 53
f 988 53 52
f 988 52 985
f 988 985 984
f 988 987 71
f 988 71 70
f 987 100 72
f 987 72 71
f 985 52 51
f 985 51 989
f 985 989 41
f 985 41 40
f 989 51 56
f 989 56 77
f 989 77 76
f 989 76 41
f 91 56 55
f 91 55 89
f 91 90 81
f 91 81 78
f 91 78 77
f 91 77 56
f 89 55 54
f 89 54 82
f 80 36 41
f 80 41 76
f 70 69 54
f 70 54 53
f 960 9 3
f 960 3 2
# Vertices: 989, normals: 0, texture coordinates: 0, faces: 1974

