# https://github.com/mikedh/trimesh

o scapula_l.obj
v -0.00892770 0.01681120 0.06750250
v -0.01006420 0.01534640 0.06753420
v -0.00801370 0.01599920 0.06887630
v -0.00728200 0.01870160 0.06717480
v -0.01015230 0.01582160 0.06655240
v -0.00777390 0.01935920 0.06500480
v -0.00874610 0.01300240 0.07013190
v -0.01013590 0.01147680 0.06946130
v -0.01065910 0.01399280 0.06736490
v -0.00684070 0.01408160 0.07061840
v -0.00478350 0.01501040 0.07093440
v -0.00321520 0.02073360 0.06666690
v -0.00277970 0.01597520 0.07094540
v -0.00416550 0.02122560 0.06434670
v -0.01090820 0.01438160 0.06608150
v -0.00929610 0.01801520 0.06424410
v -0.00815210 0.01952480 0.06337460
v -0.00673820 0.02057360 0.06276530
v -0.00663290 0.00870320 0.06933320
v -0.00833960 0.00909520 0.06911270
v -0.01133030 0.00978160 0.06872630
v -0.01122510 0.01326960 0.06656890
v -0.00488610 0.01161120 0.07016730
v -0.00284490 0.01223440 0.07000780
v -0.00060530 0.01702080 0.07077110
v 0.00221730 0.02214080 0.06549790
v 0.00081450 0.01992720 0.06814920
v -0.00119680 0.02190880 0.06299790
v 0.00169480 0.02247600 0.06254860
v -0.00083090 0.01323360 0.06986660
v -0.00487760 0.02140000 0.06198180
v -0.00203360 0.02202640 0.06047370
v -0.01116350 0.01283520 0.06506230
v -0.01188220 0.01083520 0.06559020
v -0.01026210 0.01473680 0.06380640
v -0.00909740 0.01653040 0.06262770
v -0.00753470 0.01832480 0.06133940
v -0.00656800 0.01744800 0.05906990
v -0.00236390 0.01954960 0.05718410
v -0.00454210 0.01862800 0.05817660
v -0.00316910 0.00912720 0.06922110
v -0.01198890 0.00154400 0.06434090
v -0.00640990 0.00408080 0.06578690
v -0.00418630 0.00732400 0.06856340
v -0.00934100 0.00852160 0.06887510
v -0.01171690 0.00566640 0.06682140
v -0.01308500 0.00511600 0.06630490
v -0.01313740 0.00709760 0.06723000
v -0.01250930 0.00959680 0.06638790
v -0.01249970 0.00871440 0.06727340
v -0.01289380 0.00886320 0.06451580
v 0.00151460 0.01128720 0.06871360
v 0.00431970 0.01581920 0.06934760
v 0.00482640 0.01906000 0.06969130
v 0.00349710 0.02082240 0.06746910
v 0.00543080 0.02178240 0.06278690
v 0.00350850 0.02234240 0.06073460
v 0.01448500 0.01773840 0.06402940
v 0.00536430 0.02156640 0.05463090
v 0.00167300 0.02113120 0.05609260
v 0.00646860 0.02254800 0.05657090
v -0.00080040 0.02103040 0.05801970
v -0.01105140 0.01164720 0.06344160
v -0.01286120 0.00818800 0.06328140
v -0.00994500 0.01360320 0.06200130
v -0.00871410 0.01418640 0.05918810
v -0.00638870 0.01498960 0.05233640
v -0.00835490 0.01349200 0.05397130
v -0.00288630 0.01274480 0.04004740
v 0.00175470 0.01740880 0.04876810
v -0.00218850 0.00770800 0.06814870
v -0.00835750 0.00153920 0.06355390
v -0.01443610 0.00050560 0.06363540
v -0.01631340 -0.00497360 0.05997770
v -0.00958060 -0.00082160 0.06129060
v -0.01187360 0.00399920 0.06597850
v -0.01368490 0.00290640 0.06510970
v -0.00428890 0.00376320 0.06493400
v -0.00313510 0.00594480 0.06697990
v -0.01490700 0.00480880 0.06601710
v -0.01408190 0.00628240 0.06596990
v -0.01385640 0.00699920 0.06410220
v -0.01342470 0.00773280 0.06599020
v -0.01405750 0.00619840 0.06147420
v 0.00618010 0.01135360 0.06691420
v 0.00381870 0.01258640 0.06857480
v 0.00227890 0.00970160 0.06741930
v 0.00656170 0.01345440 0.06831840
v 0.00710920 0.01654560 0.06889000
v 0.00587400 0.02225680 0.05962750
v 0.00796200 0.02224160 0.05876820
v 0.00996440 0.02216320 0.05798710
v 0.01846570 0.02130480 0.05729000
v 0.01266640 0.01568640 0.06569460
v 0.01693440 0.01757120 0.06305410
v 0.00377740 0.02081200 0.05426950
v 0.00685230 0.02099840 0.05337400
v 0.00336930 0.01812000 0.04992880
v 0.01083550 0.02230720 0.05487200
v 0.00981650 0.02134320 0.05344520
v 0.00768560 0.02155280 0.05429470
v -0.01263710 0.00803520 0.06024720
v -0.00924060 0.01277360 0.05762000
v -0.00772010 0.01341200 0.05044340
v -0.00592330 0.01351600 0.04456570
v -0.00751790 0.01274320 0.04596720
v -0.00764270 0.01309840 0.04803410
v -0.01096660 0.00898720 0.04859450
v -0.00482030 0.01291840 0.04189290
v -0.00031370 0.01193600 0.04000040
v 0.00048280 0.01469280 0.04314490
v -0.00295970 0.01161680 0.03888070
v -0.00478750 0.01109200 0.03783270
v 0.00552480 0.01378400 0.05141070
v 0.00473100 0.01286800 0.05004270
v 0.00799200 0.01554960 0.05271540
v 0.00260260 0.01413920 0.04730990
v -0.00677650 -0.00325920 0.05776170
v -0.01807460 -0.00779760 0.05843080
v -0.01664410 -0.01054720 0.05644870
v -0.01871260 -0.00412080 0.06161830
v -0.01349750 -0.00835920 0.05656220
v -0.01826650 0.00312080 0.06592200
v -0.00222000 0.00400720 0.06377810
v -0.00328290 0.00185200 0.06166790
v 0.00668980 0.00788080 0.06237880
v 0.00373370 0.00780560 0.06437290
v 0.00295610 0.00879840 0.06616220
v -0.02360900 -0.00010080 0.05997080
v -0.01631160 0.00406560 0.06317020
v -0.01348660 0.00641920 0.05760370
v 0.00506800 0.00982960 0.06600170
v 0.00661410 0.01004320 0.06545530
v 0.00819870 0.01020960 0.06498780
v 0.01052690 0.01208960 0.06604150
v 0.00935470 0.01417200 0.06783860
v 0.01599860 0.02176960 0.05314130
v 0.01338000 0.02204480 0.05399340
v 0.01733080 0.02161440 0.05536840
v 0.02018900 0.02095360 0.05700640
v 0.01973430 0.01931600 0.05963670
v 0.02148660 0.02111760 0.05399650
v 0.01339610 0.01356960 0.06583050
v 0.01594650 0.01344560 0.06445990
v 0.02200820 0.01737120 0.06130120
v 0.02023470 0.01511360 0.06224800
v 0.02206290 0.01905200 0.05884690
v 0.00696490 0.01952640 0.05134030
v 0.01266260 0.02123040 0.05290590
v 0.01170420 0.02021600 0.05141670
v -0.01271670 0.00695120 0.05401920
v -0.00629720 0.01250240 0.04306830
v -0.00982280 0.01024320 0.04527750
v -0.00861120 0.00963280 0.04063530
v -0.01404820 0.00147120 0.04477640
v -0.01220590 0.00650560 0.04937140
v -0.01096630 0.00882560 0.04659360
v -0.01238370 0.00677280 0.05149370
v -0.00723270 0.00960080 0.03786160
v 0.00038540 0.01249520 0.04061180
v -0.00248080 0.00963440 0.03792480
v -0.00373190 0.01043280 0.03767660
v 0.00114580 0.01189040 0.04080310
v 0.00054140 0.01099840 0.04012850
v 0.00004510 0.00987440 0.03966260
v 0.00492800 0.01114160 0.04425070
v 0.00475090 0.01144320 0.04557310
v 0.00317770 0.01222960 0.04307110
v 0.00255460 0.01356480 0.04618140
v -0.00584590 0.00972000 0.03652790
v -0.00639350 0.00965840 0.03689630
v 0.00581220 0.01080880 0.05157140
v 0.00861510 0.01225200 0.05456280
v 0.00744030 0.01026640 0.05465380
v 0.00653430 0.00984880 0.05287310
v 0.00438280 0.01218400 0.04883870
v 0.00540970 0.00985920 0.05030740
v 0.00925300 0.01405360 0.05404300
v 0.01193300 0.01282880 0.05529530
v 0.01263210 0.01447680 0.05404310
v -0.00922630 -0.00713680 0.05579260
v -0.00653510 -0.00684720 0.05473720
v -0.00386770 -0.00499680 0.05441080
v -0.00214250 0.00071520 0.05868870
v -0.01833790 -0.01285120 0.05549710
v -0.01976510 -0.00630960 0.06024220
v -0.01408240 -0.01352960 0.05377170
v -0.02674150 0.00209040 0.07277730
v -0.02555400 0.00568560 0.07318570
v -0.02709540 0.00466560 0.07207040
v 0.00072220 0.00454000 0.06188210
v 0.00593190 0.00887520 0.06428600
v 0.00529110 0.00708320 0.05914500
v 0.01130660 0.00862000 0.06015810
v -0.06097660 -0.00658880 0.07341010
v -0.02181230 -0.00067920 0.05315730
v 0.00997330 0.01038240 0.06446950
v 0.00981300 0.00921200 0.06273110
v 0.01185880 0.01047520 0.06382180
v 0.01532810 0.01214800 0.06405400
v 0.01459430 0.02017680 0.05092060
v 0.01841920 0.02155360 0.05240680
v 0.02087040 0.01972560 0.04842060
v 0.02204550 0.02060880 0.05638660
v 0.02058870 0.02126800 0.05164810
v 0.02388320 0.01993200 0.04979690
v 0.02228860 0.02070480 0.05071630
v 0.02384190 0.01990160 0.05548730
v 0.02479590 0.01962720 0.05217410
v 0.02097960 0.01263200 0.06183890
v 0.02304180 0.01455680 0.06095200
v 0.02421330 0.01725440 0.06041280
v 0.02558850 0.01907520 0.05457880
v 0.01529030 0.01705200 0.05204470
v -0.01002710 0.00942240 0.04343460
v -0.01073420 0.00620960 0.03767540
v -0.01673720 0.00067280 0.04665490
v -0.01562410 0.00082400 0.04456210
v -0.01525230 -0.00139520 0.04091810
v -0.01318220 0.00043200 0.04054270
v -0.00925580 0.00694400 0.03689300
v 0.00221500 0.01204880 0.04187890
v -0.00593510 0.00703680 0.03526580
v -0.00343330 0.00821840 0.03699460
v 0.00169950 0.00878960 0.04073040
v 0.00392190 0.01097440 0.04286220
v 0.00544820 0.00968320 0.04871090
v 0.00565380 0.00893440 0.04398390
v 0.00608990 0.00906640 0.04467140
v 0.00456720 0.01173120 0.04662960
v 0.00442360 0.01188880 0.04758580
v -0.00704360 0.00769520 0.03511870
v 0.00579210 0.00697520 0.05176400
v 0.00899790 0.01109280 0.05534120
v 0.01025550 0.01271120 0.05528720
v 0.01080690 0.01047360 0.05673780
v 0.00652340 0.00837840 0.05411330
v 0.00923290 0.00990960 0.05641460
v 0.00748240 0.00912560 0.05602670
v 0.00615710 0.00713280 0.04967530
v 0.01365760 0.01278720 0.05510890
v 0.01418160 0.01164080 0.05581750
v 0.01968890 0.01238400 0.05222110
v 0.01587940 0.01235600 0.05455050
v -0.00622240 -0.01602400 0.05007110
v -0.00861330 -0.01799600 0.05051880
v -0.01113840 -0.01600000 0.05207010
v -0.00368700 -0.00836720 0.05191580
v -0.00265900 -0.01162160 0.05027060
v -0.00230100 -0.01468320 0.04898420
v -0.00120830 -0.00643760 0.05137240
v 0.00023100 -0.00248640 0.05242060
v -0.00073900 0.00004560 0.05545040
v 0.00291370 0.00446560 0.05600920
v 0.00159560 0.00439120 0.05921580
v -0.01662220 -0.03928400 0.05050050
v -0.04039000 -0.01690480 0.06619740
v -0.04574150 0.01386640 0.09034220
v -0.03412410 0.00991920 0.08034930
v -0.02983900 0.00780240 0.07676750
v -0.02770770 0.00683680 0.07485310
v -0.06669410 -0.00305200 0.08607470
v -0.03585700 0.00982480 0.08030740
v -0.03199200 0.00895440 0.07843510
v 0.00420940 0.00637920 0.05800130
v 0.00591760 0.00782800 0.05679430
v 0.00701100 0.00815600 0.05812910
v 0.00934670 0.00885280 0.05807920
v 0.01175970 0.00935280 0.06207420
v 0.01710400 0.00889840 0.05867190
v 0.01335140 0.00950240 0.05820800
v 0.01128710 0.00950880 0.05812290
v -0.05423970 -0.00404160 0.06294350
v -0.06777130 -0.00872080 0.07109170
v -0.06944130 -0.00994880 0.07407890
v -0.02639080 0.00336080 0.04601450
v 0.01749250 0.01112720 0.06206570
v 0.01748280 0.00995920 0.06053170
v 0.02535120 0.01758480 0.04720530
v 0.02375470 0.01435200 0.04838180
v 0.01803890 0.01708560 0.05037350
v 0.02562590 0.01883360 0.04911670
v 0.02038810 0.01117760 0.06110390
v 0.02362030 0.01170320 0.06023980
v 0.02525700 0.01431600 0.05994540
v 0.02799670 0.01620480 0.05842180
v 0.02710880 0.01801680 0.05369910
v 0.01802380 0.01491040 0.05156710
v -0.01177370 0.00376240 0.03697700
v -0.01130590 0.00449600 0.03564210
v -0.00997490 0.00495520 0.03486330
v -0.02113410 0.00223120 0.04429900
v -0.01821720 0.00130960 0.04397160
v -0.01669800 -0.00295840 0.04083970
v -0.01645530 -0.00124240 0.04108360
v -0.01338730 -0.00103120 0.03970420
v -0.01596140 -0.00406800 0.04030070
v -0.01233310 0.00060880 0.03517310
v -0.01264750 -0.00206000 0.03379020
v -0.01316790 -0.00260720 0.03742330
v -0.00823680 0.00514800 0.03358150
v -0.00721040 0.00474560 0.03373230
v 0.00320020 0.00349040 0.04218020
v -0.00587410 0.00402640 0.03422860
v -0.00241930 0.00474880 0.03751310
v 0.00372540 0.00783360 0.04218920
v 0.00562550 0.00396080 0.04364750
v 0.00603460 0.00633040 0.04383000
v 0.00694460 0.00484800 0.04848910
v 0.00770490 0.00381360 0.04700820
v 0.00808320 0.00346000 0.04551610
v 0.00505900 0.00660880 0.05492350
v 0.00622430 0.00437520 0.04995000
v 0.00377570 0.00391920 0.05290330
v 0.00421160 0.00110320 0.05062740
v 0.01444360 0.01057680 0.05657090
v 0.01564560 0.01136400 0.05547260
v 0.01584210 0.01039600 0.05621350
v 0.02042050 0.01315760 0.05093710
v 0.02207740 0.01026560 0.05243460
v 0.02104720 0.00988240 0.05471850
v 0.01739490 0.00935040 0.05696500
v -0.00766340 -0.02063920 0.04926430
v -0.00778300 -0.02724160 0.04685770
v 0.00227040 -0.00961600 0.04853440
v 0.00162960 -0.01321520 0.04792130
v 0.00084720 -0.00612240 0.05015820
v 0.00210460 -0.00133120 0.05148070
v -0.02128670 -0.04763760 0.05167150
v -0.02110320 -0.04894000 0.04890060
v -0.06205700 -0.06094960 0.07100370
v -0.01825390 -0.04419120 0.04553040
v -0.01237130 -0.03880000 0.03961210
v -0.00589700 -0.03120560 0.03844640
v -0.08098260 -0.02218800 0.09568150
v -0.06208010 0.00948240 0.09638330
v -0.05202620 0.01457680 0.09333190
v -0.04572260 0.01542320 0.08995050
v -0.04580490 0.01622640 0.08913260
v -0.04602420 0.01647120 0.08752750
v -0.04886180 0.01665120 0.08877070
v -0.05485270 0.01575360 0.09092640
v -0.05783540 0.01461280 0.09176210
v -0.06079980 0.01259840 0.09242710
v -0.06840200 0.00522480 0.09562940
v -0.07602240 -0.00481040 0.09588250
v -0.07768490 -0.01353520 0.08816860
v 0.01564950 0.00949920 0.05752270
v 0.02026000 0.00888960 0.05748010
v 0.02063510 0.00992320 0.05936290
v -0.06303620 -0.00249360 0.05893750
v -0.06597070 -0.00605840 0.06371030
v -0.07018580 -0.01242720 0.07163330
v -0.06964480 -0.01171840 0.07319700
v -0.07097580 -0.01530800 0.07330830
v -0.07278290 -0.01565280 0.07919310
v -0.02271890 0.00574960 0.04097470
v -0.04498310 0.01222240 0.04295250
v 0.02892750 0.01374480 0.04736270
v 0.02841300 0.01556880 0.04784270
v 0.02804570 0.01110880 0.04779150
v 0.02577590 0.01097600 0.04838670
v 0.02733660 0.01749760 0.04866990
v 0.02799680 0.01719760 0.05078980
v 0.02879170 0.01062000 0.05753820
v 0.02852640 0.01678160 0.05292440
v 0.03078580 0.01421520 0.05602440
v -0.01221760 -0.00164080 0.03194500
v -0.02021210 0.00193360 0.04303700
v -0.01986340 -0.00001120 0.04009750
v -0.01944350 -0.00228400 0.04049000
v -0.01880570 -0.00480000 0.04110480
v -0.01452710 -0.00532080 0.03953470
v -0.01694500 -0.00624160 0.04096400
v -0.01228140 -0.00721600 0.03035600
v -0.01229870 -0.00439360 0.03097410
v -0.01527720 -0.00783920 0.04028780
v -0.00907220 -0.00187520 0.02990230
v 0.00492990 -0.00078400 0.04291450
v 0.00048070 0.00250000 0.03993170
v 0.00282480 0.00071280 0.04163400
v -0.00310450 0.00193600 0.03643840
v -0.00786900 -0.00227840 0.03014100
v -0.00426990 -0.00110160 0.03427500
v 0.00736060 0.00297440 0.04435840
v 0.00660930 0.00117920 0.04395420
v 0.00703650 0.00282640 0.04873650
v 0.00810150 0.00189920 0.04750040
v 0.00916220 0.00010080 0.04579190
v 0.00860490 0.00019920 0.04507770
v 0.00325210 -0.00524880 0.04909900
v 0.02531980 0.00919840 0.05080300
v 0.02414880 0.00879920 0.05357520
v 0.02541990 0.00839920 0.05543060
v -0.00283970 -0.02449920 0.04288990
v 0.00561520 -0.01452880 0.04573850
v 0.00550240 -0.01702880 0.04424310
v -0.00327840 -0.02573760 0.04134370
v 0.00393440 -0.01282800 0.04717070
v 0.00436320 -0.00980080 0.04769720
v -0.02317530 -0.05257920 0.04931110
v -0.02912420 -0.06201680 0.05292990
v -0.02714250 -0.05974640 0.04990780
v -0.02058720 -0.04831200 0.04590820
v -0.02269450 -0.05223840 0.04622470
v -0.03562380 -0.07542480 0.05332760
v -0.04388410 -0.09268080 0.05335380
v -0.06157480 -0.12031040 0.05534120
v -0.06608720 -0.12154000 0.05784260
v -0.08644770 -0.05148640 0.08858350
v -0.07483550 -0.11346720 0.06416580
v -0.07940090 -0.10128080 0.06836740
v -0.08399950 -0.08488880 0.07472660
v -0.08509360 -0.07668720 0.07791360
v -0.08349700 -0.06585440 0.08255380
v -0.01496860 -0.04211840 0.04099990
v -0.01837490 -0.04554080 0.04328660
v -0.00767410 -0.03192000 0.03621690
v -0.02209350 -0.04430640 0.04092780
v -0.01402330 -0.03739280 0.03905760
v -0.01944230 -0.04564480 0.04082570
v -0.01812230 -0.04620720 0.04105520
v -0.01170630 -0.03430640 0.03807000
v -0.00138700 -0.02511600 0.03718430
v -0.00313160 -0.02461920 0.03275300
v -0.07447690 -0.00491120 0.09736010
v -0.08318160 -0.02101440 0.09503590
v -0.06559660 0.00719200 0.09617240
v -0.06996590 0.00279040 0.09651400
v -0.06031710 0.01188080 0.09552480
v -0.05761900 0.01345360 0.09508990
v -0.05198610 0.01561600 0.09253010
v -0.05504760 0.01466080 0.09397500
v -0.04884730 0.01570560 0.09135610
v -0.04882140 0.01639600 0.09043710
v -0.05192170 0.01622400 0.09154770
v -0.05827410 0.01404240 0.09427080
v -0.06124990 0.01190160 0.09476550
v -0.07438800 -0.01683760 0.08248830
v -0.07763500 -0.02035600 0.08619260
v -0.08121820 -0.02665680 0.08834820
v 0.02729520 0.00935440 0.05677450
v -0.05975320 -0.00204320 0.05244360
v -0.06479240 -0.00849440 0.05778280
v -0.06830260 -0.01164960 0.06443210
v -0.07048370 -0.01384960 0.07106070
v -0.07041080 -0.01532720 0.07158620
v -0.06580100 -0.01452080 0.07534170
v -0.02170980 0.00424400 0.03940320
v -0.02066890 0.01187920 0.03702680
v -0.02575020 0.01535360 0.03803810
v -0.04867470 0.00813040 0.04419290
v -0.03429710 0.01708880 0.03149010
v -0.03383360 0.01972560 0.03560220
v -0.02731430 0.01912560 0.03641400
v 0.02954420 0.01375680 0.04800080
v 0.02928960 0.01187680 0.04768990
v 0.02942370 0.01494800 0.04866680
v 0.02736210 0.01023280 0.04831810
v 0.02933460 0.01001520 0.04834720
v 0.02932610 0.01553920 0.05066640
v 0.02864400 0.00880640 0.05602780
v 0.03039500 0.00860320 0.05542770
v 0.03096930 0.00951360 0.05567680
v 0.02986900 0.01532960 0.05255940
v 0.03099180 0.01381040 0.05222670
v 0.03157750 0.00914960 0.05460910
v 0.03165490 0.01305360 0.05466960
v 0.03141560 0.01342320 0.05364310
v -0.00980980 -0.00455440 0.02894270
v -0.02149070 0.00262240 0.03747580
v -0.02208750 -0.00067360 0.03830890
v -0.02094390 -0.00399360 0.04032810
v -0.02312030 -0.01410160 0.04806110
v -0.02031600 -0.01582640 0.04741530
v -0.01164630 -0.01607840 0.03011860
v -0.01079630 -0.00724320 0.02902040
v -0.00992500 -0.01053520 0.02864020
v -0.01382580 -0.02384720 0.03776140
v -0.00899130 -0.00465120 0.02875040
v 0.00497140 -0.00682640 0.04143070
v -0.00004180 -0.00063360 0.03891130
v 0.00866350 -0.00586240 0.04421890
v 0.00829420 -0.00257440 0.04442880
v -0.00582460 -0.00336880 0.03162970
v -0.00798800 -0.00490000 0.02912940
v -0.00219060 -0.00286720 0.03572910
v 0.00759820 0.00063760 0.04803720
v 0.00984910 -0.00341520 0.04612760
v 0.00999120 -0.00304000 0.04556020
v 0.00665260 -0.00875760 0.04684630
v 0.00701400 -0.00613600 0.04738290
v 0.00896640 -0.00353600 0.04690890
v 0.00830990 -0.00106240 0.04744280
v 0.02785550 0.00844320 0.05096480
v 0.02846850 0.00790960 0.05293040
v 0.02928820 0.00785760 0.05445200
v 0.00232920 -0.02168480 0.04158570
v 0.00544170 -0.01251120 0.04674130
v 0.01064470 -0.01117520 0.04404240
v 0.00783360 -0.01624480 0.04268290
v -0.02475980 -0.05590800 0.04655420
v -0.03017220 -0.06603840 0.05063730
v -0.02866880 -0.06292400 0.05041400
v -0.02305160 -0.05332960 0.04202770
v -0.02824760 -0.06268240 0.04741440
v -0.02074510 -0.04950800 0.04362300
v -0.02306440 -0.05314160 0.04405680
v -0.04093540 -0.08664880 0.04638930
v -0.03285310 -0.07176000 0.04667480
v -0.04191400 -0.09161360 0.05119410
v -0.04516250 -0.10279040 0.05061690
v -0.04701870 -0.10570720 0.05108440
v -0.06724180 -0.12254720 0.05753980
v -0.06620900 -0.12291120 0.05389570
v -0.06279920 -0.12135840 0.05233470
v -0.05728900 -0.11679760 0.05056950
v -0.05103360 -0.11058560 0.05066290
v -0.07205530 -0.11927040 0.06123930
v -0.08704640 -0.05496720 0.08576700
v -0.08523710 -0.06236560 0.08411170
v -0.08675490 -0.05544400 0.08719840
v -0.07880270 -0.10478880 0.06695400
v -0.07717440 -0.11296480 0.06257420
v -0.07434790 -0.11768400 0.06128920
v -0.08035540 -0.10113040 0.06774140
v -0.08494290 -0.07609680 0.07675480
v -0.08315600 -0.08842800 0.07182610
v -0.08549000 -0.06607680 0.08293830
v -0.08607180 -0.06616480 0.08218850
v -0.08630790 -0.05862880 0.08360780
v -0.00711620 -0.02493840 0.03324150
v -0.01324300 -0.03296720 0.03781480
v -0.04624360 -0.07096320 0.05718650
v -0.02326490 -0.03424640 0.05033480
v -0.02910100 -0.05531120 0.04393830
v -0.02308620 -0.04890800 0.04148590
v -0.01466480 -0.02669680 0.03888650
v -0.02421040 -0.05301120 0.04207750
v 0.00512840 -0.02066560 0.03397650
v -0.00843190 -0.01793440 0.02894080
v 0.00195150 -0.02040880 0.03018010
v -0.08466890 -0.04409280 0.08630630
v -0.07600780 -0.02188480 0.08563720
v -0.05952090 -0.01554480 0.07607860
v -0.06984920 -0.01862480 0.08271310
v -0.07237230 -0.02760160 0.08510070
v -0.06242640 -0.01177920 0.05672640
v -0.05789560 -0.00584400 0.05171140
v -0.04716270 0.00717680 0.04228400
v -0.06571660 -0.01482480 0.06193060
v -0.05835870 -0.01104960 0.06730280
v -0.05851880 -0.01241520 0.07212570
v -0.01997350 0.01104880 0.03564610
v -0.01644530 0.01915120 0.03544860
v -0.02076130 0.02237840 0.03548640
v -0.04504570 0.00137520 0.04726650
v -0.02648710 0.01990320 0.02476470
v -0.02547570 -0.00071520 0.03609580
v -0.02414610 0.00573360 0.03105620
v -0.02382870 0.01556240 0.02368060
v -0.02042490 0.02534160 0.02906590
v -0.01928140 0.02555840 0.02704830
v -0.01689330 0.02284960 0.01533530
v -0.02427890 0.02344400 0.03394420
v -0.01925490 0.02552160 0.03134480
v 0.02988660 0.01187600 0.04833940
v 0.03079930 0.01090000 0.04927300
v 0.03046730 0.01392960 0.05053990
v 0.02956100 0.00893840 0.04986060
v 0.03034450 0.01044480 0.04879750
v 0.03064320 0.00978800 0.04987720
v 0.03085920 0.00786640 0.05423600
v 0.03098870 0.01220320 0.05049490
v 0.03189450 0.01171040 0.05326530
v 0.03098150 0.00856400 0.05303150
v 0.03167450 0.00970880 0.05321800
v -0.00922370 -0.00740960 0.02806280
v -0.02327420 0.00048160 0.03657140
v -0.02081090 0.00661680 0.03220330
v -0.02068500 0.00593600 0.03560950
v -0.03706140 -0.01359120 0.05809310
v -0.03086720 -0.02265200 0.05555870
v -0.02277190 -0.01978240 0.05067390
v -0.02211850 -0.02455600 0.05051030
v -0.00795520 -0.01062320 0.02757280
v -0.00527390 -0.01383680 0.02764860
v 0.00286800 -0.00535440 0.04007280
v 0.00523910 -0.00976800 0.04044060
v 0.00700650 -0.00783600 0.04249940
v 0.00111270 -0.00669520 0.03782670
v 0.01061110 -0.00597680 0.04509520
v 0.00898230 -0.00881600 0.04329800
v 0.00995460 -0.00849360 0.04408030
v -0.00376690 -0.00494560 0.03300350
v -0.00763270 -0.00757680 0.02847420
v -0.00408880 -0.00716480 0.03144800
v -0.00442710 -0.01094320 0.02928260
v -0.00112760 -0.00581200 0.03565370
v 0.01048200 -0.00630400 0.04559230
v 0.00979000 -0.00851120 0.04568350
v 0.02983720 0.00822960 0.05148830
v 0.00720750 -0.01961280 0.03881300
v 0.01040590 -0.01320080 0.04257540
v 0.01086770 -0.01101360 0.04368640
v 0.01088170 -0.00858720 0.04446870
v 0.01059410 -0.00876240 0.04489600
v 0.00990030 -0.01507360 0.04120750
v -0.03119120 -0.06852240 0.04772060
v -0.02971300 -0.06572160 0.04789140
v -0.03067860 -0.06618240 0.04313380
v -0.03192300 -0.06572800 0.04278300
v -0.02768150 -0.05588960 0.04276990
v -0.03437360 -0.07155120 0.04514440
v -0.05014600 -0.10686240 0.04873820
v -0.04824030 -0.09019280 0.04831790
v -0.03626860 -0.07142000 0.04412720
v -0.04420770 -0.10023600 0.04826550
v -0.03184400 -0.06901200 0.04490530
v -0.04672720 -0.10555200 0.04977690
v -0.07100480 -0.12229120 0.05685200
v -0.06895590 -0.12333840 0.05523610
v -0.07302840 -0.12081200 0.05844500
v -0.06861000 -0.12257600 0.05406240
v -0.06595550 -0.12191120 0.05265590
v -0.06428390 -0.12030640 0.05165030
v -0.06505650 -0.09929040 0.05686730
v -0.06873330 -0.11917120 0.05281350
v -0.05066890 -0.10987600 0.04944370
v -0.08637760 -0.06254640 0.08405950
v -0.07851650 -0.10741840 0.06330200
v -0.07532190 -0.11687520 0.05898000
v -0.07535110 -0.11741680 0.06034700
v -0.08374880 -0.07952800 0.07394570
v -0.07641720 -0.11052800 0.05956280
v -0.05184510 -0.02766240 0.06794080
v -0.03641380 -0.06769920 0.04517910
v -0.03315240 -0.06519040 0.04324780
v -0.02531660 -0.05264720 0.04224320
v 0.00755740 -0.01824400 0.03480540
v 0.00945070 -0.01711440 0.03772040
v -0.00049930 -0.01661920 0.02913910
v 0.00239590 -0.01830720 0.03020310
v -0.06877020 -0.02197360 0.08373690
v -0.05212230 -0.00577680 0.05705660
v -0.05116670 0.00120320 0.04720000
v -0.01438550 0.01694240 0.03361850
v -0.01920860 0.01005440 0.03380540
v -0.01375130 0.02078240 0.03495790
v -0.01330590 0.01926080 0.03433430
v -0.01268420 0.02521760 0.03594870
v -0.00913500 0.02273120 0.03494920
v -0.02020060 0.01675120 0.01967600
v -0.02253640 0.00578240 0.03148750
v -0.02055100 0.01234800 0.02444540
v -0.01538940 0.02676960 0.02593780
v -0.01716330 0.02643520 0.02904700
v -0.01375470 0.02502000 0.01341420
v -0.01365530 0.02710320 0.02445200
v -0.00931030 0.02746800 0.01361450
v -0.01459630 0.02217280 0.01401440
v -0.01314930 0.02728800 0.03463060
v -0.01548700 0.02681760 0.03139940
v 0.03117850 0.01059280 0.05025010
v 0.03086440 0.00910480 0.05140990
v 0.03191410 0.01089200 0.05243820
v -0.01872340 0.01175920 0.02614350
v -0.00628990 -0.01063600 0.02803730
v -0.00396730 -0.01381200 0.02828360
v 0.00747030 -0.01045200 0.04155690
v 0.00328860 -0.01129040 0.03785980
v 0.00096920 -0.00936160 0.03649210
v -0.00152080 -0.00847920 0.03396810
v 0.00088050 -0.01230720 0.03482020
v 0.00999340 -0.01489040 0.04076120
v 0.00816800 -0.01266320 0.04041790
v 0.00986380 -0.01465840 0.04007640
v 0.00858650 -0.01455840 0.03913120
v -0.03337460 -0.06871120 0.04344670
v -0.03468920 -0.06823920 0.04357730
v -0.04652210 -0.10457520 0.04881060
v -0.07476150 -0.11641520 0.05754080
v -0.06841200 -0.12152400 0.05309180
v 0.00733630 -0.01614720 0.03653350
v 0.00524050 -0.01725520 0.03351790
v -0.00052730 -0.01538320 0.03016440
v 0.00269740 -0.01648960 0.03211340
v -0.00639100 0.02028640 0.02801600
v -0.00898530 0.01995600 0.03316970
v -0.01373910 0.01650480 0.03151250
v -0.00880300 0.02133360 0.03404100
v -0.00543060 0.02675760 0.03819870
v -0.00710810 0.02336960 0.03522980
v -0.01771860 0.01321520 0.02352800
v -0.01410540 0.02039040 0.01464280
v -0.01174370 0.02812000 0.02916240
v -0.01339170 0.02759440 0.03100090
v -0.01097150 0.02259520 0.01321490
v -0.00806580 0.02877600 0.02166780
v -0.00997170 0.02813520 0.02387200
v -0.01248440 0.02766800 0.02563040
v -0.00125600 0.02829360 0.01523180
v -0.00613590 0.02952800 0.02310750
v 0.00066540 0.03079600 0.01634790
v -0.01002150 0.02852480 0.03003890
v -0.00931510 0.02844240 0.03558420
v 0.00674100 -0.01432480 0.03801630
v 0.00400700 -0.01364880 0.03654830
v 0.00175450 -0.01474560 0.03332010
v 0.00475950 -0.01560880 0.03497010
v -0.00431550 0.02149600 0.02869300
v -0.00726430 0.01940320 0.02486750
v -0.00594750 0.02145120 0.03258900
v -0.00534950 0.02265680 0.03359650
v 0.00365300 0.02722240 0.04126950
v -0.00277980 0.02913280 0.03853380
v -0.00562180 0.02950640 0.03673040
v -0.00076480 0.02812640 0.04028040
v 0.00116030 0.02751600 0.04071840
v 0.00223140 0.02488000 0.03571640
v -0.00801830 0.02087440 0.01837170
v -0.00909730 0.02869920 0.02795590
v 0.00021360 0.02415680 0.02137840
v -0.00783060 0.02887920 0.02538910
v 0.00963540 0.03068480 0.02110020
v 0.00250700 0.02505200 0.02234570
v -0.00369590 0.03086720 0.03022890
v 0.00498420 0.03290880 0.02133480
v 0.00296130 0.03302000 0.02970360
v 0.00859290 0.03300320 0.02104370
v -0.00814050 0.02897920 0.03316340
v -0.00731110 0.02949360 0.03101110
v -0.00416530 0.02198400 0.03149540
v -0.00242520 0.02241680 0.02954820
v -0.00613000 0.02089600 0.02208710
v -0.00084950 0.02281040 0.02738880
v -0.00133230 0.02296240 0.02395160
v -0.00343100 0.02207200 0.02312330
v 0.00000310 0.02407600 0.03420000
v 0.00552630 0.02767840 0.04186340
v 0.00445590 0.02575520 0.03755890
v -0.00384340 0.02985200 0.03706940
v 0.00584920 0.02972080 0.04204930
v -0.00093230 0.03039600 0.03816410
v -0.00128820 0.03216880 0.03355750
v -0.00416890 0.03077840 0.03319640
v -0.00284870 0.03147680 0.03316250
v 0.00417990 0.02524560 0.03398330
v 0.00085950 0.02387760 0.02482210
v 0.01313530 0.02966800 0.02757630
v 0.01473150 0.03067440 0.02628960
v 0.01463440 0.03153440 0.02568470
v 0.01143660 0.02864720 0.02961330
v 0.00363920 0.02478800 0.03028940
v 0.00132780 0.02377040 0.02868450
v 0.00604340 0.02583200 0.03236070
v 0.00991730 0.02772240 0.03205360
v 0.00264260 0.03315680 0.03176160
v 0.00046690 0.03279040 0.03372710
v 0.00493440 0.03366160 0.03205770
v 0.00733070 0.03412720 0.03566400
v 0.01541010 0.03509520 0.03438100
v 0.01580530 0.03437760 0.02757700
v -0.00029130 0.02342960 0.03086620
v 0.01128890 0.03013040 0.04221320
v 0.00734630 0.02782480 0.04164540
v 0.00690640 0.02680640 0.03920110
v 0.00834370 0.02676640 0.03447360
v 0.00873310 0.02722240 0.03781130
v -0.00051840 0.03162880 0.03641820
v 0.01151670 0.03252720 0.04097970
v 0.00137600 0.03193520 0.03719330
v 0.00369900 0.03332080 0.03622310
v 0.00700220 0.03395680 0.03646630
v 0.00207750 0.03325600 0.03468040
v 0.01492310 0.03017040 0.02944760
v 0.01831240 0.03270800 0.02998480
v 0.01016800 0.02734400 0.03615920
v 0.00241820 0.03336000 0.03393440
v 0.01238560 0.03315760 0.04001830
v 0.00444530 0.03369120 0.03541010
v 0.01710430 0.03433200 0.02858350
v 0.01856560 0.03327760 0.03342260
v 0.01806930 0.03336000 0.03674330
v 0.01808830 0.03372080 0.03001420
v 0.01337020 0.03217440 0.04120560
v 0.01446480 0.02964320 0.04023000
v 0.01461020 0.03106560 0.04095140
v 0.01327920 0.03107920 0.04166900
v 0.01113760 0.02761120 0.03705340
v 0.01883090 0.03229760 0.03335370
v 0.01855640 0.03178480 0.03673060
v 0.01487080 0.02959280 0.03318210
v 0.01333100 0.02868720 0.03540170
v 0.01458230 0.03186240 0.04085780
v 0.01679670 0.03202320 0.03906010
v 0.01478810 0.02928880 0.03681330
v 0.01678480 0.03076880 0.03882920
f 1 2 3
f 4 1 3
f 1 5 2
f 1 4 6
f 6 5 1
f 3 2 7
f 7 2 8
f 5 9 2
f 9 5 2
f 2 9 8
f 7 10 3
f 3 11 4
f 10 11 3
f 12 4 13
f 14 6 4
f 4 12 14
f 4 11 13
f 9 5 15
f 16 15 5
f 6 16 5
f 15 16 5
f 5 16 6
f 6 17 16
f 18 17 6
f 18 6 14
f 10 7 19
f 19 7 8
f 20 8 21
f 8 22 21
f 8 9 22
f 19 8 20
f 15 22 9
f 11 10 23
f 10 19 23
f 23 24 11
f 13 11 24
f 13 25 12
f 26 12 27
f 28 14 12
f 12 26 29
f 12 29 28
f 12 25 27
f 25 13 30
f 13 24 30
f 31 18 14
f 32 14 28
f 32 31 14
f 33 15 16
f 34 22 15
f 34 15 33
f 16 35 33
f 36 16 17
f 35 16 36
f 17 37 36
f 18 37 17
f 18 38 37
f 39 18 31
f 40 38 18
f 40 18 39
f 19 41 23
f 19 42 43
f 19 43 44
f 45 19 20
f 42 19 45
f 44 41 19
f 21 45 20
f 46 45 21
f 21 47 46
f 48 47 21
f 21 22 49
f 21 49 50
f 48 21 50
f 22 34 51
f 51 49 22
f 41 24 23
f 30 24 52
f 41 52 24
f 30 53 25
f 25 54 27
f 54 25 53
f 27 55 26
f 56 57 26
f 56 26 58
f 57 29 26
f 26 55 58
f 54 55 27
f 28 29 32
f 57 32 29
f 52 53 30
f 31 32 39
f 32 59 60
f 32 61 59
f 32 62 39
f 60 62 32
f 61 32 57
f 35 63 33
f 33 63 34
f 63 64 34
f 34 64 51
f 35 65 63
f 65 35 36
f 36 66 65
f 37 66 36
f 37 38 66
f 67 68 38
f 67 38 40
f 66 38 68
f 39 67 40
f 69 67 39
f 69 39 70
f 70 39 60
f 60 39 62
f 71 41 44
f 71 52 41
f 42 72 43
f 42 73 74
f 42 74 75
f 42 45 76
f 42 76 77
f 75 72 42
f 77 73 42
f 78 79 43
f 44 43 79
f 43 72 78
f 79 71 44
f 76 45 46
f 76 46 47
f 48 80 47
f 77 47 80
f 76 47 77
f 80 48 81
f 48 50 81
f 82 83 49
f 82 49 51
f 50 49 83
f 81 50 83
f 84 82 51
f 51 64 84
f 85 86 52
f 85 52 87
f 71 87 52
f 52 86 53
f 86 88 53
f 88 89 53
f 53 89 54
f 54 89 58
f 58 55 54
f 90 57 56
f 56 91 90
f 92 91 56
f 56 93 92
f 56 58 93
f 61 57 90
f 89 94 58
f 58 95 93
f 95 58 94
f 59 96 60
f 59 97 98
f 98 96 59
f 97 59 61
f 60 98 70
f 60 96 98
f 99 61 92
f 61 99 100
f 61 100 101
f 97 61 101
f 90 91 61
f 61 91 92
f 63 65 102
f 102 64 63
f 102 84 64
f 103 102 65
f 103 65 66
f 68 103 66
f 104 68 67
f 67 105 106
f 67 106 107
f 107 104 67
f 69 105 67
f 103 68 108
f 104 108 68
f 105 69 109
f 110 69 111
f 69 110 112
f 69 70 111
f 113 109 69
f 113 69 112
f 114 115 70
f 116 114 70
f 116 70 98
f 70 117 111
f 115 117 70
f 79 87 71
f 118 78 72
f 118 72 75
f 80 74 73
f 80 73 77
f 74 119 120
f 119 74 121
f 118 74 122
f 74 118 75
f 74 123 121
f 80 123 74
f 120 122 74
f 79 78 124
f 78 125 124
f 78 118 125
f 79 126 127
f 127 128 79
f 124 126 79
f 87 79 128
f 123 80 129
f 130 80 81
f 80 130 129
f 130 81 83
f 83 82 130
f 82 84 130
f 84 102 131
f 131 130 84
f 85 88 86
f 132 85 87
f 85 132 133
f 134 135 85
f 85 133 134
f 135 88 85
f 87 128 132
f 88 136 89
f 135 136 88
f 89 136 94
f 137 138 92
f 138 99 92
f 92 139 137
f 93 139 92
f 140 93 141
f 95 141 93
f 93 140 142
f 142 139 93
f 136 143 94
f 143 144 94
f 94 144 95
f 145 95 146
f 95 144 146
f 95 145 147
f 95 147 141
f 97 148 98
f 148 97 101
f 98 148 116
f 99 138 149
f 149 100 99
f 101 100 148
f 150 148 100
f 150 100 149
f 131 102 151
f 151 102 103
f 108 151 103
f 108 104 107
f 106 105 152
f 109 152 105
f 153 106 154
f 107 106 153
f 106 152 154
f 153 108 107
f 155 156 108
f 155 108 157
f 158 151 108
f 158 108 156
f 157 108 153
f 109 154 152
f 159 154 109
f 159 109 113
f 111 160 110
f 110 161 162
f 162 112 110
f 110 160 163
f 164 165 110
f 161 110 165
f 110 163 164
f 166 111 167
f 111 168 160
f 111 117 169
f 111 169 167
f 168 111 166
f 113 112 162
f 170 113 162
f 113 171 159
f 113 170 171
f 172 115 114
f 114 116 173
f 114 174 175
f 114 175 172
f 173 174 114
f 115 176 117
f 177 176 115
f 177 115 172
f 116 148 150
f 116 178 173
f 179 178 116
f 116 150 180
f 116 180 179
f 169 117 176
f 118 122 181
f 118 182 183
f 181 182 118
f 118 184 125
f 183 184 118
f 119 185 120
f 185 119 186
f 119 121 186
f 120 185 187
f 187 122 120
f 186 121 188
f 188 121 123
f 187 181 122
f 189 123 190
f 123 129 190
f 189 188 123
f 124 125 191
f 191 126 124
f 184 191 125
f 126 192 127
f 193 126 191
f 194 126 193
f 192 126 194
f 192 128 127
f 192 132 128
f 195 129 196
f 130 196 129
f 195 190 129
f 130 155 196
f 155 130 131
f 155 131 151
f 192 133 132
f 192 134 133
f 135 134 197
f 198 197 134
f 134 192 198
f 199 200 135
f 200 136 135
f 135 197 199
f 200 143 136
f 138 137 201
f 137 202 203
f 203 201 137
f 202 137 139
f 138 201 149
f 202 139 142
f 204 140 141
f 140 204 142
f 141 147 204
f 205 202 142
f 206 207 142
f 204 208 142
f 207 205 142
f 142 209 206
f 208 209 142
f 200 144 143
f 144 210 146
f 210 144 200
f 146 211 145
f 145 212 213
f 213 147 145
f 145 211 212
f 210 211 146
f 208 204 147
f 208 147 213
f 201 150 149
f 150 201 214
f 150 214 180
f 151 158 155
f 153 215 157
f 154 215 153
f 159 216 154
f 216 215 154
f 217 196 155
f 218 217 155
f 218 155 219
f 158 156 155
f 157 215 155
f 219 155 220
f 215 220 155
f 216 159 221
f 171 221 159
f 222 160 168
f 163 160 222
f 161 223 162
f 224 161 225
f 161 165 225
f 161 224 223
f 162 223 170
f 226 163 222
f 164 163 226
f 226 165 164
f 226 225 165
f 166 167 227
f 226 166 228
f 166 229 228
f 168 166 226
f 227 229 166
f 167 169 230
f 167 230 227
f 168 226 222
f 231 230 169
f 176 231 169
f 170 232 171
f 232 170 223
f 232 221 171
f 172 175 233
f 233 177 172
f 174 173 234
f 173 178 235
f 173 235 236
f 173 236 234
f 174 237 175
f 238 239 174
f 238 174 234
f 174 239 237
f 175 237 233
f 176 177 227
f 227 231 176
f 177 233 240
f 177 240 227
f 179 235 178
f 179 180 241
f 235 179 236
f 179 241 242
f 179 242 236
f 243 244 180
f 180 214 243
f 244 241 180
f 245 181 246
f 247 181 187
f 181 247 246
f 182 181 248
f 249 248 181
f 181 245 250
f 181 250 249
f 182 248 183
f 183 248 251
f 252 183 251
f 253 184 183
f 253 183 252
f 253 254 184
f 184 255 191
f 254 255 184
f 256 187 185
f 257 256 185
f 185 186 257
f 186 188 257
f 247 187 256
f 257 188 258
f 188 259 258
f 260 188 189
f 259 188 260
f 190 261 189
f 260 189 261
f 190 262 263
f 190 263 264
f 262 190 195
f 264 261 190
f 265 193 191
f 191 255 265
f 192 194 198
f 193 265 266
f 193 266 267
f 193 268 194
f 267 268 193
f 194 269 198
f 269 194 270
f 270 194 271
f 272 271 194
f 272 194 268
f 195 196 273
f 274 195 273
f 195 275 262
f 195 274 275
f 273 196 276
f 276 196 217
f 269 199 197
f 269 197 198
f 200 199 277
f 278 277 199
f 278 199 269
f 277 210 200
f 214 201 203
f 202 205 203
f 207 203 205
f 207 206 203
f 279 203 206
f 279 280 203
f 203 281 214
f 203 280 281
f 206 282 279
f 282 206 209
f 208 213 209
f 282 209 213
f 210 283 284
f 210 284 211
f 210 277 283
f 211 284 285
f 211 285 212
f 212 286 213
f 212 285 286
f 287 213 286
f 213 287 282
f 243 214 288
f 214 281 288
f 220 215 216
f 216 289 220
f 216 290 289
f 291 216 221
f 291 290 216
f 276 217 292
f 217 218 293
f 217 293 292
f 293 218 219
f 219 294 295
f 296 219 220
f 297 219 296
f 294 219 297
f 293 219 295
f 220 289 298
f 220 299 300
f 296 220 300
f 299 220 298
f 232 301 221
f 301 291 221
f 301 232 223
f 223 302 301
f 224 302 223
f 225 303 224
f 304 224 305
f 224 304 302
f 305 224 303
f 306 225 226
f 303 225 307
f 225 306 307
f 226 228 308
f 308 306 226
f 227 230 231
f 227 240 309
f 227 309 310
f 311 227 310
f 227 311 229
f 228 311 308
f 229 311 228
f 233 237 312
f 240 233 313
f 233 314 315
f 312 314 233
f 315 313 233
f 236 238 234
f 236 316 271
f 236 271 272
f 236 272 238
f 236 242 316
f 237 266 312
f 237 239 266
f 238 268 239
f 272 268 238
f 267 266 239
f 267 239 268
f 240 313 309
f 241 244 317
f 317 242 241
f 318 316 242
f 318 242 317
f 244 243 317
f 243 318 317
f 319 320 243
f 321 243 320
f 321 322 243
f 318 243 322
f 319 243 288
f 323 245 246
f 323 250 245
f 247 323 246
f 256 324 247
f 323 247 324
f 249 251 248
f 325 249 326
f 327 251 249
f 327 249 325
f 249 250 326
f 323 326 250
f 251 327 252
f 252 328 253
f 327 328 252
f 254 253 314
f 314 253 328
f 265 254 312
f 254 265 255
f 254 314 312
f 256 329 330
f 257 331 256
f 256 332 333
f 334 256 333
f 324 256 334
f 256 330 332
f 329 256 331
f 331 257 335
f 258 336 257
f 257 336 335
f 258 337 336
f 338 258 259
f 337 258 338
f 339 338 259
f 259 260 264
f 259 264 263
f 263 340 259
f 340 339 259
f 260 261 264
f 262 340 263
f 340 262 341
f 342 341 262
f 262 343 342
f 344 343 262
f 262 345 344
f 346 345 262
f 347 346 262
f 347 262 275
f 312 266 265
f 270 278 269
f 270 271 348
f 270 349 350
f 350 278 270
f 349 270 322
f 348 322 270
f 348 271 316
f 351 273 276
f 273 352 274
f 273 351 352
f 274 352 353
f 274 353 354
f 354 275 274
f 355 275 354
f 356 347 275
f 356 275 355
f 276 292 357
f 351 276 358
f 276 357 358
f 283 277 278
f 283 278 350
f 359 279 360
f 279 361 362
f 282 363 279
f 279 363 360
f 361 279 359
f 362 280 279
f 280 362 320
f 320 319 280
f 288 280 319
f 281 280 288
f 282 364 363
f 287 364 282
f 284 283 350
f 365 284 350
f 285 284 365
f 365 286 285
f 366 287 286
f 365 367 286
f 286 367 366
f 287 366 364
f 289 368 298
f 289 290 368
f 290 291 368
f 291 301 368
f 292 369 357
f 292 293 369
f 295 370 293
f 293 370 369
f 294 371 295
f 372 294 297
f 294 372 371
f 370 295 371
f 296 373 297
f 300 373 296
f 297 374 372
f 373 374 297
f 368 299 298
f 300 299 375
f 375 299 376
f 299 368 376
f 375 377 300
f 377 373 300
f 378 301 302
f 368 301 378
f 304 378 302
f 307 379 303
f 303 380 305
f 381 303 379
f 380 303 381
f 305 382 304
f 383 304 384
f 304 383 378
f 304 382 384
f 380 382 305
f 307 306 308
f 308 385 307
f 307 386 379
f 385 386 307
f 311 385 308
f 309 387 388
f 309 388 310
f 309 313 387
f 389 311 310
f 310 388 389
f 389 390 311
f 390 385 311
f 387 313 315
f 314 328 315
f 315 328 391
f 391 387 315
f 316 318 348
f 318 322 348
f 320 362 392
f 393 320 392
f 321 320 393
f 394 349 321
f 349 322 321
f 394 321 393
f 324 395 323
f 326 323 396
f 397 323 395
f 323 397 396
f 324 334 398
f 395 324 398
f 326 399 325
f 391 327 325
f 325 400 391
f 399 400 325
f 396 399 326
f 327 391 328
f 329 401 330
f 402 329 331
f 329 402 403
f 403 401 329
f 404 332 330
f 405 404 330
f 330 401 405
f 406 402 331
f 407 406 331
f 408 331 409
f 331 408 407
f 331 335 410
f 411 331 412
f 413 412 331
f 414 413 331
f 415 414 331
f 331 410 415
f 409 331 411
f 333 332 416
f 416 332 417
f 332 404 417
f 334 333 418
f 419 420 333
f 333 421 419
f 333 422 421
f 418 333 423
f 333 416 422
f 333 420 423
f 398 334 424
f 418 425 334
f 424 334 425
f 336 426 335
f 335 427 410
f 335 426 346
f 335 346 427
f 428 429 336
f 430 428 336
f 336 431 430
f 337 431 336
f 426 336 429
f 337 432 433
f 431 337 433
f 434 432 337
f 337 338 434
f 434 338 339
f 339 435 434
f 435 339 340
f 340 341 435
f 341 436 435
f 436 341 342
f 342 433 436
f 343 433 342
f 437 343 438
f 343 437 433
f 343 344 438
f 344 345 438
f 345 346 429
f 345 429 428
f 438 345 428
f 427 346 347
f 429 346 426
f 439 440 347
f 356 439 347
f 441 427 347
f 347 440 441
f 349 394 350
f 350 442 365
f 394 442 350
f 351 358 443
f 352 351 444
f 443 444 351
f 352 445 446
f 446 353 352
f 444 445 352
f 354 353 355
f 446 355 353
f 355 447 448
f 356 355 448
f 446 447 355
f 356 448 439
f 370 357 369
f 449 357 370
f 450 357 449
f 357 451 358
f 357 450 451
f 452 443 358
f 358 453 452
f 454 453 358
f 455 358 451
f 455 454 358
f 360 456 359
f 359 457 361
f 457 359 456
f 363 458 360
f 458 456 360
f 459 362 361
f 460 459 361
f 457 460 361
f 392 362 459
f 458 363 364
f 458 364 461
f 461 364 366
f 365 462 463
f 365 464 367
f 463 464 365
f 365 442 462
f 465 366 367
f 465 461 366
f 466 465 367
f 367 467 468
f 464 467 367
f 367 469 466
f 367 468 469
f 368 378 470
f 470 376 368
f 471 370 472
f 471 449 370
f 371 472 370
f 372 473 371
f 473 472 371
f 474 372 374
f 474 473 372
f 373 377 374
f 475 374 377
f 474 374 475
f 476 377 375
f 375 477 478
f 478 476 375
f 477 375 376
f 477 376 470
f 377 479 475
f 476 479 377
f 480 378 383
f 470 378 480
f 379 481 482
f 379 482 381
f 379 483 481
f 484 483 379
f 379 386 484
f 380 482 382
f 482 380 381
f 384 382 482
f 384 485 383
f 383 486 480
f 486 383 485
f 487 485 384
f 482 487 384
f 390 484 385
f 385 484 386
f 387 391 488
f 488 388 387
f 489 389 388
f 489 388 488
f 490 389 489
f 490 390 389
f 484 390 490
f 391 400 491
f 491 492 391
f 493 494 391
f 493 391 492
f 488 391 494
f 459 495 392
f 392 495 393
f 393 496 394
f 495 496 393
f 462 442 394
f 462 394 497
f 496 497 394
f 498 395 398
f 397 395 498
f 396 499 399
f 500 499 396
f 500 396 397
f 501 397 498
f 397 501 500
f 424 498 398
f 399 499 400
f 400 499 500
f 400 500 491
f 502 401 403
f 502 405 401
f 406 503 402
f 402 503 504
f 504 403 402
f 505 502 403
f 506 505 403
f 506 403 504
f 404 405 507
f 404 507 417
f 405 502 508
f 507 405 508
f 509 510 406
f 406 511 509
f 510 503 406
f 511 406 407
f 512 511 407
f 408 513 407
f 513 512 407
f 408 409 514
f 514 515 408
f 516 517 408
f 515 516 408
f 518 408 517
f 513 408 518
f 411 519 409
f 409 519 514
f 427 520 410
f 415 410 521
f 520 522 410
f 522 521 410
f 523 411 412
f 411 523 524
f 525 519 411
f 525 411 524
f 526 523 412
f 526 412 413
f 413 414 527
f 413 527 528
f 526 413 528
f 414 415 529
f 414 530 531
f 531 527 414
f 529 530 414
f 415 521 529
f 416 417 422
f 417 507 422
f 532 418 423
f 532 425 418
f 419 533 420
f 534 535 419
f 419 536 534
f 537 536 419
f 537 419 421
f 533 419 538
f 419 535 538
f 420 533 423
f 537 421 422
f 422 505 539
f 422 539 537
f 422 508 505
f 507 508 422
f 423 533 532
f 424 540 498
f 540 424 425
f 532 541 425
f 542 425 541
f 542 540 425
f 441 543 427
f 520 427 543
f 438 428 430
f 437 438 430
f 430 431 437
f 437 431 433
f 432 436 433
f 435 436 432
f 435 432 434
f 544 440 439
f 439 448 545
f 439 545 546
f 439 546 544
f 441 440 544
f 547 441 544
f 543 441 547
f 444 443 548
f 549 548 443
f 550 443 452
f 550 549 443
f 548 551 444
f 551 445 444
f 445 447 446
f 447 445 551
f 552 448 447
f 447 551 552
f 448 552 553
f 553 545 448
f 554 449 471
f 450 449 554
f 450 554 555
f 556 450 555
f 450 556 451
f 451 556 455
f 452 453 550
f 550 453 557
f 454 558 453
f 557 453 559
f 560 453 561
f 560 559 453
f 453 558 561
f 454 562 563
f 564 558 454
f 454 563 564
f 455 565 454
f 566 454 565
f 562 454 566
f 556 565 455
f 567 456 458
f 457 456 567
f 460 457 567
f 458 568 567
f 569 458 461
f 568 458 569
f 459 460 570
f 459 570 495
f 567 571 460
f 572 460 571
f 570 460 572
f 569 461 465
f 462 497 463
f 573 464 463
f 463 497 573
f 573 467 464
f 466 569 465
f 574 569 466
f 574 466 469
f 468 467 575
f 467 573 576
f 467 577 575
f 576 577 467
f 575 469 468
f 574 469 575
f 578 477 470
f 578 470 480
f 472 579 471
f 580 581 471
f 580 471 579
f 581 554 471
f 473 559 472
f 559 579 472
f 559 473 474
f 559 474 582
f 583 582 474
f 474 584 583
f 475 584 474
f 585 475 479
f 584 475 585
f 541 479 476
f 476 478 541
f 477 586 478
f 477 578 586
f 541 478 587
f 478 586 587
f 532 533 479
f 532 479 541
f 533 538 479
f 538 585 479
f 486 578 480
f 588 482 481
f 589 481 590
f 481 589 591
f 481 591 588
f 481 483 590
f 487 482 588
f 483 484 490
f 490 592 483
f 483 593 590
f 483 592 594
f 594 593 483
f 487 595 485
f 486 485 595
f 486 596 578
f 595 597 486
f 486 598 596
f 597 598 486
f 591 487 588
f 487 599 595
f 487 591 599
f 494 489 488
f 489 494 493
f 489 493 600
f 490 489 600
f 592 490 600
f 500 601 491
f 601 492 491
f 600 493 492
f 601 600 492
f 495 602 496
f 495 570 602
f 602 497 496
f 602 573 497
f 540 603 498
f 501 498 603
f 500 604 605
f 501 604 500
f 500 605 606
f 500 606 607
f 601 500 607
f 608 501 603
f 501 608 604
f 502 505 508
f 510 609 503
f 504 503 610
f 609 610 503
f 610 506 504
f 505 611 612
f 505 612 613
f 613 539 505
f 505 610 611
f 506 610 505
f 509 614 510
f 615 616 509
f 617 509 616
f 509 618 615
f 509 617 614
f 618 509 511
f 619 510 614
f 609 510 619
f 511 512 618
f 512 513 620
f 620 618 512
f 513 518 620
f 514 621 622
f 622 515 514
f 623 514 519
f 621 514 623
f 622 624 515
f 515 625 516
f 624 625 515
f 626 517 516
f 516 625 626
f 627 517 628
f 517 629 518
f 627 615 517
f 615 629 517
f 626 628 517
f 620 518 629
f 519 525 623
f 630 520 531
f 531 520 543
f 522 520 630
f 529 521 630
f 630 521 522
f 523 526 524
f 524 526 631
f 524 631 632
f 633 524 632
f 525 524 633
f 525 633 623
f 526 528 631
f 634 527 531
f 528 527 634
f 631 528 634
f 529 630 530
f 530 630 531
f 543 634 531
f 583 535 534
f 627 635 534
f 634 543 534
f 634 534 635
f 534 616 627
f 534 543 636
f 636 583 534
f 616 534 617
f 637 617 534
f 534 536 637
f 585 535 583
f 585 538 535
f 637 536 638
f 613 638 536
f 537 639 536
f 639 613 536
f 537 539 639
f 613 639 539
f 540 640 641
f 640 540 542
f 641 603 540
f 642 542 541
f 642 541 587
f 542 643 640
f 642 643 542
f 543 547 636
f 544 644 547
f 546 644 544
f 636 644 545
f 546 545 644
f 545 583 636
f 553 582 545
f 582 583 545
f 547 644 636
f 551 548 645
f 548 549 645
f 549 550 646
f 646 645 549
f 557 646 550
f 551 645 552
f 645 553 552
f 582 553 645
f 554 647 555
f 554 648 647
f 648 554 581
f 556 555 649
f 649 555 650
f 555 647 650
f 556 651 565
f 652 651 556
f 556 649 652
f 582 645 557
f 646 557 645
f 559 582 557
f 558 653 561
f 558 564 653
f 559 560 654
f 654 579 559
f 655 560 561
f 654 560 655
f 653 655 561
f 562 656 563
f 657 562 566
f 562 657 656
f 658 564 563
f 656 659 563
f 563 659 660
f 563 660 658
f 564 658 661
f 564 661 653
f 566 565 662
f 651 662 565
f 566 662 663
f 657 566 663
f 568 571 567
f 568 569 574
f 574 664 568
f 664 571 568
f 602 570 665
f 570 572 665
f 572 571 664
f 666 572 664
f 665 572 666
f 573 602 576
f 666 574 575
f 574 666 664
f 575 577 666
f 602 665 576
f 665 577 576
f 665 666 577
f 586 578 596
f 580 579 654
f 648 581 580
f 580 667 648
f 580 654 667
f 585 583 584
f 668 587 586
f 596 668 586
f 642 587 669
f 668 669 587
f 590 670 589
f 671 591 589
f 671 589 670
f 593 670 590
f 672 591 671
f 599 591 672
f 592 606 594
f 607 606 592
f 600 607 592
f 594 670 593
f 594 606 605
f 594 605 670
f 595 599 673
f 673 597 595
f 668 596 598
f 673 598 597
f 669 668 598
f 669 598 674
f 598 673 674
f 599 672 673
f 601 607 600
f 641 608 603
f 604 675 605
f 604 608 675
f 670 605 676
f 605 677 678
f 605 678 676
f 605 675 677
f 608 641 675
f 610 609 611
f 609 619 611
f 679 612 611
f 611 619 679
f 680 612 679
f 613 612 638
f 680 638 612
f 679 614 617
f 619 614 679
f 616 615 627
f 615 681 629
f 615 618 681
f 617 680 679
f 680 617 637
f 681 618 620
f 629 681 620
f 621 624 622
f 621 623 682
f 682 624 621
f 623 633 632
f 682 623 632
f 682 683 624
f 624 683 625
f 625 683 626
f 626 683 628
f 635 627 628
f 683 682 628
f 635 628 682
f 634 635 631
f 632 631 635
f 635 682 632
f 638 680 637
f 684 641 640
f 684 640 685
f 643 685 640
f 678 677 641
f 678 641 684
f 675 641 677
f 642 669 686
f 642 686 643
f 643 686 687
f 643 687 685
f 688 689 647
f 690 688 647
f 647 648 690
f 689 650 647
f 648 667 690
f 652 649 650
f 691 652 650
f 691 650 689
f 662 651 692
f 692 651 693
f 651 652 693
f 652 691 693
f 653 694 655
f 653 661 695
f 653 695 694
f 654 655 667
f 694 667 655
f 696 659 656
f 656 657 696
f 697 696 657
f 697 657 663
f 698 661 658
f 658 660 698
f 660 659 699
f 700 659 701
f 659 700 699
f 701 659 696
f 660 702 698
f 703 704 660
f 703 660 699
f 702 660 704
f 695 661 698
f 662 697 663
f 697 662 705
f 705 662 706
f 692 706 662
f 694 690 667
f 674 686 669
f 671 670 676
f 707 671 676
f 674 672 671
f 671 708 674
f 671 707 708
f 673 672 674
f 709 686 674
f 709 674 708
f 676 678 707
f 707 678 684
f 707 684 710
f 684 685 710
f 710 685 687
f 709 687 686
f 687 709 710
f 688 711 689
f 688 694 712
f 688 690 694
f 711 688 712
f 689 713 691
f 711 713 689
f 691 714 693
f 713 714 691
f 715 692 693
f 692 716 717
f 692 718 716
f 692 717 706
f 692 719 718
f 692 715 719
f 693 720 715
f 714 720 693
f 695 721 694
f 721 712 694
f 695 698 721
f 700 701 696
f 696 722 700
f 697 705 696
f 696 705 722
f 723 721 698
f 698 702 723
f 724 703 699
f 699 700 724
f 700 722 724
f 702 725 726
f 702 726 723
f 702 704 725
f 704 703 727
f 727 703 724
f 728 704 729
f 704 727 729
f 728 730 704
f 725 704 730
f 705 706 731
f 722 705 732
f 731 732 705
f 731 706 717
f 710 708 707
f 709 708 710
f 711 733 713
f 711 734 733
f 712 734 711
f 712 721 735
f 736 712 737
f 735 738 712
f 712 738 737
f 712 736 734
f 713 733 714
f 733 739 714
f 714 739 720
f 740 719 715
f 740 715 741
f 720 741 715
f 717 716 742
f 718 743 716
f 743 744 716
f 744 742 716
f 717 742 745
f 717 746 732
f 717 732 731
f 717 747 746
f 745 747 717
f 718 719 743
f 719 740 743
f 741 720 748
f 720 739 748
f 721 723 737
f 721 738 735
f 737 738 721
f 724 722 727
f 722 732 727
f 723 726 749
f 723 749 737
f 750 726 725
f 751 725 752
f 725 751 750
f 752 725 730
f 753 726 750
f 754 755 726
f 755 749 726
f 756 754 726
f 726 753 757
f 726 757 756
f 758 729 727
f 727 732 746
f 727 745 759
f 727 759 758
f 747 745 727
f 746 747 727
f 729 760 728
f 728 761 762
f 728 762 763
f 728 760 761
f 763 730 728
f 758 760 729
f 730 763 752
f 739 733 734
f 764 734 736
f 739 734 764
f 737 749 736
f 736 755 764
f 755 736 749
f 755 754 739
f 755 739 764
f 748 739 754
f 765 743 740
f 765 740 766
f 767 740 741
f 766 740 767
f 756 768 741
f 756 741 748
f 769 741 768
f 767 741 769
f 742 744 770
f 770 745 742
f 771 743 765
f 744 743 772
f 773 772 743
f 773 743 774
f 743 771 774
f 744 772 770
f 745 770 775
f 745 775 759
f 754 756 748
f 776 750 751
f 776 753 750
f 751 752 777
f 751 777 776
f 777 752 763
f 753 776 778
f 778 757 753
f 756 757 768
f 778 768 757
f 758 759 779
f 779 761 758
f 761 760 758
f 759 775 779
f 761 780 762
f 761 774 780
f 781 761 779
f 774 761 781
f 762 782 763
f 783 762 784
f 782 762 783
f 762 780 784
f 782 785 763
f 785 777 763
f 771 765 786
f 787 765 766
f 765 787 788
f 765 788 789
f 765 789 786
f 766 767 769
f 769 790 766
f 787 766 790
f 768 778 769
f 778 790 769
f 775 770 773
f 773 770 772
f 774 771 780
f 780 771 786
f 775 773 781
f 781 773 774
f 779 775 781
f 791 776 777
f 792 793 776
f 792 776 791
f 776 793 794
f 776 794 778
f 791 777 785
f 778 794 790
f 780 786 784
f 783 785 782
f 784 792 783
f 792 791 783
f 791 785 783
f 784 786 795
f 784 796 792
f 784 795 796
f 786 789 795
f 787 790 794
f 787 794 797
f 797 798 787
f 798 788 787
f 796 795 788
f 796 788 798
f 789 788 795
f 793 792 797
f 792 796 798
f 792 798 797
f 797 794 793

